M48
; DRILL file {KiCad 7.0.2} date Wed May  3 22:51:00 2023
; FORMAT={-:-/ absolute / metric / decimal}
; #@! TF.CreationDate,2023-05-03T22:51:00+02:00
; #@! TF.GenerationSoftware,Kicad,Pcbnew,7.0.2
; #@! TF.FileFunction,Plated,1,4,PTH
FMAT,2
METRIC
; #@! TA.AperFunction,Plated,PTH,ViaDrill
T1C0.100
; #@! TA.AperFunction,Plated,PTH,ViaDrill
T2C0.150
; #@! TA.AperFunction,Plated,PTH,ViaDrill
T3C0.400
; #@! TA.AperFunction,Plated,PTH,ComponentDrill
T4C0.600
; #@! TA.AperFunction,Plated,PTH,ComponentDrill
T5C0.965
; #@! TA.AperFunction,Plated,PTH,ComponentDrill
T6C1.000
; #@! TA.AperFunction,Plated,PTH,ComponentDrill
T7C1.320
; #@! TA.AperFunction,Plated,PTH,ComponentDrill
T8C2.390
; #@! TA.AperFunction,Plated,PTH,ComponentDrill
T9C3.550
%
G90
G05
T1
X1.753Y24.003
X3.962Y31.217
X6.655Y27.965
X7.645Y31.369
X7.645Y29.261
X8.103Y30.988
X8.103Y29.769
X8.734Y42.571
X8.802Y44.835
X9.725Y41.58
X10.197Y40.567
X11.379Y25.781
X11.485Y26.962
X11.86Y29.123
X12.268Y37.948
X12.268Y29.286
X12.875Y37.998
X13.059Y29.189
X13.459Y29.007
X13.879Y29.337
X14.059Y41.529
X14.268Y37.567
X14.677Y29.435
X15.186Y43.968
X15.418Y24.401
X15.799Y29.743
X15.799Y27.093
X15.824Y23.393
X15.9Y30.582
X16.307Y22.885
X16.713Y31.369
X16.713Y22.022
X17.145Y32.178
X17.145Y23.901
X17.551Y31.775
X17.551Y25.781
X20.662Y22.265
T2
X0.356Y31.852
X0.381Y68.58
X0.381Y58.699
X0.381Y52.222
X0.432Y43.993
X0.483Y22.708
X0.508Y8.001
X0.584Y15.621
X0.61Y0.33
X0.838Y24.638
X0.911Y36.855
X0.94Y61.798
X1.219Y73.736
X1.245Y78.181
X1.245Y25.095
X1.473Y66.726
X1.473Y66.04
X1.549Y69.952
X1.549Y28.092
X1.702Y59.385
X1.702Y25.502
X2.007Y27.686
X2.032Y69.494
X2.159Y29.108
X2.257Y33.934
X2.613Y41.707
X2.769Y26.416
X2.997Y29.108
X3.019Y62.535
X3.019Y46.609
X3.861Y66.726
X3.861Y66.065
X3.861Y24.663
X4.01Y48.158
X4.569Y37.719
X4.594Y34.569
X4.594Y33.503
X4.772Y48.971
X4.775Y50.444
X4.902Y29.261
X4.978Y22.911
X4.978Y4.775
X5.483Y57.912
X5.509Y56.591
X5.563Y15.392
X5.61Y35.789
X5.613Y62.205
X5.737Y34.544
X6.02Y23.825
X6.02Y14.935
X6.118Y32.563
X6.271Y38.1
X6.271Y36.982
X6.271Y36.17
X6.426Y21.184
X6.477Y18.593
X6.528Y24.917
X6.604Y23.647
X6.629Y26.899
X6.779Y33.198
X6.934Y25.349
X7.01Y16.789
X7.01Y14.478
X7.036Y15.57
X7.087Y0.33
X7.112Y52.934
X7.134Y41.707
X7.391Y48.362
X7.442Y78.181
X7.518Y24.409
X7.671Y73.914
X7.696Y21.184
X7.795Y34.544
X7.874Y18.593
X7.95Y12.802
X8.074Y33.274
X8.179Y68.91
X8.204Y23.749
X8.531Y43.688
X8.687Y7.772
X8.988Y56.591
X9.017Y19.812
X9.11Y28.396
X9.119Y29.667
X9.192Y40.513
X9.423Y23.292
X9.423Y21.133
X9.471Y62.56
X9.496Y61.29
X9.496Y59.995
X9.5Y26.128
X9.5Y24.867
X9.5Y12.776
X9.522Y58.826
X9.776Y42.443
X9.804Y27.838
X9.852Y50.47
X10.084Y18.669
X10.262Y21.107
X10.312Y26.128
X10.465Y5.613
X10.617Y16.967
X10.668Y66.319
X10.719Y69.698
X10.82Y10.566
X10.846Y6.198
X10.964Y20.701
X11.024Y27.711
X11.227Y49.479
X11.354Y39.522
X11.503Y61.874
X11.528Y46.965
X11.605Y34.519
X11.605Y33.63
X11.605Y32.639
X11.862Y39.98
X11.989Y54.407
X12.116Y59.055
X12.294Y78.181
X12.344Y24.562
X12.344Y23.901
X12.344Y23.266
X12.468Y56.591
X12.497Y48.438
X12.57Y34.519
X12.57Y33.63
X12.57Y32.639
X12.878Y50.749
X12.903Y70.739
X13.005Y61.544
X13.03Y24.562
X13.03Y23.901
X13.03Y23.266
X13.132Y54.178
X13.259Y20.142
X13.259Y19.634
X13.259Y19.126
X13.259Y18.618
X13.259Y18.11
X13.259Y17.602
X13.259Y17.094
X13.259Y16.586
X13.259Y16.078
X13.259Y15.57
X13.259Y14.046
X13.259Y13.538
X13.259Y13.03
X13.259Y12.522
X13.259Y12.014
X13.259Y11.506
X13.259Y10.998
X13.259Y10.49
X13.259Y9.982
X13.259Y9.474
X13.259Y8.966
X13.259Y8.458
X13.259Y7.95
X13.259Y7.442
X13.259Y6.934
X13.259Y6.426
X13.259Y5.918
X13.259Y5.41
X13.259Y4.902
X13.259Y4.394
X13.259Y3.886
X13.259Y3.378
X13.259Y2.87
X13.259Y2.362
X13.259Y1.854
X13.259Y1.346
X13.259Y0.838
X13.259Y0.33
X13.386Y49.733
X13.484Y34.519
X13.484Y33.63
X13.484Y32.639
X13.741Y24.562
X13.741Y23.901
X13.741Y23.266
X13.767Y50.241
X13.767Y20.142
X14.073Y26.631
X14.122Y20.701
X14.275Y43.739
X14.275Y20.142
X14.754Y45.872
X14.783Y55.956
X14.783Y55.448
X14.783Y52.908
X14.783Y51.892
X14.783Y49.352
X14.783Y48.844
X14.783Y20.142
X14.808Y63.678
X14.808Y22.403
X15.011Y40.005
X15.037Y73.685
X15.037Y62.357
X15.291Y29.21
X15.291Y28.169
X15.291Y20.142
X15.342Y25.324
X15.469Y39.497
X15.799Y20.142
X15.926Y55.829
X15.999Y41.58
X16.159Y52.146
X16.18Y73.66
X16.231Y69.469
X16.307Y20.142
X16.459Y43.688
X16.561Y37.16
X16.764Y58.344
X16.815Y20.142
X17.221Y64.491
X17.294Y60.503
X17.297Y62.281
X17.323Y56.591
X17.323Y20.142
X17.45Y56.21
X17.45Y52.654
X17.577Y49.479
X17.577Y48.59
X17.628Y78.207
X17.678Y40.005
X17.831Y20.142
X18.009Y76.124
X18.31Y35.763
X18.313Y37.414
X18.339Y20.142
X18.364Y32.41
X18.466Y30.378
X18.542Y43.688
X18.745Y36.195
X18.771Y36.982
X18.847Y50.495
X18.847Y20.142
X18.869Y47.142
X18.872Y32.842
X18.92Y58.191
X18.973Y52.4
X18.974Y54.686
X19.355Y20.142
X19.812Y24.435
X19.863Y20.142
X20.218Y36.347
X20.371Y20.142
X20.459Y75.692
X20.879Y20.142
X21.384Y42.494
X21.384Y40.234
X21.387Y54.686
X21.387Y52.4
X21.387Y50.495
X21.387Y20.142
X21.409Y44.983
X21.895Y64.16
X21.895Y20.142
X22.069Y58.852
X22.2Y78.207
X22.301Y70.663
X22.403Y20.142
X22.631Y31.521
X22.631Y27.026
X22.657Y37.973
X22.682Y22.86
X22.911Y20.142
T3
X1.899Y33.353
X2.565Y30.404
X2.918Y45.06
X3.019Y56.591
X3.251Y27.407
X5.324Y37.406
X5.839Y43.806
X6.299Y48.209
X7.972Y63.399
X8.001Y36.601
X8.164Y32.573
X8.28Y25.552
X10.512Y56.693
X10.566Y22.149
X11.455Y63.449
X11.528Y51.105
X12.522Y19.863
X12.908Y27.558
X14.195Y53.924
X14.195Y50.876
X15.068Y38.024
X16.38Y71.907
X16.913Y36.179
X16.989Y32.868
X18.173Y73.66
T5
X2.232Y54.432
X2.232Y51.892
X2.232Y49.352
T6
X12.011Y45.613
X12.011Y43.073
X13.84Y68.372
X13.84Y65.832
X20.955Y33.304
X20.955Y30.764
T7
X11.528Y75.649
X11.528Y3.429
T8
X3.658Y75.649
T9
X3.658Y12.249
X19.398Y67.449
T4
X15.368Y56.72G85X16.368Y56.72
G05
X15.368Y48.08G85X16.368Y48.08
G05
X20.478Y56.72G85X21.978Y56.72
G05
X20.478Y48.08G85X21.978Y48.08
G05
T0
M30
