%TF.GenerationSoftware,KiCad,Pcbnew,7.0.2*%
%TF.CreationDate,2023-05-03T22:51:01+02:00*%
%TF.ProjectId,Frackstock,46726163-6b73-4746-9f63-6b2e6b696361,rev?*%
%TF.SameCoordinates,PX54f9b60PY6e87f28*%
%TF.FileFunction,Drillmap*%
%TF.FilePolarity,Positive*%
%FSLAX45Y45*%
G04 Gerber Fmt 4.5, Leading zero omitted, Abs format (unit mm)*
G04 Created by KiCad (PCBNEW 7.0.2) date 2023-05-03 22:51:01*
%MOMM*%
%LPD*%
G01*
G04 APERTURE LIST*
%ADD10C,0.100000*%
%ADD11C,0.200000*%
%ADD12C,0.010000*%
%ADD13C,0.015000*%
%ADD14C,0.040000*%
%ADD15C,0.060000*%
%ADD16C,0.096520*%
%ADD17C,0.132000*%
%ADD18C,0.239000*%
%ADD19C,0.355000*%
G04 APERTURE END LIST*
D10*
X-320Y7904260D02*
X2304480Y7904260D01*
X2304480Y20D01*
X-320Y20D01*
X-320Y7904260D01*
D11*
D12*
X170260Y2405300D02*
X180260Y2395300D01*
X180260Y2405300D02*
X170260Y2395300D01*
X391240Y3126660D02*
X401240Y3116660D01*
X401240Y3126660D02*
X391240Y3116660D01*
X660480Y2801540D02*
X670480Y2791540D01*
X670480Y2801540D02*
X660480Y2791540D01*
X759540Y3141900D02*
X769540Y3131900D01*
X769540Y3141900D02*
X759540Y3131900D01*
X759540Y2931080D02*
X769540Y2921080D01*
X769540Y2931080D02*
X759540Y2921080D01*
X805260Y3103800D02*
X815260Y3093800D01*
X815260Y3103800D02*
X805260Y3093800D01*
X805260Y2981880D02*
X815260Y2971880D01*
X815260Y2981880D02*
X805260Y2971880D01*
X868440Y4262060D02*
X878440Y4252060D01*
X878440Y4262060D02*
X868440Y4252060D01*
X875210Y4488470D02*
X885210Y4478470D01*
X885210Y4488470D02*
X875210Y4478470D01*
X967500Y4163000D02*
X977500Y4153000D01*
X977500Y4163000D02*
X967500Y4153000D01*
X1014715Y4061670D02*
X1024715Y4051670D01*
X1024715Y4061670D02*
X1014715Y4051670D01*
X1132920Y2583100D02*
X1142920Y2573100D01*
X1142920Y2583100D02*
X1132920Y2573100D01*
X1143502Y2701158D02*
X1153502Y2691158D01*
X1153502Y2701158D02*
X1143502Y2691158D01*
X1181013Y2917297D02*
X1191013Y2907297D01*
X1191013Y2917297D02*
X1181013Y2907297D01*
X1221820Y3799760D02*
X1231820Y3789760D01*
X1231820Y3799760D02*
X1221820Y3789760D01*
X1221820Y2933620D02*
X1231820Y2923620D01*
X1231820Y2933620D02*
X1221820Y2923620D01*
X1282460Y3804840D02*
X1292460Y3794840D01*
X1292460Y3804840D02*
X1282460Y3794840D01*
X1300871Y2923891D02*
X1310871Y2913891D01*
X1310871Y2923891D02*
X1300871Y2913891D01*
X1340880Y2905700D02*
X1350880Y2895700D01*
X1350880Y2905700D02*
X1340880Y2895700D01*
X1382870Y2938720D02*
X1392870Y2928720D01*
X1392870Y2938720D02*
X1382870Y2928720D01*
X1400910Y4157920D02*
X1410910Y4147920D01*
X1410910Y4157920D02*
X1400910Y4147920D01*
X1421820Y3761660D02*
X1431820Y3751660D01*
X1431820Y3761660D02*
X1421820Y3751660D01*
X1462722Y2948462D02*
X1472722Y2938462D01*
X1472722Y2948462D02*
X1462722Y2938462D01*
X1513600Y4401760D02*
X1523600Y4391760D01*
X1523600Y4401760D02*
X1513600Y4391760D01*
X1536780Y2445140D02*
X1546780Y2435140D01*
X1546780Y2445140D02*
X1536780Y2435140D01*
X1574880Y2979340D02*
X1584880Y2969340D01*
X1584880Y2979340D02*
X1574880Y2969340D01*
X1574880Y2714330D02*
X1584880Y2704330D01*
X1584880Y2714330D02*
X1574880Y2704330D01*
X1577420Y2344340D02*
X1587420Y2334340D01*
X1587420Y2344340D02*
X1577420Y2334340D01*
X1585040Y3063160D02*
X1595040Y3053160D01*
X1595040Y3063160D02*
X1585040Y3053160D01*
X1625680Y2293540D02*
X1635680Y2283540D01*
X1635680Y2293540D02*
X1625680Y2283540D01*
X1666320Y3141900D02*
X1676320Y3131900D01*
X1676320Y3141900D02*
X1666320Y3131900D01*
X1666320Y2207180D02*
X1676320Y2197180D01*
X1676320Y2207180D02*
X1666320Y2197180D01*
X1709500Y3222845D02*
X1719500Y3212845D01*
X1719500Y3222845D02*
X1709500Y3212845D01*
X1709500Y2395140D02*
X1719500Y2385140D01*
X1719500Y2395140D02*
X1709500Y2385140D01*
X1750140Y3182540D02*
X1760140Y3172540D01*
X1760140Y3182540D02*
X1750140Y3172540D01*
X1750140Y2583100D02*
X1760140Y2573100D01*
X1760140Y2583100D02*
X1750140Y2573100D01*
X2061200Y2231480D02*
X2071200Y2221480D01*
X2071200Y2231480D02*
X2061200Y2221480D01*
D13*
X43060Y3185160D02*
G75*
G03*
X43060Y3185160I-7500J0D01*
G01*
X45600Y6858000D02*
G75*
G03*
X45600Y6858000I-7500J0D01*
G01*
X45600Y5869940D02*
G75*
G03*
X45600Y5869940I-7500J0D01*
G01*
X45600Y5222240D02*
G75*
G03*
X45600Y5222240I-7500J0D01*
G01*
X50680Y4399280D02*
G75*
G03*
X50680Y4399280I-7500J0D01*
G01*
X55760Y2270760D02*
G75*
G03*
X55760Y2270760I-7500J0D01*
G01*
X58300Y800100D02*
G75*
G03*
X58300Y800100I-7500J0D01*
G01*
X65920Y1562100D02*
G75*
G03*
X65920Y1562100I-7500J0D01*
G01*
X68460Y33020D02*
G75*
G03*
X68460Y33020I-7500J0D01*
G01*
X91320Y2463800D02*
G75*
G03*
X91320Y2463800I-7500J0D01*
G01*
X98620Y3685540D02*
G75*
G03*
X98620Y3685540I-7500J0D01*
G01*
X101480Y6179820D02*
G75*
G03*
X101480Y6179820I-7500J0D01*
G01*
X129420Y7373620D02*
G75*
G03*
X129420Y7373620I-7500J0D01*
G01*
X131960Y7818120D02*
G75*
G03*
X131960Y7818120I-7500J0D01*
G01*
X131960Y2509520D02*
G75*
G03*
X131960Y2509520I-7500J0D01*
G01*
X154820Y6672580D02*
G75*
G03*
X154820Y6672580I-7500J0D01*
G01*
X154820Y6604000D02*
G75*
G03*
X154820Y6604000I-7500J0D01*
G01*
X162440Y6995160D02*
G75*
G03*
X162440Y6995160I-7500J0D01*
G01*
X162440Y2809240D02*
G75*
G03*
X162440Y2809240I-7500J0D01*
G01*
X177680Y5938520D02*
G75*
G03*
X177680Y5938520I-7500J0D01*
G01*
X177680Y2550160D02*
G75*
G03*
X177680Y2550160I-7500J0D01*
G01*
X208160Y2768600D02*
G75*
G03*
X208160Y2768600I-7500J0D01*
G01*
X210700Y6949440D02*
G75*
G03*
X210700Y6949440I-7500J0D01*
G01*
X223400Y2910840D02*
G75*
G03*
X223400Y2910840I-7500J0D01*
G01*
X233240Y3393440D02*
G75*
G03*
X233240Y3393440I-7500J0D01*
G01*
X268800Y4170680D02*
G75*
G03*
X268800Y4170680I-7500J0D01*
G01*
X284360Y2641600D02*
G75*
G03*
X284360Y2641600I-7500J0D01*
G01*
X307220Y2910840D02*
G75*
G03*
X307220Y2910840I-7500J0D01*
G01*
X309440Y6253480D02*
G75*
G03*
X309440Y6253480I-7500J0D01*
G01*
X309440Y4660900D02*
G75*
G03*
X309440Y4660900I-7500J0D01*
G01*
X393580Y6672580D02*
G75*
G03*
X393580Y6672580I-7500J0D01*
G01*
X393580Y6606540D02*
G75*
G03*
X393580Y6606540I-7500J0D01*
G01*
X393580Y2466340D02*
G75*
G03*
X393580Y2466340I-7500J0D01*
G01*
X408500Y4815840D02*
G75*
G03*
X408500Y4815840I-7500J0D01*
G01*
X464380Y3771900D02*
G75*
G03*
X464380Y3771900I-7500J0D01*
G01*
X466920Y3456940D02*
G75*
G03*
X466920Y3456940I-7500J0D01*
G01*
X466920Y3350260D02*
G75*
G03*
X466920Y3350260I-7500J0D01*
G01*
X484700Y4897120D02*
G75*
G03*
X484700Y4897120I-7500J0D01*
G01*
X485020Y5044440D02*
G75*
G03*
X485020Y5044440I-7500J0D01*
G01*
X497720Y2926080D02*
G75*
G03*
X497720Y2926080I-7500J0D01*
G01*
X505340Y2291080D02*
G75*
G03*
X505340Y2291080I-7500J0D01*
G01*
X505340Y477520D02*
G75*
G03*
X505340Y477520I-7500J0D01*
G01*
X555820Y5791200D02*
G75*
G03*
X555820Y5791200I-7500J0D01*
G01*
X558360Y5659120D02*
G75*
G03*
X558360Y5659120I-7500J0D01*
G01*
X563760Y1539240D02*
G75*
G03*
X563760Y1539240I-7500J0D01*
G01*
X568520Y3578860D02*
G75*
G03*
X568520Y3578860I-7500J0D01*
G01*
X568840Y6220460D02*
G75*
G03*
X568840Y6220460I-7500J0D01*
G01*
X581220Y3454400D02*
G75*
G03*
X581220Y3454400I-7500J0D01*
G01*
X609480Y2382520D02*
G75*
G03*
X609480Y2382520I-7500J0D01*
G01*
X609480Y1493520D02*
G75*
G03*
X609480Y1493520I-7500J0D01*
G01*
X619320Y3256280D02*
G75*
G03*
X619320Y3256280I-7500J0D01*
G01*
X634560Y3810000D02*
G75*
G03*
X634560Y3810000I-7500J0D01*
G01*
X634560Y3698240D02*
G75*
G03*
X634560Y3698240I-7500J0D01*
G01*
X634560Y3616960D02*
G75*
G03*
X634560Y3616960I-7500J0D01*
G01*
X650120Y2118360D02*
G75*
G03*
X650120Y2118360I-7500J0D01*
G01*
X655200Y1859280D02*
G75*
G03*
X655200Y1859280I-7500J0D01*
G01*
X660280Y2491740D02*
G75*
G03*
X660280Y2491740I-7500J0D01*
G01*
X667900Y2364740D02*
G75*
G03*
X667900Y2364740I-7500J0D01*
G01*
X670440Y2689860D02*
G75*
G03*
X670440Y2689860I-7500J0D01*
G01*
X685360Y3319780D02*
G75*
G03*
X685360Y3319780I-7500J0D01*
G01*
X700920Y2534920D02*
G75*
G03*
X700920Y2534920I-7500J0D01*
G01*
X708540Y1678940D02*
G75*
G03*
X708540Y1678940I-7500J0D01*
G01*
X708540Y1447800D02*
G75*
G03*
X708540Y1447800I-7500J0D01*
G01*
X711080Y1557020D02*
G75*
G03*
X711080Y1557020I-7500J0D01*
G01*
X716160Y33020D02*
G75*
G03*
X716160Y33020I-7500J0D01*
G01*
X718700Y5293360D02*
G75*
G03*
X718700Y5293360I-7500J0D01*
G01*
X720920Y4170680D02*
G75*
G03*
X720920Y4170680I-7500J0D01*
G01*
X746640Y4836160D02*
G75*
G03*
X746640Y4836160I-7500J0D01*
G01*
X751720Y7818120D02*
G75*
G03*
X751720Y7818120I-7500J0D01*
G01*
X759340Y2440940D02*
G75*
G03*
X759340Y2440940I-7500J0D01*
G01*
X774580Y7391400D02*
G75*
G03*
X774580Y7391400I-7500J0D01*
G01*
X777120Y2118360D02*
G75*
G03*
X777120Y2118360I-7500J0D01*
G01*
X786960Y3454400D02*
G75*
G03*
X786960Y3454400I-7500J0D01*
G01*
X794900Y1859280D02*
G75*
G03*
X794900Y1859280I-7500J0D01*
G01*
X802520Y1280160D02*
G75*
G03*
X802520Y1280160I-7500J0D01*
G01*
X814900Y3327400D02*
G75*
G03*
X814900Y3327400I-7500J0D01*
G01*
X825380Y6891020D02*
G75*
G03*
X825380Y6891020I-7500J0D01*
G01*
X827920Y2374900D02*
G75*
G03*
X827920Y2374900I-7500J0D01*
G01*
X860620Y4368800D02*
G75*
G03*
X860620Y4368800I-7500J0D01*
G01*
X876180Y777240D02*
G75*
G03*
X876180Y777240I-7500J0D01*
G01*
X906340Y5659120D02*
G75*
G03*
X906340Y5659120I-7500J0D01*
G01*
X909200Y1981200D02*
G75*
G03*
X909200Y1981200I-7500J0D01*
G01*
X918522Y2839630D02*
G75*
G03*
X918522Y2839630I-7500J0D01*
G01*
X919360Y2966720D02*
G75*
G03*
X919360Y2966720I-7500J0D01*
G01*
X926660Y4051300D02*
G75*
G03*
X926660Y4051300I-7500J0D01*
G01*
X949840Y2329180D02*
G75*
G03*
X949840Y2329180I-7500J0D01*
G01*
X949840Y2113280D02*
G75*
G03*
X949840Y2113280I-7500J0D01*
G01*
X954600Y6256020D02*
G75*
G03*
X954600Y6256020I-7500J0D01*
G01*
X957140Y6129020D02*
G75*
G03*
X957140Y6129020I-7500J0D01*
G01*
X957140Y5999480D02*
G75*
G03*
X957140Y5999480I-7500J0D01*
G01*
X957460Y2612770D02*
G75*
G03*
X957460Y2612770I-7500J0D01*
G01*
X957460Y2486660D02*
G75*
G03*
X957460Y2486660I-7500J0D01*
G01*
X957460Y1277620D02*
G75*
G03*
X957460Y1277620I-7500J0D01*
G01*
X959680Y5882640D02*
G75*
G03*
X959680Y5882640I-7500J0D01*
G01*
X985080Y4244340D02*
G75*
G03*
X985080Y4244340I-7500J0D01*
G01*
X987940Y2783840D02*
G75*
G03*
X987940Y2783840I-7500J0D01*
G01*
X992700Y5046980D02*
G75*
G03*
X992700Y5046980I-7500J0D01*
G01*
X1015880Y1866900D02*
G75*
G03*
X1015880Y1866900I-7500J0D01*
G01*
X1033660Y2110740D02*
G75*
G03*
X1033660Y2110740I-7500J0D01*
G01*
X1038740Y2612770D02*
G75*
G03*
X1038740Y2612770I-7500J0D01*
G01*
X1053980Y561340D02*
G75*
G03*
X1053980Y561340I-7500J0D01*
G01*
X1069220Y1696720D02*
G75*
G03*
X1069220Y1696720I-7500J0D01*
G01*
X1074300Y6631940D02*
G75*
G03*
X1074300Y6631940I-7500J0D01*
G01*
X1079380Y6969760D02*
G75*
G03*
X1079380Y6969760I-7500J0D01*
G01*
X1089540Y1056640D02*
G75*
G03*
X1089540Y1056640I-7500J0D01*
G01*
X1092080Y619760D02*
G75*
G03*
X1092080Y619760I-7500J0D01*
G01*
X1103890Y2070100D02*
G75*
G03*
X1103890Y2070100I-7500J0D01*
G01*
X1109860Y2771140D02*
G75*
G03*
X1109860Y2771140I-7500J0D01*
G01*
X1130180Y4947920D02*
G75*
G03*
X1130180Y4947920I-7500J0D01*
G01*
X1142880Y3952240D02*
G75*
G03*
X1142880Y3952240I-7500J0D01*
G01*
X1157800Y6187440D02*
G75*
G03*
X1157800Y6187440I-7500J0D01*
G01*
X1160340Y4696460D02*
G75*
G03*
X1160340Y4696460I-7500J0D01*
G01*
X1167960Y3451860D02*
G75*
G03*
X1167960Y3451860I-7500J0D01*
G01*
X1167960Y3362960D02*
G75*
G03*
X1167960Y3362960I-7500J0D01*
G01*
X1167960Y3263900D02*
G75*
G03*
X1167960Y3263900I-7500J0D01*
G01*
X1193680Y3997960D02*
G75*
G03*
X1193680Y3997960I-7500J0D01*
G01*
X1206380Y5440680D02*
G75*
G03*
X1206380Y5440680I-7500J0D01*
G01*
X1219080Y5905500D02*
G75*
G03*
X1219080Y5905500I-7500J0D01*
G01*
X1236860Y7818120D02*
G75*
G03*
X1236860Y7818120I-7500J0D01*
G01*
X1241940Y2456180D02*
G75*
G03*
X1241940Y2456180I-7500J0D01*
G01*
X1241940Y2390140D02*
G75*
G03*
X1241940Y2390140I-7500J0D01*
G01*
X1241940Y2326640D02*
G75*
G03*
X1241940Y2326640I-7500J0D01*
G01*
X1254320Y5659120D02*
G75*
G03*
X1254320Y5659120I-7500J0D01*
G01*
X1257180Y4843780D02*
G75*
G03*
X1257180Y4843780I-7500J0D01*
G01*
X1264480Y3451860D02*
G75*
G03*
X1264480Y3451860I-7500J0D01*
G01*
X1264480Y3362960D02*
G75*
G03*
X1264480Y3362960I-7500J0D01*
G01*
X1264480Y3263900D02*
G75*
G03*
X1264480Y3263900I-7500J0D01*
G01*
X1295280Y5074920D02*
G75*
G03*
X1295280Y5074920I-7500J0D01*
G01*
X1297820Y7073900D02*
G75*
G03*
X1297820Y7073900I-7500J0D01*
G01*
X1307980Y6154420D02*
G75*
G03*
X1307980Y6154420I-7500J0D01*
G01*
X1310520Y2456180D02*
G75*
G03*
X1310520Y2456180I-7500J0D01*
G01*
X1310520Y2390140D02*
G75*
G03*
X1310520Y2390140I-7500J0D01*
G01*
X1310520Y2326640D02*
G75*
G03*
X1310520Y2326640I-7500J0D01*
G01*
X1320680Y5417820D02*
G75*
G03*
X1320680Y5417820I-7500J0D01*
G01*
X1333380Y2014220D02*
G75*
G03*
X1333380Y2014220I-7500J0D01*
G01*
X1333380Y1963420D02*
G75*
G03*
X1333380Y1963420I-7500J0D01*
G01*
X1333380Y1912620D02*
G75*
G03*
X1333380Y1912620I-7500J0D01*
G01*
X1333380Y1861820D02*
G75*
G03*
X1333380Y1861820I-7500J0D01*
G01*
X1333380Y1811020D02*
G75*
G03*
X1333380Y1811020I-7500J0D01*
G01*
X1333380Y1760220D02*
G75*
G03*
X1333380Y1760220I-7500J0D01*
G01*
X1333380Y1709420D02*
G75*
G03*
X1333380Y1709420I-7500J0D01*
G01*
X1333380Y1658620D02*
G75*
G03*
X1333380Y1658620I-7500J0D01*
G01*
X1333380Y1607820D02*
G75*
G03*
X1333380Y1607820I-7500J0D01*
G01*
X1333380Y1557020D02*
G75*
G03*
X1333380Y1557020I-7500J0D01*
G01*
X1333380Y1404620D02*
G75*
G03*
X1333380Y1404620I-7500J0D01*
G01*
X1333380Y1353820D02*
G75*
G03*
X1333380Y1353820I-7500J0D01*
G01*
X1333380Y1303020D02*
G75*
G03*
X1333380Y1303020I-7500J0D01*
G01*
X1333380Y1252220D02*
G75*
G03*
X1333380Y1252220I-7500J0D01*
G01*
X1333380Y1201420D02*
G75*
G03*
X1333380Y1201420I-7500J0D01*
G01*
X1333380Y1150620D02*
G75*
G03*
X1333380Y1150620I-7500J0D01*
G01*
X1333380Y1099820D02*
G75*
G03*
X1333380Y1099820I-7500J0D01*
G01*
X1333380Y1049020D02*
G75*
G03*
X1333380Y1049020I-7500J0D01*
G01*
X1333380Y998220D02*
G75*
G03*
X1333380Y998220I-7500J0D01*
G01*
X1333380Y947420D02*
G75*
G03*
X1333380Y947420I-7500J0D01*
G01*
X1333380Y896620D02*
G75*
G03*
X1333380Y896620I-7500J0D01*
G01*
X1333380Y845820D02*
G75*
G03*
X1333380Y845820I-7500J0D01*
G01*
X1333380Y795020D02*
G75*
G03*
X1333380Y795020I-7500J0D01*
G01*
X1333380Y744220D02*
G75*
G03*
X1333380Y744220I-7500J0D01*
G01*
X1333380Y693420D02*
G75*
G03*
X1333380Y693420I-7500J0D01*
G01*
X1333380Y642620D02*
G75*
G03*
X1333380Y642620I-7500J0D01*
G01*
X1333380Y591820D02*
G75*
G03*
X1333380Y591820I-7500J0D01*
G01*
X1333380Y541020D02*
G75*
G03*
X1333380Y541020I-7500J0D01*
G01*
X1333380Y490220D02*
G75*
G03*
X1333380Y490220I-7500J0D01*
G01*
X1333380Y439420D02*
G75*
G03*
X1333380Y439420I-7500J0D01*
G01*
X1333380Y388620D02*
G75*
G03*
X1333380Y388620I-7500J0D01*
G01*
X1333380Y337820D02*
G75*
G03*
X1333380Y337820I-7500J0D01*
G01*
X1333380Y287020D02*
G75*
G03*
X1333380Y287020I-7500J0D01*
G01*
X1333380Y236220D02*
G75*
G03*
X1333380Y236220I-7500J0D01*
G01*
X1333380Y185420D02*
G75*
G03*
X1333380Y185420I-7500J0D01*
G01*
X1333380Y134620D02*
G75*
G03*
X1333380Y134620I-7500J0D01*
G01*
X1333380Y83820D02*
G75*
G03*
X1333380Y83820I-7500J0D01*
G01*
X1333380Y33020D02*
G75*
G03*
X1333380Y33020I-7500J0D01*
G01*
X1346080Y4973320D02*
G75*
G03*
X1346080Y4973320I-7500J0D01*
G01*
X1355920Y3451860D02*
G75*
G03*
X1355920Y3451860I-7500J0D01*
G01*
X1355920Y3362960D02*
G75*
G03*
X1355920Y3362960I-7500J0D01*
G01*
X1355920Y3263900D02*
G75*
G03*
X1355920Y3263900I-7500J0D01*
G01*
X1381640Y2456180D02*
G75*
G03*
X1381640Y2456180I-7500J0D01*
G01*
X1381640Y2390140D02*
G75*
G03*
X1381640Y2390140I-7500J0D01*
G01*
X1381640Y2326640D02*
G75*
G03*
X1381640Y2326640I-7500J0D01*
G01*
X1384180Y5024120D02*
G75*
G03*
X1384180Y5024120I-7500J0D01*
G01*
X1384180Y2014220D02*
G75*
G03*
X1384180Y2014220I-7500J0D01*
G01*
X1414759Y2663111D02*
G75*
G03*
X1414759Y2663111I-7500J0D01*
G01*
X1419740Y2070100D02*
G75*
G03*
X1419740Y2070100I-7500J0D01*
G01*
X1434980Y4373880D02*
G75*
G03*
X1434980Y4373880I-7500J0D01*
G01*
X1434980Y2014220D02*
G75*
G03*
X1434980Y2014220I-7500J0D01*
G01*
X1482920Y4587240D02*
G75*
G03*
X1482920Y4587240I-7500J0D01*
G01*
X1485780Y5595620D02*
G75*
G03*
X1485780Y5595620I-7500J0D01*
G01*
X1485780Y5544820D02*
G75*
G03*
X1485780Y5544820I-7500J0D01*
G01*
X1485780Y5290820D02*
G75*
G03*
X1485780Y5290820I-7500J0D01*
G01*
X1485780Y5189220D02*
G75*
G03*
X1485780Y5189220I-7500J0D01*
G01*
X1485780Y4935220D02*
G75*
G03*
X1485780Y4935220I-7500J0D01*
G01*
X1485780Y4884420D02*
G75*
G03*
X1485780Y4884420I-7500J0D01*
G01*
X1485780Y2014220D02*
G75*
G03*
X1485780Y2014220I-7500J0D01*
G01*
X1488320Y6367780D02*
G75*
G03*
X1488320Y6367780I-7500J0D01*
G01*
X1488320Y2240280D02*
G75*
G03*
X1488320Y2240280I-7500J0D01*
G01*
X1508640Y4000500D02*
G75*
G03*
X1508640Y4000500I-7500J0D01*
G01*
X1511180Y7368540D02*
G75*
G03*
X1511180Y7368540I-7500J0D01*
G01*
X1511180Y6235700D02*
G75*
G03*
X1511180Y6235700I-7500J0D01*
G01*
X1536580Y2921000D02*
G75*
G03*
X1536580Y2921000I-7500J0D01*
G01*
X1536580Y2816860D02*
G75*
G03*
X1536580Y2816860I-7500J0D01*
G01*
X1536580Y2014220D02*
G75*
G03*
X1536580Y2014220I-7500J0D01*
G01*
X1541660Y2532380D02*
G75*
G03*
X1541660Y2532380I-7500J0D01*
G01*
X1554360Y3949700D02*
G75*
G03*
X1554360Y3949700I-7500J0D01*
G01*
X1587380Y2014220D02*
G75*
G03*
X1587380Y2014220I-7500J0D01*
G01*
X1600080Y5582920D02*
G75*
G03*
X1600080Y5582920I-7500J0D01*
G01*
X1607380Y4157980D02*
G75*
G03*
X1607380Y4157980I-7500J0D01*
G01*
X1623417Y5214620D02*
G75*
G03*
X1623417Y5214620I-7500J0D01*
G01*
X1625480Y7366000D02*
G75*
G03*
X1625480Y7366000I-7500J0D01*
G01*
X1630560Y6946900D02*
G75*
G03*
X1630560Y6946900I-7500J0D01*
G01*
X1638180Y2014220D02*
G75*
G03*
X1638180Y2014220I-7500J0D01*
G01*
X1653420Y4368800D02*
G75*
G03*
X1653420Y4368800I-7500J0D01*
G01*
X1663580Y3716020D02*
G75*
G03*
X1663580Y3716020I-7500J0D01*
G01*
X1683900Y5834380D02*
G75*
G03*
X1683900Y5834380I-7500J0D01*
G01*
X1688980Y2014220D02*
G75*
G03*
X1688980Y2014220I-7500J0D01*
G01*
X1729620Y6449060D02*
G75*
G03*
X1729620Y6449060I-7500J0D01*
G01*
X1736920Y6050280D02*
G75*
G03*
X1736920Y6050280I-7500J0D01*
G01*
X1737240Y6228080D02*
G75*
G03*
X1737240Y6228080I-7500J0D01*
G01*
X1739780Y5659120D02*
G75*
G03*
X1739780Y5659120I-7500J0D01*
G01*
X1739780Y2014220D02*
G75*
G03*
X1739780Y2014220I-7500J0D01*
G01*
X1752480Y5621020D02*
G75*
G03*
X1752480Y5621020I-7500J0D01*
G01*
X1752480Y5265420D02*
G75*
G03*
X1752480Y5265420I-7500J0D01*
G01*
X1765180Y4947920D02*
G75*
G03*
X1765180Y4947920I-7500J0D01*
G01*
X1765180Y4859020D02*
G75*
G03*
X1765180Y4859020I-7500J0D01*
G01*
X1770260Y7820660D02*
G75*
G03*
X1770260Y7820660I-7500J0D01*
G01*
X1775340Y4000500D02*
G75*
G03*
X1775340Y4000500I-7500J0D01*
G01*
X1790580Y2014220D02*
G75*
G03*
X1790580Y2014220I-7500J0D01*
G01*
X1808360Y7612380D02*
G75*
G03*
X1808360Y7612380I-7500J0D01*
G01*
X1838520Y3576320D02*
G75*
G03*
X1838520Y3576320I-7500J0D01*
G01*
X1838840Y3741420D02*
G75*
G03*
X1838840Y3741420I-7500J0D01*
G01*
X1841380Y2014220D02*
G75*
G03*
X1841380Y2014220I-7500J0D01*
G01*
X1843920Y3241040D02*
G75*
G03*
X1843920Y3241040I-7500J0D01*
G01*
X1854080Y3037840D02*
G75*
G03*
X1854080Y3037840I-7500J0D01*
G01*
X1861700Y4368800D02*
G75*
G03*
X1861700Y4368800I-7500J0D01*
G01*
X1882020Y3619500D02*
G75*
G03*
X1882020Y3619500I-7500J0D01*
G01*
X1884560Y3698240D02*
G75*
G03*
X1884560Y3698240I-7500J0D01*
G01*
X1892180Y5049520D02*
G75*
G03*
X1892180Y5049520I-7500J0D01*
G01*
X1892180Y2014220D02*
G75*
G03*
X1892180Y2014220I-7500J0D01*
G01*
X1894400Y4714240D02*
G75*
G03*
X1894400Y4714240I-7500J0D01*
G01*
X1894720Y3284220D02*
G75*
G03*
X1894720Y3284220I-7500J0D01*
G01*
X1899480Y5819140D02*
G75*
G03*
X1899480Y5819140I-7500J0D01*
G01*
X1904780Y5240020D02*
G75*
G03*
X1904780Y5240020I-7500J0D01*
G01*
X1904880Y5468620D02*
G75*
G03*
X1904880Y5468620I-7500J0D01*
G01*
X1942980Y2014220D02*
G75*
G03*
X1942980Y2014220I-7500J0D01*
G01*
X1988700Y2443480D02*
G75*
G03*
X1988700Y2443480I-7500J0D01*
G01*
X1993780Y2014220D02*
G75*
G03*
X1993780Y2014220I-7500J0D01*
G01*
X2029340Y3634740D02*
G75*
G03*
X2029340Y3634740I-7500J0D01*
G01*
X2044580Y2014220D02*
G75*
G03*
X2044580Y2014220I-7500J0D01*
G01*
X2053435Y7569200D02*
G75*
G03*
X2053435Y7569200I-7500J0D01*
G01*
X2095380Y2014220D02*
G75*
G03*
X2095380Y2014220I-7500J0D01*
G01*
X2145860Y4249420D02*
G75*
G03*
X2145860Y4249420I-7500J0D01*
G01*
X2145860Y4023360D02*
G75*
G03*
X2145860Y4023360I-7500J0D01*
G01*
X2146180Y5468620D02*
G75*
G03*
X2146180Y5468620I-7500J0D01*
G01*
X2146180Y5240020D02*
G75*
G03*
X2146180Y5240020I-7500J0D01*
G01*
X2146180Y5049520D02*
G75*
G03*
X2146180Y5049520I-7500J0D01*
G01*
X2146180Y2014220D02*
G75*
G03*
X2146180Y2014220I-7500J0D01*
G01*
X2148400Y4498340D02*
G75*
G03*
X2148400Y4498340I-7500J0D01*
G01*
X2196980Y6416040D02*
G75*
G03*
X2196980Y6416040I-7500J0D01*
G01*
X2196980Y2014220D02*
G75*
G03*
X2196980Y2014220I-7500J0D01*
G01*
X2214440Y5885180D02*
G75*
G03*
X2214440Y5885180I-7500J0D01*
G01*
X2227460Y7820660D02*
G75*
G03*
X2227460Y7820660I-7500J0D01*
G01*
X2237620Y7066280D02*
G75*
G03*
X2237620Y7066280I-7500J0D01*
G01*
X2247780Y2014220D02*
G75*
G03*
X2247780Y2014220I-7500J0D01*
G01*
X2270640Y3152140D02*
G75*
G03*
X2270640Y3152140I-7500J0D01*
G01*
X2270640Y2702560D02*
G75*
G03*
X2270640Y2702560I-7500J0D01*
G01*
X2273180Y3797300D02*
G75*
G03*
X2273180Y3797300I-7500J0D01*
G01*
X2275720Y2286000D02*
G75*
G03*
X2275720Y2286000I-7500J0D01*
G01*
X2298580Y2014220D02*
G75*
G03*
X2298580Y2014220I-7500J0D01*
G01*
D14*
X189920Y3355300D02*
X189920Y3315300D01*
X169920Y3335300D02*
X209920Y3335300D01*
X256540Y3060380D02*
X256540Y3020380D01*
X236540Y3040380D02*
X276540Y3040380D01*
X291780Y4525980D02*
X291780Y4485980D01*
X271780Y4505980D02*
X311780Y4505980D01*
X301940Y5679140D02*
X301940Y5639140D01*
X281940Y5659140D02*
X321940Y5659140D01*
X325120Y2760660D02*
X325120Y2720660D01*
X305120Y2740660D02*
X345120Y2740660D01*
X532360Y3760621D02*
X532360Y3720621D01*
X512360Y3740621D02*
X552360Y3740621D01*
X583880Y4400570D02*
X583880Y4360570D01*
X563880Y4380570D02*
X603880Y4380570D01*
X629920Y4840920D02*
X629920Y4800920D01*
X609920Y4820920D02*
X649920Y4820920D01*
X797240Y6359860D02*
X797240Y6319860D01*
X777240Y6339860D02*
X817240Y6339860D01*
X800100Y3680140D02*
X800100Y3640140D01*
X780100Y3660140D02*
X820100Y3660140D01*
X816360Y3277299D02*
X816360Y3237299D01*
X796360Y3257299D02*
X836360Y3257299D01*
X828040Y2575240D02*
X828040Y2535240D01*
X808040Y2555240D02*
X848040Y2555240D01*
X1051240Y5689280D02*
X1051240Y5649280D01*
X1031240Y5669280D02*
X1071240Y5669280D01*
X1056640Y2234880D02*
X1056640Y2194880D01*
X1036640Y2214880D02*
X1076640Y2214880D01*
X1145540Y6364920D02*
X1145540Y6324920D01*
X1125540Y6344920D02*
X1165540Y6344920D01*
X1152840Y5130480D02*
X1152840Y5090480D01*
X1132840Y5110480D02*
X1172840Y5110480D01*
X1252220Y2006280D02*
X1252220Y1966280D01*
X1232220Y1986280D02*
X1272220Y1986280D01*
X1290770Y2775788D02*
X1290770Y2735788D01*
X1270770Y2755788D02*
X1310770Y2755788D01*
X1419540Y5412420D02*
X1419540Y5372420D01*
X1399540Y5392420D02*
X1439540Y5392420D01*
X1419540Y5107620D02*
X1419540Y5067620D01*
X1399540Y5087620D02*
X1439540Y5087620D01*
X1506820Y3822380D02*
X1506820Y3782380D01*
X1486820Y3802380D02*
X1526820Y3802380D01*
X1637980Y7210740D02*
X1637980Y7170740D01*
X1617980Y7190740D02*
X1657980Y7190740D01*
X1691320Y3637900D02*
X1691320Y3597900D01*
X1671320Y3617900D02*
X1711320Y3617900D01*
X1698940Y3306760D02*
X1698940Y3266760D01*
X1678940Y3286760D02*
X1718940Y3286760D01*
X1817335Y7386000D02*
X1817335Y7346000D01*
X1797335Y7366000D02*
X1837335Y7366000D01*
D15*
X1607993Y5650807D02*
X1607993Y5693233D01*
X1565567Y5693233D01*
X1565567Y5650807D01*
X1607993Y5650807D01*
D11*
X1536780Y5642020D02*
X1636780Y5642020D01*
X1636780Y5642020D02*
G75*
G03*
X1636780Y5702020I0J30000D01*
G01*
X1636780Y5702020D02*
X1536780Y5702020D01*
X1536780Y5702020D02*
G75*
G03*
X1536780Y5642020I0J-30000D01*
G01*
D15*
X1607993Y4786807D02*
X1607993Y4829233D01*
X1565567Y4829233D01*
X1565567Y4786807D01*
X1607993Y4786807D01*
D11*
X1536780Y4778020D02*
X1636780Y4778020D01*
X1636780Y4778020D02*
G75*
G03*
X1636780Y4838020I0J30000D01*
G01*
X1636780Y4838020D02*
X1536780Y4838020D01*
X1536780Y4838020D02*
G75*
G03*
X1536780Y4778020I0J-30000D01*
G01*
D15*
X2143993Y5650807D02*
X2143993Y5693233D01*
X2101567Y5693233D01*
X2101567Y5650807D01*
X2143993Y5650807D01*
D11*
X2047780Y5642020D02*
X2197780Y5642020D01*
X2197780Y5642020D02*
G75*
G03*
X2197780Y5702020I0J30000D01*
G01*
X2197780Y5702020D02*
X2047780Y5702020D01*
X2047780Y5702020D02*
G75*
G03*
X2047780Y5642020I0J-30000D01*
G01*
D15*
X2143993Y4786807D02*
X2143993Y4829233D01*
X2101567Y4829233D01*
X2101567Y4786807D01*
X2143993Y4786807D01*
D11*
X2047780Y4778020D02*
X2197780Y4778020D01*
X2197780Y4778020D02*
G75*
G03*
X2197780Y4838020I0J30000D01*
G01*
X2197780Y4838020D02*
X2047780Y4838020D01*
X2047780Y4838020D02*
G75*
G03*
X2047780Y4778020I0J-30000D01*
G01*
D16*
X223200Y5394980D02*
X271460Y5443240D01*
X223200Y5491500D01*
X174940Y5443240D01*
X223200Y5394980D01*
X223200Y5140980D02*
X271460Y5189240D01*
X223200Y5237500D01*
X174940Y5189240D01*
X223200Y5140980D01*
X223200Y4886980D02*
X271460Y4935240D01*
X223200Y4983500D01*
X174940Y4935240D01*
X223200Y4886980D01*
D10*
X1151100Y4611340D02*
X1251100Y4511340D01*
X1251100Y4611340D02*
X1151100Y4511340D01*
X1251100Y4561340D02*
G75*
G03*
X1251100Y4561340I-50000J0D01*
G01*
X1151100Y4357340D02*
X1251100Y4257340D01*
X1251100Y4357340D02*
X1151100Y4257340D01*
X1251100Y4307340D02*
G75*
G03*
X1251100Y4307340I-50000J0D01*
G01*
X1333980Y6887180D02*
X1433980Y6787180D01*
X1433980Y6887180D02*
X1333980Y6787180D01*
X1433980Y6837180D02*
G75*
G03*
X1433980Y6837180I-50000J0D01*
G01*
X1333980Y6633180D02*
X1433980Y6533180D01*
X1433980Y6633180D02*
X1333980Y6533180D01*
X1433980Y6583180D02*
G75*
G03*
X1433980Y6583180I-50000J0D01*
G01*
X2045500Y3380440D02*
X2145500Y3280440D01*
X2145500Y3380440D02*
X2045500Y3280440D01*
X2145500Y3330440D02*
G75*
G03*
X2145500Y3330440I-50000J0D01*
G01*
X2045500Y3126440D02*
X2145500Y3026440D01*
X2145500Y3126440D02*
X2045500Y3026440D01*
X2145500Y3076440D02*
G75*
G03*
X2145500Y3076440I-50000J0D01*
G01*
D17*
X1086840Y7630900D02*
X1218840Y7498900D01*
X1218840Y7630900D02*
X1086840Y7498900D01*
X1152840Y7630900D02*
X1152840Y7498900D01*
X1086840Y7564900D02*
X1218840Y7564900D01*
X1086840Y408900D02*
X1218840Y276900D01*
X1218840Y408900D02*
X1086840Y276900D01*
X1152840Y408900D02*
X1152840Y276900D01*
X1086840Y342900D02*
X1218840Y342900D01*
D18*
X246340Y7684400D02*
X485340Y7445400D01*
X485340Y7684400D02*
X246340Y7445400D01*
X450340Y7480400D02*
X450340Y7649400D01*
X281340Y7649400D01*
X281340Y7480400D01*
X450340Y7480400D01*
D19*
X188340Y1402400D02*
X543340Y1047400D01*
X543340Y1402400D02*
X188340Y1047400D01*
X365840Y1047400D02*
X543340Y1224900D01*
X365840Y1402400D01*
X188340Y1224900D01*
X365840Y1047400D01*
X1762340Y6922400D02*
X2117340Y6567400D01*
X2117340Y6922400D02*
X1762340Y6567400D01*
X1939840Y6567400D02*
X2117340Y6744900D01*
X1939840Y6922400D01*
X1762340Y6744900D01*
X1939840Y6567400D01*
D11*
X242299Y-317504D02*
X242299Y-117504D01*
X242299Y-117504D02*
X289918Y-117504D01*
X289918Y-117504D02*
X318490Y-127028D01*
X318490Y-127028D02*
X337537Y-146075D01*
X337537Y-146075D02*
X347061Y-165123D01*
X347061Y-165123D02*
X356585Y-203218D01*
X356585Y-203218D02*
X356585Y-231789D01*
X356585Y-231789D02*
X347061Y-269885D01*
X347061Y-269885D02*
X337537Y-288932D01*
X337537Y-288932D02*
X318490Y-307980D01*
X318490Y-307980D02*
X289918Y-317504D01*
X289918Y-317504D02*
X242299Y-317504D01*
X442299Y-317504D02*
X442299Y-184170D01*
X442299Y-222266D02*
X451823Y-203218D01*
X451823Y-203218D02*
X461347Y-193694D01*
X461347Y-193694D02*
X480394Y-184170D01*
X480394Y-184170D02*
X499442Y-184170D01*
X566109Y-317504D02*
X566109Y-184170D01*
X566109Y-117504D02*
X556585Y-127028D01*
X556585Y-127028D02*
X566109Y-136551D01*
X566109Y-136551D02*
X575632Y-127028D01*
X575632Y-127028D02*
X566109Y-117504D01*
X566109Y-117504D02*
X566109Y-136551D01*
X689918Y-317504D02*
X670870Y-307980D01*
X670870Y-307980D02*
X661347Y-288932D01*
X661347Y-288932D02*
X661347Y-117504D01*
X794680Y-317504D02*
X775632Y-307980D01*
X775632Y-307980D02*
X766108Y-288932D01*
X766108Y-288932D02*
X766108Y-117504D01*
X1023251Y-317504D02*
X1023251Y-117504D01*
X1023251Y-117504D02*
X1089918Y-260361D01*
X1089918Y-260361D02*
X1156585Y-117504D01*
X1156585Y-117504D02*
X1156585Y-317504D01*
X1337537Y-317504D02*
X1337537Y-212742D01*
X1337537Y-212742D02*
X1328013Y-193694D01*
X1328013Y-193694D02*
X1308966Y-184170D01*
X1308966Y-184170D02*
X1270870Y-184170D01*
X1270870Y-184170D02*
X1251823Y-193694D01*
X1337537Y-307980D02*
X1318490Y-317504D01*
X1318490Y-317504D02*
X1270870Y-317504D01*
X1270870Y-317504D02*
X1251823Y-307980D01*
X1251823Y-307980D02*
X1242299Y-288932D01*
X1242299Y-288932D02*
X1242299Y-269885D01*
X1242299Y-269885D02*
X1251823Y-250837D01*
X1251823Y-250837D02*
X1270870Y-241313D01*
X1270870Y-241313D02*
X1318490Y-241313D01*
X1318490Y-241313D02*
X1337537Y-231789D01*
X1432775Y-184170D02*
X1432775Y-384170D01*
X1432775Y-193694D02*
X1451823Y-184170D01*
X1451823Y-184170D02*
X1489918Y-184170D01*
X1489918Y-184170D02*
X1508966Y-193694D01*
X1508966Y-193694D02*
X1518489Y-203218D01*
X1518489Y-203218D02*
X1528013Y-222266D01*
X1528013Y-222266D02*
X1528013Y-279409D01*
X1528013Y-279409D02*
X1518489Y-298456D01*
X1518489Y-298456D02*
X1508966Y-307980D01*
X1508966Y-307980D02*
X1489918Y-317504D01*
X1489918Y-317504D02*
X1451823Y-317504D01*
X1451823Y-317504D02*
X1432775Y-307980D01*
X1613728Y-298456D02*
X1623251Y-307980D01*
X1623251Y-307980D02*
X1613728Y-317504D01*
X1613728Y-317504D02*
X1604204Y-307980D01*
X1604204Y-307980D02*
X1613728Y-298456D01*
X1613728Y-298456D02*
X1613728Y-317504D01*
X1613728Y-193694D02*
X1623251Y-203218D01*
X1623251Y-203218D02*
X1613728Y-212742D01*
X1613728Y-212742D02*
X1604204Y-203218D01*
X1604204Y-203218D02*
X1613728Y-193694D01*
X1613728Y-193694D02*
X1613728Y-212742D01*
D12*
X-15320Y-639980D02*
X-5320Y-649980D01*
X-5320Y-639980D02*
X-15320Y-649980D01*
D11*
X280394Y-537504D02*
X299442Y-537504D01*
X299442Y-537504D02*
X318490Y-547028D01*
X318490Y-547028D02*
X328013Y-556551D01*
X328013Y-556551D02*
X337537Y-575599D01*
X337537Y-575599D02*
X347061Y-613694D01*
X347061Y-613694D02*
X347061Y-661313D01*
X347061Y-661313D02*
X337537Y-699408D01*
X337537Y-699408D02*
X328013Y-718456D01*
X328013Y-718456D02*
X318490Y-727980D01*
X318490Y-727980D02*
X299442Y-737504D01*
X299442Y-737504D02*
X280394Y-737504D01*
X280394Y-737504D02*
X261347Y-727980D01*
X261347Y-727980D02*
X251823Y-718456D01*
X251823Y-718456D02*
X242299Y-699408D01*
X242299Y-699408D02*
X232775Y-661313D01*
X232775Y-661313D02*
X232775Y-613694D01*
X232775Y-613694D02*
X242299Y-575599D01*
X242299Y-575599D02*
X251823Y-556551D01*
X251823Y-556551D02*
X261347Y-547028D01*
X261347Y-547028D02*
X280394Y-537504D01*
X432775Y-718456D02*
X442299Y-727980D01*
X442299Y-727980D02*
X432775Y-737504D01*
X432775Y-737504D02*
X423251Y-727980D01*
X423251Y-727980D02*
X432775Y-718456D01*
X432775Y-718456D02*
X432775Y-737504D01*
X632775Y-737504D02*
X518489Y-737504D01*
X575632Y-737504D02*
X575632Y-537504D01*
X575632Y-537504D02*
X556585Y-566075D01*
X556585Y-566075D02*
X537537Y-585123D01*
X537537Y-585123D02*
X518489Y-594647D01*
X756585Y-537504D02*
X775632Y-537504D01*
X775632Y-537504D02*
X794680Y-547028D01*
X794680Y-547028D02*
X804204Y-556551D01*
X804204Y-556551D02*
X813728Y-575599D01*
X813728Y-575599D02*
X823251Y-613694D01*
X823251Y-613694D02*
X823251Y-661313D01*
X823251Y-661313D02*
X813728Y-699408D01*
X813728Y-699408D02*
X804204Y-718456D01*
X804204Y-718456D02*
X794680Y-727980D01*
X794680Y-727980D02*
X775632Y-737504D01*
X775632Y-737504D02*
X756585Y-737504D01*
X756585Y-737504D02*
X737537Y-727980D01*
X737537Y-727980D02*
X728013Y-718456D01*
X728013Y-718456D02*
X718489Y-699408D01*
X718489Y-699408D02*
X708966Y-661313D01*
X708966Y-661313D02*
X708966Y-613694D01*
X708966Y-613694D02*
X718489Y-575599D01*
X718489Y-575599D02*
X728013Y-556551D01*
X728013Y-556551D02*
X737537Y-547028D01*
X737537Y-547028D02*
X756585Y-537504D01*
X947061Y-537504D02*
X966109Y-537504D01*
X966109Y-537504D02*
X985156Y-547028D01*
X985156Y-547028D02*
X994680Y-556551D01*
X994680Y-556551D02*
X1004204Y-575599D01*
X1004204Y-575599D02*
X1013728Y-613694D01*
X1013728Y-613694D02*
X1013728Y-661313D01*
X1013728Y-661313D02*
X1004204Y-699408D01*
X1004204Y-699408D02*
X994680Y-718456D01*
X994680Y-718456D02*
X985156Y-727980D01*
X985156Y-727980D02*
X966109Y-737504D01*
X966109Y-737504D02*
X947061Y-737504D01*
X947061Y-737504D02*
X928013Y-727980D01*
X928013Y-727980D02*
X918489Y-718456D01*
X918489Y-718456D02*
X908966Y-699408D01*
X908966Y-699408D02*
X899442Y-661313D01*
X899442Y-661313D02*
X899442Y-613694D01*
X899442Y-613694D02*
X908966Y-575599D01*
X908966Y-575599D02*
X918489Y-556551D01*
X918489Y-556551D02*
X928013Y-547028D01*
X928013Y-547028D02*
X947061Y-537504D01*
X1099442Y-737504D02*
X1099442Y-604170D01*
X1099442Y-623218D02*
X1108966Y-613694D01*
X1108966Y-613694D02*
X1128013Y-604170D01*
X1128013Y-604170D02*
X1156585Y-604170D01*
X1156585Y-604170D02*
X1175632Y-613694D01*
X1175632Y-613694D02*
X1185156Y-632742D01*
X1185156Y-632742D02*
X1185156Y-737504D01*
X1185156Y-632742D02*
X1194680Y-613694D01*
X1194680Y-613694D02*
X1213728Y-604170D01*
X1213728Y-604170D02*
X1242299Y-604170D01*
X1242299Y-604170D02*
X1261347Y-613694D01*
X1261347Y-613694D02*
X1270871Y-632742D01*
X1270871Y-632742D02*
X1270871Y-737504D01*
X1366109Y-737504D02*
X1366109Y-604170D01*
X1366109Y-623218D02*
X1375632Y-613694D01*
X1375632Y-613694D02*
X1394680Y-604170D01*
X1394680Y-604170D02*
X1423251Y-604170D01*
X1423251Y-604170D02*
X1442299Y-613694D01*
X1442299Y-613694D02*
X1451823Y-632742D01*
X1451823Y-632742D02*
X1451823Y-737504D01*
X1451823Y-632742D02*
X1461347Y-613694D01*
X1461347Y-613694D02*
X1480394Y-604170D01*
X1480394Y-604170D02*
X1508966Y-604170D01*
X1508966Y-604170D02*
X1528013Y-613694D01*
X1528013Y-613694D02*
X1537537Y-632742D01*
X1537537Y-632742D02*
X1537537Y-737504D01*
X1928013Y-527980D02*
X1756585Y-785123D01*
X2185156Y-537504D02*
X2204204Y-537504D01*
X2204204Y-537504D02*
X2223252Y-547028D01*
X2223252Y-547028D02*
X2232775Y-556551D01*
X2232775Y-556551D02*
X2242299Y-575599D01*
X2242299Y-575599D02*
X2251823Y-613694D01*
X2251823Y-613694D02*
X2251823Y-661313D01*
X2251823Y-661313D02*
X2242299Y-699408D01*
X2242299Y-699408D02*
X2232775Y-718456D01*
X2232775Y-718456D02*
X2223252Y-727980D01*
X2223252Y-727980D02*
X2204204Y-737504D01*
X2204204Y-737504D02*
X2185156Y-737504D01*
X2185156Y-737504D02*
X2166109Y-727980D01*
X2166109Y-727980D02*
X2156585Y-718456D01*
X2156585Y-718456D02*
X2147061Y-699408D01*
X2147061Y-699408D02*
X2137537Y-661313D01*
X2137537Y-661313D02*
X2137537Y-613694D01*
X2137537Y-613694D02*
X2147061Y-575599D01*
X2147061Y-575599D02*
X2156585Y-556551D01*
X2156585Y-556551D02*
X2166109Y-547028D01*
X2166109Y-547028D02*
X2185156Y-537504D01*
X2337537Y-718456D02*
X2347061Y-727980D01*
X2347061Y-727980D02*
X2337537Y-737504D01*
X2337537Y-737504D02*
X2328014Y-727980D01*
X2328014Y-727980D02*
X2337537Y-718456D01*
X2337537Y-718456D02*
X2337537Y-737504D01*
X2470871Y-537504D02*
X2489918Y-537504D01*
X2489918Y-537504D02*
X2508966Y-547028D01*
X2508966Y-547028D02*
X2518490Y-556551D01*
X2518490Y-556551D02*
X2528014Y-575599D01*
X2528014Y-575599D02*
X2537537Y-613694D01*
X2537537Y-613694D02*
X2537537Y-661313D01*
X2537537Y-661313D02*
X2528014Y-699408D01*
X2528014Y-699408D02*
X2518490Y-718456D01*
X2518490Y-718456D02*
X2508966Y-727980D01*
X2508966Y-727980D02*
X2489918Y-737504D01*
X2489918Y-737504D02*
X2470871Y-737504D01*
X2470871Y-737504D02*
X2451823Y-727980D01*
X2451823Y-727980D02*
X2442299Y-718456D01*
X2442299Y-718456D02*
X2432775Y-699408D01*
X2432775Y-699408D02*
X2423252Y-661313D01*
X2423252Y-661313D02*
X2423252Y-613694D01*
X2423252Y-613694D02*
X2432775Y-575599D01*
X2432775Y-575599D02*
X2442299Y-556551D01*
X2442299Y-556551D02*
X2451823Y-547028D01*
X2451823Y-547028D02*
X2470871Y-537504D01*
X2661347Y-537504D02*
X2680395Y-537504D01*
X2680395Y-537504D02*
X2699442Y-547028D01*
X2699442Y-547028D02*
X2708966Y-556551D01*
X2708966Y-556551D02*
X2718490Y-575599D01*
X2718490Y-575599D02*
X2728014Y-613694D01*
X2728014Y-613694D02*
X2728014Y-661313D01*
X2728014Y-661313D02*
X2718490Y-699408D01*
X2718490Y-699408D02*
X2708966Y-718456D01*
X2708966Y-718456D02*
X2699442Y-727980D01*
X2699442Y-727980D02*
X2680395Y-737504D01*
X2680395Y-737504D02*
X2661347Y-737504D01*
X2661347Y-737504D02*
X2642299Y-727980D01*
X2642299Y-727980D02*
X2632775Y-718456D01*
X2632775Y-718456D02*
X2623252Y-699408D01*
X2623252Y-699408D02*
X2613728Y-661313D01*
X2613728Y-661313D02*
X2613728Y-613694D01*
X2613728Y-613694D02*
X2623252Y-575599D01*
X2623252Y-575599D02*
X2632775Y-556551D01*
X2632775Y-556551D02*
X2642299Y-547028D01*
X2642299Y-547028D02*
X2661347Y-537504D01*
X2794680Y-537504D02*
X2918490Y-537504D01*
X2918490Y-537504D02*
X2851823Y-613694D01*
X2851823Y-613694D02*
X2880394Y-613694D01*
X2880394Y-613694D02*
X2899442Y-623218D01*
X2899442Y-623218D02*
X2908966Y-632742D01*
X2908966Y-632742D02*
X2918490Y-651790D01*
X2918490Y-651790D02*
X2918490Y-699408D01*
X2918490Y-699408D02*
X2908966Y-718456D01*
X2908966Y-718456D02*
X2899442Y-727980D01*
X2899442Y-727980D02*
X2880394Y-737504D01*
X2880394Y-737504D02*
X2823252Y-737504D01*
X2823252Y-737504D02*
X2804204Y-727980D01*
X2804204Y-727980D02*
X2794680Y-718456D01*
X3013728Y-737504D02*
X3051823Y-737504D01*
X3051823Y-737504D02*
X3070871Y-727980D01*
X3070871Y-727980D02*
X3080394Y-718456D01*
X3080394Y-718456D02*
X3099442Y-689885D01*
X3099442Y-689885D02*
X3108966Y-651790D01*
X3108966Y-651790D02*
X3108966Y-575599D01*
X3108966Y-575599D02*
X3099442Y-556551D01*
X3099442Y-556551D02*
X3089918Y-547028D01*
X3089918Y-547028D02*
X3070871Y-537504D01*
X3070871Y-537504D02*
X3032775Y-537504D01*
X3032775Y-537504D02*
X3013728Y-547028D01*
X3013728Y-547028D02*
X3004204Y-556551D01*
X3004204Y-556551D02*
X2994680Y-575599D01*
X2994680Y-575599D02*
X2994680Y-623218D01*
X2994680Y-623218D02*
X3004204Y-642266D01*
X3004204Y-642266D02*
X3013728Y-651790D01*
X3013728Y-651790D02*
X3032775Y-661313D01*
X3032775Y-661313D02*
X3070871Y-661313D01*
X3070871Y-661313D02*
X3089918Y-651790D01*
X3089918Y-651790D02*
X3099442Y-642266D01*
X3099442Y-642266D02*
X3108966Y-623218D01*
X3185156Y-537504D02*
X3185156Y-575599D01*
X3261347Y-537504D02*
X3261347Y-575599D01*
X3556585Y-813694D02*
X3547061Y-804170D01*
X3547061Y-804170D02*
X3528014Y-775599D01*
X3528014Y-775599D02*
X3518490Y-756551D01*
X3518490Y-756551D02*
X3508966Y-727980D01*
X3508966Y-727980D02*
X3499442Y-680361D01*
X3499442Y-680361D02*
X3499442Y-642266D01*
X3499442Y-642266D02*
X3508966Y-594647D01*
X3508966Y-594647D02*
X3518490Y-566075D01*
X3518490Y-566075D02*
X3528014Y-547028D01*
X3528014Y-547028D02*
X3547061Y-518456D01*
X3547061Y-518456D02*
X3556585Y-508932D01*
X3613728Y-537504D02*
X3737537Y-537504D01*
X3737537Y-537504D02*
X3670871Y-613694D01*
X3670871Y-613694D02*
X3699442Y-613694D01*
X3699442Y-613694D02*
X3718490Y-623218D01*
X3718490Y-623218D02*
X3728014Y-632742D01*
X3728014Y-632742D02*
X3737537Y-651790D01*
X3737537Y-651790D02*
X3737537Y-699408D01*
X3737537Y-699408D02*
X3728014Y-718456D01*
X3728014Y-718456D02*
X3718490Y-727980D01*
X3718490Y-727980D02*
X3699442Y-737504D01*
X3699442Y-737504D02*
X3642299Y-737504D01*
X3642299Y-737504D02*
X3623252Y-727980D01*
X3623252Y-727980D02*
X3613728Y-718456D01*
X3804204Y-537504D02*
X3937537Y-537504D01*
X3937537Y-537504D02*
X3851823Y-737504D01*
X4166109Y-737504D02*
X4166109Y-537504D01*
X4251823Y-737504D02*
X4251823Y-632742D01*
X4251823Y-632742D02*
X4242299Y-613694D01*
X4242299Y-613694D02*
X4223252Y-604170D01*
X4223252Y-604170D02*
X4194680Y-604170D01*
X4194680Y-604170D02*
X4175633Y-613694D01*
X4175633Y-613694D02*
X4166109Y-623218D01*
X4375633Y-737504D02*
X4356585Y-727980D01*
X4356585Y-727980D02*
X4347061Y-718456D01*
X4347061Y-718456D02*
X4337538Y-699408D01*
X4337538Y-699408D02*
X4337538Y-642266D01*
X4337538Y-642266D02*
X4347061Y-623218D01*
X4347061Y-623218D02*
X4356585Y-613694D01*
X4356585Y-613694D02*
X4375633Y-604170D01*
X4375633Y-604170D02*
X4404204Y-604170D01*
X4404204Y-604170D02*
X4423252Y-613694D01*
X4423252Y-613694D02*
X4432776Y-623218D01*
X4432776Y-623218D02*
X4442299Y-642266D01*
X4442299Y-642266D02*
X4442299Y-699408D01*
X4442299Y-699408D02*
X4432776Y-718456D01*
X4432776Y-718456D02*
X4423252Y-727980D01*
X4423252Y-727980D02*
X4404204Y-737504D01*
X4404204Y-737504D02*
X4375633Y-737504D01*
X4556585Y-737504D02*
X4537538Y-727980D01*
X4537538Y-727980D02*
X4528014Y-708932D01*
X4528014Y-708932D02*
X4528014Y-537504D01*
X4708966Y-727980D02*
X4689919Y-737504D01*
X4689919Y-737504D02*
X4651823Y-737504D01*
X4651823Y-737504D02*
X4632776Y-727980D01*
X4632776Y-727980D02*
X4623252Y-708932D01*
X4623252Y-708932D02*
X4623252Y-632742D01*
X4623252Y-632742D02*
X4632776Y-613694D01*
X4632776Y-613694D02*
X4651823Y-604170D01*
X4651823Y-604170D02*
X4689919Y-604170D01*
X4689919Y-604170D02*
X4708966Y-613694D01*
X4708966Y-613694D02*
X4718490Y-632742D01*
X4718490Y-632742D02*
X4718490Y-651790D01*
X4718490Y-651790D02*
X4623252Y-670837D01*
X4794680Y-727980D02*
X4813728Y-737504D01*
X4813728Y-737504D02*
X4851823Y-737504D01*
X4851823Y-737504D02*
X4870871Y-727980D01*
X4870871Y-727980D02*
X4880395Y-708932D01*
X4880395Y-708932D02*
X4880395Y-699408D01*
X4880395Y-699408D02*
X4870871Y-680361D01*
X4870871Y-680361D02*
X4851823Y-670837D01*
X4851823Y-670837D02*
X4823252Y-670837D01*
X4823252Y-670837D02*
X4804204Y-661313D01*
X4804204Y-661313D02*
X4794680Y-642266D01*
X4794680Y-642266D02*
X4794680Y-632742D01*
X4794680Y-632742D02*
X4804204Y-613694D01*
X4804204Y-613694D02*
X4823252Y-604170D01*
X4823252Y-604170D02*
X4851823Y-604170D01*
X4851823Y-604170D02*
X4870871Y-613694D01*
X4947061Y-813694D02*
X4956585Y-804170D01*
X4956585Y-804170D02*
X4975633Y-775599D01*
X4975633Y-775599D02*
X4985157Y-756551D01*
X4985157Y-756551D02*
X4994680Y-727980D01*
X4994680Y-727980D02*
X5004204Y-680361D01*
X5004204Y-680361D02*
X5004204Y-642266D01*
X5004204Y-642266D02*
X4994680Y-594647D01*
X4994680Y-594647D02*
X4985157Y-566075D01*
X4985157Y-566075D02*
X4975633Y-547028D01*
X4975633Y-547028D02*
X4956585Y-518456D01*
X4956585Y-518456D02*
X4947061Y-508932D01*
D13*
X-5320Y-908980D02*
G75*
G03*
X-5320Y-908980I-7500J0D01*
G01*
D11*
X280394Y-801504D02*
X299442Y-801504D01*
X299442Y-801504D02*
X318490Y-811028D01*
X318490Y-811028D02*
X328013Y-820551D01*
X328013Y-820551D02*
X337537Y-839599D01*
X337537Y-839599D02*
X347061Y-877694D01*
X347061Y-877694D02*
X347061Y-925313D01*
X347061Y-925313D02*
X337537Y-963408D01*
X337537Y-963408D02*
X328013Y-982456D01*
X328013Y-982456D02*
X318490Y-991980D01*
X318490Y-991980D02*
X299442Y-1001504D01*
X299442Y-1001504D02*
X280394Y-1001504D01*
X280394Y-1001504D02*
X261347Y-991980D01*
X261347Y-991980D02*
X251823Y-982456D01*
X251823Y-982456D02*
X242299Y-963408D01*
X242299Y-963408D02*
X232775Y-925313D01*
X232775Y-925313D02*
X232775Y-877694D01*
X232775Y-877694D02*
X242299Y-839599D01*
X242299Y-839599D02*
X251823Y-820551D01*
X251823Y-820551D02*
X261347Y-811028D01*
X261347Y-811028D02*
X280394Y-801504D01*
X432775Y-982456D02*
X442299Y-991980D01*
X442299Y-991980D02*
X432775Y-1001504D01*
X432775Y-1001504D02*
X423251Y-991980D01*
X423251Y-991980D02*
X432775Y-982456D01*
X432775Y-982456D02*
X432775Y-1001504D01*
X632775Y-1001504D02*
X518489Y-1001504D01*
X575632Y-1001504D02*
X575632Y-801504D01*
X575632Y-801504D02*
X556585Y-830075D01*
X556585Y-830075D02*
X537537Y-849123D01*
X537537Y-849123D02*
X518489Y-858647D01*
X813728Y-801504D02*
X718489Y-801504D01*
X718489Y-801504D02*
X708966Y-896742D01*
X708966Y-896742D02*
X718489Y-887218D01*
X718489Y-887218D02*
X737537Y-877694D01*
X737537Y-877694D02*
X785156Y-877694D01*
X785156Y-877694D02*
X804204Y-887218D01*
X804204Y-887218D02*
X813728Y-896742D01*
X813728Y-896742D02*
X823251Y-915789D01*
X823251Y-915789D02*
X823251Y-963408D01*
X823251Y-963408D02*
X813728Y-982456D01*
X813728Y-982456D02*
X804204Y-991980D01*
X804204Y-991980D02*
X785156Y-1001504D01*
X785156Y-1001504D02*
X737537Y-1001504D01*
X737537Y-1001504D02*
X718489Y-991980D01*
X718489Y-991980D02*
X708966Y-982456D01*
X947061Y-801504D02*
X966109Y-801504D01*
X966109Y-801504D02*
X985156Y-811028D01*
X985156Y-811028D02*
X994680Y-820551D01*
X994680Y-820551D02*
X1004204Y-839599D01*
X1004204Y-839599D02*
X1013728Y-877694D01*
X1013728Y-877694D02*
X1013728Y-925313D01*
X1013728Y-925313D02*
X1004204Y-963408D01*
X1004204Y-963408D02*
X994680Y-982456D01*
X994680Y-982456D02*
X985156Y-991980D01*
X985156Y-991980D02*
X966109Y-1001504D01*
X966109Y-1001504D02*
X947061Y-1001504D01*
X947061Y-1001504D02*
X928013Y-991980D01*
X928013Y-991980D02*
X918489Y-982456D01*
X918489Y-982456D02*
X908966Y-963408D01*
X908966Y-963408D02*
X899442Y-925313D01*
X899442Y-925313D02*
X899442Y-877694D01*
X899442Y-877694D02*
X908966Y-839599D01*
X908966Y-839599D02*
X918489Y-820551D01*
X918489Y-820551D02*
X928013Y-811028D01*
X928013Y-811028D02*
X947061Y-801504D01*
X1099442Y-1001504D02*
X1099442Y-868170D01*
X1099442Y-887218D02*
X1108966Y-877694D01*
X1108966Y-877694D02*
X1128013Y-868170D01*
X1128013Y-868170D02*
X1156585Y-868170D01*
X1156585Y-868170D02*
X1175632Y-877694D01*
X1175632Y-877694D02*
X1185156Y-896742D01*
X1185156Y-896742D02*
X1185156Y-1001504D01*
X1185156Y-896742D02*
X1194680Y-877694D01*
X1194680Y-877694D02*
X1213728Y-868170D01*
X1213728Y-868170D02*
X1242299Y-868170D01*
X1242299Y-868170D02*
X1261347Y-877694D01*
X1261347Y-877694D02*
X1270871Y-896742D01*
X1270871Y-896742D02*
X1270871Y-1001504D01*
X1366109Y-1001504D02*
X1366109Y-868170D01*
X1366109Y-887218D02*
X1375632Y-877694D01*
X1375632Y-877694D02*
X1394680Y-868170D01*
X1394680Y-868170D02*
X1423251Y-868170D01*
X1423251Y-868170D02*
X1442299Y-877694D01*
X1442299Y-877694D02*
X1451823Y-896742D01*
X1451823Y-896742D02*
X1451823Y-1001504D01*
X1451823Y-896742D02*
X1461347Y-877694D01*
X1461347Y-877694D02*
X1480394Y-868170D01*
X1480394Y-868170D02*
X1508966Y-868170D01*
X1508966Y-868170D02*
X1528013Y-877694D01*
X1528013Y-877694D02*
X1537537Y-896742D01*
X1537537Y-896742D02*
X1537537Y-1001504D01*
X1928013Y-791980D02*
X1756585Y-1049123D01*
X2185156Y-801504D02*
X2204204Y-801504D01*
X2204204Y-801504D02*
X2223252Y-811028D01*
X2223252Y-811028D02*
X2232775Y-820551D01*
X2232775Y-820551D02*
X2242299Y-839599D01*
X2242299Y-839599D02*
X2251823Y-877694D01*
X2251823Y-877694D02*
X2251823Y-925313D01*
X2251823Y-925313D02*
X2242299Y-963408D01*
X2242299Y-963408D02*
X2232775Y-982456D01*
X2232775Y-982456D02*
X2223252Y-991980D01*
X2223252Y-991980D02*
X2204204Y-1001504D01*
X2204204Y-1001504D02*
X2185156Y-1001504D01*
X2185156Y-1001504D02*
X2166109Y-991980D01*
X2166109Y-991980D02*
X2156585Y-982456D01*
X2156585Y-982456D02*
X2147061Y-963408D01*
X2147061Y-963408D02*
X2137537Y-925313D01*
X2137537Y-925313D02*
X2137537Y-877694D01*
X2137537Y-877694D02*
X2147061Y-839599D01*
X2147061Y-839599D02*
X2156585Y-820551D01*
X2156585Y-820551D02*
X2166109Y-811028D01*
X2166109Y-811028D02*
X2185156Y-801504D01*
X2337537Y-982456D02*
X2347061Y-991980D01*
X2347061Y-991980D02*
X2337537Y-1001504D01*
X2337537Y-1001504D02*
X2328014Y-991980D01*
X2328014Y-991980D02*
X2337537Y-982456D01*
X2337537Y-982456D02*
X2337537Y-1001504D01*
X2470871Y-801504D02*
X2489918Y-801504D01*
X2489918Y-801504D02*
X2508966Y-811028D01*
X2508966Y-811028D02*
X2518490Y-820551D01*
X2518490Y-820551D02*
X2528014Y-839599D01*
X2528014Y-839599D02*
X2537537Y-877694D01*
X2537537Y-877694D02*
X2537537Y-925313D01*
X2537537Y-925313D02*
X2528014Y-963408D01*
X2528014Y-963408D02*
X2518490Y-982456D01*
X2518490Y-982456D02*
X2508966Y-991980D01*
X2508966Y-991980D02*
X2489918Y-1001504D01*
X2489918Y-1001504D02*
X2470871Y-1001504D01*
X2470871Y-1001504D02*
X2451823Y-991980D01*
X2451823Y-991980D02*
X2442299Y-982456D01*
X2442299Y-982456D02*
X2432775Y-963408D01*
X2432775Y-963408D02*
X2423252Y-925313D01*
X2423252Y-925313D02*
X2423252Y-877694D01*
X2423252Y-877694D02*
X2432775Y-839599D01*
X2432775Y-839599D02*
X2442299Y-820551D01*
X2442299Y-820551D02*
X2451823Y-811028D01*
X2451823Y-811028D02*
X2470871Y-801504D01*
X2661347Y-801504D02*
X2680395Y-801504D01*
X2680395Y-801504D02*
X2699442Y-811028D01*
X2699442Y-811028D02*
X2708966Y-820551D01*
X2708966Y-820551D02*
X2718490Y-839599D01*
X2718490Y-839599D02*
X2728014Y-877694D01*
X2728014Y-877694D02*
X2728014Y-925313D01*
X2728014Y-925313D02*
X2718490Y-963408D01*
X2718490Y-963408D02*
X2708966Y-982456D01*
X2708966Y-982456D02*
X2699442Y-991980D01*
X2699442Y-991980D02*
X2680395Y-1001504D01*
X2680395Y-1001504D02*
X2661347Y-1001504D01*
X2661347Y-1001504D02*
X2642299Y-991980D01*
X2642299Y-991980D02*
X2632775Y-982456D01*
X2632775Y-982456D02*
X2623252Y-963408D01*
X2623252Y-963408D02*
X2613728Y-925313D01*
X2613728Y-925313D02*
X2613728Y-877694D01*
X2613728Y-877694D02*
X2623252Y-839599D01*
X2623252Y-839599D02*
X2632775Y-820551D01*
X2632775Y-820551D02*
X2642299Y-811028D01*
X2642299Y-811028D02*
X2661347Y-801504D01*
X2908966Y-801504D02*
X2813728Y-801504D01*
X2813728Y-801504D02*
X2804204Y-896742D01*
X2804204Y-896742D02*
X2813728Y-887218D01*
X2813728Y-887218D02*
X2832775Y-877694D01*
X2832775Y-877694D02*
X2880394Y-877694D01*
X2880394Y-877694D02*
X2899442Y-887218D01*
X2899442Y-887218D02*
X2908966Y-896742D01*
X2908966Y-896742D02*
X2918490Y-915789D01*
X2918490Y-915789D02*
X2918490Y-963408D01*
X2918490Y-963408D02*
X2908966Y-982456D01*
X2908966Y-982456D02*
X2899442Y-991980D01*
X2899442Y-991980D02*
X2880394Y-1001504D01*
X2880394Y-1001504D02*
X2832775Y-1001504D01*
X2832775Y-1001504D02*
X2813728Y-991980D01*
X2813728Y-991980D02*
X2804204Y-982456D01*
X3013728Y-1001504D02*
X3051823Y-1001504D01*
X3051823Y-1001504D02*
X3070871Y-991980D01*
X3070871Y-991980D02*
X3080394Y-982456D01*
X3080394Y-982456D02*
X3099442Y-953885D01*
X3099442Y-953885D02*
X3108966Y-915789D01*
X3108966Y-915789D02*
X3108966Y-839599D01*
X3108966Y-839599D02*
X3099442Y-820551D01*
X3099442Y-820551D02*
X3089918Y-811028D01*
X3089918Y-811028D02*
X3070871Y-801504D01*
X3070871Y-801504D02*
X3032775Y-801504D01*
X3032775Y-801504D02*
X3013728Y-811028D01*
X3013728Y-811028D02*
X3004204Y-820551D01*
X3004204Y-820551D02*
X2994680Y-839599D01*
X2994680Y-839599D02*
X2994680Y-887218D01*
X2994680Y-887218D02*
X3004204Y-906266D01*
X3004204Y-906266D02*
X3013728Y-915789D01*
X3013728Y-915789D02*
X3032775Y-925313D01*
X3032775Y-925313D02*
X3070871Y-925313D01*
X3070871Y-925313D02*
X3089918Y-915789D01*
X3089918Y-915789D02*
X3099442Y-906266D01*
X3099442Y-906266D02*
X3108966Y-887218D01*
X3185156Y-801504D02*
X3185156Y-839599D01*
X3261347Y-801504D02*
X3261347Y-839599D01*
X3556585Y-1077694D02*
X3547061Y-1068170D01*
X3547061Y-1068170D02*
X3528014Y-1039599D01*
X3528014Y-1039599D02*
X3518490Y-1020551D01*
X3518490Y-1020551D02*
X3508966Y-991980D01*
X3508966Y-991980D02*
X3499442Y-944361D01*
X3499442Y-944361D02*
X3499442Y-906266D01*
X3499442Y-906266D02*
X3508966Y-858647D01*
X3508966Y-858647D02*
X3518490Y-830075D01*
X3518490Y-830075D02*
X3528014Y-811028D01*
X3528014Y-811028D02*
X3547061Y-782456D01*
X3547061Y-782456D02*
X3556585Y-772932D01*
X3623252Y-820551D02*
X3632775Y-811028D01*
X3632775Y-811028D02*
X3651823Y-801504D01*
X3651823Y-801504D02*
X3699442Y-801504D01*
X3699442Y-801504D02*
X3718490Y-811028D01*
X3718490Y-811028D02*
X3728014Y-820551D01*
X3728014Y-820551D02*
X3737537Y-839599D01*
X3737537Y-839599D02*
X3737537Y-858647D01*
X3737537Y-858647D02*
X3728014Y-887218D01*
X3728014Y-887218D02*
X3613728Y-1001504D01*
X3613728Y-1001504D02*
X3737537Y-1001504D01*
X3908966Y-801504D02*
X3870871Y-801504D01*
X3870871Y-801504D02*
X3851823Y-811028D01*
X3851823Y-811028D02*
X3842299Y-820551D01*
X3842299Y-820551D02*
X3823252Y-849123D01*
X3823252Y-849123D02*
X3813728Y-887218D01*
X3813728Y-887218D02*
X3813728Y-963408D01*
X3813728Y-963408D02*
X3823252Y-982456D01*
X3823252Y-982456D02*
X3832775Y-991980D01*
X3832775Y-991980D02*
X3851823Y-1001504D01*
X3851823Y-1001504D02*
X3889918Y-1001504D01*
X3889918Y-1001504D02*
X3908966Y-991980D01*
X3908966Y-991980D02*
X3918490Y-982456D01*
X3918490Y-982456D02*
X3928014Y-963408D01*
X3928014Y-963408D02*
X3928014Y-915789D01*
X3928014Y-915789D02*
X3918490Y-896742D01*
X3918490Y-896742D02*
X3908966Y-887218D01*
X3908966Y-887218D02*
X3889918Y-877694D01*
X3889918Y-877694D02*
X3851823Y-877694D01*
X3851823Y-877694D02*
X3832775Y-887218D01*
X3832775Y-887218D02*
X3823252Y-896742D01*
X3823252Y-896742D02*
X3813728Y-915789D01*
X3994680Y-801504D02*
X4128014Y-801504D01*
X4128014Y-801504D02*
X4042299Y-1001504D01*
X4356585Y-1001504D02*
X4356585Y-801504D01*
X4442299Y-1001504D02*
X4442299Y-896742D01*
X4442299Y-896742D02*
X4432776Y-877694D01*
X4432776Y-877694D02*
X4413728Y-868170D01*
X4413728Y-868170D02*
X4385157Y-868170D01*
X4385157Y-868170D02*
X4366109Y-877694D01*
X4366109Y-877694D02*
X4356585Y-887218D01*
X4566109Y-1001504D02*
X4547061Y-991980D01*
X4547061Y-991980D02*
X4537538Y-982456D01*
X4537538Y-982456D02*
X4528014Y-963408D01*
X4528014Y-963408D02*
X4528014Y-906266D01*
X4528014Y-906266D02*
X4537538Y-887218D01*
X4537538Y-887218D02*
X4547061Y-877694D01*
X4547061Y-877694D02*
X4566109Y-868170D01*
X4566109Y-868170D02*
X4594680Y-868170D01*
X4594680Y-868170D02*
X4613728Y-877694D01*
X4613728Y-877694D02*
X4623252Y-887218D01*
X4623252Y-887218D02*
X4632776Y-906266D01*
X4632776Y-906266D02*
X4632776Y-963408D01*
X4632776Y-963408D02*
X4623252Y-982456D01*
X4623252Y-982456D02*
X4613728Y-991980D01*
X4613728Y-991980D02*
X4594680Y-1001504D01*
X4594680Y-1001504D02*
X4566109Y-1001504D01*
X4747061Y-1001504D02*
X4728014Y-991980D01*
X4728014Y-991980D02*
X4718490Y-972932D01*
X4718490Y-972932D02*
X4718490Y-801504D01*
X4899442Y-991980D02*
X4880395Y-1001504D01*
X4880395Y-1001504D02*
X4842299Y-1001504D01*
X4842299Y-1001504D02*
X4823252Y-991980D01*
X4823252Y-991980D02*
X4813728Y-972932D01*
X4813728Y-972932D02*
X4813728Y-896742D01*
X4813728Y-896742D02*
X4823252Y-877694D01*
X4823252Y-877694D02*
X4842299Y-868170D01*
X4842299Y-868170D02*
X4880395Y-868170D01*
X4880395Y-868170D02*
X4899442Y-877694D01*
X4899442Y-877694D02*
X4908966Y-896742D01*
X4908966Y-896742D02*
X4908966Y-915789D01*
X4908966Y-915789D02*
X4813728Y-934837D01*
X4985157Y-991980D02*
X5004204Y-1001504D01*
X5004204Y-1001504D02*
X5042299Y-1001504D01*
X5042299Y-1001504D02*
X5061347Y-991980D01*
X5061347Y-991980D02*
X5070871Y-972932D01*
X5070871Y-972932D02*
X5070871Y-963408D01*
X5070871Y-963408D02*
X5061347Y-944361D01*
X5061347Y-944361D02*
X5042299Y-934837D01*
X5042299Y-934837D02*
X5013728Y-934837D01*
X5013728Y-934837D02*
X4994680Y-925313D01*
X4994680Y-925313D02*
X4985157Y-906266D01*
X4985157Y-906266D02*
X4985157Y-896742D01*
X4985157Y-896742D02*
X4994680Y-877694D01*
X4994680Y-877694D02*
X5013728Y-868170D01*
X5013728Y-868170D02*
X5042299Y-868170D01*
X5042299Y-868170D02*
X5061347Y-877694D01*
X5137538Y-1077694D02*
X5147061Y-1068170D01*
X5147061Y-1068170D02*
X5166109Y-1039599D01*
X5166109Y-1039599D02*
X5175633Y-1020551D01*
X5175633Y-1020551D02*
X5185157Y-991980D01*
X5185157Y-991980D02*
X5194680Y-944361D01*
X5194680Y-944361D02*
X5194680Y-906266D01*
X5194680Y-906266D02*
X5185157Y-858647D01*
X5185157Y-858647D02*
X5175633Y-830075D01*
X5175633Y-830075D02*
X5166109Y-811028D01*
X5166109Y-811028D02*
X5147061Y-782456D01*
X5147061Y-782456D02*
X5137538Y-772932D01*
D14*
X-25320Y-1152980D02*
X-25320Y-1192980D01*
X-45320Y-1172980D02*
X-5320Y-1172980D01*
D11*
X280394Y-1065504D02*
X299442Y-1065504D01*
X299442Y-1065504D02*
X318490Y-1075028D01*
X318490Y-1075028D02*
X328013Y-1084551D01*
X328013Y-1084551D02*
X337537Y-1103599D01*
X337537Y-1103599D02*
X347061Y-1141694D01*
X347061Y-1141694D02*
X347061Y-1189313D01*
X347061Y-1189313D02*
X337537Y-1227409D01*
X337537Y-1227409D02*
X328013Y-1246456D01*
X328013Y-1246456D02*
X318490Y-1255980D01*
X318490Y-1255980D02*
X299442Y-1265504D01*
X299442Y-1265504D02*
X280394Y-1265504D01*
X280394Y-1265504D02*
X261347Y-1255980D01*
X261347Y-1255980D02*
X251823Y-1246456D01*
X251823Y-1246456D02*
X242299Y-1227409D01*
X242299Y-1227409D02*
X232775Y-1189313D01*
X232775Y-1189313D02*
X232775Y-1141694D01*
X232775Y-1141694D02*
X242299Y-1103599D01*
X242299Y-1103599D02*
X251823Y-1084551D01*
X251823Y-1084551D02*
X261347Y-1075028D01*
X261347Y-1075028D02*
X280394Y-1065504D01*
X432775Y-1246456D02*
X442299Y-1255980D01*
X442299Y-1255980D02*
X432775Y-1265504D01*
X432775Y-1265504D02*
X423251Y-1255980D01*
X423251Y-1255980D02*
X432775Y-1246456D01*
X432775Y-1246456D02*
X432775Y-1265504D01*
X613728Y-1132170D02*
X613728Y-1265504D01*
X566109Y-1055980D02*
X518489Y-1198837D01*
X518489Y-1198837D02*
X642299Y-1198837D01*
X756585Y-1065504D02*
X775632Y-1065504D01*
X775632Y-1065504D02*
X794680Y-1075028D01*
X794680Y-1075028D02*
X804204Y-1084551D01*
X804204Y-1084551D02*
X813728Y-1103599D01*
X813728Y-1103599D02*
X823251Y-1141694D01*
X823251Y-1141694D02*
X823251Y-1189313D01*
X823251Y-1189313D02*
X813728Y-1227409D01*
X813728Y-1227409D02*
X804204Y-1246456D01*
X804204Y-1246456D02*
X794680Y-1255980D01*
X794680Y-1255980D02*
X775632Y-1265504D01*
X775632Y-1265504D02*
X756585Y-1265504D01*
X756585Y-1265504D02*
X737537Y-1255980D01*
X737537Y-1255980D02*
X728013Y-1246456D01*
X728013Y-1246456D02*
X718489Y-1227409D01*
X718489Y-1227409D02*
X708966Y-1189313D01*
X708966Y-1189313D02*
X708966Y-1141694D01*
X708966Y-1141694D02*
X718489Y-1103599D01*
X718489Y-1103599D02*
X728013Y-1084551D01*
X728013Y-1084551D02*
X737537Y-1075028D01*
X737537Y-1075028D02*
X756585Y-1065504D01*
X947061Y-1065504D02*
X966109Y-1065504D01*
X966109Y-1065504D02*
X985156Y-1075028D01*
X985156Y-1075028D02*
X994680Y-1084551D01*
X994680Y-1084551D02*
X1004204Y-1103599D01*
X1004204Y-1103599D02*
X1013728Y-1141694D01*
X1013728Y-1141694D02*
X1013728Y-1189313D01*
X1013728Y-1189313D02*
X1004204Y-1227409D01*
X1004204Y-1227409D02*
X994680Y-1246456D01*
X994680Y-1246456D02*
X985156Y-1255980D01*
X985156Y-1255980D02*
X966109Y-1265504D01*
X966109Y-1265504D02*
X947061Y-1265504D01*
X947061Y-1265504D02*
X928013Y-1255980D01*
X928013Y-1255980D02*
X918489Y-1246456D01*
X918489Y-1246456D02*
X908966Y-1227409D01*
X908966Y-1227409D02*
X899442Y-1189313D01*
X899442Y-1189313D02*
X899442Y-1141694D01*
X899442Y-1141694D02*
X908966Y-1103599D01*
X908966Y-1103599D02*
X918489Y-1084551D01*
X918489Y-1084551D02*
X928013Y-1075028D01*
X928013Y-1075028D02*
X947061Y-1065504D01*
X1099442Y-1265504D02*
X1099442Y-1132170D01*
X1099442Y-1151218D02*
X1108966Y-1141694D01*
X1108966Y-1141694D02*
X1128013Y-1132170D01*
X1128013Y-1132170D02*
X1156585Y-1132170D01*
X1156585Y-1132170D02*
X1175632Y-1141694D01*
X1175632Y-1141694D02*
X1185156Y-1160742D01*
X1185156Y-1160742D02*
X1185156Y-1265504D01*
X1185156Y-1160742D02*
X1194680Y-1141694D01*
X1194680Y-1141694D02*
X1213728Y-1132170D01*
X1213728Y-1132170D02*
X1242299Y-1132170D01*
X1242299Y-1132170D02*
X1261347Y-1141694D01*
X1261347Y-1141694D02*
X1270871Y-1160742D01*
X1270871Y-1160742D02*
X1270871Y-1265504D01*
X1366109Y-1265504D02*
X1366109Y-1132170D01*
X1366109Y-1151218D02*
X1375632Y-1141694D01*
X1375632Y-1141694D02*
X1394680Y-1132170D01*
X1394680Y-1132170D02*
X1423251Y-1132170D01*
X1423251Y-1132170D02*
X1442299Y-1141694D01*
X1442299Y-1141694D02*
X1451823Y-1160742D01*
X1451823Y-1160742D02*
X1451823Y-1265504D01*
X1451823Y-1160742D02*
X1461347Y-1141694D01*
X1461347Y-1141694D02*
X1480394Y-1132170D01*
X1480394Y-1132170D02*
X1508966Y-1132170D01*
X1508966Y-1132170D02*
X1528013Y-1141694D01*
X1528013Y-1141694D02*
X1537537Y-1160742D01*
X1537537Y-1160742D02*
X1537537Y-1265504D01*
X1928013Y-1055980D02*
X1756585Y-1313123D01*
X2185156Y-1065504D02*
X2204204Y-1065504D01*
X2204204Y-1065504D02*
X2223252Y-1075028D01*
X2223252Y-1075028D02*
X2232775Y-1084551D01*
X2232775Y-1084551D02*
X2242299Y-1103599D01*
X2242299Y-1103599D02*
X2251823Y-1141694D01*
X2251823Y-1141694D02*
X2251823Y-1189313D01*
X2251823Y-1189313D02*
X2242299Y-1227409D01*
X2242299Y-1227409D02*
X2232775Y-1246456D01*
X2232775Y-1246456D02*
X2223252Y-1255980D01*
X2223252Y-1255980D02*
X2204204Y-1265504D01*
X2204204Y-1265504D02*
X2185156Y-1265504D01*
X2185156Y-1265504D02*
X2166109Y-1255980D01*
X2166109Y-1255980D02*
X2156585Y-1246456D01*
X2156585Y-1246456D02*
X2147061Y-1227409D01*
X2147061Y-1227409D02*
X2137537Y-1189313D01*
X2137537Y-1189313D02*
X2137537Y-1141694D01*
X2137537Y-1141694D02*
X2147061Y-1103599D01*
X2147061Y-1103599D02*
X2156585Y-1084551D01*
X2156585Y-1084551D02*
X2166109Y-1075028D01*
X2166109Y-1075028D02*
X2185156Y-1065504D01*
X2337537Y-1246456D02*
X2347061Y-1255980D01*
X2347061Y-1255980D02*
X2337537Y-1265504D01*
X2337537Y-1265504D02*
X2328014Y-1255980D01*
X2328014Y-1255980D02*
X2337537Y-1246456D01*
X2337537Y-1246456D02*
X2337537Y-1265504D01*
X2470871Y-1065504D02*
X2489918Y-1065504D01*
X2489918Y-1065504D02*
X2508966Y-1075028D01*
X2508966Y-1075028D02*
X2518490Y-1084551D01*
X2518490Y-1084551D02*
X2528014Y-1103599D01*
X2528014Y-1103599D02*
X2537537Y-1141694D01*
X2537537Y-1141694D02*
X2537537Y-1189313D01*
X2537537Y-1189313D02*
X2528014Y-1227409D01*
X2528014Y-1227409D02*
X2518490Y-1246456D01*
X2518490Y-1246456D02*
X2508966Y-1255980D01*
X2508966Y-1255980D02*
X2489918Y-1265504D01*
X2489918Y-1265504D02*
X2470871Y-1265504D01*
X2470871Y-1265504D02*
X2451823Y-1255980D01*
X2451823Y-1255980D02*
X2442299Y-1246456D01*
X2442299Y-1246456D02*
X2432775Y-1227409D01*
X2432775Y-1227409D02*
X2423252Y-1189313D01*
X2423252Y-1189313D02*
X2423252Y-1141694D01*
X2423252Y-1141694D02*
X2432775Y-1103599D01*
X2432775Y-1103599D02*
X2442299Y-1084551D01*
X2442299Y-1084551D02*
X2451823Y-1075028D01*
X2451823Y-1075028D02*
X2470871Y-1065504D01*
X2728014Y-1265504D02*
X2613728Y-1265504D01*
X2670871Y-1265504D02*
X2670871Y-1065504D01*
X2670871Y-1065504D02*
X2651823Y-1094075D01*
X2651823Y-1094075D02*
X2632775Y-1113123D01*
X2632775Y-1113123D02*
X2613728Y-1122647D01*
X2908966Y-1065504D02*
X2813728Y-1065504D01*
X2813728Y-1065504D02*
X2804204Y-1160742D01*
X2804204Y-1160742D02*
X2813728Y-1151218D01*
X2813728Y-1151218D02*
X2832775Y-1141694D01*
X2832775Y-1141694D02*
X2880394Y-1141694D01*
X2880394Y-1141694D02*
X2899442Y-1151218D01*
X2899442Y-1151218D02*
X2908966Y-1160742D01*
X2908966Y-1160742D02*
X2918490Y-1179790D01*
X2918490Y-1179790D02*
X2918490Y-1227409D01*
X2918490Y-1227409D02*
X2908966Y-1246456D01*
X2908966Y-1246456D02*
X2899442Y-1255980D01*
X2899442Y-1255980D02*
X2880394Y-1265504D01*
X2880394Y-1265504D02*
X2832775Y-1265504D01*
X2832775Y-1265504D02*
X2813728Y-1255980D01*
X2813728Y-1255980D02*
X2804204Y-1246456D01*
X2985156Y-1065504D02*
X3118490Y-1065504D01*
X3118490Y-1065504D02*
X3032775Y-1265504D01*
X3185156Y-1065504D02*
X3185156Y-1103599D01*
X3261347Y-1065504D02*
X3261347Y-1103599D01*
X3556585Y-1341694D02*
X3547061Y-1332170D01*
X3547061Y-1332170D02*
X3528014Y-1303599D01*
X3528014Y-1303599D02*
X3518490Y-1284551D01*
X3518490Y-1284551D02*
X3508966Y-1255980D01*
X3508966Y-1255980D02*
X3499442Y-1208361D01*
X3499442Y-1208361D02*
X3499442Y-1170266D01*
X3499442Y-1170266D02*
X3508966Y-1122647D01*
X3508966Y-1122647D02*
X3518490Y-1094075D01*
X3518490Y-1094075D02*
X3528014Y-1075028D01*
X3528014Y-1075028D02*
X3547061Y-1046456D01*
X3547061Y-1046456D02*
X3556585Y-1036932D01*
X3623252Y-1084551D02*
X3632775Y-1075028D01*
X3632775Y-1075028D02*
X3651823Y-1065504D01*
X3651823Y-1065504D02*
X3699442Y-1065504D01*
X3699442Y-1065504D02*
X3718490Y-1075028D01*
X3718490Y-1075028D02*
X3728014Y-1084551D01*
X3728014Y-1084551D02*
X3737537Y-1103599D01*
X3737537Y-1103599D02*
X3737537Y-1122647D01*
X3737537Y-1122647D02*
X3728014Y-1151218D01*
X3728014Y-1151218D02*
X3613728Y-1265504D01*
X3613728Y-1265504D02*
X3737537Y-1265504D01*
X3918490Y-1065504D02*
X3823252Y-1065504D01*
X3823252Y-1065504D02*
X3813728Y-1160742D01*
X3813728Y-1160742D02*
X3823252Y-1151218D01*
X3823252Y-1151218D02*
X3842299Y-1141694D01*
X3842299Y-1141694D02*
X3889918Y-1141694D01*
X3889918Y-1141694D02*
X3908966Y-1151218D01*
X3908966Y-1151218D02*
X3918490Y-1160742D01*
X3918490Y-1160742D02*
X3928014Y-1179790D01*
X3928014Y-1179790D02*
X3928014Y-1227409D01*
X3928014Y-1227409D02*
X3918490Y-1246456D01*
X3918490Y-1246456D02*
X3908966Y-1255980D01*
X3908966Y-1255980D02*
X3889918Y-1265504D01*
X3889918Y-1265504D02*
X3842299Y-1265504D01*
X3842299Y-1265504D02*
X3823252Y-1255980D01*
X3823252Y-1255980D02*
X3813728Y-1246456D01*
X4166109Y-1265504D02*
X4166109Y-1065504D01*
X4251823Y-1265504D02*
X4251823Y-1160742D01*
X4251823Y-1160742D02*
X4242299Y-1141694D01*
X4242299Y-1141694D02*
X4223252Y-1132170D01*
X4223252Y-1132170D02*
X4194680Y-1132170D01*
X4194680Y-1132170D02*
X4175633Y-1141694D01*
X4175633Y-1141694D02*
X4166109Y-1151218D01*
X4375633Y-1265504D02*
X4356585Y-1255980D01*
X4356585Y-1255980D02*
X4347061Y-1246456D01*
X4347061Y-1246456D02*
X4337538Y-1227409D01*
X4337538Y-1227409D02*
X4337538Y-1170266D01*
X4337538Y-1170266D02*
X4347061Y-1151218D01*
X4347061Y-1151218D02*
X4356585Y-1141694D01*
X4356585Y-1141694D02*
X4375633Y-1132170D01*
X4375633Y-1132170D02*
X4404204Y-1132170D01*
X4404204Y-1132170D02*
X4423252Y-1141694D01*
X4423252Y-1141694D02*
X4432776Y-1151218D01*
X4432776Y-1151218D02*
X4442299Y-1170266D01*
X4442299Y-1170266D02*
X4442299Y-1227409D01*
X4442299Y-1227409D02*
X4432776Y-1246456D01*
X4432776Y-1246456D02*
X4423252Y-1255980D01*
X4423252Y-1255980D02*
X4404204Y-1265504D01*
X4404204Y-1265504D02*
X4375633Y-1265504D01*
X4556585Y-1265504D02*
X4537538Y-1255980D01*
X4537538Y-1255980D02*
X4528014Y-1236932D01*
X4528014Y-1236932D02*
X4528014Y-1065504D01*
X4708966Y-1255980D02*
X4689919Y-1265504D01*
X4689919Y-1265504D02*
X4651823Y-1265504D01*
X4651823Y-1265504D02*
X4632776Y-1255980D01*
X4632776Y-1255980D02*
X4623252Y-1236932D01*
X4623252Y-1236932D02*
X4623252Y-1160742D01*
X4623252Y-1160742D02*
X4632776Y-1141694D01*
X4632776Y-1141694D02*
X4651823Y-1132170D01*
X4651823Y-1132170D02*
X4689919Y-1132170D01*
X4689919Y-1132170D02*
X4708966Y-1141694D01*
X4708966Y-1141694D02*
X4718490Y-1160742D01*
X4718490Y-1160742D02*
X4718490Y-1179790D01*
X4718490Y-1179790D02*
X4623252Y-1198837D01*
X4794680Y-1255980D02*
X4813728Y-1265504D01*
X4813728Y-1265504D02*
X4851823Y-1265504D01*
X4851823Y-1265504D02*
X4870871Y-1255980D01*
X4870871Y-1255980D02*
X4880395Y-1236932D01*
X4880395Y-1236932D02*
X4880395Y-1227409D01*
X4880395Y-1227409D02*
X4870871Y-1208361D01*
X4870871Y-1208361D02*
X4851823Y-1198837D01*
X4851823Y-1198837D02*
X4823252Y-1198837D01*
X4823252Y-1198837D02*
X4804204Y-1189313D01*
X4804204Y-1189313D02*
X4794680Y-1170266D01*
X4794680Y-1170266D02*
X4794680Y-1160742D01*
X4794680Y-1160742D02*
X4804204Y-1141694D01*
X4804204Y-1141694D02*
X4823252Y-1132170D01*
X4823252Y-1132170D02*
X4851823Y-1132170D01*
X4851823Y-1132170D02*
X4870871Y-1141694D01*
X4947061Y-1341694D02*
X4956585Y-1332170D01*
X4956585Y-1332170D02*
X4975633Y-1303599D01*
X4975633Y-1303599D02*
X4985157Y-1284551D01*
X4985157Y-1284551D02*
X4994680Y-1255980D01*
X4994680Y-1255980D02*
X5004204Y-1208361D01*
X5004204Y-1208361D02*
X5004204Y-1170266D01*
X5004204Y-1170266D02*
X4994680Y-1122647D01*
X4994680Y-1122647D02*
X4985157Y-1094075D01*
X4985157Y-1094075D02*
X4975633Y-1075028D01*
X4975633Y-1075028D02*
X4956585Y-1046456D01*
X4956585Y-1046456D02*
X4947061Y-1036932D01*
D15*
X-14107Y-1458193D02*
X-14107Y-1415767D01*
X-56533Y-1415767D01*
X-56533Y-1458193D01*
X-14107Y-1458193D01*
D11*
X280394Y-1329504D02*
X299442Y-1329504D01*
X299442Y-1329504D02*
X318490Y-1339028D01*
X318490Y-1339028D02*
X328013Y-1348551D01*
X328013Y-1348551D02*
X337537Y-1367599D01*
X337537Y-1367599D02*
X347061Y-1405694D01*
X347061Y-1405694D02*
X347061Y-1453313D01*
X347061Y-1453313D02*
X337537Y-1491408D01*
X337537Y-1491408D02*
X328013Y-1510456D01*
X328013Y-1510456D02*
X318490Y-1519980D01*
X318490Y-1519980D02*
X299442Y-1529504D01*
X299442Y-1529504D02*
X280394Y-1529504D01*
X280394Y-1529504D02*
X261347Y-1519980D01*
X261347Y-1519980D02*
X251823Y-1510456D01*
X251823Y-1510456D02*
X242299Y-1491408D01*
X242299Y-1491408D02*
X232775Y-1453313D01*
X232775Y-1453313D02*
X232775Y-1405694D01*
X232775Y-1405694D02*
X242299Y-1367599D01*
X242299Y-1367599D02*
X251823Y-1348551D01*
X251823Y-1348551D02*
X261347Y-1339028D01*
X261347Y-1339028D02*
X280394Y-1329504D01*
X432775Y-1510456D02*
X442299Y-1519980D01*
X442299Y-1519980D02*
X432775Y-1529504D01*
X432775Y-1529504D02*
X423251Y-1519980D01*
X423251Y-1519980D02*
X432775Y-1510456D01*
X432775Y-1510456D02*
X432775Y-1529504D01*
X613728Y-1329504D02*
X575632Y-1329504D01*
X575632Y-1329504D02*
X556585Y-1339028D01*
X556585Y-1339028D02*
X547061Y-1348551D01*
X547061Y-1348551D02*
X528013Y-1377123D01*
X528013Y-1377123D02*
X518489Y-1415218D01*
X518489Y-1415218D02*
X518489Y-1491408D01*
X518489Y-1491408D02*
X528013Y-1510456D01*
X528013Y-1510456D02*
X537537Y-1519980D01*
X537537Y-1519980D02*
X556585Y-1529504D01*
X556585Y-1529504D02*
X594680Y-1529504D01*
X594680Y-1529504D02*
X613728Y-1519980D01*
X613728Y-1519980D02*
X623251Y-1510456D01*
X623251Y-1510456D02*
X632775Y-1491408D01*
X632775Y-1491408D02*
X632775Y-1443789D01*
X632775Y-1443789D02*
X623251Y-1424742D01*
X623251Y-1424742D02*
X613728Y-1415218D01*
X613728Y-1415218D02*
X594680Y-1405694D01*
X594680Y-1405694D02*
X556585Y-1405694D01*
X556585Y-1405694D02*
X537537Y-1415218D01*
X537537Y-1415218D02*
X528013Y-1424742D01*
X528013Y-1424742D02*
X518489Y-1443789D01*
X756585Y-1329504D02*
X775632Y-1329504D01*
X775632Y-1329504D02*
X794680Y-1339028D01*
X794680Y-1339028D02*
X804204Y-1348551D01*
X804204Y-1348551D02*
X813728Y-1367599D01*
X813728Y-1367599D02*
X823251Y-1405694D01*
X823251Y-1405694D02*
X823251Y-1453313D01*
X823251Y-1453313D02*
X813728Y-1491408D01*
X813728Y-1491408D02*
X804204Y-1510456D01*
X804204Y-1510456D02*
X794680Y-1519980D01*
X794680Y-1519980D02*
X775632Y-1529504D01*
X775632Y-1529504D02*
X756585Y-1529504D01*
X756585Y-1529504D02*
X737537Y-1519980D01*
X737537Y-1519980D02*
X728013Y-1510456D01*
X728013Y-1510456D02*
X718489Y-1491408D01*
X718489Y-1491408D02*
X708966Y-1453313D01*
X708966Y-1453313D02*
X708966Y-1405694D01*
X708966Y-1405694D02*
X718489Y-1367599D01*
X718489Y-1367599D02*
X728013Y-1348551D01*
X728013Y-1348551D02*
X737537Y-1339028D01*
X737537Y-1339028D02*
X756585Y-1329504D01*
X947061Y-1329504D02*
X966109Y-1329504D01*
X966109Y-1329504D02*
X985156Y-1339028D01*
X985156Y-1339028D02*
X994680Y-1348551D01*
X994680Y-1348551D02*
X1004204Y-1367599D01*
X1004204Y-1367599D02*
X1013728Y-1405694D01*
X1013728Y-1405694D02*
X1013728Y-1453313D01*
X1013728Y-1453313D02*
X1004204Y-1491408D01*
X1004204Y-1491408D02*
X994680Y-1510456D01*
X994680Y-1510456D02*
X985156Y-1519980D01*
X985156Y-1519980D02*
X966109Y-1529504D01*
X966109Y-1529504D02*
X947061Y-1529504D01*
X947061Y-1529504D02*
X928013Y-1519980D01*
X928013Y-1519980D02*
X918489Y-1510456D01*
X918489Y-1510456D02*
X908966Y-1491408D01*
X908966Y-1491408D02*
X899442Y-1453313D01*
X899442Y-1453313D02*
X899442Y-1405694D01*
X899442Y-1405694D02*
X908966Y-1367599D01*
X908966Y-1367599D02*
X918489Y-1348551D01*
X918489Y-1348551D02*
X928013Y-1339028D01*
X928013Y-1339028D02*
X947061Y-1329504D01*
X1099442Y-1529504D02*
X1099442Y-1396170D01*
X1099442Y-1415218D02*
X1108966Y-1405694D01*
X1108966Y-1405694D02*
X1128013Y-1396170D01*
X1128013Y-1396170D02*
X1156585Y-1396170D01*
X1156585Y-1396170D02*
X1175632Y-1405694D01*
X1175632Y-1405694D02*
X1185156Y-1424742D01*
X1185156Y-1424742D02*
X1185156Y-1529504D01*
X1185156Y-1424742D02*
X1194680Y-1405694D01*
X1194680Y-1405694D02*
X1213728Y-1396170D01*
X1213728Y-1396170D02*
X1242299Y-1396170D01*
X1242299Y-1396170D02*
X1261347Y-1405694D01*
X1261347Y-1405694D02*
X1270871Y-1424742D01*
X1270871Y-1424742D02*
X1270871Y-1529504D01*
X1366109Y-1529504D02*
X1366109Y-1396170D01*
X1366109Y-1415218D02*
X1375632Y-1405694D01*
X1375632Y-1405694D02*
X1394680Y-1396170D01*
X1394680Y-1396170D02*
X1423251Y-1396170D01*
X1423251Y-1396170D02*
X1442299Y-1405694D01*
X1442299Y-1405694D02*
X1451823Y-1424742D01*
X1451823Y-1424742D02*
X1451823Y-1529504D01*
X1451823Y-1424742D02*
X1461347Y-1405694D01*
X1461347Y-1405694D02*
X1480394Y-1396170D01*
X1480394Y-1396170D02*
X1508966Y-1396170D01*
X1508966Y-1396170D02*
X1528013Y-1405694D01*
X1528013Y-1405694D02*
X1537537Y-1424742D01*
X1537537Y-1424742D02*
X1537537Y-1529504D01*
X1928013Y-1319980D02*
X1756585Y-1577123D01*
X2185156Y-1329504D02*
X2204204Y-1329504D01*
X2204204Y-1329504D02*
X2223252Y-1339028D01*
X2223252Y-1339028D02*
X2232775Y-1348551D01*
X2232775Y-1348551D02*
X2242299Y-1367599D01*
X2242299Y-1367599D02*
X2251823Y-1405694D01*
X2251823Y-1405694D02*
X2251823Y-1453313D01*
X2251823Y-1453313D02*
X2242299Y-1491408D01*
X2242299Y-1491408D02*
X2232775Y-1510456D01*
X2232775Y-1510456D02*
X2223252Y-1519980D01*
X2223252Y-1519980D02*
X2204204Y-1529504D01*
X2204204Y-1529504D02*
X2185156Y-1529504D01*
X2185156Y-1529504D02*
X2166109Y-1519980D01*
X2166109Y-1519980D02*
X2156585Y-1510456D01*
X2156585Y-1510456D02*
X2147061Y-1491408D01*
X2147061Y-1491408D02*
X2137537Y-1453313D01*
X2137537Y-1453313D02*
X2137537Y-1405694D01*
X2137537Y-1405694D02*
X2147061Y-1367599D01*
X2147061Y-1367599D02*
X2156585Y-1348551D01*
X2156585Y-1348551D02*
X2166109Y-1339028D01*
X2166109Y-1339028D02*
X2185156Y-1329504D01*
X2337537Y-1510456D02*
X2347061Y-1519980D01*
X2347061Y-1519980D02*
X2337537Y-1529504D01*
X2337537Y-1529504D02*
X2328014Y-1519980D01*
X2328014Y-1519980D02*
X2337537Y-1510456D01*
X2337537Y-1510456D02*
X2337537Y-1529504D01*
X2470871Y-1329504D02*
X2489918Y-1329504D01*
X2489918Y-1329504D02*
X2508966Y-1339028D01*
X2508966Y-1339028D02*
X2518490Y-1348551D01*
X2518490Y-1348551D02*
X2528014Y-1367599D01*
X2528014Y-1367599D02*
X2537537Y-1405694D01*
X2537537Y-1405694D02*
X2537537Y-1453313D01*
X2537537Y-1453313D02*
X2528014Y-1491408D01*
X2528014Y-1491408D02*
X2518490Y-1510456D01*
X2518490Y-1510456D02*
X2508966Y-1519980D01*
X2508966Y-1519980D02*
X2489918Y-1529504D01*
X2489918Y-1529504D02*
X2470871Y-1529504D01*
X2470871Y-1529504D02*
X2451823Y-1519980D01*
X2451823Y-1519980D02*
X2442299Y-1510456D01*
X2442299Y-1510456D02*
X2432775Y-1491408D01*
X2432775Y-1491408D02*
X2423252Y-1453313D01*
X2423252Y-1453313D02*
X2423252Y-1405694D01*
X2423252Y-1405694D02*
X2432775Y-1367599D01*
X2432775Y-1367599D02*
X2442299Y-1348551D01*
X2442299Y-1348551D02*
X2451823Y-1339028D01*
X2451823Y-1339028D02*
X2470871Y-1329504D01*
X2613728Y-1348551D02*
X2623252Y-1339028D01*
X2623252Y-1339028D02*
X2642299Y-1329504D01*
X2642299Y-1329504D02*
X2689918Y-1329504D01*
X2689918Y-1329504D02*
X2708966Y-1339028D01*
X2708966Y-1339028D02*
X2718490Y-1348551D01*
X2718490Y-1348551D02*
X2728014Y-1367599D01*
X2728014Y-1367599D02*
X2728014Y-1386647D01*
X2728014Y-1386647D02*
X2718490Y-1415218D01*
X2718490Y-1415218D02*
X2604204Y-1529504D01*
X2604204Y-1529504D02*
X2728014Y-1529504D01*
X2794680Y-1329504D02*
X2918490Y-1329504D01*
X2918490Y-1329504D02*
X2851823Y-1405694D01*
X2851823Y-1405694D02*
X2880394Y-1405694D01*
X2880394Y-1405694D02*
X2899442Y-1415218D01*
X2899442Y-1415218D02*
X2908966Y-1424742D01*
X2908966Y-1424742D02*
X2918490Y-1443789D01*
X2918490Y-1443789D02*
X2918490Y-1491408D01*
X2918490Y-1491408D02*
X2908966Y-1510456D01*
X2908966Y-1510456D02*
X2899442Y-1519980D01*
X2899442Y-1519980D02*
X2880394Y-1529504D01*
X2880394Y-1529504D02*
X2823252Y-1529504D01*
X2823252Y-1529504D02*
X2804204Y-1519980D01*
X2804204Y-1519980D02*
X2794680Y-1510456D01*
X3089918Y-1329504D02*
X3051823Y-1329504D01*
X3051823Y-1329504D02*
X3032775Y-1339028D01*
X3032775Y-1339028D02*
X3023252Y-1348551D01*
X3023252Y-1348551D02*
X3004204Y-1377123D01*
X3004204Y-1377123D02*
X2994680Y-1415218D01*
X2994680Y-1415218D02*
X2994680Y-1491408D01*
X2994680Y-1491408D02*
X3004204Y-1510456D01*
X3004204Y-1510456D02*
X3013728Y-1519980D01*
X3013728Y-1519980D02*
X3032775Y-1529504D01*
X3032775Y-1529504D02*
X3070871Y-1529504D01*
X3070871Y-1529504D02*
X3089918Y-1519980D01*
X3089918Y-1519980D02*
X3099442Y-1510456D01*
X3099442Y-1510456D02*
X3108966Y-1491408D01*
X3108966Y-1491408D02*
X3108966Y-1443789D01*
X3108966Y-1443789D02*
X3099442Y-1424742D01*
X3099442Y-1424742D02*
X3089918Y-1415218D01*
X3089918Y-1415218D02*
X3070871Y-1405694D01*
X3070871Y-1405694D02*
X3032775Y-1405694D01*
X3032775Y-1405694D02*
X3013728Y-1415218D01*
X3013728Y-1415218D02*
X3004204Y-1424742D01*
X3004204Y-1424742D02*
X2994680Y-1443789D01*
X3185156Y-1329504D02*
X3185156Y-1367599D01*
X3261347Y-1329504D02*
X3261347Y-1367599D01*
X3556585Y-1605694D02*
X3547061Y-1596170D01*
X3547061Y-1596170D02*
X3528014Y-1567599D01*
X3528014Y-1567599D02*
X3518490Y-1548551D01*
X3518490Y-1548551D02*
X3508966Y-1519980D01*
X3508966Y-1519980D02*
X3499442Y-1472361D01*
X3499442Y-1472361D02*
X3499442Y-1434266D01*
X3499442Y-1434266D02*
X3508966Y-1386647D01*
X3508966Y-1386647D02*
X3518490Y-1358075D01*
X3518490Y-1358075D02*
X3528014Y-1339028D01*
X3528014Y-1339028D02*
X3547061Y-1310456D01*
X3547061Y-1310456D02*
X3556585Y-1300932D01*
X3670871Y-1329504D02*
X3689918Y-1329504D01*
X3689918Y-1329504D02*
X3708966Y-1339028D01*
X3708966Y-1339028D02*
X3718490Y-1348551D01*
X3718490Y-1348551D02*
X3728014Y-1367599D01*
X3728014Y-1367599D02*
X3737537Y-1405694D01*
X3737537Y-1405694D02*
X3737537Y-1453313D01*
X3737537Y-1453313D02*
X3728014Y-1491408D01*
X3728014Y-1491408D02*
X3718490Y-1510456D01*
X3718490Y-1510456D02*
X3708966Y-1519980D01*
X3708966Y-1519980D02*
X3689918Y-1529504D01*
X3689918Y-1529504D02*
X3670871Y-1529504D01*
X3670871Y-1529504D02*
X3651823Y-1519980D01*
X3651823Y-1519980D02*
X3642299Y-1510456D01*
X3642299Y-1510456D02*
X3632775Y-1491408D01*
X3632775Y-1491408D02*
X3623252Y-1453313D01*
X3623252Y-1453313D02*
X3623252Y-1405694D01*
X3623252Y-1405694D02*
X3632775Y-1367599D01*
X3632775Y-1367599D02*
X3642299Y-1348551D01*
X3642299Y-1348551D02*
X3651823Y-1339028D01*
X3651823Y-1339028D02*
X3670871Y-1329504D01*
X3975633Y-1529504D02*
X3975633Y-1329504D01*
X4061347Y-1529504D02*
X4061347Y-1424742D01*
X4061347Y-1424742D02*
X4051823Y-1405694D01*
X4051823Y-1405694D02*
X4032776Y-1396170D01*
X4032776Y-1396170D02*
X4004204Y-1396170D01*
X4004204Y-1396170D02*
X3985156Y-1405694D01*
X3985156Y-1405694D02*
X3975633Y-1415218D01*
X4185156Y-1529504D02*
X4166109Y-1519980D01*
X4166109Y-1519980D02*
X4156585Y-1510456D01*
X4156585Y-1510456D02*
X4147061Y-1491408D01*
X4147061Y-1491408D02*
X4147061Y-1434266D01*
X4147061Y-1434266D02*
X4156585Y-1415218D01*
X4156585Y-1415218D02*
X4166109Y-1405694D01*
X4166109Y-1405694D02*
X4185156Y-1396170D01*
X4185156Y-1396170D02*
X4213728Y-1396170D01*
X4213728Y-1396170D02*
X4232776Y-1405694D01*
X4232776Y-1405694D02*
X4242299Y-1415218D01*
X4242299Y-1415218D02*
X4251823Y-1434266D01*
X4251823Y-1434266D02*
X4251823Y-1491408D01*
X4251823Y-1491408D02*
X4242299Y-1510456D01*
X4242299Y-1510456D02*
X4232776Y-1519980D01*
X4232776Y-1519980D02*
X4213728Y-1529504D01*
X4213728Y-1529504D02*
X4185156Y-1529504D01*
X4366109Y-1529504D02*
X4347061Y-1519980D01*
X4347061Y-1519980D02*
X4337538Y-1500932D01*
X4337538Y-1500932D02*
X4337538Y-1329504D01*
X4518490Y-1519980D02*
X4499442Y-1529504D01*
X4499442Y-1529504D02*
X4461347Y-1529504D01*
X4461347Y-1529504D02*
X4442299Y-1519980D01*
X4442299Y-1519980D02*
X4432776Y-1500932D01*
X4432776Y-1500932D02*
X4432776Y-1424742D01*
X4432776Y-1424742D02*
X4442299Y-1405694D01*
X4442299Y-1405694D02*
X4461347Y-1396170D01*
X4461347Y-1396170D02*
X4499442Y-1396170D01*
X4499442Y-1396170D02*
X4518490Y-1405694D01*
X4518490Y-1405694D02*
X4528014Y-1424742D01*
X4528014Y-1424742D02*
X4528014Y-1443789D01*
X4528014Y-1443789D02*
X4432776Y-1462837D01*
X4604204Y-1519980D02*
X4623252Y-1529504D01*
X4623252Y-1529504D02*
X4661347Y-1529504D01*
X4661347Y-1529504D02*
X4680395Y-1519980D01*
X4680395Y-1519980D02*
X4689919Y-1500932D01*
X4689919Y-1500932D02*
X4689919Y-1491408D01*
X4689919Y-1491408D02*
X4680395Y-1472361D01*
X4680395Y-1472361D02*
X4661347Y-1462837D01*
X4661347Y-1462837D02*
X4632776Y-1462837D01*
X4632776Y-1462837D02*
X4613728Y-1453313D01*
X4613728Y-1453313D02*
X4604204Y-1434266D01*
X4604204Y-1434266D02*
X4604204Y-1424742D01*
X4604204Y-1424742D02*
X4613728Y-1405694D01*
X4613728Y-1405694D02*
X4632776Y-1396170D01*
X4632776Y-1396170D02*
X4661347Y-1396170D01*
X4661347Y-1396170D02*
X4680395Y-1405694D01*
X4928014Y-1453313D02*
X5080395Y-1453313D01*
X5004204Y-1529504D02*
X5004204Y-1377123D01*
X5413728Y-1396170D02*
X5413728Y-1529504D01*
X5366109Y-1319980D02*
X5318490Y-1462837D01*
X5318490Y-1462837D02*
X5442300Y-1462837D01*
X5661347Y-1519980D02*
X5680395Y-1529504D01*
X5680395Y-1529504D02*
X5718490Y-1529504D01*
X5718490Y-1529504D02*
X5737538Y-1519980D01*
X5737538Y-1519980D02*
X5747061Y-1500932D01*
X5747061Y-1500932D02*
X5747061Y-1491408D01*
X5747061Y-1491408D02*
X5737538Y-1472361D01*
X5737538Y-1472361D02*
X5718490Y-1462837D01*
X5718490Y-1462837D02*
X5689919Y-1462837D01*
X5689919Y-1462837D02*
X5670871Y-1453313D01*
X5670871Y-1453313D02*
X5661347Y-1434266D01*
X5661347Y-1434266D02*
X5661347Y-1424742D01*
X5661347Y-1424742D02*
X5670871Y-1405694D01*
X5670871Y-1405694D02*
X5689919Y-1396170D01*
X5689919Y-1396170D02*
X5718490Y-1396170D01*
X5718490Y-1396170D02*
X5737538Y-1405694D01*
X5861347Y-1529504D02*
X5842300Y-1519980D01*
X5842300Y-1519980D02*
X5832776Y-1500932D01*
X5832776Y-1500932D02*
X5832776Y-1329504D01*
X5966109Y-1529504D02*
X5947061Y-1519980D01*
X5947061Y-1519980D02*
X5937538Y-1510456D01*
X5937538Y-1510456D02*
X5928014Y-1491408D01*
X5928014Y-1491408D02*
X5928014Y-1434266D01*
X5928014Y-1434266D02*
X5937538Y-1415218D01*
X5937538Y-1415218D02*
X5947061Y-1405694D01*
X5947061Y-1405694D02*
X5966109Y-1396170D01*
X5966109Y-1396170D02*
X5994681Y-1396170D01*
X5994681Y-1396170D02*
X6013728Y-1405694D01*
X6013728Y-1405694D02*
X6023252Y-1415218D01*
X6023252Y-1415218D02*
X6032776Y-1434266D01*
X6032776Y-1434266D02*
X6032776Y-1491408D01*
X6032776Y-1491408D02*
X6023252Y-1510456D01*
X6023252Y-1510456D02*
X6013728Y-1519980D01*
X6013728Y-1519980D02*
X5994681Y-1529504D01*
X5994681Y-1529504D02*
X5966109Y-1529504D01*
X6089919Y-1396170D02*
X6166109Y-1396170D01*
X6118490Y-1329504D02*
X6118490Y-1500932D01*
X6118490Y-1500932D02*
X6128014Y-1519980D01*
X6128014Y-1519980D02*
X6147061Y-1529504D01*
X6147061Y-1529504D02*
X6166109Y-1529504D01*
X6223252Y-1519980D02*
X6242300Y-1529504D01*
X6242300Y-1529504D02*
X6280395Y-1529504D01*
X6280395Y-1529504D02*
X6299442Y-1519980D01*
X6299442Y-1519980D02*
X6308966Y-1500932D01*
X6308966Y-1500932D02*
X6308966Y-1491408D01*
X6308966Y-1491408D02*
X6299442Y-1472361D01*
X6299442Y-1472361D02*
X6280395Y-1462837D01*
X6280395Y-1462837D02*
X6251823Y-1462837D01*
X6251823Y-1462837D02*
X6232776Y-1453313D01*
X6232776Y-1453313D02*
X6223252Y-1434266D01*
X6223252Y-1434266D02*
X6223252Y-1424742D01*
X6223252Y-1424742D02*
X6232776Y-1405694D01*
X6232776Y-1405694D02*
X6251823Y-1396170D01*
X6251823Y-1396170D02*
X6280395Y-1396170D01*
X6280395Y-1396170D02*
X6299442Y-1405694D01*
X6375633Y-1605694D02*
X6385157Y-1596170D01*
X6385157Y-1596170D02*
X6404204Y-1567599D01*
X6404204Y-1567599D02*
X6413728Y-1548551D01*
X6413728Y-1548551D02*
X6423252Y-1519980D01*
X6423252Y-1519980D02*
X6432776Y-1472361D01*
X6432776Y-1472361D02*
X6432776Y-1434266D01*
X6432776Y-1434266D02*
X6423252Y-1386647D01*
X6423252Y-1386647D02*
X6413728Y-1358075D01*
X6413728Y-1358075D02*
X6404204Y-1339028D01*
X6404204Y-1339028D02*
X6385157Y-1310456D01*
X6385157Y-1310456D02*
X6375633Y-1300932D01*
D16*
X-53580Y-1749240D02*
X-5320Y-1700980D01*
X-53580Y-1652720D01*
X-101840Y-1700980D01*
X-53580Y-1749240D01*
D11*
X280394Y-1593504D02*
X299442Y-1593504D01*
X299442Y-1593504D02*
X318490Y-1603028D01*
X318490Y-1603028D02*
X328013Y-1612551D01*
X328013Y-1612551D02*
X337537Y-1631599D01*
X337537Y-1631599D02*
X347061Y-1669694D01*
X347061Y-1669694D02*
X347061Y-1717313D01*
X347061Y-1717313D02*
X337537Y-1755408D01*
X337537Y-1755408D02*
X328013Y-1774456D01*
X328013Y-1774456D02*
X318490Y-1783980D01*
X318490Y-1783980D02*
X299442Y-1793504D01*
X299442Y-1793504D02*
X280394Y-1793504D01*
X280394Y-1793504D02*
X261347Y-1783980D01*
X261347Y-1783980D02*
X251823Y-1774456D01*
X251823Y-1774456D02*
X242299Y-1755408D01*
X242299Y-1755408D02*
X232775Y-1717313D01*
X232775Y-1717313D02*
X232775Y-1669694D01*
X232775Y-1669694D02*
X242299Y-1631599D01*
X242299Y-1631599D02*
X251823Y-1612551D01*
X251823Y-1612551D02*
X261347Y-1603028D01*
X261347Y-1603028D02*
X280394Y-1593504D01*
X432775Y-1774456D02*
X442299Y-1783980D01*
X442299Y-1783980D02*
X432775Y-1793504D01*
X432775Y-1793504D02*
X423251Y-1783980D01*
X423251Y-1783980D02*
X432775Y-1774456D01*
X432775Y-1774456D02*
X432775Y-1793504D01*
X537537Y-1793504D02*
X575632Y-1793504D01*
X575632Y-1793504D02*
X594680Y-1783980D01*
X594680Y-1783980D02*
X604204Y-1774456D01*
X604204Y-1774456D02*
X623251Y-1745885D01*
X623251Y-1745885D02*
X632775Y-1707789D01*
X632775Y-1707789D02*
X632775Y-1631599D01*
X632775Y-1631599D02*
X623251Y-1612551D01*
X623251Y-1612551D02*
X613728Y-1603028D01*
X613728Y-1603028D02*
X594680Y-1593504D01*
X594680Y-1593504D02*
X556585Y-1593504D01*
X556585Y-1593504D02*
X537537Y-1603028D01*
X537537Y-1603028D02*
X528013Y-1612551D01*
X528013Y-1612551D02*
X518489Y-1631599D01*
X518489Y-1631599D02*
X518489Y-1679218D01*
X518489Y-1679218D02*
X528013Y-1698266D01*
X528013Y-1698266D02*
X537537Y-1707789D01*
X537537Y-1707789D02*
X556585Y-1717313D01*
X556585Y-1717313D02*
X594680Y-1717313D01*
X594680Y-1717313D02*
X613728Y-1707789D01*
X613728Y-1707789D02*
X623251Y-1698266D01*
X623251Y-1698266D02*
X632775Y-1679218D01*
X804204Y-1593504D02*
X766108Y-1593504D01*
X766108Y-1593504D02*
X747061Y-1603028D01*
X747061Y-1603028D02*
X737537Y-1612551D01*
X737537Y-1612551D02*
X718489Y-1641123D01*
X718489Y-1641123D02*
X708966Y-1679218D01*
X708966Y-1679218D02*
X708966Y-1755408D01*
X708966Y-1755408D02*
X718489Y-1774456D01*
X718489Y-1774456D02*
X728013Y-1783980D01*
X728013Y-1783980D02*
X747061Y-1793504D01*
X747061Y-1793504D02*
X785156Y-1793504D01*
X785156Y-1793504D02*
X804204Y-1783980D01*
X804204Y-1783980D02*
X813728Y-1774456D01*
X813728Y-1774456D02*
X823251Y-1755408D01*
X823251Y-1755408D02*
X823251Y-1707789D01*
X823251Y-1707789D02*
X813728Y-1688742D01*
X813728Y-1688742D02*
X804204Y-1679218D01*
X804204Y-1679218D02*
X785156Y-1669694D01*
X785156Y-1669694D02*
X747061Y-1669694D01*
X747061Y-1669694D02*
X728013Y-1679218D01*
X728013Y-1679218D02*
X718489Y-1688742D01*
X718489Y-1688742D02*
X708966Y-1707789D01*
X1004204Y-1593504D02*
X908966Y-1593504D01*
X908966Y-1593504D02*
X899442Y-1688742D01*
X899442Y-1688742D02*
X908966Y-1679218D01*
X908966Y-1679218D02*
X928013Y-1669694D01*
X928013Y-1669694D02*
X975632Y-1669694D01*
X975632Y-1669694D02*
X994680Y-1679218D01*
X994680Y-1679218D02*
X1004204Y-1688742D01*
X1004204Y-1688742D02*
X1013728Y-1707789D01*
X1013728Y-1707789D02*
X1013728Y-1755408D01*
X1013728Y-1755408D02*
X1004204Y-1774456D01*
X1004204Y-1774456D02*
X994680Y-1783980D01*
X994680Y-1783980D02*
X975632Y-1793504D01*
X975632Y-1793504D02*
X928013Y-1793504D01*
X928013Y-1793504D02*
X908966Y-1783980D01*
X908966Y-1783980D02*
X899442Y-1774456D01*
X1099442Y-1793504D02*
X1099442Y-1660170D01*
X1099442Y-1679218D02*
X1108966Y-1669694D01*
X1108966Y-1669694D02*
X1128013Y-1660170D01*
X1128013Y-1660170D02*
X1156585Y-1660170D01*
X1156585Y-1660170D02*
X1175632Y-1669694D01*
X1175632Y-1669694D02*
X1185156Y-1688742D01*
X1185156Y-1688742D02*
X1185156Y-1793504D01*
X1185156Y-1688742D02*
X1194680Y-1669694D01*
X1194680Y-1669694D02*
X1213728Y-1660170D01*
X1213728Y-1660170D02*
X1242299Y-1660170D01*
X1242299Y-1660170D02*
X1261347Y-1669694D01*
X1261347Y-1669694D02*
X1270871Y-1688742D01*
X1270871Y-1688742D02*
X1270871Y-1793504D01*
X1366109Y-1793504D02*
X1366109Y-1660170D01*
X1366109Y-1679218D02*
X1375632Y-1669694D01*
X1375632Y-1669694D02*
X1394680Y-1660170D01*
X1394680Y-1660170D02*
X1423251Y-1660170D01*
X1423251Y-1660170D02*
X1442299Y-1669694D01*
X1442299Y-1669694D02*
X1451823Y-1688742D01*
X1451823Y-1688742D02*
X1451823Y-1793504D01*
X1451823Y-1688742D02*
X1461347Y-1669694D01*
X1461347Y-1669694D02*
X1480394Y-1660170D01*
X1480394Y-1660170D02*
X1508966Y-1660170D01*
X1508966Y-1660170D02*
X1528013Y-1669694D01*
X1528013Y-1669694D02*
X1537537Y-1688742D01*
X1537537Y-1688742D02*
X1537537Y-1793504D01*
X1928013Y-1583980D02*
X1756585Y-1841123D01*
X2185156Y-1593504D02*
X2204204Y-1593504D01*
X2204204Y-1593504D02*
X2223252Y-1603028D01*
X2223252Y-1603028D02*
X2232775Y-1612551D01*
X2232775Y-1612551D02*
X2242299Y-1631599D01*
X2242299Y-1631599D02*
X2251823Y-1669694D01*
X2251823Y-1669694D02*
X2251823Y-1717313D01*
X2251823Y-1717313D02*
X2242299Y-1755408D01*
X2242299Y-1755408D02*
X2232775Y-1774456D01*
X2232775Y-1774456D02*
X2223252Y-1783980D01*
X2223252Y-1783980D02*
X2204204Y-1793504D01*
X2204204Y-1793504D02*
X2185156Y-1793504D01*
X2185156Y-1793504D02*
X2166109Y-1783980D01*
X2166109Y-1783980D02*
X2156585Y-1774456D01*
X2156585Y-1774456D02*
X2147061Y-1755408D01*
X2147061Y-1755408D02*
X2137537Y-1717313D01*
X2137537Y-1717313D02*
X2137537Y-1669694D01*
X2137537Y-1669694D02*
X2147061Y-1631599D01*
X2147061Y-1631599D02*
X2156585Y-1612551D01*
X2156585Y-1612551D02*
X2166109Y-1603028D01*
X2166109Y-1603028D02*
X2185156Y-1593504D01*
X2337537Y-1774456D02*
X2347061Y-1783980D01*
X2347061Y-1783980D02*
X2337537Y-1793504D01*
X2337537Y-1793504D02*
X2328014Y-1783980D01*
X2328014Y-1783980D02*
X2337537Y-1774456D01*
X2337537Y-1774456D02*
X2337537Y-1793504D01*
X2470871Y-1593504D02*
X2489918Y-1593504D01*
X2489918Y-1593504D02*
X2508966Y-1603028D01*
X2508966Y-1603028D02*
X2518490Y-1612551D01*
X2518490Y-1612551D02*
X2528014Y-1631599D01*
X2528014Y-1631599D02*
X2537537Y-1669694D01*
X2537537Y-1669694D02*
X2537537Y-1717313D01*
X2537537Y-1717313D02*
X2528014Y-1755408D01*
X2528014Y-1755408D02*
X2518490Y-1774456D01*
X2518490Y-1774456D02*
X2508966Y-1783980D01*
X2508966Y-1783980D02*
X2489918Y-1793504D01*
X2489918Y-1793504D02*
X2470871Y-1793504D01*
X2470871Y-1793504D02*
X2451823Y-1783980D01*
X2451823Y-1783980D02*
X2442299Y-1774456D01*
X2442299Y-1774456D02*
X2432775Y-1755408D01*
X2432775Y-1755408D02*
X2423252Y-1717313D01*
X2423252Y-1717313D02*
X2423252Y-1669694D01*
X2423252Y-1669694D02*
X2432775Y-1631599D01*
X2432775Y-1631599D02*
X2442299Y-1612551D01*
X2442299Y-1612551D02*
X2451823Y-1603028D01*
X2451823Y-1603028D02*
X2470871Y-1593504D01*
X2604204Y-1593504D02*
X2728014Y-1593504D01*
X2728014Y-1593504D02*
X2661347Y-1669694D01*
X2661347Y-1669694D02*
X2689918Y-1669694D01*
X2689918Y-1669694D02*
X2708966Y-1679218D01*
X2708966Y-1679218D02*
X2718490Y-1688742D01*
X2718490Y-1688742D02*
X2728014Y-1707789D01*
X2728014Y-1707789D02*
X2728014Y-1755408D01*
X2728014Y-1755408D02*
X2718490Y-1774456D01*
X2718490Y-1774456D02*
X2708966Y-1783980D01*
X2708966Y-1783980D02*
X2689918Y-1793504D01*
X2689918Y-1793504D02*
X2632775Y-1793504D01*
X2632775Y-1793504D02*
X2613728Y-1783980D01*
X2613728Y-1783980D02*
X2604204Y-1774456D01*
X2842299Y-1679218D02*
X2823252Y-1669694D01*
X2823252Y-1669694D02*
X2813728Y-1660170D01*
X2813728Y-1660170D02*
X2804204Y-1641123D01*
X2804204Y-1641123D02*
X2804204Y-1631599D01*
X2804204Y-1631599D02*
X2813728Y-1612551D01*
X2813728Y-1612551D02*
X2823252Y-1603028D01*
X2823252Y-1603028D02*
X2842299Y-1593504D01*
X2842299Y-1593504D02*
X2880394Y-1593504D01*
X2880394Y-1593504D02*
X2899442Y-1603028D01*
X2899442Y-1603028D02*
X2908966Y-1612551D01*
X2908966Y-1612551D02*
X2918490Y-1631599D01*
X2918490Y-1631599D02*
X2918490Y-1641123D01*
X2918490Y-1641123D02*
X2908966Y-1660170D01*
X2908966Y-1660170D02*
X2899442Y-1669694D01*
X2899442Y-1669694D02*
X2880394Y-1679218D01*
X2880394Y-1679218D02*
X2842299Y-1679218D01*
X2842299Y-1679218D02*
X2823252Y-1688742D01*
X2823252Y-1688742D02*
X2813728Y-1698266D01*
X2813728Y-1698266D02*
X2804204Y-1717313D01*
X2804204Y-1717313D02*
X2804204Y-1755408D01*
X2804204Y-1755408D02*
X2813728Y-1774456D01*
X2813728Y-1774456D02*
X2823252Y-1783980D01*
X2823252Y-1783980D02*
X2842299Y-1793504D01*
X2842299Y-1793504D02*
X2880394Y-1793504D01*
X2880394Y-1793504D02*
X2899442Y-1783980D01*
X2899442Y-1783980D02*
X2908966Y-1774456D01*
X2908966Y-1774456D02*
X2918490Y-1755408D01*
X2918490Y-1755408D02*
X2918490Y-1717313D01*
X2918490Y-1717313D02*
X2908966Y-1698266D01*
X2908966Y-1698266D02*
X2899442Y-1688742D01*
X2899442Y-1688742D02*
X2880394Y-1679218D01*
X3042299Y-1593504D02*
X3061347Y-1593504D01*
X3061347Y-1593504D02*
X3080394Y-1603028D01*
X3080394Y-1603028D02*
X3089918Y-1612551D01*
X3089918Y-1612551D02*
X3099442Y-1631599D01*
X3099442Y-1631599D02*
X3108966Y-1669694D01*
X3108966Y-1669694D02*
X3108966Y-1717313D01*
X3108966Y-1717313D02*
X3099442Y-1755408D01*
X3099442Y-1755408D02*
X3089918Y-1774456D01*
X3089918Y-1774456D02*
X3080394Y-1783980D01*
X3080394Y-1783980D02*
X3061347Y-1793504D01*
X3061347Y-1793504D02*
X3042299Y-1793504D01*
X3042299Y-1793504D02*
X3023252Y-1783980D01*
X3023252Y-1783980D02*
X3013728Y-1774456D01*
X3013728Y-1774456D02*
X3004204Y-1755408D01*
X3004204Y-1755408D02*
X2994680Y-1717313D01*
X2994680Y-1717313D02*
X2994680Y-1669694D01*
X2994680Y-1669694D02*
X3004204Y-1631599D01*
X3004204Y-1631599D02*
X3013728Y-1612551D01*
X3013728Y-1612551D02*
X3023252Y-1603028D01*
X3023252Y-1603028D02*
X3042299Y-1593504D01*
X3185156Y-1593504D02*
X3185156Y-1631599D01*
X3261347Y-1593504D02*
X3261347Y-1631599D01*
X3556585Y-1869694D02*
X3547061Y-1860170D01*
X3547061Y-1860170D02*
X3528014Y-1831599D01*
X3528014Y-1831599D02*
X3518490Y-1812551D01*
X3518490Y-1812551D02*
X3508966Y-1783980D01*
X3508966Y-1783980D02*
X3499442Y-1736361D01*
X3499442Y-1736361D02*
X3499442Y-1698266D01*
X3499442Y-1698266D02*
X3508966Y-1650647D01*
X3508966Y-1650647D02*
X3518490Y-1622075D01*
X3518490Y-1622075D02*
X3528014Y-1603028D01*
X3528014Y-1603028D02*
X3547061Y-1574456D01*
X3547061Y-1574456D02*
X3556585Y-1564932D01*
X3613728Y-1593504D02*
X3737537Y-1593504D01*
X3737537Y-1593504D02*
X3670871Y-1669694D01*
X3670871Y-1669694D02*
X3699442Y-1669694D01*
X3699442Y-1669694D02*
X3718490Y-1679218D01*
X3718490Y-1679218D02*
X3728014Y-1688742D01*
X3728014Y-1688742D02*
X3737537Y-1707789D01*
X3737537Y-1707789D02*
X3737537Y-1755408D01*
X3737537Y-1755408D02*
X3728014Y-1774456D01*
X3728014Y-1774456D02*
X3718490Y-1783980D01*
X3718490Y-1783980D02*
X3699442Y-1793504D01*
X3699442Y-1793504D02*
X3642299Y-1793504D01*
X3642299Y-1793504D02*
X3623252Y-1783980D01*
X3623252Y-1783980D02*
X3613728Y-1774456D01*
X3975633Y-1793504D02*
X3975633Y-1593504D01*
X4061347Y-1793504D02*
X4061347Y-1688742D01*
X4061347Y-1688742D02*
X4051823Y-1669694D01*
X4051823Y-1669694D02*
X4032776Y-1660170D01*
X4032776Y-1660170D02*
X4004204Y-1660170D01*
X4004204Y-1660170D02*
X3985156Y-1669694D01*
X3985156Y-1669694D02*
X3975633Y-1679218D01*
X4185156Y-1793504D02*
X4166109Y-1783980D01*
X4166109Y-1783980D02*
X4156585Y-1774456D01*
X4156585Y-1774456D02*
X4147061Y-1755408D01*
X4147061Y-1755408D02*
X4147061Y-1698266D01*
X4147061Y-1698266D02*
X4156585Y-1679218D01*
X4156585Y-1679218D02*
X4166109Y-1669694D01*
X4166109Y-1669694D02*
X4185156Y-1660170D01*
X4185156Y-1660170D02*
X4213728Y-1660170D01*
X4213728Y-1660170D02*
X4232776Y-1669694D01*
X4232776Y-1669694D02*
X4242299Y-1679218D01*
X4242299Y-1679218D02*
X4251823Y-1698266D01*
X4251823Y-1698266D02*
X4251823Y-1755408D01*
X4251823Y-1755408D02*
X4242299Y-1774456D01*
X4242299Y-1774456D02*
X4232776Y-1783980D01*
X4232776Y-1783980D02*
X4213728Y-1793504D01*
X4213728Y-1793504D02*
X4185156Y-1793504D01*
X4366109Y-1793504D02*
X4347061Y-1783980D01*
X4347061Y-1783980D02*
X4337538Y-1764932D01*
X4337538Y-1764932D02*
X4337538Y-1593504D01*
X4518490Y-1783980D02*
X4499442Y-1793504D01*
X4499442Y-1793504D02*
X4461347Y-1793504D01*
X4461347Y-1793504D02*
X4442299Y-1783980D01*
X4442299Y-1783980D02*
X4432776Y-1764932D01*
X4432776Y-1764932D02*
X4432776Y-1688742D01*
X4432776Y-1688742D02*
X4442299Y-1669694D01*
X4442299Y-1669694D02*
X4461347Y-1660170D01*
X4461347Y-1660170D02*
X4499442Y-1660170D01*
X4499442Y-1660170D02*
X4518490Y-1669694D01*
X4518490Y-1669694D02*
X4528014Y-1688742D01*
X4528014Y-1688742D02*
X4528014Y-1707789D01*
X4528014Y-1707789D02*
X4432776Y-1726837D01*
X4604204Y-1783980D02*
X4623252Y-1793504D01*
X4623252Y-1793504D02*
X4661347Y-1793504D01*
X4661347Y-1793504D02*
X4680395Y-1783980D01*
X4680395Y-1783980D02*
X4689919Y-1764932D01*
X4689919Y-1764932D02*
X4689919Y-1755408D01*
X4689919Y-1755408D02*
X4680395Y-1736361D01*
X4680395Y-1736361D02*
X4661347Y-1726837D01*
X4661347Y-1726837D02*
X4632776Y-1726837D01*
X4632776Y-1726837D02*
X4613728Y-1717313D01*
X4613728Y-1717313D02*
X4604204Y-1698266D01*
X4604204Y-1698266D02*
X4604204Y-1688742D01*
X4604204Y-1688742D02*
X4613728Y-1669694D01*
X4613728Y-1669694D02*
X4632776Y-1660170D01*
X4632776Y-1660170D02*
X4661347Y-1660170D01*
X4661347Y-1660170D02*
X4680395Y-1669694D01*
X4756585Y-1869694D02*
X4766109Y-1860170D01*
X4766109Y-1860170D02*
X4785157Y-1831599D01*
X4785157Y-1831599D02*
X4794680Y-1812551D01*
X4794680Y-1812551D02*
X4804204Y-1783980D01*
X4804204Y-1783980D02*
X4813728Y-1736361D01*
X4813728Y-1736361D02*
X4813728Y-1698266D01*
X4813728Y-1698266D02*
X4804204Y-1650647D01*
X4804204Y-1650647D02*
X4794680Y-1622075D01*
X4794680Y-1622075D02*
X4785157Y-1603028D01*
X4785157Y-1603028D02*
X4766109Y-1574456D01*
X4766109Y-1574456D02*
X4756585Y-1564932D01*
D10*
X-105320Y-1914980D02*
X-5320Y-2014980D01*
X-5320Y-1914980D02*
X-105320Y-2014980D01*
X-5320Y-1964980D02*
G75*
G03*
X-5320Y-1964980I-50000J0D01*
G01*
D11*
X347061Y-2057504D02*
X232775Y-2057504D01*
X289918Y-2057504D02*
X289918Y-1857504D01*
X289918Y-1857504D02*
X270870Y-1886075D01*
X270870Y-1886075D02*
X251823Y-1905123D01*
X251823Y-1905123D02*
X232775Y-1914647D01*
X432775Y-2038456D02*
X442299Y-2047980D01*
X442299Y-2047980D02*
X432775Y-2057504D01*
X432775Y-2057504D02*
X423251Y-2047980D01*
X423251Y-2047980D02*
X432775Y-2038456D01*
X432775Y-2038456D02*
X432775Y-2057504D01*
X566109Y-1857504D02*
X585156Y-1857504D01*
X585156Y-1857504D02*
X604204Y-1867028D01*
X604204Y-1867028D02*
X613728Y-1876551D01*
X613728Y-1876551D02*
X623251Y-1895599D01*
X623251Y-1895599D02*
X632775Y-1933694D01*
X632775Y-1933694D02*
X632775Y-1981313D01*
X632775Y-1981313D02*
X623251Y-2019408D01*
X623251Y-2019408D02*
X613728Y-2038456D01*
X613728Y-2038456D02*
X604204Y-2047980D01*
X604204Y-2047980D02*
X585156Y-2057504D01*
X585156Y-2057504D02*
X566109Y-2057504D01*
X566109Y-2057504D02*
X547061Y-2047980D01*
X547061Y-2047980D02*
X537537Y-2038456D01*
X537537Y-2038456D02*
X528013Y-2019408D01*
X528013Y-2019408D02*
X518489Y-1981313D01*
X518489Y-1981313D02*
X518489Y-1933694D01*
X518489Y-1933694D02*
X528013Y-1895599D01*
X528013Y-1895599D02*
X537537Y-1876551D01*
X537537Y-1876551D02*
X547061Y-1867028D01*
X547061Y-1867028D02*
X566109Y-1857504D01*
X756585Y-1857504D02*
X775632Y-1857504D01*
X775632Y-1857504D02*
X794680Y-1867028D01*
X794680Y-1867028D02*
X804204Y-1876551D01*
X804204Y-1876551D02*
X813728Y-1895599D01*
X813728Y-1895599D02*
X823251Y-1933694D01*
X823251Y-1933694D02*
X823251Y-1981313D01*
X823251Y-1981313D02*
X813728Y-2019408D01*
X813728Y-2019408D02*
X804204Y-2038456D01*
X804204Y-2038456D02*
X794680Y-2047980D01*
X794680Y-2047980D02*
X775632Y-2057504D01*
X775632Y-2057504D02*
X756585Y-2057504D01*
X756585Y-2057504D02*
X737537Y-2047980D01*
X737537Y-2047980D02*
X728013Y-2038456D01*
X728013Y-2038456D02*
X718489Y-2019408D01*
X718489Y-2019408D02*
X708966Y-1981313D01*
X708966Y-1981313D02*
X708966Y-1933694D01*
X708966Y-1933694D02*
X718489Y-1895599D01*
X718489Y-1895599D02*
X728013Y-1876551D01*
X728013Y-1876551D02*
X737537Y-1867028D01*
X737537Y-1867028D02*
X756585Y-1857504D01*
X947061Y-1857504D02*
X966109Y-1857504D01*
X966109Y-1857504D02*
X985156Y-1867028D01*
X985156Y-1867028D02*
X994680Y-1876551D01*
X994680Y-1876551D02*
X1004204Y-1895599D01*
X1004204Y-1895599D02*
X1013728Y-1933694D01*
X1013728Y-1933694D02*
X1013728Y-1981313D01*
X1013728Y-1981313D02*
X1004204Y-2019408D01*
X1004204Y-2019408D02*
X994680Y-2038456D01*
X994680Y-2038456D02*
X985156Y-2047980D01*
X985156Y-2047980D02*
X966109Y-2057504D01*
X966109Y-2057504D02*
X947061Y-2057504D01*
X947061Y-2057504D02*
X928013Y-2047980D01*
X928013Y-2047980D02*
X918489Y-2038456D01*
X918489Y-2038456D02*
X908966Y-2019408D01*
X908966Y-2019408D02*
X899442Y-1981313D01*
X899442Y-1981313D02*
X899442Y-1933694D01*
X899442Y-1933694D02*
X908966Y-1895599D01*
X908966Y-1895599D02*
X918489Y-1876551D01*
X918489Y-1876551D02*
X928013Y-1867028D01*
X928013Y-1867028D02*
X947061Y-1857504D01*
X1099442Y-2057504D02*
X1099442Y-1924170D01*
X1099442Y-1943218D02*
X1108966Y-1933694D01*
X1108966Y-1933694D02*
X1128013Y-1924170D01*
X1128013Y-1924170D02*
X1156585Y-1924170D01*
X1156585Y-1924170D02*
X1175632Y-1933694D01*
X1175632Y-1933694D02*
X1185156Y-1952742D01*
X1185156Y-1952742D02*
X1185156Y-2057504D01*
X1185156Y-1952742D02*
X1194680Y-1933694D01*
X1194680Y-1933694D02*
X1213728Y-1924170D01*
X1213728Y-1924170D02*
X1242299Y-1924170D01*
X1242299Y-1924170D02*
X1261347Y-1933694D01*
X1261347Y-1933694D02*
X1270871Y-1952742D01*
X1270871Y-1952742D02*
X1270871Y-2057504D01*
X1366109Y-2057504D02*
X1366109Y-1924170D01*
X1366109Y-1943218D02*
X1375632Y-1933694D01*
X1375632Y-1933694D02*
X1394680Y-1924170D01*
X1394680Y-1924170D02*
X1423251Y-1924170D01*
X1423251Y-1924170D02*
X1442299Y-1933694D01*
X1442299Y-1933694D02*
X1451823Y-1952742D01*
X1451823Y-1952742D02*
X1451823Y-2057504D01*
X1451823Y-1952742D02*
X1461347Y-1933694D01*
X1461347Y-1933694D02*
X1480394Y-1924170D01*
X1480394Y-1924170D02*
X1508966Y-1924170D01*
X1508966Y-1924170D02*
X1528013Y-1933694D01*
X1528013Y-1933694D02*
X1537537Y-1952742D01*
X1537537Y-1952742D02*
X1537537Y-2057504D01*
X1928013Y-1847980D02*
X1756585Y-2105123D01*
X2185156Y-1857504D02*
X2204204Y-1857504D01*
X2204204Y-1857504D02*
X2223252Y-1867028D01*
X2223252Y-1867028D02*
X2232775Y-1876551D01*
X2232775Y-1876551D02*
X2242299Y-1895599D01*
X2242299Y-1895599D02*
X2251823Y-1933694D01*
X2251823Y-1933694D02*
X2251823Y-1981313D01*
X2251823Y-1981313D02*
X2242299Y-2019408D01*
X2242299Y-2019408D02*
X2232775Y-2038456D01*
X2232775Y-2038456D02*
X2223252Y-2047980D01*
X2223252Y-2047980D02*
X2204204Y-2057504D01*
X2204204Y-2057504D02*
X2185156Y-2057504D01*
X2185156Y-2057504D02*
X2166109Y-2047980D01*
X2166109Y-2047980D02*
X2156585Y-2038456D01*
X2156585Y-2038456D02*
X2147061Y-2019408D01*
X2147061Y-2019408D02*
X2137537Y-1981313D01*
X2137537Y-1981313D02*
X2137537Y-1933694D01*
X2137537Y-1933694D02*
X2147061Y-1895599D01*
X2147061Y-1895599D02*
X2156585Y-1876551D01*
X2156585Y-1876551D02*
X2166109Y-1867028D01*
X2166109Y-1867028D02*
X2185156Y-1857504D01*
X2337537Y-2038456D02*
X2347061Y-2047980D01*
X2347061Y-2047980D02*
X2337537Y-2057504D01*
X2337537Y-2057504D02*
X2328014Y-2047980D01*
X2328014Y-2047980D02*
X2337537Y-2038456D01*
X2337537Y-2038456D02*
X2337537Y-2057504D01*
X2470871Y-1857504D02*
X2489918Y-1857504D01*
X2489918Y-1857504D02*
X2508966Y-1867028D01*
X2508966Y-1867028D02*
X2518490Y-1876551D01*
X2518490Y-1876551D02*
X2528014Y-1895599D01*
X2528014Y-1895599D02*
X2537537Y-1933694D01*
X2537537Y-1933694D02*
X2537537Y-1981313D01*
X2537537Y-1981313D02*
X2528014Y-2019408D01*
X2528014Y-2019408D02*
X2518490Y-2038456D01*
X2518490Y-2038456D02*
X2508966Y-2047980D01*
X2508966Y-2047980D02*
X2489918Y-2057504D01*
X2489918Y-2057504D02*
X2470871Y-2057504D01*
X2470871Y-2057504D02*
X2451823Y-2047980D01*
X2451823Y-2047980D02*
X2442299Y-2038456D01*
X2442299Y-2038456D02*
X2432775Y-2019408D01*
X2432775Y-2019408D02*
X2423252Y-1981313D01*
X2423252Y-1981313D02*
X2423252Y-1933694D01*
X2423252Y-1933694D02*
X2432775Y-1895599D01*
X2432775Y-1895599D02*
X2442299Y-1876551D01*
X2442299Y-1876551D02*
X2451823Y-1867028D01*
X2451823Y-1867028D02*
X2470871Y-1857504D01*
X2604204Y-1857504D02*
X2728014Y-1857504D01*
X2728014Y-1857504D02*
X2661347Y-1933694D01*
X2661347Y-1933694D02*
X2689918Y-1933694D01*
X2689918Y-1933694D02*
X2708966Y-1943218D01*
X2708966Y-1943218D02*
X2718490Y-1952742D01*
X2718490Y-1952742D02*
X2728014Y-1971789D01*
X2728014Y-1971789D02*
X2728014Y-2019408D01*
X2728014Y-2019408D02*
X2718490Y-2038456D01*
X2718490Y-2038456D02*
X2708966Y-2047980D01*
X2708966Y-2047980D02*
X2689918Y-2057504D01*
X2689918Y-2057504D02*
X2632775Y-2057504D01*
X2632775Y-2057504D02*
X2613728Y-2047980D01*
X2613728Y-2047980D02*
X2604204Y-2038456D01*
X2823252Y-2057504D02*
X2861347Y-2057504D01*
X2861347Y-2057504D02*
X2880394Y-2047980D01*
X2880394Y-2047980D02*
X2889918Y-2038456D01*
X2889918Y-2038456D02*
X2908966Y-2009885D01*
X2908966Y-2009885D02*
X2918490Y-1971789D01*
X2918490Y-1971789D02*
X2918490Y-1895599D01*
X2918490Y-1895599D02*
X2908966Y-1876551D01*
X2908966Y-1876551D02*
X2899442Y-1867028D01*
X2899442Y-1867028D02*
X2880394Y-1857504D01*
X2880394Y-1857504D02*
X2842299Y-1857504D01*
X2842299Y-1857504D02*
X2823252Y-1867028D01*
X2823252Y-1867028D02*
X2813728Y-1876551D01*
X2813728Y-1876551D02*
X2804204Y-1895599D01*
X2804204Y-1895599D02*
X2804204Y-1943218D01*
X2804204Y-1943218D02*
X2813728Y-1962266D01*
X2813728Y-1962266D02*
X2823252Y-1971789D01*
X2823252Y-1971789D02*
X2842299Y-1981313D01*
X2842299Y-1981313D02*
X2880394Y-1981313D01*
X2880394Y-1981313D02*
X2899442Y-1971789D01*
X2899442Y-1971789D02*
X2908966Y-1962266D01*
X2908966Y-1962266D02*
X2918490Y-1943218D01*
X3089918Y-1924170D02*
X3089918Y-2057504D01*
X3042299Y-1847980D02*
X2994680Y-1990837D01*
X2994680Y-1990837D02*
X3118490Y-1990837D01*
X3185156Y-1857504D02*
X3185156Y-1895599D01*
X3261347Y-1857504D02*
X3261347Y-1895599D01*
X3556585Y-2133694D02*
X3547061Y-2124170D01*
X3547061Y-2124170D02*
X3528014Y-2095599D01*
X3528014Y-2095599D02*
X3518490Y-2076551D01*
X3518490Y-2076551D02*
X3508966Y-2047980D01*
X3508966Y-2047980D02*
X3499442Y-2000361D01*
X3499442Y-2000361D02*
X3499442Y-1962266D01*
X3499442Y-1962266D02*
X3508966Y-1914647D01*
X3508966Y-1914647D02*
X3518490Y-1886075D01*
X3518490Y-1886075D02*
X3528014Y-1867028D01*
X3528014Y-1867028D02*
X3547061Y-1838456D01*
X3547061Y-1838456D02*
X3556585Y-1828932D01*
X3718490Y-1857504D02*
X3680394Y-1857504D01*
X3680394Y-1857504D02*
X3661347Y-1867028D01*
X3661347Y-1867028D02*
X3651823Y-1876551D01*
X3651823Y-1876551D02*
X3632775Y-1905123D01*
X3632775Y-1905123D02*
X3623252Y-1943218D01*
X3623252Y-1943218D02*
X3623252Y-2019408D01*
X3623252Y-2019408D02*
X3632775Y-2038456D01*
X3632775Y-2038456D02*
X3642299Y-2047980D01*
X3642299Y-2047980D02*
X3661347Y-2057504D01*
X3661347Y-2057504D02*
X3699442Y-2057504D01*
X3699442Y-2057504D02*
X3718490Y-2047980D01*
X3718490Y-2047980D02*
X3728014Y-2038456D01*
X3728014Y-2038456D02*
X3737537Y-2019408D01*
X3737537Y-2019408D02*
X3737537Y-1971789D01*
X3737537Y-1971789D02*
X3728014Y-1952742D01*
X3728014Y-1952742D02*
X3718490Y-1943218D01*
X3718490Y-1943218D02*
X3699442Y-1933694D01*
X3699442Y-1933694D02*
X3661347Y-1933694D01*
X3661347Y-1933694D02*
X3642299Y-1943218D01*
X3642299Y-1943218D02*
X3632775Y-1952742D01*
X3632775Y-1952742D02*
X3623252Y-1971789D01*
X3975633Y-2057504D02*
X3975633Y-1857504D01*
X4061347Y-2057504D02*
X4061347Y-1952742D01*
X4061347Y-1952742D02*
X4051823Y-1933694D01*
X4051823Y-1933694D02*
X4032776Y-1924170D01*
X4032776Y-1924170D02*
X4004204Y-1924170D01*
X4004204Y-1924170D02*
X3985156Y-1933694D01*
X3985156Y-1933694D02*
X3975633Y-1943218D01*
X4185156Y-2057504D02*
X4166109Y-2047980D01*
X4166109Y-2047980D02*
X4156585Y-2038456D01*
X4156585Y-2038456D02*
X4147061Y-2019408D01*
X4147061Y-2019408D02*
X4147061Y-1962266D01*
X4147061Y-1962266D02*
X4156585Y-1943218D01*
X4156585Y-1943218D02*
X4166109Y-1933694D01*
X4166109Y-1933694D02*
X4185156Y-1924170D01*
X4185156Y-1924170D02*
X4213728Y-1924170D01*
X4213728Y-1924170D02*
X4232776Y-1933694D01*
X4232776Y-1933694D02*
X4242299Y-1943218D01*
X4242299Y-1943218D02*
X4251823Y-1962266D01*
X4251823Y-1962266D02*
X4251823Y-2019408D01*
X4251823Y-2019408D02*
X4242299Y-2038456D01*
X4242299Y-2038456D02*
X4232776Y-2047980D01*
X4232776Y-2047980D02*
X4213728Y-2057504D01*
X4213728Y-2057504D02*
X4185156Y-2057504D01*
X4366109Y-2057504D02*
X4347061Y-2047980D01*
X4347061Y-2047980D02*
X4337538Y-2028932D01*
X4337538Y-2028932D02*
X4337538Y-1857504D01*
X4518490Y-2047980D02*
X4499442Y-2057504D01*
X4499442Y-2057504D02*
X4461347Y-2057504D01*
X4461347Y-2057504D02*
X4442299Y-2047980D01*
X4442299Y-2047980D02*
X4432776Y-2028932D01*
X4432776Y-2028932D02*
X4432776Y-1952742D01*
X4432776Y-1952742D02*
X4442299Y-1933694D01*
X4442299Y-1933694D02*
X4461347Y-1924170D01*
X4461347Y-1924170D02*
X4499442Y-1924170D01*
X4499442Y-1924170D02*
X4518490Y-1933694D01*
X4518490Y-1933694D02*
X4528014Y-1952742D01*
X4528014Y-1952742D02*
X4528014Y-1971789D01*
X4528014Y-1971789D02*
X4432776Y-1990837D01*
X4604204Y-2047980D02*
X4623252Y-2057504D01*
X4623252Y-2057504D02*
X4661347Y-2057504D01*
X4661347Y-2057504D02*
X4680395Y-2047980D01*
X4680395Y-2047980D02*
X4689919Y-2028932D01*
X4689919Y-2028932D02*
X4689919Y-2019408D01*
X4689919Y-2019408D02*
X4680395Y-2000361D01*
X4680395Y-2000361D02*
X4661347Y-1990837D01*
X4661347Y-1990837D02*
X4632776Y-1990837D01*
X4632776Y-1990837D02*
X4613728Y-1981313D01*
X4613728Y-1981313D02*
X4604204Y-1962266D01*
X4604204Y-1962266D02*
X4604204Y-1952742D01*
X4604204Y-1952742D02*
X4613728Y-1933694D01*
X4613728Y-1933694D02*
X4632776Y-1924170D01*
X4632776Y-1924170D02*
X4661347Y-1924170D01*
X4661347Y-1924170D02*
X4680395Y-1933694D01*
X4756585Y-2133694D02*
X4766109Y-2124170D01*
X4766109Y-2124170D02*
X4785157Y-2095599D01*
X4785157Y-2095599D02*
X4794680Y-2076551D01*
X4794680Y-2076551D02*
X4804204Y-2047980D01*
X4804204Y-2047980D02*
X4813728Y-2000361D01*
X4813728Y-2000361D02*
X4813728Y-1962266D01*
X4813728Y-1962266D02*
X4804204Y-1914647D01*
X4804204Y-1914647D02*
X4794680Y-1886075D01*
X4794680Y-1886075D02*
X4785157Y-1867028D01*
X4785157Y-1867028D02*
X4766109Y-1838456D01*
X4766109Y-1838456D02*
X4756585Y-1828932D01*
D17*
X-137320Y-2162980D02*
X-5320Y-2294980D01*
X-5320Y-2162980D02*
X-137320Y-2294980D01*
X-71320Y-2162980D02*
X-71320Y-2294980D01*
X-137320Y-2228980D02*
X-5320Y-2228980D01*
D11*
X347061Y-2321504D02*
X232775Y-2321504D01*
X289918Y-2321504D02*
X289918Y-2121504D01*
X289918Y-2121504D02*
X270870Y-2150075D01*
X270870Y-2150075D02*
X251823Y-2169123D01*
X251823Y-2169123D02*
X232775Y-2178647D01*
X432775Y-2302456D02*
X442299Y-2311980D01*
X442299Y-2311980D02*
X432775Y-2321504D01*
X432775Y-2321504D02*
X423251Y-2311980D01*
X423251Y-2311980D02*
X432775Y-2302456D01*
X432775Y-2302456D02*
X432775Y-2321504D01*
X508966Y-2121504D02*
X632775Y-2121504D01*
X632775Y-2121504D02*
X566109Y-2197694D01*
X566109Y-2197694D02*
X594680Y-2197694D01*
X594680Y-2197694D02*
X613728Y-2207218D01*
X613728Y-2207218D02*
X623251Y-2216742D01*
X623251Y-2216742D02*
X632775Y-2235790D01*
X632775Y-2235790D02*
X632775Y-2283409D01*
X632775Y-2283409D02*
X623251Y-2302456D01*
X623251Y-2302456D02*
X613728Y-2311980D01*
X613728Y-2311980D02*
X594680Y-2321504D01*
X594680Y-2321504D02*
X537537Y-2321504D01*
X537537Y-2321504D02*
X518489Y-2311980D01*
X518489Y-2311980D02*
X508966Y-2302456D01*
X708966Y-2140551D02*
X718489Y-2131028D01*
X718489Y-2131028D02*
X737537Y-2121504D01*
X737537Y-2121504D02*
X785156Y-2121504D01*
X785156Y-2121504D02*
X804204Y-2131028D01*
X804204Y-2131028D02*
X813728Y-2140551D01*
X813728Y-2140551D02*
X823251Y-2159599D01*
X823251Y-2159599D02*
X823251Y-2178647D01*
X823251Y-2178647D02*
X813728Y-2207218D01*
X813728Y-2207218D02*
X699442Y-2321504D01*
X699442Y-2321504D02*
X823251Y-2321504D01*
X947061Y-2121504D02*
X966109Y-2121504D01*
X966109Y-2121504D02*
X985156Y-2131028D01*
X985156Y-2131028D02*
X994680Y-2140551D01*
X994680Y-2140551D02*
X1004204Y-2159599D01*
X1004204Y-2159599D02*
X1013728Y-2197694D01*
X1013728Y-2197694D02*
X1013728Y-2245313D01*
X1013728Y-2245313D02*
X1004204Y-2283409D01*
X1004204Y-2283409D02*
X994680Y-2302456D01*
X994680Y-2302456D02*
X985156Y-2311980D01*
X985156Y-2311980D02*
X966109Y-2321504D01*
X966109Y-2321504D02*
X947061Y-2321504D01*
X947061Y-2321504D02*
X928013Y-2311980D01*
X928013Y-2311980D02*
X918489Y-2302456D01*
X918489Y-2302456D02*
X908966Y-2283409D01*
X908966Y-2283409D02*
X899442Y-2245313D01*
X899442Y-2245313D02*
X899442Y-2197694D01*
X899442Y-2197694D02*
X908966Y-2159599D01*
X908966Y-2159599D02*
X918489Y-2140551D01*
X918489Y-2140551D02*
X928013Y-2131028D01*
X928013Y-2131028D02*
X947061Y-2121504D01*
X1099442Y-2321504D02*
X1099442Y-2188170D01*
X1099442Y-2207218D02*
X1108966Y-2197694D01*
X1108966Y-2197694D02*
X1128013Y-2188170D01*
X1128013Y-2188170D02*
X1156585Y-2188170D01*
X1156585Y-2188170D02*
X1175632Y-2197694D01*
X1175632Y-2197694D02*
X1185156Y-2216742D01*
X1185156Y-2216742D02*
X1185156Y-2321504D01*
X1185156Y-2216742D02*
X1194680Y-2197694D01*
X1194680Y-2197694D02*
X1213728Y-2188170D01*
X1213728Y-2188170D02*
X1242299Y-2188170D01*
X1242299Y-2188170D02*
X1261347Y-2197694D01*
X1261347Y-2197694D02*
X1270871Y-2216742D01*
X1270871Y-2216742D02*
X1270871Y-2321504D01*
X1366109Y-2321504D02*
X1366109Y-2188170D01*
X1366109Y-2207218D02*
X1375632Y-2197694D01*
X1375632Y-2197694D02*
X1394680Y-2188170D01*
X1394680Y-2188170D02*
X1423251Y-2188170D01*
X1423251Y-2188170D02*
X1442299Y-2197694D01*
X1442299Y-2197694D02*
X1451823Y-2216742D01*
X1451823Y-2216742D02*
X1451823Y-2321504D01*
X1451823Y-2216742D02*
X1461347Y-2197694D01*
X1461347Y-2197694D02*
X1480394Y-2188170D01*
X1480394Y-2188170D02*
X1508966Y-2188170D01*
X1508966Y-2188170D02*
X1528013Y-2197694D01*
X1528013Y-2197694D02*
X1537537Y-2216742D01*
X1537537Y-2216742D02*
X1537537Y-2321504D01*
X1928013Y-2111980D02*
X1756585Y-2369123D01*
X2185156Y-2121504D02*
X2204204Y-2121504D01*
X2204204Y-2121504D02*
X2223252Y-2131028D01*
X2223252Y-2131028D02*
X2232775Y-2140551D01*
X2232775Y-2140551D02*
X2242299Y-2159599D01*
X2242299Y-2159599D02*
X2251823Y-2197694D01*
X2251823Y-2197694D02*
X2251823Y-2245313D01*
X2251823Y-2245313D02*
X2242299Y-2283409D01*
X2242299Y-2283409D02*
X2232775Y-2302456D01*
X2232775Y-2302456D02*
X2223252Y-2311980D01*
X2223252Y-2311980D02*
X2204204Y-2321504D01*
X2204204Y-2321504D02*
X2185156Y-2321504D01*
X2185156Y-2321504D02*
X2166109Y-2311980D01*
X2166109Y-2311980D02*
X2156585Y-2302456D01*
X2156585Y-2302456D02*
X2147061Y-2283409D01*
X2147061Y-2283409D02*
X2137537Y-2245313D01*
X2137537Y-2245313D02*
X2137537Y-2197694D01*
X2137537Y-2197694D02*
X2147061Y-2159599D01*
X2147061Y-2159599D02*
X2156585Y-2140551D01*
X2156585Y-2140551D02*
X2166109Y-2131028D01*
X2166109Y-2131028D02*
X2185156Y-2121504D01*
X2337537Y-2302456D02*
X2347061Y-2311980D01*
X2347061Y-2311980D02*
X2337537Y-2321504D01*
X2337537Y-2321504D02*
X2328014Y-2311980D01*
X2328014Y-2311980D02*
X2337537Y-2302456D01*
X2337537Y-2302456D02*
X2337537Y-2321504D01*
X2470871Y-2121504D02*
X2489918Y-2121504D01*
X2489918Y-2121504D02*
X2508966Y-2131028D01*
X2508966Y-2131028D02*
X2518490Y-2140551D01*
X2518490Y-2140551D02*
X2528014Y-2159599D01*
X2528014Y-2159599D02*
X2537537Y-2197694D01*
X2537537Y-2197694D02*
X2537537Y-2245313D01*
X2537537Y-2245313D02*
X2528014Y-2283409D01*
X2528014Y-2283409D02*
X2518490Y-2302456D01*
X2518490Y-2302456D02*
X2508966Y-2311980D01*
X2508966Y-2311980D02*
X2489918Y-2321504D01*
X2489918Y-2321504D02*
X2470871Y-2321504D01*
X2470871Y-2321504D02*
X2451823Y-2311980D01*
X2451823Y-2311980D02*
X2442299Y-2302456D01*
X2442299Y-2302456D02*
X2432775Y-2283409D01*
X2432775Y-2283409D02*
X2423252Y-2245313D01*
X2423252Y-2245313D02*
X2423252Y-2197694D01*
X2423252Y-2197694D02*
X2432775Y-2159599D01*
X2432775Y-2159599D02*
X2442299Y-2140551D01*
X2442299Y-2140551D02*
X2451823Y-2131028D01*
X2451823Y-2131028D02*
X2470871Y-2121504D01*
X2718490Y-2121504D02*
X2623252Y-2121504D01*
X2623252Y-2121504D02*
X2613728Y-2216742D01*
X2613728Y-2216742D02*
X2623252Y-2207218D01*
X2623252Y-2207218D02*
X2642299Y-2197694D01*
X2642299Y-2197694D02*
X2689918Y-2197694D01*
X2689918Y-2197694D02*
X2708966Y-2207218D01*
X2708966Y-2207218D02*
X2718490Y-2216742D01*
X2718490Y-2216742D02*
X2728014Y-2235790D01*
X2728014Y-2235790D02*
X2728014Y-2283409D01*
X2728014Y-2283409D02*
X2718490Y-2302456D01*
X2718490Y-2302456D02*
X2708966Y-2311980D01*
X2708966Y-2311980D02*
X2689918Y-2321504D01*
X2689918Y-2321504D02*
X2642299Y-2321504D01*
X2642299Y-2321504D02*
X2623252Y-2311980D01*
X2623252Y-2311980D02*
X2613728Y-2302456D01*
X2804204Y-2140551D02*
X2813728Y-2131028D01*
X2813728Y-2131028D02*
X2832775Y-2121504D01*
X2832775Y-2121504D02*
X2880394Y-2121504D01*
X2880394Y-2121504D02*
X2899442Y-2131028D01*
X2899442Y-2131028D02*
X2908966Y-2140551D01*
X2908966Y-2140551D02*
X2918490Y-2159599D01*
X2918490Y-2159599D02*
X2918490Y-2178647D01*
X2918490Y-2178647D02*
X2908966Y-2207218D01*
X2908966Y-2207218D02*
X2794680Y-2321504D01*
X2794680Y-2321504D02*
X2918490Y-2321504D01*
X3042299Y-2121504D02*
X3061347Y-2121504D01*
X3061347Y-2121504D02*
X3080394Y-2131028D01*
X3080394Y-2131028D02*
X3089918Y-2140551D01*
X3089918Y-2140551D02*
X3099442Y-2159599D01*
X3099442Y-2159599D02*
X3108966Y-2197694D01*
X3108966Y-2197694D02*
X3108966Y-2245313D01*
X3108966Y-2245313D02*
X3099442Y-2283409D01*
X3099442Y-2283409D02*
X3089918Y-2302456D01*
X3089918Y-2302456D02*
X3080394Y-2311980D01*
X3080394Y-2311980D02*
X3061347Y-2321504D01*
X3061347Y-2321504D02*
X3042299Y-2321504D01*
X3042299Y-2321504D02*
X3023252Y-2311980D01*
X3023252Y-2311980D02*
X3013728Y-2302456D01*
X3013728Y-2302456D02*
X3004204Y-2283409D01*
X3004204Y-2283409D02*
X2994680Y-2245313D01*
X2994680Y-2245313D02*
X2994680Y-2197694D01*
X2994680Y-2197694D02*
X3004204Y-2159599D01*
X3004204Y-2159599D02*
X3013728Y-2140551D01*
X3013728Y-2140551D02*
X3023252Y-2131028D01*
X3023252Y-2131028D02*
X3042299Y-2121504D01*
X3185156Y-2121504D02*
X3185156Y-2159599D01*
X3261347Y-2121504D02*
X3261347Y-2159599D01*
X3556585Y-2397694D02*
X3547061Y-2388170D01*
X3547061Y-2388170D02*
X3528014Y-2359599D01*
X3528014Y-2359599D02*
X3518490Y-2340551D01*
X3518490Y-2340551D02*
X3508966Y-2311980D01*
X3508966Y-2311980D02*
X3499442Y-2264361D01*
X3499442Y-2264361D02*
X3499442Y-2226266D01*
X3499442Y-2226266D02*
X3508966Y-2178647D01*
X3508966Y-2178647D02*
X3518490Y-2150075D01*
X3518490Y-2150075D02*
X3528014Y-2131028D01*
X3528014Y-2131028D02*
X3547061Y-2102456D01*
X3547061Y-2102456D02*
X3556585Y-2092932D01*
X3623252Y-2140551D02*
X3632775Y-2131028D01*
X3632775Y-2131028D02*
X3651823Y-2121504D01*
X3651823Y-2121504D02*
X3699442Y-2121504D01*
X3699442Y-2121504D02*
X3718490Y-2131028D01*
X3718490Y-2131028D02*
X3728014Y-2140551D01*
X3728014Y-2140551D02*
X3737537Y-2159599D01*
X3737537Y-2159599D02*
X3737537Y-2178647D01*
X3737537Y-2178647D02*
X3728014Y-2207218D01*
X3728014Y-2207218D02*
X3613728Y-2321504D01*
X3613728Y-2321504D02*
X3737537Y-2321504D01*
X3975633Y-2321504D02*
X3975633Y-2121504D01*
X4061347Y-2321504D02*
X4061347Y-2216742D01*
X4061347Y-2216742D02*
X4051823Y-2197694D01*
X4051823Y-2197694D02*
X4032776Y-2188170D01*
X4032776Y-2188170D02*
X4004204Y-2188170D01*
X4004204Y-2188170D02*
X3985156Y-2197694D01*
X3985156Y-2197694D02*
X3975633Y-2207218D01*
X4185156Y-2321504D02*
X4166109Y-2311980D01*
X4166109Y-2311980D02*
X4156585Y-2302456D01*
X4156585Y-2302456D02*
X4147061Y-2283409D01*
X4147061Y-2283409D02*
X4147061Y-2226266D01*
X4147061Y-2226266D02*
X4156585Y-2207218D01*
X4156585Y-2207218D02*
X4166109Y-2197694D01*
X4166109Y-2197694D02*
X4185156Y-2188170D01*
X4185156Y-2188170D02*
X4213728Y-2188170D01*
X4213728Y-2188170D02*
X4232776Y-2197694D01*
X4232776Y-2197694D02*
X4242299Y-2207218D01*
X4242299Y-2207218D02*
X4251823Y-2226266D01*
X4251823Y-2226266D02*
X4251823Y-2283409D01*
X4251823Y-2283409D02*
X4242299Y-2302456D01*
X4242299Y-2302456D02*
X4232776Y-2311980D01*
X4232776Y-2311980D02*
X4213728Y-2321504D01*
X4213728Y-2321504D02*
X4185156Y-2321504D01*
X4366109Y-2321504D02*
X4347061Y-2311980D01*
X4347061Y-2311980D02*
X4337538Y-2292932D01*
X4337538Y-2292932D02*
X4337538Y-2121504D01*
X4518490Y-2311980D02*
X4499442Y-2321504D01*
X4499442Y-2321504D02*
X4461347Y-2321504D01*
X4461347Y-2321504D02*
X4442299Y-2311980D01*
X4442299Y-2311980D02*
X4432776Y-2292932D01*
X4432776Y-2292932D02*
X4432776Y-2216742D01*
X4432776Y-2216742D02*
X4442299Y-2197694D01*
X4442299Y-2197694D02*
X4461347Y-2188170D01*
X4461347Y-2188170D02*
X4499442Y-2188170D01*
X4499442Y-2188170D02*
X4518490Y-2197694D01*
X4518490Y-2197694D02*
X4528014Y-2216742D01*
X4528014Y-2216742D02*
X4528014Y-2235790D01*
X4528014Y-2235790D02*
X4432776Y-2254837D01*
X4604204Y-2311980D02*
X4623252Y-2321504D01*
X4623252Y-2321504D02*
X4661347Y-2321504D01*
X4661347Y-2321504D02*
X4680395Y-2311980D01*
X4680395Y-2311980D02*
X4689919Y-2292932D01*
X4689919Y-2292932D02*
X4689919Y-2283409D01*
X4689919Y-2283409D02*
X4680395Y-2264361D01*
X4680395Y-2264361D02*
X4661347Y-2254837D01*
X4661347Y-2254837D02*
X4632776Y-2254837D01*
X4632776Y-2254837D02*
X4613728Y-2245313D01*
X4613728Y-2245313D02*
X4604204Y-2226266D01*
X4604204Y-2226266D02*
X4604204Y-2216742D01*
X4604204Y-2216742D02*
X4613728Y-2197694D01*
X4613728Y-2197694D02*
X4632776Y-2188170D01*
X4632776Y-2188170D02*
X4661347Y-2188170D01*
X4661347Y-2188170D02*
X4680395Y-2197694D01*
X4756585Y-2397694D02*
X4766109Y-2388170D01*
X4766109Y-2388170D02*
X4785157Y-2359599D01*
X4785157Y-2359599D02*
X4794680Y-2340551D01*
X4794680Y-2340551D02*
X4804204Y-2311980D01*
X4804204Y-2311980D02*
X4813728Y-2264361D01*
X4813728Y-2264361D02*
X4813728Y-2226266D01*
X4813728Y-2226266D02*
X4804204Y-2178647D01*
X4804204Y-2178647D02*
X4794680Y-2150075D01*
X4794680Y-2150075D02*
X4785157Y-2131028D01*
X4785157Y-2131028D02*
X4766109Y-2102456D01*
X4766109Y-2102456D02*
X4756585Y-2092932D01*
X-205320Y-2392980D02*
X-5320Y-2592980D01*
X-5320Y-2392980D02*
X-205320Y-2592980D01*
X-34609Y-2563691D02*
X-34609Y-2422269D01*
X-176031Y-2422269D01*
X-176031Y-2563691D01*
X-34609Y-2563691D01*
X232775Y-2404551D02*
X242299Y-2395028D01*
X242299Y-2395028D02*
X261347Y-2385504D01*
X261347Y-2385504D02*
X308966Y-2385504D01*
X308966Y-2385504D02*
X328013Y-2395028D01*
X328013Y-2395028D02*
X337537Y-2404551D01*
X337537Y-2404551D02*
X347061Y-2423599D01*
X347061Y-2423599D02*
X347061Y-2442647D01*
X347061Y-2442647D02*
X337537Y-2471218D01*
X337537Y-2471218D02*
X223251Y-2585504D01*
X223251Y-2585504D02*
X347061Y-2585504D01*
X432775Y-2566456D02*
X442299Y-2575980D01*
X442299Y-2575980D02*
X432775Y-2585504D01*
X432775Y-2585504D02*
X423251Y-2575980D01*
X423251Y-2575980D02*
X432775Y-2566456D01*
X432775Y-2566456D02*
X432775Y-2585504D01*
X508966Y-2385504D02*
X632775Y-2385504D01*
X632775Y-2385504D02*
X566109Y-2461694D01*
X566109Y-2461694D02*
X594680Y-2461694D01*
X594680Y-2461694D02*
X613728Y-2471218D01*
X613728Y-2471218D02*
X623251Y-2480742D01*
X623251Y-2480742D02*
X632775Y-2499790D01*
X632775Y-2499790D02*
X632775Y-2547409D01*
X632775Y-2547409D02*
X623251Y-2566456D01*
X623251Y-2566456D02*
X613728Y-2575980D01*
X613728Y-2575980D02*
X594680Y-2585504D01*
X594680Y-2585504D02*
X537537Y-2585504D01*
X537537Y-2585504D02*
X518489Y-2575980D01*
X518489Y-2575980D02*
X508966Y-2566456D01*
X728013Y-2585504D02*
X766108Y-2585504D01*
X766108Y-2585504D02*
X785156Y-2575980D01*
X785156Y-2575980D02*
X794680Y-2566456D01*
X794680Y-2566456D02*
X813728Y-2537885D01*
X813728Y-2537885D02*
X823251Y-2499790D01*
X823251Y-2499790D02*
X823251Y-2423599D01*
X823251Y-2423599D02*
X813728Y-2404551D01*
X813728Y-2404551D02*
X804204Y-2395028D01*
X804204Y-2395028D02*
X785156Y-2385504D01*
X785156Y-2385504D02*
X747061Y-2385504D01*
X747061Y-2385504D02*
X728013Y-2395028D01*
X728013Y-2395028D02*
X718489Y-2404551D01*
X718489Y-2404551D02*
X708966Y-2423599D01*
X708966Y-2423599D02*
X708966Y-2471218D01*
X708966Y-2471218D02*
X718489Y-2490266D01*
X718489Y-2490266D02*
X728013Y-2499790D01*
X728013Y-2499790D02*
X747061Y-2509313D01*
X747061Y-2509313D02*
X785156Y-2509313D01*
X785156Y-2509313D02*
X804204Y-2499790D01*
X804204Y-2499790D02*
X813728Y-2490266D01*
X813728Y-2490266D02*
X823251Y-2471218D01*
X947061Y-2385504D02*
X966109Y-2385504D01*
X966109Y-2385504D02*
X985156Y-2395028D01*
X985156Y-2395028D02*
X994680Y-2404551D01*
X994680Y-2404551D02*
X1004204Y-2423599D01*
X1004204Y-2423599D02*
X1013728Y-2461694D01*
X1013728Y-2461694D02*
X1013728Y-2509313D01*
X1013728Y-2509313D02*
X1004204Y-2547409D01*
X1004204Y-2547409D02*
X994680Y-2566456D01*
X994680Y-2566456D02*
X985156Y-2575980D01*
X985156Y-2575980D02*
X966109Y-2585504D01*
X966109Y-2585504D02*
X947061Y-2585504D01*
X947061Y-2585504D02*
X928013Y-2575980D01*
X928013Y-2575980D02*
X918489Y-2566456D01*
X918489Y-2566456D02*
X908966Y-2547409D01*
X908966Y-2547409D02*
X899442Y-2509313D01*
X899442Y-2509313D02*
X899442Y-2461694D01*
X899442Y-2461694D02*
X908966Y-2423599D01*
X908966Y-2423599D02*
X918489Y-2404551D01*
X918489Y-2404551D02*
X928013Y-2395028D01*
X928013Y-2395028D02*
X947061Y-2385504D01*
X1099442Y-2585504D02*
X1099442Y-2452170D01*
X1099442Y-2471218D02*
X1108966Y-2461694D01*
X1108966Y-2461694D02*
X1128013Y-2452170D01*
X1128013Y-2452170D02*
X1156585Y-2452170D01*
X1156585Y-2452170D02*
X1175632Y-2461694D01*
X1175632Y-2461694D02*
X1185156Y-2480742D01*
X1185156Y-2480742D02*
X1185156Y-2585504D01*
X1185156Y-2480742D02*
X1194680Y-2461694D01*
X1194680Y-2461694D02*
X1213728Y-2452170D01*
X1213728Y-2452170D02*
X1242299Y-2452170D01*
X1242299Y-2452170D02*
X1261347Y-2461694D01*
X1261347Y-2461694D02*
X1270871Y-2480742D01*
X1270871Y-2480742D02*
X1270871Y-2585504D01*
X1366109Y-2585504D02*
X1366109Y-2452170D01*
X1366109Y-2471218D02*
X1375632Y-2461694D01*
X1375632Y-2461694D02*
X1394680Y-2452170D01*
X1394680Y-2452170D02*
X1423251Y-2452170D01*
X1423251Y-2452170D02*
X1442299Y-2461694D01*
X1442299Y-2461694D02*
X1451823Y-2480742D01*
X1451823Y-2480742D02*
X1451823Y-2585504D01*
X1451823Y-2480742D02*
X1461347Y-2461694D01*
X1461347Y-2461694D02*
X1480394Y-2452170D01*
X1480394Y-2452170D02*
X1508966Y-2452170D01*
X1508966Y-2452170D02*
X1528013Y-2461694D01*
X1528013Y-2461694D02*
X1537537Y-2480742D01*
X1537537Y-2480742D02*
X1537537Y-2585504D01*
X1928013Y-2375980D02*
X1756585Y-2633123D01*
X2185156Y-2385504D02*
X2204204Y-2385504D01*
X2204204Y-2385504D02*
X2223252Y-2395028D01*
X2223252Y-2395028D02*
X2232775Y-2404551D01*
X2232775Y-2404551D02*
X2242299Y-2423599D01*
X2242299Y-2423599D02*
X2251823Y-2461694D01*
X2251823Y-2461694D02*
X2251823Y-2509313D01*
X2251823Y-2509313D02*
X2242299Y-2547409D01*
X2242299Y-2547409D02*
X2232775Y-2566456D01*
X2232775Y-2566456D02*
X2223252Y-2575980D01*
X2223252Y-2575980D02*
X2204204Y-2585504D01*
X2204204Y-2585504D02*
X2185156Y-2585504D01*
X2185156Y-2585504D02*
X2166109Y-2575980D01*
X2166109Y-2575980D02*
X2156585Y-2566456D01*
X2156585Y-2566456D02*
X2147061Y-2547409D01*
X2147061Y-2547409D02*
X2137537Y-2509313D01*
X2137537Y-2509313D02*
X2137537Y-2461694D01*
X2137537Y-2461694D02*
X2147061Y-2423599D01*
X2147061Y-2423599D02*
X2156585Y-2404551D01*
X2156585Y-2404551D02*
X2166109Y-2395028D01*
X2166109Y-2395028D02*
X2185156Y-2385504D01*
X2337537Y-2566456D02*
X2347061Y-2575980D01*
X2347061Y-2575980D02*
X2337537Y-2585504D01*
X2337537Y-2585504D02*
X2328014Y-2575980D01*
X2328014Y-2575980D02*
X2337537Y-2566456D01*
X2337537Y-2566456D02*
X2337537Y-2585504D01*
X2470871Y-2385504D02*
X2489918Y-2385504D01*
X2489918Y-2385504D02*
X2508966Y-2395028D01*
X2508966Y-2395028D02*
X2518490Y-2404551D01*
X2518490Y-2404551D02*
X2528014Y-2423599D01*
X2528014Y-2423599D02*
X2537537Y-2461694D01*
X2537537Y-2461694D02*
X2537537Y-2509313D01*
X2537537Y-2509313D02*
X2528014Y-2547409D01*
X2528014Y-2547409D02*
X2518490Y-2566456D01*
X2518490Y-2566456D02*
X2508966Y-2575980D01*
X2508966Y-2575980D02*
X2489918Y-2585504D01*
X2489918Y-2585504D02*
X2470871Y-2585504D01*
X2470871Y-2585504D02*
X2451823Y-2575980D01*
X2451823Y-2575980D02*
X2442299Y-2566456D01*
X2442299Y-2566456D02*
X2432775Y-2547409D01*
X2432775Y-2547409D02*
X2423252Y-2509313D01*
X2423252Y-2509313D02*
X2423252Y-2461694D01*
X2423252Y-2461694D02*
X2432775Y-2423599D01*
X2432775Y-2423599D02*
X2442299Y-2404551D01*
X2442299Y-2404551D02*
X2451823Y-2395028D01*
X2451823Y-2395028D02*
X2470871Y-2385504D01*
X2632775Y-2585504D02*
X2670871Y-2585504D01*
X2670871Y-2585504D02*
X2689918Y-2575980D01*
X2689918Y-2575980D02*
X2699442Y-2566456D01*
X2699442Y-2566456D02*
X2718490Y-2537885D01*
X2718490Y-2537885D02*
X2728014Y-2499790D01*
X2728014Y-2499790D02*
X2728014Y-2423599D01*
X2728014Y-2423599D02*
X2718490Y-2404551D01*
X2718490Y-2404551D02*
X2708966Y-2395028D01*
X2708966Y-2395028D02*
X2689918Y-2385504D01*
X2689918Y-2385504D02*
X2651823Y-2385504D01*
X2651823Y-2385504D02*
X2632775Y-2395028D01*
X2632775Y-2395028D02*
X2623252Y-2404551D01*
X2623252Y-2404551D02*
X2613728Y-2423599D01*
X2613728Y-2423599D02*
X2613728Y-2471218D01*
X2613728Y-2471218D02*
X2623252Y-2490266D01*
X2623252Y-2490266D02*
X2632775Y-2499790D01*
X2632775Y-2499790D02*
X2651823Y-2509313D01*
X2651823Y-2509313D02*
X2689918Y-2509313D01*
X2689918Y-2509313D02*
X2708966Y-2499790D01*
X2708966Y-2499790D02*
X2718490Y-2490266D01*
X2718490Y-2490266D02*
X2728014Y-2471218D01*
X2899442Y-2452170D02*
X2899442Y-2585504D01*
X2851823Y-2375980D02*
X2804204Y-2518837D01*
X2804204Y-2518837D02*
X2928013Y-2518837D01*
X3108966Y-2585504D02*
X2994680Y-2585504D01*
X3051823Y-2585504D02*
X3051823Y-2385504D01*
X3051823Y-2385504D02*
X3032775Y-2414075D01*
X3032775Y-2414075D02*
X3013728Y-2433123D01*
X3013728Y-2433123D02*
X2994680Y-2442647D01*
X3185156Y-2385504D02*
X3185156Y-2423599D01*
X3261347Y-2385504D02*
X3261347Y-2423599D01*
X3556585Y-2661694D02*
X3547061Y-2652170D01*
X3547061Y-2652170D02*
X3528014Y-2623599D01*
X3528014Y-2623599D02*
X3518490Y-2604551D01*
X3518490Y-2604551D02*
X3508966Y-2575980D01*
X3508966Y-2575980D02*
X3499442Y-2528361D01*
X3499442Y-2528361D02*
X3499442Y-2490266D01*
X3499442Y-2490266D02*
X3508966Y-2442647D01*
X3508966Y-2442647D02*
X3518490Y-2414075D01*
X3518490Y-2414075D02*
X3528014Y-2395028D01*
X3528014Y-2395028D02*
X3547061Y-2366456D01*
X3547061Y-2366456D02*
X3556585Y-2356932D01*
X3737537Y-2585504D02*
X3623252Y-2585504D01*
X3680394Y-2585504D02*
X3680394Y-2385504D01*
X3680394Y-2385504D02*
X3661347Y-2414075D01*
X3661347Y-2414075D02*
X3642299Y-2433123D01*
X3642299Y-2433123D02*
X3623252Y-2442647D01*
X3975633Y-2585504D02*
X3975633Y-2385504D01*
X4061347Y-2585504D02*
X4061347Y-2480742D01*
X4061347Y-2480742D02*
X4051823Y-2461694D01*
X4051823Y-2461694D02*
X4032776Y-2452170D01*
X4032776Y-2452170D02*
X4004204Y-2452170D01*
X4004204Y-2452170D02*
X3985156Y-2461694D01*
X3985156Y-2461694D02*
X3975633Y-2471218D01*
X4185156Y-2585504D02*
X4166109Y-2575980D01*
X4166109Y-2575980D02*
X4156585Y-2566456D01*
X4156585Y-2566456D02*
X4147061Y-2547409D01*
X4147061Y-2547409D02*
X4147061Y-2490266D01*
X4147061Y-2490266D02*
X4156585Y-2471218D01*
X4156585Y-2471218D02*
X4166109Y-2461694D01*
X4166109Y-2461694D02*
X4185156Y-2452170D01*
X4185156Y-2452170D02*
X4213728Y-2452170D01*
X4213728Y-2452170D02*
X4232776Y-2461694D01*
X4232776Y-2461694D02*
X4242299Y-2471218D01*
X4242299Y-2471218D02*
X4251823Y-2490266D01*
X4251823Y-2490266D02*
X4251823Y-2547409D01*
X4251823Y-2547409D02*
X4242299Y-2566456D01*
X4242299Y-2566456D02*
X4232776Y-2575980D01*
X4232776Y-2575980D02*
X4213728Y-2585504D01*
X4213728Y-2585504D02*
X4185156Y-2585504D01*
X4366109Y-2585504D02*
X4347061Y-2575980D01*
X4347061Y-2575980D02*
X4337538Y-2556932D01*
X4337538Y-2556932D02*
X4337538Y-2385504D01*
X4518490Y-2575980D02*
X4499442Y-2585504D01*
X4499442Y-2585504D02*
X4461347Y-2585504D01*
X4461347Y-2585504D02*
X4442299Y-2575980D01*
X4442299Y-2575980D02*
X4432776Y-2556932D01*
X4432776Y-2556932D02*
X4432776Y-2480742D01*
X4432776Y-2480742D02*
X4442299Y-2461694D01*
X4442299Y-2461694D02*
X4461347Y-2452170D01*
X4461347Y-2452170D02*
X4499442Y-2452170D01*
X4499442Y-2452170D02*
X4518490Y-2461694D01*
X4518490Y-2461694D02*
X4528014Y-2480742D01*
X4528014Y-2480742D02*
X4528014Y-2499790D01*
X4528014Y-2499790D02*
X4432776Y-2518837D01*
X4594680Y-2661694D02*
X4604204Y-2652170D01*
X4604204Y-2652170D02*
X4623252Y-2623599D01*
X4623252Y-2623599D02*
X4632776Y-2604551D01*
X4632776Y-2604551D02*
X4642299Y-2575980D01*
X4642299Y-2575980D02*
X4651823Y-2528361D01*
X4651823Y-2528361D02*
X4651823Y-2490266D01*
X4651823Y-2490266D02*
X4642299Y-2442647D01*
X4642299Y-2442647D02*
X4632776Y-2414075D01*
X4632776Y-2414075D02*
X4623252Y-2395028D01*
X4623252Y-2395028D02*
X4604204Y-2366456D01*
X4604204Y-2366456D02*
X4594680Y-2356932D01*
X-205320Y-2712980D02*
X-5320Y-2912980D01*
X-5320Y-2712980D02*
X-205320Y-2912980D01*
X-105320Y-2912980D02*
X-5320Y-2812980D01*
X-105320Y-2712980D01*
X-205320Y-2812980D01*
X-105320Y-2912980D01*
X223251Y-2705504D02*
X347061Y-2705504D01*
X347061Y-2705504D02*
X280394Y-2781694D01*
X280394Y-2781694D02*
X308966Y-2781694D01*
X308966Y-2781694D02*
X328013Y-2791218D01*
X328013Y-2791218D02*
X337537Y-2800742D01*
X337537Y-2800742D02*
X347061Y-2819789D01*
X347061Y-2819789D02*
X347061Y-2867408D01*
X347061Y-2867408D02*
X337537Y-2886456D01*
X337537Y-2886456D02*
X328013Y-2895980D01*
X328013Y-2895980D02*
X308966Y-2905504D01*
X308966Y-2905504D02*
X251823Y-2905504D01*
X251823Y-2905504D02*
X232775Y-2895980D01*
X232775Y-2895980D02*
X223251Y-2886456D01*
X432775Y-2886456D02*
X442299Y-2895980D01*
X442299Y-2895980D02*
X432775Y-2905504D01*
X432775Y-2905504D02*
X423251Y-2895980D01*
X423251Y-2895980D02*
X432775Y-2886456D01*
X432775Y-2886456D02*
X432775Y-2905504D01*
X623251Y-2705504D02*
X528013Y-2705504D01*
X528013Y-2705504D02*
X518489Y-2800742D01*
X518489Y-2800742D02*
X528013Y-2791218D01*
X528013Y-2791218D02*
X547061Y-2781694D01*
X547061Y-2781694D02*
X594680Y-2781694D01*
X594680Y-2781694D02*
X613728Y-2791218D01*
X613728Y-2791218D02*
X623251Y-2800742D01*
X623251Y-2800742D02*
X632775Y-2819789D01*
X632775Y-2819789D02*
X632775Y-2867408D01*
X632775Y-2867408D02*
X623251Y-2886456D01*
X623251Y-2886456D02*
X613728Y-2895980D01*
X613728Y-2895980D02*
X594680Y-2905504D01*
X594680Y-2905504D02*
X547061Y-2905504D01*
X547061Y-2905504D02*
X528013Y-2895980D01*
X528013Y-2895980D02*
X518489Y-2886456D01*
X813728Y-2705504D02*
X718489Y-2705504D01*
X718489Y-2705504D02*
X708966Y-2800742D01*
X708966Y-2800742D02*
X718489Y-2791218D01*
X718489Y-2791218D02*
X737537Y-2781694D01*
X737537Y-2781694D02*
X785156Y-2781694D01*
X785156Y-2781694D02*
X804204Y-2791218D01*
X804204Y-2791218D02*
X813728Y-2800742D01*
X813728Y-2800742D02*
X823251Y-2819789D01*
X823251Y-2819789D02*
X823251Y-2867408D01*
X823251Y-2867408D02*
X813728Y-2886456D01*
X813728Y-2886456D02*
X804204Y-2895980D01*
X804204Y-2895980D02*
X785156Y-2905504D01*
X785156Y-2905504D02*
X737537Y-2905504D01*
X737537Y-2905504D02*
X718489Y-2895980D01*
X718489Y-2895980D02*
X708966Y-2886456D01*
X947061Y-2705504D02*
X966109Y-2705504D01*
X966109Y-2705504D02*
X985156Y-2715028D01*
X985156Y-2715028D02*
X994680Y-2724551D01*
X994680Y-2724551D02*
X1004204Y-2743599D01*
X1004204Y-2743599D02*
X1013728Y-2781694D01*
X1013728Y-2781694D02*
X1013728Y-2829313D01*
X1013728Y-2829313D02*
X1004204Y-2867408D01*
X1004204Y-2867408D02*
X994680Y-2886456D01*
X994680Y-2886456D02*
X985156Y-2895980D01*
X985156Y-2895980D02*
X966109Y-2905504D01*
X966109Y-2905504D02*
X947061Y-2905504D01*
X947061Y-2905504D02*
X928013Y-2895980D01*
X928013Y-2895980D02*
X918489Y-2886456D01*
X918489Y-2886456D02*
X908966Y-2867408D01*
X908966Y-2867408D02*
X899442Y-2829313D01*
X899442Y-2829313D02*
X899442Y-2781694D01*
X899442Y-2781694D02*
X908966Y-2743599D01*
X908966Y-2743599D02*
X918489Y-2724551D01*
X918489Y-2724551D02*
X928013Y-2715028D01*
X928013Y-2715028D02*
X947061Y-2705504D01*
X1099442Y-2905504D02*
X1099442Y-2772170D01*
X1099442Y-2791218D02*
X1108966Y-2781694D01*
X1108966Y-2781694D02*
X1128013Y-2772170D01*
X1128013Y-2772170D02*
X1156585Y-2772170D01*
X1156585Y-2772170D02*
X1175632Y-2781694D01*
X1175632Y-2781694D02*
X1185156Y-2800742D01*
X1185156Y-2800742D02*
X1185156Y-2905504D01*
X1185156Y-2800742D02*
X1194680Y-2781694D01*
X1194680Y-2781694D02*
X1213728Y-2772170D01*
X1213728Y-2772170D02*
X1242299Y-2772170D01*
X1242299Y-2772170D02*
X1261347Y-2781694D01*
X1261347Y-2781694D02*
X1270871Y-2800742D01*
X1270871Y-2800742D02*
X1270871Y-2905504D01*
X1366109Y-2905504D02*
X1366109Y-2772170D01*
X1366109Y-2791218D02*
X1375632Y-2781694D01*
X1375632Y-2781694D02*
X1394680Y-2772170D01*
X1394680Y-2772170D02*
X1423251Y-2772170D01*
X1423251Y-2772170D02*
X1442299Y-2781694D01*
X1442299Y-2781694D02*
X1451823Y-2800742D01*
X1451823Y-2800742D02*
X1451823Y-2905504D01*
X1451823Y-2800742D02*
X1461347Y-2781694D01*
X1461347Y-2781694D02*
X1480394Y-2772170D01*
X1480394Y-2772170D02*
X1508966Y-2772170D01*
X1508966Y-2772170D02*
X1528013Y-2781694D01*
X1528013Y-2781694D02*
X1537537Y-2800742D01*
X1537537Y-2800742D02*
X1537537Y-2905504D01*
X1928013Y-2695980D02*
X1756585Y-2953123D01*
X2185156Y-2705504D02*
X2204204Y-2705504D01*
X2204204Y-2705504D02*
X2223252Y-2715028D01*
X2223252Y-2715028D02*
X2232775Y-2724551D01*
X2232775Y-2724551D02*
X2242299Y-2743599D01*
X2242299Y-2743599D02*
X2251823Y-2781694D01*
X2251823Y-2781694D02*
X2251823Y-2829313D01*
X2251823Y-2829313D02*
X2242299Y-2867408D01*
X2242299Y-2867408D02*
X2232775Y-2886456D01*
X2232775Y-2886456D02*
X2223252Y-2895980D01*
X2223252Y-2895980D02*
X2204204Y-2905504D01*
X2204204Y-2905504D02*
X2185156Y-2905504D01*
X2185156Y-2905504D02*
X2166109Y-2895980D01*
X2166109Y-2895980D02*
X2156585Y-2886456D01*
X2156585Y-2886456D02*
X2147061Y-2867408D01*
X2147061Y-2867408D02*
X2137537Y-2829313D01*
X2137537Y-2829313D02*
X2137537Y-2781694D01*
X2137537Y-2781694D02*
X2147061Y-2743599D01*
X2147061Y-2743599D02*
X2156585Y-2724551D01*
X2156585Y-2724551D02*
X2166109Y-2715028D01*
X2166109Y-2715028D02*
X2185156Y-2705504D01*
X2337537Y-2886456D02*
X2347061Y-2895980D01*
X2347061Y-2895980D02*
X2337537Y-2905504D01*
X2337537Y-2905504D02*
X2328014Y-2895980D01*
X2328014Y-2895980D02*
X2337537Y-2886456D01*
X2337537Y-2886456D02*
X2337537Y-2905504D01*
X2537537Y-2905504D02*
X2423252Y-2905504D01*
X2480394Y-2905504D02*
X2480394Y-2705504D01*
X2480394Y-2705504D02*
X2461347Y-2734075D01*
X2461347Y-2734075D02*
X2442299Y-2753123D01*
X2442299Y-2753123D02*
X2423252Y-2762647D01*
X2604204Y-2705504D02*
X2728014Y-2705504D01*
X2728014Y-2705504D02*
X2661347Y-2781694D01*
X2661347Y-2781694D02*
X2689918Y-2781694D01*
X2689918Y-2781694D02*
X2708966Y-2791218D01*
X2708966Y-2791218D02*
X2718490Y-2800742D01*
X2718490Y-2800742D02*
X2728014Y-2819789D01*
X2728014Y-2819789D02*
X2728014Y-2867408D01*
X2728014Y-2867408D02*
X2718490Y-2886456D01*
X2718490Y-2886456D02*
X2708966Y-2895980D01*
X2708966Y-2895980D02*
X2689918Y-2905504D01*
X2689918Y-2905504D02*
X2632775Y-2905504D01*
X2632775Y-2905504D02*
X2613728Y-2895980D01*
X2613728Y-2895980D02*
X2604204Y-2886456D01*
X2823252Y-2905504D02*
X2861347Y-2905504D01*
X2861347Y-2905504D02*
X2880394Y-2895980D01*
X2880394Y-2895980D02*
X2889918Y-2886456D01*
X2889918Y-2886456D02*
X2908966Y-2857885D01*
X2908966Y-2857885D02*
X2918490Y-2819789D01*
X2918490Y-2819789D02*
X2918490Y-2743599D01*
X2918490Y-2743599D02*
X2908966Y-2724551D01*
X2908966Y-2724551D02*
X2899442Y-2715028D01*
X2899442Y-2715028D02*
X2880394Y-2705504D01*
X2880394Y-2705504D02*
X2842299Y-2705504D01*
X2842299Y-2705504D02*
X2823252Y-2715028D01*
X2823252Y-2715028D02*
X2813728Y-2724551D01*
X2813728Y-2724551D02*
X2804204Y-2743599D01*
X2804204Y-2743599D02*
X2804204Y-2791218D01*
X2804204Y-2791218D02*
X2813728Y-2810266D01*
X2813728Y-2810266D02*
X2823252Y-2819789D01*
X2823252Y-2819789D02*
X2842299Y-2829313D01*
X2842299Y-2829313D02*
X2880394Y-2829313D01*
X2880394Y-2829313D02*
X2899442Y-2819789D01*
X2899442Y-2819789D02*
X2908966Y-2810266D01*
X2908966Y-2810266D02*
X2918490Y-2791218D01*
X3032775Y-2791218D02*
X3013728Y-2781694D01*
X3013728Y-2781694D02*
X3004204Y-2772170D01*
X3004204Y-2772170D02*
X2994680Y-2753123D01*
X2994680Y-2753123D02*
X2994680Y-2743599D01*
X2994680Y-2743599D02*
X3004204Y-2724551D01*
X3004204Y-2724551D02*
X3013728Y-2715028D01*
X3013728Y-2715028D02*
X3032775Y-2705504D01*
X3032775Y-2705504D02*
X3070871Y-2705504D01*
X3070871Y-2705504D02*
X3089918Y-2715028D01*
X3089918Y-2715028D02*
X3099442Y-2724551D01*
X3099442Y-2724551D02*
X3108966Y-2743599D01*
X3108966Y-2743599D02*
X3108966Y-2753123D01*
X3108966Y-2753123D02*
X3099442Y-2772170D01*
X3099442Y-2772170D02*
X3089918Y-2781694D01*
X3089918Y-2781694D02*
X3070871Y-2791218D01*
X3070871Y-2791218D02*
X3032775Y-2791218D01*
X3032775Y-2791218D02*
X3013728Y-2800742D01*
X3013728Y-2800742D02*
X3004204Y-2810266D01*
X3004204Y-2810266D02*
X2994680Y-2829313D01*
X2994680Y-2829313D02*
X2994680Y-2867408D01*
X2994680Y-2867408D02*
X3004204Y-2886456D01*
X3004204Y-2886456D02*
X3013728Y-2895980D01*
X3013728Y-2895980D02*
X3032775Y-2905504D01*
X3032775Y-2905504D02*
X3070871Y-2905504D01*
X3070871Y-2905504D02*
X3089918Y-2895980D01*
X3089918Y-2895980D02*
X3099442Y-2886456D01*
X3099442Y-2886456D02*
X3108966Y-2867408D01*
X3108966Y-2867408D02*
X3108966Y-2829313D01*
X3108966Y-2829313D02*
X3099442Y-2810266D01*
X3099442Y-2810266D02*
X3089918Y-2800742D01*
X3089918Y-2800742D02*
X3070871Y-2791218D01*
X3185156Y-2705504D02*
X3185156Y-2743599D01*
X3261347Y-2705504D02*
X3261347Y-2743599D01*
X3556585Y-2981694D02*
X3547061Y-2972170D01*
X3547061Y-2972170D02*
X3528014Y-2943599D01*
X3528014Y-2943599D02*
X3518490Y-2924551D01*
X3518490Y-2924551D02*
X3508966Y-2895980D01*
X3508966Y-2895980D02*
X3499442Y-2848361D01*
X3499442Y-2848361D02*
X3499442Y-2810266D01*
X3499442Y-2810266D02*
X3508966Y-2762647D01*
X3508966Y-2762647D02*
X3518490Y-2734075D01*
X3518490Y-2734075D02*
X3528014Y-2715028D01*
X3528014Y-2715028D02*
X3547061Y-2686456D01*
X3547061Y-2686456D02*
X3556585Y-2676932D01*
X3623252Y-2724551D02*
X3632775Y-2715028D01*
X3632775Y-2715028D02*
X3651823Y-2705504D01*
X3651823Y-2705504D02*
X3699442Y-2705504D01*
X3699442Y-2705504D02*
X3718490Y-2715028D01*
X3718490Y-2715028D02*
X3728014Y-2724551D01*
X3728014Y-2724551D02*
X3737537Y-2743599D01*
X3737537Y-2743599D02*
X3737537Y-2762647D01*
X3737537Y-2762647D02*
X3728014Y-2791218D01*
X3728014Y-2791218D02*
X3613728Y-2905504D01*
X3613728Y-2905504D02*
X3737537Y-2905504D01*
X3975633Y-2905504D02*
X3975633Y-2705504D01*
X4061347Y-2905504D02*
X4061347Y-2800742D01*
X4061347Y-2800742D02*
X4051823Y-2781694D01*
X4051823Y-2781694D02*
X4032776Y-2772170D01*
X4032776Y-2772170D02*
X4004204Y-2772170D01*
X4004204Y-2772170D02*
X3985156Y-2781694D01*
X3985156Y-2781694D02*
X3975633Y-2791218D01*
X4185156Y-2905504D02*
X4166109Y-2895980D01*
X4166109Y-2895980D02*
X4156585Y-2886456D01*
X4156585Y-2886456D02*
X4147061Y-2867408D01*
X4147061Y-2867408D02*
X4147061Y-2810266D01*
X4147061Y-2810266D02*
X4156585Y-2791218D01*
X4156585Y-2791218D02*
X4166109Y-2781694D01*
X4166109Y-2781694D02*
X4185156Y-2772170D01*
X4185156Y-2772170D02*
X4213728Y-2772170D01*
X4213728Y-2772170D02*
X4232776Y-2781694D01*
X4232776Y-2781694D02*
X4242299Y-2791218D01*
X4242299Y-2791218D02*
X4251823Y-2810266D01*
X4251823Y-2810266D02*
X4251823Y-2867408D01*
X4251823Y-2867408D02*
X4242299Y-2886456D01*
X4242299Y-2886456D02*
X4232776Y-2895980D01*
X4232776Y-2895980D02*
X4213728Y-2905504D01*
X4213728Y-2905504D02*
X4185156Y-2905504D01*
X4366109Y-2905504D02*
X4347061Y-2895980D01*
X4347061Y-2895980D02*
X4337538Y-2876932D01*
X4337538Y-2876932D02*
X4337538Y-2705504D01*
X4518490Y-2895980D02*
X4499442Y-2905504D01*
X4499442Y-2905504D02*
X4461347Y-2905504D01*
X4461347Y-2905504D02*
X4442299Y-2895980D01*
X4442299Y-2895980D02*
X4432776Y-2876932D01*
X4432776Y-2876932D02*
X4432776Y-2800742D01*
X4432776Y-2800742D02*
X4442299Y-2781694D01*
X4442299Y-2781694D02*
X4461347Y-2772170D01*
X4461347Y-2772170D02*
X4499442Y-2772170D01*
X4499442Y-2772170D02*
X4518490Y-2781694D01*
X4518490Y-2781694D02*
X4528014Y-2800742D01*
X4528014Y-2800742D02*
X4528014Y-2819789D01*
X4528014Y-2819789D02*
X4432776Y-2838837D01*
X4604204Y-2895980D02*
X4623252Y-2905504D01*
X4623252Y-2905504D02*
X4661347Y-2905504D01*
X4661347Y-2905504D02*
X4680395Y-2895980D01*
X4680395Y-2895980D02*
X4689919Y-2876932D01*
X4689919Y-2876932D02*
X4689919Y-2867408D01*
X4689919Y-2867408D02*
X4680395Y-2848361D01*
X4680395Y-2848361D02*
X4661347Y-2838837D01*
X4661347Y-2838837D02*
X4632776Y-2838837D01*
X4632776Y-2838837D02*
X4613728Y-2829313D01*
X4613728Y-2829313D02*
X4604204Y-2810266D01*
X4604204Y-2810266D02*
X4604204Y-2800742D01*
X4604204Y-2800742D02*
X4613728Y-2781694D01*
X4613728Y-2781694D02*
X4632776Y-2772170D01*
X4632776Y-2772170D02*
X4661347Y-2772170D01*
X4661347Y-2772170D02*
X4680395Y-2781694D01*
X4756585Y-2981694D02*
X4766109Y-2972170D01*
X4766109Y-2972170D02*
X4785157Y-2943599D01*
X4785157Y-2943599D02*
X4794680Y-2924551D01*
X4794680Y-2924551D02*
X4804204Y-2895980D01*
X4804204Y-2895980D02*
X4813728Y-2848361D01*
X4813728Y-2848361D02*
X4813728Y-2810266D01*
X4813728Y-2810266D02*
X4804204Y-2762647D01*
X4804204Y-2762647D02*
X4794680Y-2734075D01*
X4794680Y-2734075D02*
X4785157Y-2715028D01*
X4785157Y-2715028D02*
X4766109Y-2686456D01*
X4766109Y-2686456D02*
X4756585Y-2676932D01*
M02*
