G04 #@! TF.GenerationSoftware,KiCad,Pcbnew,7.0.7*
G04 #@! TF.CreationDate,2024-03-28T15:42:58+01:00*
G04 #@! TF.ProjectId,Frackstock,46726163-6b73-4746-9f63-6b2e6b696361,2*
G04 #@! TF.SameCoordinates,Original*
G04 #@! TF.FileFunction,Legend,Bot*
G04 #@! TF.FilePolarity,Positive*
%FSLAX46Y46*%
G04 Gerber Fmt 4.6, Leading zero omitted, Abs format (unit mm)*
G04 Created by KiCad (PCBNEW 7.0.7) date 2024-03-28 15:42:58*
%MOMM*%
%LPD*%
G01*
G04 APERTURE LIST*
G04 Aperture macros list*
%AMRoundRect*
0 Rectangle with rounded corners*
0 $1 Rounding radius*
0 $2 $3 $4 $5 $6 $7 $8 $9 X,Y pos of 4 corners*
0 Add a 4 corners polygon primitive as box body*
4,1,4,$2,$3,$4,$5,$6,$7,$8,$9,$2,$3,0*
0 Add four circle primitives for the rounded corners*
1,1,$1+$1,$2,$3*
1,1,$1+$1,$4,$5*
1,1,$1+$1,$6,$7*
1,1,$1+$1,$8,$9*
0 Add four rect primitives between the rounded corners*
20,1,$1+$1,$2,$3,$4,$5,0*
20,1,$1+$1,$4,$5,$6,$7,0*
20,1,$1+$1,$6,$7,$8,$9,0*
20,1,$1+$1,$8,$9,$2,$3,0*%
G04 Aperture macros list end*
%ADD10C,0.150000*%
%ADD11C,0.127000*%
%ADD12C,0.200000*%
%ADD13C,0.100000*%
%ADD14C,0.120000*%
%ADD15C,0.010000*%
%ADD16R,1.700000X1.700000*%
%ADD17O,1.100000X2.200000*%
%ADD18O,1.300000X2.600000*%
%ADD19O,1.800000X1.800000*%
%ADD20O,1.500000X1.500000*%
%ADD21O,1.700000X1.700000*%
%ADD22RoundRect,0.007800X-0.512200X-0.122200X0.512200X-0.122200X0.512200X0.122200X-0.512200X0.122200X0*%
%ADD23RoundRect,0.007800X-0.122200X0.512200X-0.122200X-0.512200X0.122200X-0.512200X0.122200X0.512200X0*%
%ADD24R,2.400000X2.400000*%
%ADD25C,3.550000*%
%ADD26C,2.390000*%
%ADD27C,1.980000*%
%ADD28RoundRect,0.237500X0.300000X0.237500X-0.300000X0.237500X-0.300000X-0.237500X0.300000X-0.237500X0*%
%ADD29RoundRect,0.237500X0.237500X-0.300000X0.237500X0.300000X-0.237500X0.300000X-0.237500X-0.300000X0*%
%ADD30RoundRect,0.237500X-0.237500X0.300000X-0.237500X-0.300000X0.237500X-0.300000X0.237500X0.300000X0*%
%ADD31RoundRect,0.237500X-0.300000X-0.237500X0.300000X-0.237500X0.300000X0.237500X-0.300000X0.237500X0*%
%ADD32RoundRect,0.237500X-0.250000X-0.237500X0.250000X-0.237500X0.250000X0.237500X-0.250000X0.237500X0*%
%ADD33RoundRect,0.237500X0.250000X0.237500X-0.250000X0.237500X-0.250000X-0.237500X0.250000X-0.237500X0*%
%ADD34R,1.800000X1.200000*%
G04 APERTURE END LIST*
D10*
X132755533Y-133830002D02*
X132888866Y-133830002D01*
X132755533Y-134096669D02*
X132888866Y-134096669D01*
X132788866Y-134763335D02*
X132755533Y-134696668D01*
X132755533Y-134696668D02*
X132755533Y-134596668D01*
X132755533Y-134596668D02*
X132788866Y-134496668D01*
X132788866Y-134496668D02*
X132855533Y-134430002D01*
X132855533Y-134430002D02*
X132922200Y-134396668D01*
X132922200Y-134396668D02*
X133055533Y-134363335D01*
X133055533Y-134363335D02*
X133155533Y-134363335D01*
X133155533Y-134363335D02*
X133288866Y-134396668D01*
X133288866Y-134396668D02*
X133355533Y-134430002D01*
X133355533Y-134430002D02*
X133422200Y-134496668D01*
X133422200Y-134496668D02*
X133455533Y-134596668D01*
X133455533Y-134596668D02*
X133455533Y-134663335D01*
X133455533Y-134663335D02*
X133422200Y-134763335D01*
X133422200Y-134763335D02*
X133388866Y-134796668D01*
X133388866Y-134796668D02*
X133155533Y-134796668D01*
X133155533Y-134796668D02*
X133155533Y-134663335D01*
X133422200Y-135363335D02*
X133455533Y-135296668D01*
X133455533Y-135296668D02*
X133455533Y-135163335D01*
X133455533Y-135163335D02*
X133422200Y-135096668D01*
X133422200Y-135096668D02*
X133355533Y-135063335D01*
X133355533Y-135063335D02*
X133088866Y-135063335D01*
X133088866Y-135063335D02*
X133022200Y-135096668D01*
X133022200Y-135096668D02*
X132988866Y-135163335D01*
X132988866Y-135163335D02*
X132988866Y-135296668D01*
X132988866Y-135296668D02*
X133022200Y-135363335D01*
X133022200Y-135363335D02*
X133088866Y-135396668D01*
X133088866Y-135396668D02*
X133155533Y-135396668D01*
X133155533Y-135396668D02*
X133222200Y-135063335D01*
X133455533Y-135696668D02*
X132988866Y-135696668D01*
X133055533Y-135696668D02*
X133022200Y-135730002D01*
X133022200Y-135730002D02*
X132988866Y-135796668D01*
X132988866Y-135796668D02*
X132988866Y-135896668D01*
X132988866Y-135896668D02*
X133022200Y-135963335D01*
X133022200Y-135963335D02*
X133088866Y-135996668D01*
X133088866Y-135996668D02*
X133455533Y-135996668D01*
X133088866Y-135996668D02*
X133022200Y-136030002D01*
X133022200Y-136030002D02*
X132988866Y-136096668D01*
X132988866Y-136096668D02*
X132988866Y-136196668D01*
X132988866Y-136196668D02*
X133022200Y-136263335D01*
X133022200Y-136263335D02*
X133088866Y-136296668D01*
X133088866Y-136296668D02*
X133455533Y-136296668D01*
X133422200Y-136896668D02*
X133455533Y-136830001D01*
X133455533Y-136830001D02*
X133455533Y-136696668D01*
X133455533Y-136696668D02*
X133422200Y-136630001D01*
X133422200Y-136630001D02*
X133355533Y-136596668D01*
X133355533Y-136596668D02*
X133088866Y-136596668D01*
X133088866Y-136596668D02*
X133022200Y-136630001D01*
X133022200Y-136630001D02*
X132988866Y-136696668D01*
X132988866Y-136696668D02*
X132988866Y-136830001D01*
X132988866Y-136830001D02*
X133022200Y-136896668D01*
X133022200Y-136896668D02*
X133088866Y-136930001D01*
X133088866Y-136930001D02*
X133155533Y-136930001D01*
X133155533Y-136930001D02*
X133222200Y-136596668D01*
X133455533Y-137230001D02*
X132988866Y-137230001D01*
X132755533Y-137230001D02*
X132788866Y-137196668D01*
X132788866Y-137196668D02*
X132822200Y-137230001D01*
X132822200Y-137230001D02*
X132788866Y-137263335D01*
X132788866Y-137263335D02*
X132755533Y-137230001D01*
X132755533Y-137230001D02*
X132822200Y-137230001D01*
X132988866Y-137563334D02*
X133455533Y-137563334D01*
X133055533Y-137563334D02*
X133022200Y-137596668D01*
X133022200Y-137596668D02*
X132988866Y-137663334D01*
X132988866Y-137663334D02*
X132988866Y-137763334D01*
X132988866Y-137763334D02*
X133022200Y-137830001D01*
X133022200Y-137830001D02*
X133088866Y-137863334D01*
X133088866Y-137863334D02*
X133455533Y-137863334D01*
X133422200Y-138163334D02*
X133455533Y-138230001D01*
X133455533Y-138230001D02*
X133455533Y-138363334D01*
X133455533Y-138363334D02*
X133422200Y-138430001D01*
X133422200Y-138430001D02*
X133355533Y-138463334D01*
X133355533Y-138463334D02*
X133322200Y-138463334D01*
X133322200Y-138463334D02*
X133255533Y-138430001D01*
X133255533Y-138430001D02*
X133222200Y-138363334D01*
X133222200Y-138363334D02*
X133222200Y-138263334D01*
X133222200Y-138263334D02*
X133188866Y-138196667D01*
X133188866Y-138196667D02*
X133122200Y-138163334D01*
X133122200Y-138163334D02*
X133088866Y-138163334D01*
X133088866Y-138163334D02*
X133022200Y-138196667D01*
X133022200Y-138196667D02*
X132988866Y-138263334D01*
X132988866Y-138263334D02*
X132988866Y-138363334D01*
X132988866Y-138363334D02*
X133022200Y-138430001D01*
X133422200Y-139063334D02*
X133455533Y-138996668D01*
X133455533Y-138996668D02*
X133455533Y-138863334D01*
X133455533Y-138863334D02*
X133422200Y-138796668D01*
X133422200Y-138796668D02*
X133388866Y-138763334D01*
X133388866Y-138763334D02*
X133322200Y-138730001D01*
X133322200Y-138730001D02*
X133122200Y-138730001D01*
X133122200Y-138730001D02*
X133055533Y-138763334D01*
X133055533Y-138763334D02*
X133022200Y-138796668D01*
X133022200Y-138796668D02*
X132988866Y-138863334D01*
X132988866Y-138863334D02*
X132988866Y-138996668D01*
X132988866Y-138996668D02*
X133022200Y-139063334D01*
X133455533Y-139363334D02*
X132755533Y-139363334D01*
X133455533Y-139663334D02*
X133088866Y-139663334D01*
X133088866Y-139663334D02*
X133022200Y-139630001D01*
X133022200Y-139630001D02*
X132988866Y-139563334D01*
X132988866Y-139563334D02*
X132988866Y-139463334D01*
X132988866Y-139463334D02*
X133022200Y-139396668D01*
X133022200Y-139396668D02*
X133055533Y-139363334D01*
X133455533Y-140296667D02*
X133088866Y-140296667D01*
X133088866Y-140296667D02*
X133022200Y-140263334D01*
X133022200Y-140263334D02*
X132988866Y-140196667D01*
X132988866Y-140196667D02*
X132988866Y-140063334D01*
X132988866Y-140063334D02*
X133022200Y-139996667D01*
X133422200Y-140296667D02*
X133455533Y-140230001D01*
X133455533Y-140230001D02*
X133455533Y-140063334D01*
X133455533Y-140063334D02*
X133422200Y-139996667D01*
X133422200Y-139996667D02*
X133355533Y-139963334D01*
X133355533Y-139963334D02*
X133288866Y-139963334D01*
X133288866Y-139963334D02*
X133222200Y-139996667D01*
X133222200Y-139996667D02*
X133188866Y-140063334D01*
X133188866Y-140063334D02*
X133188866Y-140230001D01*
X133188866Y-140230001D02*
X133155533Y-140296667D01*
X132988866Y-140530000D02*
X132988866Y-140796667D01*
X133455533Y-140630000D02*
X132855533Y-140630000D01*
X132855533Y-140630000D02*
X132788866Y-140663334D01*
X132788866Y-140663334D02*
X132755533Y-140730000D01*
X132755533Y-140730000D02*
X132755533Y-140796667D01*
X132988866Y-140930000D02*
X132988866Y-141196667D01*
X132755533Y-141030000D02*
X133355533Y-141030000D01*
X133355533Y-141030000D02*
X133422200Y-141063334D01*
X133422200Y-141063334D02*
X133455533Y-141130000D01*
X133455533Y-141130000D02*
X133455533Y-141196667D01*
X133455533Y-141963333D02*
X132988866Y-141963333D01*
X133055533Y-141963333D02*
X133022200Y-141996667D01*
X133022200Y-141996667D02*
X132988866Y-142063333D01*
X132988866Y-142063333D02*
X132988866Y-142163333D01*
X132988866Y-142163333D02*
X133022200Y-142230000D01*
X133022200Y-142230000D02*
X133088866Y-142263333D01*
X133088866Y-142263333D02*
X133455533Y-142263333D01*
X133088866Y-142263333D02*
X133022200Y-142296667D01*
X133022200Y-142296667D02*
X132988866Y-142363333D01*
X132988866Y-142363333D02*
X132988866Y-142463333D01*
X132988866Y-142463333D02*
X133022200Y-142530000D01*
X133022200Y-142530000D02*
X133088866Y-142563333D01*
X133088866Y-142563333D02*
X133455533Y-142563333D01*
X133455533Y-142896666D02*
X132988866Y-142896666D01*
X132755533Y-142896666D02*
X132788866Y-142863333D01*
X132788866Y-142863333D02*
X132822200Y-142896666D01*
X132822200Y-142896666D02*
X132788866Y-142930000D01*
X132788866Y-142930000D02*
X132755533Y-142896666D01*
X132755533Y-142896666D02*
X132822200Y-142896666D01*
X132988866Y-143129999D02*
X132988866Y-143396666D01*
X132755533Y-143229999D02*
X133355533Y-143229999D01*
X133355533Y-143229999D02*
X133422200Y-143263333D01*
X133422200Y-143263333D02*
X133455533Y-143329999D01*
X133455533Y-143329999D02*
X133455533Y-143396666D01*
X133088866Y-144396666D02*
X133122200Y-144496666D01*
X133122200Y-144496666D02*
X133155533Y-144529999D01*
X133155533Y-144529999D02*
X133222200Y-144563332D01*
X133222200Y-144563332D02*
X133322200Y-144563332D01*
X133322200Y-144563332D02*
X133388866Y-144529999D01*
X133388866Y-144529999D02*
X133422200Y-144496666D01*
X133422200Y-144496666D02*
X133455533Y-144429999D01*
X133455533Y-144429999D02*
X133455533Y-144163332D01*
X133455533Y-144163332D02*
X132755533Y-144163332D01*
X132755533Y-144163332D02*
X132755533Y-144396666D01*
X132755533Y-144396666D02*
X132788866Y-144463332D01*
X132788866Y-144463332D02*
X132822200Y-144496666D01*
X132822200Y-144496666D02*
X132888866Y-144529999D01*
X132888866Y-144529999D02*
X132955533Y-144529999D01*
X132955533Y-144529999D02*
X133022200Y-144496666D01*
X133022200Y-144496666D02*
X133055533Y-144463332D01*
X133055533Y-144463332D02*
X133088866Y-144396666D01*
X133088866Y-144396666D02*
X133088866Y-144163332D01*
X132988866Y-145163332D02*
X133455533Y-145163332D01*
X132988866Y-144863332D02*
X133355533Y-144863332D01*
X133355533Y-144863332D02*
X133422200Y-144896666D01*
X133422200Y-144896666D02*
X133455533Y-144963332D01*
X133455533Y-144963332D02*
X133455533Y-145063332D01*
X133455533Y-145063332D02*
X133422200Y-145129999D01*
X133422200Y-145129999D02*
X133388866Y-145163332D01*
X132755533Y-144896666D02*
X132788866Y-144929999D01*
X132788866Y-144929999D02*
X132822200Y-144896666D01*
X132822200Y-144896666D02*
X132788866Y-144863332D01*
X132788866Y-144863332D02*
X132755533Y-144896666D01*
X132755533Y-144896666D02*
X132822200Y-144896666D01*
X132755533Y-145163332D02*
X132788866Y-145196666D01*
X132788866Y-145196666D02*
X132822200Y-145163332D01*
X132822200Y-145163332D02*
X132788866Y-145129999D01*
X132788866Y-145129999D02*
X132755533Y-145163332D01*
X132755533Y-145163332D02*
X132822200Y-145163332D01*
X133422200Y-145463332D02*
X133455533Y-145529999D01*
X133455533Y-145529999D02*
X133455533Y-145663332D01*
X133455533Y-145663332D02*
X133422200Y-145729999D01*
X133422200Y-145729999D02*
X133355533Y-145763332D01*
X133355533Y-145763332D02*
X133322200Y-145763332D01*
X133322200Y-145763332D02*
X133255533Y-145729999D01*
X133255533Y-145729999D02*
X133222200Y-145663332D01*
X133222200Y-145663332D02*
X133222200Y-145563332D01*
X133222200Y-145563332D02*
X133188866Y-145496665D01*
X133188866Y-145496665D02*
X133122200Y-145463332D01*
X133122200Y-145463332D02*
X133088866Y-145463332D01*
X133088866Y-145463332D02*
X133022200Y-145496665D01*
X133022200Y-145496665D02*
X132988866Y-145563332D01*
X132988866Y-145563332D02*
X132988866Y-145663332D01*
X132988866Y-145663332D02*
X133022200Y-145729999D01*
X133455533Y-146063332D02*
X132988866Y-146063332D01*
X132755533Y-146063332D02*
X132788866Y-146029999D01*
X132788866Y-146029999D02*
X132822200Y-146063332D01*
X132822200Y-146063332D02*
X132788866Y-146096666D01*
X132788866Y-146096666D02*
X132755533Y-146063332D01*
X132755533Y-146063332D02*
X132822200Y-146063332D01*
X133455533Y-146929998D02*
X132755533Y-146929998D01*
X133088866Y-146929998D02*
X133088866Y-147329998D01*
X133455533Y-147329998D02*
X132755533Y-147329998D01*
X133422200Y-147929998D02*
X133455533Y-147863331D01*
X133455533Y-147863331D02*
X133455533Y-147729998D01*
X133455533Y-147729998D02*
X133422200Y-147663331D01*
X133422200Y-147663331D02*
X133355533Y-147629998D01*
X133355533Y-147629998D02*
X133088866Y-147629998D01*
X133088866Y-147629998D02*
X133022200Y-147663331D01*
X133022200Y-147663331D02*
X132988866Y-147729998D01*
X132988866Y-147729998D02*
X132988866Y-147863331D01*
X132988866Y-147863331D02*
X133022200Y-147929998D01*
X133022200Y-147929998D02*
X133088866Y-147963331D01*
X133088866Y-147963331D02*
X133155533Y-147963331D01*
X133155533Y-147963331D02*
X133222200Y-147629998D01*
X133455533Y-148263331D02*
X132988866Y-148263331D01*
X133122200Y-148263331D02*
X133055533Y-148296665D01*
X133055533Y-148296665D02*
X133022200Y-148329998D01*
X133022200Y-148329998D02*
X132988866Y-148396665D01*
X132988866Y-148396665D02*
X132988866Y-148463331D01*
X132988866Y-148629998D02*
X132988866Y-148996664D01*
X132988866Y-148996664D02*
X133455533Y-148629998D01*
X133455533Y-148629998D02*
X133455533Y-148996664D01*
X132755533Y-149229998D02*
X132888866Y-149229998D01*
X132755533Y-149496665D02*
X132888866Y-149496665D01*
X134582533Y-133946668D02*
X134115866Y-133946668D01*
X133882533Y-133946668D02*
X133915866Y-133913335D01*
X133915866Y-133913335D02*
X133949200Y-133946668D01*
X133949200Y-133946668D02*
X133915866Y-133980002D01*
X133915866Y-133980002D02*
X133882533Y-133946668D01*
X133882533Y-133946668D02*
X133949200Y-133946668D01*
X134549200Y-134246668D02*
X134582533Y-134313335D01*
X134582533Y-134313335D02*
X134582533Y-134446668D01*
X134582533Y-134446668D02*
X134549200Y-134513335D01*
X134549200Y-134513335D02*
X134482533Y-134546668D01*
X134482533Y-134546668D02*
X134449200Y-134546668D01*
X134449200Y-134546668D02*
X134382533Y-134513335D01*
X134382533Y-134513335D02*
X134349200Y-134446668D01*
X134349200Y-134446668D02*
X134349200Y-134346668D01*
X134349200Y-134346668D02*
X134315866Y-134280001D01*
X134315866Y-134280001D02*
X134249200Y-134246668D01*
X134249200Y-134246668D02*
X134215866Y-134246668D01*
X134215866Y-134246668D02*
X134149200Y-134280001D01*
X134149200Y-134280001D02*
X134115866Y-134346668D01*
X134115866Y-134346668D02*
X134115866Y-134446668D01*
X134115866Y-134446668D02*
X134149200Y-134513335D01*
X134115866Y-134746668D02*
X134115866Y-135013335D01*
X133882533Y-134846668D02*
X134482533Y-134846668D01*
X134482533Y-134846668D02*
X134549200Y-134880002D01*
X134549200Y-134880002D02*
X134582533Y-134946668D01*
X134582533Y-134946668D02*
X134582533Y-135013335D01*
X134549200Y-136046668D02*
X134582533Y-135980001D01*
X134582533Y-135980001D02*
X134582533Y-135846668D01*
X134582533Y-135846668D02*
X134549200Y-135780001D01*
X134549200Y-135780001D02*
X134482533Y-135746668D01*
X134482533Y-135746668D02*
X134215866Y-135746668D01*
X134215866Y-135746668D02*
X134149200Y-135780001D01*
X134149200Y-135780001D02*
X134115866Y-135846668D01*
X134115866Y-135846668D02*
X134115866Y-135980001D01*
X134115866Y-135980001D02*
X134149200Y-136046668D01*
X134149200Y-136046668D02*
X134215866Y-136080001D01*
X134215866Y-136080001D02*
X134282533Y-136080001D01*
X134282533Y-136080001D02*
X134349200Y-135746668D01*
X134582533Y-136380001D02*
X134115866Y-136380001D01*
X133882533Y-136380001D02*
X133915866Y-136346668D01*
X133915866Y-136346668D02*
X133949200Y-136380001D01*
X133949200Y-136380001D02*
X133915866Y-136413335D01*
X133915866Y-136413335D02*
X133882533Y-136380001D01*
X133882533Y-136380001D02*
X133949200Y-136380001D01*
X134115866Y-136713334D02*
X134582533Y-136713334D01*
X134182533Y-136713334D02*
X134149200Y-136746668D01*
X134149200Y-136746668D02*
X134115866Y-136813334D01*
X134115866Y-136813334D02*
X134115866Y-136913334D01*
X134115866Y-136913334D02*
X134149200Y-136980001D01*
X134149200Y-136980001D02*
X134215866Y-137013334D01*
X134215866Y-137013334D02*
X134582533Y-137013334D01*
X134582533Y-137980000D02*
X134549200Y-137913334D01*
X134549200Y-137913334D02*
X134515866Y-137880000D01*
X134515866Y-137880000D02*
X134449200Y-137846667D01*
X134449200Y-137846667D02*
X134249200Y-137846667D01*
X134249200Y-137846667D02*
X134182533Y-137880000D01*
X134182533Y-137880000D02*
X134149200Y-137913334D01*
X134149200Y-137913334D02*
X134115866Y-137980000D01*
X134115866Y-137980000D02*
X134115866Y-138080000D01*
X134115866Y-138080000D02*
X134149200Y-138146667D01*
X134149200Y-138146667D02*
X134182533Y-138180000D01*
X134182533Y-138180000D02*
X134249200Y-138213334D01*
X134249200Y-138213334D02*
X134449200Y-138213334D01*
X134449200Y-138213334D02*
X134515866Y-138180000D01*
X134515866Y-138180000D02*
X134549200Y-138146667D01*
X134549200Y-138146667D02*
X134582533Y-138080000D01*
X134582533Y-138080000D02*
X134582533Y-137980000D01*
X134115866Y-138413333D02*
X134115866Y-138680000D01*
X134582533Y-138513333D02*
X133982533Y-138513333D01*
X133982533Y-138513333D02*
X133915866Y-138546667D01*
X133915866Y-138546667D02*
X133882533Y-138613333D01*
X133882533Y-138613333D02*
X133882533Y-138680000D01*
X134115866Y-138813333D02*
X134115866Y-139080000D01*
X134582533Y-138913333D02*
X133982533Y-138913333D01*
X133982533Y-138913333D02*
X133915866Y-138946667D01*
X133915866Y-138946667D02*
X133882533Y-139013333D01*
X133882533Y-139013333D02*
X133882533Y-139080000D01*
X134582533Y-139313333D02*
X134115866Y-139313333D01*
X133882533Y-139313333D02*
X133915866Y-139280000D01*
X133915866Y-139280000D02*
X133949200Y-139313333D01*
X133949200Y-139313333D02*
X133915866Y-139346667D01*
X133915866Y-139346667D02*
X133882533Y-139313333D01*
X133882533Y-139313333D02*
X133949200Y-139313333D01*
X134115866Y-139580000D02*
X134115866Y-139946666D01*
X134115866Y-139946666D02*
X134582533Y-139580000D01*
X134582533Y-139580000D02*
X134582533Y-139946666D01*
X134582533Y-140213333D02*
X134115866Y-140213333D01*
X133882533Y-140213333D02*
X133915866Y-140180000D01*
X133915866Y-140180000D02*
X133949200Y-140213333D01*
X133949200Y-140213333D02*
X133915866Y-140246667D01*
X133915866Y-140246667D02*
X133882533Y-140213333D01*
X133882533Y-140213333D02*
X133949200Y-140213333D01*
X134549200Y-140813333D02*
X134582533Y-140746666D01*
X134582533Y-140746666D02*
X134582533Y-140613333D01*
X134582533Y-140613333D02*
X134549200Y-140546666D01*
X134549200Y-140546666D02*
X134482533Y-140513333D01*
X134482533Y-140513333D02*
X134215866Y-140513333D01*
X134215866Y-140513333D02*
X134149200Y-140546666D01*
X134149200Y-140546666D02*
X134115866Y-140613333D01*
X134115866Y-140613333D02*
X134115866Y-140746666D01*
X134115866Y-140746666D02*
X134149200Y-140813333D01*
X134149200Y-140813333D02*
X134215866Y-140846666D01*
X134215866Y-140846666D02*
X134282533Y-140846666D01*
X134282533Y-140846666D02*
X134349200Y-140513333D01*
X134582533Y-141246666D02*
X134549200Y-141180000D01*
X134549200Y-141180000D02*
X134482533Y-141146666D01*
X134482533Y-141146666D02*
X133882533Y-141146666D01*
X134582533Y-141613333D02*
X134549200Y-141546667D01*
X134549200Y-141546667D02*
X134482533Y-141513333D01*
X134482533Y-141513333D02*
X133882533Y-141513333D01*
X134549200Y-142680000D02*
X134582533Y-142613333D01*
X134582533Y-142613333D02*
X134582533Y-142480000D01*
X134582533Y-142480000D02*
X134549200Y-142413333D01*
X134549200Y-142413333D02*
X134482533Y-142380000D01*
X134482533Y-142380000D02*
X134215866Y-142380000D01*
X134215866Y-142380000D02*
X134149200Y-142413333D01*
X134149200Y-142413333D02*
X134115866Y-142480000D01*
X134115866Y-142480000D02*
X134115866Y-142613333D01*
X134115866Y-142613333D02*
X134149200Y-142680000D01*
X134149200Y-142680000D02*
X134215866Y-142713333D01*
X134215866Y-142713333D02*
X134282533Y-142713333D01*
X134282533Y-142713333D02*
X134349200Y-142380000D01*
X134582533Y-143013333D02*
X134115866Y-143013333D01*
X133882533Y-143013333D02*
X133915866Y-142980000D01*
X133915866Y-142980000D02*
X133949200Y-143013333D01*
X133949200Y-143013333D02*
X133915866Y-143046667D01*
X133915866Y-143046667D02*
X133882533Y-143013333D01*
X133882533Y-143013333D02*
X133949200Y-143013333D01*
X134115866Y-143346666D02*
X134582533Y-143346666D01*
X134182533Y-143346666D02*
X134149200Y-143380000D01*
X134149200Y-143380000D02*
X134115866Y-143446666D01*
X134115866Y-143446666D02*
X134115866Y-143546666D01*
X134115866Y-143546666D02*
X134149200Y-143613333D01*
X134149200Y-143613333D02*
X134215866Y-143646666D01*
X134215866Y-143646666D02*
X134582533Y-143646666D01*
X134115866Y-144279999D02*
X134682533Y-144279999D01*
X134682533Y-144279999D02*
X134749200Y-144246666D01*
X134749200Y-144246666D02*
X134782533Y-144213333D01*
X134782533Y-144213333D02*
X134815866Y-144146666D01*
X134815866Y-144146666D02*
X134815866Y-144046666D01*
X134815866Y-144046666D02*
X134782533Y-143979999D01*
X134549200Y-144279999D02*
X134582533Y-144213333D01*
X134582533Y-144213333D02*
X134582533Y-144079999D01*
X134582533Y-144079999D02*
X134549200Y-144013333D01*
X134549200Y-144013333D02*
X134515866Y-143979999D01*
X134515866Y-143979999D02*
X134449200Y-143946666D01*
X134449200Y-143946666D02*
X134249200Y-143946666D01*
X134249200Y-143946666D02*
X134182533Y-143979999D01*
X134182533Y-143979999D02*
X134149200Y-144013333D01*
X134149200Y-144013333D02*
X134115866Y-144079999D01*
X134115866Y-144079999D02*
X134115866Y-144213333D01*
X134115866Y-144213333D02*
X134149200Y-144279999D01*
X134549200Y-144879999D02*
X134582533Y-144813332D01*
X134582533Y-144813332D02*
X134582533Y-144679999D01*
X134582533Y-144679999D02*
X134549200Y-144613332D01*
X134549200Y-144613332D02*
X134482533Y-144579999D01*
X134482533Y-144579999D02*
X134215866Y-144579999D01*
X134215866Y-144579999D02*
X134149200Y-144613332D01*
X134149200Y-144613332D02*
X134115866Y-144679999D01*
X134115866Y-144679999D02*
X134115866Y-144813332D01*
X134115866Y-144813332D02*
X134149200Y-144879999D01*
X134149200Y-144879999D02*
X134215866Y-144913332D01*
X134215866Y-144913332D02*
X134282533Y-144913332D01*
X134282533Y-144913332D02*
X134349200Y-144579999D01*
X134115866Y-145113332D02*
X134115866Y-145379999D01*
X133882533Y-145213332D02*
X134482533Y-145213332D01*
X134482533Y-145213332D02*
X134549200Y-145246666D01*
X134549200Y-145246666D02*
X134582533Y-145313332D01*
X134582533Y-145313332D02*
X134582533Y-145379999D01*
X134582533Y-145613332D02*
X134115866Y-145613332D01*
X134249200Y-145613332D02*
X134182533Y-145646666D01*
X134182533Y-145646666D02*
X134149200Y-145679999D01*
X134149200Y-145679999D02*
X134115866Y-145746666D01*
X134115866Y-145746666D02*
X134115866Y-145813332D01*
X134582533Y-146346665D02*
X134215866Y-146346665D01*
X134215866Y-146346665D02*
X134149200Y-146313332D01*
X134149200Y-146313332D02*
X134115866Y-146246665D01*
X134115866Y-146246665D02*
X134115866Y-146113332D01*
X134115866Y-146113332D02*
X134149200Y-146046665D01*
X134549200Y-146346665D02*
X134582533Y-146279999D01*
X134582533Y-146279999D02*
X134582533Y-146113332D01*
X134582533Y-146113332D02*
X134549200Y-146046665D01*
X134549200Y-146046665D02*
X134482533Y-146013332D01*
X134482533Y-146013332D02*
X134415866Y-146013332D01*
X134415866Y-146013332D02*
X134349200Y-146046665D01*
X134349200Y-146046665D02*
X134315866Y-146113332D01*
X134315866Y-146113332D02*
X134315866Y-146279999D01*
X134315866Y-146279999D02*
X134282533Y-146346665D01*
X134115866Y-146979998D02*
X134682533Y-146979998D01*
X134682533Y-146979998D02*
X134749200Y-146946665D01*
X134749200Y-146946665D02*
X134782533Y-146913332D01*
X134782533Y-146913332D02*
X134815866Y-146846665D01*
X134815866Y-146846665D02*
X134815866Y-146746665D01*
X134815866Y-146746665D02*
X134782533Y-146679998D01*
X134549200Y-146979998D02*
X134582533Y-146913332D01*
X134582533Y-146913332D02*
X134582533Y-146779998D01*
X134582533Y-146779998D02*
X134549200Y-146713332D01*
X134549200Y-146713332D02*
X134515866Y-146679998D01*
X134515866Y-146679998D02*
X134449200Y-146646665D01*
X134449200Y-146646665D02*
X134249200Y-146646665D01*
X134249200Y-146646665D02*
X134182533Y-146679998D01*
X134182533Y-146679998D02*
X134149200Y-146713332D01*
X134149200Y-146713332D02*
X134115866Y-146779998D01*
X134115866Y-146779998D02*
X134115866Y-146913332D01*
X134115866Y-146913332D02*
X134149200Y-146979998D01*
X134549200Y-147579998D02*
X134582533Y-147513331D01*
X134582533Y-147513331D02*
X134582533Y-147379998D01*
X134582533Y-147379998D02*
X134549200Y-147313331D01*
X134549200Y-147313331D02*
X134482533Y-147279998D01*
X134482533Y-147279998D02*
X134215866Y-147279998D01*
X134215866Y-147279998D02*
X134149200Y-147313331D01*
X134149200Y-147313331D02*
X134115866Y-147379998D01*
X134115866Y-147379998D02*
X134115866Y-147513331D01*
X134115866Y-147513331D02*
X134149200Y-147579998D01*
X134149200Y-147579998D02*
X134215866Y-147613331D01*
X134215866Y-147613331D02*
X134282533Y-147613331D01*
X134282533Y-147613331D02*
X134349200Y-147279998D01*
X134115866Y-147913331D02*
X134582533Y-147913331D01*
X134182533Y-147913331D02*
X134149200Y-147946665D01*
X134149200Y-147946665D02*
X134115866Y-148013331D01*
X134115866Y-148013331D02*
X134115866Y-148113331D01*
X134115866Y-148113331D02*
X134149200Y-148179998D01*
X134149200Y-148179998D02*
X134215866Y-148213331D01*
X134215866Y-148213331D02*
X134582533Y-148213331D01*
X134549200Y-148813331D02*
X134582533Y-148746664D01*
X134582533Y-148746664D02*
X134582533Y-148613331D01*
X134582533Y-148613331D02*
X134549200Y-148546664D01*
X134549200Y-148546664D02*
X134482533Y-148513331D01*
X134482533Y-148513331D02*
X134215866Y-148513331D01*
X134215866Y-148513331D02*
X134149200Y-148546664D01*
X134149200Y-148546664D02*
X134115866Y-148613331D01*
X134115866Y-148613331D02*
X134115866Y-148746664D01*
X134115866Y-148746664D02*
X134149200Y-148813331D01*
X134149200Y-148813331D02*
X134215866Y-148846664D01*
X134215866Y-148846664D02*
X134282533Y-148846664D01*
X134282533Y-148846664D02*
X134349200Y-148513331D01*
X134549200Y-149113331D02*
X134582533Y-149179998D01*
X134582533Y-149179998D02*
X134582533Y-149313331D01*
X134582533Y-149313331D02*
X134549200Y-149379998D01*
X134549200Y-149379998D02*
X134482533Y-149413331D01*
X134482533Y-149413331D02*
X134449200Y-149413331D01*
X134449200Y-149413331D02*
X134382533Y-149379998D01*
X134382533Y-149379998D02*
X134349200Y-149313331D01*
X134349200Y-149313331D02*
X134349200Y-149213331D01*
X134349200Y-149213331D02*
X134315866Y-149146664D01*
X134315866Y-149146664D02*
X134249200Y-149113331D01*
X134249200Y-149113331D02*
X134215866Y-149113331D01*
X134215866Y-149113331D02*
X134149200Y-149146664D01*
X134149200Y-149146664D02*
X134115866Y-149213331D01*
X134115866Y-149213331D02*
X134115866Y-149313331D01*
X134115866Y-149313331D02*
X134149200Y-149379998D01*
X135709533Y-136913334D02*
X135009533Y-136913334D01*
X135009533Y-136913334D02*
X135509533Y-137146668D01*
X135509533Y-137146668D02*
X135009533Y-137380001D01*
X135009533Y-137380001D02*
X135709533Y-137380001D01*
X135709533Y-138013334D02*
X135342866Y-138013334D01*
X135342866Y-138013334D02*
X135276200Y-137980001D01*
X135276200Y-137980001D02*
X135242866Y-137913334D01*
X135242866Y-137913334D02*
X135242866Y-137780001D01*
X135242866Y-137780001D02*
X135276200Y-137713334D01*
X135676200Y-138013334D02*
X135709533Y-137946668D01*
X135709533Y-137946668D02*
X135709533Y-137780001D01*
X135709533Y-137780001D02*
X135676200Y-137713334D01*
X135676200Y-137713334D02*
X135609533Y-137680001D01*
X135609533Y-137680001D02*
X135542866Y-137680001D01*
X135542866Y-137680001D02*
X135476200Y-137713334D01*
X135476200Y-137713334D02*
X135442866Y-137780001D01*
X135442866Y-137780001D02*
X135442866Y-137946668D01*
X135442866Y-137946668D02*
X135409533Y-138013334D01*
X135709533Y-138346667D02*
X135242866Y-138346667D01*
X135376200Y-138346667D02*
X135309533Y-138380001D01*
X135309533Y-138380001D02*
X135276200Y-138413334D01*
X135276200Y-138413334D02*
X135242866Y-138480001D01*
X135242866Y-138480001D02*
X135242866Y-138546667D01*
X135709533Y-138780000D02*
X135009533Y-138780000D01*
X135442866Y-138846667D02*
X135709533Y-139046667D01*
X135242866Y-139046667D02*
X135509533Y-138780000D01*
X135676200Y-139613334D02*
X135709533Y-139546667D01*
X135709533Y-139546667D02*
X135709533Y-139413334D01*
X135709533Y-139413334D02*
X135676200Y-139346667D01*
X135676200Y-139346667D02*
X135609533Y-139313334D01*
X135609533Y-139313334D02*
X135342866Y-139313334D01*
X135342866Y-139313334D02*
X135276200Y-139346667D01*
X135276200Y-139346667D02*
X135242866Y-139413334D01*
X135242866Y-139413334D02*
X135242866Y-139546667D01*
X135242866Y-139546667D02*
X135276200Y-139613334D01*
X135276200Y-139613334D02*
X135342866Y-139646667D01*
X135342866Y-139646667D02*
X135409533Y-139646667D01*
X135409533Y-139646667D02*
X135476200Y-139313334D01*
X135242866Y-139946667D02*
X135709533Y-139946667D01*
X135309533Y-139946667D02*
X135276200Y-139980001D01*
X135276200Y-139980001D02*
X135242866Y-140046667D01*
X135242866Y-140046667D02*
X135242866Y-140146667D01*
X135242866Y-140146667D02*
X135276200Y-140213334D01*
X135276200Y-140213334D02*
X135342866Y-140246667D01*
X135342866Y-140246667D02*
X135709533Y-140246667D01*
X135242866Y-140513334D02*
X135242866Y-140880000D01*
X135242866Y-140880000D02*
X135709533Y-140513334D01*
X135709533Y-140513334D02*
X135709533Y-140880000D01*
X135676200Y-141413334D02*
X135709533Y-141346667D01*
X135709533Y-141346667D02*
X135709533Y-141213334D01*
X135709533Y-141213334D02*
X135676200Y-141146667D01*
X135676200Y-141146667D02*
X135609533Y-141113334D01*
X135609533Y-141113334D02*
X135342866Y-141113334D01*
X135342866Y-141113334D02*
X135276200Y-141146667D01*
X135276200Y-141146667D02*
X135242866Y-141213334D01*
X135242866Y-141213334D02*
X135242866Y-141346667D01*
X135242866Y-141346667D02*
X135276200Y-141413334D01*
X135276200Y-141413334D02*
X135342866Y-141446667D01*
X135342866Y-141446667D02*
X135409533Y-141446667D01*
X135409533Y-141446667D02*
X135476200Y-141113334D01*
X135709533Y-141746667D02*
X135242866Y-141746667D01*
X135009533Y-141746667D02*
X135042866Y-141713334D01*
X135042866Y-141713334D02*
X135076200Y-141746667D01*
X135076200Y-141746667D02*
X135042866Y-141780001D01*
X135042866Y-141780001D02*
X135009533Y-141746667D01*
X135009533Y-141746667D02*
X135076200Y-141746667D01*
X135676200Y-142380000D02*
X135709533Y-142313334D01*
X135709533Y-142313334D02*
X135709533Y-142180000D01*
X135709533Y-142180000D02*
X135676200Y-142113334D01*
X135676200Y-142113334D02*
X135642866Y-142080000D01*
X135642866Y-142080000D02*
X135576200Y-142046667D01*
X135576200Y-142046667D02*
X135376200Y-142046667D01*
X135376200Y-142046667D02*
X135309533Y-142080000D01*
X135309533Y-142080000D02*
X135276200Y-142113334D01*
X135276200Y-142113334D02*
X135242866Y-142180000D01*
X135242866Y-142180000D02*
X135242866Y-142313334D01*
X135242866Y-142313334D02*
X135276200Y-142380000D01*
X135709533Y-142680000D02*
X135009533Y-142680000D01*
X135709533Y-142980000D02*
X135342866Y-142980000D01*
X135342866Y-142980000D02*
X135276200Y-142946667D01*
X135276200Y-142946667D02*
X135242866Y-142880000D01*
X135242866Y-142880000D02*
X135242866Y-142780000D01*
X135242866Y-142780000D02*
X135276200Y-142713334D01*
X135276200Y-142713334D02*
X135309533Y-142680000D01*
X135676200Y-143580000D02*
X135709533Y-143513333D01*
X135709533Y-143513333D02*
X135709533Y-143380000D01*
X135709533Y-143380000D02*
X135676200Y-143313333D01*
X135676200Y-143313333D02*
X135609533Y-143280000D01*
X135609533Y-143280000D02*
X135342866Y-143280000D01*
X135342866Y-143280000D02*
X135276200Y-143313333D01*
X135276200Y-143313333D02*
X135242866Y-143380000D01*
X135242866Y-143380000D02*
X135242866Y-143513333D01*
X135242866Y-143513333D02*
X135276200Y-143580000D01*
X135276200Y-143580000D02*
X135342866Y-143613333D01*
X135342866Y-143613333D02*
X135409533Y-143613333D01*
X135409533Y-143613333D02*
X135476200Y-143280000D01*
X135242866Y-143913333D02*
X135709533Y-143913333D01*
X135309533Y-143913333D02*
X135276200Y-143946667D01*
X135276200Y-143946667D02*
X135242866Y-144013333D01*
X135242866Y-144013333D02*
X135242866Y-144113333D01*
X135242866Y-144113333D02*
X135276200Y-144180000D01*
X135276200Y-144180000D02*
X135342866Y-144213333D01*
X135342866Y-144213333D02*
X135709533Y-144213333D01*
X135709533Y-145379999D02*
X135009533Y-145379999D01*
X135676200Y-145379999D02*
X135709533Y-145313333D01*
X135709533Y-145313333D02*
X135709533Y-145179999D01*
X135709533Y-145179999D02*
X135676200Y-145113333D01*
X135676200Y-145113333D02*
X135642866Y-145079999D01*
X135642866Y-145079999D02*
X135576200Y-145046666D01*
X135576200Y-145046666D02*
X135376200Y-145046666D01*
X135376200Y-145046666D02*
X135309533Y-145079999D01*
X135309533Y-145079999D02*
X135276200Y-145113333D01*
X135276200Y-145113333D02*
X135242866Y-145179999D01*
X135242866Y-145179999D02*
X135242866Y-145313333D01*
X135242866Y-145313333D02*
X135276200Y-145379999D01*
X135676200Y-145979999D02*
X135709533Y-145913332D01*
X135709533Y-145913332D02*
X135709533Y-145779999D01*
X135709533Y-145779999D02*
X135676200Y-145713332D01*
X135676200Y-145713332D02*
X135609533Y-145679999D01*
X135609533Y-145679999D02*
X135342866Y-145679999D01*
X135342866Y-145679999D02*
X135276200Y-145713332D01*
X135276200Y-145713332D02*
X135242866Y-145779999D01*
X135242866Y-145779999D02*
X135242866Y-145913332D01*
X135242866Y-145913332D02*
X135276200Y-145979999D01*
X135276200Y-145979999D02*
X135342866Y-146013332D01*
X135342866Y-146013332D02*
X135409533Y-146013332D01*
X135409533Y-146013332D02*
X135476200Y-145679999D01*
X135709533Y-146313332D02*
X135242866Y-146313332D01*
X135376200Y-146313332D02*
X135309533Y-146346666D01*
X135309533Y-146346666D02*
X135276200Y-146379999D01*
X135276200Y-146379999D02*
X135242866Y-146446666D01*
X135242866Y-146446666D02*
X135242866Y-146513332D01*
X136469866Y-133763336D02*
X136469866Y-133996670D01*
X136836533Y-134096670D02*
X136836533Y-133763336D01*
X136836533Y-133763336D02*
X136136533Y-133763336D01*
X136136533Y-133763336D02*
X136136533Y-134096670D01*
X136836533Y-134396669D02*
X136136533Y-134396669D01*
X136403200Y-134396669D02*
X136369866Y-134463336D01*
X136369866Y-134463336D02*
X136369866Y-134596669D01*
X136369866Y-134596669D02*
X136403200Y-134663336D01*
X136403200Y-134663336D02*
X136436533Y-134696669D01*
X136436533Y-134696669D02*
X136503200Y-134730003D01*
X136503200Y-134730003D02*
X136703200Y-134730003D01*
X136703200Y-134730003D02*
X136769866Y-134696669D01*
X136769866Y-134696669D02*
X136803200Y-134663336D01*
X136803200Y-134663336D02*
X136836533Y-134596669D01*
X136836533Y-134596669D02*
X136836533Y-134463336D01*
X136836533Y-134463336D02*
X136803200Y-134396669D01*
X136803200Y-135296669D02*
X136836533Y-135230002D01*
X136836533Y-135230002D02*
X136836533Y-135096669D01*
X136836533Y-135096669D02*
X136803200Y-135030002D01*
X136803200Y-135030002D02*
X136736533Y-134996669D01*
X136736533Y-134996669D02*
X136469866Y-134996669D01*
X136469866Y-134996669D02*
X136403200Y-135030002D01*
X136403200Y-135030002D02*
X136369866Y-135096669D01*
X136369866Y-135096669D02*
X136369866Y-135230002D01*
X136369866Y-135230002D02*
X136403200Y-135296669D01*
X136403200Y-135296669D02*
X136469866Y-135330002D01*
X136469866Y-135330002D02*
X136536533Y-135330002D01*
X136536533Y-135330002D02*
X136603200Y-134996669D01*
X136836533Y-135630002D02*
X136369866Y-135630002D01*
X136503200Y-135630002D02*
X136436533Y-135663336D01*
X136436533Y-135663336D02*
X136403200Y-135696669D01*
X136403200Y-135696669D02*
X136369866Y-135763336D01*
X136369866Y-135763336D02*
X136369866Y-135830002D01*
X136836533Y-136063335D02*
X136136533Y-136063335D01*
X136569866Y-136130002D02*
X136836533Y-136330002D01*
X136369866Y-136330002D02*
X136636533Y-136063335D01*
X136836533Y-136630002D02*
X136369866Y-136630002D01*
X136503200Y-136630002D02*
X136436533Y-136663336D01*
X136436533Y-136663336D02*
X136403200Y-136696669D01*
X136403200Y-136696669D02*
X136369866Y-136763336D01*
X136369866Y-136763336D02*
X136369866Y-136830002D01*
X136803200Y-137330002D02*
X136836533Y-137263335D01*
X136836533Y-137263335D02*
X136836533Y-137130002D01*
X136836533Y-137130002D02*
X136803200Y-137063335D01*
X136803200Y-137063335D02*
X136736533Y-137030002D01*
X136736533Y-137030002D02*
X136469866Y-137030002D01*
X136469866Y-137030002D02*
X136403200Y-137063335D01*
X136403200Y-137063335D02*
X136369866Y-137130002D01*
X136369866Y-137130002D02*
X136369866Y-137263335D01*
X136369866Y-137263335D02*
X136403200Y-137330002D01*
X136403200Y-137330002D02*
X136469866Y-137363335D01*
X136469866Y-137363335D02*
X136536533Y-137363335D01*
X136536533Y-137363335D02*
X136603200Y-137030002D01*
X136836533Y-137663335D02*
X136369866Y-137663335D01*
X136136533Y-137663335D02*
X136169866Y-137630002D01*
X136169866Y-137630002D02*
X136203200Y-137663335D01*
X136203200Y-137663335D02*
X136169866Y-137696669D01*
X136169866Y-137696669D02*
X136136533Y-137663335D01*
X136136533Y-137663335D02*
X136203200Y-137663335D01*
X136803200Y-137963335D02*
X136836533Y-138030002D01*
X136836533Y-138030002D02*
X136836533Y-138163335D01*
X136836533Y-138163335D02*
X136803200Y-138230002D01*
X136803200Y-138230002D02*
X136736533Y-138263335D01*
X136736533Y-138263335D02*
X136703200Y-138263335D01*
X136703200Y-138263335D02*
X136636533Y-138230002D01*
X136636533Y-138230002D02*
X136603200Y-138163335D01*
X136603200Y-138163335D02*
X136603200Y-138063335D01*
X136603200Y-138063335D02*
X136569866Y-137996668D01*
X136569866Y-137996668D02*
X136503200Y-137963335D01*
X136503200Y-137963335D02*
X136469866Y-137963335D01*
X136469866Y-137963335D02*
X136403200Y-137996668D01*
X136403200Y-137996668D02*
X136369866Y-138063335D01*
X136369866Y-138063335D02*
X136369866Y-138163335D01*
X136369866Y-138163335D02*
X136403200Y-138230002D01*
X136469866Y-139096668D02*
X136469866Y-139330002D01*
X136836533Y-139430002D02*
X136836533Y-139096668D01*
X136836533Y-139096668D02*
X136136533Y-139096668D01*
X136136533Y-139096668D02*
X136136533Y-139430002D01*
X136369866Y-139730001D02*
X136836533Y-139730001D01*
X136436533Y-139730001D02*
X136403200Y-139763335D01*
X136403200Y-139763335D02*
X136369866Y-139830001D01*
X136369866Y-139830001D02*
X136369866Y-139930001D01*
X136369866Y-139930001D02*
X136403200Y-139996668D01*
X136403200Y-139996668D02*
X136469866Y-140030001D01*
X136469866Y-140030001D02*
X136836533Y-140030001D01*
X136369866Y-140663334D02*
X136936533Y-140663334D01*
X136936533Y-140663334D02*
X137003200Y-140630001D01*
X137003200Y-140630001D02*
X137036533Y-140596668D01*
X137036533Y-140596668D02*
X137069866Y-140530001D01*
X137069866Y-140530001D02*
X137069866Y-140430001D01*
X137069866Y-140430001D02*
X137036533Y-140363334D01*
X136803200Y-140663334D02*
X136836533Y-140596668D01*
X136836533Y-140596668D02*
X136836533Y-140463334D01*
X136836533Y-140463334D02*
X136803200Y-140396668D01*
X136803200Y-140396668D02*
X136769866Y-140363334D01*
X136769866Y-140363334D02*
X136703200Y-140330001D01*
X136703200Y-140330001D02*
X136503200Y-140330001D01*
X136503200Y-140330001D02*
X136436533Y-140363334D01*
X136436533Y-140363334D02*
X136403200Y-140396668D01*
X136403200Y-140396668D02*
X136369866Y-140463334D01*
X136369866Y-140463334D02*
X136369866Y-140596668D01*
X136369866Y-140596668D02*
X136403200Y-140663334D01*
X136836533Y-140996667D02*
X136369866Y-140996667D01*
X136136533Y-140996667D02*
X136169866Y-140963334D01*
X136169866Y-140963334D02*
X136203200Y-140996667D01*
X136203200Y-140996667D02*
X136169866Y-141030001D01*
X136169866Y-141030001D02*
X136136533Y-140996667D01*
X136136533Y-140996667D02*
X136203200Y-140996667D01*
X136369866Y-141330000D02*
X136836533Y-141330000D01*
X136436533Y-141330000D02*
X136403200Y-141363334D01*
X136403200Y-141363334D02*
X136369866Y-141430000D01*
X136369866Y-141430000D02*
X136369866Y-141530000D01*
X136369866Y-141530000D02*
X136403200Y-141596667D01*
X136403200Y-141596667D02*
X136469866Y-141630000D01*
X136469866Y-141630000D02*
X136836533Y-141630000D01*
X136803200Y-142230000D02*
X136836533Y-142163333D01*
X136836533Y-142163333D02*
X136836533Y-142030000D01*
X136836533Y-142030000D02*
X136803200Y-141963333D01*
X136803200Y-141963333D02*
X136736533Y-141930000D01*
X136736533Y-141930000D02*
X136469866Y-141930000D01*
X136469866Y-141930000D02*
X136403200Y-141963333D01*
X136403200Y-141963333D02*
X136369866Y-142030000D01*
X136369866Y-142030000D02*
X136369866Y-142163333D01*
X136369866Y-142163333D02*
X136403200Y-142230000D01*
X136403200Y-142230000D02*
X136469866Y-142263333D01*
X136469866Y-142263333D02*
X136536533Y-142263333D01*
X136536533Y-142263333D02*
X136603200Y-141930000D01*
X136803200Y-142830000D02*
X136836533Y-142763333D01*
X136836533Y-142763333D02*
X136836533Y-142630000D01*
X136836533Y-142630000D02*
X136803200Y-142563333D01*
X136803200Y-142563333D02*
X136736533Y-142530000D01*
X136736533Y-142530000D02*
X136469866Y-142530000D01*
X136469866Y-142530000D02*
X136403200Y-142563333D01*
X136403200Y-142563333D02*
X136369866Y-142630000D01*
X136369866Y-142630000D02*
X136369866Y-142763333D01*
X136369866Y-142763333D02*
X136403200Y-142830000D01*
X136403200Y-142830000D02*
X136469866Y-142863333D01*
X136469866Y-142863333D02*
X136536533Y-142863333D01*
X136536533Y-142863333D02*
X136603200Y-142530000D01*
X136836533Y-143163333D02*
X136369866Y-143163333D01*
X136503200Y-143163333D02*
X136436533Y-143196667D01*
X136436533Y-143196667D02*
X136403200Y-143230000D01*
X136403200Y-143230000D02*
X136369866Y-143296667D01*
X136369866Y-143296667D02*
X136369866Y-143363333D01*
X136836533Y-143596666D02*
X136369866Y-143596666D01*
X136136533Y-143596666D02*
X136169866Y-143563333D01*
X136169866Y-143563333D02*
X136203200Y-143596666D01*
X136203200Y-143596666D02*
X136169866Y-143630000D01*
X136169866Y-143630000D02*
X136136533Y-143596666D01*
X136136533Y-143596666D02*
X136203200Y-143596666D01*
X136369866Y-143929999D02*
X136836533Y-143929999D01*
X136436533Y-143929999D02*
X136403200Y-143963333D01*
X136403200Y-143963333D02*
X136369866Y-144029999D01*
X136369866Y-144029999D02*
X136369866Y-144129999D01*
X136369866Y-144129999D02*
X136403200Y-144196666D01*
X136403200Y-144196666D02*
X136469866Y-144229999D01*
X136469866Y-144229999D02*
X136836533Y-144229999D01*
X136369866Y-144863332D02*
X136936533Y-144863332D01*
X136936533Y-144863332D02*
X137003200Y-144829999D01*
X137003200Y-144829999D02*
X137036533Y-144796666D01*
X137036533Y-144796666D02*
X137069866Y-144729999D01*
X137069866Y-144729999D02*
X137069866Y-144629999D01*
X137069866Y-144629999D02*
X137036533Y-144563332D01*
X136803200Y-144863332D02*
X136836533Y-144796666D01*
X136836533Y-144796666D02*
X136836533Y-144663332D01*
X136836533Y-144663332D02*
X136803200Y-144596666D01*
X136803200Y-144596666D02*
X136769866Y-144563332D01*
X136769866Y-144563332D02*
X136703200Y-144529999D01*
X136703200Y-144529999D02*
X136503200Y-144529999D01*
X136503200Y-144529999D02*
X136436533Y-144563332D01*
X136436533Y-144563332D02*
X136403200Y-144596666D01*
X136403200Y-144596666D02*
X136369866Y-144663332D01*
X136369866Y-144663332D02*
X136369866Y-144796666D01*
X136369866Y-144796666D02*
X136403200Y-144863332D01*
X136769866Y-146129998D02*
X136803200Y-146096665D01*
X136803200Y-146096665D02*
X136836533Y-145996665D01*
X136836533Y-145996665D02*
X136836533Y-145929998D01*
X136836533Y-145929998D02*
X136803200Y-145829998D01*
X136803200Y-145829998D02*
X136736533Y-145763332D01*
X136736533Y-145763332D02*
X136669866Y-145729998D01*
X136669866Y-145729998D02*
X136536533Y-145696665D01*
X136536533Y-145696665D02*
X136436533Y-145696665D01*
X136436533Y-145696665D02*
X136303200Y-145729998D01*
X136303200Y-145729998D02*
X136236533Y-145763332D01*
X136236533Y-145763332D02*
X136169866Y-145829998D01*
X136169866Y-145829998D02*
X136136533Y-145929998D01*
X136136533Y-145929998D02*
X136136533Y-145996665D01*
X136136533Y-145996665D02*
X136169866Y-146096665D01*
X136169866Y-146096665D02*
X136203200Y-146129998D01*
X136836533Y-146529998D02*
X136803200Y-146463332D01*
X136803200Y-146463332D02*
X136769866Y-146429998D01*
X136769866Y-146429998D02*
X136703200Y-146396665D01*
X136703200Y-146396665D02*
X136503200Y-146396665D01*
X136503200Y-146396665D02*
X136436533Y-146429998D01*
X136436533Y-146429998D02*
X136403200Y-146463332D01*
X136403200Y-146463332D02*
X136369866Y-146529998D01*
X136369866Y-146529998D02*
X136369866Y-146629998D01*
X136369866Y-146629998D02*
X136403200Y-146696665D01*
X136403200Y-146696665D02*
X136436533Y-146729998D01*
X136436533Y-146729998D02*
X136503200Y-146763332D01*
X136503200Y-146763332D02*
X136703200Y-146763332D01*
X136703200Y-146763332D02*
X136769866Y-146729998D01*
X136769866Y-146729998D02*
X136803200Y-146696665D01*
X136803200Y-146696665D02*
X136836533Y-146629998D01*
X136836533Y-146629998D02*
X136836533Y-146529998D01*
X136836533Y-147063331D02*
X136369866Y-147063331D01*
X136436533Y-147063331D02*
X136403200Y-147096665D01*
X136403200Y-147096665D02*
X136369866Y-147163331D01*
X136369866Y-147163331D02*
X136369866Y-147263331D01*
X136369866Y-147263331D02*
X136403200Y-147329998D01*
X136403200Y-147329998D02*
X136469866Y-147363331D01*
X136469866Y-147363331D02*
X136836533Y-147363331D01*
X136469866Y-147363331D02*
X136403200Y-147396665D01*
X136403200Y-147396665D02*
X136369866Y-147463331D01*
X136369866Y-147463331D02*
X136369866Y-147563331D01*
X136369866Y-147563331D02*
X136403200Y-147629998D01*
X136403200Y-147629998D02*
X136469866Y-147663331D01*
X136469866Y-147663331D02*
X136836533Y-147663331D01*
X136369866Y-147996664D02*
X137069866Y-147996664D01*
X136403200Y-147996664D02*
X136369866Y-148063331D01*
X136369866Y-148063331D02*
X136369866Y-148196664D01*
X136369866Y-148196664D02*
X136403200Y-148263331D01*
X136403200Y-148263331D02*
X136436533Y-148296664D01*
X136436533Y-148296664D02*
X136503200Y-148329998D01*
X136503200Y-148329998D02*
X136703200Y-148329998D01*
X136703200Y-148329998D02*
X136769866Y-148296664D01*
X136769866Y-148296664D02*
X136803200Y-148263331D01*
X136803200Y-148263331D02*
X136836533Y-148196664D01*
X136836533Y-148196664D02*
X136836533Y-148063331D01*
X136836533Y-148063331D02*
X136803200Y-147996664D01*
X136836533Y-148929997D02*
X136469866Y-148929997D01*
X136469866Y-148929997D02*
X136403200Y-148896664D01*
X136403200Y-148896664D02*
X136369866Y-148829997D01*
X136369866Y-148829997D02*
X136369866Y-148696664D01*
X136369866Y-148696664D02*
X136403200Y-148629997D01*
X136803200Y-148929997D02*
X136836533Y-148863331D01*
X136836533Y-148863331D02*
X136836533Y-148696664D01*
X136836533Y-148696664D02*
X136803200Y-148629997D01*
X136803200Y-148629997D02*
X136736533Y-148596664D01*
X136736533Y-148596664D02*
X136669866Y-148596664D01*
X136669866Y-148596664D02*
X136603200Y-148629997D01*
X136603200Y-148629997D02*
X136569866Y-148696664D01*
X136569866Y-148696664D02*
X136569866Y-148863331D01*
X136569866Y-148863331D02*
X136536533Y-148929997D01*
X136369866Y-149263330D02*
X136836533Y-149263330D01*
X136436533Y-149263330D02*
X136403200Y-149296664D01*
X136403200Y-149296664D02*
X136369866Y-149363330D01*
X136369866Y-149363330D02*
X136369866Y-149463330D01*
X136369866Y-149463330D02*
X136403200Y-149529997D01*
X136403200Y-149529997D02*
X136469866Y-149563330D01*
X136469866Y-149563330D02*
X136836533Y-149563330D01*
X136369866Y-149829997D02*
X136836533Y-149996663D01*
X136369866Y-150163330D02*
X136836533Y-149996663D01*
X136836533Y-149996663D02*
X137003200Y-149929997D01*
X137003200Y-149929997D02*
X137036533Y-149896663D01*
X137036533Y-149896663D02*
X137069866Y-149829997D01*
X128542856Y-137569771D02*
X128542856Y-138055485D01*
X128542856Y-138055485D02*
X128514285Y-138112628D01*
X128514285Y-138112628D02*
X128485714Y-138141200D01*
X128485714Y-138141200D02*
X128428571Y-138169771D01*
X128428571Y-138169771D02*
X128314285Y-138169771D01*
X128314285Y-138169771D02*
X128257142Y-138141200D01*
X128257142Y-138141200D02*
X128228571Y-138112628D01*
X128228571Y-138112628D02*
X128199999Y-138055485D01*
X128199999Y-138055485D02*
X128199999Y-137569771D01*
X127600000Y-138169771D02*
X127942857Y-138169771D01*
X127771428Y-138169771D02*
X127771428Y-137569771D01*
X127771428Y-137569771D02*
X127828571Y-137655485D01*
X127828571Y-137655485D02*
X127885714Y-137712628D01*
X127885714Y-137712628D02*
X127942857Y-137741200D01*
X127028571Y-138169771D02*
X127371428Y-138169771D01*
X127199999Y-138169771D02*
X127199999Y-137569771D01*
X127199999Y-137569771D02*
X127257142Y-137655485D01*
X127257142Y-137655485D02*
X127314285Y-137712628D01*
X127314285Y-137712628D02*
X127371428Y-137741200D01*
X129549771Y-90997143D02*
X130035485Y-90997143D01*
X130035485Y-90997143D02*
X130092628Y-91025714D01*
X130092628Y-91025714D02*
X130121200Y-91054286D01*
X130121200Y-91054286D02*
X130149771Y-91111428D01*
X130149771Y-91111428D02*
X130149771Y-91225714D01*
X130149771Y-91225714D02*
X130121200Y-91282857D01*
X130121200Y-91282857D02*
X130092628Y-91311428D01*
X130092628Y-91311428D02*
X130035485Y-91340000D01*
X130035485Y-91340000D02*
X129549771Y-91340000D01*
X130149771Y-91939999D02*
X130149771Y-91597142D01*
X130149771Y-91768571D02*
X129549771Y-91768571D01*
X129549771Y-91768571D02*
X129635485Y-91711428D01*
X129635485Y-91711428D02*
X129692628Y-91654285D01*
X129692628Y-91654285D02*
X129721200Y-91597142D01*
X129749771Y-92454286D02*
X130149771Y-92454286D01*
X129521200Y-92311428D02*
X129949771Y-92168571D01*
X129949771Y-92168571D02*
X129949771Y-92540000D01*
X128742857Y-137159580D02*
X128790476Y-137207200D01*
X128790476Y-137207200D02*
X128933333Y-137254819D01*
X128933333Y-137254819D02*
X129028571Y-137254819D01*
X129028571Y-137254819D02*
X129171428Y-137207200D01*
X129171428Y-137207200D02*
X129266666Y-137111961D01*
X129266666Y-137111961D02*
X129314285Y-137016723D01*
X129314285Y-137016723D02*
X129361904Y-136826247D01*
X129361904Y-136826247D02*
X129361904Y-136683390D01*
X129361904Y-136683390D02*
X129314285Y-136492914D01*
X129314285Y-136492914D02*
X129266666Y-136397676D01*
X129266666Y-136397676D02*
X129171428Y-136302438D01*
X129171428Y-136302438D02*
X129028571Y-136254819D01*
X129028571Y-136254819D02*
X128933333Y-136254819D01*
X128933333Y-136254819D02*
X128790476Y-136302438D01*
X128790476Y-136302438D02*
X128742857Y-136350057D01*
X128361904Y-136350057D02*
X128314285Y-136302438D01*
X128314285Y-136302438D02*
X128219047Y-136254819D01*
X128219047Y-136254819D02*
X127980952Y-136254819D01*
X127980952Y-136254819D02*
X127885714Y-136302438D01*
X127885714Y-136302438D02*
X127838095Y-136350057D01*
X127838095Y-136350057D02*
X127790476Y-136445295D01*
X127790476Y-136445295D02*
X127790476Y-136540533D01*
X127790476Y-136540533D02*
X127838095Y-136683390D01*
X127838095Y-136683390D02*
X128409523Y-137254819D01*
X128409523Y-137254819D02*
X127790476Y-137254819D01*
X126933333Y-136254819D02*
X127123809Y-136254819D01*
X127123809Y-136254819D02*
X127219047Y-136302438D01*
X127219047Y-136302438D02*
X127266666Y-136350057D01*
X127266666Y-136350057D02*
X127361904Y-136492914D01*
X127361904Y-136492914D02*
X127409523Y-136683390D01*
X127409523Y-136683390D02*
X127409523Y-137064342D01*
X127409523Y-137064342D02*
X127361904Y-137159580D01*
X127361904Y-137159580D02*
X127314285Y-137207200D01*
X127314285Y-137207200D02*
X127219047Y-137254819D01*
X127219047Y-137254819D02*
X127028571Y-137254819D01*
X127028571Y-137254819D02*
X126933333Y-137207200D01*
X126933333Y-137207200D02*
X126885714Y-137159580D01*
X126885714Y-137159580D02*
X126838095Y-137064342D01*
X126838095Y-137064342D02*
X126838095Y-136826247D01*
X126838095Y-136826247D02*
X126885714Y-136731009D01*
X126885714Y-136731009D02*
X126933333Y-136683390D01*
X126933333Y-136683390D02*
X127028571Y-136635771D01*
X127028571Y-136635771D02*
X127219047Y-136635771D01*
X127219047Y-136635771D02*
X127314285Y-136683390D01*
X127314285Y-136683390D02*
X127361904Y-136731009D01*
X127361904Y-136731009D02*
X127409523Y-136826247D01*
X131489580Y-133457142D02*
X131537200Y-133409523D01*
X131537200Y-133409523D02*
X131584819Y-133266666D01*
X131584819Y-133266666D02*
X131584819Y-133171428D01*
X131584819Y-133171428D02*
X131537200Y-133028571D01*
X131537200Y-133028571D02*
X131441961Y-132933333D01*
X131441961Y-132933333D02*
X131346723Y-132885714D01*
X131346723Y-132885714D02*
X131156247Y-132838095D01*
X131156247Y-132838095D02*
X131013390Y-132838095D01*
X131013390Y-132838095D02*
X130822914Y-132885714D01*
X130822914Y-132885714D02*
X130727676Y-132933333D01*
X130727676Y-132933333D02*
X130632438Y-133028571D01*
X130632438Y-133028571D02*
X130584819Y-133171428D01*
X130584819Y-133171428D02*
X130584819Y-133266666D01*
X130584819Y-133266666D02*
X130632438Y-133409523D01*
X130632438Y-133409523D02*
X130680057Y-133457142D01*
X130584819Y-133790476D02*
X130584819Y-134409523D01*
X130584819Y-134409523D02*
X130965771Y-134076190D01*
X130965771Y-134076190D02*
X130965771Y-134219047D01*
X130965771Y-134219047D02*
X131013390Y-134314285D01*
X131013390Y-134314285D02*
X131061009Y-134361904D01*
X131061009Y-134361904D02*
X131156247Y-134409523D01*
X131156247Y-134409523D02*
X131394342Y-134409523D01*
X131394342Y-134409523D02*
X131489580Y-134361904D01*
X131489580Y-134361904D02*
X131537200Y-134314285D01*
X131537200Y-134314285D02*
X131584819Y-134219047D01*
X131584819Y-134219047D02*
X131584819Y-133933333D01*
X131584819Y-133933333D02*
X131537200Y-133838095D01*
X131537200Y-133838095D02*
X131489580Y-133790476D01*
X130584819Y-135028571D02*
X130584819Y-135123809D01*
X130584819Y-135123809D02*
X130632438Y-135219047D01*
X130632438Y-135219047D02*
X130680057Y-135266666D01*
X130680057Y-135266666D02*
X130775295Y-135314285D01*
X130775295Y-135314285D02*
X130965771Y-135361904D01*
X130965771Y-135361904D02*
X131203866Y-135361904D01*
X131203866Y-135361904D02*
X131394342Y-135314285D01*
X131394342Y-135314285D02*
X131489580Y-135266666D01*
X131489580Y-135266666D02*
X131537200Y-135219047D01*
X131537200Y-135219047D02*
X131584819Y-135123809D01*
X131584819Y-135123809D02*
X131584819Y-135028571D01*
X131584819Y-135028571D02*
X131537200Y-134933333D01*
X131537200Y-134933333D02*
X131489580Y-134885714D01*
X131489580Y-134885714D02*
X131394342Y-134838095D01*
X131394342Y-134838095D02*
X131203866Y-134790476D01*
X131203866Y-134790476D02*
X130965771Y-134790476D01*
X130965771Y-134790476D02*
X130775295Y-134838095D01*
X130775295Y-134838095D02*
X130680057Y-134885714D01*
X130680057Y-134885714D02*
X130632438Y-134933333D01*
X130632438Y-134933333D02*
X130584819Y-135028571D01*
X130399580Y-144987142D02*
X130447200Y-144939523D01*
X130447200Y-144939523D02*
X130494819Y-144796666D01*
X130494819Y-144796666D02*
X130494819Y-144701428D01*
X130494819Y-144701428D02*
X130447200Y-144558571D01*
X130447200Y-144558571D02*
X130351961Y-144463333D01*
X130351961Y-144463333D02*
X130256723Y-144415714D01*
X130256723Y-144415714D02*
X130066247Y-144368095D01*
X130066247Y-144368095D02*
X129923390Y-144368095D01*
X129923390Y-144368095D02*
X129732914Y-144415714D01*
X129732914Y-144415714D02*
X129637676Y-144463333D01*
X129637676Y-144463333D02*
X129542438Y-144558571D01*
X129542438Y-144558571D02*
X129494819Y-144701428D01*
X129494819Y-144701428D02*
X129494819Y-144796666D01*
X129494819Y-144796666D02*
X129542438Y-144939523D01*
X129542438Y-144939523D02*
X129590057Y-144987142D01*
X129590057Y-145368095D02*
X129542438Y-145415714D01*
X129542438Y-145415714D02*
X129494819Y-145510952D01*
X129494819Y-145510952D02*
X129494819Y-145749047D01*
X129494819Y-145749047D02*
X129542438Y-145844285D01*
X129542438Y-145844285D02*
X129590057Y-145891904D01*
X129590057Y-145891904D02*
X129685295Y-145939523D01*
X129685295Y-145939523D02*
X129780533Y-145939523D01*
X129780533Y-145939523D02*
X129923390Y-145891904D01*
X129923390Y-145891904D02*
X130494819Y-145320476D01*
X130494819Y-145320476D02*
X130494819Y-145939523D01*
X130494819Y-146891904D02*
X130494819Y-146320476D01*
X130494819Y-146606190D02*
X129494819Y-146606190D01*
X129494819Y-146606190D02*
X129637676Y-146510952D01*
X129637676Y-146510952D02*
X129732914Y-146415714D01*
X129732914Y-146415714D02*
X129780533Y-146320476D01*
X130112857Y-141209580D02*
X130160476Y-141257200D01*
X130160476Y-141257200D02*
X130303333Y-141304819D01*
X130303333Y-141304819D02*
X130398571Y-141304819D01*
X130398571Y-141304819D02*
X130541428Y-141257200D01*
X130541428Y-141257200D02*
X130636666Y-141161961D01*
X130636666Y-141161961D02*
X130684285Y-141066723D01*
X130684285Y-141066723D02*
X130731904Y-140876247D01*
X130731904Y-140876247D02*
X130731904Y-140733390D01*
X130731904Y-140733390D02*
X130684285Y-140542914D01*
X130684285Y-140542914D02*
X130636666Y-140447676D01*
X130636666Y-140447676D02*
X130541428Y-140352438D01*
X130541428Y-140352438D02*
X130398571Y-140304819D01*
X130398571Y-140304819D02*
X130303333Y-140304819D01*
X130303333Y-140304819D02*
X130160476Y-140352438D01*
X130160476Y-140352438D02*
X130112857Y-140400057D01*
X129731904Y-140400057D02*
X129684285Y-140352438D01*
X129684285Y-140352438D02*
X129589047Y-140304819D01*
X129589047Y-140304819D02*
X129350952Y-140304819D01*
X129350952Y-140304819D02*
X129255714Y-140352438D01*
X129255714Y-140352438D02*
X129208095Y-140400057D01*
X129208095Y-140400057D02*
X129160476Y-140495295D01*
X129160476Y-140495295D02*
X129160476Y-140590533D01*
X129160476Y-140590533D02*
X129208095Y-140733390D01*
X129208095Y-140733390D02*
X129779523Y-141304819D01*
X129779523Y-141304819D02*
X129160476Y-141304819D01*
X128255714Y-140304819D02*
X128731904Y-140304819D01*
X128731904Y-140304819D02*
X128779523Y-140781009D01*
X128779523Y-140781009D02*
X128731904Y-140733390D01*
X128731904Y-140733390D02*
X128636666Y-140685771D01*
X128636666Y-140685771D02*
X128398571Y-140685771D01*
X128398571Y-140685771D02*
X128303333Y-140733390D01*
X128303333Y-140733390D02*
X128255714Y-140781009D01*
X128255714Y-140781009D02*
X128208095Y-140876247D01*
X128208095Y-140876247D02*
X128208095Y-141114342D01*
X128208095Y-141114342D02*
X128255714Y-141209580D01*
X128255714Y-141209580D02*
X128303333Y-141257200D01*
X128303333Y-141257200D02*
X128398571Y-141304819D01*
X128398571Y-141304819D02*
X128636666Y-141304819D01*
X128636666Y-141304819D02*
X128731904Y-141257200D01*
X128731904Y-141257200D02*
X128779523Y-141209580D01*
X121022857Y-136654819D02*
X121356190Y-136178628D01*
X121594285Y-136654819D02*
X121594285Y-135654819D01*
X121594285Y-135654819D02*
X121213333Y-135654819D01*
X121213333Y-135654819D02*
X121118095Y-135702438D01*
X121118095Y-135702438D02*
X121070476Y-135750057D01*
X121070476Y-135750057D02*
X121022857Y-135845295D01*
X121022857Y-135845295D02*
X121022857Y-135988152D01*
X121022857Y-135988152D02*
X121070476Y-136083390D01*
X121070476Y-136083390D02*
X121118095Y-136131009D01*
X121118095Y-136131009D02*
X121213333Y-136178628D01*
X121213333Y-136178628D02*
X121594285Y-136178628D01*
X120070476Y-136654819D02*
X120641904Y-136654819D01*
X120356190Y-136654819D02*
X120356190Y-135654819D01*
X120356190Y-135654819D02*
X120451428Y-135797676D01*
X120451428Y-135797676D02*
X120546666Y-135892914D01*
X120546666Y-135892914D02*
X120641904Y-135940533D01*
X119689523Y-135750057D02*
X119641904Y-135702438D01*
X119641904Y-135702438D02*
X119546666Y-135654819D01*
X119546666Y-135654819D02*
X119308571Y-135654819D01*
X119308571Y-135654819D02*
X119213333Y-135702438D01*
X119213333Y-135702438D02*
X119165714Y-135750057D01*
X119165714Y-135750057D02*
X119118095Y-135845295D01*
X119118095Y-135845295D02*
X119118095Y-135940533D01*
X119118095Y-135940533D02*
X119165714Y-136083390D01*
X119165714Y-136083390D02*
X119737142Y-136654819D01*
X119737142Y-136654819D02*
X119118095Y-136654819D01*
X119459580Y-132757142D02*
X119507200Y-132709523D01*
X119507200Y-132709523D02*
X119554819Y-132566666D01*
X119554819Y-132566666D02*
X119554819Y-132471428D01*
X119554819Y-132471428D02*
X119507200Y-132328571D01*
X119507200Y-132328571D02*
X119411961Y-132233333D01*
X119411961Y-132233333D02*
X119316723Y-132185714D01*
X119316723Y-132185714D02*
X119126247Y-132138095D01*
X119126247Y-132138095D02*
X118983390Y-132138095D01*
X118983390Y-132138095D02*
X118792914Y-132185714D01*
X118792914Y-132185714D02*
X118697676Y-132233333D01*
X118697676Y-132233333D02*
X118602438Y-132328571D01*
X118602438Y-132328571D02*
X118554819Y-132471428D01*
X118554819Y-132471428D02*
X118554819Y-132566666D01*
X118554819Y-132566666D02*
X118602438Y-132709523D01*
X118602438Y-132709523D02*
X118650057Y-132757142D01*
X118650057Y-133138095D02*
X118602438Y-133185714D01*
X118602438Y-133185714D02*
X118554819Y-133280952D01*
X118554819Y-133280952D02*
X118554819Y-133519047D01*
X118554819Y-133519047D02*
X118602438Y-133614285D01*
X118602438Y-133614285D02*
X118650057Y-133661904D01*
X118650057Y-133661904D02*
X118745295Y-133709523D01*
X118745295Y-133709523D02*
X118840533Y-133709523D01*
X118840533Y-133709523D02*
X118983390Y-133661904D01*
X118983390Y-133661904D02*
X119554819Y-133090476D01*
X119554819Y-133090476D02*
X119554819Y-133709523D01*
X118650057Y-134090476D02*
X118602438Y-134138095D01*
X118602438Y-134138095D02*
X118554819Y-134233333D01*
X118554819Y-134233333D02*
X118554819Y-134471428D01*
X118554819Y-134471428D02*
X118602438Y-134566666D01*
X118602438Y-134566666D02*
X118650057Y-134614285D01*
X118650057Y-134614285D02*
X118745295Y-134661904D01*
X118745295Y-134661904D02*
X118840533Y-134661904D01*
X118840533Y-134661904D02*
X118983390Y-134614285D01*
X118983390Y-134614285D02*
X119554819Y-134042857D01*
X119554819Y-134042857D02*
X119554819Y-134661904D01*
X123442857Y-149654819D02*
X123776190Y-149178628D01*
X124014285Y-149654819D02*
X124014285Y-148654819D01*
X124014285Y-148654819D02*
X123633333Y-148654819D01*
X123633333Y-148654819D02*
X123538095Y-148702438D01*
X123538095Y-148702438D02*
X123490476Y-148750057D01*
X123490476Y-148750057D02*
X123442857Y-148845295D01*
X123442857Y-148845295D02*
X123442857Y-148988152D01*
X123442857Y-148988152D02*
X123490476Y-149083390D01*
X123490476Y-149083390D02*
X123538095Y-149131009D01*
X123538095Y-149131009D02*
X123633333Y-149178628D01*
X123633333Y-149178628D02*
X124014285Y-149178628D01*
X122490476Y-149654819D02*
X123061904Y-149654819D01*
X122776190Y-149654819D02*
X122776190Y-148654819D01*
X122776190Y-148654819D02*
X122871428Y-148797676D01*
X122871428Y-148797676D02*
X122966666Y-148892914D01*
X122966666Y-148892914D02*
X123061904Y-148940533D01*
X122157142Y-148654819D02*
X121538095Y-148654819D01*
X121538095Y-148654819D02*
X121871428Y-149035771D01*
X121871428Y-149035771D02*
X121728571Y-149035771D01*
X121728571Y-149035771D02*
X121633333Y-149083390D01*
X121633333Y-149083390D02*
X121585714Y-149131009D01*
X121585714Y-149131009D02*
X121538095Y-149226247D01*
X121538095Y-149226247D02*
X121538095Y-149464342D01*
X121538095Y-149464342D02*
X121585714Y-149559580D01*
X121585714Y-149559580D02*
X121633333Y-149607200D01*
X121633333Y-149607200D02*
X121728571Y-149654819D01*
X121728571Y-149654819D02*
X122014285Y-149654819D01*
X122014285Y-149654819D02*
X122109523Y-149607200D01*
X122109523Y-149607200D02*
X122157142Y-149559580D01*
X125616190Y-131118628D02*
X125616190Y-131594819D01*
X125949523Y-130594819D02*
X125616190Y-131118628D01*
X125616190Y-131118628D02*
X125282857Y-130594819D01*
X124997142Y-130690057D02*
X124949523Y-130642438D01*
X124949523Y-130642438D02*
X124854285Y-130594819D01*
X124854285Y-130594819D02*
X124616190Y-130594819D01*
X124616190Y-130594819D02*
X124520952Y-130642438D01*
X124520952Y-130642438D02*
X124473333Y-130690057D01*
X124473333Y-130690057D02*
X124425714Y-130785295D01*
X124425714Y-130785295D02*
X124425714Y-130880533D01*
X124425714Y-130880533D02*
X124473333Y-131023390D01*
X124473333Y-131023390D02*
X125044761Y-131594819D01*
X125044761Y-131594819D02*
X124425714Y-131594819D01*
X125959580Y-144977142D02*
X126007200Y-144929523D01*
X126007200Y-144929523D02*
X126054819Y-144786666D01*
X126054819Y-144786666D02*
X126054819Y-144691428D01*
X126054819Y-144691428D02*
X126007200Y-144548571D01*
X126007200Y-144548571D02*
X125911961Y-144453333D01*
X125911961Y-144453333D02*
X125816723Y-144405714D01*
X125816723Y-144405714D02*
X125626247Y-144358095D01*
X125626247Y-144358095D02*
X125483390Y-144358095D01*
X125483390Y-144358095D02*
X125292914Y-144405714D01*
X125292914Y-144405714D02*
X125197676Y-144453333D01*
X125197676Y-144453333D02*
X125102438Y-144548571D01*
X125102438Y-144548571D02*
X125054819Y-144691428D01*
X125054819Y-144691428D02*
X125054819Y-144786666D01*
X125054819Y-144786666D02*
X125102438Y-144929523D01*
X125102438Y-144929523D02*
X125150057Y-144977142D01*
X125150057Y-145358095D02*
X125102438Y-145405714D01*
X125102438Y-145405714D02*
X125054819Y-145500952D01*
X125054819Y-145500952D02*
X125054819Y-145739047D01*
X125054819Y-145739047D02*
X125102438Y-145834285D01*
X125102438Y-145834285D02*
X125150057Y-145881904D01*
X125150057Y-145881904D02*
X125245295Y-145929523D01*
X125245295Y-145929523D02*
X125340533Y-145929523D01*
X125340533Y-145929523D02*
X125483390Y-145881904D01*
X125483390Y-145881904D02*
X126054819Y-145310476D01*
X126054819Y-145310476D02*
X126054819Y-145929523D01*
X125054819Y-146262857D02*
X125054819Y-146881904D01*
X125054819Y-146881904D02*
X125435771Y-146548571D01*
X125435771Y-146548571D02*
X125435771Y-146691428D01*
X125435771Y-146691428D02*
X125483390Y-146786666D01*
X125483390Y-146786666D02*
X125531009Y-146834285D01*
X125531009Y-146834285D02*
X125626247Y-146881904D01*
X125626247Y-146881904D02*
X125864342Y-146881904D01*
X125864342Y-146881904D02*
X125959580Y-146834285D01*
X125959580Y-146834285D02*
X126007200Y-146786666D01*
X126007200Y-146786666D02*
X126054819Y-146691428D01*
X126054819Y-146691428D02*
X126054819Y-146405714D01*
X126054819Y-146405714D02*
X126007200Y-146310476D01*
X126007200Y-146310476D02*
X125959580Y-146262857D01*
X123542857Y-148059580D02*
X123590476Y-148107200D01*
X123590476Y-148107200D02*
X123733333Y-148154819D01*
X123733333Y-148154819D02*
X123828571Y-148154819D01*
X123828571Y-148154819D02*
X123971428Y-148107200D01*
X123971428Y-148107200D02*
X124066666Y-148011961D01*
X124066666Y-148011961D02*
X124114285Y-147916723D01*
X124114285Y-147916723D02*
X124161904Y-147726247D01*
X124161904Y-147726247D02*
X124161904Y-147583390D01*
X124161904Y-147583390D02*
X124114285Y-147392914D01*
X124114285Y-147392914D02*
X124066666Y-147297676D01*
X124066666Y-147297676D02*
X123971428Y-147202438D01*
X123971428Y-147202438D02*
X123828571Y-147154819D01*
X123828571Y-147154819D02*
X123733333Y-147154819D01*
X123733333Y-147154819D02*
X123590476Y-147202438D01*
X123590476Y-147202438D02*
X123542857Y-147250057D01*
X123161904Y-147250057D02*
X123114285Y-147202438D01*
X123114285Y-147202438D02*
X123019047Y-147154819D01*
X123019047Y-147154819D02*
X122780952Y-147154819D01*
X122780952Y-147154819D02*
X122685714Y-147202438D01*
X122685714Y-147202438D02*
X122638095Y-147250057D01*
X122638095Y-147250057D02*
X122590476Y-147345295D01*
X122590476Y-147345295D02*
X122590476Y-147440533D01*
X122590476Y-147440533D02*
X122638095Y-147583390D01*
X122638095Y-147583390D02*
X123209523Y-148154819D01*
X123209523Y-148154819D02*
X122590476Y-148154819D01*
X122257142Y-147154819D02*
X121590476Y-147154819D01*
X121590476Y-147154819D02*
X122019047Y-148154819D01*
X119519580Y-143047142D02*
X119567200Y-142999523D01*
X119567200Y-142999523D02*
X119614819Y-142856666D01*
X119614819Y-142856666D02*
X119614819Y-142761428D01*
X119614819Y-142761428D02*
X119567200Y-142618571D01*
X119567200Y-142618571D02*
X119471961Y-142523333D01*
X119471961Y-142523333D02*
X119376723Y-142475714D01*
X119376723Y-142475714D02*
X119186247Y-142428095D01*
X119186247Y-142428095D02*
X119043390Y-142428095D01*
X119043390Y-142428095D02*
X118852914Y-142475714D01*
X118852914Y-142475714D02*
X118757676Y-142523333D01*
X118757676Y-142523333D02*
X118662438Y-142618571D01*
X118662438Y-142618571D02*
X118614819Y-142761428D01*
X118614819Y-142761428D02*
X118614819Y-142856666D01*
X118614819Y-142856666D02*
X118662438Y-142999523D01*
X118662438Y-142999523D02*
X118710057Y-143047142D01*
X118710057Y-143428095D02*
X118662438Y-143475714D01*
X118662438Y-143475714D02*
X118614819Y-143570952D01*
X118614819Y-143570952D02*
X118614819Y-143809047D01*
X118614819Y-143809047D02*
X118662438Y-143904285D01*
X118662438Y-143904285D02*
X118710057Y-143951904D01*
X118710057Y-143951904D02*
X118805295Y-143999523D01*
X118805295Y-143999523D02*
X118900533Y-143999523D01*
X118900533Y-143999523D02*
X119043390Y-143951904D01*
X119043390Y-143951904D02*
X119614819Y-143380476D01*
X119614819Y-143380476D02*
X119614819Y-143999523D01*
X118948152Y-144856666D02*
X119614819Y-144856666D01*
X118567200Y-144618571D02*
X119281485Y-144380476D01*
X119281485Y-144380476D02*
X119281485Y-144999523D01*
X121159580Y-143057142D02*
X121207200Y-143009523D01*
X121207200Y-143009523D02*
X121254819Y-142866666D01*
X121254819Y-142866666D02*
X121254819Y-142771428D01*
X121254819Y-142771428D02*
X121207200Y-142628571D01*
X121207200Y-142628571D02*
X121111961Y-142533333D01*
X121111961Y-142533333D02*
X121016723Y-142485714D01*
X121016723Y-142485714D02*
X120826247Y-142438095D01*
X120826247Y-142438095D02*
X120683390Y-142438095D01*
X120683390Y-142438095D02*
X120492914Y-142485714D01*
X120492914Y-142485714D02*
X120397676Y-142533333D01*
X120397676Y-142533333D02*
X120302438Y-142628571D01*
X120302438Y-142628571D02*
X120254819Y-142771428D01*
X120254819Y-142771428D02*
X120254819Y-142866666D01*
X120254819Y-142866666D02*
X120302438Y-143009523D01*
X120302438Y-143009523D02*
X120350057Y-143057142D01*
X120350057Y-143438095D02*
X120302438Y-143485714D01*
X120302438Y-143485714D02*
X120254819Y-143580952D01*
X120254819Y-143580952D02*
X120254819Y-143819047D01*
X120254819Y-143819047D02*
X120302438Y-143914285D01*
X120302438Y-143914285D02*
X120350057Y-143961904D01*
X120350057Y-143961904D02*
X120445295Y-144009523D01*
X120445295Y-144009523D02*
X120540533Y-144009523D01*
X120540533Y-144009523D02*
X120683390Y-143961904D01*
X120683390Y-143961904D02*
X121254819Y-143390476D01*
X121254819Y-143390476D02*
X121254819Y-144009523D01*
X120254819Y-144628571D02*
X120254819Y-144723809D01*
X120254819Y-144723809D02*
X120302438Y-144819047D01*
X120302438Y-144819047D02*
X120350057Y-144866666D01*
X120350057Y-144866666D02*
X120445295Y-144914285D01*
X120445295Y-144914285D02*
X120635771Y-144961904D01*
X120635771Y-144961904D02*
X120873866Y-144961904D01*
X120873866Y-144961904D02*
X121064342Y-144914285D01*
X121064342Y-144914285D02*
X121159580Y-144866666D01*
X121159580Y-144866666D02*
X121207200Y-144819047D01*
X121207200Y-144819047D02*
X121254819Y-144723809D01*
X121254819Y-144723809D02*
X121254819Y-144628571D01*
X121254819Y-144628571D02*
X121207200Y-144533333D01*
X121207200Y-144533333D02*
X121159580Y-144485714D01*
X121159580Y-144485714D02*
X121064342Y-144438095D01*
X121064342Y-144438095D02*
X120873866Y-144390476D01*
X120873866Y-144390476D02*
X120635771Y-144390476D01*
X120635771Y-144390476D02*
X120445295Y-144438095D01*
X120445295Y-144438095D02*
X120350057Y-144485714D01*
X120350057Y-144485714D02*
X120302438Y-144533333D01*
X120302438Y-144533333D02*
X120254819Y-144628571D01*
D11*
X122880000Y-139120000D02*
X122880000Y-139670000D01*
X122880000Y-139120000D02*
X123430000Y-139120000D01*
X122880000Y-143120000D02*
X122880000Y-142570000D01*
X122880000Y-143120000D02*
X123430000Y-143120000D01*
X126880000Y-139120000D02*
X126330000Y-139120000D01*
X126880000Y-139120000D02*
X126880000Y-139670000D01*
X126880000Y-143120000D02*
X126330000Y-143120000D01*
X126880000Y-143120000D02*
X126880000Y-142570000D01*
D12*
X121870000Y-142120000D02*
G75*
G03*
X121870000Y-142120000I-100000J0D01*
G01*
D13*
X119555000Y-130265000D02*
X119555000Y-130265000D01*
X119555000Y-130265000D02*
X140205000Y-130265000D01*
X140205000Y-130265000D02*
X119555000Y-130265000D01*
X140205000Y-130265000D02*
X140205000Y-130265000D01*
X119555000Y-53215000D02*
X119555000Y-53215000D01*
X119555000Y-53215000D02*
X140205000Y-53215000D01*
X140205000Y-53215000D02*
X119555000Y-53215000D01*
X140205000Y-53215000D02*
X140205000Y-53215000D01*
D12*
X129780000Y-52720000D02*
X129780000Y-52720000D01*
X129980000Y-52720000D02*
X129980000Y-52720000D01*
X129980000Y-52720000D02*
G75*
G03*
X129780000Y-52720000I-100000J0D01*
G01*
X129780000Y-52720000D02*
G75*
G03*
X129980000Y-52720000I100000J0D01*
G01*
D14*
X124946267Y-137510000D02*
X124653733Y-137510000D01*
X124946267Y-136490000D02*
X124653733Y-136490000D01*
X129190000Y-134246267D02*
X129190000Y-133953733D01*
X130210000Y-134246267D02*
X130210000Y-133953733D01*
X128890000Y-145473733D02*
X128890000Y-145766267D01*
X127870000Y-145473733D02*
X127870000Y-145766267D01*
X129313733Y-138740000D02*
X129606267Y-138740000D01*
X129313733Y-139760000D02*
X129606267Y-139760000D01*
X120145276Y-137077500D02*
X120654724Y-137077500D01*
X120145276Y-138122500D02*
X120654724Y-138122500D01*
X119890000Y-133546267D02*
X119890000Y-133253733D01*
X120910000Y-133546267D02*
X120910000Y-133253733D01*
D15*
X126191185Y-47425989D02*
X126216906Y-47441687D01*
X126243557Y-47463267D01*
X126243557Y-48110724D01*
X126216906Y-48132304D01*
X126185546Y-48149779D01*
X126149745Y-48150615D01*
X126118307Y-48130122D01*
X126114431Y-48125456D01*
X126108965Y-48115989D01*
X126104758Y-48102307D01*
X126101646Y-48081788D01*
X126099466Y-48051808D01*
X126098055Y-48009744D01*
X126097250Y-47952972D01*
X126096886Y-47878870D01*
X126096801Y-47784813D01*
X126096801Y-47463267D01*
X126123452Y-47441687D01*
X126147165Y-47426917D01*
X126170179Y-47420107D01*
X126191185Y-47425989D01*
G36*
X126191185Y-47425989D02*
G01*
X126216906Y-47441687D01*
X126243557Y-47463267D01*
X126243557Y-48110724D01*
X126216906Y-48132304D01*
X126185546Y-48149779D01*
X126149745Y-48150615D01*
X126118307Y-48130122D01*
X126114431Y-48125456D01*
X126108965Y-48115989D01*
X126104758Y-48102307D01*
X126101646Y-48081788D01*
X126099466Y-48051808D01*
X126098055Y-48009744D01*
X126097250Y-47952972D01*
X126096886Y-47878870D01*
X126096801Y-47784813D01*
X126096801Y-47463267D01*
X126123452Y-47441687D01*
X126147165Y-47426917D01*
X126170179Y-47420107D01*
X126191185Y-47425989D01*
G37*
X133321916Y-47424503D02*
X133356070Y-47447816D01*
X133383779Y-47475525D01*
X133383779Y-47788577D01*
X133383738Y-47872607D01*
X133383480Y-47946829D01*
X133382809Y-48003581D01*
X133381531Y-48045552D01*
X133379452Y-48075429D01*
X133376378Y-48095901D01*
X133372113Y-48109654D01*
X133366463Y-48119377D01*
X133359234Y-48127757D01*
X133327770Y-48149221D01*
X133292605Y-48150987D01*
X133259601Y-48131307D01*
X133254295Y-48125438D01*
X133248845Y-48116354D01*
X133244679Y-48103013D01*
X133241625Y-48082797D01*
X133239511Y-48053089D01*
X133238165Y-48011272D01*
X133237417Y-47954729D01*
X133237093Y-47880842D01*
X133237024Y-47786996D01*
X133237063Y-47711334D01*
X133237318Y-47633425D01*
X133237962Y-47573415D01*
X133239166Y-47528688D01*
X133241103Y-47496625D01*
X133243943Y-47474611D01*
X133247858Y-47460027D01*
X133253021Y-47450258D01*
X133259601Y-47442685D01*
X133288785Y-47423663D01*
X133321916Y-47424503D01*
G36*
X133321916Y-47424503D02*
G01*
X133356070Y-47447816D01*
X133383779Y-47475525D01*
X133383779Y-47788577D01*
X133383738Y-47872607D01*
X133383480Y-47946829D01*
X133382809Y-48003581D01*
X133381531Y-48045552D01*
X133379452Y-48075429D01*
X133376378Y-48095901D01*
X133372113Y-48109654D01*
X133366463Y-48119377D01*
X133359234Y-48127757D01*
X133327770Y-48149221D01*
X133292605Y-48150987D01*
X133259601Y-48131307D01*
X133254295Y-48125438D01*
X133248845Y-48116354D01*
X133244679Y-48103013D01*
X133241625Y-48082797D01*
X133239511Y-48053089D01*
X133238165Y-48011272D01*
X133237417Y-47954729D01*
X133237093Y-47880842D01*
X133237024Y-47786996D01*
X133237063Y-47711334D01*
X133237318Y-47633425D01*
X133237962Y-47573415D01*
X133239166Y-47528688D01*
X133241103Y-47496625D01*
X133243943Y-47474611D01*
X133247858Y-47460027D01*
X133253021Y-47450258D01*
X133259601Y-47442685D01*
X133288785Y-47423663D01*
X133321916Y-47424503D01*
G37*
X133288499Y-40811429D02*
X133394023Y-40837284D01*
X133494047Y-40883689D01*
X133585421Y-40950651D01*
X133664992Y-41038176D01*
X133729607Y-41146274D01*
X133746930Y-41184354D01*
X133760964Y-41222951D01*
X133768839Y-41261537D01*
X133772290Y-41309263D01*
X133773055Y-41375281D01*
X133772592Y-41430229D01*
X133769806Y-41480728D01*
X133762974Y-41520128D01*
X133750391Y-41557476D01*
X133730351Y-41601821D01*
X133724553Y-41613639D01*
X133656032Y-41721849D01*
X133569852Y-41810881D01*
X133468459Y-41878645D01*
X133354298Y-41923054D01*
X133295721Y-41935446D01*
X133176886Y-41941245D01*
X133061787Y-41922482D01*
X132953799Y-41881080D01*
X132856296Y-41818963D01*
X132772655Y-41738055D01*
X132706250Y-41640280D01*
X132660456Y-41527562D01*
X132643701Y-41435319D01*
X132642192Y-41333525D01*
X132655819Y-41234508D01*
X132683932Y-41148740D01*
X132716417Y-41087421D01*
X132788734Y-40990136D01*
X132874465Y-40913355D01*
X132970460Y-40857086D01*
X133073566Y-40821338D01*
X133180629Y-40806116D01*
X133288499Y-40811429D01*
G36*
X133288499Y-40811429D02*
G01*
X133394023Y-40837284D01*
X133494047Y-40883689D01*
X133585421Y-40950651D01*
X133664992Y-41038176D01*
X133729607Y-41146274D01*
X133746930Y-41184354D01*
X133760964Y-41222951D01*
X133768839Y-41261537D01*
X133772290Y-41309263D01*
X133773055Y-41375281D01*
X133772592Y-41430229D01*
X133769806Y-41480728D01*
X133762974Y-41520128D01*
X133750391Y-41557476D01*
X133730351Y-41601821D01*
X133724553Y-41613639D01*
X133656032Y-41721849D01*
X133569852Y-41810881D01*
X133468459Y-41878645D01*
X133354298Y-41923054D01*
X133295721Y-41935446D01*
X133176886Y-41941245D01*
X133061787Y-41922482D01*
X132953799Y-41881080D01*
X132856296Y-41818963D01*
X132772655Y-41738055D01*
X132706250Y-41640280D01*
X132660456Y-41527562D01*
X132643701Y-41435319D01*
X132642192Y-41333525D01*
X132655819Y-41234508D01*
X132683932Y-41148740D01*
X132716417Y-41087421D01*
X132788734Y-40990136D01*
X132874465Y-40913355D01*
X132970460Y-40857086D01*
X133073566Y-40821338D01*
X133180629Y-40806116D01*
X133288499Y-40811429D01*
G37*
X125491546Y-47420108D02*
X125585669Y-47420198D01*
X125660184Y-47420538D01*
X125717590Y-47421279D01*
X125760390Y-47422575D01*
X125791083Y-47424577D01*
X125812170Y-47427436D01*
X125826152Y-47431306D01*
X125835529Y-47436338D01*
X125842801Y-47442685D01*
X125861607Y-47475402D01*
X125863054Y-47512979D01*
X125846696Y-47546218D01*
X125845336Y-47547671D01*
X125834133Y-47556032D01*
X125817031Y-47561587D01*
X125789861Y-47564880D01*
X125748457Y-47566458D01*
X125688652Y-47566862D01*
X125549290Y-47566862D01*
X125549290Y-47830629D01*
X125549215Y-47906457D01*
X125548807Y-47973123D01*
X125547825Y-48022907D01*
X125546029Y-48058824D01*
X125543178Y-48083890D01*
X125539032Y-48101121D01*
X125533350Y-48113532D01*
X125525893Y-48124140D01*
X125523603Y-48126946D01*
X125492425Y-48149588D01*
X125458045Y-48151152D01*
X125425113Y-48131307D01*
X125418134Y-48123231D01*
X125412662Y-48112633D01*
X125408642Y-48096789D01*
X125405851Y-48072813D01*
X125404067Y-48037814D01*
X125403068Y-47988904D01*
X125402631Y-47923194D01*
X125402535Y-47837796D01*
X125402535Y-47566862D01*
X125256599Y-47566862D01*
X125245499Y-47566861D01*
X125188981Y-47566636D01*
X125150137Y-47565497D01*
X125124744Y-47562697D01*
X125108583Y-47557490D01*
X125097431Y-47549129D01*
X125087068Y-47536866D01*
X125071220Y-47506178D01*
X125074322Y-47472398D01*
X125099966Y-47439862D01*
X125104908Y-47436145D01*
X125115117Y-47431309D01*
X125130543Y-47427546D01*
X125153665Y-47424723D01*
X125186962Y-47422710D01*
X125232916Y-47421373D01*
X125294007Y-47420582D01*
X125372714Y-47420203D01*
X125471519Y-47420107D01*
X125491546Y-47420108D01*
G36*
X125491546Y-47420108D02*
G01*
X125585669Y-47420198D01*
X125660184Y-47420538D01*
X125717590Y-47421279D01*
X125760390Y-47422575D01*
X125791083Y-47424577D01*
X125812170Y-47427436D01*
X125826152Y-47431306D01*
X125835529Y-47436338D01*
X125842801Y-47442685D01*
X125861607Y-47475402D01*
X125863054Y-47512979D01*
X125846696Y-47546218D01*
X125845336Y-47547671D01*
X125834133Y-47556032D01*
X125817031Y-47561587D01*
X125789861Y-47564880D01*
X125748457Y-47566458D01*
X125688652Y-47566862D01*
X125549290Y-47566862D01*
X125549290Y-47830629D01*
X125549215Y-47906457D01*
X125548807Y-47973123D01*
X125547825Y-48022907D01*
X125546029Y-48058824D01*
X125543178Y-48083890D01*
X125539032Y-48101121D01*
X125533350Y-48113532D01*
X125525893Y-48124140D01*
X125523603Y-48126946D01*
X125492425Y-48149588D01*
X125458045Y-48151152D01*
X125425113Y-48131307D01*
X125418134Y-48123231D01*
X125412662Y-48112633D01*
X125408642Y-48096789D01*
X125405851Y-48072813D01*
X125404067Y-48037814D01*
X125403068Y-47988904D01*
X125402631Y-47923194D01*
X125402535Y-47837796D01*
X125402535Y-47566862D01*
X125256599Y-47566862D01*
X125245499Y-47566861D01*
X125188981Y-47566636D01*
X125150137Y-47565497D01*
X125124744Y-47562697D01*
X125108583Y-47557490D01*
X125097431Y-47549129D01*
X125087068Y-47536866D01*
X125071220Y-47506178D01*
X125074322Y-47472398D01*
X125099966Y-47439862D01*
X125104908Y-47436145D01*
X125115117Y-47431309D01*
X125130543Y-47427546D01*
X125153665Y-47424723D01*
X125186962Y-47422710D01*
X125232916Y-47421373D01*
X125294007Y-47420582D01*
X125372714Y-47420203D01*
X125471519Y-47420107D01*
X125491546Y-47420108D01*
G37*
X124815513Y-47442685D02*
X124821145Y-47448875D01*
X124826235Y-47457081D01*
X124830322Y-47468857D01*
X124833500Y-47486316D01*
X124835866Y-47511570D01*
X124837517Y-47546730D01*
X124838548Y-47593909D01*
X124839056Y-47655217D01*
X124839138Y-47732767D01*
X124838888Y-47828671D01*
X124838404Y-47945040D01*
X124838336Y-47959215D01*
X124837750Y-48020977D01*
X124836427Y-48064660D01*
X124833882Y-48094041D01*
X124829627Y-48112895D01*
X124823175Y-48124999D01*
X124814041Y-48134129D01*
X124780583Y-48151546D01*
X124745635Y-48148644D01*
X124714732Y-48124140D01*
X124705723Y-48110937D01*
X124698271Y-48092401D01*
X124693903Y-48066373D01*
X124691848Y-48027827D01*
X124691335Y-47971740D01*
X124691335Y-47849085D01*
X124194624Y-47849085D01*
X124194624Y-47983911D01*
X124194551Y-48019702D01*
X124193788Y-48066032D01*
X124191612Y-48096566D01*
X124187315Y-48115597D01*
X124180191Y-48127414D01*
X124169534Y-48136311D01*
X124137283Y-48151381D01*
X124101996Y-48148713D01*
X124071265Y-48124140D01*
X124066610Y-48117885D01*
X124060674Y-48107361D01*
X124056143Y-48093431D01*
X124052827Y-48073357D01*
X124050538Y-48044400D01*
X124049087Y-48003820D01*
X124048284Y-47948880D01*
X124047941Y-47876839D01*
X124047868Y-47784960D01*
X124047868Y-47475525D01*
X124075577Y-47447816D01*
X124106956Y-47425573D01*
X124140185Y-47422884D01*
X124172046Y-47442685D01*
X124180332Y-47452455D01*
X124187744Y-47468347D01*
X124192081Y-47492315D01*
X124194117Y-47529188D01*
X124194624Y-47583796D01*
X124194624Y-47702329D01*
X124691335Y-47702329D01*
X124691335Y-47586816D01*
X124691773Y-47535118D01*
X124693737Y-47500594D01*
X124698253Y-47478018D01*
X124706346Y-47462166D01*
X124719044Y-47447816D01*
X124750422Y-47425573D01*
X124783651Y-47422884D01*
X124815513Y-47442685D01*
G36*
X124815513Y-47442685D02*
G01*
X124821145Y-47448875D01*
X124826235Y-47457081D01*
X124830322Y-47468857D01*
X124833500Y-47486316D01*
X124835866Y-47511570D01*
X124837517Y-47546730D01*
X124838548Y-47593909D01*
X124839056Y-47655217D01*
X124839138Y-47732767D01*
X124838888Y-47828671D01*
X124838404Y-47945040D01*
X124838336Y-47959215D01*
X124837750Y-48020977D01*
X124836427Y-48064660D01*
X124833882Y-48094041D01*
X124829627Y-48112895D01*
X124823175Y-48124999D01*
X124814041Y-48134129D01*
X124780583Y-48151546D01*
X124745635Y-48148644D01*
X124714732Y-48124140D01*
X124705723Y-48110937D01*
X124698271Y-48092401D01*
X124693903Y-48066373D01*
X124691848Y-48027827D01*
X124691335Y-47971740D01*
X124691335Y-47849085D01*
X124194624Y-47849085D01*
X124194624Y-47983911D01*
X124194551Y-48019702D01*
X124193788Y-48066032D01*
X124191612Y-48096566D01*
X124187315Y-48115597D01*
X124180191Y-48127414D01*
X124169534Y-48136311D01*
X124137283Y-48151381D01*
X124101996Y-48148713D01*
X124071265Y-48124140D01*
X124066610Y-48117885D01*
X124060674Y-48107361D01*
X124056143Y-48093431D01*
X124052827Y-48073357D01*
X124050538Y-48044400D01*
X124049087Y-48003820D01*
X124048284Y-47948880D01*
X124047941Y-47876839D01*
X124047868Y-47784960D01*
X124047868Y-47475525D01*
X124075577Y-47447816D01*
X124106956Y-47425573D01*
X124140185Y-47422884D01*
X124172046Y-47442685D01*
X124180332Y-47452455D01*
X124187744Y-47468347D01*
X124192081Y-47492315D01*
X124194117Y-47529188D01*
X124194624Y-47583796D01*
X124194624Y-47702329D01*
X124691335Y-47702329D01*
X124691335Y-47586816D01*
X124691773Y-47535118D01*
X124693737Y-47500594D01*
X124698253Y-47478018D01*
X124706346Y-47462166D01*
X124719044Y-47447816D01*
X124750422Y-47425573D01*
X124783651Y-47422884D01*
X124815513Y-47442685D01*
G37*
X129520912Y-48031436D02*
X129518942Y-48064215D01*
X129516014Y-48087135D01*
X129511937Y-48102937D01*
X129506522Y-48114359D01*
X129499582Y-48124140D01*
X129476185Y-48153885D01*
X129310493Y-48153291D01*
X129275697Y-48152993D01*
X129177214Y-48149562D01*
X129096252Y-48141879D01*
X129029158Y-48129322D01*
X128972275Y-48111267D01*
X128921948Y-48087092D01*
X128918589Y-48085175D01*
X128860777Y-48048457D01*
X128818423Y-48011491D01*
X128785607Y-47968006D01*
X128756407Y-47911729D01*
X128752125Y-47902113D01*
X128729548Y-47838927D01*
X128723813Y-47793373D01*
X128873058Y-47793373D01*
X128878671Y-47818101D01*
X128884397Y-47833979D01*
X128917327Y-47893887D01*
X128964665Y-47939640D01*
X129028431Y-47972776D01*
X129110640Y-47994830D01*
X129113434Y-47995332D01*
X129159719Y-48001295D01*
X129216115Y-48005523D01*
X129271053Y-48007129D01*
X129364935Y-48007129D01*
X129364935Y-47566862D01*
X129277446Y-47567310D01*
X129210526Y-47569786D01*
X129118128Y-47581038D01*
X129038813Y-47600577D01*
X128976839Y-47627551D01*
X128945899Y-47648280D01*
X128917779Y-47678046D01*
X128894439Y-47720474D01*
X128887312Y-47736440D01*
X128875488Y-47768942D01*
X128873058Y-47793373D01*
X128723813Y-47793373D01*
X128722576Y-47783549D01*
X128731178Y-47728523D01*
X128755320Y-47666391D01*
X128756116Y-47664698D01*
X128796567Y-47595276D01*
X128847252Y-47538678D01*
X128909977Y-47494110D01*
X128986553Y-47460781D01*
X129078788Y-47437901D01*
X129188491Y-47424676D01*
X129317470Y-47420315D01*
X129321042Y-47420310D01*
X129381062Y-47420450D01*
X129422993Y-47421486D01*
X129451107Y-47424080D01*
X129469676Y-47428893D01*
X129482973Y-47436584D01*
X129495270Y-47447816D01*
X129522979Y-47475525D01*
X129522979Y-47784960D01*
X129522954Y-47846566D01*
X129522729Y-47925351D01*
X129522111Y-47986061D01*
X129521554Y-48007129D01*
X129520912Y-48031436D01*
G36*
X129520912Y-48031436D02*
G01*
X129518942Y-48064215D01*
X129516014Y-48087135D01*
X129511937Y-48102937D01*
X129506522Y-48114359D01*
X129499582Y-48124140D01*
X129476185Y-48153885D01*
X129310493Y-48153291D01*
X129275697Y-48152993D01*
X129177214Y-48149562D01*
X129096252Y-48141879D01*
X129029158Y-48129322D01*
X128972275Y-48111267D01*
X128921948Y-48087092D01*
X128918589Y-48085175D01*
X128860777Y-48048457D01*
X128818423Y-48011491D01*
X128785607Y-47968006D01*
X128756407Y-47911729D01*
X128752125Y-47902113D01*
X128729548Y-47838927D01*
X128723813Y-47793373D01*
X128873058Y-47793373D01*
X128878671Y-47818101D01*
X128884397Y-47833979D01*
X128917327Y-47893887D01*
X128964665Y-47939640D01*
X129028431Y-47972776D01*
X129110640Y-47994830D01*
X129113434Y-47995332D01*
X129159719Y-48001295D01*
X129216115Y-48005523D01*
X129271053Y-48007129D01*
X129364935Y-48007129D01*
X129364935Y-47566862D01*
X129277446Y-47567310D01*
X129210526Y-47569786D01*
X129118128Y-47581038D01*
X129038813Y-47600577D01*
X128976839Y-47627551D01*
X128945899Y-47648280D01*
X128917779Y-47678046D01*
X128894439Y-47720474D01*
X128887312Y-47736440D01*
X128875488Y-47768942D01*
X128873058Y-47793373D01*
X128723813Y-47793373D01*
X128722576Y-47783549D01*
X128731178Y-47728523D01*
X128755320Y-47666391D01*
X128756116Y-47664698D01*
X128796567Y-47595276D01*
X128847252Y-47538678D01*
X128909977Y-47494110D01*
X128986553Y-47460781D01*
X129078788Y-47437901D01*
X129188491Y-47424676D01*
X129317470Y-47420315D01*
X129321042Y-47420310D01*
X129381062Y-47420450D01*
X129422993Y-47421486D01*
X129451107Y-47424080D01*
X129469676Y-47428893D01*
X129482973Y-47436584D01*
X129495270Y-47447816D01*
X129522979Y-47475525D01*
X129522979Y-47784960D01*
X129522954Y-47846566D01*
X129522729Y-47925351D01*
X129522111Y-47986061D01*
X129521554Y-48007129D01*
X129520912Y-48031436D01*
G37*
X136612596Y-47605467D02*
X136612649Y-47686081D01*
X136612401Y-47786996D01*
X136612362Y-47862657D01*
X136612107Y-47940566D01*
X136611463Y-48000576D01*
X136610259Y-48045304D01*
X136608322Y-48077366D01*
X136605482Y-48099380D01*
X136601567Y-48113964D01*
X136596405Y-48123734D01*
X136589824Y-48131307D01*
X136582856Y-48137541D01*
X136569858Y-48144841D01*
X136550710Y-48149594D01*
X136521307Y-48152332D01*
X136477541Y-48153585D01*
X136415307Y-48153885D01*
X136366361Y-48153509D01*
X136259501Y-48149081D01*
X136170273Y-48138993D01*
X136095475Y-48122405D01*
X136031904Y-48098475D01*
X135976358Y-48066361D01*
X135925633Y-48025222D01*
X135919645Y-48019370D01*
X135882778Y-47970861D01*
X135851678Y-47910053D01*
X135830196Y-47845809D01*
X135824915Y-47807066D01*
X135972132Y-47807066D01*
X135990414Y-47858001D01*
X136020084Y-47903918D01*
X136066781Y-47946327D01*
X136128171Y-47976130D01*
X136207317Y-47995266D01*
X136208807Y-47995504D01*
X136257778Y-48001296D01*
X136316472Y-48005436D01*
X136372513Y-48007044D01*
X136465646Y-48007129D01*
X136465646Y-47566862D01*
X136389446Y-47566848D01*
X136386418Y-47566857D01*
X136335298Y-47568822D01*
X136275195Y-47573547D01*
X136218487Y-47580075D01*
X136168529Y-47589371D01*
X136093777Y-47615640D01*
X136036268Y-47654939D01*
X135994767Y-47707973D01*
X135973550Y-47759240D01*
X135972132Y-47807066D01*
X135824915Y-47807066D01*
X135822179Y-47786996D01*
X135823458Y-47765779D01*
X135835770Y-47708363D01*
X135858299Y-47648453D01*
X135887529Y-47594403D01*
X135919946Y-47554572D01*
X135939487Y-47537550D01*
X135994199Y-47498362D01*
X136054502Y-47468233D01*
X136123698Y-47446272D01*
X136205090Y-47431590D01*
X136301979Y-47423299D01*
X136417668Y-47420507D01*
X136457150Y-47420106D01*
X136502861Y-47419693D01*
X136538662Y-47421497D01*
X136565753Y-47427779D01*
X136585335Y-47440799D01*
X136598609Y-47462818D01*
X136606777Y-47496095D01*
X136611039Y-47542891D01*
X136611636Y-47566862D01*
X136612596Y-47605467D01*
G36*
X136612596Y-47605467D02*
G01*
X136612649Y-47686081D01*
X136612401Y-47786996D01*
X136612362Y-47862657D01*
X136612107Y-47940566D01*
X136611463Y-48000576D01*
X136610259Y-48045304D01*
X136608322Y-48077366D01*
X136605482Y-48099380D01*
X136601567Y-48113964D01*
X136596405Y-48123734D01*
X136589824Y-48131307D01*
X136582856Y-48137541D01*
X136569858Y-48144841D01*
X136550710Y-48149594D01*
X136521307Y-48152332D01*
X136477541Y-48153585D01*
X136415307Y-48153885D01*
X136366361Y-48153509D01*
X136259501Y-48149081D01*
X136170273Y-48138993D01*
X136095475Y-48122405D01*
X136031904Y-48098475D01*
X135976358Y-48066361D01*
X135925633Y-48025222D01*
X135919645Y-48019370D01*
X135882778Y-47970861D01*
X135851678Y-47910053D01*
X135830196Y-47845809D01*
X135824915Y-47807066D01*
X135972132Y-47807066D01*
X135990414Y-47858001D01*
X136020084Y-47903918D01*
X136066781Y-47946327D01*
X136128171Y-47976130D01*
X136207317Y-47995266D01*
X136208807Y-47995504D01*
X136257778Y-48001296D01*
X136316472Y-48005436D01*
X136372513Y-48007044D01*
X136465646Y-48007129D01*
X136465646Y-47566862D01*
X136389446Y-47566848D01*
X136386418Y-47566857D01*
X136335298Y-47568822D01*
X136275195Y-47573547D01*
X136218487Y-47580075D01*
X136168529Y-47589371D01*
X136093777Y-47615640D01*
X136036268Y-47654939D01*
X135994767Y-47707973D01*
X135973550Y-47759240D01*
X135972132Y-47807066D01*
X135824915Y-47807066D01*
X135822179Y-47786996D01*
X135823458Y-47765779D01*
X135835770Y-47708363D01*
X135858299Y-47648453D01*
X135887529Y-47594403D01*
X135919946Y-47554572D01*
X135939487Y-47537550D01*
X135994199Y-47498362D01*
X136054502Y-47468233D01*
X136123698Y-47446272D01*
X136205090Y-47431590D01*
X136301979Y-47423299D01*
X136417668Y-47420507D01*
X136457150Y-47420106D01*
X136502861Y-47419693D01*
X136538662Y-47421497D01*
X136565753Y-47427779D01*
X136585335Y-47440799D01*
X136598609Y-47462818D01*
X136606777Y-47496095D01*
X136611039Y-47542891D01*
X136611636Y-47566862D01*
X136612596Y-47605467D01*
G37*
X131667672Y-47418932D02*
X131679080Y-47425069D01*
X131689629Y-47435731D01*
X131700915Y-47449851D01*
X131705368Y-47455812D01*
X131711367Y-47466308D01*
X131715946Y-47480133D01*
X131719298Y-47500038D01*
X131721612Y-47528772D01*
X131723080Y-47569085D01*
X131723892Y-47623727D01*
X131724239Y-47695447D01*
X131724313Y-47786996D01*
X131724290Y-47845526D01*
X131724071Y-47924613D01*
X131723462Y-47985556D01*
X131722271Y-48031102D01*
X131720308Y-48064003D01*
X131717382Y-48087008D01*
X131713302Y-48102866D01*
X131707876Y-48114326D01*
X131700915Y-48124140D01*
X131670487Y-48148533D01*
X131635544Y-48151412D01*
X131598563Y-48132322D01*
X131594379Y-48128847D01*
X131586203Y-48120319D01*
X131580143Y-48108768D01*
X131575760Y-48090936D01*
X131572618Y-48063564D01*
X131570281Y-48023394D01*
X131568310Y-47967168D01*
X131566268Y-47891629D01*
X131560624Y-47672498D01*
X131295335Y-47913139D01*
X131221501Y-47979915D01*
X131156321Y-48038031D01*
X131104127Y-48082989D01*
X131063052Y-48115911D01*
X131031234Y-48137919D01*
X131006805Y-48150134D01*
X130987903Y-48153679D01*
X130972662Y-48149676D01*
X130959218Y-48139247D01*
X130945706Y-48123514D01*
X130939461Y-48115031D01*
X130933829Y-48104453D01*
X130929618Y-48090295D01*
X130926666Y-48069843D01*
X130924811Y-48040382D01*
X130923892Y-47999201D01*
X130923747Y-47943584D01*
X130924214Y-47870819D01*
X130925131Y-47778191D01*
X130928446Y-47463239D01*
X130955097Y-47441673D01*
X130981162Y-47425481D01*
X131014020Y-47422710D01*
X131048551Y-47441663D01*
X131052863Y-47445248D01*
X131060995Y-47453777D01*
X131067024Y-47465369D01*
X131071385Y-47483275D01*
X131074513Y-47510746D01*
X131076842Y-47551034D01*
X131078808Y-47607391D01*
X131080846Y-47683069D01*
X131086490Y-47902918D01*
X131267113Y-47739124D01*
X131353851Y-47660491D01*
X131429622Y-47592098D01*
X131491759Y-47536748D01*
X131541857Y-47493378D01*
X131581514Y-47460921D01*
X131612327Y-47438313D01*
X131635893Y-47424488D01*
X131653809Y-47418383D01*
X131667672Y-47418932D01*
G36*
X131667672Y-47418932D02*
G01*
X131679080Y-47425069D01*
X131689629Y-47435731D01*
X131700915Y-47449851D01*
X131705368Y-47455812D01*
X131711367Y-47466308D01*
X131715946Y-47480133D01*
X131719298Y-47500038D01*
X131721612Y-47528772D01*
X131723080Y-47569085D01*
X131723892Y-47623727D01*
X131724239Y-47695447D01*
X131724313Y-47786996D01*
X131724290Y-47845526D01*
X131724071Y-47924613D01*
X131723462Y-47985556D01*
X131722271Y-48031102D01*
X131720308Y-48064003D01*
X131717382Y-48087008D01*
X131713302Y-48102866D01*
X131707876Y-48114326D01*
X131700915Y-48124140D01*
X131670487Y-48148533D01*
X131635544Y-48151412D01*
X131598563Y-48132322D01*
X131594379Y-48128847D01*
X131586203Y-48120319D01*
X131580143Y-48108768D01*
X131575760Y-48090936D01*
X131572618Y-48063564D01*
X131570281Y-48023394D01*
X131568310Y-47967168D01*
X131566268Y-47891629D01*
X131560624Y-47672498D01*
X131295335Y-47913139D01*
X131221501Y-47979915D01*
X131156321Y-48038031D01*
X131104127Y-48082989D01*
X131063052Y-48115911D01*
X131031234Y-48137919D01*
X131006805Y-48150134D01*
X130987903Y-48153679D01*
X130972662Y-48149676D01*
X130959218Y-48139247D01*
X130945706Y-48123514D01*
X130939461Y-48115031D01*
X130933829Y-48104453D01*
X130929618Y-48090295D01*
X130926666Y-48069843D01*
X130924811Y-48040382D01*
X130923892Y-47999201D01*
X130923747Y-47943584D01*
X130924214Y-47870819D01*
X130925131Y-47778191D01*
X130928446Y-47463239D01*
X130955097Y-47441673D01*
X130981162Y-47425481D01*
X131014020Y-47422710D01*
X131048551Y-47441663D01*
X131052863Y-47445248D01*
X131060995Y-47453777D01*
X131067024Y-47465369D01*
X131071385Y-47483275D01*
X131074513Y-47510746D01*
X131076842Y-47551034D01*
X131078808Y-47607391D01*
X131080846Y-47683069D01*
X131086490Y-47902918D01*
X131267113Y-47739124D01*
X131353851Y-47660491D01*
X131429622Y-47592098D01*
X131491759Y-47536748D01*
X131541857Y-47493378D01*
X131581514Y-47460921D01*
X131612327Y-47438313D01*
X131635893Y-47424488D01*
X131653809Y-47418383D01*
X131667672Y-47418932D01*
G37*
X132464929Y-47425219D02*
X132570936Y-47441534D01*
X132664748Y-47469585D01*
X132743544Y-47508492D01*
X132804498Y-47557374D01*
X132830568Y-47590235D01*
X132860076Y-47639434D01*
X132885347Y-47693292D01*
X132902997Y-47744459D01*
X132909637Y-47785584D01*
X132908077Y-47805299D01*
X132895136Y-47856632D01*
X132871973Y-47913158D01*
X132842081Y-47967075D01*
X132808952Y-48010579D01*
X132798756Y-48020927D01*
X132731671Y-48072702D01*
X132651545Y-48112594D01*
X132565335Y-48136996D01*
X132510371Y-48145108D01*
X132416918Y-48151713D01*
X132327137Y-48149626D01*
X132244648Y-48139380D01*
X132173065Y-48121510D01*
X132116007Y-48096548D01*
X132077090Y-48065028D01*
X132075715Y-48063052D01*
X132068627Y-48037826D01*
X132064388Y-47990575D01*
X132062979Y-47921111D01*
X132063839Y-47858878D01*
X132068559Y-47811496D01*
X132080249Y-47779393D01*
X132102018Y-47759840D01*
X132136977Y-47750110D01*
X132188235Y-47747473D01*
X132258902Y-47749201D01*
X132307522Y-47752213D01*
X132357718Y-47760406D01*
X132390212Y-47774459D01*
X132407671Y-47795694D01*
X132412762Y-47825434D01*
X132412656Y-47829976D01*
X132403954Y-47864770D01*
X132379944Y-47888187D01*
X132338679Y-47901387D01*
X132278210Y-47905529D01*
X132209735Y-47905529D01*
X132209735Y-47943881D01*
X132209785Y-47953016D01*
X132212006Y-47970267D01*
X132221273Y-47980561D01*
X132242654Y-47987499D01*
X132281215Y-47994681D01*
X132286689Y-47995615D01*
X132383639Y-48005518D01*
X132473631Y-48002599D01*
X132554539Y-47987869D01*
X132624238Y-47962339D01*
X132680603Y-47927018D01*
X132721508Y-47882919D01*
X132744830Y-47831052D01*
X132748442Y-47772428D01*
X132742924Y-47743534D01*
X132716240Y-47687644D01*
X132670052Y-47641985D01*
X132605070Y-47607148D01*
X132522008Y-47583730D01*
X132497334Y-47579281D01*
X132408005Y-47568782D01*
X132328198Y-47570011D01*
X132250105Y-47582946D01*
X132214962Y-47589736D01*
X132169524Y-47590753D01*
X132138209Y-47578222D01*
X132118056Y-47551435D01*
X132111672Y-47523188D01*
X132121158Y-47491964D01*
X132130487Y-47478539D01*
X132164722Y-47455007D01*
X132217344Y-47437135D01*
X132285860Y-47425639D01*
X132367779Y-47421232D01*
X132464929Y-47425219D01*
G36*
X132464929Y-47425219D02*
G01*
X132570936Y-47441534D01*
X132664748Y-47469585D01*
X132743544Y-47508492D01*
X132804498Y-47557374D01*
X132830568Y-47590235D01*
X132860076Y-47639434D01*
X132885347Y-47693292D01*
X132902997Y-47744459D01*
X132909637Y-47785584D01*
X132908077Y-47805299D01*
X132895136Y-47856632D01*
X132871973Y-47913158D01*
X132842081Y-47967075D01*
X132808952Y-48010579D01*
X132798756Y-48020927D01*
X132731671Y-48072702D01*
X132651545Y-48112594D01*
X132565335Y-48136996D01*
X132510371Y-48145108D01*
X132416918Y-48151713D01*
X132327137Y-48149626D01*
X132244648Y-48139380D01*
X132173065Y-48121510D01*
X132116007Y-48096548D01*
X132077090Y-48065028D01*
X132075715Y-48063052D01*
X132068627Y-48037826D01*
X132064388Y-47990575D01*
X132062979Y-47921111D01*
X132063839Y-47858878D01*
X132068559Y-47811496D01*
X132080249Y-47779393D01*
X132102018Y-47759840D01*
X132136977Y-47750110D01*
X132188235Y-47747473D01*
X132258902Y-47749201D01*
X132307522Y-47752213D01*
X132357718Y-47760406D01*
X132390212Y-47774459D01*
X132407671Y-47795694D01*
X132412762Y-47825434D01*
X132412656Y-47829976D01*
X132403954Y-47864770D01*
X132379944Y-47888187D01*
X132338679Y-47901387D01*
X132278210Y-47905529D01*
X132209735Y-47905529D01*
X132209735Y-47943881D01*
X132209785Y-47953016D01*
X132212006Y-47970267D01*
X132221273Y-47980561D01*
X132242654Y-47987499D01*
X132281215Y-47994681D01*
X132286689Y-47995615D01*
X132383639Y-48005518D01*
X132473631Y-48002599D01*
X132554539Y-47987869D01*
X132624238Y-47962339D01*
X132680603Y-47927018D01*
X132721508Y-47882919D01*
X132744830Y-47831052D01*
X132748442Y-47772428D01*
X132742924Y-47743534D01*
X132716240Y-47687644D01*
X132670052Y-47641985D01*
X132605070Y-47607148D01*
X132522008Y-47583730D01*
X132497334Y-47579281D01*
X132408005Y-47568782D01*
X132328198Y-47570011D01*
X132250105Y-47582946D01*
X132214962Y-47589736D01*
X132169524Y-47590753D01*
X132138209Y-47578222D01*
X132118056Y-47551435D01*
X132111672Y-47523188D01*
X132121158Y-47491964D01*
X132130487Y-47478539D01*
X132164722Y-47455007D01*
X132217344Y-47437135D01*
X132285860Y-47425639D01*
X132367779Y-47421232D01*
X132464929Y-47425219D01*
G37*
X130515582Y-47449851D02*
X130520531Y-47456535D01*
X130526375Y-47467106D01*
X130530836Y-47481193D01*
X130534100Y-47501518D01*
X130536353Y-47530805D01*
X130537781Y-47571777D01*
X130538571Y-47627157D01*
X130538908Y-47699668D01*
X130538979Y-47792034D01*
X130538950Y-47857951D01*
X130538718Y-47936268D01*
X130538098Y-47996536D01*
X130536905Y-48041433D01*
X130534958Y-48073642D01*
X130532073Y-48095840D01*
X130528067Y-48110709D01*
X130522758Y-48120929D01*
X130515962Y-48129178D01*
X130511447Y-48133835D01*
X130503217Y-48140322D01*
X130491857Y-48145234D01*
X130474589Y-48148789D01*
X130448634Y-48151207D01*
X130411215Y-48152707D01*
X130359552Y-48153507D01*
X130290868Y-48153827D01*
X130202385Y-48153885D01*
X130182710Y-48153878D01*
X130095685Y-48153612D01*
X130028033Y-48152846D01*
X129977078Y-48151432D01*
X129940146Y-48149220D01*
X129914562Y-48146062D01*
X129897650Y-48141809D01*
X129886736Y-48136311D01*
X129876243Y-48126325D01*
X129862982Y-48095208D01*
X129864165Y-48059320D01*
X129880329Y-48027773D01*
X129882518Y-48025497D01*
X129891206Y-48019229D01*
X129904548Y-48014563D01*
X129925531Y-48011267D01*
X129957142Y-48009108D01*
X130002369Y-48007854D01*
X130064199Y-48007271D01*
X130145618Y-48007129D01*
X130392224Y-48007129D01*
X130392224Y-47849085D01*
X130229785Y-47849085D01*
X130194117Y-47849004D01*
X130138347Y-47848207D01*
X130099209Y-47846202D01*
X130072755Y-47842561D01*
X130055038Y-47836852D01*
X130042108Y-47828647D01*
X130038465Y-47825463D01*
X130020057Y-47794488D01*
X130019423Y-47758152D01*
X130036962Y-47724533D01*
X130037024Y-47724464D01*
X130046695Y-47715838D01*
X130059988Y-47709782D01*
X130080696Y-47705851D01*
X130112607Y-47703596D01*
X130159513Y-47702571D01*
X130225203Y-47702329D01*
X130393350Y-47702329D01*
X130389965Y-47637418D01*
X130386579Y-47572507D01*
X130144502Y-47569454D01*
X130119486Y-47569126D01*
X130037866Y-47567646D01*
X129975547Y-47565262D01*
X129929933Y-47561267D01*
X129898431Y-47554953D01*
X129878446Y-47545614D01*
X129867383Y-47532543D01*
X129862648Y-47515032D01*
X129861646Y-47492375D01*
X129861652Y-47490010D01*
X129862806Y-47469979D01*
X129867603Y-47454186D01*
X129878411Y-47442130D01*
X129897596Y-47433307D01*
X129927524Y-47427215D01*
X129970562Y-47423351D01*
X130029078Y-47421214D01*
X130105436Y-47420300D01*
X130202005Y-47420107D01*
X130492185Y-47420107D01*
X130515582Y-47449851D01*
G36*
X130515582Y-47449851D02*
G01*
X130520531Y-47456535D01*
X130526375Y-47467106D01*
X130530836Y-47481193D01*
X130534100Y-47501518D01*
X130536353Y-47530805D01*
X130537781Y-47571777D01*
X130538571Y-47627157D01*
X130538908Y-47699668D01*
X130538979Y-47792034D01*
X130538950Y-47857951D01*
X130538718Y-47936268D01*
X130538098Y-47996536D01*
X130536905Y-48041433D01*
X130534958Y-48073642D01*
X130532073Y-48095840D01*
X130528067Y-48110709D01*
X130522758Y-48120929D01*
X130515962Y-48129178D01*
X130511447Y-48133835D01*
X130503217Y-48140322D01*
X130491857Y-48145234D01*
X130474589Y-48148789D01*
X130448634Y-48151207D01*
X130411215Y-48152707D01*
X130359552Y-48153507D01*
X130290868Y-48153827D01*
X130202385Y-48153885D01*
X130182710Y-48153878D01*
X130095685Y-48153612D01*
X130028033Y-48152846D01*
X129977078Y-48151432D01*
X129940146Y-48149220D01*
X129914562Y-48146062D01*
X129897650Y-48141809D01*
X129886736Y-48136311D01*
X129876243Y-48126325D01*
X129862982Y-48095208D01*
X129864165Y-48059320D01*
X129880329Y-48027773D01*
X129882518Y-48025497D01*
X129891206Y-48019229D01*
X129904548Y-48014563D01*
X129925531Y-48011267D01*
X129957142Y-48009108D01*
X130002369Y-48007854D01*
X130064199Y-48007271D01*
X130145618Y-48007129D01*
X130392224Y-48007129D01*
X130392224Y-47849085D01*
X130229785Y-47849085D01*
X130194117Y-47849004D01*
X130138347Y-47848207D01*
X130099209Y-47846202D01*
X130072755Y-47842561D01*
X130055038Y-47836852D01*
X130042108Y-47828647D01*
X130038465Y-47825463D01*
X130020057Y-47794488D01*
X130019423Y-47758152D01*
X130036962Y-47724533D01*
X130037024Y-47724464D01*
X130046695Y-47715838D01*
X130059988Y-47709782D01*
X130080696Y-47705851D01*
X130112607Y-47703596D01*
X130159513Y-47702571D01*
X130225203Y-47702329D01*
X130393350Y-47702329D01*
X130389965Y-47637418D01*
X130386579Y-47572507D01*
X130144502Y-47569454D01*
X130119486Y-47569126D01*
X130037866Y-47567646D01*
X129975547Y-47565262D01*
X129929933Y-47561267D01*
X129898431Y-47554953D01*
X129878446Y-47545614D01*
X129867383Y-47532543D01*
X129862648Y-47515032D01*
X129861646Y-47492375D01*
X129861652Y-47490010D01*
X129862806Y-47469979D01*
X129867603Y-47454186D01*
X129878411Y-47442130D01*
X129897596Y-47433307D01*
X129927524Y-47427215D01*
X129970562Y-47423351D01*
X130029078Y-47421214D01*
X130105436Y-47420300D01*
X130202005Y-47420107D01*
X130492185Y-47420107D01*
X130515582Y-47449851D01*
G37*
X135192513Y-47420123D02*
X135269610Y-47420315D01*
X135328556Y-47420900D01*
X135372143Y-47422091D01*
X135403162Y-47424104D01*
X135424404Y-47427152D01*
X135438661Y-47431449D01*
X135448724Y-47437212D01*
X135457385Y-47444652D01*
X135459170Y-47446333D01*
X135466414Y-47453872D01*
X135472056Y-47462890D01*
X135476296Y-47476024D01*
X135479335Y-47495912D01*
X135481373Y-47525191D01*
X135482609Y-47566498D01*
X135483244Y-47622471D01*
X135483479Y-47695747D01*
X135483513Y-47788963D01*
X135483476Y-47861753D01*
X135483227Y-47939929D01*
X135482591Y-48000143D01*
X135481394Y-48045022D01*
X135479463Y-48077192D01*
X135476625Y-48099279D01*
X135472706Y-48113910D01*
X135467534Y-48123710D01*
X135460935Y-48131307D01*
X135457601Y-48134484D01*
X135449079Y-48140594D01*
X135437077Y-48145269D01*
X135418866Y-48148699D01*
X135391719Y-48151076D01*
X135352908Y-48152592D01*
X135299703Y-48153438D01*
X135229377Y-48153805D01*
X135139201Y-48153885D01*
X135097093Y-48153873D01*
X135015946Y-48153691D01*
X134953454Y-48153138D01*
X134906888Y-48152022D01*
X134873520Y-48150153D01*
X134850623Y-48147338D01*
X134835467Y-48143386D01*
X134825325Y-48138106D01*
X134817468Y-48131307D01*
X134802742Y-48109707D01*
X134794890Y-48080507D01*
X134800389Y-48056600D01*
X134817468Y-48029707D01*
X134822447Y-48025099D01*
X134832222Y-48018812D01*
X134846338Y-48014186D01*
X134867833Y-48010970D01*
X134899747Y-48008910D01*
X134945121Y-48007752D01*
X135006992Y-48007242D01*
X135088401Y-48007129D01*
X135336757Y-48007129D01*
X135336757Y-47849085D01*
X135175580Y-47849085D01*
X135139762Y-47848939D01*
X135074138Y-47847216D01*
X135026897Y-47842781D01*
X134995162Y-47834677D01*
X134976056Y-47821946D01*
X134966702Y-47803632D01*
X134964224Y-47778778D01*
X134965021Y-47758522D01*
X134970273Y-47736696D01*
X134983067Y-47721344D01*
X135006407Y-47711349D01*
X135043296Y-47705593D01*
X135096738Y-47702959D01*
X135169737Y-47702329D01*
X135337884Y-47702329D01*
X135334498Y-47637418D01*
X135331113Y-47572507D01*
X135083396Y-47569458D01*
X135020805Y-47568579D01*
X134952344Y-47567135D01*
X134901440Y-47565204D01*
X134865187Y-47562554D01*
X134840680Y-47558950D01*
X134825014Y-47554161D01*
X134815285Y-47547953D01*
X134809270Y-47541550D01*
X134796261Y-47509868D01*
X134799822Y-47474182D01*
X134819597Y-47443124D01*
X134822848Y-47440201D01*
X134831828Y-47433850D01*
X134843932Y-47428997D01*
X134861938Y-47425443D01*
X134888626Y-47422986D01*
X134926776Y-47421425D01*
X134979165Y-47420558D01*
X135048573Y-47420186D01*
X135137780Y-47420107D01*
X135192513Y-47420123D01*
G36*
X135192513Y-47420123D02*
G01*
X135269610Y-47420315D01*
X135328556Y-47420900D01*
X135372143Y-47422091D01*
X135403162Y-47424104D01*
X135424404Y-47427152D01*
X135438661Y-47431449D01*
X135448724Y-47437212D01*
X135457385Y-47444652D01*
X135459170Y-47446333D01*
X135466414Y-47453872D01*
X135472056Y-47462890D01*
X135476296Y-47476024D01*
X135479335Y-47495912D01*
X135481373Y-47525191D01*
X135482609Y-47566498D01*
X135483244Y-47622471D01*
X135483479Y-47695747D01*
X135483513Y-47788963D01*
X135483476Y-47861753D01*
X135483227Y-47939929D01*
X135482591Y-48000143D01*
X135481394Y-48045022D01*
X135479463Y-48077192D01*
X135476625Y-48099279D01*
X135472706Y-48113910D01*
X135467534Y-48123710D01*
X135460935Y-48131307D01*
X135457601Y-48134484D01*
X135449079Y-48140594D01*
X135437077Y-48145269D01*
X135418866Y-48148699D01*
X135391719Y-48151076D01*
X135352908Y-48152592D01*
X135299703Y-48153438D01*
X135229377Y-48153805D01*
X135139201Y-48153885D01*
X135097093Y-48153873D01*
X135015946Y-48153691D01*
X134953454Y-48153138D01*
X134906888Y-48152022D01*
X134873520Y-48150153D01*
X134850623Y-48147338D01*
X134835467Y-48143386D01*
X134825325Y-48138106D01*
X134817468Y-48131307D01*
X134802742Y-48109707D01*
X134794890Y-48080507D01*
X134800389Y-48056600D01*
X134817468Y-48029707D01*
X134822447Y-48025099D01*
X134832222Y-48018812D01*
X134846338Y-48014186D01*
X134867833Y-48010970D01*
X134899747Y-48008910D01*
X134945121Y-48007752D01*
X135006992Y-48007242D01*
X135088401Y-48007129D01*
X135336757Y-48007129D01*
X135336757Y-47849085D01*
X135175580Y-47849085D01*
X135139762Y-47848939D01*
X135074138Y-47847216D01*
X135026897Y-47842781D01*
X134995162Y-47834677D01*
X134976056Y-47821946D01*
X134966702Y-47803632D01*
X134964224Y-47778778D01*
X134965021Y-47758522D01*
X134970273Y-47736696D01*
X134983067Y-47721344D01*
X135006407Y-47711349D01*
X135043296Y-47705593D01*
X135096738Y-47702959D01*
X135169737Y-47702329D01*
X135337884Y-47702329D01*
X135334498Y-47637418D01*
X135331113Y-47572507D01*
X135083396Y-47569458D01*
X135020805Y-47568579D01*
X134952344Y-47567135D01*
X134901440Y-47565204D01*
X134865187Y-47562554D01*
X134840680Y-47558950D01*
X134825014Y-47554161D01*
X134815285Y-47547953D01*
X134809270Y-47541550D01*
X134796261Y-47509868D01*
X134799822Y-47474182D01*
X134819597Y-47443124D01*
X134822848Y-47440201D01*
X134831828Y-47433850D01*
X134843932Y-47428997D01*
X134861938Y-47425443D01*
X134888626Y-47422986D01*
X134926776Y-47421425D01*
X134979165Y-47420558D01*
X135048573Y-47420186D01*
X135137780Y-47420107D01*
X135192513Y-47420123D01*
G37*
X126625481Y-47429518D02*
X126643442Y-47448029D01*
X126664042Y-47479111D01*
X126688874Y-47524796D01*
X126719529Y-47587118D01*
X126757599Y-47668111D01*
X126772233Y-47699494D01*
X126801982Y-47762678D01*
X126828076Y-47817284D01*
X126849071Y-47860330D01*
X126863518Y-47888833D01*
X126869970Y-47899810D01*
X126871329Y-47899229D01*
X126881321Y-47885282D01*
X126898612Y-47855744D01*
X126921209Y-47814127D01*
X126947117Y-47763943D01*
X126963090Y-47732454D01*
X126992040Y-47677101D01*
X127014528Y-47638084D01*
X127032744Y-47612606D01*
X127048875Y-47597871D01*
X127065109Y-47591082D01*
X127083636Y-47589440D01*
X127094139Y-47589915D01*
X127110255Y-47594122D01*
X127125569Y-47604986D01*
X127142167Y-47625259D01*
X127162136Y-47657694D01*
X127187562Y-47705044D01*
X127220531Y-47770062D01*
X127230264Y-47789317D01*
X127254722Y-47835986D01*
X127274957Y-47872149D01*
X127289090Y-47894537D01*
X127295239Y-47899885D01*
X127296606Y-47896613D01*
X127305981Y-47875704D01*
X127322841Y-47838765D01*
X127345758Y-47788914D01*
X127373299Y-47729266D01*
X127404034Y-47662938D01*
X127430749Y-47605717D01*
X127460372Y-47543728D01*
X127483443Y-47497989D01*
X127501422Y-47465948D01*
X127515769Y-47445054D01*
X127527945Y-47432758D01*
X127539411Y-47426506D01*
X127548821Y-47423614D01*
X127573926Y-47423465D01*
X127601069Y-47438808D01*
X127602369Y-47439793D01*
X127624453Y-47462428D01*
X127635502Y-47484653D01*
X127635548Y-47485293D01*
X127631007Y-47502955D01*
X127618143Y-47537521D01*
X127598384Y-47585866D01*
X127573160Y-47644865D01*
X127543898Y-47711395D01*
X127512029Y-47782331D01*
X127478980Y-47854547D01*
X127446180Y-47924920D01*
X127415059Y-47990325D01*
X127387044Y-48047637D01*
X127363565Y-48093732D01*
X127346051Y-48125486D01*
X127335930Y-48139773D01*
X127301522Y-48153142D01*
X127259825Y-48146781D01*
X127254460Y-48142084D01*
X127238631Y-48119933D01*
X127216429Y-48083172D01*
X127190012Y-48035455D01*
X127161539Y-47980433D01*
X127081765Y-47821190D01*
X127008578Y-47967782D01*
X126998882Y-47987072D01*
X126971904Y-48039420D01*
X126947875Y-48084210D01*
X126929111Y-48117194D01*
X126917925Y-48134129D01*
X126916779Y-48135372D01*
X126888658Y-48150659D01*
X126853596Y-48152342D01*
X126822555Y-48139773D01*
X126820129Y-48136924D01*
X126807869Y-48116299D01*
X126788131Y-48078748D01*
X126762227Y-48026920D01*
X126731464Y-47963463D01*
X126697154Y-47891025D01*
X126660604Y-47812256D01*
X126640364Y-47768133D01*
X126603591Y-47687405D01*
X126575134Y-47623727D01*
X126554110Y-47574792D01*
X126539633Y-47538297D01*
X126530818Y-47511935D01*
X126526783Y-47493401D01*
X126526641Y-47480392D01*
X126529509Y-47470601D01*
X126544166Y-47449718D01*
X126570769Y-47429417D01*
X126571524Y-47429075D01*
X126591114Y-47422074D01*
X126608569Y-47421544D01*
X126625481Y-47429518D01*
G36*
X126625481Y-47429518D02*
G01*
X126643442Y-47448029D01*
X126664042Y-47479111D01*
X126688874Y-47524796D01*
X126719529Y-47587118D01*
X126757599Y-47668111D01*
X126772233Y-47699494D01*
X126801982Y-47762678D01*
X126828076Y-47817284D01*
X126849071Y-47860330D01*
X126863518Y-47888833D01*
X126869970Y-47899810D01*
X126871329Y-47899229D01*
X126881321Y-47885282D01*
X126898612Y-47855744D01*
X126921209Y-47814127D01*
X126947117Y-47763943D01*
X126963090Y-47732454D01*
X126992040Y-47677101D01*
X127014528Y-47638084D01*
X127032744Y-47612606D01*
X127048875Y-47597871D01*
X127065109Y-47591082D01*
X127083636Y-47589440D01*
X127094139Y-47589915D01*
X127110255Y-47594122D01*
X127125569Y-47604986D01*
X127142167Y-47625259D01*
X127162136Y-47657694D01*
X127187562Y-47705044D01*
X127220531Y-47770062D01*
X127230264Y-47789317D01*
X127254722Y-47835986D01*
X127274957Y-47872149D01*
X127289090Y-47894537D01*
X127295239Y-47899885D01*
X127296606Y-47896613D01*
X127305981Y-47875704D01*
X127322841Y-47838765D01*
X127345758Y-47788914D01*
X127373299Y-47729266D01*
X127404034Y-47662938D01*
X127430749Y-47605717D01*
X127460372Y-47543728D01*
X127483443Y-47497989D01*
X127501422Y-47465948D01*
X127515769Y-47445054D01*
X127527945Y-47432758D01*
X127539411Y-47426506D01*
X127548821Y-47423614D01*
X127573926Y-47423465D01*
X127601069Y-47438808D01*
X127602369Y-47439793D01*
X127624453Y-47462428D01*
X127635502Y-47484653D01*
X127635548Y-47485293D01*
X127631007Y-47502955D01*
X127618143Y-47537521D01*
X127598384Y-47585866D01*
X127573160Y-47644865D01*
X127543898Y-47711395D01*
X127512029Y-47782331D01*
X127478980Y-47854547D01*
X127446180Y-47924920D01*
X127415059Y-47990325D01*
X127387044Y-48047637D01*
X127363565Y-48093732D01*
X127346051Y-48125486D01*
X127335930Y-48139773D01*
X127301522Y-48153142D01*
X127259825Y-48146781D01*
X127254460Y-48142084D01*
X127238631Y-48119933D01*
X127216429Y-48083172D01*
X127190012Y-48035455D01*
X127161539Y-47980433D01*
X127081765Y-47821190D01*
X127008578Y-47967782D01*
X126998882Y-47987072D01*
X126971904Y-48039420D01*
X126947875Y-48084210D01*
X126929111Y-48117194D01*
X126917925Y-48134129D01*
X126916779Y-48135372D01*
X126888658Y-48150659D01*
X126853596Y-48152342D01*
X126822555Y-48139773D01*
X126820129Y-48136924D01*
X126807869Y-48116299D01*
X126788131Y-48078748D01*
X126762227Y-48026920D01*
X126731464Y-47963463D01*
X126697154Y-47891025D01*
X126660604Y-47812256D01*
X126640364Y-47768133D01*
X126603591Y-47687405D01*
X126575134Y-47623727D01*
X126554110Y-47574792D01*
X126539633Y-47538297D01*
X126530818Y-47511935D01*
X126526783Y-47493401D01*
X126526641Y-47480392D01*
X126529509Y-47470601D01*
X126544166Y-47449718D01*
X126570769Y-47429417D01*
X126571524Y-47429075D01*
X126591114Y-47422074D01*
X126608569Y-47421544D01*
X126625481Y-47429518D01*
G37*
X134176632Y-47420976D02*
X134242879Y-47426406D01*
X134298179Y-47436004D01*
X134349062Y-47450865D01*
X134420374Y-47483998D01*
X134471531Y-47526680D01*
X134502354Y-47578745D01*
X134512668Y-47640023D01*
X134511731Y-47671272D01*
X134505939Y-47696069D01*
X134491132Y-47717739D01*
X134463159Y-47745089D01*
X134455181Y-47752418D01*
X134431471Y-47773321D01*
X134409077Y-47790291D01*
X134385044Y-47804245D01*
X134356416Y-47816096D01*
X134320239Y-47826760D01*
X134273559Y-47837151D01*
X134213420Y-47848186D01*
X134136869Y-47860778D01*
X134040950Y-47875844D01*
X134022587Y-47878878D01*
X133960257Y-47892498D01*
X133915039Y-47908232D01*
X133888755Y-47925303D01*
X133883226Y-47942937D01*
X133885847Y-47947208D01*
X133903779Y-47962273D01*
X133931905Y-47978907D01*
X133944705Y-47984897D01*
X133966003Y-47992090D01*
X133992389Y-47996867D01*
X134028233Y-47999686D01*
X134077907Y-48001004D01*
X134145779Y-48001277D01*
X134163564Y-48001204D01*
X134231185Y-48000093D01*
X134296124Y-47997868D01*
X134351749Y-47994802D01*
X134391430Y-47991167D01*
X134426941Y-47987099D01*
X134456194Y-47986316D01*
X134475094Y-47990916D01*
X134490208Y-48001591D01*
X134493864Y-48005184D01*
X134510206Y-48036958D01*
X134508886Y-48072612D01*
X134489929Y-48103230D01*
X134469559Y-48114836D01*
X134433575Y-48127531D01*
X134391151Y-48137581D01*
X134387701Y-48138180D01*
X134345031Y-48143396D01*
X134287645Y-48147770D01*
X134222628Y-48150858D01*
X134157068Y-48152217D01*
X134140836Y-48152258D01*
X134042523Y-48149781D01*
X133962471Y-48141775D01*
X133897292Y-48127243D01*
X133843596Y-48105189D01*
X133797995Y-48074616D01*
X133757102Y-48034526D01*
X133736981Y-48008299D01*
X133725355Y-47978752D01*
X133722446Y-47939035D01*
X133722587Y-47927066D01*
X133726460Y-47894385D01*
X133738844Y-47867859D01*
X133764009Y-47837011D01*
X133785221Y-47814871D01*
X133811617Y-47792325D01*
X133841334Y-47773957D01*
X133877564Y-47758701D01*
X133923496Y-47745489D01*
X133982323Y-47733254D01*
X134057235Y-47720929D01*
X134151424Y-47707446D01*
X134196736Y-47700436D01*
X134264690Y-47685877D01*
X134313826Y-47669377D01*
X134343393Y-47651479D01*
X134352643Y-47632725D01*
X134340827Y-47613655D01*
X134307195Y-47594811D01*
X134304149Y-47593597D01*
X134257790Y-47581519D01*
X134195140Y-47573319D01*
X134121706Y-47569159D01*
X134042996Y-47569201D01*
X133964518Y-47573609D01*
X133891779Y-47582545D01*
X133887852Y-47583194D01*
X133839036Y-47590901D01*
X133806784Y-47594513D01*
X133785787Y-47593916D01*
X133770733Y-47588994D01*
X133756313Y-47579636D01*
X133755143Y-47578765D01*
X133730626Y-47548391D01*
X133725833Y-47512890D01*
X133741639Y-47478309D01*
X133746185Y-47473853D01*
X133775799Y-47458713D01*
X133822781Y-47445590D01*
X133883085Y-47434790D01*
X133952667Y-47426621D01*
X134027482Y-47421391D01*
X134103485Y-47419407D01*
X134176632Y-47420976D01*
G36*
X134176632Y-47420976D02*
G01*
X134242879Y-47426406D01*
X134298179Y-47436004D01*
X134349062Y-47450865D01*
X134420374Y-47483998D01*
X134471531Y-47526680D01*
X134502354Y-47578745D01*
X134512668Y-47640023D01*
X134511731Y-47671272D01*
X134505939Y-47696069D01*
X134491132Y-47717739D01*
X134463159Y-47745089D01*
X134455181Y-47752418D01*
X134431471Y-47773321D01*
X134409077Y-47790291D01*
X134385044Y-47804245D01*
X134356416Y-47816096D01*
X134320239Y-47826760D01*
X134273559Y-47837151D01*
X134213420Y-47848186D01*
X134136869Y-47860778D01*
X134040950Y-47875844D01*
X134022587Y-47878878D01*
X133960257Y-47892498D01*
X133915039Y-47908232D01*
X133888755Y-47925303D01*
X133883226Y-47942937D01*
X133885847Y-47947208D01*
X133903779Y-47962273D01*
X133931905Y-47978907D01*
X133944705Y-47984897D01*
X133966003Y-47992090D01*
X133992389Y-47996867D01*
X134028233Y-47999686D01*
X134077907Y-48001004D01*
X134145779Y-48001277D01*
X134163564Y-48001204D01*
X134231185Y-48000093D01*
X134296124Y-47997868D01*
X134351749Y-47994802D01*
X134391430Y-47991167D01*
X134426941Y-47987099D01*
X134456194Y-47986316D01*
X134475094Y-47990916D01*
X134490208Y-48001591D01*
X134493864Y-48005184D01*
X134510206Y-48036958D01*
X134508886Y-48072612D01*
X134489929Y-48103230D01*
X134469559Y-48114836D01*
X134433575Y-48127531D01*
X134391151Y-48137581D01*
X134387701Y-48138180D01*
X134345031Y-48143396D01*
X134287645Y-48147770D01*
X134222628Y-48150858D01*
X134157068Y-48152217D01*
X134140836Y-48152258D01*
X134042523Y-48149781D01*
X133962471Y-48141775D01*
X133897292Y-48127243D01*
X133843596Y-48105189D01*
X133797995Y-48074616D01*
X133757102Y-48034526D01*
X133736981Y-48008299D01*
X133725355Y-47978752D01*
X133722446Y-47939035D01*
X133722587Y-47927066D01*
X133726460Y-47894385D01*
X133738844Y-47867859D01*
X133764009Y-47837011D01*
X133785221Y-47814871D01*
X133811617Y-47792325D01*
X133841334Y-47773957D01*
X133877564Y-47758701D01*
X133923496Y-47745489D01*
X133982323Y-47733254D01*
X134057235Y-47720929D01*
X134151424Y-47707446D01*
X134196736Y-47700436D01*
X134264690Y-47685877D01*
X134313826Y-47669377D01*
X134343393Y-47651479D01*
X134352643Y-47632725D01*
X134340827Y-47613655D01*
X134307195Y-47594811D01*
X134304149Y-47593597D01*
X134257790Y-47581519D01*
X134195140Y-47573319D01*
X134121706Y-47569159D01*
X134042996Y-47569201D01*
X133964518Y-47573609D01*
X133891779Y-47582545D01*
X133887852Y-47583194D01*
X133839036Y-47590901D01*
X133806784Y-47594513D01*
X133785787Y-47593916D01*
X133770733Y-47588994D01*
X133756313Y-47579636D01*
X133755143Y-47578765D01*
X133730626Y-47548391D01*
X133725833Y-47512890D01*
X133741639Y-47478309D01*
X133746185Y-47473853D01*
X133775799Y-47458713D01*
X133822781Y-47445590D01*
X133883085Y-47434790D01*
X133952667Y-47426621D01*
X134027482Y-47421391D01*
X134103485Y-47419407D01*
X134176632Y-47420976D01*
G37*
X130176334Y-41942926D02*
X130360835Y-41959863D01*
X130532236Y-41994022D01*
X130696914Y-42046839D01*
X130861243Y-42119753D01*
X131023911Y-42212849D01*
X131198486Y-42339762D01*
X131360375Y-42486498D01*
X131506015Y-42649424D01*
X131631839Y-42824907D01*
X131734284Y-43009316D01*
X131743583Y-43029044D01*
X131821460Y-43219461D01*
X131880635Y-43417325D01*
X131921874Y-43626418D01*
X131945939Y-43850518D01*
X131953598Y-44093407D01*
X131944286Y-44344491D01*
X131914731Y-44591760D01*
X131864474Y-44823231D01*
X131793064Y-45040547D01*
X131700053Y-45245350D01*
X131584991Y-45439281D01*
X131476909Y-45587442D01*
X131327671Y-45754148D01*
X131165008Y-45896937D01*
X130988992Y-46015762D01*
X130799694Y-46110577D01*
X130597184Y-46181335D01*
X130381535Y-46227990D01*
X130379074Y-46228353D01*
X130337545Y-46231997D01*
X130274875Y-46234700D01*
X130196860Y-46236335D01*
X130109295Y-46236778D01*
X130017974Y-46235900D01*
X129953971Y-46234615D01*
X129859010Y-46231638D01*
X129782915Y-46227376D01*
X129720199Y-46221374D01*
X129665372Y-46213177D01*
X129612947Y-46202330D01*
X129553964Y-46188313D01*
X129492427Y-46172351D01*
X129436773Y-46155606D01*
X129381950Y-46136116D01*
X129322909Y-46111921D01*
X129254598Y-46081058D01*
X129171965Y-46041567D01*
X129069960Y-45991487D01*
X128787839Y-45852063D01*
X129013800Y-45480915D01*
X129043383Y-45432338D01*
X129096530Y-45345137D01*
X129144101Y-45267179D01*
X129184355Y-45201306D01*
X129215555Y-45150364D01*
X129235963Y-45117195D01*
X129243839Y-45104643D01*
X129246029Y-45105018D01*
X129263675Y-45117302D01*
X129294676Y-45142795D01*
X129334134Y-45177542D01*
X129404407Y-45237577D01*
X129529858Y-45326354D01*
X129651576Y-45388242D01*
X129739532Y-45419148D01*
X129888304Y-45450733D01*
X130034476Y-45456332D01*
X130175930Y-45436325D01*
X130310545Y-45391094D01*
X130436201Y-45321021D01*
X130550780Y-45226487D01*
X130614536Y-45156859D01*
X130704354Y-45028072D01*
X130778054Y-44878621D01*
X130835988Y-44707740D01*
X130878508Y-44514665D01*
X130880438Y-44502679D01*
X130889350Y-44424991D01*
X130895984Y-44328465D01*
X130900287Y-44219697D01*
X130902206Y-44105282D01*
X130901685Y-43991816D01*
X130898672Y-43885894D01*
X130893113Y-43794111D01*
X130884954Y-43723065D01*
X130853681Y-43562128D01*
X130801061Y-43374134D01*
X130734882Y-43209548D01*
X130655234Y-43068497D01*
X130562204Y-42951108D01*
X130455881Y-42857511D01*
X130336354Y-42787830D01*
X130203711Y-42742195D01*
X130174282Y-42736531D01*
X130100531Y-42729136D01*
X130014343Y-42726722D01*
X129925371Y-42729156D01*
X129843273Y-42736308D01*
X129777704Y-42748043D01*
X129668473Y-42785409D01*
X129541714Y-42853626D01*
X129428845Y-42943398D01*
X129408924Y-42962309D01*
X129372827Y-42995766D01*
X129347316Y-43018286D01*
X129336951Y-43025776D01*
X129334400Y-43022194D01*
X129318693Y-42999571D01*
X129290319Y-42958495D01*
X129251151Y-42901684D01*
X129203065Y-42831860D01*
X129147935Y-42751741D01*
X129087636Y-42664049D01*
X128841001Y-42305250D01*
X128896098Y-42288743D01*
X128901847Y-42286872D01*
X128939272Y-42272014D01*
X128993231Y-42248056D01*
X129057389Y-42217879D01*
X129125416Y-42184365D01*
X129155059Y-42169548D01*
X129319663Y-42093049D01*
X129471377Y-42033893D01*
X129616035Y-41990566D01*
X129759473Y-41961555D01*
X129907525Y-41945347D01*
X130066028Y-41940428D01*
X130176334Y-41942926D01*
G36*
X130176334Y-41942926D02*
G01*
X130360835Y-41959863D01*
X130532236Y-41994022D01*
X130696914Y-42046839D01*
X130861243Y-42119753D01*
X131023911Y-42212849D01*
X131198486Y-42339762D01*
X131360375Y-42486498D01*
X131506015Y-42649424D01*
X131631839Y-42824907D01*
X131734284Y-43009316D01*
X131743583Y-43029044D01*
X131821460Y-43219461D01*
X131880635Y-43417325D01*
X131921874Y-43626418D01*
X131945939Y-43850518D01*
X131953598Y-44093407D01*
X131944286Y-44344491D01*
X131914731Y-44591760D01*
X131864474Y-44823231D01*
X131793064Y-45040547D01*
X131700053Y-45245350D01*
X131584991Y-45439281D01*
X131476909Y-45587442D01*
X131327671Y-45754148D01*
X131165008Y-45896937D01*
X130988992Y-46015762D01*
X130799694Y-46110577D01*
X130597184Y-46181335D01*
X130381535Y-46227990D01*
X130379074Y-46228353D01*
X130337545Y-46231997D01*
X130274875Y-46234700D01*
X130196860Y-46236335D01*
X130109295Y-46236778D01*
X130017974Y-46235900D01*
X129953971Y-46234615D01*
X129859010Y-46231638D01*
X129782915Y-46227376D01*
X129720199Y-46221374D01*
X129665372Y-46213177D01*
X129612947Y-46202330D01*
X129553964Y-46188313D01*
X129492427Y-46172351D01*
X129436773Y-46155606D01*
X129381950Y-46136116D01*
X129322909Y-46111921D01*
X129254598Y-46081058D01*
X129171965Y-46041567D01*
X129069960Y-45991487D01*
X128787839Y-45852063D01*
X129013800Y-45480915D01*
X129043383Y-45432338D01*
X129096530Y-45345137D01*
X129144101Y-45267179D01*
X129184355Y-45201306D01*
X129215555Y-45150364D01*
X129235963Y-45117195D01*
X129243839Y-45104643D01*
X129246029Y-45105018D01*
X129263675Y-45117302D01*
X129294676Y-45142795D01*
X129334134Y-45177542D01*
X129404407Y-45237577D01*
X129529858Y-45326354D01*
X129651576Y-45388242D01*
X129739532Y-45419148D01*
X129888304Y-45450733D01*
X130034476Y-45456332D01*
X130175930Y-45436325D01*
X130310545Y-45391094D01*
X130436201Y-45321021D01*
X130550780Y-45226487D01*
X130614536Y-45156859D01*
X130704354Y-45028072D01*
X130778054Y-44878621D01*
X130835988Y-44707740D01*
X130878508Y-44514665D01*
X130880438Y-44502679D01*
X130889350Y-44424991D01*
X130895984Y-44328465D01*
X130900287Y-44219697D01*
X130902206Y-44105282D01*
X130901685Y-43991816D01*
X130898672Y-43885894D01*
X130893113Y-43794111D01*
X130884954Y-43723065D01*
X130853681Y-43562128D01*
X130801061Y-43374134D01*
X130734882Y-43209548D01*
X130655234Y-43068497D01*
X130562204Y-42951108D01*
X130455881Y-42857511D01*
X130336354Y-42787830D01*
X130203711Y-42742195D01*
X130174282Y-42736531D01*
X130100531Y-42729136D01*
X130014343Y-42726722D01*
X129925371Y-42729156D01*
X129843273Y-42736308D01*
X129777704Y-42748043D01*
X129668473Y-42785409D01*
X129541714Y-42853626D01*
X129428845Y-42943398D01*
X129408924Y-42962309D01*
X129372827Y-42995766D01*
X129347316Y-43018286D01*
X129336951Y-43025776D01*
X129334400Y-43022194D01*
X129318693Y-42999571D01*
X129290319Y-42958495D01*
X129251151Y-42901684D01*
X129203065Y-42831860D01*
X129147935Y-42751741D01*
X129087636Y-42664049D01*
X128841001Y-42305250D01*
X128896098Y-42288743D01*
X128901847Y-42286872D01*
X128939272Y-42272014D01*
X128993231Y-42248056D01*
X129057389Y-42217879D01*
X129125416Y-42184365D01*
X129155059Y-42169548D01*
X129319663Y-42093049D01*
X129471377Y-42033893D01*
X129616035Y-41990566D01*
X129759473Y-41961555D01*
X129907525Y-41945347D01*
X130066028Y-41940428D01*
X130176334Y-41942926D01*
G37*
X125691242Y-44803849D02*
X125688329Y-44930905D01*
X125679999Y-45042957D01*
X125665607Y-45146100D01*
X125644508Y-45246429D01*
X125616057Y-45350038D01*
X125572915Y-45473881D01*
X125493677Y-45641064D01*
X125396480Y-45790809D01*
X125282812Y-45921700D01*
X125154159Y-46032322D01*
X125012008Y-46121260D01*
X124857846Y-46187098D01*
X124693161Y-46228422D01*
X124691179Y-46228754D01*
X124570824Y-46240334D01*
X124438586Y-46238789D01*
X124303891Y-46225070D01*
X124176171Y-46200131D01*
X124064853Y-46164925D01*
X124017338Y-46143501D01*
X123955456Y-46110938D01*
X123891867Y-46073694D01*
X123833208Y-46035869D01*
X123786113Y-46001562D01*
X123757217Y-45974872D01*
X123750584Y-45967544D01*
X123742676Y-45964983D01*
X123737390Y-45977699D01*
X123733495Y-46009747D01*
X123729758Y-46065179D01*
X123722893Y-46180686D01*
X123197056Y-46184282D01*
X122671219Y-46187879D01*
X122707603Y-46125794D01*
X122709772Y-46122124D01*
X122720352Y-46104892D01*
X122729950Y-46089541D01*
X122738618Y-46074737D01*
X122746407Y-46059147D01*
X122753369Y-46041437D01*
X122759556Y-46020272D01*
X122765018Y-45994321D01*
X122769809Y-45962248D01*
X122773979Y-45922720D01*
X122777581Y-45874405D01*
X122780665Y-45815967D01*
X122783284Y-45746074D01*
X122785489Y-45663392D01*
X122787331Y-45566587D01*
X122788863Y-45454325D01*
X122790099Y-45329053D01*
X123791541Y-45329053D01*
X123860190Y-45374081D01*
X123886590Y-45390301D01*
X123947039Y-45422705D01*
X124004352Y-45448509D01*
X124029452Y-45457246D01*
X124109318Y-45474689D01*
X124210298Y-45483596D01*
X124261646Y-45485449D01*
X124309310Y-45485027D01*
X124344791Y-45480267D01*
X124376616Y-45469862D01*
X124413310Y-45452507D01*
X124483829Y-45406017D01*
X124544922Y-45340254D01*
X124593824Y-45255506D01*
X124631002Y-45150445D01*
X124656919Y-45023743D01*
X124672043Y-44874070D01*
X124676837Y-44700100D01*
X124676604Y-44660548D01*
X124669712Y-44477292D01*
X124652975Y-44317833D01*
X124625988Y-44180491D01*
X124588342Y-44063582D01*
X124539631Y-43965425D01*
X124479448Y-43884336D01*
X124454480Y-43859588D01*
X124377100Y-43808029D01*
X124286263Y-43776655D01*
X124185906Y-43765643D01*
X124079962Y-43775172D01*
X123972366Y-43805420D01*
X123867055Y-43856566D01*
X123791541Y-43901830D01*
X123791541Y-45329053D01*
X122790099Y-45329053D01*
X122790136Y-45325273D01*
X122791202Y-45178098D01*
X122792112Y-45011466D01*
X122792918Y-44824042D01*
X122793672Y-44614494D01*
X122794425Y-44381488D01*
X122795229Y-44123690D01*
X122796136Y-43839767D01*
X122803001Y-41745983D01*
X123348758Y-41742393D01*
X123388446Y-41742152D01*
X123505217Y-41741673D01*
X123612022Y-41741575D01*
X123705945Y-41741840D01*
X123784071Y-41742447D01*
X123843485Y-41743376D01*
X123881271Y-41744607D01*
X123894514Y-41746120D01*
X123892820Y-41750917D01*
X123880181Y-41773658D01*
X123859247Y-41806729D01*
X123857159Y-41809891D01*
X123840929Y-41835425D01*
X123827320Y-41860269D01*
X123816103Y-41886982D01*
X123807046Y-41918122D01*
X123799918Y-41956250D01*
X123794490Y-42003923D01*
X123790530Y-42063701D01*
X123787807Y-42138143D01*
X123786092Y-42229808D01*
X123785152Y-42341256D01*
X123784757Y-42475044D01*
X123784676Y-42633733D01*
X123784820Y-42757629D01*
X123785261Y-42879267D01*
X123785966Y-42989559D01*
X123786904Y-43085821D01*
X123788044Y-43165367D01*
X123789352Y-43225511D01*
X123790797Y-43263566D01*
X123792346Y-43276848D01*
X123797345Y-43274787D01*
X123819318Y-43260270D01*
X123850698Y-43236429D01*
X123896191Y-43204367D01*
X123981665Y-43157127D01*
X124079359Y-43114988D01*
X124180153Y-43082218D01*
X124264839Y-43065508D01*
X124370310Y-43054857D01*
X124484458Y-43051166D01*
X124598476Y-43054442D01*
X124703554Y-43064688D01*
X124790883Y-43081908D01*
X124879804Y-43110916D01*
X125028145Y-43181237D01*
X125165497Y-43274725D01*
X125289328Y-43389225D01*
X125397102Y-43522587D01*
X125486286Y-43672656D01*
X125508427Y-43718674D01*
X125570474Y-43873896D01*
X125618983Y-44042361D01*
X125654567Y-44227040D01*
X125677840Y-44430901D01*
X125689414Y-44656915D01*
X125689952Y-44700100D01*
X125691242Y-44803849D01*
G36*
X125691242Y-44803849D02*
G01*
X125688329Y-44930905D01*
X125679999Y-45042957D01*
X125665607Y-45146100D01*
X125644508Y-45246429D01*
X125616057Y-45350038D01*
X125572915Y-45473881D01*
X125493677Y-45641064D01*
X125396480Y-45790809D01*
X125282812Y-45921700D01*
X125154159Y-46032322D01*
X125012008Y-46121260D01*
X124857846Y-46187098D01*
X124693161Y-46228422D01*
X124691179Y-46228754D01*
X124570824Y-46240334D01*
X124438586Y-46238789D01*
X124303891Y-46225070D01*
X124176171Y-46200131D01*
X124064853Y-46164925D01*
X124017338Y-46143501D01*
X123955456Y-46110938D01*
X123891867Y-46073694D01*
X123833208Y-46035869D01*
X123786113Y-46001562D01*
X123757217Y-45974872D01*
X123750584Y-45967544D01*
X123742676Y-45964983D01*
X123737390Y-45977699D01*
X123733495Y-46009747D01*
X123729758Y-46065179D01*
X123722893Y-46180686D01*
X123197056Y-46184282D01*
X122671219Y-46187879D01*
X122707603Y-46125794D01*
X122709772Y-46122124D01*
X122720352Y-46104892D01*
X122729950Y-46089541D01*
X122738618Y-46074737D01*
X122746407Y-46059147D01*
X122753369Y-46041437D01*
X122759556Y-46020272D01*
X122765018Y-45994321D01*
X122769809Y-45962248D01*
X122773979Y-45922720D01*
X122777581Y-45874405D01*
X122780665Y-45815967D01*
X122783284Y-45746074D01*
X122785489Y-45663392D01*
X122787331Y-45566587D01*
X122788863Y-45454325D01*
X122790099Y-45329053D01*
X123791541Y-45329053D01*
X123860190Y-45374081D01*
X123886590Y-45390301D01*
X123947039Y-45422705D01*
X124004352Y-45448509D01*
X124029452Y-45457246D01*
X124109318Y-45474689D01*
X124210298Y-45483596D01*
X124261646Y-45485449D01*
X124309310Y-45485027D01*
X124344791Y-45480267D01*
X124376616Y-45469862D01*
X124413310Y-45452507D01*
X124483829Y-45406017D01*
X124544922Y-45340254D01*
X124593824Y-45255506D01*
X124631002Y-45150445D01*
X124656919Y-45023743D01*
X124672043Y-44874070D01*
X124676837Y-44700100D01*
X124676604Y-44660548D01*
X124669712Y-44477292D01*
X124652975Y-44317833D01*
X124625988Y-44180491D01*
X124588342Y-44063582D01*
X124539631Y-43965425D01*
X124479448Y-43884336D01*
X124454480Y-43859588D01*
X124377100Y-43808029D01*
X124286263Y-43776655D01*
X124185906Y-43765643D01*
X124079962Y-43775172D01*
X123972366Y-43805420D01*
X123867055Y-43856566D01*
X123791541Y-43901830D01*
X123791541Y-45329053D01*
X122790099Y-45329053D01*
X122790136Y-45325273D01*
X122791202Y-45178098D01*
X122792112Y-45011466D01*
X122792918Y-44824042D01*
X122793672Y-44614494D01*
X122794425Y-44381488D01*
X122795229Y-44123690D01*
X122796136Y-43839767D01*
X122803001Y-41745983D01*
X123348758Y-41742393D01*
X123388446Y-41742152D01*
X123505217Y-41741673D01*
X123612022Y-41741575D01*
X123705945Y-41741840D01*
X123784071Y-41742447D01*
X123843485Y-41743376D01*
X123881271Y-41744607D01*
X123894514Y-41746120D01*
X123892820Y-41750917D01*
X123880181Y-41773658D01*
X123859247Y-41806729D01*
X123857159Y-41809891D01*
X123840929Y-41835425D01*
X123827320Y-41860269D01*
X123816103Y-41886982D01*
X123807046Y-41918122D01*
X123799918Y-41956250D01*
X123794490Y-42003923D01*
X123790530Y-42063701D01*
X123787807Y-42138143D01*
X123786092Y-42229808D01*
X123785152Y-42341256D01*
X123784757Y-42475044D01*
X123784676Y-42633733D01*
X123784820Y-42757629D01*
X123785261Y-42879267D01*
X123785966Y-42989559D01*
X123786904Y-43085821D01*
X123788044Y-43165367D01*
X123789352Y-43225511D01*
X123790797Y-43263566D01*
X123792346Y-43276848D01*
X123797345Y-43274787D01*
X123819318Y-43260270D01*
X123850698Y-43236429D01*
X123896191Y-43204367D01*
X123981665Y-43157127D01*
X124079359Y-43114988D01*
X124180153Y-43082218D01*
X124264839Y-43065508D01*
X124370310Y-43054857D01*
X124484458Y-43051166D01*
X124598476Y-43054442D01*
X124703554Y-43064688D01*
X124790883Y-43081908D01*
X124879804Y-43110916D01*
X125028145Y-43181237D01*
X125165497Y-43274725D01*
X125289328Y-43389225D01*
X125397102Y-43522587D01*
X125486286Y-43672656D01*
X125508427Y-43718674D01*
X125570474Y-43873896D01*
X125618983Y-44042361D01*
X125654567Y-44227040D01*
X125677840Y-44430901D01*
X125689414Y-44656915D01*
X125689952Y-44700100D01*
X125691242Y-44803849D01*
G37*
X128794615Y-45235882D02*
X128788449Y-45346584D01*
X128775122Y-45449587D01*
X128755013Y-45535389D01*
X128722927Y-45623666D01*
X128648550Y-45769147D01*
X128553481Y-45897143D01*
X128438705Y-46006781D01*
X128305206Y-46097190D01*
X128153967Y-46167496D01*
X127985974Y-46216829D01*
X127917470Y-46227956D01*
X127819580Y-46235689D01*
X127712971Y-46237428D01*
X127606552Y-46233313D01*
X127509232Y-46223485D01*
X127429920Y-46208084D01*
X127390066Y-46195958D01*
X127299550Y-46160474D01*
X127207539Y-46115423D01*
X127123525Y-46065691D01*
X127057002Y-46016164D01*
X127056184Y-46015449D01*
X127019730Y-45984540D01*
X126991683Y-45962531D01*
X126978056Y-45954146D01*
X126976566Y-45956148D01*
X126973195Y-45977774D01*
X126970852Y-46018108D01*
X126969974Y-46070848D01*
X126969974Y-46187551D01*
X126455109Y-46187551D01*
X126441403Y-46187549D01*
X126326452Y-46187348D01*
X126220951Y-46186847D01*
X126127901Y-46186085D01*
X126050304Y-46185097D01*
X125991161Y-46183922D01*
X125953473Y-46182597D01*
X125940244Y-46181159D01*
X125940552Y-46179902D01*
X125949207Y-46161349D01*
X125967350Y-46126493D01*
X125991731Y-46081618D01*
X126043217Y-45988470D01*
X126050766Y-45068829D01*
X127024893Y-45068829D01*
X127025276Y-45141488D01*
X127027131Y-45217833D01*
X127030766Y-45273016D01*
X127036445Y-45310630D01*
X127044433Y-45334269D01*
X127054709Y-45351149D01*
X127093405Y-45397165D01*
X127145252Y-45445069D01*
X127202079Y-45487752D01*
X127255712Y-45518101D01*
X127285469Y-45529237D01*
X127353986Y-45544064D01*
X127443475Y-45551644D01*
X127537825Y-45550496D01*
X127627421Y-45534904D01*
X127702205Y-45502694D01*
X127766908Y-45452415D01*
X127785109Y-45433818D01*
X127832498Y-45370394D01*
X127858139Y-45302032D01*
X127865839Y-45219773D01*
X127863753Y-45176315D01*
X127843122Y-45086853D01*
X127799782Y-45010067D01*
X127732944Y-44945091D01*
X127641818Y-44891063D01*
X127525615Y-44847118D01*
X127478768Y-44835586D01*
X127422055Y-44827690D01*
X127350682Y-44823305D01*
X127258298Y-44821830D01*
X127243291Y-44821831D01*
X127174176Y-44822675D01*
X127114807Y-44824714D01*
X127071087Y-44827681D01*
X127048920Y-44831309D01*
X127046369Y-44832487D01*
X127038122Y-44839883D01*
X127032281Y-44854747D01*
X127028442Y-44881075D01*
X127026200Y-44922866D01*
X127025152Y-44984118D01*
X127024893Y-45068829D01*
X126050766Y-45068829D01*
X126051163Y-45020524D01*
X126052344Y-44879543D01*
X126053996Y-44699741D01*
X126055730Y-44543647D01*
X126057687Y-44409053D01*
X126060006Y-44293753D01*
X126062827Y-44195537D01*
X126066291Y-44112200D01*
X126070537Y-44041533D01*
X126075707Y-43981328D01*
X126081939Y-43929379D01*
X126089374Y-43883478D01*
X126098153Y-43841417D01*
X126108414Y-43800989D01*
X126120300Y-43759985D01*
X126133948Y-43716200D01*
X126187717Y-43578933D01*
X126261352Y-43452070D01*
X126353053Y-43343456D01*
X126463662Y-43252522D01*
X126594017Y-43178701D01*
X126744958Y-43121423D01*
X126917324Y-43080121D01*
X127111956Y-43054226D01*
X127179982Y-43049077D01*
X127294549Y-43045312D01*
X127408103Y-43048702D01*
X127525960Y-43059820D01*
X127653437Y-43079236D01*
X127795850Y-43107522D01*
X127958514Y-43145251D01*
X127996114Y-43154380D01*
X128090536Y-43176844D01*
X128180030Y-43197527D01*
X128259168Y-43215209D01*
X128322523Y-43228668D01*
X128364667Y-43236681D01*
X128461901Y-43252651D01*
X128325203Y-43583966D01*
X128291010Y-43666688D01*
X128257372Y-43747744D01*
X128228510Y-43816949D01*
X128205842Y-43870916D01*
X128190784Y-43906260D01*
X128184754Y-43919594D01*
X128183806Y-43919785D01*
X128166331Y-43913832D01*
X128131970Y-43898576D01*
X128086921Y-43876731D01*
X127993289Y-43834191D01*
X127864445Y-43787678D01*
X127732573Y-43752058D01*
X127602831Y-43728226D01*
X127480376Y-43717075D01*
X127370364Y-43719502D01*
X127277952Y-43736400D01*
X127213456Y-43763212D01*
X127140207Y-43818158D01*
X127083820Y-43892700D01*
X127045908Y-43984543D01*
X127028086Y-44091395D01*
X127021810Y-44189875D01*
X127349432Y-44190772D01*
X127459919Y-44191699D01*
X127582125Y-44194989D01*
X127686522Y-44201199D01*
X127778511Y-44210932D01*
X127863491Y-44224791D01*
X127946864Y-44243381D01*
X128034028Y-44267306D01*
X128164447Y-44312844D01*
X128317847Y-44387836D01*
X128452475Y-44479695D01*
X128567003Y-44587128D01*
X128660103Y-44708843D01*
X128730448Y-44843549D01*
X128776710Y-44989953D01*
X128783955Y-45029384D01*
X128793243Y-45126981D01*
X128794413Y-45219773D01*
X128794615Y-45235882D01*
G36*
X128794615Y-45235882D02*
G01*
X128788449Y-45346584D01*
X128775122Y-45449587D01*
X128755013Y-45535389D01*
X128722927Y-45623666D01*
X128648550Y-45769147D01*
X128553481Y-45897143D01*
X128438705Y-46006781D01*
X128305206Y-46097190D01*
X128153967Y-46167496D01*
X127985974Y-46216829D01*
X127917470Y-46227956D01*
X127819580Y-46235689D01*
X127712971Y-46237428D01*
X127606552Y-46233313D01*
X127509232Y-46223485D01*
X127429920Y-46208084D01*
X127390066Y-46195958D01*
X127299550Y-46160474D01*
X127207539Y-46115423D01*
X127123525Y-46065691D01*
X127057002Y-46016164D01*
X127056184Y-46015449D01*
X127019730Y-45984540D01*
X126991683Y-45962531D01*
X126978056Y-45954146D01*
X126976566Y-45956148D01*
X126973195Y-45977774D01*
X126970852Y-46018108D01*
X126969974Y-46070848D01*
X126969974Y-46187551D01*
X126455109Y-46187551D01*
X126441403Y-46187549D01*
X126326452Y-46187348D01*
X126220951Y-46186847D01*
X126127901Y-46186085D01*
X126050304Y-46185097D01*
X125991161Y-46183922D01*
X125953473Y-46182597D01*
X125940244Y-46181159D01*
X125940552Y-46179902D01*
X125949207Y-46161349D01*
X125967350Y-46126493D01*
X125991731Y-46081618D01*
X126043217Y-45988470D01*
X126050766Y-45068829D01*
X127024893Y-45068829D01*
X127025276Y-45141488D01*
X127027131Y-45217833D01*
X127030766Y-45273016D01*
X127036445Y-45310630D01*
X127044433Y-45334269D01*
X127054709Y-45351149D01*
X127093405Y-45397165D01*
X127145252Y-45445069D01*
X127202079Y-45487752D01*
X127255712Y-45518101D01*
X127285469Y-45529237D01*
X127353986Y-45544064D01*
X127443475Y-45551644D01*
X127537825Y-45550496D01*
X127627421Y-45534904D01*
X127702205Y-45502694D01*
X127766908Y-45452415D01*
X127785109Y-45433818D01*
X127832498Y-45370394D01*
X127858139Y-45302032D01*
X127865839Y-45219773D01*
X127863753Y-45176315D01*
X127843122Y-45086853D01*
X127799782Y-45010067D01*
X127732944Y-44945091D01*
X127641818Y-44891063D01*
X127525615Y-44847118D01*
X127478768Y-44835586D01*
X127422055Y-44827690D01*
X127350682Y-44823305D01*
X127258298Y-44821830D01*
X127243291Y-44821831D01*
X127174176Y-44822675D01*
X127114807Y-44824714D01*
X127071087Y-44827681D01*
X127048920Y-44831309D01*
X127046369Y-44832487D01*
X127038122Y-44839883D01*
X127032281Y-44854747D01*
X127028442Y-44881075D01*
X127026200Y-44922866D01*
X127025152Y-44984118D01*
X127024893Y-45068829D01*
X126050766Y-45068829D01*
X126051163Y-45020524D01*
X126052344Y-44879543D01*
X126053996Y-44699741D01*
X126055730Y-44543647D01*
X126057687Y-44409053D01*
X126060006Y-44293753D01*
X126062827Y-44195537D01*
X126066291Y-44112200D01*
X126070537Y-44041533D01*
X126075707Y-43981328D01*
X126081939Y-43929379D01*
X126089374Y-43883478D01*
X126098153Y-43841417D01*
X126108414Y-43800989D01*
X126120300Y-43759985D01*
X126133948Y-43716200D01*
X126187717Y-43578933D01*
X126261352Y-43452070D01*
X126353053Y-43343456D01*
X126463662Y-43252522D01*
X126594017Y-43178701D01*
X126744958Y-43121423D01*
X126917324Y-43080121D01*
X127111956Y-43054226D01*
X127179982Y-43049077D01*
X127294549Y-43045312D01*
X127408103Y-43048702D01*
X127525960Y-43059820D01*
X127653437Y-43079236D01*
X127795850Y-43107522D01*
X127958514Y-43145251D01*
X127996114Y-43154380D01*
X128090536Y-43176844D01*
X128180030Y-43197527D01*
X128259168Y-43215209D01*
X128322523Y-43228668D01*
X128364667Y-43236681D01*
X128461901Y-43252651D01*
X128325203Y-43583966D01*
X128291010Y-43666688D01*
X128257372Y-43747744D01*
X128228510Y-43816949D01*
X128205842Y-43870916D01*
X128190784Y-43906260D01*
X128184754Y-43919594D01*
X128183806Y-43919785D01*
X128166331Y-43913832D01*
X128131970Y-43898576D01*
X128086921Y-43876731D01*
X127993289Y-43834191D01*
X127864445Y-43787678D01*
X127732573Y-43752058D01*
X127602831Y-43728226D01*
X127480376Y-43717075D01*
X127370364Y-43719502D01*
X127277952Y-43736400D01*
X127213456Y-43763212D01*
X127140207Y-43818158D01*
X127083820Y-43892700D01*
X127045908Y-43984543D01*
X127028086Y-44091395D01*
X127021810Y-44189875D01*
X127349432Y-44190772D01*
X127459919Y-44191699D01*
X127582125Y-44194989D01*
X127686522Y-44201199D01*
X127778511Y-44210932D01*
X127863491Y-44224791D01*
X127946864Y-44243381D01*
X128034028Y-44267306D01*
X128164447Y-44312844D01*
X128317847Y-44387836D01*
X128452475Y-44479695D01*
X128567003Y-44587128D01*
X128660103Y-44708843D01*
X128730448Y-44843549D01*
X128776710Y-44989953D01*
X128783955Y-45029384D01*
X128793243Y-45126981D01*
X128794413Y-45219773D01*
X128794615Y-45235882D01*
G37*
X138005432Y-46214688D02*
X138004019Y-46321158D01*
X138002264Y-46412872D01*
X138000133Y-46490965D01*
X137997589Y-46556572D01*
X137994598Y-46610829D01*
X137991122Y-46654871D01*
X137987127Y-46689833D01*
X137982576Y-46716851D01*
X137977434Y-46737060D01*
X137971666Y-46751595D01*
X137965235Y-46761592D01*
X137958106Y-46768186D01*
X137950242Y-46772513D01*
X137941609Y-46775707D01*
X137932171Y-46778904D01*
X137921891Y-46783239D01*
X137916107Y-46785411D01*
X137905497Y-46787784D01*
X137889732Y-46789958D01*
X137867697Y-46791941D01*
X137838277Y-46793744D01*
X137800356Y-46795373D01*
X137752819Y-46796839D01*
X137694551Y-46798149D01*
X137624437Y-46799313D01*
X137541361Y-46800339D01*
X137444208Y-46801236D01*
X137331863Y-46802013D01*
X137203212Y-46802678D01*
X137057137Y-46803240D01*
X136892525Y-46803708D01*
X136708260Y-46804090D01*
X136503227Y-46804396D01*
X136276311Y-46804633D01*
X136026396Y-46804811D01*
X135752368Y-46804939D01*
X135453110Y-46805024D01*
X135127508Y-46805076D01*
X135024326Y-46805086D01*
X134705790Y-46805093D01*
X134413274Y-46805053D01*
X134145675Y-46804958D01*
X133901891Y-46804801D01*
X133680819Y-46804573D01*
X133481359Y-46804267D01*
X133302408Y-46803873D01*
X133142863Y-46803386D01*
X133001623Y-46802795D01*
X132877586Y-46802095D01*
X132769650Y-46801275D01*
X132676713Y-46800329D01*
X132597672Y-46799248D01*
X132531426Y-46798025D01*
X132476872Y-46796651D01*
X132432909Y-46795119D01*
X132398434Y-46793420D01*
X132372346Y-46791546D01*
X132353543Y-46789490D01*
X132340922Y-46787244D01*
X132333381Y-46784798D01*
X132330982Y-46783710D01*
X132321160Y-46780135D01*
X132312153Y-46777524D01*
X132303924Y-46774741D01*
X132296437Y-46770648D01*
X132289655Y-46764108D01*
X132283542Y-46753985D01*
X132278062Y-46739141D01*
X132273177Y-46718439D01*
X132268851Y-46690743D01*
X132265048Y-46654916D01*
X132261731Y-46609821D01*
X132258863Y-46554320D01*
X132256409Y-46487277D01*
X132254331Y-46407555D01*
X132252594Y-46314018D01*
X132251160Y-46205527D01*
X132250689Y-46155288D01*
X132612742Y-46155288D01*
X132613139Y-46160099D01*
X132620422Y-46163998D01*
X132636876Y-46167080D01*
X132664788Y-46169442D01*
X132706444Y-46171178D01*
X132764129Y-46172384D01*
X132840129Y-46173156D01*
X132936731Y-46173589D01*
X133056221Y-46173779D01*
X133200883Y-46173821D01*
X133806860Y-46173821D01*
X133755633Y-46081146D01*
X133704406Y-45988470D01*
X133704406Y-43297443D01*
X133755633Y-43204767D01*
X133806860Y-43112092D01*
X132723698Y-43112092D01*
X132715866Y-45961010D01*
X132677468Y-46043016D01*
X132657223Y-46083663D01*
X132634300Y-46124380D01*
X132616988Y-46149422D01*
X132616945Y-46149470D01*
X132612742Y-46155288D01*
X132250689Y-46155288D01*
X132249993Y-46080946D01*
X132249057Y-45939138D01*
X132248315Y-45778967D01*
X132247730Y-45599295D01*
X132247266Y-45398985D01*
X132246887Y-45176900D01*
X132246556Y-44931904D01*
X132246236Y-44662860D01*
X132245891Y-44368630D01*
X132245485Y-44048078D01*
X132245432Y-44009272D01*
X132244979Y-43690751D01*
X132244546Y-43398420D01*
X132244164Y-43131141D01*
X132243867Y-42887777D01*
X132243685Y-42667190D01*
X132243652Y-42468243D01*
X132243798Y-42289798D01*
X132244157Y-42130719D01*
X132244761Y-41989867D01*
X132245641Y-41866105D01*
X132246829Y-41758295D01*
X132248358Y-41665301D01*
X132250259Y-41585985D01*
X132252565Y-41519208D01*
X132255308Y-41463835D01*
X132258519Y-41418727D01*
X132262232Y-41382747D01*
X132266477Y-41354757D01*
X132271288Y-41333620D01*
X132276695Y-41318199D01*
X132282732Y-41307356D01*
X132289430Y-41299954D01*
X132296822Y-41294855D01*
X132304938Y-41290921D01*
X132313812Y-41287016D01*
X132323476Y-41282002D01*
X132326304Y-41280404D01*
X132369091Y-41264937D01*
X132415930Y-41258580D01*
X132468731Y-41258582D01*
X132469611Y-41378715D01*
X132469834Y-41392540D01*
X132486616Y-41533063D01*
X132529360Y-41665283D01*
X132597470Y-41787800D01*
X132690355Y-41899211D01*
X132740199Y-41944651D01*
X132851182Y-42019968D01*
X132972275Y-42072491D01*
X133099952Y-42102190D01*
X133230684Y-42109038D01*
X133360947Y-42093007D01*
X133487212Y-42054069D01*
X133591009Y-41999983D01*
X134050394Y-41999983D01*
X134110806Y-42043447D01*
X134161897Y-42084296D01*
X134233890Y-42150924D01*
X134315547Y-42234428D01*
X134403777Y-42331626D01*
X134495487Y-42439335D01*
X134519104Y-42468138D01*
X134559314Y-42517540D01*
X134611874Y-42582353D01*
X134675043Y-42660414D01*
X134747079Y-42749559D01*
X134826241Y-42847626D01*
X134910789Y-42952452D01*
X134998980Y-43061872D01*
X135039431Y-43112092D01*
X135089073Y-43173724D01*
X135179327Y-43285845D01*
X135268002Y-43396072D01*
X135353355Y-43502240D01*
X135433645Y-43602188D01*
X135507131Y-43693751D01*
X135572072Y-43774767D01*
X135626727Y-43843072D01*
X135669353Y-43896503D01*
X135698211Y-43932896D01*
X135711558Y-43950090D01*
X135712660Y-43956551D01*
X135708995Y-43968840D01*
X135699500Y-43988173D01*
X135683225Y-44015922D01*
X135659223Y-44053458D01*
X135626547Y-44102152D01*
X135584248Y-44163377D01*
X135531378Y-44238502D01*
X135466990Y-44328900D01*
X135390135Y-44435942D01*
X135299867Y-44561000D01*
X135195236Y-44705444D01*
X135075296Y-44870646D01*
X134979729Y-45002145D01*
X134863135Y-45162453D01*
X134760575Y-45303235D01*
X134670856Y-45426052D01*
X134592787Y-45532467D01*
X134525175Y-45624043D01*
X134466825Y-45702342D01*
X134416547Y-45768927D01*
X134373148Y-45825359D01*
X134335433Y-45873202D01*
X134302212Y-45914017D01*
X134272290Y-45949368D01*
X134244476Y-45980816D01*
X134217577Y-46009924D01*
X134190400Y-46038254D01*
X134161752Y-46067370D01*
X134056179Y-46173821D01*
X135475541Y-46173879D01*
X135471082Y-46087867D01*
X135470866Y-46083545D01*
X135470019Y-46049161D01*
X135471624Y-46016216D01*
X135476753Y-45982906D01*
X135486480Y-45947426D01*
X135501878Y-45907973D01*
X135524021Y-45862741D01*
X135553982Y-45809925D01*
X135592835Y-45747722D01*
X135641653Y-45674325D01*
X135701509Y-45587932D01*
X135773477Y-45486738D01*
X135858630Y-45368936D01*
X135958041Y-45232724D01*
X136072785Y-45076297D01*
X136477812Y-44524889D01*
X136481380Y-45164230D01*
X136481696Y-45223868D01*
X136482254Y-45384505D01*
X136482000Y-45521137D01*
X136480637Y-45636350D01*
X136477864Y-45732731D01*
X136473385Y-45812864D01*
X136466900Y-45879335D01*
X136458110Y-45934731D01*
X136446717Y-45981636D01*
X136432422Y-46022636D01*
X136414927Y-46060317D01*
X136393934Y-46097265D01*
X136369142Y-46136065D01*
X136344221Y-46173821D01*
X137639371Y-46173821D01*
X137605916Y-46129200D01*
X137600677Y-46122141D01*
X137558789Y-46057442D01*
X137529914Y-45992038D01*
X137510953Y-45917096D01*
X137498808Y-45823781D01*
X137498474Y-45819713D01*
X137496712Y-45781223D01*
X137495120Y-45717004D01*
X137493707Y-45628524D01*
X137492479Y-45517251D01*
X137491443Y-45384651D01*
X137490605Y-45232193D01*
X137489973Y-45061344D01*
X137489554Y-44873570D01*
X137489355Y-44670341D01*
X137489382Y-44453122D01*
X137489642Y-44223383D01*
X137490142Y-43982589D01*
X137490672Y-43766596D01*
X137491239Y-43531483D01*
X137491798Y-43321127D01*
X137492417Y-43134054D01*
X137493168Y-42968790D01*
X137494121Y-42823861D01*
X137495345Y-42697795D01*
X137496910Y-42589116D01*
X137498888Y-42496352D01*
X137501347Y-42418028D01*
X137504358Y-42352670D01*
X137507991Y-42298806D01*
X137512316Y-42254961D01*
X137517403Y-42219661D01*
X137523322Y-42191433D01*
X137530144Y-42168803D01*
X137537938Y-42150297D01*
X137546775Y-42134442D01*
X137556724Y-42119763D01*
X137567856Y-42104788D01*
X137580241Y-42088041D01*
X137592219Y-42071260D01*
X137615372Y-42038079D01*
X137629240Y-42017146D01*
X137629575Y-42016269D01*
X137624733Y-42012310D01*
X137607644Y-42009007D01*
X137576408Y-42006309D01*
X137529122Y-42004165D01*
X137463885Y-42002524D01*
X137378797Y-42001337D01*
X137271954Y-42000551D01*
X137141456Y-42000117D01*
X136985401Y-41999983D01*
X136331209Y-41999983D01*
X136365687Y-42040958D01*
X136385669Y-42069101D01*
X136418930Y-42135456D01*
X136448078Y-42217983D01*
X136470325Y-42309527D01*
X136471743Y-42318217D01*
X136475961Y-42364031D01*
X136479156Y-42434837D01*
X136481336Y-42531123D01*
X136482508Y-42653380D01*
X136482682Y-42802099D01*
X136481865Y-42977770D01*
X136477812Y-43564260D01*
X136059055Y-43034707D01*
X136047061Y-43019538D01*
X135940868Y-42885103D01*
X135850208Y-42769972D01*
X135773638Y-42672187D01*
X135709714Y-42589791D01*
X135656994Y-42520826D01*
X135614036Y-42463334D01*
X135579396Y-42415358D01*
X135551632Y-42374941D01*
X135529301Y-42340124D01*
X135510959Y-42308951D01*
X135495165Y-42279463D01*
X135480475Y-42249703D01*
X135457877Y-42197025D01*
X135443278Y-42141454D01*
X135439395Y-42081514D01*
X135439785Y-41999983D01*
X134050394Y-41999983D01*
X133591009Y-41999983D01*
X133605953Y-41992196D01*
X133713644Y-41907359D01*
X133743581Y-41877450D01*
X133832064Y-41766710D01*
X133894851Y-41646532D01*
X133932276Y-41516139D01*
X133944676Y-41374758D01*
X133944676Y-41258578D01*
X135915575Y-41258578D01*
X136038707Y-41258573D01*
X136303230Y-41258537D01*
X136542189Y-41258511D01*
X136756905Y-41258547D01*
X136948700Y-41258697D01*
X137118894Y-41259014D01*
X137268810Y-41259550D01*
X137399769Y-41260356D01*
X137513092Y-41261486D01*
X137610101Y-41262992D01*
X137692116Y-41264925D01*
X137760461Y-41267339D01*
X137816455Y-41270284D01*
X137861420Y-41273814D01*
X137896678Y-41277981D01*
X137923550Y-41282837D01*
X137943358Y-41288434D01*
X137957422Y-41294824D01*
X137967065Y-41302060D01*
X137973608Y-41310194D01*
X137978372Y-41319279D01*
X137982679Y-41329366D01*
X137987850Y-41340507D01*
X137987942Y-41340689D01*
X137990453Y-41347982D01*
X137992755Y-41360195D01*
X137994859Y-41378453D01*
X137996773Y-41403885D01*
X137998505Y-41437617D01*
X138000065Y-41480776D01*
X138001460Y-41534489D01*
X138002700Y-41599883D01*
X138003794Y-41678086D01*
X138004750Y-41770224D01*
X138005577Y-41877424D01*
X138006284Y-42000814D01*
X138006880Y-42141519D01*
X138007372Y-42300668D01*
X138007771Y-42479388D01*
X138008084Y-42678805D01*
X138008320Y-42900046D01*
X138008489Y-43144238D01*
X138008599Y-43412509D01*
X138008659Y-43705985D01*
X138008676Y-44025794D01*
X138008677Y-44088621D01*
X138008707Y-44405097D01*
X138008754Y-44695463D01*
X138008782Y-44960855D01*
X138008754Y-45202408D01*
X138008637Y-45421258D01*
X138008392Y-45618539D01*
X138007985Y-45795387D01*
X138007380Y-45952938D01*
X138006541Y-46092327D01*
X138005802Y-46173821D01*
X138005432Y-46214688D01*
G36*
X138005432Y-46214688D02*
G01*
X138004019Y-46321158D01*
X138002264Y-46412872D01*
X138000133Y-46490965D01*
X137997589Y-46556572D01*
X137994598Y-46610829D01*
X137991122Y-46654871D01*
X137987127Y-46689833D01*
X137982576Y-46716851D01*
X137977434Y-46737060D01*
X137971666Y-46751595D01*
X137965235Y-46761592D01*
X137958106Y-46768186D01*
X137950242Y-46772513D01*
X137941609Y-46775707D01*
X137932171Y-46778904D01*
X137921891Y-46783239D01*
X137916107Y-46785411D01*
X137905497Y-46787784D01*
X137889732Y-46789958D01*
X137867697Y-46791941D01*
X137838277Y-46793744D01*
X137800356Y-46795373D01*
X137752819Y-46796839D01*
X137694551Y-46798149D01*
X137624437Y-46799313D01*
X137541361Y-46800339D01*
X137444208Y-46801236D01*
X137331863Y-46802013D01*
X137203212Y-46802678D01*
X137057137Y-46803240D01*
X136892525Y-46803708D01*
X136708260Y-46804090D01*
X136503227Y-46804396D01*
X136276311Y-46804633D01*
X136026396Y-46804811D01*
X135752368Y-46804939D01*
X135453110Y-46805024D01*
X135127508Y-46805076D01*
X135024326Y-46805086D01*
X134705790Y-46805093D01*
X134413274Y-46805053D01*
X134145675Y-46804958D01*
X133901891Y-46804801D01*
X133680819Y-46804573D01*
X133481359Y-46804267D01*
X133302408Y-46803873D01*
X133142863Y-46803386D01*
X133001623Y-46802795D01*
X132877586Y-46802095D01*
X132769650Y-46801275D01*
X132676713Y-46800329D01*
X132597672Y-46799248D01*
X132531426Y-46798025D01*
X132476872Y-46796651D01*
X132432909Y-46795119D01*
X132398434Y-46793420D01*
X132372346Y-46791546D01*
X132353543Y-46789490D01*
X132340922Y-46787244D01*
X132333381Y-46784798D01*
X132330982Y-46783710D01*
X132321160Y-46780135D01*
X132312153Y-46777524D01*
X132303924Y-46774741D01*
X132296437Y-46770648D01*
X132289655Y-46764108D01*
X132283542Y-46753985D01*
X132278062Y-46739141D01*
X132273177Y-46718439D01*
X132268851Y-46690743D01*
X132265048Y-46654916D01*
X132261731Y-46609821D01*
X132258863Y-46554320D01*
X132256409Y-46487277D01*
X132254331Y-46407555D01*
X132252594Y-46314018D01*
X132251160Y-46205527D01*
X132250689Y-46155288D01*
X132612742Y-46155288D01*
X132613139Y-46160099D01*
X132620422Y-46163998D01*
X132636876Y-46167080D01*
X132664788Y-46169442D01*
X132706444Y-46171178D01*
X132764129Y-46172384D01*
X132840129Y-46173156D01*
X132936731Y-46173589D01*
X133056221Y-46173779D01*
X133200883Y-46173821D01*
X133806860Y-46173821D01*
X133755633Y-46081146D01*
X133704406Y-45988470D01*
X133704406Y-43297443D01*
X133755633Y-43204767D01*
X133806860Y-43112092D01*
X132723698Y-43112092D01*
X132715866Y-45961010D01*
X132677468Y-46043016D01*
X132657223Y-46083663D01*
X132634300Y-46124380D01*
X132616988Y-46149422D01*
X132616945Y-46149470D01*
X132612742Y-46155288D01*
X132250689Y-46155288D01*
X132249993Y-46080946D01*
X132249057Y-45939138D01*
X132248315Y-45778967D01*
X132247730Y-45599295D01*
X132247266Y-45398985D01*
X132246887Y-45176900D01*
X132246556Y-44931904D01*
X132246236Y-44662860D01*
X132245891Y-44368630D01*
X132245485Y-44048078D01*
X132245432Y-44009272D01*
X132244979Y-43690751D01*
X132244546Y-43398420D01*
X132244164Y-43131141D01*
X132243867Y-42887777D01*
X132243685Y-42667190D01*
X132243652Y-42468243D01*
X132243798Y-42289798D01*
X132244157Y-42130719D01*
X132244761Y-41989867D01*
X132245641Y-41866105D01*
X132246829Y-41758295D01*
X132248358Y-41665301D01*
X132250259Y-41585985D01*
X132252565Y-41519208D01*
X132255308Y-41463835D01*
X132258519Y-41418727D01*
X132262232Y-41382747D01*
X132266477Y-41354757D01*
X132271288Y-41333620D01*
X132276695Y-41318199D01*
X132282732Y-41307356D01*
X132289430Y-41299954D01*
X132296822Y-41294855D01*
X132304938Y-41290921D01*
X132313812Y-41287016D01*
X132323476Y-41282002D01*
X132326304Y-41280404D01*
X132369091Y-41264937D01*
X132415930Y-41258580D01*
X132468731Y-41258582D01*
X132469611Y-41378715D01*
X132469834Y-41392540D01*
X132486616Y-41533063D01*
X132529360Y-41665283D01*
X132597470Y-41787800D01*
X132690355Y-41899211D01*
X132740199Y-41944651D01*
X132851182Y-42019968D01*
X132972275Y-42072491D01*
X133099952Y-42102190D01*
X133230684Y-42109038D01*
X133360947Y-42093007D01*
X133487212Y-42054069D01*
X133591009Y-41999983D01*
X134050394Y-41999983D01*
X134110806Y-42043447D01*
X134161897Y-42084296D01*
X134233890Y-42150924D01*
X134315547Y-42234428D01*
X134403777Y-42331626D01*
X134495487Y-42439335D01*
X134519104Y-42468138D01*
X134559314Y-42517540D01*
X134611874Y-42582353D01*
X134675043Y-42660414D01*
X134747079Y-42749559D01*
X134826241Y-42847626D01*
X134910789Y-42952452D01*
X134998980Y-43061872D01*
X135039431Y-43112092D01*
X135089073Y-43173724D01*
X135179327Y-43285845D01*
X135268002Y-43396072D01*
X135353355Y-43502240D01*
X135433645Y-43602188D01*
X135507131Y-43693751D01*
X135572072Y-43774767D01*
X135626727Y-43843072D01*
X135669353Y-43896503D01*
X135698211Y-43932896D01*
X135711558Y-43950090D01*
X135712660Y-43956551D01*
X135708995Y-43968840D01*
X135699500Y-43988173D01*
X135683225Y-44015922D01*
X135659223Y-44053458D01*
X135626547Y-44102152D01*
X135584248Y-44163377D01*
X135531378Y-44238502D01*
X135466990Y-44328900D01*
X135390135Y-44435942D01*
X135299867Y-44561000D01*
X135195236Y-44705444D01*
X135075296Y-44870646D01*
X134979729Y-45002145D01*
X134863135Y-45162453D01*
X134760575Y-45303235D01*
X134670856Y-45426052D01*
X134592787Y-45532467D01*
X134525175Y-45624043D01*
X134466825Y-45702342D01*
X134416547Y-45768927D01*
X134373148Y-45825359D01*
X134335433Y-45873202D01*
X134302212Y-45914017D01*
X134272290Y-45949368D01*
X134244476Y-45980816D01*
X134217577Y-46009924D01*
X134190400Y-46038254D01*
X134161752Y-46067370D01*
X134056179Y-46173821D01*
X135475541Y-46173879D01*
X135471082Y-46087867D01*
X135470866Y-46083545D01*
X135470019Y-46049161D01*
X135471624Y-46016216D01*
X135476753Y-45982906D01*
X135486480Y-45947426D01*
X135501878Y-45907973D01*
X135524021Y-45862741D01*
X135553982Y-45809925D01*
X135592835Y-45747722D01*
X135641653Y-45674325D01*
X135701509Y-45587932D01*
X135773477Y-45486738D01*
X135858630Y-45368936D01*
X135958041Y-45232724D01*
X136072785Y-45076297D01*
X136477812Y-44524889D01*
X136481380Y-45164230D01*
X136481696Y-45223868D01*
X136482254Y-45384505D01*
X136482000Y-45521137D01*
X136480637Y-45636350D01*
X136477864Y-45732731D01*
X136473385Y-45812864D01*
X136466900Y-45879335D01*
X136458110Y-45934731D01*
X136446717Y-45981636D01*
X136432422Y-46022636D01*
X136414927Y-46060317D01*
X136393934Y-46097265D01*
X136369142Y-46136065D01*
X136344221Y-46173821D01*
X137639371Y-46173821D01*
X137605916Y-46129200D01*
X137600677Y-46122141D01*
X137558789Y-46057442D01*
X137529914Y-45992038D01*
X137510953Y-45917096D01*
X137498808Y-45823781D01*
X137498474Y-45819713D01*
X137496712Y-45781223D01*
X137495120Y-45717004D01*
X137493707Y-45628524D01*
X137492479Y-45517251D01*
X137491443Y-45384651D01*
X137490605Y-45232193D01*
X137489973Y-45061344D01*
X137489554Y-44873570D01*
X137489355Y-44670341D01*
X137489382Y-44453122D01*
X137489642Y-44223383D01*
X137490142Y-43982589D01*
X137490672Y-43766596D01*
X137491239Y-43531483D01*
X137491798Y-43321127D01*
X137492417Y-43134054D01*
X137493168Y-42968790D01*
X137494121Y-42823861D01*
X137495345Y-42697795D01*
X137496910Y-42589116D01*
X137498888Y-42496352D01*
X137501347Y-42418028D01*
X137504358Y-42352670D01*
X137507991Y-42298806D01*
X137512316Y-42254961D01*
X137517403Y-42219661D01*
X137523322Y-42191433D01*
X137530144Y-42168803D01*
X137537938Y-42150297D01*
X137546775Y-42134442D01*
X137556724Y-42119763D01*
X137567856Y-42104788D01*
X137580241Y-42088041D01*
X137592219Y-42071260D01*
X137615372Y-42038079D01*
X137629240Y-42017146D01*
X137629575Y-42016269D01*
X137624733Y-42012310D01*
X137607644Y-42009007D01*
X137576408Y-42006309D01*
X137529122Y-42004165D01*
X137463885Y-42002524D01*
X137378797Y-42001337D01*
X137271954Y-42000551D01*
X137141456Y-42000117D01*
X136985401Y-41999983D01*
X136331209Y-41999983D01*
X136365687Y-42040958D01*
X136385669Y-42069101D01*
X136418930Y-42135456D01*
X136448078Y-42217983D01*
X136470325Y-42309527D01*
X136471743Y-42318217D01*
X136475961Y-42364031D01*
X136479156Y-42434837D01*
X136481336Y-42531123D01*
X136482508Y-42653380D01*
X136482682Y-42802099D01*
X136481865Y-42977770D01*
X136477812Y-43564260D01*
X136059055Y-43034707D01*
X136047061Y-43019538D01*
X135940868Y-42885103D01*
X135850208Y-42769972D01*
X135773638Y-42672187D01*
X135709714Y-42589791D01*
X135656994Y-42520826D01*
X135614036Y-42463334D01*
X135579396Y-42415358D01*
X135551632Y-42374941D01*
X135529301Y-42340124D01*
X135510959Y-42308951D01*
X135495165Y-42279463D01*
X135480475Y-42249703D01*
X135457877Y-42197025D01*
X135443278Y-42141454D01*
X135439395Y-42081514D01*
X135439785Y-41999983D01*
X134050394Y-41999983D01*
X133591009Y-41999983D01*
X133605953Y-41992196D01*
X133713644Y-41907359D01*
X133743581Y-41877450D01*
X133832064Y-41766710D01*
X133894851Y-41646532D01*
X133932276Y-41516139D01*
X133944676Y-41374758D01*
X133944676Y-41258578D01*
X135915575Y-41258578D01*
X136038707Y-41258573D01*
X136303230Y-41258537D01*
X136542189Y-41258511D01*
X136756905Y-41258547D01*
X136948700Y-41258697D01*
X137118894Y-41259014D01*
X137268810Y-41259550D01*
X137399769Y-41260356D01*
X137513092Y-41261486D01*
X137610101Y-41262992D01*
X137692116Y-41264925D01*
X137760461Y-41267339D01*
X137816455Y-41270284D01*
X137861420Y-41273814D01*
X137896678Y-41277981D01*
X137923550Y-41282837D01*
X137943358Y-41288434D01*
X137957422Y-41294824D01*
X137967065Y-41302060D01*
X137973608Y-41310194D01*
X137978372Y-41319279D01*
X137982679Y-41329366D01*
X137987850Y-41340507D01*
X137987942Y-41340689D01*
X137990453Y-41347982D01*
X137992755Y-41360195D01*
X137994859Y-41378453D01*
X137996773Y-41403885D01*
X137998505Y-41437617D01*
X138000065Y-41480776D01*
X138001460Y-41534489D01*
X138002700Y-41599883D01*
X138003794Y-41678086D01*
X138004750Y-41770224D01*
X138005577Y-41877424D01*
X138006284Y-42000814D01*
X138006880Y-42141519D01*
X138007372Y-42300668D01*
X138007771Y-42479388D01*
X138008084Y-42678805D01*
X138008320Y-42900046D01*
X138008489Y-43144238D01*
X138008599Y-43412509D01*
X138008659Y-43705985D01*
X138008676Y-44025794D01*
X138008677Y-44088621D01*
X138008707Y-44405097D01*
X138008754Y-44695463D01*
X138008782Y-44960855D01*
X138008754Y-45202408D01*
X138008637Y-45421258D01*
X138008392Y-45618539D01*
X138007985Y-45795387D01*
X138007380Y-45952938D01*
X138006541Y-46092327D01*
X138005802Y-46173821D01*
X138005432Y-46214688D01*
G37*
D14*
X123134724Y-146642500D02*
X122625276Y-146642500D01*
X123134724Y-145597500D02*
X122625276Y-145597500D01*
X122050000Y-133400000D02*
X122450000Y-133400000D01*
X122450000Y-133400000D02*
X122450000Y-134200000D01*
X124250000Y-132000000D02*
X124250000Y-131760000D01*
X124250000Y-135600000D02*
X126050000Y-135600000D01*
X126050000Y-132000000D02*
X124250000Y-132000000D01*
X127850000Y-134200000D02*
X127850000Y-133400000D01*
X127390000Y-145473733D02*
X127390000Y-145766267D01*
X126370000Y-145473733D02*
X126370000Y-145766267D01*
X123026267Y-145130000D02*
X122733733Y-145130000D01*
X123026267Y-144110000D02*
X122733733Y-144110000D01*
X120000000Y-140213733D02*
X120000000Y-140506267D01*
X118980000Y-140213733D02*
X118980000Y-140506267D01*
X121640000Y-140223733D02*
X121640000Y-140516267D01*
X120620000Y-140223733D02*
X120620000Y-140516267D01*
%LPC*%
D16*
X138200000Y-38450000D03*
D17*
X134320000Y-33780000D03*
X125680000Y-33780000D03*
D18*
X134320000Y-28420000D03*
X125680000Y-28420000D03*
D19*
X127165000Y-67350000D03*
D20*
X127465000Y-70380000D03*
X132315000Y-70380000D03*
D19*
X132615000Y-67350000D03*
D21*
X121000000Y-67220000D03*
X121000000Y-69760000D03*
D16*
X121000000Y-72300000D03*
D21*
X121000000Y-74840000D03*
X121000000Y-77380000D03*
X121000000Y-79920000D03*
X121000000Y-82460000D03*
D16*
X121000000Y-85000000D03*
D21*
X121000000Y-87540000D03*
X121000000Y-90080000D03*
X121000000Y-92620000D03*
X121000000Y-95160000D03*
D16*
X121000000Y-97700000D03*
D21*
X121000000Y-100240000D03*
X121000000Y-102780000D03*
X121000000Y-105320000D03*
X121000000Y-107860000D03*
D16*
X121000000Y-110400000D03*
D21*
X121000000Y-112940000D03*
X121000000Y-115480000D03*
X138780000Y-115480000D03*
X138780000Y-112940000D03*
D16*
X138780000Y-110400000D03*
D21*
X138780000Y-107860000D03*
X138780000Y-105320000D03*
X138780000Y-102780000D03*
X138780000Y-100240000D03*
D16*
X138780000Y-97700000D03*
D21*
X138780000Y-95160000D03*
X138780000Y-92620000D03*
X138780000Y-90080000D03*
X138780000Y-87540000D03*
D16*
X138780000Y-85000000D03*
D21*
X138780000Y-82460000D03*
X138780000Y-79920000D03*
X138780000Y-77380000D03*
X138780000Y-74840000D03*
D16*
X138780000Y-72300000D03*
D21*
X138780000Y-69760000D03*
X138780000Y-67220000D03*
D22*
X123010000Y-142120000D03*
X123010000Y-141620000D03*
X123010000Y-141120000D03*
X123010000Y-140620000D03*
X123010000Y-140120000D03*
D23*
X123880000Y-139250000D03*
X124380000Y-139250000D03*
X124880000Y-139250000D03*
X125380000Y-139250000D03*
X125880000Y-139250000D03*
D22*
X126750000Y-140120000D03*
X126750000Y-140620000D03*
X126750000Y-141120000D03*
X126750000Y-141620000D03*
X126750000Y-142120000D03*
D23*
X125880000Y-142990000D03*
X125380000Y-142990000D03*
X124880000Y-142990000D03*
X124380000Y-142990000D03*
X123880000Y-142990000D03*
D24*
X124880000Y-141120000D03*
D25*
X122010000Y-119020000D03*
X137750000Y-63820000D03*
D26*
X122010000Y-55620000D03*
D27*
X129880000Y-55620000D03*
X129880000Y-127840000D03*
D28*
X125662500Y-137000000D03*
X123937500Y-137000000D03*
D29*
X129700000Y-134962500D03*
X129700000Y-133237500D03*
D30*
X128380000Y-144757500D03*
X128380000Y-146482500D03*
D31*
X128597500Y-139250000D03*
X130322500Y-139250000D03*
D32*
X119487500Y-137600000D03*
X121312500Y-137600000D03*
D29*
X120400000Y-134262500D03*
X120400000Y-132537500D03*
D33*
X123792500Y-146120000D03*
X121967500Y-146120000D03*
D34*
X123150000Y-132600000D03*
X127150000Y-132600000D03*
X127150000Y-135000000D03*
X123150000Y-135000000D03*
D30*
X126880000Y-144757500D03*
X126880000Y-146482500D03*
D28*
X123742500Y-144620000D03*
X122017500Y-144620000D03*
D30*
X119490000Y-139497500D03*
X119490000Y-141222500D03*
X121130000Y-139507500D03*
X121130000Y-141232500D03*
%LPD*%
M02*
