%TF.GenerationSoftware,KiCad,Pcbnew,7.0.7*%
%TF.CreationDate,2024-03-28T15:45:58+01:00*%
%TF.ProjectId,Frackstock,46726163-6b73-4746-9f63-6b2e6b696361,2*%
%TF.SameCoordinates,Original*%
%TF.FileFunction,Drillmap*%
%TF.FilePolarity,Positive*%
%FSLAX45Y45*%
G04 Gerber Fmt 4.5, Leading zero omitted, Abs format (unit mm)*
G04 Created by KiCad (PCBNEW 7.0.7) date 2024-03-28 15:45:58*
%MOMM*%
%LPD*%
G01*
G04 APERTURE LIST*
%ADD10C,0.100000*%
%ADD11C,0.200000*%
%ADD12C,0.015000*%
%ADD13C,0.025000*%
%ADD14C,0.060000*%
%ADD15C,0.102000*%
%ADD16C,0.132000*%
G04 APERTURE END LIST*
D10*
X11838000Y-2662000D02*
X14142800Y-2662000D01*
X14142800Y-15212000D01*
X11838000Y-15212000D01*
X11838000Y-2662000D01*
D11*
D12*
X11887500Y-9709500D02*
X11902500Y-9724500D01*
X11902500Y-9709500D02*
X11887500Y-9724500D01*
X11887500Y-9814500D02*
X11902500Y-9829500D01*
X11902500Y-9814500D02*
X11887500Y-9829500D01*
X11894500Y-4393500D02*
X11909500Y-4408500D01*
X11909500Y-4393500D02*
X11894500Y-4408500D01*
X11900500Y-4967500D02*
X11915500Y-4982500D01*
X11915500Y-4967500D02*
X11900500Y-4982500D01*
X11902500Y-2722500D02*
X11917500Y-2737500D01*
X11917500Y-2722500D02*
X11902500Y-2737500D01*
X11902500Y-8429500D02*
X11917500Y-8444500D01*
X11917500Y-8429500D02*
X11902500Y-8444500D01*
X11902500Y-8544500D02*
X11917500Y-8559500D01*
X11917500Y-8544500D02*
X11902500Y-8559500D01*
X11903500Y-3015500D02*
X11918500Y-3030500D01*
X11918500Y-3015500D02*
X11903500Y-3030500D01*
X11903500Y-6188500D02*
X11918500Y-6203500D01*
X11918500Y-6188500D02*
X11903500Y-6203500D01*
X11906500Y-3926500D02*
X11921500Y-3941500D01*
X11921500Y-3926500D02*
X11906500Y-3941500D01*
X11907500Y-10989500D02*
X11922500Y-11004500D01*
X11922500Y-10989500D02*
X11907500Y-11004500D01*
X11907500Y-11089500D02*
X11922500Y-11104500D01*
X11922500Y-11089500D02*
X11907500Y-11104500D01*
X11908500Y-5531500D02*
X11923500Y-5546500D01*
X11923500Y-5531500D02*
X11908500Y-5546500D01*
X11915500Y-3481500D02*
X11930500Y-3496500D01*
X11930500Y-3481500D02*
X11915500Y-3496500D01*
X11915500Y-12210500D02*
X11930500Y-12225500D01*
X11930500Y-12210500D02*
X11915500Y-12225500D01*
X11920500Y-12736500D02*
X11935500Y-12751500D01*
X11935500Y-12736500D02*
X11920500Y-12751500D01*
X11932500Y-15132500D02*
X11947500Y-15147500D01*
X11947500Y-15132500D02*
X11932500Y-15147500D01*
X11941500Y-13661500D02*
X11956500Y-13676500D01*
X11956500Y-13661500D02*
X11941500Y-13676500D01*
X11943500Y-13851500D02*
X11958500Y-13866500D01*
X11958500Y-13851500D02*
X11943500Y-13866500D01*
X11943500Y-14217500D02*
X11958500Y-14232500D01*
X11958500Y-14217500D02*
X11943500Y-14232500D01*
X11952500Y-14272500D02*
X11967500Y-14287500D01*
X11967500Y-14272500D02*
X11952500Y-14287500D01*
X12072500Y-14452500D02*
X12087500Y-14467500D01*
X12087500Y-14452500D02*
X12072500Y-14467500D01*
X12072500Y-14602500D02*
X12087500Y-14617500D01*
X12087500Y-14602500D02*
X12072500Y-14617500D01*
X12192226Y-14067774D02*
X12207226Y-14082774D01*
X12207226Y-14067774D02*
X12192226Y-14082774D01*
X12192500Y-14762500D02*
X12207500Y-14777500D01*
X12207500Y-14762500D02*
X12192500Y-14777500D01*
X12205500Y-14229500D02*
X12220500Y-14244500D01*
X12220500Y-14229500D02*
X12205500Y-14244500D01*
X12205500Y-14279500D02*
X12220500Y-14294500D01*
X12220500Y-14279500D02*
X12205500Y-14294500D01*
X12205500Y-14329500D02*
X12220500Y-14344500D01*
X12220500Y-14329500D02*
X12205500Y-14344500D01*
X12232500Y-15132500D02*
X12247500Y-15147500D01*
X12247500Y-15132500D02*
X12232500Y-15147500D01*
X12252500Y-7112500D02*
X12267500Y-7127500D01*
X12267500Y-7112500D02*
X12252500Y-7127500D01*
X12252500Y-7212500D02*
X12267500Y-7227500D01*
X12267500Y-7212500D02*
X12252500Y-7227500D01*
X12256050Y-13912500D02*
X12271050Y-13927500D01*
X12271050Y-13912500D02*
X12256050Y-13927500D01*
X12262500Y-9782500D02*
X12277500Y-9797500D01*
X12277500Y-9782500D02*
X12262500Y-9797500D01*
X12262500Y-9912500D02*
X12277500Y-9927500D01*
X12277500Y-9912500D02*
X12262500Y-9927500D01*
X12272500Y-10932500D02*
X12287500Y-10947500D01*
X12287500Y-10932500D02*
X12272500Y-10947500D01*
X12272500Y-11022500D02*
X12287500Y-11037500D01*
X12287500Y-11022500D02*
X12272500Y-11037500D01*
X12272500Y-11122500D02*
X12287500Y-11137500D01*
X12287500Y-11122500D02*
X12272500Y-11137500D01*
X12273500Y-12852500D02*
X12288500Y-12867500D01*
X12288500Y-12852500D02*
X12273500Y-12867500D01*
X12282500Y-8382500D02*
X12297500Y-8397500D01*
X12297500Y-8382500D02*
X12282500Y-8397500D01*
X12282500Y-8482500D02*
X12297500Y-8497500D01*
X12297500Y-8482500D02*
X12282500Y-8497500D01*
X12282500Y-8582500D02*
X12297500Y-8597500D01*
X12297500Y-8582500D02*
X12282500Y-8597500D01*
X12282500Y-10322500D02*
X12297500Y-10337500D01*
X12297500Y-10322500D02*
X12282500Y-10337500D01*
X12292500Y-3722500D02*
X12307500Y-3737500D01*
X12307500Y-3722500D02*
X12292500Y-3737500D01*
X12292500Y-3922500D02*
X12307500Y-3937500D01*
X12307500Y-3922500D02*
X12292500Y-3937500D01*
X12302500Y-12172500D02*
X12317500Y-12187500D01*
X12317500Y-12172500D02*
X12302500Y-12187500D01*
X12302500Y-13372500D02*
X12317500Y-13387500D01*
X12317500Y-13372500D02*
X12302500Y-13387500D01*
X12322500Y-5832500D02*
X12337500Y-5847500D01*
X12337500Y-5832500D02*
X12322500Y-5847500D01*
X12362500Y-6094119D02*
X12377500Y-6109119D01*
X12377500Y-6094119D02*
X12362500Y-6109119D01*
X12372500Y-2732500D02*
X12387500Y-2747500D01*
X12387500Y-2732500D02*
X12372500Y-2747500D01*
X12372500Y-5832500D02*
X12387500Y-5847500D01*
X12387500Y-5832500D02*
X12372500Y-5847500D01*
X12380500Y-13829500D02*
X12395500Y-13844500D01*
X12395500Y-13829500D02*
X12380500Y-13844500D01*
X12382500Y-12382500D02*
X12397500Y-12397500D01*
X12397500Y-12382500D02*
X12382500Y-12397500D01*
X12382500Y-12562500D02*
X12397500Y-12577500D01*
X12397500Y-12562500D02*
X12382500Y-12577500D01*
X12412500Y-6092500D02*
X12427500Y-6107500D01*
X12427500Y-6092500D02*
X12412500Y-6107500D01*
X12414500Y-14103500D02*
X12429500Y-14118500D01*
X12429500Y-14103500D02*
X12414500Y-14118500D01*
X12416500Y-14180500D02*
X12431500Y-14195500D01*
X12431500Y-14180500D02*
X12416500Y-14195500D01*
X12428500Y-11295500D02*
X12443500Y-11310500D01*
X12443500Y-11295500D02*
X12428500Y-11310500D01*
X12432500Y-12322500D02*
X12447500Y-12337500D01*
X12447500Y-12322500D02*
X12432500Y-12337500D01*
X12432500Y-12382500D02*
X12447500Y-12397500D01*
X12447500Y-12382500D02*
X12432500Y-12397500D01*
X12439500Y-10743500D02*
X12454500Y-10758500D01*
X12454500Y-10743500D02*
X12439500Y-10758500D01*
X12467500Y-14440500D02*
X12482500Y-14455500D01*
X12482500Y-14440500D02*
X12467500Y-14455500D01*
X12472500Y-12562500D02*
X12487500Y-12577500D01*
X12487500Y-12562500D02*
X12472500Y-12577500D01*
X12482500Y-12382500D02*
X12497500Y-12397500D01*
X12497500Y-12382500D02*
X12482500Y-12397500D01*
X12512500Y-13252500D02*
X12527500Y-13267500D01*
X12527500Y-13252500D02*
X12512500Y-13267500D01*
X12532500Y-10412500D02*
X12547500Y-10427500D01*
X12547500Y-10412500D02*
X12532500Y-10427500D01*
X12532500Y-12082500D02*
X12547500Y-12097500D01*
X12547500Y-12082500D02*
X12532500Y-12097500D01*
X12540500Y-14097500D02*
X12555500Y-14112500D01*
X12555500Y-14097500D02*
X12540500Y-14112500D01*
X12541500Y-14021500D02*
X12556500Y-14036500D01*
X12556500Y-14021500D02*
X12541500Y-14036500D01*
X12542500Y-11162500D02*
X12557500Y-11177500D01*
X12557500Y-11162500D02*
X12542500Y-11177500D01*
X12542500Y-14179500D02*
X12557500Y-14194500D01*
X12557500Y-14179500D02*
X12542500Y-14194500D01*
X12552500Y-12762500D02*
X12567500Y-12777500D01*
X12567500Y-12762500D02*
X12552500Y-12777500D01*
X12552500Y-13422500D02*
X12567500Y-13437500D01*
X12567500Y-13422500D02*
X12552500Y-13437500D01*
X12557476Y-14920524D02*
X12572476Y-14935524D01*
X12572476Y-14920524D02*
X12557476Y-14935524D01*
X12562500Y-12962500D02*
X12577500Y-12977500D01*
X12577500Y-12962500D02*
X12562500Y-12977500D01*
X12585500Y-14641500D02*
X12600500Y-14656500D01*
X12600500Y-14641500D02*
X12585500Y-14656500D01*
X12592500Y-4412500D02*
X12607500Y-4427500D01*
X12607500Y-4412500D02*
X12592500Y-4427500D01*
X12592500Y-14552500D02*
X12607500Y-14567500D01*
X12607500Y-14552500D02*
X12592500Y-14567500D01*
X12611500Y-14923000D02*
X12626500Y-14938000D01*
X12626500Y-14923000D02*
X12611500Y-14938000D01*
X12612500Y-4962500D02*
X12627500Y-4977500D01*
X12627500Y-4962500D02*
X12612500Y-4977500D01*
X12651810Y-12511810D02*
X12666810Y-12526810D01*
X12666810Y-12511810D02*
X12651810Y-12526810D01*
X12661500Y-3202500D02*
X12676500Y-3217500D01*
X12676500Y-3202500D02*
X12661500Y-3217500D01*
X12662500Y-3662500D02*
X12677500Y-3677500D01*
X12677500Y-3662500D02*
X12662500Y-3677500D01*
X12662500Y-3732500D02*
X12677500Y-3747500D01*
X12677500Y-3732500D02*
X12662500Y-3747500D01*
X12662500Y-12852500D02*
X12677500Y-12867500D01*
X12677500Y-12852500D02*
X12662500Y-12867500D01*
X12662500Y-13689500D02*
X12677500Y-13704500D01*
X12677500Y-13689500D02*
X12662500Y-13704500D01*
X12672500Y-4512500D02*
X12687500Y-4527500D01*
X12687500Y-4512500D02*
X12672500Y-4527500D01*
X12672500Y-15132500D02*
X12687500Y-15147500D01*
X12687500Y-15132500D02*
X12672500Y-15147500D01*
X12692500Y-3482500D02*
X12707500Y-3497500D01*
X12707500Y-3482500D02*
X12692500Y-3497500D01*
X12702500Y-13902500D02*
X12717500Y-13917500D01*
X12717500Y-13902500D02*
X12702500Y-13917500D01*
X12712500Y-3202500D02*
X12727500Y-3217500D01*
X12727500Y-3202500D02*
X12712500Y-3217500D01*
X12712500Y-4542500D02*
X12727500Y-4557500D01*
X12727500Y-4542500D02*
X12712500Y-4557500D01*
X12712500Y-5082500D02*
X12727500Y-5097500D01*
X12727500Y-5082500D02*
X12712500Y-5097500D01*
X12742500Y-13062500D02*
X12757500Y-13077500D01*
X12757500Y-13062500D02*
X12742500Y-13077500D01*
X12762500Y-12342500D02*
X12777500Y-12357500D01*
X12777500Y-12342500D02*
X12762500Y-12357500D01*
X12762500Y-12716500D02*
X12777500Y-12731500D01*
X12777500Y-12716500D02*
X12762500Y-12731500D01*
X12762500Y-14552500D02*
X12777500Y-14567500D01*
X12777500Y-14552500D02*
X12762500Y-14567500D01*
X12804500Y-4282500D02*
X12819500Y-4297500D01*
X12819500Y-4282500D02*
X12804500Y-4297500D01*
X12805500Y-4419500D02*
X12820500Y-4434500D01*
X12820500Y-4419500D02*
X12805500Y-4434500D01*
X12808500Y-4353500D02*
X12823500Y-4368500D01*
X12823500Y-4353500D02*
X12808500Y-4368500D01*
X12829500Y-14729500D02*
X12844500Y-14744500D01*
X12844500Y-14729500D02*
X12829500Y-14744500D01*
X12847500Y-13819500D02*
X12862500Y-13834500D01*
X12862500Y-13819500D02*
X12847500Y-13834500D01*
X12852500Y-7032500D02*
X12867500Y-7047500D01*
X12867500Y-7032500D02*
X12852500Y-7047500D01*
X12862500Y-12442500D02*
X12877500Y-12457500D01*
X12877500Y-12442500D02*
X12862500Y-12457500D01*
X12864500Y-5082500D02*
X12879500Y-5097500D01*
X12879500Y-5082500D02*
X12864500Y-5097500D01*
X12912500Y-13062500D02*
X12927500Y-13077500D01*
X12927500Y-13062500D02*
X12912500Y-13077500D01*
X12917500Y-3329500D02*
X12932500Y-3344500D01*
X12932500Y-3329500D02*
X12917500Y-3344500D01*
X12919500Y-4350500D02*
X12934500Y-4365500D01*
X12934500Y-4350500D02*
X12919500Y-4365500D01*
X12920500Y-4420500D02*
X12935500Y-4435500D01*
X12935500Y-4420500D02*
X12920500Y-4435500D01*
X12924500Y-4279500D02*
X12939500Y-4294500D01*
X12939500Y-4279500D02*
X12924500Y-4294500D01*
X12931500Y-13823500D02*
X12946500Y-13838500D01*
X12946500Y-13823500D02*
X12931500Y-13838500D01*
X12932500Y-3562500D02*
X12947500Y-3577500D01*
X12947500Y-3562500D02*
X12932500Y-3577500D01*
X12952500Y-6112500D02*
X12967500Y-6127500D01*
X12967500Y-6112500D02*
X12952500Y-6127500D01*
X12972500Y-3412500D02*
X12987500Y-3427500D01*
X12987500Y-3412500D02*
X12972500Y-3427500D01*
X12982500Y-7172500D02*
X12997500Y-7187500D01*
X12997500Y-7172500D02*
X12982500Y-7187500D01*
X12991500Y-2766500D02*
X13006500Y-2781500D01*
X13006500Y-2766500D02*
X12991500Y-2781500D01*
X13002500Y-6112500D02*
X13017500Y-6127500D01*
X13017500Y-6112500D02*
X13002500Y-6127500D01*
X13012500Y-3412500D02*
X13027500Y-3427500D01*
X13027500Y-3412500D02*
X13012500Y-3427500D01*
X13017500Y-3332500D02*
X13032500Y-3347500D01*
X13032500Y-3332500D02*
X13017500Y-3347500D01*
X13032500Y-15132500D02*
X13047500Y-15147500D01*
X13047500Y-15132500D02*
X13032500Y-15147500D01*
X13102500Y-7032500D02*
X13117500Y-7047500D01*
X13117500Y-7032500D02*
X13102500Y-7047500D01*
X13132500Y-4952500D02*
X13147500Y-4967500D01*
X13147500Y-4952500D02*
X13132500Y-4967500D01*
X13152500Y-5682500D02*
X13167500Y-5697500D01*
X13167500Y-5682500D02*
X13152500Y-5697500D01*
X13155500Y-13204500D02*
X13170500Y-13219500D01*
X13170500Y-13204500D02*
X13155500Y-13219500D01*
X13155500Y-13255300D02*
X13170500Y-13270300D01*
X13170500Y-13255300D02*
X13155500Y-13270300D01*
X13155500Y-13306100D02*
X13170500Y-13321100D01*
X13170500Y-13306100D02*
X13155500Y-13321100D01*
X13155500Y-13356900D02*
X13170500Y-13371900D01*
X13170500Y-13356900D02*
X13155500Y-13371900D01*
X13155500Y-13407700D02*
X13170500Y-13422700D01*
X13170500Y-13407700D02*
X13155500Y-13422700D01*
X13155500Y-13458500D02*
X13170500Y-13473500D01*
X13170500Y-13458500D02*
X13155500Y-13473500D01*
X13155500Y-13509300D02*
X13170500Y-13524300D01*
X13170500Y-13509300D02*
X13155500Y-13524300D01*
X13155500Y-13560100D02*
X13170500Y-13575100D01*
X13170500Y-13560100D02*
X13155500Y-13575100D01*
X13155500Y-13610900D02*
X13170500Y-13625900D01*
X13170500Y-13610900D02*
X13155500Y-13625900D01*
X13155500Y-13661700D02*
X13170500Y-13676700D01*
X13170500Y-13661700D02*
X13155500Y-13676700D01*
X13155500Y-13864900D02*
X13170500Y-13879900D01*
X13170500Y-13864900D02*
X13155500Y-13879900D01*
X13155500Y-13915700D02*
X13170500Y-13930700D01*
X13170500Y-13915700D02*
X13155500Y-13930700D01*
X13155500Y-13966500D02*
X13170500Y-13981500D01*
X13170500Y-13966500D02*
X13155500Y-13981500D01*
X13155500Y-14017300D02*
X13170500Y-14032300D01*
X13170500Y-14017300D02*
X13155500Y-14032300D01*
X13155500Y-14068100D02*
X13170500Y-14083100D01*
X13170500Y-14068100D02*
X13155500Y-14083100D01*
X13155500Y-14118900D02*
X13170500Y-14133900D01*
X13170500Y-14118900D02*
X13155500Y-14133900D01*
X13155500Y-14169700D02*
X13170500Y-14184700D01*
X13170500Y-14169700D02*
X13155500Y-14184700D01*
X13155500Y-14220500D02*
X13170500Y-14235500D01*
X13170500Y-14220500D02*
X13155500Y-14235500D01*
X13155500Y-14271300D02*
X13170500Y-14286300D01*
X13170500Y-14271300D02*
X13155500Y-14286300D01*
X13155500Y-14322100D02*
X13170500Y-14337100D01*
X13170500Y-14322100D02*
X13155500Y-14337100D01*
X13155500Y-14372900D02*
X13170500Y-14387900D01*
X13170500Y-14372900D02*
X13155500Y-14387900D01*
X13155500Y-14423700D02*
X13170500Y-14438700D01*
X13170500Y-14423700D02*
X13155500Y-14438700D01*
X13155500Y-14474500D02*
X13170500Y-14489500D01*
X13170500Y-14474500D02*
X13155500Y-14489500D01*
X13155500Y-14525500D02*
X13170500Y-14540500D01*
X13170500Y-14525500D02*
X13155500Y-14540500D01*
X13155500Y-14576100D02*
X13170500Y-14591100D01*
X13170500Y-14576100D02*
X13155500Y-14591100D01*
X13155500Y-14626900D02*
X13170500Y-14641900D01*
X13170500Y-14626900D02*
X13155500Y-14641900D01*
X13155500Y-14677700D02*
X13170500Y-14692700D01*
X13170500Y-14677700D02*
X13155500Y-14692700D01*
X13155500Y-14728500D02*
X13170500Y-14743500D01*
X13170500Y-14728500D02*
X13155500Y-14743500D01*
X13155500Y-14779300D02*
X13170500Y-14794300D01*
X13170500Y-14779300D02*
X13155500Y-14794300D01*
X13155500Y-14830100D02*
X13170500Y-14845100D01*
X13170500Y-14830100D02*
X13155500Y-14845100D01*
X13155500Y-14880900D02*
X13170500Y-14895900D01*
X13170500Y-14880900D02*
X13155500Y-14895900D01*
X13155500Y-14931700D02*
X13170500Y-14946700D01*
X13170500Y-14931700D02*
X13155500Y-14946700D01*
X13155500Y-14982500D02*
X13170500Y-14997500D01*
X13170500Y-14982500D02*
X13155500Y-14997500D01*
X13155500Y-15033300D02*
X13170500Y-15048300D01*
X13170500Y-15033300D02*
X13155500Y-15048300D01*
X13155500Y-15084100D02*
X13170500Y-15099100D01*
X13170500Y-15084100D02*
X13155500Y-15099100D01*
X13155500Y-15134900D02*
X13170500Y-15149900D01*
X13170500Y-15134900D02*
X13155500Y-15149900D01*
X13155500Y-15185700D02*
X13170500Y-15200700D01*
X13170500Y-15185700D02*
X13155500Y-15200700D01*
X13206300Y-13204500D02*
X13221300Y-13219500D01*
X13221300Y-13204500D02*
X13206300Y-13219500D01*
X13222500Y-12702500D02*
X13237500Y-12717500D01*
X13237500Y-12702500D02*
X13222500Y-12717500D01*
X13257100Y-13204500D02*
X13272100Y-13219500D01*
X13272100Y-13204500D02*
X13257100Y-13219500D01*
X13269500Y-3202500D02*
X13284500Y-3217500D01*
X13284500Y-3202500D02*
X13269500Y-3217500D01*
X13292500Y-13072500D02*
X13307500Y-13087500D01*
X13307500Y-13072500D02*
X13292500Y-13087500D01*
X13294500Y-3480500D02*
X13309500Y-3495500D01*
X13309500Y-3480500D02*
X13294500Y-3495500D01*
X13307900Y-13204500D02*
X13322900Y-13219500D01*
X13322900Y-13204500D02*
X13307900Y-13219500D01*
X13324500Y-3202500D02*
X13339500Y-3217500D01*
X13339500Y-3202500D02*
X13324500Y-3217500D01*
X13358700Y-13204500D02*
X13373700Y-13219500D01*
X13373700Y-13204500D02*
X13358700Y-13219500D01*
X13402500Y-3602500D02*
X13417500Y-3617500D01*
X13417500Y-3602500D02*
X13402500Y-3617500D01*
X13402500Y-12527500D02*
X13417500Y-12542500D01*
X13417500Y-12527500D02*
X13402500Y-12542500D01*
X13409500Y-13204500D02*
X13424500Y-13219500D01*
X13424500Y-13204500D02*
X13409500Y-13219500D01*
X13412500Y-11982500D02*
X13427500Y-11997500D01*
X13427500Y-11982500D02*
X13412500Y-11997500D01*
X13442500Y-5772500D02*
X13457500Y-5787500D01*
X13457500Y-5772500D02*
X13442500Y-5787500D01*
X13442500Y-10858500D02*
X13457500Y-10873500D01*
X13457500Y-10858500D02*
X13442500Y-10873500D01*
X13452500Y-5592500D02*
X13467500Y-5607500D01*
X13467500Y-5592500D02*
X13452500Y-5607500D01*
X13452500Y-9172500D02*
X13467500Y-9187500D01*
X13467500Y-9172500D02*
X13452500Y-9187500D01*
X13452500Y-9902500D02*
X13467500Y-9917500D01*
X13467500Y-9902500D02*
X13452500Y-9917500D01*
X13460300Y-13204500D02*
X13475300Y-13219500D01*
X13475300Y-13204500D02*
X13460300Y-13219500D01*
X13462500Y-10742500D02*
X13477500Y-10757500D01*
X13477500Y-10742500D02*
X13462500Y-10757500D01*
X13511100Y-13204500D02*
X13526100Y-13219500D01*
X13526100Y-13204500D02*
X13511100Y-13219500D01*
X13561900Y-13204500D02*
X13576900Y-13219500D01*
X13576900Y-13204500D02*
X13561900Y-13219500D01*
X13562500Y-12792500D02*
X13577500Y-12807500D01*
X13577500Y-12792500D02*
X13562500Y-12807500D01*
X13582500Y-5428500D02*
X13597500Y-5443500D01*
X13597500Y-5428500D02*
X13582500Y-5443500D01*
X13601500Y-11982500D02*
X13616500Y-11997500D01*
X13616500Y-11982500D02*
X13601500Y-11997500D01*
X13602500Y-10842500D02*
X13617500Y-10857500D01*
X13617500Y-10842500D02*
X13602500Y-10857500D01*
X13602500Y-12372500D02*
X13617500Y-12387500D01*
X13617500Y-12372500D02*
X13602500Y-12387500D01*
X13608950Y-11692500D02*
X13623950Y-11707500D01*
X13623950Y-11692500D02*
X13608950Y-11707500D01*
X13612500Y-9892500D02*
X13627500Y-9907500D01*
X13627500Y-9892500D02*
X13612500Y-9907500D01*
X13612700Y-13204500D02*
X13627700Y-13219500D01*
X13627700Y-13204500D02*
X13612700Y-13219500D01*
X13663500Y-13204500D02*
X13678500Y-13219500D01*
X13678500Y-13204500D02*
X13663500Y-13219500D01*
X13712500Y-8342500D02*
X13727500Y-8357500D01*
X13727500Y-8342500D02*
X13712500Y-8357500D01*
X13712500Y-8492500D02*
X13727500Y-8507500D01*
X13727500Y-8492500D02*
X13712500Y-8507500D01*
X13712500Y-8632500D02*
X13727500Y-8647500D01*
X13727500Y-8632500D02*
X13712500Y-8647500D01*
X13714300Y-13204500D02*
X13729300Y-13219500D01*
X13729300Y-13204500D02*
X13714300Y-13219500D01*
X13722500Y-7232500D02*
X13737500Y-7247500D01*
X13737500Y-7232500D02*
X13722500Y-7247500D01*
X13722500Y-7322500D02*
X13737500Y-7337500D01*
X13737500Y-7322500D02*
X13722500Y-7337500D01*
X13722500Y-9632500D02*
X13737500Y-9647500D01*
X13737500Y-9632500D02*
X13722500Y-9647500D01*
X13722500Y-9762500D02*
X13737500Y-9777500D01*
X13737500Y-9762500D02*
X13722500Y-9777500D01*
X13722500Y-9922500D02*
X13737500Y-9937500D01*
X13737500Y-9922500D02*
X13722500Y-9937500D01*
X13732500Y-2792500D02*
X13747500Y-2807500D01*
X13747500Y-2792500D02*
X13732500Y-2807500D01*
X13732500Y-3152500D02*
X13747500Y-3167500D01*
X13747500Y-3152500D02*
X13732500Y-3167500D01*
X13736500Y-5428500D02*
X13751500Y-5443500D01*
X13751500Y-5428500D02*
X13736500Y-5443500D01*
X13765100Y-13204500D02*
X13780100Y-13219500D01*
X13780100Y-13204500D02*
X13765100Y-13219500D01*
X13815900Y-13204500D02*
X13830900Y-13219500D01*
X13830900Y-13204500D02*
X13815900Y-13219500D01*
X13862500Y-3152500D02*
X13877500Y-3167500D01*
X13877500Y-3152500D02*
X13862500Y-3167500D01*
X13866700Y-13204500D02*
X13881700Y-13219500D01*
X13881700Y-13204500D02*
X13866700Y-13219500D01*
X13872500Y-2792500D02*
X13887500Y-2807500D01*
X13887500Y-2792500D02*
X13872500Y-2807500D01*
X13917500Y-13204500D02*
X13932500Y-13219500D01*
X13932500Y-13204500D02*
X13917500Y-13219500D01*
X13924500Y-5324500D02*
X13939500Y-5339500D01*
X13939500Y-5324500D02*
X13924500Y-5339500D01*
X13935500Y-5430500D02*
X13950500Y-5445500D01*
X13950500Y-5430500D02*
X13935500Y-5445500D01*
X13968300Y-13204500D02*
X13983300Y-13219500D01*
X13983300Y-13204500D02*
X13968300Y-13219500D01*
X13972500Y-12842500D02*
X13987500Y-12857500D01*
X13987500Y-12842500D02*
X13972500Y-12857500D01*
X14019100Y-13204500D02*
X14034100Y-13219500D01*
X14034100Y-13204500D02*
X14019100Y-13219500D01*
X14046500Y-4238500D02*
X14061500Y-4253500D01*
X14061500Y-4238500D02*
X14046500Y-4253500D01*
X14048500Y-3725500D02*
X14063500Y-3740500D01*
X14063500Y-3725500D02*
X14048500Y-3740500D01*
X14049500Y-3152500D02*
X14064500Y-3167500D01*
X14064500Y-3152500D02*
X14049500Y-3167500D01*
X14051500Y-2735500D02*
X14066500Y-2750500D01*
X14066500Y-2735500D02*
X14051500Y-2750500D01*
X14062500Y-12932500D02*
X14077500Y-12947500D01*
X14077500Y-12932500D02*
X14062500Y-12947500D01*
X14067500Y-9709500D02*
X14082500Y-9724500D01*
X14082500Y-9709500D02*
X14067500Y-9724500D01*
X14067500Y-9814500D02*
X14082500Y-9829500D01*
X14082500Y-9814500D02*
X14067500Y-9829500D01*
X14069900Y-13204500D02*
X14084900Y-13219500D01*
X14084900Y-13204500D02*
X14069900Y-13219500D01*
X14085500Y-13084500D02*
X14100500Y-13099500D01*
X14100500Y-13084500D02*
X14085500Y-13099500D01*
X14089500Y-11936500D02*
X14104500Y-11951500D01*
X14104500Y-11936500D02*
X14089500Y-11951500D01*
X14090500Y-11710500D02*
X14105500Y-11725500D01*
X14105500Y-11710500D02*
X14090500Y-11725500D01*
X14120700Y-13204500D02*
X14135700Y-13219500D01*
X14135700Y-13204500D02*
X14120700Y-13219500D01*
D13*
X12212500Y-4050000D02*
G75*
G03*
X12212500Y-4050000I-12500J0D01*
G01*
X12500000Y-4212500D02*
G75*
G03*
X12500000Y-4212500I-12500J0D01*
G01*
X12882500Y-3981050D02*
G75*
G03*
X12882500Y-3981050I-12500J0D01*
G01*
X13041500Y-4691000D02*
G75*
G03*
X13041500Y-4691000I-12500J0D01*
G01*
X13087500Y-4150000D02*
G75*
G03*
X13087500Y-4150000I-12500J0D01*
G01*
X13102500Y-11980000D02*
G75*
G03*
X13102500Y-11980000I-12500J0D01*
G01*
X13200000Y-4362500D02*
G75*
G03*
X13200000Y-4362500I-12500J0D01*
G01*
X13234500Y-12460000D02*
G75*
G03*
X13234500Y-12460000I-12500J0D01*
G01*
X13313500Y-4243250D02*
G75*
G03*
X13313500Y-4243250I-12500J0D01*
G01*
X13662500Y-5690000D02*
G75*
G03*
X13662500Y-5690000I-12500J0D01*
G01*
X13842500Y-4467000D02*
G75*
G03*
X13842500Y-4467000I-12500J0D01*
G01*
X14042500Y-6090000D02*
G75*
G03*
X14042500Y-6090000I-12500J0D01*
G01*
D14*
X12568000Y-2812000D02*
X12568000Y-2872000D01*
X12538000Y-2842000D02*
X12598000Y-2842000D01*
D11*
X12598000Y-2917000D02*
X12598000Y-2767000D01*
X12598000Y-2767000D02*
G75*
G03*
X12538000Y-2767000I-30000J0D01*
G01*
X12538000Y-2767000D02*
X12538000Y-2917000D01*
X12538000Y-2917000D02*
G75*
G03*
X12598000Y-2917000I30000J0D01*
G01*
D14*
X12568000Y-3348000D02*
X12568000Y-3408000D01*
X12538000Y-3378000D02*
X12598000Y-3378000D01*
D11*
X12598000Y-3428000D02*
X12598000Y-3328000D01*
X12598000Y-3328000D02*
G75*
G03*
X12538000Y-3328000I-30000J0D01*
G01*
X12538000Y-3328000D02*
X12538000Y-3428000D01*
X12538000Y-3428000D02*
G75*
G03*
X12598000Y-3428000I30000J0D01*
G01*
D14*
X13432000Y-2812000D02*
X13432000Y-2872000D01*
X13402000Y-2842000D02*
X13462000Y-2842000D01*
D11*
X13462000Y-2917000D02*
X13462000Y-2767000D01*
X13462000Y-2767000D02*
G75*
G03*
X13402000Y-2767000I-30000J0D01*
G01*
X13402000Y-2767000D02*
X13402000Y-2917000D01*
X13402000Y-2917000D02*
G75*
G03*
X13462000Y-2917000I30000J0D01*
G01*
D14*
X13432000Y-3348000D02*
X13432000Y-3408000D01*
X13402000Y-3378000D02*
X13462000Y-3378000D01*
D11*
X13462000Y-3428000D02*
X13462000Y-3328000D01*
X13462000Y-3328000D02*
G75*
G03*
X13402000Y-3328000I-30000J0D01*
G01*
X13402000Y-3328000D02*
X13402000Y-3428000D01*
X13402000Y-3428000D02*
G75*
G03*
X13462000Y-3428000I30000J0D01*
G01*
D10*
X13855356Y-3880356D02*
X13855356Y-3809644D01*
X13784644Y-3809644D01*
X13784644Y-3880356D01*
X13855356Y-3880356D01*
D15*
X12100000Y-6773000D02*
X12151000Y-6722000D01*
X12100000Y-6671000D01*
X12049000Y-6722000D01*
X12100000Y-6773000D01*
X12100000Y-7027000D02*
X12151000Y-6976000D01*
X12100000Y-6925000D01*
X12049000Y-6976000D01*
X12100000Y-7027000D01*
X12100000Y-7281000D02*
X12151000Y-7230000D01*
X12100000Y-7179000D01*
X12049000Y-7230000D01*
X12100000Y-7281000D01*
X12100000Y-7535000D02*
X12151000Y-7484000D01*
X12100000Y-7433000D01*
X12049000Y-7484000D01*
X12100000Y-7535000D01*
X12100000Y-7789000D02*
X12151000Y-7738000D01*
X12100000Y-7687000D01*
X12049000Y-7738000D01*
X12100000Y-7789000D01*
X12100000Y-8043000D02*
X12151000Y-7992000D01*
X12100000Y-7941000D01*
X12049000Y-7992000D01*
X12100000Y-8043000D01*
X12100000Y-8297000D02*
X12151000Y-8246000D01*
X12100000Y-8195000D01*
X12049000Y-8246000D01*
X12100000Y-8297000D01*
X12100000Y-8551000D02*
X12151000Y-8500000D01*
X12100000Y-8449000D01*
X12049000Y-8500000D01*
X12100000Y-8551000D01*
X12100000Y-8805000D02*
X12151000Y-8754000D01*
X12100000Y-8703000D01*
X12049000Y-8754000D01*
X12100000Y-8805000D01*
X12100000Y-9059000D02*
X12151000Y-9008000D01*
X12100000Y-8957000D01*
X12049000Y-9008000D01*
X12100000Y-9059000D01*
X12100000Y-9313000D02*
X12151000Y-9262000D01*
X12100000Y-9211000D01*
X12049000Y-9262000D01*
X12100000Y-9313000D01*
X12100000Y-9567000D02*
X12151000Y-9516000D01*
X12100000Y-9465000D01*
X12049000Y-9516000D01*
X12100000Y-9567000D01*
X12100000Y-9821000D02*
X12151000Y-9770000D01*
X12100000Y-9719000D01*
X12049000Y-9770000D01*
X12100000Y-9821000D01*
X12100000Y-10075000D02*
X12151000Y-10024000D01*
X12100000Y-9973000D01*
X12049000Y-10024000D01*
X12100000Y-10075000D01*
X12100000Y-10329000D02*
X12151000Y-10278000D01*
X12100000Y-10227000D01*
X12049000Y-10278000D01*
X12100000Y-10329000D01*
X12100000Y-10583000D02*
X12151000Y-10532000D01*
X12100000Y-10481000D01*
X12049000Y-10532000D01*
X12100000Y-10583000D01*
X12100000Y-10837000D02*
X12151000Y-10786000D01*
X12100000Y-10735000D01*
X12049000Y-10786000D01*
X12100000Y-10837000D01*
X12100000Y-11091000D02*
X12151000Y-11040000D01*
X12100000Y-10989000D01*
X12049000Y-11040000D01*
X12100000Y-11091000D01*
X12100000Y-11345000D02*
X12151000Y-11294000D01*
X12100000Y-11243000D01*
X12049000Y-11294000D01*
X12100000Y-11345000D01*
X12100000Y-11599000D02*
X12151000Y-11548000D01*
X12100000Y-11497000D01*
X12049000Y-11548000D01*
X12100000Y-11599000D01*
X13878000Y-6773000D02*
X13929000Y-6722000D01*
X13878000Y-6671000D01*
X13827000Y-6722000D01*
X13878000Y-6773000D01*
X13878000Y-7027000D02*
X13929000Y-6976000D01*
X13878000Y-6925000D01*
X13827000Y-6976000D01*
X13878000Y-7027000D01*
X13878000Y-7281000D02*
X13929000Y-7230000D01*
X13878000Y-7179000D01*
X13827000Y-7230000D01*
X13878000Y-7281000D01*
X13878000Y-7535000D02*
X13929000Y-7484000D01*
X13878000Y-7433000D01*
X13827000Y-7484000D01*
X13878000Y-7535000D01*
X13878000Y-7789000D02*
X13929000Y-7738000D01*
X13878000Y-7687000D01*
X13827000Y-7738000D01*
X13878000Y-7789000D01*
X13878000Y-8043000D02*
X13929000Y-7992000D01*
X13878000Y-7941000D01*
X13827000Y-7992000D01*
X13878000Y-8043000D01*
X13878000Y-8297000D02*
X13929000Y-8246000D01*
X13878000Y-8195000D01*
X13827000Y-8246000D01*
X13878000Y-8297000D01*
X13878000Y-8551000D02*
X13929000Y-8500000D01*
X13878000Y-8449000D01*
X13827000Y-8500000D01*
X13878000Y-8551000D01*
X13878000Y-8805000D02*
X13929000Y-8754000D01*
X13878000Y-8703000D01*
X13827000Y-8754000D01*
X13878000Y-8805000D01*
X13878000Y-9059000D02*
X13929000Y-9008000D01*
X13878000Y-8957000D01*
X13827000Y-9008000D01*
X13878000Y-9059000D01*
X13878000Y-9313000D02*
X13929000Y-9262000D01*
X13878000Y-9211000D01*
X13827000Y-9262000D01*
X13878000Y-9313000D01*
X13878000Y-9567000D02*
X13929000Y-9516000D01*
X13878000Y-9465000D01*
X13827000Y-9516000D01*
X13878000Y-9567000D01*
X13878000Y-9821000D02*
X13929000Y-9770000D01*
X13878000Y-9719000D01*
X13827000Y-9770000D01*
X13878000Y-9821000D01*
X13878000Y-10075000D02*
X13929000Y-10024000D01*
X13878000Y-9973000D01*
X13827000Y-10024000D01*
X13878000Y-10075000D01*
X13878000Y-10329000D02*
X13929000Y-10278000D01*
X13878000Y-10227000D01*
X13827000Y-10278000D01*
X13878000Y-10329000D01*
X13878000Y-10583000D02*
X13929000Y-10532000D01*
X13878000Y-10481000D01*
X13827000Y-10532000D01*
X13878000Y-10583000D01*
X13878000Y-10837000D02*
X13929000Y-10786000D01*
X13878000Y-10735000D01*
X13827000Y-10786000D01*
X13878000Y-10837000D01*
X13878000Y-11091000D02*
X13929000Y-11040000D01*
X13878000Y-10989000D01*
X13827000Y-11040000D01*
X13878000Y-11091000D01*
X13878000Y-11345000D02*
X13929000Y-11294000D01*
X13878000Y-11243000D01*
X13827000Y-11294000D01*
X13878000Y-11345000D01*
X13878000Y-11599000D02*
X13929000Y-11548000D01*
X13878000Y-11497000D01*
X13827000Y-11548000D01*
X13878000Y-11599000D01*
D16*
X12922000Y-5496000D02*
X13054000Y-5628000D01*
X13054000Y-5496000D02*
X12922000Y-5628000D01*
X13054000Y-5562000D02*
G75*
G03*
X13054000Y-5562000I-66000J0D01*
G01*
X12922000Y-12718000D02*
X13054000Y-12850000D01*
X13054000Y-12718000D02*
X12922000Y-12850000D01*
X13054000Y-12784000D02*
G75*
G03*
X13054000Y-12784000I-66000J0D01*
G01*
D11*
X12093777Y-15528484D02*
X12093777Y-15328484D01*
X12093777Y-15328484D02*
X12141396Y-15328484D01*
X12141396Y-15328484D02*
X12169967Y-15338008D01*
X12169967Y-15338008D02*
X12189015Y-15357055D01*
X12189015Y-15357055D02*
X12198539Y-15376103D01*
X12198539Y-15376103D02*
X12208062Y-15414198D01*
X12208062Y-15414198D02*
X12208062Y-15442769D01*
X12208062Y-15442769D02*
X12198539Y-15480865D01*
X12198539Y-15480865D02*
X12189015Y-15499912D01*
X12189015Y-15499912D02*
X12169967Y-15518960D01*
X12169967Y-15518960D02*
X12141396Y-15528484D01*
X12141396Y-15528484D02*
X12093777Y-15528484D01*
X12293777Y-15528484D02*
X12293777Y-15395150D01*
X12293777Y-15433246D02*
X12303301Y-15414198D01*
X12303301Y-15414198D02*
X12312824Y-15404674D01*
X12312824Y-15404674D02*
X12331872Y-15395150D01*
X12331872Y-15395150D02*
X12350920Y-15395150D01*
X12417586Y-15528484D02*
X12417586Y-15395150D01*
X12417586Y-15328484D02*
X12408062Y-15338008D01*
X12408062Y-15338008D02*
X12417586Y-15347531D01*
X12417586Y-15347531D02*
X12427110Y-15338008D01*
X12427110Y-15338008D02*
X12417586Y-15328484D01*
X12417586Y-15328484D02*
X12417586Y-15347531D01*
X12541396Y-15528484D02*
X12522348Y-15518960D01*
X12522348Y-15518960D02*
X12512824Y-15499912D01*
X12512824Y-15499912D02*
X12512824Y-15328484D01*
X12646158Y-15528484D02*
X12627110Y-15518960D01*
X12627110Y-15518960D02*
X12617586Y-15499912D01*
X12617586Y-15499912D02*
X12617586Y-15328484D01*
X12874729Y-15528484D02*
X12874729Y-15328484D01*
X12874729Y-15328484D02*
X12941396Y-15471341D01*
X12941396Y-15471341D02*
X13008062Y-15328484D01*
X13008062Y-15328484D02*
X13008062Y-15528484D01*
X13189015Y-15528484D02*
X13189015Y-15423722D01*
X13189015Y-15423722D02*
X13179491Y-15404674D01*
X13179491Y-15404674D02*
X13160443Y-15395150D01*
X13160443Y-15395150D02*
X13122348Y-15395150D01*
X13122348Y-15395150D02*
X13103301Y-15404674D01*
X13189015Y-15518960D02*
X13169967Y-15528484D01*
X13169967Y-15528484D02*
X13122348Y-15528484D01*
X13122348Y-15528484D02*
X13103301Y-15518960D01*
X13103301Y-15518960D02*
X13093777Y-15499912D01*
X13093777Y-15499912D02*
X13093777Y-15480865D01*
X13093777Y-15480865D02*
X13103301Y-15461817D01*
X13103301Y-15461817D02*
X13122348Y-15452293D01*
X13122348Y-15452293D02*
X13169967Y-15452293D01*
X13169967Y-15452293D02*
X13189015Y-15442769D01*
X13284253Y-15395150D02*
X13284253Y-15595150D01*
X13284253Y-15404674D02*
X13303301Y-15395150D01*
X13303301Y-15395150D02*
X13341396Y-15395150D01*
X13341396Y-15395150D02*
X13360443Y-15404674D01*
X13360443Y-15404674D02*
X13369967Y-15414198D01*
X13369967Y-15414198D02*
X13379491Y-15433246D01*
X13379491Y-15433246D02*
X13379491Y-15490388D01*
X13379491Y-15490388D02*
X13369967Y-15509436D01*
X13369967Y-15509436D02*
X13360443Y-15518960D01*
X13360443Y-15518960D02*
X13341396Y-15528484D01*
X13341396Y-15528484D02*
X13303301Y-15528484D01*
X13303301Y-15528484D02*
X13284253Y-15518960D01*
X13465205Y-15509436D02*
X13474729Y-15518960D01*
X13474729Y-15518960D02*
X13465205Y-15528484D01*
X13465205Y-15528484D02*
X13455682Y-15518960D01*
X13455682Y-15518960D02*
X13465205Y-15509436D01*
X13465205Y-15509436D02*
X13465205Y-15528484D01*
X13465205Y-15404674D02*
X13474729Y-15414198D01*
X13474729Y-15414198D02*
X13465205Y-15423722D01*
X13465205Y-15423722D02*
X13455682Y-15414198D01*
X13455682Y-15414198D02*
X13465205Y-15404674D01*
X13465205Y-15404674D02*
X13465205Y-15423722D01*
D12*
X11818000Y-15849500D02*
X11833000Y-15864500D01*
X11833000Y-15849500D02*
X11818000Y-15864500D01*
D11*
X12131872Y-15748484D02*
X12150920Y-15748484D01*
X12150920Y-15748484D02*
X12169967Y-15758008D01*
X12169967Y-15758008D02*
X12179491Y-15767531D01*
X12179491Y-15767531D02*
X12189015Y-15786579D01*
X12189015Y-15786579D02*
X12198539Y-15824674D01*
X12198539Y-15824674D02*
X12198539Y-15872293D01*
X12198539Y-15872293D02*
X12189015Y-15910388D01*
X12189015Y-15910388D02*
X12179491Y-15929436D01*
X12179491Y-15929436D02*
X12169967Y-15938960D01*
X12169967Y-15938960D02*
X12150920Y-15948484D01*
X12150920Y-15948484D02*
X12131872Y-15948484D01*
X12131872Y-15948484D02*
X12112824Y-15938960D01*
X12112824Y-15938960D02*
X12103301Y-15929436D01*
X12103301Y-15929436D02*
X12093777Y-15910388D01*
X12093777Y-15910388D02*
X12084253Y-15872293D01*
X12084253Y-15872293D02*
X12084253Y-15824674D01*
X12084253Y-15824674D02*
X12093777Y-15786579D01*
X12093777Y-15786579D02*
X12103301Y-15767531D01*
X12103301Y-15767531D02*
X12112824Y-15758008D01*
X12112824Y-15758008D02*
X12131872Y-15748484D01*
X12284253Y-15929436D02*
X12293777Y-15938960D01*
X12293777Y-15938960D02*
X12284253Y-15948484D01*
X12284253Y-15948484D02*
X12274729Y-15938960D01*
X12274729Y-15938960D02*
X12284253Y-15929436D01*
X12284253Y-15929436D02*
X12284253Y-15948484D01*
X12484253Y-15948484D02*
X12369967Y-15948484D01*
X12427110Y-15948484D02*
X12427110Y-15748484D01*
X12427110Y-15748484D02*
X12408062Y-15777055D01*
X12408062Y-15777055D02*
X12389015Y-15796103D01*
X12389015Y-15796103D02*
X12369967Y-15805627D01*
X12665205Y-15748484D02*
X12569967Y-15748484D01*
X12569967Y-15748484D02*
X12560443Y-15843722D01*
X12560443Y-15843722D02*
X12569967Y-15834198D01*
X12569967Y-15834198D02*
X12589015Y-15824674D01*
X12589015Y-15824674D02*
X12636634Y-15824674D01*
X12636634Y-15824674D02*
X12655682Y-15834198D01*
X12655682Y-15834198D02*
X12665205Y-15843722D01*
X12665205Y-15843722D02*
X12674729Y-15862769D01*
X12674729Y-15862769D02*
X12674729Y-15910388D01*
X12674729Y-15910388D02*
X12665205Y-15929436D01*
X12665205Y-15929436D02*
X12655682Y-15938960D01*
X12655682Y-15938960D02*
X12636634Y-15948484D01*
X12636634Y-15948484D02*
X12589015Y-15948484D01*
X12589015Y-15948484D02*
X12569967Y-15938960D01*
X12569967Y-15938960D02*
X12560443Y-15929436D01*
X12798539Y-15748484D02*
X12817586Y-15748484D01*
X12817586Y-15748484D02*
X12836634Y-15758008D01*
X12836634Y-15758008D02*
X12846158Y-15767531D01*
X12846158Y-15767531D02*
X12855682Y-15786579D01*
X12855682Y-15786579D02*
X12865205Y-15824674D01*
X12865205Y-15824674D02*
X12865205Y-15872293D01*
X12865205Y-15872293D02*
X12855682Y-15910388D01*
X12855682Y-15910388D02*
X12846158Y-15929436D01*
X12846158Y-15929436D02*
X12836634Y-15938960D01*
X12836634Y-15938960D02*
X12817586Y-15948484D01*
X12817586Y-15948484D02*
X12798539Y-15948484D01*
X12798539Y-15948484D02*
X12779491Y-15938960D01*
X12779491Y-15938960D02*
X12769967Y-15929436D01*
X12769967Y-15929436D02*
X12760443Y-15910388D01*
X12760443Y-15910388D02*
X12750920Y-15872293D01*
X12750920Y-15872293D02*
X12750920Y-15824674D01*
X12750920Y-15824674D02*
X12760443Y-15786579D01*
X12760443Y-15786579D02*
X12769967Y-15767531D01*
X12769967Y-15767531D02*
X12779491Y-15758008D01*
X12779491Y-15758008D02*
X12798539Y-15748484D01*
X12950920Y-15948484D02*
X12950920Y-15815150D01*
X12950920Y-15834198D02*
X12960443Y-15824674D01*
X12960443Y-15824674D02*
X12979491Y-15815150D01*
X12979491Y-15815150D02*
X13008063Y-15815150D01*
X13008063Y-15815150D02*
X13027110Y-15824674D01*
X13027110Y-15824674D02*
X13036634Y-15843722D01*
X13036634Y-15843722D02*
X13036634Y-15948484D01*
X13036634Y-15843722D02*
X13046158Y-15824674D01*
X13046158Y-15824674D02*
X13065205Y-15815150D01*
X13065205Y-15815150D02*
X13093777Y-15815150D01*
X13093777Y-15815150D02*
X13112824Y-15824674D01*
X13112824Y-15824674D02*
X13122348Y-15843722D01*
X13122348Y-15843722D02*
X13122348Y-15948484D01*
X13217586Y-15948484D02*
X13217586Y-15815150D01*
X13217586Y-15834198D02*
X13227110Y-15824674D01*
X13227110Y-15824674D02*
X13246158Y-15815150D01*
X13246158Y-15815150D02*
X13274729Y-15815150D01*
X13274729Y-15815150D02*
X13293777Y-15824674D01*
X13293777Y-15824674D02*
X13303301Y-15843722D01*
X13303301Y-15843722D02*
X13303301Y-15948484D01*
X13303301Y-15843722D02*
X13312824Y-15824674D01*
X13312824Y-15824674D02*
X13331872Y-15815150D01*
X13331872Y-15815150D02*
X13360443Y-15815150D01*
X13360443Y-15815150D02*
X13379491Y-15824674D01*
X13379491Y-15824674D02*
X13389015Y-15843722D01*
X13389015Y-15843722D02*
X13389015Y-15948484D01*
X13779491Y-15738960D02*
X13608063Y-15996103D01*
X14036634Y-15748484D02*
X14055682Y-15748484D01*
X14055682Y-15748484D02*
X14074729Y-15758008D01*
X14074729Y-15758008D02*
X14084253Y-15767531D01*
X14084253Y-15767531D02*
X14093777Y-15786579D01*
X14093777Y-15786579D02*
X14103301Y-15824674D01*
X14103301Y-15824674D02*
X14103301Y-15872293D01*
X14103301Y-15872293D02*
X14093777Y-15910388D01*
X14093777Y-15910388D02*
X14084253Y-15929436D01*
X14084253Y-15929436D02*
X14074729Y-15938960D01*
X14074729Y-15938960D02*
X14055682Y-15948484D01*
X14055682Y-15948484D02*
X14036634Y-15948484D01*
X14036634Y-15948484D02*
X14017586Y-15938960D01*
X14017586Y-15938960D02*
X14008063Y-15929436D01*
X14008063Y-15929436D02*
X13998539Y-15910388D01*
X13998539Y-15910388D02*
X13989015Y-15872293D01*
X13989015Y-15872293D02*
X13989015Y-15824674D01*
X13989015Y-15824674D02*
X13998539Y-15786579D01*
X13998539Y-15786579D02*
X14008063Y-15767531D01*
X14008063Y-15767531D02*
X14017586Y-15758008D01*
X14017586Y-15758008D02*
X14036634Y-15748484D01*
X14189015Y-15929436D02*
X14198539Y-15938960D01*
X14198539Y-15938960D02*
X14189015Y-15948484D01*
X14189015Y-15948484D02*
X14179491Y-15938960D01*
X14179491Y-15938960D02*
X14189015Y-15929436D01*
X14189015Y-15929436D02*
X14189015Y-15948484D01*
X14322348Y-15748484D02*
X14341396Y-15748484D01*
X14341396Y-15748484D02*
X14360444Y-15758008D01*
X14360444Y-15758008D02*
X14369967Y-15767531D01*
X14369967Y-15767531D02*
X14379491Y-15786579D01*
X14379491Y-15786579D02*
X14389015Y-15824674D01*
X14389015Y-15824674D02*
X14389015Y-15872293D01*
X14389015Y-15872293D02*
X14379491Y-15910388D01*
X14379491Y-15910388D02*
X14369967Y-15929436D01*
X14369967Y-15929436D02*
X14360444Y-15938960D01*
X14360444Y-15938960D02*
X14341396Y-15948484D01*
X14341396Y-15948484D02*
X14322348Y-15948484D01*
X14322348Y-15948484D02*
X14303301Y-15938960D01*
X14303301Y-15938960D02*
X14293777Y-15929436D01*
X14293777Y-15929436D02*
X14284253Y-15910388D01*
X14284253Y-15910388D02*
X14274729Y-15872293D01*
X14274729Y-15872293D02*
X14274729Y-15824674D01*
X14274729Y-15824674D02*
X14284253Y-15786579D01*
X14284253Y-15786579D02*
X14293777Y-15767531D01*
X14293777Y-15767531D02*
X14303301Y-15758008D01*
X14303301Y-15758008D02*
X14322348Y-15748484D01*
X14512825Y-15748484D02*
X14531872Y-15748484D01*
X14531872Y-15748484D02*
X14550920Y-15758008D01*
X14550920Y-15758008D02*
X14560444Y-15767531D01*
X14560444Y-15767531D02*
X14569967Y-15786579D01*
X14569967Y-15786579D02*
X14579491Y-15824674D01*
X14579491Y-15824674D02*
X14579491Y-15872293D01*
X14579491Y-15872293D02*
X14569967Y-15910388D01*
X14569967Y-15910388D02*
X14560444Y-15929436D01*
X14560444Y-15929436D02*
X14550920Y-15938960D01*
X14550920Y-15938960D02*
X14531872Y-15948484D01*
X14531872Y-15948484D02*
X14512825Y-15948484D01*
X14512825Y-15948484D02*
X14493777Y-15938960D01*
X14493777Y-15938960D02*
X14484253Y-15929436D01*
X14484253Y-15929436D02*
X14474729Y-15910388D01*
X14474729Y-15910388D02*
X14465206Y-15872293D01*
X14465206Y-15872293D02*
X14465206Y-15824674D01*
X14465206Y-15824674D02*
X14474729Y-15786579D01*
X14474729Y-15786579D02*
X14484253Y-15767531D01*
X14484253Y-15767531D02*
X14493777Y-15758008D01*
X14493777Y-15758008D02*
X14512825Y-15748484D01*
X14760444Y-15748484D02*
X14665206Y-15748484D01*
X14665206Y-15748484D02*
X14655682Y-15843722D01*
X14655682Y-15843722D02*
X14665206Y-15834198D01*
X14665206Y-15834198D02*
X14684253Y-15824674D01*
X14684253Y-15824674D02*
X14731872Y-15824674D01*
X14731872Y-15824674D02*
X14750920Y-15834198D01*
X14750920Y-15834198D02*
X14760444Y-15843722D01*
X14760444Y-15843722D02*
X14769967Y-15862769D01*
X14769967Y-15862769D02*
X14769967Y-15910388D01*
X14769967Y-15910388D02*
X14760444Y-15929436D01*
X14760444Y-15929436D02*
X14750920Y-15938960D01*
X14750920Y-15938960D02*
X14731872Y-15948484D01*
X14731872Y-15948484D02*
X14684253Y-15948484D01*
X14684253Y-15948484D02*
X14665206Y-15938960D01*
X14665206Y-15938960D02*
X14655682Y-15929436D01*
X14865206Y-15948484D02*
X14903301Y-15948484D01*
X14903301Y-15948484D02*
X14922348Y-15938960D01*
X14922348Y-15938960D02*
X14931872Y-15929436D01*
X14931872Y-15929436D02*
X14950920Y-15900865D01*
X14950920Y-15900865D02*
X14960444Y-15862769D01*
X14960444Y-15862769D02*
X14960444Y-15786579D01*
X14960444Y-15786579D02*
X14950920Y-15767531D01*
X14950920Y-15767531D02*
X14941396Y-15758008D01*
X14941396Y-15758008D02*
X14922348Y-15748484D01*
X14922348Y-15748484D02*
X14884253Y-15748484D01*
X14884253Y-15748484D02*
X14865206Y-15758008D01*
X14865206Y-15758008D02*
X14855682Y-15767531D01*
X14855682Y-15767531D02*
X14846158Y-15786579D01*
X14846158Y-15786579D02*
X14846158Y-15834198D01*
X14846158Y-15834198D02*
X14855682Y-15853246D01*
X14855682Y-15853246D02*
X14865206Y-15862769D01*
X14865206Y-15862769D02*
X14884253Y-15872293D01*
X14884253Y-15872293D02*
X14922348Y-15872293D01*
X14922348Y-15872293D02*
X14941396Y-15862769D01*
X14941396Y-15862769D02*
X14950920Y-15853246D01*
X14950920Y-15853246D02*
X14960444Y-15834198D01*
X15036634Y-15748484D02*
X15036634Y-15786579D01*
X15112825Y-15748484D02*
X15112825Y-15786579D01*
X15408063Y-16024674D02*
X15398539Y-16015150D01*
X15398539Y-16015150D02*
X15379491Y-15986579D01*
X15379491Y-15986579D02*
X15369968Y-15967531D01*
X15369968Y-15967531D02*
X15360444Y-15938960D01*
X15360444Y-15938960D02*
X15350920Y-15891341D01*
X15350920Y-15891341D02*
X15350920Y-15853246D01*
X15350920Y-15853246D02*
X15360444Y-15805627D01*
X15360444Y-15805627D02*
X15369968Y-15777055D01*
X15369968Y-15777055D02*
X15379491Y-15758008D01*
X15379491Y-15758008D02*
X15398539Y-15729436D01*
X15398539Y-15729436D02*
X15408063Y-15719912D01*
X15474729Y-15767531D02*
X15484253Y-15758008D01*
X15484253Y-15758008D02*
X15503301Y-15748484D01*
X15503301Y-15748484D02*
X15550920Y-15748484D01*
X15550920Y-15748484D02*
X15569968Y-15758008D01*
X15569968Y-15758008D02*
X15579491Y-15767531D01*
X15579491Y-15767531D02*
X15589015Y-15786579D01*
X15589015Y-15786579D02*
X15589015Y-15805627D01*
X15589015Y-15805627D02*
X15579491Y-15834198D01*
X15579491Y-15834198D02*
X15465206Y-15948484D01*
X15465206Y-15948484D02*
X15589015Y-15948484D01*
X15665206Y-15767531D02*
X15674729Y-15758008D01*
X15674729Y-15758008D02*
X15693777Y-15748484D01*
X15693777Y-15748484D02*
X15741396Y-15748484D01*
X15741396Y-15748484D02*
X15760444Y-15758008D01*
X15760444Y-15758008D02*
X15769968Y-15767531D01*
X15769968Y-15767531D02*
X15779491Y-15786579D01*
X15779491Y-15786579D02*
X15779491Y-15805627D01*
X15779491Y-15805627D02*
X15769968Y-15834198D01*
X15769968Y-15834198D02*
X15655682Y-15948484D01*
X15655682Y-15948484D02*
X15779491Y-15948484D01*
X15960444Y-15748484D02*
X15865206Y-15748484D01*
X15865206Y-15748484D02*
X15855682Y-15843722D01*
X15855682Y-15843722D02*
X15865206Y-15834198D01*
X15865206Y-15834198D02*
X15884253Y-15824674D01*
X15884253Y-15824674D02*
X15931872Y-15824674D01*
X15931872Y-15824674D02*
X15950920Y-15834198D01*
X15950920Y-15834198D02*
X15960444Y-15843722D01*
X15960444Y-15843722D02*
X15969968Y-15862769D01*
X15969968Y-15862769D02*
X15969968Y-15910388D01*
X15969968Y-15910388D02*
X15960444Y-15929436D01*
X15960444Y-15929436D02*
X15950920Y-15938960D01*
X15950920Y-15938960D02*
X15931872Y-15948484D01*
X15931872Y-15948484D02*
X15884253Y-15948484D01*
X15884253Y-15948484D02*
X15865206Y-15938960D01*
X15865206Y-15938960D02*
X15855682Y-15929436D01*
X16208063Y-15948484D02*
X16208063Y-15748484D01*
X16293777Y-15948484D02*
X16293777Y-15843722D01*
X16293777Y-15843722D02*
X16284253Y-15824674D01*
X16284253Y-15824674D02*
X16265206Y-15815150D01*
X16265206Y-15815150D02*
X16236634Y-15815150D01*
X16236634Y-15815150D02*
X16217587Y-15824674D01*
X16217587Y-15824674D02*
X16208063Y-15834198D01*
X16417587Y-15948484D02*
X16398539Y-15938960D01*
X16398539Y-15938960D02*
X16389015Y-15929436D01*
X16389015Y-15929436D02*
X16379491Y-15910388D01*
X16379491Y-15910388D02*
X16379491Y-15853246D01*
X16379491Y-15853246D02*
X16389015Y-15834198D01*
X16389015Y-15834198D02*
X16398539Y-15824674D01*
X16398539Y-15824674D02*
X16417587Y-15815150D01*
X16417587Y-15815150D02*
X16446158Y-15815150D01*
X16446158Y-15815150D02*
X16465206Y-15824674D01*
X16465206Y-15824674D02*
X16474730Y-15834198D01*
X16474730Y-15834198D02*
X16484253Y-15853246D01*
X16484253Y-15853246D02*
X16484253Y-15910388D01*
X16484253Y-15910388D02*
X16474730Y-15929436D01*
X16474730Y-15929436D02*
X16465206Y-15938960D01*
X16465206Y-15938960D02*
X16446158Y-15948484D01*
X16446158Y-15948484D02*
X16417587Y-15948484D01*
X16598539Y-15948484D02*
X16579491Y-15938960D01*
X16579491Y-15938960D02*
X16569968Y-15919912D01*
X16569968Y-15919912D02*
X16569968Y-15748484D01*
X16750920Y-15938960D02*
X16731872Y-15948484D01*
X16731872Y-15948484D02*
X16693777Y-15948484D01*
X16693777Y-15948484D02*
X16674730Y-15938960D01*
X16674730Y-15938960D02*
X16665206Y-15919912D01*
X16665206Y-15919912D02*
X16665206Y-15843722D01*
X16665206Y-15843722D02*
X16674730Y-15824674D01*
X16674730Y-15824674D02*
X16693777Y-15815150D01*
X16693777Y-15815150D02*
X16731872Y-15815150D01*
X16731872Y-15815150D02*
X16750920Y-15824674D01*
X16750920Y-15824674D02*
X16760444Y-15843722D01*
X16760444Y-15843722D02*
X16760444Y-15862769D01*
X16760444Y-15862769D02*
X16665206Y-15881817D01*
X16836634Y-15938960D02*
X16855682Y-15948484D01*
X16855682Y-15948484D02*
X16893777Y-15948484D01*
X16893777Y-15948484D02*
X16912825Y-15938960D01*
X16912825Y-15938960D02*
X16922349Y-15919912D01*
X16922349Y-15919912D02*
X16922349Y-15910388D01*
X16922349Y-15910388D02*
X16912825Y-15891341D01*
X16912825Y-15891341D02*
X16893777Y-15881817D01*
X16893777Y-15881817D02*
X16865206Y-15881817D01*
X16865206Y-15881817D02*
X16846158Y-15872293D01*
X16846158Y-15872293D02*
X16836634Y-15853246D01*
X16836634Y-15853246D02*
X16836634Y-15843722D01*
X16836634Y-15843722D02*
X16846158Y-15824674D01*
X16846158Y-15824674D02*
X16865206Y-15815150D01*
X16865206Y-15815150D02*
X16893777Y-15815150D01*
X16893777Y-15815150D02*
X16912825Y-15824674D01*
X16989015Y-16024674D02*
X16998539Y-16015150D01*
X16998539Y-16015150D02*
X17017587Y-15986579D01*
X17017587Y-15986579D02*
X17027111Y-15967531D01*
X17027111Y-15967531D02*
X17036634Y-15938960D01*
X17036634Y-15938960D02*
X17046158Y-15891341D01*
X17046158Y-15891341D02*
X17046158Y-15853246D01*
X17046158Y-15853246D02*
X17036634Y-15805627D01*
X17036634Y-15805627D02*
X17027111Y-15777055D01*
X17027111Y-15777055D02*
X17017587Y-15758008D01*
X17017587Y-15758008D02*
X16998539Y-15729436D01*
X16998539Y-15729436D02*
X16989015Y-15719912D01*
D13*
X11833000Y-16121000D02*
G75*
G03*
X11833000Y-16121000I-12500J0D01*
G01*
D11*
X12131872Y-16012484D02*
X12150920Y-16012484D01*
X12150920Y-16012484D02*
X12169967Y-16022008D01*
X12169967Y-16022008D02*
X12179491Y-16031531D01*
X12179491Y-16031531D02*
X12189015Y-16050579D01*
X12189015Y-16050579D02*
X12198539Y-16088674D01*
X12198539Y-16088674D02*
X12198539Y-16136293D01*
X12198539Y-16136293D02*
X12189015Y-16174388D01*
X12189015Y-16174388D02*
X12179491Y-16193436D01*
X12179491Y-16193436D02*
X12169967Y-16202960D01*
X12169967Y-16202960D02*
X12150920Y-16212484D01*
X12150920Y-16212484D02*
X12131872Y-16212484D01*
X12131872Y-16212484D02*
X12112824Y-16202960D01*
X12112824Y-16202960D02*
X12103301Y-16193436D01*
X12103301Y-16193436D02*
X12093777Y-16174388D01*
X12093777Y-16174388D02*
X12084253Y-16136293D01*
X12084253Y-16136293D02*
X12084253Y-16088674D01*
X12084253Y-16088674D02*
X12093777Y-16050579D01*
X12093777Y-16050579D02*
X12103301Y-16031531D01*
X12103301Y-16031531D02*
X12112824Y-16022008D01*
X12112824Y-16022008D02*
X12131872Y-16012484D01*
X12284253Y-16193436D02*
X12293777Y-16202960D01*
X12293777Y-16202960D02*
X12284253Y-16212484D01*
X12284253Y-16212484D02*
X12274729Y-16202960D01*
X12274729Y-16202960D02*
X12284253Y-16193436D01*
X12284253Y-16193436D02*
X12284253Y-16212484D01*
X12369967Y-16031531D02*
X12379491Y-16022008D01*
X12379491Y-16022008D02*
X12398539Y-16012484D01*
X12398539Y-16012484D02*
X12446158Y-16012484D01*
X12446158Y-16012484D02*
X12465205Y-16022008D01*
X12465205Y-16022008D02*
X12474729Y-16031531D01*
X12474729Y-16031531D02*
X12484253Y-16050579D01*
X12484253Y-16050579D02*
X12484253Y-16069627D01*
X12484253Y-16069627D02*
X12474729Y-16098198D01*
X12474729Y-16098198D02*
X12360443Y-16212484D01*
X12360443Y-16212484D02*
X12484253Y-16212484D01*
X12665205Y-16012484D02*
X12569967Y-16012484D01*
X12569967Y-16012484D02*
X12560443Y-16107722D01*
X12560443Y-16107722D02*
X12569967Y-16098198D01*
X12569967Y-16098198D02*
X12589015Y-16088674D01*
X12589015Y-16088674D02*
X12636634Y-16088674D01*
X12636634Y-16088674D02*
X12655682Y-16098198D01*
X12655682Y-16098198D02*
X12665205Y-16107722D01*
X12665205Y-16107722D02*
X12674729Y-16126769D01*
X12674729Y-16126769D02*
X12674729Y-16174388D01*
X12674729Y-16174388D02*
X12665205Y-16193436D01*
X12665205Y-16193436D02*
X12655682Y-16202960D01*
X12655682Y-16202960D02*
X12636634Y-16212484D01*
X12636634Y-16212484D02*
X12589015Y-16212484D01*
X12589015Y-16212484D02*
X12569967Y-16202960D01*
X12569967Y-16202960D02*
X12560443Y-16193436D01*
X12798539Y-16012484D02*
X12817586Y-16012484D01*
X12817586Y-16012484D02*
X12836634Y-16022008D01*
X12836634Y-16022008D02*
X12846158Y-16031531D01*
X12846158Y-16031531D02*
X12855682Y-16050579D01*
X12855682Y-16050579D02*
X12865205Y-16088674D01*
X12865205Y-16088674D02*
X12865205Y-16136293D01*
X12865205Y-16136293D02*
X12855682Y-16174388D01*
X12855682Y-16174388D02*
X12846158Y-16193436D01*
X12846158Y-16193436D02*
X12836634Y-16202960D01*
X12836634Y-16202960D02*
X12817586Y-16212484D01*
X12817586Y-16212484D02*
X12798539Y-16212484D01*
X12798539Y-16212484D02*
X12779491Y-16202960D01*
X12779491Y-16202960D02*
X12769967Y-16193436D01*
X12769967Y-16193436D02*
X12760443Y-16174388D01*
X12760443Y-16174388D02*
X12750920Y-16136293D01*
X12750920Y-16136293D02*
X12750920Y-16088674D01*
X12750920Y-16088674D02*
X12760443Y-16050579D01*
X12760443Y-16050579D02*
X12769967Y-16031531D01*
X12769967Y-16031531D02*
X12779491Y-16022008D01*
X12779491Y-16022008D02*
X12798539Y-16012484D01*
X12950920Y-16212484D02*
X12950920Y-16079150D01*
X12950920Y-16098198D02*
X12960443Y-16088674D01*
X12960443Y-16088674D02*
X12979491Y-16079150D01*
X12979491Y-16079150D02*
X13008063Y-16079150D01*
X13008063Y-16079150D02*
X13027110Y-16088674D01*
X13027110Y-16088674D02*
X13036634Y-16107722D01*
X13036634Y-16107722D02*
X13036634Y-16212484D01*
X13036634Y-16107722D02*
X13046158Y-16088674D01*
X13046158Y-16088674D02*
X13065205Y-16079150D01*
X13065205Y-16079150D02*
X13093777Y-16079150D01*
X13093777Y-16079150D02*
X13112824Y-16088674D01*
X13112824Y-16088674D02*
X13122348Y-16107722D01*
X13122348Y-16107722D02*
X13122348Y-16212484D01*
X13217586Y-16212484D02*
X13217586Y-16079150D01*
X13217586Y-16098198D02*
X13227110Y-16088674D01*
X13227110Y-16088674D02*
X13246158Y-16079150D01*
X13246158Y-16079150D02*
X13274729Y-16079150D01*
X13274729Y-16079150D02*
X13293777Y-16088674D01*
X13293777Y-16088674D02*
X13303301Y-16107722D01*
X13303301Y-16107722D02*
X13303301Y-16212484D01*
X13303301Y-16107722D02*
X13312824Y-16088674D01*
X13312824Y-16088674D02*
X13331872Y-16079150D01*
X13331872Y-16079150D02*
X13360443Y-16079150D01*
X13360443Y-16079150D02*
X13379491Y-16088674D01*
X13379491Y-16088674D02*
X13389015Y-16107722D01*
X13389015Y-16107722D02*
X13389015Y-16212484D01*
X13779491Y-16002960D02*
X13608063Y-16260103D01*
X14036634Y-16012484D02*
X14055682Y-16012484D01*
X14055682Y-16012484D02*
X14074729Y-16022008D01*
X14074729Y-16022008D02*
X14084253Y-16031531D01*
X14084253Y-16031531D02*
X14093777Y-16050579D01*
X14093777Y-16050579D02*
X14103301Y-16088674D01*
X14103301Y-16088674D02*
X14103301Y-16136293D01*
X14103301Y-16136293D02*
X14093777Y-16174388D01*
X14093777Y-16174388D02*
X14084253Y-16193436D01*
X14084253Y-16193436D02*
X14074729Y-16202960D01*
X14074729Y-16202960D02*
X14055682Y-16212484D01*
X14055682Y-16212484D02*
X14036634Y-16212484D01*
X14036634Y-16212484D02*
X14017586Y-16202960D01*
X14017586Y-16202960D02*
X14008063Y-16193436D01*
X14008063Y-16193436D02*
X13998539Y-16174388D01*
X13998539Y-16174388D02*
X13989015Y-16136293D01*
X13989015Y-16136293D02*
X13989015Y-16088674D01*
X13989015Y-16088674D02*
X13998539Y-16050579D01*
X13998539Y-16050579D02*
X14008063Y-16031531D01*
X14008063Y-16031531D02*
X14017586Y-16022008D01*
X14017586Y-16022008D02*
X14036634Y-16012484D01*
X14189015Y-16193436D02*
X14198539Y-16202960D01*
X14198539Y-16202960D02*
X14189015Y-16212484D01*
X14189015Y-16212484D02*
X14179491Y-16202960D01*
X14179491Y-16202960D02*
X14189015Y-16193436D01*
X14189015Y-16193436D02*
X14189015Y-16212484D01*
X14322348Y-16012484D02*
X14341396Y-16012484D01*
X14341396Y-16012484D02*
X14360444Y-16022008D01*
X14360444Y-16022008D02*
X14369967Y-16031531D01*
X14369967Y-16031531D02*
X14379491Y-16050579D01*
X14379491Y-16050579D02*
X14389015Y-16088674D01*
X14389015Y-16088674D02*
X14389015Y-16136293D01*
X14389015Y-16136293D02*
X14379491Y-16174388D01*
X14379491Y-16174388D02*
X14369967Y-16193436D01*
X14369967Y-16193436D02*
X14360444Y-16202960D01*
X14360444Y-16202960D02*
X14341396Y-16212484D01*
X14341396Y-16212484D02*
X14322348Y-16212484D01*
X14322348Y-16212484D02*
X14303301Y-16202960D01*
X14303301Y-16202960D02*
X14293777Y-16193436D01*
X14293777Y-16193436D02*
X14284253Y-16174388D01*
X14284253Y-16174388D02*
X14274729Y-16136293D01*
X14274729Y-16136293D02*
X14274729Y-16088674D01*
X14274729Y-16088674D02*
X14284253Y-16050579D01*
X14284253Y-16050579D02*
X14293777Y-16031531D01*
X14293777Y-16031531D02*
X14303301Y-16022008D01*
X14303301Y-16022008D02*
X14322348Y-16012484D01*
X14512825Y-16012484D02*
X14531872Y-16012484D01*
X14531872Y-16012484D02*
X14550920Y-16022008D01*
X14550920Y-16022008D02*
X14560444Y-16031531D01*
X14560444Y-16031531D02*
X14569967Y-16050579D01*
X14569967Y-16050579D02*
X14579491Y-16088674D01*
X14579491Y-16088674D02*
X14579491Y-16136293D01*
X14579491Y-16136293D02*
X14569967Y-16174388D01*
X14569967Y-16174388D02*
X14560444Y-16193436D01*
X14560444Y-16193436D02*
X14550920Y-16202960D01*
X14550920Y-16202960D02*
X14531872Y-16212484D01*
X14531872Y-16212484D02*
X14512825Y-16212484D01*
X14512825Y-16212484D02*
X14493777Y-16202960D01*
X14493777Y-16202960D02*
X14484253Y-16193436D01*
X14484253Y-16193436D02*
X14474729Y-16174388D01*
X14474729Y-16174388D02*
X14465206Y-16136293D01*
X14465206Y-16136293D02*
X14465206Y-16088674D01*
X14465206Y-16088674D02*
X14474729Y-16050579D01*
X14474729Y-16050579D02*
X14484253Y-16031531D01*
X14484253Y-16031531D02*
X14493777Y-16022008D01*
X14493777Y-16022008D02*
X14512825Y-16012484D01*
X14674729Y-16212484D02*
X14712825Y-16212484D01*
X14712825Y-16212484D02*
X14731872Y-16202960D01*
X14731872Y-16202960D02*
X14741396Y-16193436D01*
X14741396Y-16193436D02*
X14760444Y-16164865D01*
X14760444Y-16164865D02*
X14769967Y-16126769D01*
X14769967Y-16126769D02*
X14769967Y-16050579D01*
X14769967Y-16050579D02*
X14760444Y-16031531D01*
X14760444Y-16031531D02*
X14750920Y-16022008D01*
X14750920Y-16022008D02*
X14731872Y-16012484D01*
X14731872Y-16012484D02*
X14693777Y-16012484D01*
X14693777Y-16012484D02*
X14674729Y-16022008D01*
X14674729Y-16022008D02*
X14665206Y-16031531D01*
X14665206Y-16031531D02*
X14655682Y-16050579D01*
X14655682Y-16050579D02*
X14655682Y-16098198D01*
X14655682Y-16098198D02*
X14665206Y-16117246D01*
X14665206Y-16117246D02*
X14674729Y-16126769D01*
X14674729Y-16126769D02*
X14693777Y-16136293D01*
X14693777Y-16136293D02*
X14731872Y-16136293D01*
X14731872Y-16136293D02*
X14750920Y-16126769D01*
X14750920Y-16126769D02*
X14760444Y-16117246D01*
X14760444Y-16117246D02*
X14769967Y-16098198D01*
X14884253Y-16098198D02*
X14865206Y-16088674D01*
X14865206Y-16088674D02*
X14855682Y-16079150D01*
X14855682Y-16079150D02*
X14846158Y-16060103D01*
X14846158Y-16060103D02*
X14846158Y-16050579D01*
X14846158Y-16050579D02*
X14855682Y-16031531D01*
X14855682Y-16031531D02*
X14865206Y-16022008D01*
X14865206Y-16022008D02*
X14884253Y-16012484D01*
X14884253Y-16012484D02*
X14922348Y-16012484D01*
X14922348Y-16012484D02*
X14941396Y-16022008D01*
X14941396Y-16022008D02*
X14950920Y-16031531D01*
X14950920Y-16031531D02*
X14960444Y-16050579D01*
X14960444Y-16050579D02*
X14960444Y-16060103D01*
X14960444Y-16060103D02*
X14950920Y-16079150D01*
X14950920Y-16079150D02*
X14941396Y-16088674D01*
X14941396Y-16088674D02*
X14922348Y-16098198D01*
X14922348Y-16098198D02*
X14884253Y-16098198D01*
X14884253Y-16098198D02*
X14865206Y-16107722D01*
X14865206Y-16107722D02*
X14855682Y-16117246D01*
X14855682Y-16117246D02*
X14846158Y-16136293D01*
X14846158Y-16136293D02*
X14846158Y-16174388D01*
X14846158Y-16174388D02*
X14855682Y-16193436D01*
X14855682Y-16193436D02*
X14865206Y-16202960D01*
X14865206Y-16202960D02*
X14884253Y-16212484D01*
X14884253Y-16212484D02*
X14922348Y-16212484D01*
X14922348Y-16212484D02*
X14941396Y-16202960D01*
X14941396Y-16202960D02*
X14950920Y-16193436D01*
X14950920Y-16193436D02*
X14960444Y-16174388D01*
X14960444Y-16174388D02*
X14960444Y-16136293D01*
X14960444Y-16136293D02*
X14950920Y-16117246D01*
X14950920Y-16117246D02*
X14941396Y-16107722D01*
X14941396Y-16107722D02*
X14922348Y-16098198D01*
X15036634Y-16012484D02*
X15036634Y-16050579D01*
X15112825Y-16012484D02*
X15112825Y-16050579D01*
X15408063Y-16288674D02*
X15398539Y-16279150D01*
X15398539Y-16279150D02*
X15379491Y-16250579D01*
X15379491Y-16250579D02*
X15369968Y-16231531D01*
X15369968Y-16231531D02*
X15360444Y-16202960D01*
X15360444Y-16202960D02*
X15350920Y-16155341D01*
X15350920Y-16155341D02*
X15350920Y-16117246D01*
X15350920Y-16117246D02*
X15360444Y-16069627D01*
X15360444Y-16069627D02*
X15369968Y-16041055D01*
X15369968Y-16041055D02*
X15379491Y-16022008D01*
X15379491Y-16022008D02*
X15398539Y-15993436D01*
X15398539Y-15993436D02*
X15408063Y-15983912D01*
X15589015Y-16212484D02*
X15474729Y-16212484D01*
X15531872Y-16212484D02*
X15531872Y-16012484D01*
X15531872Y-16012484D02*
X15512825Y-16041055D01*
X15512825Y-16041055D02*
X15493777Y-16060103D01*
X15493777Y-16060103D02*
X15474729Y-16069627D01*
X15665206Y-16031531D02*
X15674729Y-16022008D01*
X15674729Y-16022008D02*
X15693777Y-16012484D01*
X15693777Y-16012484D02*
X15741396Y-16012484D01*
X15741396Y-16012484D02*
X15760444Y-16022008D01*
X15760444Y-16022008D02*
X15769968Y-16031531D01*
X15769968Y-16031531D02*
X15779491Y-16050579D01*
X15779491Y-16050579D02*
X15779491Y-16069627D01*
X15779491Y-16069627D02*
X15769968Y-16098198D01*
X15769968Y-16098198D02*
X15655682Y-16212484D01*
X15655682Y-16212484D02*
X15779491Y-16212484D01*
X16017587Y-16212484D02*
X16017587Y-16012484D01*
X16103301Y-16212484D02*
X16103301Y-16107722D01*
X16103301Y-16107722D02*
X16093777Y-16088674D01*
X16093777Y-16088674D02*
X16074730Y-16079150D01*
X16074730Y-16079150D02*
X16046158Y-16079150D01*
X16046158Y-16079150D02*
X16027110Y-16088674D01*
X16027110Y-16088674D02*
X16017587Y-16098198D01*
X16227110Y-16212484D02*
X16208063Y-16202960D01*
X16208063Y-16202960D02*
X16198539Y-16193436D01*
X16198539Y-16193436D02*
X16189015Y-16174388D01*
X16189015Y-16174388D02*
X16189015Y-16117246D01*
X16189015Y-16117246D02*
X16198539Y-16098198D01*
X16198539Y-16098198D02*
X16208063Y-16088674D01*
X16208063Y-16088674D02*
X16227110Y-16079150D01*
X16227110Y-16079150D02*
X16255682Y-16079150D01*
X16255682Y-16079150D02*
X16274730Y-16088674D01*
X16274730Y-16088674D02*
X16284253Y-16098198D01*
X16284253Y-16098198D02*
X16293777Y-16117246D01*
X16293777Y-16117246D02*
X16293777Y-16174388D01*
X16293777Y-16174388D02*
X16284253Y-16193436D01*
X16284253Y-16193436D02*
X16274730Y-16202960D01*
X16274730Y-16202960D02*
X16255682Y-16212484D01*
X16255682Y-16212484D02*
X16227110Y-16212484D01*
X16408063Y-16212484D02*
X16389015Y-16202960D01*
X16389015Y-16202960D02*
X16379491Y-16183912D01*
X16379491Y-16183912D02*
X16379491Y-16012484D01*
X16560444Y-16202960D02*
X16541396Y-16212484D01*
X16541396Y-16212484D02*
X16503301Y-16212484D01*
X16503301Y-16212484D02*
X16484253Y-16202960D01*
X16484253Y-16202960D02*
X16474730Y-16183912D01*
X16474730Y-16183912D02*
X16474730Y-16107722D01*
X16474730Y-16107722D02*
X16484253Y-16088674D01*
X16484253Y-16088674D02*
X16503301Y-16079150D01*
X16503301Y-16079150D02*
X16541396Y-16079150D01*
X16541396Y-16079150D02*
X16560444Y-16088674D01*
X16560444Y-16088674D02*
X16569968Y-16107722D01*
X16569968Y-16107722D02*
X16569968Y-16126769D01*
X16569968Y-16126769D02*
X16474730Y-16145817D01*
X16646158Y-16202960D02*
X16665206Y-16212484D01*
X16665206Y-16212484D02*
X16703301Y-16212484D01*
X16703301Y-16212484D02*
X16722349Y-16202960D01*
X16722349Y-16202960D02*
X16731872Y-16183912D01*
X16731872Y-16183912D02*
X16731872Y-16174388D01*
X16731872Y-16174388D02*
X16722349Y-16155341D01*
X16722349Y-16155341D02*
X16703301Y-16145817D01*
X16703301Y-16145817D02*
X16674730Y-16145817D01*
X16674730Y-16145817D02*
X16655682Y-16136293D01*
X16655682Y-16136293D02*
X16646158Y-16117246D01*
X16646158Y-16117246D02*
X16646158Y-16107722D01*
X16646158Y-16107722D02*
X16655682Y-16088674D01*
X16655682Y-16088674D02*
X16674730Y-16079150D01*
X16674730Y-16079150D02*
X16703301Y-16079150D01*
X16703301Y-16079150D02*
X16722349Y-16088674D01*
X16798539Y-16288674D02*
X16808063Y-16279150D01*
X16808063Y-16279150D02*
X16827111Y-16250579D01*
X16827111Y-16250579D02*
X16836634Y-16231531D01*
X16836634Y-16231531D02*
X16846158Y-16202960D01*
X16846158Y-16202960D02*
X16855682Y-16155341D01*
X16855682Y-16155341D02*
X16855682Y-16117246D01*
X16855682Y-16117246D02*
X16846158Y-16069627D01*
X16846158Y-16069627D02*
X16836634Y-16041055D01*
X16836634Y-16041055D02*
X16827111Y-16022008D01*
X16827111Y-16022008D02*
X16808063Y-15993436D01*
X16808063Y-15993436D02*
X16798539Y-15983912D01*
D14*
X11803000Y-16355000D02*
X11803000Y-16415000D01*
X11773000Y-16385000D02*
X11833000Y-16385000D01*
D11*
X12131872Y-16276484D02*
X12150920Y-16276484D01*
X12150920Y-16276484D02*
X12169967Y-16286008D01*
X12169967Y-16286008D02*
X12179491Y-16295531D01*
X12179491Y-16295531D02*
X12189015Y-16314579D01*
X12189015Y-16314579D02*
X12198539Y-16352674D01*
X12198539Y-16352674D02*
X12198539Y-16400293D01*
X12198539Y-16400293D02*
X12189015Y-16438388D01*
X12189015Y-16438388D02*
X12179491Y-16457436D01*
X12179491Y-16457436D02*
X12169967Y-16466960D01*
X12169967Y-16466960D02*
X12150920Y-16476484D01*
X12150920Y-16476484D02*
X12131872Y-16476484D01*
X12131872Y-16476484D02*
X12112824Y-16466960D01*
X12112824Y-16466960D02*
X12103301Y-16457436D01*
X12103301Y-16457436D02*
X12093777Y-16438388D01*
X12093777Y-16438388D02*
X12084253Y-16400293D01*
X12084253Y-16400293D02*
X12084253Y-16352674D01*
X12084253Y-16352674D02*
X12093777Y-16314579D01*
X12093777Y-16314579D02*
X12103301Y-16295531D01*
X12103301Y-16295531D02*
X12112824Y-16286008D01*
X12112824Y-16286008D02*
X12131872Y-16276484D01*
X12284253Y-16457436D02*
X12293777Y-16466960D01*
X12293777Y-16466960D02*
X12284253Y-16476484D01*
X12284253Y-16476484D02*
X12274729Y-16466960D01*
X12274729Y-16466960D02*
X12284253Y-16457436D01*
X12284253Y-16457436D02*
X12284253Y-16476484D01*
X12465205Y-16276484D02*
X12427110Y-16276484D01*
X12427110Y-16276484D02*
X12408062Y-16286008D01*
X12408062Y-16286008D02*
X12398539Y-16295531D01*
X12398539Y-16295531D02*
X12379491Y-16324103D01*
X12379491Y-16324103D02*
X12369967Y-16362198D01*
X12369967Y-16362198D02*
X12369967Y-16438388D01*
X12369967Y-16438388D02*
X12379491Y-16457436D01*
X12379491Y-16457436D02*
X12389015Y-16466960D01*
X12389015Y-16466960D02*
X12408062Y-16476484D01*
X12408062Y-16476484D02*
X12446158Y-16476484D01*
X12446158Y-16476484D02*
X12465205Y-16466960D01*
X12465205Y-16466960D02*
X12474729Y-16457436D01*
X12474729Y-16457436D02*
X12484253Y-16438388D01*
X12484253Y-16438388D02*
X12484253Y-16390769D01*
X12484253Y-16390769D02*
X12474729Y-16371722D01*
X12474729Y-16371722D02*
X12465205Y-16362198D01*
X12465205Y-16362198D02*
X12446158Y-16352674D01*
X12446158Y-16352674D02*
X12408062Y-16352674D01*
X12408062Y-16352674D02*
X12389015Y-16362198D01*
X12389015Y-16362198D02*
X12379491Y-16371722D01*
X12379491Y-16371722D02*
X12369967Y-16390769D01*
X12608062Y-16276484D02*
X12627110Y-16276484D01*
X12627110Y-16276484D02*
X12646158Y-16286008D01*
X12646158Y-16286008D02*
X12655682Y-16295531D01*
X12655682Y-16295531D02*
X12665205Y-16314579D01*
X12665205Y-16314579D02*
X12674729Y-16352674D01*
X12674729Y-16352674D02*
X12674729Y-16400293D01*
X12674729Y-16400293D02*
X12665205Y-16438388D01*
X12665205Y-16438388D02*
X12655682Y-16457436D01*
X12655682Y-16457436D02*
X12646158Y-16466960D01*
X12646158Y-16466960D02*
X12627110Y-16476484D01*
X12627110Y-16476484D02*
X12608062Y-16476484D01*
X12608062Y-16476484D02*
X12589015Y-16466960D01*
X12589015Y-16466960D02*
X12579491Y-16457436D01*
X12579491Y-16457436D02*
X12569967Y-16438388D01*
X12569967Y-16438388D02*
X12560443Y-16400293D01*
X12560443Y-16400293D02*
X12560443Y-16352674D01*
X12560443Y-16352674D02*
X12569967Y-16314579D01*
X12569967Y-16314579D02*
X12579491Y-16295531D01*
X12579491Y-16295531D02*
X12589015Y-16286008D01*
X12589015Y-16286008D02*
X12608062Y-16276484D01*
X12798539Y-16276484D02*
X12817586Y-16276484D01*
X12817586Y-16276484D02*
X12836634Y-16286008D01*
X12836634Y-16286008D02*
X12846158Y-16295531D01*
X12846158Y-16295531D02*
X12855682Y-16314579D01*
X12855682Y-16314579D02*
X12865205Y-16352674D01*
X12865205Y-16352674D02*
X12865205Y-16400293D01*
X12865205Y-16400293D02*
X12855682Y-16438388D01*
X12855682Y-16438388D02*
X12846158Y-16457436D01*
X12846158Y-16457436D02*
X12836634Y-16466960D01*
X12836634Y-16466960D02*
X12817586Y-16476484D01*
X12817586Y-16476484D02*
X12798539Y-16476484D01*
X12798539Y-16476484D02*
X12779491Y-16466960D01*
X12779491Y-16466960D02*
X12769967Y-16457436D01*
X12769967Y-16457436D02*
X12760443Y-16438388D01*
X12760443Y-16438388D02*
X12750920Y-16400293D01*
X12750920Y-16400293D02*
X12750920Y-16352674D01*
X12750920Y-16352674D02*
X12760443Y-16314579D01*
X12760443Y-16314579D02*
X12769967Y-16295531D01*
X12769967Y-16295531D02*
X12779491Y-16286008D01*
X12779491Y-16286008D02*
X12798539Y-16276484D01*
X12950920Y-16476484D02*
X12950920Y-16343150D01*
X12950920Y-16362198D02*
X12960443Y-16352674D01*
X12960443Y-16352674D02*
X12979491Y-16343150D01*
X12979491Y-16343150D02*
X13008063Y-16343150D01*
X13008063Y-16343150D02*
X13027110Y-16352674D01*
X13027110Y-16352674D02*
X13036634Y-16371722D01*
X13036634Y-16371722D02*
X13036634Y-16476484D01*
X13036634Y-16371722D02*
X13046158Y-16352674D01*
X13046158Y-16352674D02*
X13065205Y-16343150D01*
X13065205Y-16343150D02*
X13093777Y-16343150D01*
X13093777Y-16343150D02*
X13112824Y-16352674D01*
X13112824Y-16352674D02*
X13122348Y-16371722D01*
X13122348Y-16371722D02*
X13122348Y-16476484D01*
X13217586Y-16476484D02*
X13217586Y-16343150D01*
X13217586Y-16362198D02*
X13227110Y-16352674D01*
X13227110Y-16352674D02*
X13246158Y-16343150D01*
X13246158Y-16343150D02*
X13274729Y-16343150D01*
X13274729Y-16343150D02*
X13293777Y-16352674D01*
X13293777Y-16352674D02*
X13303301Y-16371722D01*
X13303301Y-16371722D02*
X13303301Y-16476484D01*
X13303301Y-16371722D02*
X13312824Y-16352674D01*
X13312824Y-16352674D02*
X13331872Y-16343150D01*
X13331872Y-16343150D02*
X13360443Y-16343150D01*
X13360443Y-16343150D02*
X13379491Y-16352674D01*
X13379491Y-16352674D02*
X13389015Y-16371722D01*
X13389015Y-16371722D02*
X13389015Y-16476484D01*
X13779491Y-16266960D02*
X13608063Y-16524103D01*
X14036634Y-16276484D02*
X14055682Y-16276484D01*
X14055682Y-16276484D02*
X14074729Y-16286008D01*
X14074729Y-16286008D02*
X14084253Y-16295531D01*
X14084253Y-16295531D02*
X14093777Y-16314579D01*
X14093777Y-16314579D02*
X14103301Y-16352674D01*
X14103301Y-16352674D02*
X14103301Y-16400293D01*
X14103301Y-16400293D02*
X14093777Y-16438388D01*
X14093777Y-16438388D02*
X14084253Y-16457436D01*
X14084253Y-16457436D02*
X14074729Y-16466960D01*
X14074729Y-16466960D02*
X14055682Y-16476484D01*
X14055682Y-16476484D02*
X14036634Y-16476484D01*
X14036634Y-16476484D02*
X14017586Y-16466960D01*
X14017586Y-16466960D02*
X14008063Y-16457436D01*
X14008063Y-16457436D02*
X13998539Y-16438388D01*
X13998539Y-16438388D02*
X13989015Y-16400293D01*
X13989015Y-16400293D02*
X13989015Y-16352674D01*
X13989015Y-16352674D02*
X13998539Y-16314579D01*
X13998539Y-16314579D02*
X14008063Y-16295531D01*
X14008063Y-16295531D02*
X14017586Y-16286008D01*
X14017586Y-16286008D02*
X14036634Y-16276484D01*
X14189015Y-16457436D02*
X14198539Y-16466960D01*
X14198539Y-16466960D02*
X14189015Y-16476484D01*
X14189015Y-16476484D02*
X14179491Y-16466960D01*
X14179491Y-16466960D02*
X14189015Y-16457436D01*
X14189015Y-16457436D02*
X14189015Y-16476484D01*
X14322348Y-16276484D02*
X14341396Y-16276484D01*
X14341396Y-16276484D02*
X14360444Y-16286008D01*
X14360444Y-16286008D02*
X14369967Y-16295531D01*
X14369967Y-16295531D02*
X14379491Y-16314579D01*
X14379491Y-16314579D02*
X14389015Y-16352674D01*
X14389015Y-16352674D02*
X14389015Y-16400293D01*
X14389015Y-16400293D02*
X14379491Y-16438388D01*
X14379491Y-16438388D02*
X14369967Y-16457436D01*
X14369967Y-16457436D02*
X14360444Y-16466960D01*
X14360444Y-16466960D02*
X14341396Y-16476484D01*
X14341396Y-16476484D02*
X14322348Y-16476484D01*
X14322348Y-16476484D02*
X14303301Y-16466960D01*
X14303301Y-16466960D02*
X14293777Y-16457436D01*
X14293777Y-16457436D02*
X14284253Y-16438388D01*
X14284253Y-16438388D02*
X14274729Y-16400293D01*
X14274729Y-16400293D02*
X14274729Y-16352674D01*
X14274729Y-16352674D02*
X14284253Y-16314579D01*
X14284253Y-16314579D02*
X14293777Y-16295531D01*
X14293777Y-16295531D02*
X14303301Y-16286008D01*
X14303301Y-16286008D02*
X14322348Y-16276484D01*
X14465206Y-16295531D02*
X14474729Y-16286008D01*
X14474729Y-16286008D02*
X14493777Y-16276484D01*
X14493777Y-16276484D02*
X14541396Y-16276484D01*
X14541396Y-16276484D02*
X14560444Y-16286008D01*
X14560444Y-16286008D02*
X14569967Y-16295531D01*
X14569967Y-16295531D02*
X14579491Y-16314579D01*
X14579491Y-16314579D02*
X14579491Y-16333627D01*
X14579491Y-16333627D02*
X14569967Y-16362198D01*
X14569967Y-16362198D02*
X14455682Y-16476484D01*
X14455682Y-16476484D02*
X14579491Y-16476484D01*
X14646158Y-16276484D02*
X14769967Y-16276484D01*
X14769967Y-16276484D02*
X14703301Y-16352674D01*
X14703301Y-16352674D02*
X14731872Y-16352674D01*
X14731872Y-16352674D02*
X14750920Y-16362198D01*
X14750920Y-16362198D02*
X14760444Y-16371722D01*
X14760444Y-16371722D02*
X14769967Y-16390769D01*
X14769967Y-16390769D02*
X14769967Y-16438388D01*
X14769967Y-16438388D02*
X14760444Y-16457436D01*
X14760444Y-16457436D02*
X14750920Y-16466960D01*
X14750920Y-16466960D02*
X14731872Y-16476484D01*
X14731872Y-16476484D02*
X14674729Y-16476484D01*
X14674729Y-16476484D02*
X14655682Y-16466960D01*
X14655682Y-16466960D02*
X14646158Y-16457436D01*
X14941396Y-16276484D02*
X14903301Y-16276484D01*
X14903301Y-16276484D02*
X14884253Y-16286008D01*
X14884253Y-16286008D02*
X14874729Y-16295531D01*
X14874729Y-16295531D02*
X14855682Y-16324103D01*
X14855682Y-16324103D02*
X14846158Y-16362198D01*
X14846158Y-16362198D02*
X14846158Y-16438388D01*
X14846158Y-16438388D02*
X14855682Y-16457436D01*
X14855682Y-16457436D02*
X14865206Y-16466960D01*
X14865206Y-16466960D02*
X14884253Y-16476484D01*
X14884253Y-16476484D02*
X14922348Y-16476484D01*
X14922348Y-16476484D02*
X14941396Y-16466960D01*
X14941396Y-16466960D02*
X14950920Y-16457436D01*
X14950920Y-16457436D02*
X14960444Y-16438388D01*
X14960444Y-16438388D02*
X14960444Y-16390769D01*
X14960444Y-16390769D02*
X14950920Y-16371722D01*
X14950920Y-16371722D02*
X14941396Y-16362198D01*
X14941396Y-16362198D02*
X14922348Y-16352674D01*
X14922348Y-16352674D02*
X14884253Y-16352674D01*
X14884253Y-16352674D02*
X14865206Y-16362198D01*
X14865206Y-16362198D02*
X14855682Y-16371722D01*
X14855682Y-16371722D02*
X14846158Y-16390769D01*
X15036634Y-16276484D02*
X15036634Y-16314579D01*
X15112825Y-16276484D02*
X15112825Y-16314579D01*
X15408063Y-16552674D02*
X15398539Y-16543150D01*
X15398539Y-16543150D02*
X15379491Y-16514579D01*
X15379491Y-16514579D02*
X15369968Y-16495531D01*
X15369968Y-16495531D02*
X15360444Y-16466960D01*
X15360444Y-16466960D02*
X15350920Y-16419341D01*
X15350920Y-16419341D02*
X15350920Y-16381246D01*
X15350920Y-16381246D02*
X15360444Y-16333627D01*
X15360444Y-16333627D02*
X15369968Y-16305055D01*
X15369968Y-16305055D02*
X15379491Y-16286008D01*
X15379491Y-16286008D02*
X15398539Y-16257436D01*
X15398539Y-16257436D02*
X15408063Y-16247912D01*
X15522348Y-16276484D02*
X15541396Y-16276484D01*
X15541396Y-16276484D02*
X15560444Y-16286008D01*
X15560444Y-16286008D02*
X15569968Y-16295531D01*
X15569968Y-16295531D02*
X15579491Y-16314579D01*
X15579491Y-16314579D02*
X15589015Y-16352674D01*
X15589015Y-16352674D02*
X15589015Y-16400293D01*
X15589015Y-16400293D02*
X15579491Y-16438388D01*
X15579491Y-16438388D02*
X15569968Y-16457436D01*
X15569968Y-16457436D02*
X15560444Y-16466960D01*
X15560444Y-16466960D02*
X15541396Y-16476484D01*
X15541396Y-16476484D02*
X15522348Y-16476484D01*
X15522348Y-16476484D02*
X15503301Y-16466960D01*
X15503301Y-16466960D02*
X15493777Y-16457436D01*
X15493777Y-16457436D02*
X15484253Y-16438388D01*
X15484253Y-16438388D02*
X15474729Y-16400293D01*
X15474729Y-16400293D02*
X15474729Y-16352674D01*
X15474729Y-16352674D02*
X15484253Y-16314579D01*
X15484253Y-16314579D02*
X15493777Y-16295531D01*
X15493777Y-16295531D02*
X15503301Y-16286008D01*
X15503301Y-16286008D02*
X15522348Y-16276484D01*
X15827110Y-16476484D02*
X15827110Y-16276484D01*
X15912825Y-16476484D02*
X15912825Y-16371722D01*
X15912825Y-16371722D02*
X15903301Y-16352674D01*
X15903301Y-16352674D02*
X15884253Y-16343150D01*
X15884253Y-16343150D02*
X15855682Y-16343150D01*
X15855682Y-16343150D02*
X15836634Y-16352674D01*
X15836634Y-16352674D02*
X15827110Y-16362198D01*
X16036634Y-16476484D02*
X16017587Y-16466960D01*
X16017587Y-16466960D02*
X16008063Y-16457436D01*
X16008063Y-16457436D02*
X15998539Y-16438388D01*
X15998539Y-16438388D02*
X15998539Y-16381246D01*
X15998539Y-16381246D02*
X16008063Y-16362198D01*
X16008063Y-16362198D02*
X16017587Y-16352674D01*
X16017587Y-16352674D02*
X16036634Y-16343150D01*
X16036634Y-16343150D02*
X16065206Y-16343150D01*
X16065206Y-16343150D02*
X16084253Y-16352674D01*
X16084253Y-16352674D02*
X16093777Y-16362198D01*
X16093777Y-16362198D02*
X16103301Y-16381246D01*
X16103301Y-16381246D02*
X16103301Y-16438388D01*
X16103301Y-16438388D02*
X16093777Y-16457436D01*
X16093777Y-16457436D02*
X16084253Y-16466960D01*
X16084253Y-16466960D02*
X16065206Y-16476484D01*
X16065206Y-16476484D02*
X16036634Y-16476484D01*
X16217587Y-16476484D02*
X16198539Y-16466960D01*
X16198539Y-16466960D02*
X16189015Y-16447912D01*
X16189015Y-16447912D02*
X16189015Y-16276484D01*
X16369968Y-16466960D02*
X16350920Y-16476484D01*
X16350920Y-16476484D02*
X16312825Y-16476484D01*
X16312825Y-16476484D02*
X16293777Y-16466960D01*
X16293777Y-16466960D02*
X16284253Y-16447912D01*
X16284253Y-16447912D02*
X16284253Y-16371722D01*
X16284253Y-16371722D02*
X16293777Y-16352674D01*
X16293777Y-16352674D02*
X16312825Y-16343150D01*
X16312825Y-16343150D02*
X16350920Y-16343150D01*
X16350920Y-16343150D02*
X16369968Y-16352674D01*
X16369968Y-16352674D02*
X16379491Y-16371722D01*
X16379491Y-16371722D02*
X16379491Y-16390769D01*
X16379491Y-16390769D02*
X16284253Y-16409817D01*
X16455682Y-16466960D02*
X16474730Y-16476484D01*
X16474730Y-16476484D02*
X16512825Y-16476484D01*
X16512825Y-16476484D02*
X16531872Y-16466960D01*
X16531872Y-16466960D02*
X16541396Y-16447912D01*
X16541396Y-16447912D02*
X16541396Y-16438388D01*
X16541396Y-16438388D02*
X16531872Y-16419341D01*
X16531872Y-16419341D02*
X16512825Y-16409817D01*
X16512825Y-16409817D02*
X16484253Y-16409817D01*
X16484253Y-16409817D02*
X16465206Y-16400293D01*
X16465206Y-16400293D02*
X16455682Y-16381246D01*
X16455682Y-16381246D02*
X16455682Y-16371722D01*
X16455682Y-16371722D02*
X16465206Y-16352674D01*
X16465206Y-16352674D02*
X16484253Y-16343150D01*
X16484253Y-16343150D02*
X16512825Y-16343150D01*
X16512825Y-16343150D02*
X16531872Y-16352674D01*
X16779492Y-16400293D02*
X16931873Y-16400293D01*
X16855682Y-16476484D02*
X16855682Y-16324103D01*
X17265206Y-16343150D02*
X17265206Y-16476484D01*
X17217587Y-16266960D02*
X17169968Y-16409817D01*
X17169968Y-16409817D02*
X17293777Y-16409817D01*
X17512825Y-16466960D02*
X17531873Y-16476484D01*
X17531873Y-16476484D02*
X17569968Y-16476484D01*
X17569968Y-16476484D02*
X17589016Y-16466960D01*
X17589016Y-16466960D02*
X17598539Y-16447912D01*
X17598539Y-16447912D02*
X17598539Y-16438388D01*
X17598539Y-16438388D02*
X17589016Y-16419341D01*
X17589016Y-16419341D02*
X17569968Y-16409817D01*
X17569968Y-16409817D02*
X17541396Y-16409817D01*
X17541396Y-16409817D02*
X17522349Y-16400293D01*
X17522349Y-16400293D02*
X17512825Y-16381246D01*
X17512825Y-16381246D02*
X17512825Y-16371722D01*
X17512825Y-16371722D02*
X17522349Y-16352674D01*
X17522349Y-16352674D02*
X17541396Y-16343150D01*
X17541396Y-16343150D02*
X17569968Y-16343150D01*
X17569968Y-16343150D02*
X17589016Y-16352674D01*
X17712825Y-16476484D02*
X17693777Y-16466960D01*
X17693777Y-16466960D02*
X17684254Y-16447912D01*
X17684254Y-16447912D02*
X17684254Y-16276484D01*
X17817587Y-16476484D02*
X17798539Y-16466960D01*
X17798539Y-16466960D02*
X17789016Y-16457436D01*
X17789016Y-16457436D02*
X17779492Y-16438388D01*
X17779492Y-16438388D02*
X17779492Y-16381246D01*
X17779492Y-16381246D02*
X17789016Y-16362198D01*
X17789016Y-16362198D02*
X17798539Y-16352674D01*
X17798539Y-16352674D02*
X17817587Y-16343150D01*
X17817587Y-16343150D02*
X17846158Y-16343150D01*
X17846158Y-16343150D02*
X17865206Y-16352674D01*
X17865206Y-16352674D02*
X17874730Y-16362198D01*
X17874730Y-16362198D02*
X17884254Y-16381246D01*
X17884254Y-16381246D02*
X17884254Y-16438388D01*
X17884254Y-16438388D02*
X17874730Y-16457436D01*
X17874730Y-16457436D02*
X17865206Y-16466960D01*
X17865206Y-16466960D02*
X17846158Y-16476484D01*
X17846158Y-16476484D02*
X17817587Y-16476484D01*
X17941397Y-16343150D02*
X18017587Y-16343150D01*
X17969968Y-16276484D02*
X17969968Y-16447912D01*
X17969968Y-16447912D02*
X17979492Y-16466960D01*
X17979492Y-16466960D02*
X17998539Y-16476484D01*
X17998539Y-16476484D02*
X18017587Y-16476484D01*
X18074730Y-16466960D02*
X18093777Y-16476484D01*
X18093777Y-16476484D02*
X18131873Y-16476484D01*
X18131873Y-16476484D02*
X18150920Y-16466960D01*
X18150920Y-16466960D02*
X18160444Y-16447912D01*
X18160444Y-16447912D02*
X18160444Y-16438388D01*
X18160444Y-16438388D02*
X18150920Y-16419341D01*
X18150920Y-16419341D02*
X18131873Y-16409817D01*
X18131873Y-16409817D02*
X18103301Y-16409817D01*
X18103301Y-16409817D02*
X18084254Y-16400293D01*
X18084254Y-16400293D02*
X18074730Y-16381246D01*
X18074730Y-16381246D02*
X18074730Y-16371722D01*
X18074730Y-16371722D02*
X18084254Y-16352674D01*
X18084254Y-16352674D02*
X18103301Y-16343150D01*
X18103301Y-16343150D02*
X18131873Y-16343150D01*
X18131873Y-16343150D02*
X18150920Y-16352674D01*
X18227111Y-16552674D02*
X18236635Y-16543150D01*
X18236635Y-16543150D02*
X18255682Y-16514579D01*
X18255682Y-16514579D02*
X18265206Y-16495531D01*
X18265206Y-16495531D02*
X18274730Y-16466960D01*
X18274730Y-16466960D02*
X18284254Y-16419341D01*
X18284254Y-16419341D02*
X18284254Y-16381246D01*
X18284254Y-16381246D02*
X18274730Y-16333627D01*
X18274730Y-16333627D02*
X18265206Y-16305055D01*
X18265206Y-16305055D02*
X18255682Y-16286008D01*
X18255682Y-16286008D02*
X18236635Y-16257436D01*
X18236635Y-16257436D02*
X18227111Y-16247912D01*
D10*
X11818356Y-16684356D02*
X11818356Y-16613644D01*
X11747644Y-16613644D01*
X11747644Y-16684356D01*
X11818356Y-16684356D01*
D11*
X12198539Y-16740484D02*
X12084253Y-16740484D01*
X12141396Y-16740484D02*
X12141396Y-16540484D01*
X12141396Y-16540484D02*
X12122348Y-16569055D01*
X12122348Y-16569055D02*
X12103301Y-16588103D01*
X12103301Y-16588103D02*
X12084253Y-16597627D01*
X12284253Y-16721436D02*
X12293777Y-16730960D01*
X12293777Y-16730960D02*
X12284253Y-16740484D01*
X12284253Y-16740484D02*
X12274729Y-16730960D01*
X12274729Y-16730960D02*
X12284253Y-16721436D01*
X12284253Y-16721436D02*
X12284253Y-16740484D01*
X12417586Y-16540484D02*
X12436634Y-16540484D01*
X12436634Y-16540484D02*
X12455682Y-16550008D01*
X12455682Y-16550008D02*
X12465205Y-16559531D01*
X12465205Y-16559531D02*
X12474729Y-16578579D01*
X12474729Y-16578579D02*
X12484253Y-16616674D01*
X12484253Y-16616674D02*
X12484253Y-16664293D01*
X12484253Y-16664293D02*
X12474729Y-16702388D01*
X12474729Y-16702388D02*
X12465205Y-16721436D01*
X12465205Y-16721436D02*
X12455682Y-16730960D01*
X12455682Y-16730960D02*
X12436634Y-16740484D01*
X12436634Y-16740484D02*
X12417586Y-16740484D01*
X12417586Y-16740484D02*
X12398539Y-16730960D01*
X12398539Y-16730960D02*
X12389015Y-16721436D01*
X12389015Y-16721436D02*
X12379491Y-16702388D01*
X12379491Y-16702388D02*
X12369967Y-16664293D01*
X12369967Y-16664293D02*
X12369967Y-16616674D01*
X12369967Y-16616674D02*
X12379491Y-16578579D01*
X12379491Y-16578579D02*
X12389015Y-16559531D01*
X12389015Y-16559531D02*
X12398539Y-16550008D01*
X12398539Y-16550008D02*
X12417586Y-16540484D01*
X12608062Y-16540484D02*
X12627110Y-16540484D01*
X12627110Y-16540484D02*
X12646158Y-16550008D01*
X12646158Y-16550008D02*
X12655682Y-16559531D01*
X12655682Y-16559531D02*
X12665205Y-16578579D01*
X12665205Y-16578579D02*
X12674729Y-16616674D01*
X12674729Y-16616674D02*
X12674729Y-16664293D01*
X12674729Y-16664293D02*
X12665205Y-16702388D01*
X12665205Y-16702388D02*
X12655682Y-16721436D01*
X12655682Y-16721436D02*
X12646158Y-16730960D01*
X12646158Y-16730960D02*
X12627110Y-16740484D01*
X12627110Y-16740484D02*
X12608062Y-16740484D01*
X12608062Y-16740484D02*
X12589015Y-16730960D01*
X12589015Y-16730960D02*
X12579491Y-16721436D01*
X12579491Y-16721436D02*
X12569967Y-16702388D01*
X12569967Y-16702388D02*
X12560443Y-16664293D01*
X12560443Y-16664293D02*
X12560443Y-16616674D01*
X12560443Y-16616674D02*
X12569967Y-16578579D01*
X12569967Y-16578579D02*
X12579491Y-16559531D01*
X12579491Y-16559531D02*
X12589015Y-16550008D01*
X12589015Y-16550008D02*
X12608062Y-16540484D01*
X12798539Y-16540484D02*
X12817586Y-16540484D01*
X12817586Y-16540484D02*
X12836634Y-16550008D01*
X12836634Y-16550008D02*
X12846158Y-16559531D01*
X12846158Y-16559531D02*
X12855682Y-16578579D01*
X12855682Y-16578579D02*
X12865205Y-16616674D01*
X12865205Y-16616674D02*
X12865205Y-16664293D01*
X12865205Y-16664293D02*
X12855682Y-16702388D01*
X12855682Y-16702388D02*
X12846158Y-16721436D01*
X12846158Y-16721436D02*
X12836634Y-16730960D01*
X12836634Y-16730960D02*
X12817586Y-16740484D01*
X12817586Y-16740484D02*
X12798539Y-16740484D01*
X12798539Y-16740484D02*
X12779491Y-16730960D01*
X12779491Y-16730960D02*
X12769967Y-16721436D01*
X12769967Y-16721436D02*
X12760443Y-16702388D01*
X12760443Y-16702388D02*
X12750920Y-16664293D01*
X12750920Y-16664293D02*
X12750920Y-16616674D01*
X12750920Y-16616674D02*
X12760443Y-16578579D01*
X12760443Y-16578579D02*
X12769967Y-16559531D01*
X12769967Y-16559531D02*
X12779491Y-16550008D01*
X12779491Y-16550008D02*
X12798539Y-16540484D01*
X12950920Y-16740484D02*
X12950920Y-16607150D01*
X12950920Y-16626198D02*
X12960443Y-16616674D01*
X12960443Y-16616674D02*
X12979491Y-16607150D01*
X12979491Y-16607150D02*
X13008063Y-16607150D01*
X13008063Y-16607150D02*
X13027110Y-16616674D01*
X13027110Y-16616674D02*
X13036634Y-16635722D01*
X13036634Y-16635722D02*
X13036634Y-16740484D01*
X13036634Y-16635722D02*
X13046158Y-16616674D01*
X13046158Y-16616674D02*
X13065205Y-16607150D01*
X13065205Y-16607150D02*
X13093777Y-16607150D01*
X13093777Y-16607150D02*
X13112824Y-16616674D01*
X13112824Y-16616674D02*
X13122348Y-16635722D01*
X13122348Y-16635722D02*
X13122348Y-16740484D01*
X13217586Y-16740484D02*
X13217586Y-16607150D01*
X13217586Y-16626198D02*
X13227110Y-16616674D01*
X13227110Y-16616674D02*
X13246158Y-16607150D01*
X13246158Y-16607150D02*
X13274729Y-16607150D01*
X13274729Y-16607150D02*
X13293777Y-16616674D01*
X13293777Y-16616674D02*
X13303301Y-16635722D01*
X13303301Y-16635722D02*
X13303301Y-16740484D01*
X13303301Y-16635722D02*
X13312824Y-16616674D01*
X13312824Y-16616674D02*
X13331872Y-16607150D01*
X13331872Y-16607150D02*
X13360443Y-16607150D01*
X13360443Y-16607150D02*
X13379491Y-16616674D01*
X13379491Y-16616674D02*
X13389015Y-16635722D01*
X13389015Y-16635722D02*
X13389015Y-16740484D01*
X13779491Y-16530960D02*
X13608063Y-16788103D01*
X14036634Y-16540484D02*
X14055682Y-16540484D01*
X14055682Y-16540484D02*
X14074729Y-16550008D01*
X14074729Y-16550008D02*
X14084253Y-16559531D01*
X14084253Y-16559531D02*
X14093777Y-16578579D01*
X14093777Y-16578579D02*
X14103301Y-16616674D01*
X14103301Y-16616674D02*
X14103301Y-16664293D01*
X14103301Y-16664293D02*
X14093777Y-16702388D01*
X14093777Y-16702388D02*
X14084253Y-16721436D01*
X14084253Y-16721436D02*
X14074729Y-16730960D01*
X14074729Y-16730960D02*
X14055682Y-16740484D01*
X14055682Y-16740484D02*
X14036634Y-16740484D01*
X14036634Y-16740484D02*
X14017586Y-16730960D01*
X14017586Y-16730960D02*
X14008063Y-16721436D01*
X14008063Y-16721436D02*
X13998539Y-16702388D01*
X13998539Y-16702388D02*
X13989015Y-16664293D01*
X13989015Y-16664293D02*
X13989015Y-16616674D01*
X13989015Y-16616674D02*
X13998539Y-16578579D01*
X13998539Y-16578579D02*
X14008063Y-16559531D01*
X14008063Y-16559531D02*
X14017586Y-16550008D01*
X14017586Y-16550008D02*
X14036634Y-16540484D01*
X14189015Y-16721436D02*
X14198539Y-16730960D01*
X14198539Y-16730960D02*
X14189015Y-16740484D01*
X14189015Y-16740484D02*
X14179491Y-16730960D01*
X14179491Y-16730960D02*
X14189015Y-16721436D01*
X14189015Y-16721436D02*
X14189015Y-16740484D01*
X14322348Y-16540484D02*
X14341396Y-16540484D01*
X14341396Y-16540484D02*
X14360444Y-16550008D01*
X14360444Y-16550008D02*
X14369967Y-16559531D01*
X14369967Y-16559531D02*
X14379491Y-16578579D01*
X14379491Y-16578579D02*
X14389015Y-16616674D01*
X14389015Y-16616674D02*
X14389015Y-16664293D01*
X14389015Y-16664293D02*
X14379491Y-16702388D01*
X14379491Y-16702388D02*
X14369967Y-16721436D01*
X14369967Y-16721436D02*
X14360444Y-16730960D01*
X14360444Y-16730960D02*
X14341396Y-16740484D01*
X14341396Y-16740484D02*
X14322348Y-16740484D01*
X14322348Y-16740484D02*
X14303301Y-16730960D01*
X14303301Y-16730960D02*
X14293777Y-16721436D01*
X14293777Y-16721436D02*
X14284253Y-16702388D01*
X14284253Y-16702388D02*
X14274729Y-16664293D01*
X14274729Y-16664293D02*
X14274729Y-16616674D01*
X14274729Y-16616674D02*
X14284253Y-16578579D01*
X14284253Y-16578579D02*
X14293777Y-16559531D01*
X14293777Y-16559531D02*
X14303301Y-16550008D01*
X14303301Y-16550008D02*
X14322348Y-16540484D01*
X14455682Y-16540484D02*
X14579491Y-16540484D01*
X14579491Y-16540484D02*
X14512825Y-16616674D01*
X14512825Y-16616674D02*
X14541396Y-16616674D01*
X14541396Y-16616674D02*
X14560444Y-16626198D01*
X14560444Y-16626198D02*
X14569967Y-16635722D01*
X14569967Y-16635722D02*
X14579491Y-16654769D01*
X14579491Y-16654769D02*
X14579491Y-16702388D01*
X14579491Y-16702388D02*
X14569967Y-16721436D01*
X14569967Y-16721436D02*
X14560444Y-16730960D01*
X14560444Y-16730960D02*
X14541396Y-16740484D01*
X14541396Y-16740484D02*
X14484253Y-16740484D01*
X14484253Y-16740484D02*
X14465206Y-16730960D01*
X14465206Y-16730960D02*
X14455682Y-16721436D01*
X14674729Y-16740484D02*
X14712825Y-16740484D01*
X14712825Y-16740484D02*
X14731872Y-16730960D01*
X14731872Y-16730960D02*
X14741396Y-16721436D01*
X14741396Y-16721436D02*
X14760444Y-16692865D01*
X14760444Y-16692865D02*
X14769967Y-16654769D01*
X14769967Y-16654769D02*
X14769967Y-16578579D01*
X14769967Y-16578579D02*
X14760444Y-16559531D01*
X14760444Y-16559531D02*
X14750920Y-16550008D01*
X14750920Y-16550008D02*
X14731872Y-16540484D01*
X14731872Y-16540484D02*
X14693777Y-16540484D01*
X14693777Y-16540484D02*
X14674729Y-16550008D01*
X14674729Y-16550008D02*
X14665206Y-16559531D01*
X14665206Y-16559531D02*
X14655682Y-16578579D01*
X14655682Y-16578579D02*
X14655682Y-16626198D01*
X14655682Y-16626198D02*
X14665206Y-16645246D01*
X14665206Y-16645246D02*
X14674729Y-16654769D01*
X14674729Y-16654769D02*
X14693777Y-16664293D01*
X14693777Y-16664293D02*
X14731872Y-16664293D01*
X14731872Y-16664293D02*
X14750920Y-16654769D01*
X14750920Y-16654769D02*
X14760444Y-16645246D01*
X14760444Y-16645246D02*
X14769967Y-16626198D01*
X14941396Y-16607150D02*
X14941396Y-16740484D01*
X14893777Y-16530960D02*
X14846158Y-16673817D01*
X14846158Y-16673817D02*
X14969967Y-16673817D01*
X15036634Y-16540484D02*
X15036634Y-16578579D01*
X15112825Y-16540484D02*
X15112825Y-16578579D01*
X15408063Y-16816674D02*
X15398539Y-16807150D01*
X15398539Y-16807150D02*
X15379491Y-16778579D01*
X15379491Y-16778579D02*
X15369968Y-16759531D01*
X15369968Y-16759531D02*
X15360444Y-16730960D01*
X15360444Y-16730960D02*
X15350920Y-16683341D01*
X15350920Y-16683341D02*
X15350920Y-16645246D01*
X15350920Y-16645246D02*
X15360444Y-16597627D01*
X15360444Y-16597627D02*
X15369968Y-16569055D01*
X15369968Y-16569055D02*
X15379491Y-16550008D01*
X15379491Y-16550008D02*
X15398539Y-16521436D01*
X15398539Y-16521436D02*
X15408063Y-16511912D01*
X15589015Y-16740484D02*
X15474729Y-16740484D01*
X15531872Y-16740484D02*
X15531872Y-16540484D01*
X15531872Y-16540484D02*
X15512825Y-16569055D01*
X15512825Y-16569055D02*
X15493777Y-16588103D01*
X15493777Y-16588103D02*
X15474729Y-16597627D01*
X15827110Y-16740484D02*
X15827110Y-16540484D01*
X15912825Y-16740484D02*
X15912825Y-16635722D01*
X15912825Y-16635722D02*
X15903301Y-16616674D01*
X15903301Y-16616674D02*
X15884253Y-16607150D01*
X15884253Y-16607150D02*
X15855682Y-16607150D01*
X15855682Y-16607150D02*
X15836634Y-16616674D01*
X15836634Y-16616674D02*
X15827110Y-16626198D01*
X16036634Y-16740484D02*
X16017587Y-16730960D01*
X16017587Y-16730960D02*
X16008063Y-16721436D01*
X16008063Y-16721436D02*
X15998539Y-16702388D01*
X15998539Y-16702388D02*
X15998539Y-16645246D01*
X15998539Y-16645246D02*
X16008063Y-16626198D01*
X16008063Y-16626198D02*
X16017587Y-16616674D01*
X16017587Y-16616674D02*
X16036634Y-16607150D01*
X16036634Y-16607150D02*
X16065206Y-16607150D01*
X16065206Y-16607150D02*
X16084253Y-16616674D01*
X16084253Y-16616674D02*
X16093777Y-16626198D01*
X16093777Y-16626198D02*
X16103301Y-16645246D01*
X16103301Y-16645246D02*
X16103301Y-16702388D01*
X16103301Y-16702388D02*
X16093777Y-16721436D01*
X16093777Y-16721436D02*
X16084253Y-16730960D01*
X16084253Y-16730960D02*
X16065206Y-16740484D01*
X16065206Y-16740484D02*
X16036634Y-16740484D01*
X16217587Y-16740484D02*
X16198539Y-16730960D01*
X16198539Y-16730960D02*
X16189015Y-16711912D01*
X16189015Y-16711912D02*
X16189015Y-16540484D01*
X16369968Y-16730960D02*
X16350920Y-16740484D01*
X16350920Y-16740484D02*
X16312825Y-16740484D01*
X16312825Y-16740484D02*
X16293777Y-16730960D01*
X16293777Y-16730960D02*
X16284253Y-16711912D01*
X16284253Y-16711912D02*
X16284253Y-16635722D01*
X16284253Y-16635722D02*
X16293777Y-16616674D01*
X16293777Y-16616674D02*
X16312825Y-16607150D01*
X16312825Y-16607150D02*
X16350920Y-16607150D01*
X16350920Y-16607150D02*
X16369968Y-16616674D01*
X16369968Y-16616674D02*
X16379491Y-16635722D01*
X16379491Y-16635722D02*
X16379491Y-16654769D01*
X16379491Y-16654769D02*
X16284253Y-16673817D01*
X16446158Y-16816674D02*
X16455682Y-16807150D01*
X16455682Y-16807150D02*
X16474730Y-16778579D01*
X16474730Y-16778579D02*
X16484253Y-16759531D01*
X16484253Y-16759531D02*
X16493777Y-16730960D01*
X16493777Y-16730960D02*
X16503301Y-16683341D01*
X16503301Y-16683341D02*
X16503301Y-16645246D01*
X16503301Y-16645246D02*
X16493777Y-16597627D01*
X16493777Y-16597627D02*
X16484253Y-16569055D01*
X16484253Y-16569055D02*
X16474730Y-16550008D01*
X16474730Y-16550008D02*
X16455682Y-16521436D01*
X16455682Y-16521436D02*
X16446158Y-16511912D01*
D15*
X11782000Y-16964000D02*
X11833000Y-16913000D01*
X11782000Y-16862000D01*
X11731000Y-16913000D01*
X11782000Y-16964000D01*
D11*
X12198539Y-17004484D02*
X12084253Y-17004484D01*
X12141396Y-17004484D02*
X12141396Y-16804484D01*
X12141396Y-16804484D02*
X12122348Y-16833055D01*
X12122348Y-16833055D02*
X12103301Y-16852103D01*
X12103301Y-16852103D02*
X12084253Y-16861627D01*
X12284253Y-16985436D02*
X12293777Y-16994960D01*
X12293777Y-16994960D02*
X12284253Y-17004484D01*
X12284253Y-17004484D02*
X12274729Y-16994960D01*
X12274729Y-16994960D02*
X12284253Y-16985436D01*
X12284253Y-16985436D02*
X12284253Y-17004484D01*
X12417586Y-16804484D02*
X12436634Y-16804484D01*
X12436634Y-16804484D02*
X12455682Y-16814008D01*
X12455682Y-16814008D02*
X12465205Y-16823531D01*
X12465205Y-16823531D02*
X12474729Y-16842579D01*
X12474729Y-16842579D02*
X12484253Y-16880674D01*
X12484253Y-16880674D02*
X12484253Y-16928293D01*
X12484253Y-16928293D02*
X12474729Y-16966389D01*
X12474729Y-16966389D02*
X12465205Y-16985436D01*
X12465205Y-16985436D02*
X12455682Y-16994960D01*
X12455682Y-16994960D02*
X12436634Y-17004484D01*
X12436634Y-17004484D02*
X12417586Y-17004484D01*
X12417586Y-17004484D02*
X12398539Y-16994960D01*
X12398539Y-16994960D02*
X12389015Y-16985436D01*
X12389015Y-16985436D02*
X12379491Y-16966389D01*
X12379491Y-16966389D02*
X12369967Y-16928293D01*
X12369967Y-16928293D02*
X12369967Y-16880674D01*
X12369967Y-16880674D02*
X12379491Y-16842579D01*
X12379491Y-16842579D02*
X12389015Y-16823531D01*
X12389015Y-16823531D02*
X12398539Y-16814008D01*
X12398539Y-16814008D02*
X12417586Y-16804484D01*
X12560443Y-16823531D02*
X12569967Y-16814008D01*
X12569967Y-16814008D02*
X12589015Y-16804484D01*
X12589015Y-16804484D02*
X12636634Y-16804484D01*
X12636634Y-16804484D02*
X12655682Y-16814008D01*
X12655682Y-16814008D02*
X12665205Y-16823531D01*
X12665205Y-16823531D02*
X12674729Y-16842579D01*
X12674729Y-16842579D02*
X12674729Y-16861627D01*
X12674729Y-16861627D02*
X12665205Y-16890198D01*
X12665205Y-16890198D02*
X12550920Y-17004484D01*
X12550920Y-17004484D02*
X12674729Y-17004484D01*
X12798539Y-16804484D02*
X12817586Y-16804484D01*
X12817586Y-16804484D02*
X12836634Y-16814008D01*
X12836634Y-16814008D02*
X12846158Y-16823531D01*
X12846158Y-16823531D02*
X12855682Y-16842579D01*
X12855682Y-16842579D02*
X12865205Y-16880674D01*
X12865205Y-16880674D02*
X12865205Y-16928293D01*
X12865205Y-16928293D02*
X12855682Y-16966389D01*
X12855682Y-16966389D02*
X12846158Y-16985436D01*
X12846158Y-16985436D02*
X12836634Y-16994960D01*
X12836634Y-16994960D02*
X12817586Y-17004484D01*
X12817586Y-17004484D02*
X12798539Y-17004484D01*
X12798539Y-17004484D02*
X12779491Y-16994960D01*
X12779491Y-16994960D02*
X12769967Y-16985436D01*
X12769967Y-16985436D02*
X12760443Y-16966389D01*
X12760443Y-16966389D02*
X12750920Y-16928293D01*
X12750920Y-16928293D02*
X12750920Y-16880674D01*
X12750920Y-16880674D02*
X12760443Y-16842579D01*
X12760443Y-16842579D02*
X12769967Y-16823531D01*
X12769967Y-16823531D02*
X12779491Y-16814008D01*
X12779491Y-16814008D02*
X12798539Y-16804484D01*
X12950920Y-17004484D02*
X12950920Y-16871150D01*
X12950920Y-16890198D02*
X12960443Y-16880674D01*
X12960443Y-16880674D02*
X12979491Y-16871150D01*
X12979491Y-16871150D02*
X13008063Y-16871150D01*
X13008063Y-16871150D02*
X13027110Y-16880674D01*
X13027110Y-16880674D02*
X13036634Y-16899722D01*
X13036634Y-16899722D02*
X13036634Y-17004484D01*
X13036634Y-16899722D02*
X13046158Y-16880674D01*
X13046158Y-16880674D02*
X13065205Y-16871150D01*
X13065205Y-16871150D02*
X13093777Y-16871150D01*
X13093777Y-16871150D02*
X13112824Y-16880674D01*
X13112824Y-16880674D02*
X13122348Y-16899722D01*
X13122348Y-16899722D02*
X13122348Y-17004484D01*
X13217586Y-17004484D02*
X13217586Y-16871150D01*
X13217586Y-16890198D02*
X13227110Y-16880674D01*
X13227110Y-16880674D02*
X13246158Y-16871150D01*
X13246158Y-16871150D02*
X13274729Y-16871150D01*
X13274729Y-16871150D02*
X13293777Y-16880674D01*
X13293777Y-16880674D02*
X13303301Y-16899722D01*
X13303301Y-16899722D02*
X13303301Y-17004484D01*
X13303301Y-16899722D02*
X13312824Y-16880674D01*
X13312824Y-16880674D02*
X13331872Y-16871150D01*
X13331872Y-16871150D02*
X13360443Y-16871150D01*
X13360443Y-16871150D02*
X13379491Y-16880674D01*
X13379491Y-16880674D02*
X13389015Y-16899722D01*
X13389015Y-16899722D02*
X13389015Y-17004484D01*
X13779491Y-16794960D02*
X13608063Y-17052103D01*
X14036634Y-16804484D02*
X14055682Y-16804484D01*
X14055682Y-16804484D02*
X14074729Y-16814008D01*
X14074729Y-16814008D02*
X14084253Y-16823531D01*
X14084253Y-16823531D02*
X14093777Y-16842579D01*
X14093777Y-16842579D02*
X14103301Y-16880674D01*
X14103301Y-16880674D02*
X14103301Y-16928293D01*
X14103301Y-16928293D02*
X14093777Y-16966389D01*
X14093777Y-16966389D02*
X14084253Y-16985436D01*
X14084253Y-16985436D02*
X14074729Y-16994960D01*
X14074729Y-16994960D02*
X14055682Y-17004484D01*
X14055682Y-17004484D02*
X14036634Y-17004484D01*
X14036634Y-17004484D02*
X14017586Y-16994960D01*
X14017586Y-16994960D02*
X14008063Y-16985436D01*
X14008063Y-16985436D02*
X13998539Y-16966389D01*
X13998539Y-16966389D02*
X13989015Y-16928293D01*
X13989015Y-16928293D02*
X13989015Y-16880674D01*
X13989015Y-16880674D02*
X13998539Y-16842579D01*
X13998539Y-16842579D02*
X14008063Y-16823531D01*
X14008063Y-16823531D02*
X14017586Y-16814008D01*
X14017586Y-16814008D02*
X14036634Y-16804484D01*
X14189015Y-16985436D02*
X14198539Y-16994960D01*
X14198539Y-16994960D02*
X14189015Y-17004484D01*
X14189015Y-17004484D02*
X14179491Y-16994960D01*
X14179491Y-16994960D02*
X14189015Y-16985436D01*
X14189015Y-16985436D02*
X14189015Y-17004484D01*
X14322348Y-16804484D02*
X14341396Y-16804484D01*
X14341396Y-16804484D02*
X14360444Y-16814008D01*
X14360444Y-16814008D02*
X14369967Y-16823531D01*
X14369967Y-16823531D02*
X14379491Y-16842579D01*
X14379491Y-16842579D02*
X14389015Y-16880674D01*
X14389015Y-16880674D02*
X14389015Y-16928293D01*
X14389015Y-16928293D02*
X14379491Y-16966389D01*
X14379491Y-16966389D02*
X14369967Y-16985436D01*
X14369967Y-16985436D02*
X14360444Y-16994960D01*
X14360444Y-16994960D02*
X14341396Y-17004484D01*
X14341396Y-17004484D02*
X14322348Y-17004484D01*
X14322348Y-17004484D02*
X14303301Y-16994960D01*
X14303301Y-16994960D02*
X14293777Y-16985436D01*
X14293777Y-16985436D02*
X14284253Y-16966389D01*
X14284253Y-16966389D02*
X14274729Y-16928293D01*
X14274729Y-16928293D02*
X14274729Y-16880674D01*
X14274729Y-16880674D02*
X14284253Y-16842579D01*
X14284253Y-16842579D02*
X14293777Y-16823531D01*
X14293777Y-16823531D02*
X14303301Y-16814008D01*
X14303301Y-16814008D02*
X14322348Y-16804484D01*
X14560444Y-16871150D02*
X14560444Y-17004484D01*
X14512825Y-16794960D02*
X14465206Y-16937817D01*
X14465206Y-16937817D02*
X14589015Y-16937817D01*
X14703301Y-16804484D02*
X14722348Y-16804484D01*
X14722348Y-16804484D02*
X14741396Y-16814008D01*
X14741396Y-16814008D02*
X14750920Y-16823531D01*
X14750920Y-16823531D02*
X14760444Y-16842579D01*
X14760444Y-16842579D02*
X14769967Y-16880674D01*
X14769967Y-16880674D02*
X14769967Y-16928293D01*
X14769967Y-16928293D02*
X14760444Y-16966389D01*
X14760444Y-16966389D02*
X14750920Y-16985436D01*
X14750920Y-16985436D02*
X14741396Y-16994960D01*
X14741396Y-16994960D02*
X14722348Y-17004484D01*
X14722348Y-17004484D02*
X14703301Y-17004484D01*
X14703301Y-17004484D02*
X14684253Y-16994960D01*
X14684253Y-16994960D02*
X14674729Y-16985436D01*
X14674729Y-16985436D02*
X14665206Y-16966389D01*
X14665206Y-16966389D02*
X14655682Y-16928293D01*
X14655682Y-16928293D02*
X14655682Y-16880674D01*
X14655682Y-16880674D02*
X14665206Y-16842579D01*
X14665206Y-16842579D02*
X14674729Y-16823531D01*
X14674729Y-16823531D02*
X14684253Y-16814008D01*
X14684253Y-16814008D02*
X14703301Y-16804484D01*
X14846158Y-16823531D02*
X14855682Y-16814008D01*
X14855682Y-16814008D02*
X14874729Y-16804484D01*
X14874729Y-16804484D02*
X14922348Y-16804484D01*
X14922348Y-16804484D02*
X14941396Y-16814008D01*
X14941396Y-16814008D02*
X14950920Y-16823531D01*
X14950920Y-16823531D02*
X14960444Y-16842579D01*
X14960444Y-16842579D02*
X14960444Y-16861627D01*
X14960444Y-16861627D02*
X14950920Y-16890198D01*
X14950920Y-16890198D02*
X14836634Y-17004484D01*
X14836634Y-17004484D02*
X14960444Y-17004484D01*
X15036634Y-16804484D02*
X15036634Y-16842579D01*
X15112825Y-16804484D02*
X15112825Y-16842579D01*
X15408063Y-17080674D02*
X15398539Y-17071150D01*
X15398539Y-17071150D02*
X15379491Y-17042579D01*
X15379491Y-17042579D02*
X15369968Y-17023531D01*
X15369968Y-17023531D02*
X15360444Y-16994960D01*
X15360444Y-16994960D02*
X15350920Y-16947341D01*
X15350920Y-16947341D02*
X15350920Y-16909246D01*
X15350920Y-16909246D02*
X15360444Y-16861627D01*
X15360444Y-16861627D02*
X15369968Y-16833055D01*
X15369968Y-16833055D02*
X15379491Y-16814008D01*
X15379491Y-16814008D02*
X15398539Y-16785436D01*
X15398539Y-16785436D02*
X15408063Y-16775912D01*
X15569968Y-16871150D02*
X15569968Y-17004484D01*
X15522348Y-16794960D02*
X15474729Y-16937817D01*
X15474729Y-16937817D02*
X15598539Y-16937817D01*
X15712825Y-16804484D02*
X15731872Y-16804484D01*
X15731872Y-16804484D02*
X15750920Y-16814008D01*
X15750920Y-16814008D02*
X15760444Y-16823531D01*
X15760444Y-16823531D02*
X15769968Y-16842579D01*
X15769968Y-16842579D02*
X15779491Y-16880674D01*
X15779491Y-16880674D02*
X15779491Y-16928293D01*
X15779491Y-16928293D02*
X15769968Y-16966389D01*
X15769968Y-16966389D02*
X15760444Y-16985436D01*
X15760444Y-16985436D02*
X15750920Y-16994960D01*
X15750920Y-16994960D02*
X15731872Y-17004484D01*
X15731872Y-17004484D02*
X15712825Y-17004484D01*
X15712825Y-17004484D02*
X15693777Y-16994960D01*
X15693777Y-16994960D02*
X15684253Y-16985436D01*
X15684253Y-16985436D02*
X15674729Y-16966389D01*
X15674729Y-16966389D02*
X15665206Y-16928293D01*
X15665206Y-16928293D02*
X15665206Y-16880674D01*
X15665206Y-16880674D02*
X15674729Y-16842579D01*
X15674729Y-16842579D02*
X15684253Y-16823531D01*
X15684253Y-16823531D02*
X15693777Y-16814008D01*
X15693777Y-16814008D02*
X15712825Y-16804484D01*
X16017587Y-17004484D02*
X16017587Y-16804484D01*
X16103301Y-17004484D02*
X16103301Y-16899722D01*
X16103301Y-16899722D02*
X16093777Y-16880674D01*
X16093777Y-16880674D02*
X16074730Y-16871150D01*
X16074730Y-16871150D02*
X16046158Y-16871150D01*
X16046158Y-16871150D02*
X16027110Y-16880674D01*
X16027110Y-16880674D02*
X16017587Y-16890198D01*
X16227110Y-17004484D02*
X16208063Y-16994960D01*
X16208063Y-16994960D02*
X16198539Y-16985436D01*
X16198539Y-16985436D02*
X16189015Y-16966389D01*
X16189015Y-16966389D02*
X16189015Y-16909246D01*
X16189015Y-16909246D02*
X16198539Y-16890198D01*
X16198539Y-16890198D02*
X16208063Y-16880674D01*
X16208063Y-16880674D02*
X16227110Y-16871150D01*
X16227110Y-16871150D02*
X16255682Y-16871150D01*
X16255682Y-16871150D02*
X16274730Y-16880674D01*
X16274730Y-16880674D02*
X16284253Y-16890198D01*
X16284253Y-16890198D02*
X16293777Y-16909246D01*
X16293777Y-16909246D02*
X16293777Y-16966389D01*
X16293777Y-16966389D02*
X16284253Y-16985436D01*
X16284253Y-16985436D02*
X16274730Y-16994960D01*
X16274730Y-16994960D02*
X16255682Y-17004484D01*
X16255682Y-17004484D02*
X16227110Y-17004484D01*
X16408063Y-17004484D02*
X16389015Y-16994960D01*
X16389015Y-16994960D02*
X16379491Y-16975912D01*
X16379491Y-16975912D02*
X16379491Y-16804484D01*
X16560444Y-16994960D02*
X16541396Y-17004484D01*
X16541396Y-17004484D02*
X16503301Y-17004484D01*
X16503301Y-17004484D02*
X16484253Y-16994960D01*
X16484253Y-16994960D02*
X16474730Y-16975912D01*
X16474730Y-16975912D02*
X16474730Y-16899722D01*
X16474730Y-16899722D02*
X16484253Y-16880674D01*
X16484253Y-16880674D02*
X16503301Y-16871150D01*
X16503301Y-16871150D02*
X16541396Y-16871150D01*
X16541396Y-16871150D02*
X16560444Y-16880674D01*
X16560444Y-16880674D02*
X16569968Y-16899722D01*
X16569968Y-16899722D02*
X16569968Y-16918770D01*
X16569968Y-16918770D02*
X16474730Y-16937817D01*
X16646158Y-16994960D02*
X16665206Y-17004484D01*
X16665206Y-17004484D02*
X16703301Y-17004484D01*
X16703301Y-17004484D02*
X16722349Y-16994960D01*
X16722349Y-16994960D02*
X16731872Y-16975912D01*
X16731872Y-16975912D02*
X16731872Y-16966389D01*
X16731872Y-16966389D02*
X16722349Y-16947341D01*
X16722349Y-16947341D02*
X16703301Y-16937817D01*
X16703301Y-16937817D02*
X16674730Y-16937817D01*
X16674730Y-16937817D02*
X16655682Y-16928293D01*
X16655682Y-16928293D02*
X16646158Y-16909246D01*
X16646158Y-16909246D02*
X16646158Y-16899722D01*
X16646158Y-16899722D02*
X16655682Y-16880674D01*
X16655682Y-16880674D02*
X16674730Y-16871150D01*
X16674730Y-16871150D02*
X16703301Y-16871150D01*
X16703301Y-16871150D02*
X16722349Y-16880674D01*
X16798539Y-17080674D02*
X16808063Y-17071150D01*
X16808063Y-17071150D02*
X16827111Y-17042579D01*
X16827111Y-17042579D02*
X16836634Y-17023531D01*
X16836634Y-17023531D02*
X16846158Y-16994960D01*
X16846158Y-16994960D02*
X16855682Y-16947341D01*
X16855682Y-16947341D02*
X16855682Y-16909246D01*
X16855682Y-16909246D02*
X16846158Y-16861627D01*
X16846158Y-16861627D02*
X16836634Y-16833055D01*
X16836634Y-16833055D02*
X16827111Y-16814008D01*
X16827111Y-16814008D02*
X16808063Y-16785436D01*
X16808063Y-16785436D02*
X16798539Y-16775912D01*
D16*
X11701000Y-17111000D02*
X11833000Y-17243000D01*
X11833000Y-17111000D02*
X11701000Y-17243000D01*
X11833000Y-17177000D02*
G75*
G03*
X11833000Y-17177000I-66000J0D01*
G01*
D11*
X12198539Y-17268484D02*
X12084253Y-17268484D01*
X12141396Y-17268484D02*
X12141396Y-17068484D01*
X12141396Y-17068484D02*
X12122348Y-17097055D01*
X12122348Y-17097055D02*
X12103301Y-17116103D01*
X12103301Y-17116103D02*
X12084253Y-17125627D01*
X12284253Y-17249436D02*
X12293777Y-17258960D01*
X12293777Y-17258960D02*
X12284253Y-17268484D01*
X12284253Y-17268484D02*
X12274729Y-17258960D01*
X12274729Y-17258960D02*
X12284253Y-17249436D01*
X12284253Y-17249436D02*
X12284253Y-17268484D01*
X12360443Y-17068484D02*
X12484253Y-17068484D01*
X12484253Y-17068484D02*
X12417586Y-17144674D01*
X12417586Y-17144674D02*
X12446158Y-17144674D01*
X12446158Y-17144674D02*
X12465205Y-17154198D01*
X12465205Y-17154198D02*
X12474729Y-17163722D01*
X12474729Y-17163722D02*
X12484253Y-17182770D01*
X12484253Y-17182770D02*
X12484253Y-17230389D01*
X12484253Y-17230389D02*
X12474729Y-17249436D01*
X12474729Y-17249436D02*
X12465205Y-17258960D01*
X12465205Y-17258960D02*
X12446158Y-17268484D01*
X12446158Y-17268484D02*
X12389015Y-17268484D01*
X12389015Y-17268484D02*
X12369967Y-17258960D01*
X12369967Y-17258960D02*
X12360443Y-17249436D01*
X12560443Y-17087531D02*
X12569967Y-17078008D01*
X12569967Y-17078008D02*
X12589015Y-17068484D01*
X12589015Y-17068484D02*
X12636634Y-17068484D01*
X12636634Y-17068484D02*
X12655682Y-17078008D01*
X12655682Y-17078008D02*
X12665205Y-17087531D01*
X12665205Y-17087531D02*
X12674729Y-17106579D01*
X12674729Y-17106579D02*
X12674729Y-17125627D01*
X12674729Y-17125627D02*
X12665205Y-17154198D01*
X12665205Y-17154198D02*
X12550920Y-17268484D01*
X12550920Y-17268484D02*
X12674729Y-17268484D01*
X12798539Y-17068484D02*
X12817586Y-17068484D01*
X12817586Y-17068484D02*
X12836634Y-17078008D01*
X12836634Y-17078008D02*
X12846158Y-17087531D01*
X12846158Y-17087531D02*
X12855682Y-17106579D01*
X12855682Y-17106579D02*
X12865205Y-17144674D01*
X12865205Y-17144674D02*
X12865205Y-17192293D01*
X12865205Y-17192293D02*
X12855682Y-17230389D01*
X12855682Y-17230389D02*
X12846158Y-17249436D01*
X12846158Y-17249436D02*
X12836634Y-17258960D01*
X12836634Y-17258960D02*
X12817586Y-17268484D01*
X12817586Y-17268484D02*
X12798539Y-17268484D01*
X12798539Y-17268484D02*
X12779491Y-17258960D01*
X12779491Y-17258960D02*
X12769967Y-17249436D01*
X12769967Y-17249436D02*
X12760443Y-17230389D01*
X12760443Y-17230389D02*
X12750920Y-17192293D01*
X12750920Y-17192293D02*
X12750920Y-17144674D01*
X12750920Y-17144674D02*
X12760443Y-17106579D01*
X12760443Y-17106579D02*
X12769967Y-17087531D01*
X12769967Y-17087531D02*
X12779491Y-17078008D01*
X12779491Y-17078008D02*
X12798539Y-17068484D01*
X12950920Y-17268484D02*
X12950920Y-17135150D01*
X12950920Y-17154198D02*
X12960443Y-17144674D01*
X12960443Y-17144674D02*
X12979491Y-17135150D01*
X12979491Y-17135150D02*
X13008063Y-17135150D01*
X13008063Y-17135150D02*
X13027110Y-17144674D01*
X13027110Y-17144674D02*
X13036634Y-17163722D01*
X13036634Y-17163722D02*
X13036634Y-17268484D01*
X13036634Y-17163722D02*
X13046158Y-17144674D01*
X13046158Y-17144674D02*
X13065205Y-17135150D01*
X13065205Y-17135150D02*
X13093777Y-17135150D01*
X13093777Y-17135150D02*
X13112824Y-17144674D01*
X13112824Y-17144674D02*
X13122348Y-17163722D01*
X13122348Y-17163722D02*
X13122348Y-17268484D01*
X13217586Y-17268484D02*
X13217586Y-17135150D01*
X13217586Y-17154198D02*
X13227110Y-17144674D01*
X13227110Y-17144674D02*
X13246158Y-17135150D01*
X13246158Y-17135150D02*
X13274729Y-17135150D01*
X13274729Y-17135150D02*
X13293777Y-17144674D01*
X13293777Y-17144674D02*
X13303301Y-17163722D01*
X13303301Y-17163722D02*
X13303301Y-17268484D01*
X13303301Y-17163722D02*
X13312824Y-17144674D01*
X13312824Y-17144674D02*
X13331872Y-17135150D01*
X13331872Y-17135150D02*
X13360443Y-17135150D01*
X13360443Y-17135150D02*
X13379491Y-17144674D01*
X13379491Y-17144674D02*
X13389015Y-17163722D01*
X13389015Y-17163722D02*
X13389015Y-17268484D01*
X13779491Y-17058960D02*
X13608063Y-17316103D01*
X14036634Y-17068484D02*
X14055682Y-17068484D01*
X14055682Y-17068484D02*
X14074729Y-17078008D01*
X14074729Y-17078008D02*
X14084253Y-17087531D01*
X14084253Y-17087531D02*
X14093777Y-17106579D01*
X14093777Y-17106579D02*
X14103301Y-17144674D01*
X14103301Y-17144674D02*
X14103301Y-17192293D01*
X14103301Y-17192293D02*
X14093777Y-17230389D01*
X14093777Y-17230389D02*
X14084253Y-17249436D01*
X14084253Y-17249436D02*
X14074729Y-17258960D01*
X14074729Y-17258960D02*
X14055682Y-17268484D01*
X14055682Y-17268484D02*
X14036634Y-17268484D01*
X14036634Y-17268484D02*
X14017586Y-17258960D01*
X14017586Y-17258960D02*
X14008063Y-17249436D01*
X14008063Y-17249436D02*
X13998539Y-17230389D01*
X13998539Y-17230389D02*
X13989015Y-17192293D01*
X13989015Y-17192293D02*
X13989015Y-17144674D01*
X13989015Y-17144674D02*
X13998539Y-17106579D01*
X13998539Y-17106579D02*
X14008063Y-17087531D01*
X14008063Y-17087531D02*
X14017586Y-17078008D01*
X14017586Y-17078008D02*
X14036634Y-17068484D01*
X14189015Y-17249436D02*
X14198539Y-17258960D01*
X14198539Y-17258960D02*
X14189015Y-17268484D01*
X14189015Y-17268484D02*
X14179491Y-17258960D01*
X14179491Y-17258960D02*
X14189015Y-17249436D01*
X14189015Y-17249436D02*
X14189015Y-17268484D01*
X14322348Y-17068484D02*
X14341396Y-17068484D01*
X14341396Y-17068484D02*
X14360444Y-17078008D01*
X14360444Y-17078008D02*
X14369967Y-17087531D01*
X14369967Y-17087531D02*
X14379491Y-17106579D01*
X14379491Y-17106579D02*
X14389015Y-17144674D01*
X14389015Y-17144674D02*
X14389015Y-17192293D01*
X14389015Y-17192293D02*
X14379491Y-17230389D01*
X14379491Y-17230389D02*
X14369967Y-17249436D01*
X14369967Y-17249436D02*
X14360444Y-17258960D01*
X14360444Y-17258960D02*
X14341396Y-17268484D01*
X14341396Y-17268484D02*
X14322348Y-17268484D01*
X14322348Y-17268484D02*
X14303301Y-17258960D01*
X14303301Y-17258960D02*
X14293777Y-17249436D01*
X14293777Y-17249436D02*
X14284253Y-17230389D01*
X14284253Y-17230389D02*
X14274729Y-17192293D01*
X14274729Y-17192293D02*
X14274729Y-17144674D01*
X14274729Y-17144674D02*
X14284253Y-17106579D01*
X14284253Y-17106579D02*
X14293777Y-17087531D01*
X14293777Y-17087531D02*
X14303301Y-17078008D01*
X14303301Y-17078008D02*
X14322348Y-17068484D01*
X14569967Y-17068484D02*
X14474729Y-17068484D01*
X14474729Y-17068484D02*
X14465206Y-17163722D01*
X14465206Y-17163722D02*
X14474729Y-17154198D01*
X14474729Y-17154198D02*
X14493777Y-17144674D01*
X14493777Y-17144674D02*
X14541396Y-17144674D01*
X14541396Y-17144674D02*
X14560444Y-17154198D01*
X14560444Y-17154198D02*
X14569967Y-17163722D01*
X14569967Y-17163722D02*
X14579491Y-17182770D01*
X14579491Y-17182770D02*
X14579491Y-17230389D01*
X14579491Y-17230389D02*
X14569967Y-17249436D01*
X14569967Y-17249436D02*
X14560444Y-17258960D01*
X14560444Y-17258960D02*
X14541396Y-17268484D01*
X14541396Y-17268484D02*
X14493777Y-17268484D01*
X14493777Y-17268484D02*
X14474729Y-17258960D01*
X14474729Y-17258960D02*
X14465206Y-17249436D01*
X14655682Y-17087531D02*
X14665206Y-17078008D01*
X14665206Y-17078008D02*
X14684253Y-17068484D01*
X14684253Y-17068484D02*
X14731872Y-17068484D01*
X14731872Y-17068484D02*
X14750920Y-17078008D01*
X14750920Y-17078008D02*
X14760444Y-17087531D01*
X14760444Y-17087531D02*
X14769967Y-17106579D01*
X14769967Y-17106579D02*
X14769967Y-17125627D01*
X14769967Y-17125627D02*
X14760444Y-17154198D01*
X14760444Y-17154198D02*
X14646158Y-17268484D01*
X14646158Y-17268484D02*
X14769967Y-17268484D01*
X14893777Y-17068484D02*
X14912825Y-17068484D01*
X14912825Y-17068484D02*
X14931872Y-17078008D01*
X14931872Y-17078008D02*
X14941396Y-17087531D01*
X14941396Y-17087531D02*
X14950920Y-17106579D01*
X14950920Y-17106579D02*
X14960444Y-17144674D01*
X14960444Y-17144674D02*
X14960444Y-17192293D01*
X14960444Y-17192293D02*
X14950920Y-17230389D01*
X14950920Y-17230389D02*
X14941396Y-17249436D01*
X14941396Y-17249436D02*
X14931872Y-17258960D01*
X14931872Y-17258960D02*
X14912825Y-17268484D01*
X14912825Y-17268484D02*
X14893777Y-17268484D01*
X14893777Y-17268484D02*
X14874729Y-17258960D01*
X14874729Y-17258960D02*
X14865206Y-17249436D01*
X14865206Y-17249436D02*
X14855682Y-17230389D01*
X14855682Y-17230389D02*
X14846158Y-17192293D01*
X14846158Y-17192293D02*
X14846158Y-17144674D01*
X14846158Y-17144674D02*
X14855682Y-17106579D01*
X14855682Y-17106579D02*
X14865206Y-17087531D01*
X14865206Y-17087531D02*
X14874729Y-17078008D01*
X14874729Y-17078008D02*
X14893777Y-17068484D01*
X15036634Y-17068484D02*
X15036634Y-17106579D01*
X15112825Y-17068484D02*
X15112825Y-17106579D01*
X15408063Y-17344674D02*
X15398539Y-17335150D01*
X15398539Y-17335150D02*
X15379491Y-17306579D01*
X15379491Y-17306579D02*
X15369968Y-17287531D01*
X15369968Y-17287531D02*
X15360444Y-17258960D01*
X15360444Y-17258960D02*
X15350920Y-17211341D01*
X15350920Y-17211341D02*
X15350920Y-17173246D01*
X15350920Y-17173246D02*
X15360444Y-17125627D01*
X15360444Y-17125627D02*
X15369968Y-17097055D01*
X15369968Y-17097055D02*
X15379491Y-17078008D01*
X15379491Y-17078008D02*
X15398539Y-17049436D01*
X15398539Y-17049436D02*
X15408063Y-17039912D01*
X15474729Y-17087531D02*
X15484253Y-17078008D01*
X15484253Y-17078008D02*
X15503301Y-17068484D01*
X15503301Y-17068484D02*
X15550920Y-17068484D01*
X15550920Y-17068484D02*
X15569968Y-17078008D01*
X15569968Y-17078008D02*
X15579491Y-17087531D01*
X15579491Y-17087531D02*
X15589015Y-17106579D01*
X15589015Y-17106579D02*
X15589015Y-17125627D01*
X15589015Y-17125627D02*
X15579491Y-17154198D01*
X15579491Y-17154198D02*
X15465206Y-17268484D01*
X15465206Y-17268484D02*
X15589015Y-17268484D01*
X15827110Y-17268484D02*
X15827110Y-17068484D01*
X15912825Y-17268484D02*
X15912825Y-17163722D01*
X15912825Y-17163722D02*
X15903301Y-17144674D01*
X15903301Y-17144674D02*
X15884253Y-17135150D01*
X15884253Y-17135150D02*
X15855682Y-17135150D01*
X15855682Y-17135150D02*
X15836634Y-17144674D01*
X15836634Y-17144674D02*
X15827110Y-17154198D01*
X16036634Y-17268484D02*
X16017587Y-17258960D01*
X16017587Y-17258960D02*
X16008063Y-17249436D01*
X16008063Y-17249436D02*
X15998539Y-17230389D01*
X15998539Y-17230389D02*
X15998539Y-17173246D01*
X15998539Y-17173246D02*
X16008063Y-17154198D01*
X16008063Y-17154198D02*
X16017587Y-17144674D01*
X16017587Y-17144674D02*
X16036634Y-17135150D01*
X16036634Y-17135150D02*
X16065206Y-17135150D01*
X16065206Y-17135150D02*
X16084253Y-17144674D01*
X16084253Y-17144674D02*
X16093777Y-17154198D01*
X16093777Y-17154198D02*
X16103301Y-17173246D01*
X16103301Y-17173246D02*
X16103301Y-17230389D01*
X16103301Y-17230389D02*
X16093777Y-17249436D01*
X16093777Y-17249436D02*
X16084253Y-17258960D01*
X16084253Y-17258960D02*
X16065206Y-17268484D01*
X16065206Y-17268484D02*
X16036634Y-17268484D01*
X16217587Y-17268484D02*
X16198539Y-17258960D01*
X16198539Y-17258960D02*
X16189015Y-17239912D01*
X16189015Y-17239912D02*
X16189015Y-17068484D01*
X16369968Y-17258960D02*
X16350920Y-17268484D01*
X16350920Y-17268484D02*
X16312825Y-17268484D01*
X16312825Y-17268484D02*
X16293777Y-17258960D01*
X16293777Y-17258960D02*
X16284253Y-17239912D01*
X16284253Y-17239912D02*
X16284253Y-17163722D01*
X16284253Y-17163722D02*
X16293777Y-17144674D01*
X16293777Y-17144674D02*
X16312825Y-17135150D01*
X16312825Y-17135150D02*
X16350920Y-17135150D01*
X16350920Y-17135150D02*
X16369968Y-17144674D01*
X16369968Y-17144674D02*
X16379491Y-17163722D01*
X16379491Y-17163722D02*
X16379491Y-17182770D01*
X16379491Y-17182770D02*
X16284253Y-17201817D01*
X16455682Y-17258960D02*
X16474730Y-17268484D01*
X16474730Y-17268484D02*
X16512825Y-17268484D01*
X16512825Y-17268484D02*
X16531872Y-17258960D01*
X16531872Y-17258960D02*
X16541396Y-17239912D01*
X16541396Y-17239912D02*
X16541396Y-17230389D01*
X16541396Y-17230389D02*
X16531872Y-17211341D01*
X16531872Y-17211341D02*
X16512825Y-17201817D01*
X16512825Y-17201817D02*
X16484253Y-17201817D01*
X16484253Y-17201817D02*
X16465206Y-17192293D01*
X16465206Y-17192293D02*
X16455682Y-17173246D01*
X16455682Y-17173246D02*
X16455682Y-17163722D01*
X16455682Y-17163722D02*
X16465206Y-17144674D01*
X16465206Y-17144674D02*
X16484253Y-17135150D01*
X16484253Y-17135150D02*
X16512825Y-17135150D01*
X16512825Y-17135150D02*
X16531872Y-17144674D01*
X16608063Y-17344674D02*
X16617587Y-17335150D01*
X16617587Y-17335150D02*
X16636634Y-17306579D01*
X16636634Y-17306579D02*
X16646158Y-17287531D01*
X16646158Y-17287531D02*
X16655682Y-17258960D01*
X16655682Y-17258960D02*
X16665206Y-17211341D01*
X16665206Y-17211341D02*
X16665206Y-17173246D01*
X16665206Y-17173246D02*
X16655682Y-17125627D01*
X16655682Y-17125627D02*
X16646158Y-17097055D01*
X16646158Y-17097055D02*
X16636634Y-17078008D01*
X16636634Y-17078008D02*
X16617587Y-17049436D01*
X16617587Y-17049436D02*
X16608063Y-17039912D01*
M02*
