%TF.GenerationSoftware,KiCad,Pcbnew,7.0.2*%
%TF.CreationDate,2023-05-03T22:50:51+02:00*%
%TF.ProjectId,Frackstock,46726163-6b73-4746-9f63-6b2e6b696361,rev?*%
%TF.SameCoordinates,PX54f9b60PY6e87f28*%
%TF.FileFunction,Soldermask,Top*%
%TF.FilePolarity,Negative*%
%FSLAX46Y46*%
G04 Gerber Fmt 4.6, Leading zero omitted, Abs format (unit mm)*
G04 Created by KiCad (PCBNEW 7.0.2) date 2023-05-03 22:50:51*
%MOMM*%
%LPD*%
G01*
G04 APERTURE LIST*
G04 Aperture macros list*
%AMRoundRect*
0 Rectangle with rounded corners*
0 $1 Rounding radius*
0 $2 $3 $4 $5 $6 $7 $8 $9 X,Y pos of 4 corners*
0 Add a 4 corners polygon primitive as box body*
4,1,4,$2,$3,$4,$5,$6,$7,$8,$9,$2,$3,0*
0 Add four circle primitives for the rounded corners*
1,1,$1+$1,$2,$3*
1,1,$1+$1,$4,$5*
1,1,$1+$1,$6,$7*
1,1,$1+$1,$8,$9*
0 Add four rect primitives between the rounded corners*
20,1,$1+$1,$2,$3,$4,$5,0*
20,1,$1+$1,$4,$5,$6,$7,0*
20,1,$1+$1,$6,$7,$8,$9,0*
20,1,$1+$1,$8,$9,$2,$3,0*%
G04 Aperture macros list end*
%ADD10RoundRect,0.007800X0.512200X0.122200X-0.512200X0.122200X-0.512200X-0.122200X0.512200X-0.122200X0*%
%ADD11RoundRect,0.007800X-0.122200X0.512200X-0.122200X-0.512200X0.122200X-0.512200X0.122200X0.512200X0*%
%ADD12R,2.400000X2.400000*%
%ADD13RoundRect,0.147500X0.147500X0.172500X-0.147500X0.172500X-0.147500X-0.172500X0.147500X-0.172500X0*%
%ADD14RoundRect,0.100000X0.100000X-0.130000X0.100000X0.130000X-0.100000X0.130000X-0.100000X-0.130000X0*%
%ADD15RoundRect,0.100000X-0.130000X-0.100000X0.130000X-0.100000X0.130000X0.100000X-0.130000X0.100000X0*%
%ADD16RoundRect,0.100000X-0.100000X0.130000X-0.100000X-0.130000X0.100000X-0.130000X0.100000X0.130000X0*%
%ADD17RoundRect,0.100000X0.130000X0.100000X-0.130000X0.100000X-0.130000X-0.100000X0.130000X-0.100000X0*%
%ADD18R,2.200000X1.400000*%
%ADD19R,0.900000X1.400000*%
%ADD20R,1.700000X1.700000*%
%ADD21O,1.700000X1.700000*%
%ADD22RoundRect,0.150000X0.150000X-0.587500X0.150000X0.587500X-0.150000X0.587500X-0.150000X-0.587500X0*%
%ADD23RoundRect,0.147500X-0.147500X-0.172500X0.147500X-0.172500X0.147500X0.172500X-0.147500X0.172500X0*%
%ADD24RoundRect,0.006000X-0.414000X-0.094000X0.414000X-0.094000X0.414000X0.094000X-0.414000X0.094000X0*%
%ADD25RoundRect,0.020000X-0.080000X-0.400000X0.080000X-0.400000X0.080000X0.400000X-0.080000X0.400000X0*%
%ADD26R,3.100000X3.100000*%
%ADD27R,1.550000X0.600000*%
%ADD28R,1.800000X1.200000*%
%ADD29R,1.400000X1.200000*%
%ADD30RoundRect,0.020000X0.760000X0.180000X-0.760000X0.180000X-0.760000X-0.180000X0.760000X-0.180000X0*%
%ADD31R,1.400000X1.000000*%
%ADD32RoundRect,0.140000X-0.140000X-0.170000X0.140000X-0.170000X0.140000X0.170000X-0.140000X0.170000X0*%
%ADD33RoundRect,0.218750X0.256250X-0.218750X0.256250X0.218750X-0.256250X0.218750X-0.256250X-0.218750X0*%
%ADD34RoundRect,0.150000X0.512500X0.150000X-0.512500X0.150000X-0.512500X-0.150000X0.512500X-0.150000X0*%
%ADD35RoundRect,0.140000X0.170000X-0.140000X0.170000X0.140000X-0.170000X0.140000X-0.170000X-0.140000X0*%
%ADD36RoundRect,0.140000X0.140000X0.170000X-0.140000X0.170000X-0.140000X-0.170000X0.140000X-0.170000X0*%
%ADD37R,1.200000X1.400000*%
%ADD38R,1.200000X0.550000*%
%ADD39R,0.700000X0.300000*%
%ADD40R,0.700000X1.000000*%
%ADD41O,2.200000X1.100000*%
%ADD42O,2.600000X1.300000*%
%ADD43R,0.500000X0.500000*%
%ADD44R,1.690000X1.720000*%
%ADD45RoundRect,0.042000X-0.943000X-0.258000X0.943000X-0.258000X0.943000X0.258000X-0.943000X0.258000X0*%
%ADD46R,2.413000X3.302000*%
%ADD47C,1.501000*%
%ADD48R,0.650000X0.350000*%
%ADD49RoundRect,0.014000X-0.161000X0.281000X-0.161000X-0.281000X0.161000X-0.281000X0.161000X0.281000X0*%
%ADD50RoundRect,0.014000X-0.281000X-0.161000X0.281000X-0.161000X0.281000X0.161000X-0.281000X0.161000X0*%
%ADD51RoundRect,0.014000X0.161000X-0.281000X0.161000X0.281000X-0.161000X0.281000X-0.161000X-0.281000X0*%
%ADD52RoundRect,0.014000X0.281000X0.161000X-0.281000X0.161000X-0.281000X-0.161000X0.281000X-0.161000X0*%
%ADD53RoundRect,0.040600X0.249400X-0.764400X0.249400X0.764400X-0.249400X0.764400X-0.249400X-0.764400X0*%
%ADD54C,1.980000*%
%ADD55C,5.325000*%
%ADD56C,3.585000*%
G04 APERTURE END LIST*
D10*
%TO.C,U11*%
X14900200Y22901400D03*
X14900200Y23401400D03*
X14900200Y23901400D03*
X14900200Y24401400D03*
X14900200Y24901400D03*
D11*
X14030200Y25771400D03*
X13530200Y25771400D03*
X13030200Y25771400D03*
X12530200Y25771400D03*
X12030200Y25771400D03*
D10*
X11160200Y24901400D03*
X11160200Y24401400D03*
X11160200Y23901400D03*
X11160200Y23401400D03*
X11160200Y22901400D03*
D11*
X12030200Y22031400D03*
X12530200Y22031400D03*
X13030200Y22031400D03*
X13530200Y22031400D03*
X14030200Y22031400D03*
D12*
X13030200Y23901400D03*
%TD*%
D13*
%TO.C,D5*%
X18363400Y34188600D03*
X17393400Y34188600D03*
%TD*%
D14*
%TO.C,C27*%
X9906000Y25536800D03*
X9906000Y26176800D03*
%TD*%
D15*
%TO.C,R14*%
X4585300Y35103200D03*
X5225300Y35103200D03*
%TD*%
D16*
%TO.C,R3*%
X936800Y61308800D03*
X936800Y60668800D03*
%TD*%
D14*
%TO.C,C9*%
X15008200Y38872200D03*
X15008200Y39512200D03*
%TD*%
D15*
%TO.C,C6*%
X13548400Y28397200D03*
X14188400Y28397200D03*
%TD*%
D16*
%TO.C,C33*%
X9829800Y21757600D03*
X9829800Y21117600D03*
%TD*%
%TO.C,R12*%
X3860800Y47259200D03*
X3860800Y46619200D03*
%TD*%
%TO.C,R22*%
X19532600Y36337200D03*
X19532600Y35697200D03*
%TD*%
D17*
%TO.C,R4*%
X10807200Y62741400D03*
X10167200Y62741400D03*
%TD*%
D18*
%TO.C,U10*%
X18869000Y61519000D03*
D19*
X21419000Y61519000D03*
%TD*%
D14*
%TO.C,L2*%
X6019800Y16977400D03*
X6019800Y17617400D03*
%TD*%
%TO.C,C31*%
X9829800Y22641600D03*
X9829800Y23281600D03*
%TD*%
D20*
%TO.C,J8*%
X20955000Y33304400D03*
D21*
X20955000Y30764400D03*
%TD*%
D15*
%TO.C,R16*%
X2942800Y33353000D03*
X3582800Y33353000D03*
%TD*%
D17*
%TO.C,C19*%
X2631400Y28092400D03*
X1991400Y28092400D03*
%TD*%
D22*
%TO.C,Q2*%
X1332800Y34902100D03*
X3232800Y34902100D03*
X2282800Y36777100D03*
%TD*%
D17*
%TO.C,R13*%
X12131000Y20701000D03*
X11491000Y20701000D03*
%TD*%
D23*
%TO.C,D4*%
X6366600Y34011000D03*
X7336600Y34011000D03*
%TD*%
%TO.C,D3*%
X6350700Y35103200D03*
X7320700Y35103200D03*
%TD*%
D24*
%TO.C,U1*%
X9033200Y36179000D03*
X9033200Y35779000D03*
X9033200Y35379000D03*
X9033200Y34979000D03*
X9033200Y34579000D03*
X9033200Y34179000D03*
X9033200Y33779000D03*
X9033200Y33379000D03*
X9033200Y32979000D03*
X9033200Y32579000D03*
X9033200Y32179000D03*
X9033200Y31779000D03*
X9033200Y31379000D03*
X9033200Y30979000D03*
D25*
X9868200Y30144000D03*
X10268200Y30144000D03*
X10668200Y30144000D03*
X11068200Y30144000D03*
X11468200Y30144000D03*
X11868200Y30144000D03*
X12268200Y30144000D03*
X12668200Y30144000D03*
X13068200Y30144000D03*
X13468200Y30144000D03*
X13868200Y30144000D03*
X14268200Y30144000D03*
X14668200Y30144000D03*
X15068200Y30144000D03*
D24*
X15903200Y30979000D03*
X15903200Y31379000D03*
X15903200Y31779000D03*
X15903200Y32179000D03*
X15903200Y32579000D03*
X15903200Y32979000D03*
X15903200Y33379000D03*
X15903200Y33779000D03*
X15903200Y34179000D03*
X15903200Y34579000D03*
X15903200Y34979000D03*
X15903200Y35379000D03*
X15903200Y35779000D03*
X15903200Y36179000D03*
D25*
X15068200Y37014000D03*
X14668200Y37014000D03*
X14268200Y37014000D03*
X13868200Y37014000D03*
X13468200Y37014000D03*
X13068200Y37014000D03*
X12668200Y37014000D03*
X12268200Y37014000D03*
X11868200Y37014000D03*
X11468200Y37014000D03*
X11068200Y37014000D03*
X10668200Y37014000D03*
X10268200Y37014000D03*
X9868200Y37014000D03*
D26*
X12468200Y33579000D03*
%TD*%
D17*
%TO.C,C16*%
X7400200Y36982800D03*
X6760200Y36982800D03*
%TD*%
D16*
%TO.C,R9*%
X13433400Y39512200D03*
X13433400Y38872200D03*
%TD*%
D15*
%TO.C,R20*%
X15177400Y44704200D03*
X15817400Y44704200D03*
%TD*%
D27*
%TO.C,J10*%
X17504000Y42688200D03*
X17504000Y43688200D03*
X17504000Y44688200D03*
D28*
X21379000Y41388200D03*
X21379000Y45988200D03*
%TD*%
D16*
%TO.C,C34*%
X8593000Y14427200D03*
X8593000Y13787200D03*
%TD*%
D29*
%TO.C,Y1*%
X2760800Y23813400D03*
X4960800Y23813400D03*
X4960800Y25513400D03*
X2760800Y25513400D03*
%TD*%
D30*
%TO.C,Q1*%
X8442500Y65420600D03*
X8442500Y66070600D03*
X8442500Y66720600D03*
X8442500Y67370600D03*
X2682500Y67370600D03*
X2682500Y66720600D03*
X2682500Y66070600D03*
X2682500Y65420600D03*
%TD*%
D14*
%TO.C,C28*%
X9093200Y25537200D03*
X9093200Y26177200D03*
%TD*%
D17*
%TO.C,R5*%
X10807200Y61928600D03*
X10167200Y61928600D03*
%TD*%
D14*
%TO.C,R6*%
X9321700Y70063400D03*
X9321700Y70703400D03*
%TD*%
D31*
%TO.C,U9*%
X16155800Y59578600D03*
X16155800Y61478600D03*
X13955800Y60528600D03*
%TD*%
D32*
%TO.C,C35*%
X7898800Y50444600D03*
X8858800Y50444600D03*
%TD*%
D15*
%TO.C,R21*%
X15175600Y42672200D03*
X15815600Y42672200D03*
%TD*%
D23*
%TO.C,D2*%
X10230800Y60658600D03*
X11200800Y60658600D03*
%TD*%
D15*
%TO.C,L3*%
X9509800Y17653000D03*
X10149800Y17653000D03*
%TD*%
D17*
%TO.C,C29*%
X7660600Y16332200D03*
X7020600Y16332200D03*
%TD*%
D33*
%TO.C,L1*%
X5661000Y52146300D03*
X5661000Y53721300D03*
%TD*%
D15*
%TO.C,C11*%
X17656800Y36195400D03*
X18296800Y36195400D03*
%TD*%
D14*
%TO.C,C7*%
X11858600Y38872200D03*
X11858600Y39512200D03*
%TD*%
D17*
%TO.C,C15*%
X7410400Y36195400D03*
X6770400Y36195400D03*
%TD*%
D16*
%TO.C,R8*%
X18919800Y59527600D03*
X18919800Y58887600D03*
%TD*%
D20*
%TO.C,J6*%
X12011000Y43073400D03*
D21*
X12011000Y45613400D03*
%TD*%
D34*
%TO.C,U12*%
X19513850Y72710000D03*
X19513850Y73660000D03*
X19513850Y74610000D03*
X17238850Y74610000D03*
X17238850Y72710000D03*
%TD*%
D15*
%TO.C,C26*%
X6969800Y17653000D03*
X7609800Y17653000D03*
%TD*%
D35*
%TO.C,C36*%
X11985600Y52961800D03*
X11985600Y53921800D03*
%TD*%
D36*
%TO.C,C30*%
X19784000Y21386800D03*
X18824000Y21386800D03*
%TD*%
D14*
%TO.C,R10*%
X12646000Y38872200D03*
X12646000Y39512200D03*
%TD*%
D37*
%TO.C,Y2*%
X18962000Y25534800D03*
X18962000Y23334800D03*
X20662000Y23334800D03*
X20662000Y25534800D03*
%TD*%
D38*
%TO.C,IC1*%
X4310100Y70901800D03*
X4310100Y69951800D03*
X4310100Y69001800D03*
X6910100Y69001800D03*
X6910100Y69951800D03*
X6910100Y70901800D03*
%TD*%
D17*
%TO.C,C14*%
X7403400Y32588400D03*
X6763400Y32588400D03*
%TD*%
D15*
%TO.C,C10*%
X17656800Y36982800D03*
X18296800Y36982800D03*
%TD*%
D17*
%TO.C,C17*%
X5400000Y48158400D03*
X4760000Y48158400D03*
%TD*%
D14*
%TO.C,L5*%
X8585200Y15402600D03*
X8585200Y16042600D03*
%TD*%
D16*
%TO.C,C5*%
X6527800Y25984200D03*
X6527800Y25344200D03*
%TD*%
%TO.C,C24*%
X6019800Y16042600D03*
X6019800Y15402600D03*
%TD*%
D17*
%TO.C,C13*%
X12664400Y28397200D03*
X12024400Y28397200D03*
%TD*%
D14*
%TO.C,C8*%
X14220800Y38872200D03*
X14220800Y39512200D03*
%TD*%
D39*
%TO.C,J2*%
X15457800Y49400200D03*
X15457800Y49900200D03*
X15457800Y50400200D03*
X15457800Y50900200D03*
X15457800Y51400200D03*
X15457800Y51900200D03*
X15457800Y52900200D03*
X15457800Y53400200D03*
X15457800Y53900200D03*
X15457800Y54400200D03*
X15457800Y54900200D03*
X15457800Y55400200D03*
D40*
X16757800Y55500200D03*
D39*
X16757800Y54650200D03*
X16757800Y54150200D03*
X16757800Y53650200D03*
X16757800Y53150200D03*
X16757800Y52650200D03*
X16757800Y52150200D03*
X16757800Y51650200D03*
X16757800Y51150200D03*
X16757800Y50650200D03*
X16757800Y50150200D03*
D40*
X16757800Y49300200D03*
D41*
X15867800Y48080200D03*
X15867800Y56720200D03*
D42*
X21227800Y48080200D03*
X21227800Y56720200D03*
%TD*%
D15*
%TO.C,R15*%
X4585300Y34011000D03*
X5225300Y34011000D03*
%TD*%
D16*
%TO.C,C23*%
X11023600Y17617400D03*
X11023600Y16977400D03*
%TD*%
D17*
%TO.C,C32*%
X7660600Y14909800D03*
X7020600Y14909800D03*
%TD*%
D43*
%TO.C,L7*%
X12961200Y14782800D03*
X13861200Y14782800D03*
%TD*%
D14*
%TO.C,R17*%
X4685200Y36146600D03*
X4685200Y36786600D03*
%TD*%
D36*
%TO.C,C1*%
X19516750Y76123800D03*
X18556750Y76123800D03*
%TD*%
D44*
%TO.C,ANT1*%
X15341600Y14757400D03*
X21751600Y14757400D03*
%TD*%
D45*
%TO.C,U8*%
X3008200Y61925400D03*
X3008200Y60655400D03*
X3008200Y59385400D03*
X3008200Y58115400D03*
X7958200Y58115400D03*
X7958200Y59385400D03*
X7958200Y60655400D03*
X7958200Y61925400D03*
D46*
X5483200Y60020400D03*
%TD*%
D14*
%TO.C,R11*%
X3860800Y45069800D03*
X3860800Y45709800D03*
%TD*%
D15*
%TO.C,R1*%
X13606200Y51892200D03*
X14246200Y51892200D03*
%TD*%
D47*
%TO.C,J1*%
X2232000Y49352400D03*
X2232000Y51892400D03*
X2232000Y54432400D03*
%TD*%
D14*
%TO.C,L4*%
X8585200Y16977400D03*
X8585200Y17617400D03*
%TD*%
D15*
%TO.C,C12*%
X17736200Y32867600D03*
X18376200Y32867600D03*
%TD*%
D48*
%TO.C,L6*%
X11760200Y14535600D03*
X11760200Y15385600D03*
%TD*%
D38*
%TO.C,U13*%
X7917000Y53883800D03*
X7917000Y52933800D03*
X7917000Y51983800D03*
X10517000Y51983800D03*
X10517000Y52933800D03*
X10517000Y53883800D03*
%TD*%
D32*
%TO.C,C22*%
X18824000Y27482800D03*
X19784000Y27482800D03*
%TD*%
D14*
%TO.C,C4*%
X1244400Y24013200D03*
X1244400Y24653200D03*
%TD*%
D20*
%TO.C,J5*%
X13839800Y65831800D03*
D21*
X13839800Y68371800D03*
%TD*%
D15*
%TO.C,C25*%
X16240800Y24384000D03*
X16880800Y24384000D03*
%TD*%
D16*
%TO.C,C18*%
X2565400Y29758600D03*
X2565400Y29118600D03*
%TD*%
D49*
%TO.C,U7*%
X5474400Y30425800D03*
X4974400Y30425800D03*
X4474400Y30425800D03*
X3974400Y30425800D03*
D50*
X3809400Y29760800D03*
X3809400Y29260800D03*
X3809400Y28760800D03*
D51*
X3974400Y28095800D03*
X4474400Y28095800D03*
X4974400Y28095800D03*
X5474400Y28095800D03*
D52*
X5639400Y28760800D03*
X5639400Y29260800D03*
X5639400Y29760800D03*
%TD*%
D15*
%TO.C,C20*%
X16240800Y25222000D03*
X16880800Y25222000D03*
%TD*%
D23*
%TO.C,D1*%
X10230800Y59388600D03*
X11200800Y59388600D03*
%TD*%
D53*
%TO.C,U2*%
X5381600Y39372000D03*
X6651600Y39372000D03*
X7921600Y39372000D03*
X9191600Y39372000D03*
X9191600Y46582000D03*
X7921600Y46582000D03*
X6651600Y46582000D03*
X5381600Y46582000D03*
%TD*%
D35*
%TO.C,C2*%
X15607750Y72697400D03*
X15607750Y73657400D03*
%TD*%
D16*
%TO.C,C3*%
X8451700Y70703800D03*
X8451700Y70063800D03*
%TD*%
D17*
%TO.C,R7*%
X2675700Y69952000D03*
X2035700Y69952000D03*
%TD*%
D15*
%TO.C,C21*%
X13040400Y20701000D03*
X13680400Y20701000D03*
%TD*%
%TO.C,R2*%
X13573800Y52654200D03*
X14213800Y52654200D03*
%TD*%
D54*
%TO.C,U14*%
X11528400Y75649000D03*
X11528400Y3429000D03*
D55*
X3658400Y12249000D03*
D56*
X3658400Y75649000D03*
D55*
X19398400Y67449000D03*
%TD*%
M02*
