G04 #@! TF.GenerationSoftware,KiCad,Pcbnew,7.0.7*
G04 #@! TF.CreationDate,2024-03-28T15:42:58+01:00*
G04 #@! TF.ProjectId,Frackstock,46726163-6b73-4746-9f63-6b2e6b696361,2*
G04 #@! TF.SameCoordinates,Original*
G04 #@! TF.FileFunction,Legend,Top*
G04 #@! TF.FilePolarity,Positive*
%FSLAX46Y46*%
G04 Gerber Fmt 4.6, Leading zero omitted, Abs format (unit mm)*
G04 Created by KiCad (PCBNEW 7.0.7) date 2024-03-28 15:42:58*
%MOMM*%
%LPD*%
G01*
G04 APERTURE LIST*
G04 Aperture macros list*
%AMRoundRect*
0 Rectangle with rounded corners*
0 $1 Rounding radius*
0 $2 $3 $4 $5 $6 $7 $8 $9 X,Y pos of 4 corners*
0 Add a 4 corners polygon primitive as box body*
4,1,4,$2,$3,$4,$5,$6,$7,$8,$9,$2,$3,0*
0 Add four circle primitives for the rounded corners*
1,1,$1+$1,$2,$3*
1,1,$1+$1,$4,$5*
1,1,$1+$1,$6,$7*
1,1,$1+$1,$8,$9*
0 Add four rect primitives between the rounded corners*
20,1,$1+$1,$2,$3,$4,$5,0*
20,1,$1+$1,$4,$5,$6,$7,0*
20,1,$1+$1,$6,$7,$8,$9,0*
20,1,$1+$1,$8,$9,$2,$3,0*%
%AMFreePoly0*
4,1,19,0.500000,-0.750000,0.000000,-0.750000,0.000000,-0.744911,-0.071157,-0.744911,-0.207708,-0.704816,-0.327430,-0.627875,-0.420627,-0.520320,-0.479746,-0.390866,-0.500000,-0.250000,-0.500000,0.250000,-0.479746,0.390866,-0.420627,0.520320,-0.327430,0.627875,-0.207708,0.704816,-0.071157,0.744911,0.000000,0.744911,0.000000,0.750000,0.500000,0.750000,0.500000,-0.750000,0.500000,-0.750000,
$1*%
%AMFreePoly1*
4,1,19,0.000000,0.744911,0.071157,0.744911,0.207708,0.704816,0.327430,0.627875,0.420627,0.520320,0.479746,0.390866,0.500000,0.250000,0.500000,-0.250000,0.479746,-0.390866,0.420627,-0.520320,0.327430,-0.627875,0.207708,-0.704816,0.071157,-0.744911,0.000000,-0.744911,0.000000,-0.750000,-0.500000,-0.750000,-0.500000,0.750000,0.000000,0.750000,0.000000,0.744911,0.000000,0.744911,
$1*%
G04 Aperture macros list end*
%ADD10C,0.150000*%
%ADD11C,0.100000*%
%ADD12C,0.120000*%
%ADD13C,0.127000*%
%ADD14C,0.200000*%
%ADD15R,1.370000X1.500000*%
%ADD16RoundRect,0.237500X0.237500X-0.287500X0.237500X0.287500X-0.237500X0.287500X-0.237500X-0.287500X0*%
%ADD17RoundRect,0.237500X0.250000X0.237500X-0.250000X0.237500X-0.250000X-0.237500X0.250000X-0.237500X0*%
%ADD18R,1.700000X1.700000*%
%ADD19RoundRect,0.333333X-0.566667X-0.466667X0.566667X-0.466667X0.566667X0.466667X-0.566667X0.466667X0*%
%ADD20RoundRect,0.237500X-0.250000X-0.237500X0.250000X-0.237500X0.250000X0.237500X-0.250000X0.237500X0*%
%ADD21RoundRect,0.237500X-0.300000X-0.237500X0.300000X-0.237500X0.300000X0.237500X-0.300000X0.237500X0*%
%ADD22R,1.500000X1.500000*%
%ADD23RoundRect,0.237500X-0.287500X-0.237500X0.287500X-0.237500X0.287500X0.237500X-0.287500X0.237500X0*%
%ADD24FreePoly0,180.000000*%
%ADD25FreePoly1,180.000000*%
%ADD26RoundRect,0.250000X0.650000X-1.000000X0.650000X1.000000X-0.650000X1.000000X-0.650000X-1.000000X0*%
%ADD27RoundRect,0.062500X-0.062500X0.350000X-0.062500X-0.350000X0.062500X-0.350000X0.062500X0.350000X0*%
%ADD28RoundRect,0.062500X-0.350000X0.062500X-0.350000X-0.062500X0.350000X-0.062500X0.350000X0.062500X0*%
%ADD29R,2.500000X2.500000*%
%ADD30R,3.150000X1.000000*%
%ADD31RoundRect,0.237500X-0.237500X0.250000X-0.237500X-0.250000X0.237500X-0.250000X0.237500X0.250000X0*%
%ADD32RoundRect,0.237500X0.237500X-0.250000X0.237500X0.250000X-0.237500X0.250000X-0.237500X-0.250000X0*%
%ADD33RoundRect,0.237500X0.237500X-0.300000X0.237500X0.300000X-0.237500X0.300000X-0.237500X-0.300000X0*%
%ADD34RoundRect,0.237500X0.300000X0.237500X-0.300000X0.237500X-0.300000X-0.237500X0.300000X-0.237500X0*%
%ADD35R,0.300000X0.700000*%
%ADD36R,1.000000X0.700000*%
%ADD37O,1.100000X2.200000*%
%ADD38O,1.300000X2.600000*%
%ADD39RoundRect,0.237500X-0.237500X0.300000X-0.237500X-0.300000X0.237500X-0.300000X0.237500X0.300000X0*%
%ADD40RoundRect,0.116000X-0.281000X-0.161000X0.281000X-0.161000X0.281000X0.161000X-0.281000X0.161000X0*%
%ADD41RoundRect,0.116000X0.161000X-0.281000X0.161000X0.281000X-0.161000X0.281000X-0.161000X-0.281000X0*%
%ADD42RoundRect,0.116000X0.281000X0.161000X-0.281000X0.161000X-0.281000X-0.161000X0.281000X-0.161000X0*%
%ADD43RoundRect,0.116000X-0.161000X0.281000X-0.161000X-0.281000X0.161000X-0.281000X0.161000X0.281000X0*%
%ADD44RoundRect,0.250000X-0.475000X0.337500X-0.475000X-0.337500X0.475000X-0.337500X0.475000X0.337500X0*%
%ADD45O,1.800000X1.800000*%
%ADD46O,1.500000X1.500000*%
%ADD47O,1.700000X1.700000*%
%ADD48R,3.460000X1.700000*%
%ADD49C,3.550000*%
%ADD50C,2.390000*%
%ADD51C,1.980000*%
G04 APERTURE END LIST*
D10*
X128326779Y-69259819D02*
X128326779Y-68259819D01*
X128326779Y-68259819D02*
X128564874Y-68259819D01*
X128564874Y-68259819D02*
X128707731Y-68307438D01*
X128707731Y-68307438D02*
X128802969Y-68402676D01*
X128802969Y-68402676D02*
X128850588Y-68497914D01*
X128850588Y-68497914D02*
X128898207Y-68688390D01*
X128898207Y-68688390D02*
X128898207Y-68831247D01*
X128898207Y-68831247D02*
X128850588Y-69021723D01*
X128850588Y-69021723D02*
X128802969Y-69116961D01*
X128802969Y-69116961D02*
X128707731Y-69212200D01*
X128707731Y-69212200D02*
X128564874Y-69259819D01*
X128564874Y-69259819D02*
X128326779Y-69259819D01*
X129326779Y-69259819D02*
X129326779Y-68259819D01*
X129326779Y-68259819D02*
X129707731Y-68259819D01*
X129707731Y-68259819D02*
X129802969Y-68307438D01*
X129802969Y-68307438D02*
X129850588Y-68355057D01*
X129850588Y-68355057D02*
X129898207Y-68450295D01*
X129898207Y-68450295D02*
X129898207Y-68593152D01*
X129898207Y-68593152D02*
X129850588Y-68688390D01*
X129850588Y-68688390D02*
X129802969Y-68736009D01*
X129802969Y-68736009D02*
X129707731Y-68783628D01*
X129707731Y-68783628D02*
X129326779Y-68783628D01*
X119846009Y-151000000D02*
X119846009Y-150666667D01*
X120369819Y-150523810D02*
X120369819Y-151000000D01*
X120369819Y-151000000D02*
X119369819Y-151000000D01*
X119369819Y-151000000D02*
X119369819Y-150523810D01*
X120369819Y-150095238D02*
X119369819Y-150095238D01*
X119750771Y-150095238D02*
X119703152Y-150000000D01*
X119703152Y-150000000D02*
X119703152Y-149809524D01*
X119703152Y-149809524D02*
X119750771Y-149714286D01*
X119750771Y-149714286D02*
X119798390Y-149666667D01*
X119798390Y-149666667D02*
X119893628Y-149619048D01*
X119893628Y-149619048D02*
X120179342Y-149619048D01*
X120179342Y-149619048D02*
X120274580Y-149666667D01*
X120274580Y-149666667D02*
X120322200Y-149714286D01*
X120322200Y-149714286D02*
X120369819Y-149809524D01*
X120369819Y-149809524D02*
X120369819Y-150000000D01*
X120369819Y-150000000D02*
X120322200Y-150095238D01*
X120322200Y-148809524D02*
X120369819Y-148904762D01*
X120369819Y-148904762D02*
X120369819Y-149095238D01*
X120369819Y-149095238D02*
X120322200Y-149190476D01*
X120322200Y-149190476D02*
X120226961Y-149238095D01*
X120226961Y-149238095D02*
X119846009Y-149238095D01*
X119846009Y-149238095D02*
X119750771Y-149190476D01*
X119750771Y-149190476D02*
X119703152Y-149095238D01*
X119703152Y-149095238D02*
X119703152Y-148904762D01*
X119703152Y-148904762D02*
X119750771Y-148809524D01*
X119750771Y-148809524D02*
X119846009Y-148761905D01*
X119846009Y-148761905D02*
X119941247Y-148761905D01*
X119941247Y-148761905D02*
X120036485Y-149238095D01*
X120369819Y-148333333D02*
X119703152Y-148333333D01*
X119893628Y-148333333D02*
X119798390Y-148285714D01*
X119798390Y-148285714D02*
X119750771Y-148238095D01*
X119750771Y-148238095D02*
X119703152Y-148142857D01*
X119703152Y-148142857D02*
X119703152Y-148047619D01*
X120369819Y-147714285D02*
X119369819Y-147714285D01*
X119988866Y-147619047D02*
X120369819Y-147333333D01*
X119703152Y-147333333D02*
X120084104Y-147714285D01*
X120369819Y-146904761D02*
X119703152Y-146904761D01*
X119893628Y-146904761D02*
X119798390Y-146857142D01*
X119798390Y-146857142D02*
X119750771Y-146809523D01*
X119750771Y-146809523D02*
X119703152Y-146714285D01*
X119703152Y-146714285D02*
X119703152Y-146619047D01*
X120322200Y-145904761D02*
X120369819Y-145999999D01*
X120369819Y-145999999D02*
X120369819Y-146190475D01*
X120369819Y-146190475D02*
X120322200Y-146285713D01*
X120322200Y-146285713D02*
X120226961Y-146333332D01*
X120226961Y-146333332D02*
X119846009Y-146333332D01*
X119846009Y-146333332D02*
X119750771Y-146285713D01*
X119750771Y-146285713D02*
X119703152Y-146190475D01*
X119703152Y-146190475D02*
X119703152Y-145999999D01*
X119703152Y-145999999D02*
X119750771Y-145904761D01*
X119750771Y-145904761D02*
X119846009Y-145857142D01*
X119846009Y-145857142D02*
X119941247Y-145857142D01*
X119941247Y-145857142D02*
X120036485Y-146333332D01*
X120369819Y-145428570D02*
X119703152Y-145428570D01*
X119369819Y-145428570D02*
X119417438Y-145476189D01*
X119417438Y-145476189D02*
X119465057Y-145428570D01*
X119465057Y-145428570D02*
X119417438Y-145380951D01*
X119417438Y-145380951D02*
X119369819Y-145428570D01*
X119369819Y-145428570D02*
X119465057Y-145428570D01*
X120322200Y-144999999D02*
X120369819Y-144904761D01*
X120369819Y-144904761D02*
X120369819Y-144714285D01*
X120369819Y-144714285D02*
X120322200Y-144619047D01*
X120322200Y-144619047D02*
X120226961Y-144571428D01*
X120226961Y-144571428D02*
X120179342Y-144571428D01*
X120179342Y-144571428D02*
X120084104Y-144619047D01*
X120084104Y-144619047D02*
X120036485Y-144714285D01*
X120036485Y-144714285D02*
X120036485Y-144857142D01*
X120036485Y-144857142D02*
X119988866Y-144952380D01*
X119988866Y-144952380D02*
X119893628Y-144999999D01*
X119893628Y-144999999D02*
X119846009Y-144999999D01*
X119846009Y-144999999D02*
X119750771Y-144952380D01*
X119750771Y-144952380D02*
X119703152Y-144857142D01*
X119703152Y-144857142D02*
X119703152Y-144714285D01*
X119703152Y-144714285D02*
X119750771Y-144619047D01*
X119846009Y-143380951D02*
X119846009Y-143047618D01*
X120369819Y-142904761D02*
X120369819Y-143380951D01*
X120369819Y-143380951D02*
X119369819Y-143380951D01*
X119369819Y-143380951D02*
X119369819Y-142904761D01*
X119703152Y-142476189D02*
X120369819Y-142476189D01*
X119798390Y-142476189D02*
X119750771Y-142428570D01*
X119750771Y-142428570D02*
X119703152Y-142333332D01*
X119703152Y-142333332D02*
X119703152Y-142190475D01*
X119703152Y-142190475D02*
X119750771Y-142095237D01*
X119750771Y-142095237D02*
X119846009Y-142047618D01*
X119846009Y-142047618D02*
X120369819Y-142047618D01*
X119703152Y-141142856D02*
X120512676Y-141142856D01*
X120512676Y-141142856D02*
X120607914Y-141190475D01*
X120607914Y-141190475D02*
X120655533Y-141238094D01*
X120655533Y-141238094D02*
X120703152Y-141333332D01*
X120703152Y-141333332D02*
X120703152Y-141476189D01*
X120703152Y-141476189D02*
X120655533Y-141571427D01*
X120322200Y-141142856D02*
X120369819Y-141238094D01*
X120369819Y-141238094D02*
X120369819Y-141428570D01*
X120369819Y-141428570D02*
X120322200Y-141523808D01*
X120322200Y-141523808D02*
X120274580Y-141571427D01*
X120274580Y-141571427D02*
X120179342Y-141619046D01*
X120179342Y-141619046D02*
X119893628Y-141619046D01*
X119893628Y-141619046D02*
X119798390Y-141571427D01*
X119798390Y-141571427D02*
X119750771Y-141523808D01*
X119750771Y-141523808D02*
X119703152Y-141428570D01*
X119703152Y-141428570D02*
X119703152Y-141238094D01*
X119703152Y-141238094D02*
X119750771Y-141142856D01*
X120369819Y-140666665D02*
X119703152Y-140666665D01*
X119369819Y-140666665D02*
X119417438Y-140714284D01*
X119417438Y-140714284D02*
X119465057Y-140666665D01*
X119465057Y-140666665D02*
X119417438Y-140619046D01*
X119417438Y-140619046D02*
X119369819Y-140666665D01*
X119369819Y-140666665D02*
X119465057Y-140666665D01*
X119703152Y-140190475D02*
X120369819Y-140190475D01*
X119798390Y-140190475D02*
X119750771Y-140142856D01*
X119750771Y-140142856D02*
X119703152Y-140047618D01*
X119703152Y-140047618D02*
X119703152Y-139904761D01*
X119703152Y-139904761D02*
X119750771Y-139809523D01*
X119750771Y-139809523D02*
X119846009Y-139761904D01*
X119846009Y-139761904D02*
X120369819Y-139761904D01*
X120322200Y-138904761D02*
X120369819Y-138999999D01*
X120369819Y-138999999D02*
X120369819Y-139190475D01*
X120369819Y-139190475D02*
X120322200Y-139285713D01*
X120322200Y-139285713D02*
X120226961Y-139333332D01*
X120226961Y-139333332D02*
X119846009Y-139333332D01*
X119846009Y-139333332D02*
X119750771Y-139285713D01*
X119750771Y-139285713D02*
X119703152Y-139190475D01*
X119703152Y-139190475D02*
X119703152Y-138999999D01*
X119703152Y-138999999D02*
X119750771Y-138904761D01*
X119750771Y-138904761D02*
X119846009Y-138857142D01*
X119846009Y-138857142D02*
X119941247Y-138857142D01*
X119941247Y-138857142D02*
X120036485Y-139333332D01*
X120322200Y-138047618D02*
X120369819Y-138142856D01*
X120369819Y-138142856D02*
X120369819Y-138333332D01*
X120369819Y-138333332D02*
X120322200Y-138428570D01*
X120322200Y-138428570D02*
X120226961Y-138476189D01*
X120226961Y-138476189D02*
X119846009Y-138476189D01*
X119846009Y-138476189D02*
X119750771Y-138428570D01*
X119750771Y-138428570D02*
X119703152Y-138333332D01*
X119703152Y-138333332D02*
X119703152Y-138142856D01*
X119703152Y-138142856D02*
X119750771Y-138047618D01*
X119750771Y-138047618D02*
X119846009Y-137999999D01*
X119846009Y-137999999D02*
X119941247Y-137999999D01*
X119941247Y-137999999D02*
X120036485Y-138476189D01*
X120369819Y-137571427D02*
X119703152Y-137571427D01*
X119893628Y-137571427D02*
X119798390Y-137523808D01*
X119798390Y-137523808D02*
X119750771Y-137476189D01*
X119750771Y-137476189D02*
X119703152Y-137380951D01*
X119703152Y-137380951D02*
X119703152Y-137285713D01*
X120369819Y-136952379D02*
X119703152Y-136952379D01*
X119369819Y-136952379D02*
X119417438Y-136999998D01*
X119417438Y-136999998D02*
X119465057Y-136952379D01*
X119465057Y-136952379D02*
X119417438Y-136904760D01*
X119417438Y-136904760D02*
X119369819Y-136952379D01*
X119369819Y-136952379D02*
X119465057Y-136952379D01*
X119703152Y-136476189D02*
X120369819Y-136476189D01*
X119798390Y-136476189D02*
X119750771Y-136428570D01*
X119750771Y-136428570D02*
X119703152Y-136333332D01*
X119703152Y-136333332D02*
X119703152Y-136190475D01*
X119703152Y-136190475D02*
X119750771Y-136095237D01*
X119750771Y-136095237D02*
X119846009Y-136047618D01*
X119846009Y-136047618D02*
X120369819Y-136047618D01*
X119703152Y-135142856D02*
X120512676Y-135142856D01*
X120512676Y-135142856D02*
X120607914Y-135190475D01*
X120607914Y-135190475D02*
X120655533Y-135238094D01*
X120655533Y-135238094D02*
X120703152Y-135333332D01*
X120703152Y-135333332D02*
X120703152Y-135476189D01*
X120703152Y-135476189D02*
X120655533Y-135571427D01*
X120322200Y-135142856D02*
X120369819Y-135238094D01*
X120369819Y-135238094D02*
X120369819Y-135428570D01*
X120369819Y-135428570D02*
X120322200Y-135523808D01*
X120322200Y-135523808D02*
X120274580Y-135571427D01*
X120274580Y-135571427D02*
X120179342Y-135619046D01*
X120179342Y-135619046D02*
X119893628Y-135619046D01*
X119893628Y-135619046D02*
X119798390Y-135571427D01*
X119798390Y-135571427D02*
X119750771Y-135523808D01*
X119750771Y-135523808D02*
X119703152Y-135428570D01*
X119703152Y-135428570D02*
X119703152Y-135238094D01*
X119703152Y-135238094D02*
X119750771Y-135142856D01*
X119417438Y-133380951D02*
X119369819Y-133476189D01*
X119369819Y-133476189D02*
X119369819Y-133619046D01*
X119369819Y-133619046D02*
X119417438Y-133761903D01*
X119417438Y-133761903D02*
X119512676Y-133857141D01*
X119512676Y-133857141D02*
X119607914Y-133904760D01*
X119607914Y-133904760D02*
X119798390Y-133952379D01*
X119798390Y-133952379D02*
X119941247Y-133952379D01*
X119941247Y-133952379D02*
X120131723Y-133904760D01*
X120131723Y-133904760D02*
X120226961Y-133857141D01*
X120226961Y-133857141D02*
X120322200Y-133761903D01*
X120322200Y-133761903D02*
X120369819Y-133619046D01*
X120369819Y-133619046D02*
X120369819Y-133523808D01*
X120369819Y-133523808D02*
X120322200Y-133380951D01*
X120322200Y-133380951D02*
X120274580Y-133333332D01*
X120274580Y-133333332D02*
X119941247Y-133333332D01*
X119941247Y-133333332D02*
X119941247Y-133523808D01*
X120369819Y-132904760D02*
X119703152Y-132904760D01*
X119798390Y-132904760D02*
X119750771Y-132857141D01*
X119750771Y-132857141D02*
X119703152Y-132761903D01*
X119703152Y-132761903D02*
X119703152Y-132619046D01*
X119703152Y-132619046D02*
X119750771Y-132523808D01*
X119750771Y-132523808D02*
X119846009Y-132476189D01*
X119846009Y-132476189D02*
X120369819Y-132476189D01*
X119846009Y-132476189D02*
X119750771Y-132428570D01*
X119750771Y-132428570D02*
X119703152Y-132333332D01*
X119703152Y-132333332D02*
X119703152Y-132190475D01*
X119703152Y-132190475D02*
X119750771Y-132095236D01*
X119750771Y-132095236D02*
X119846009Y-132047617D01*
X119846009Y-132047617D02*
X120369819Y-132047617D01*
X119846009Y-131238094D02*
X119893628Y-131095237D01*
X119893628Y-131095237D02*
X119941247Y-131047618D01*
X119941247Y-131047618D02*
X120036485Y-130999999D01*
X120036485Y-130999999D02*
X120179342Y-130999999D01*
X120179342Y-130999999D02*
X120274580Y-131047618D01*
X120274580Y-131047618D02*
X120322200Y-131095237D01*
X120322200Y-131095237D02*
X120369819Y-131190475D01*
X120369819Y-131190475D02*
X120369819Y-131571427D01*
X120369819Y-131571427D02*
X119369819Y-131571427D01*
X119369819Y-131571427D02*
X119369819Y-131238094D01*
X119369819Y-131238094D02*
X119417438Y-131142856D01*
X119417438Y-131142856D02*
X119465057Y-131095237D01*
X119465057Y-131095237D02*
X119560295Y-131047618D01*
X119560295Y-131047618D02*
X119655533Y-131047618D01*
X119655533Y-131047618D02*
X119750771Y-131095237D01*
X119750771Y-131095237D02*
X119798390Y-131142856D01*
X119798390Y-131142856D02*
X119846009Y-131238094D01*
X119846009Y-131238094D02*
X119846009Y-131571427D01*
X120369819Y-130571427D02*
X119369819Y-130571427D01*
X119846009Y-130571427D02*
X119846009Y-129999999D01*
X120369819Y-129999999D02*
X119369819Y-129999999D01*
X121456009Y-142047618D02*
X121456009Y-141714285D01*
X121979819Y-141571428D02*
X121979819Y-142047618D01*
X121979819Y-142047618D02*
X120979819Y-142047618D01*
X120979819Y-142047618D02*
X120979819Y-141571428D01*
X120979819Y-141285713D02*
X120979819Y-140714285D01*
X121979819Y-140999999D02*
X120979819Y-140999999D01*
X121075057Y-140428570D02*
X121027438Y-140380951D01*
X121027438Y-140380951D02*
X120979819Y-140285713D01*
X120979819Y-140285713D02*
X120979819Y-140047618D01*
X120979819Y-140047618D02*
X121027438Y-139952380D01*
X121027438Y-139952380D02*
X121075057Y-139904761D01*
X121075057Y-139904761D02*
X121170295Y-139857142D01*
X121170295Y-139857142D02*
X121265533Y-139857142D01*
X121265533Y-139857142D02*
X121408390Y-139904761D01*
X121408390Y-139904761D02*
X121979819Y-140476189D01*
X121979819Y-140476189D02*
X121979819Y-139857142D01*
X121979819Y-138904761D02*
X121979819Y-139476189D01*
X121979819Y-139190475D02*
X120979819Y-139190475D01*
X120979819Y-139190475D02*
X121122676Y-139285713D01*
X121122676Y-139285713D02*
X121217914Y-139380951D01*
X121217914Y-139380951D02*
X121265533Y-139476189D01*
X134804819Y-146212857D02*
X134804819Y-146689047D01*
X134804819Y-146689047D02*
X133804819Y-146689047D01*
X134804819Y-145355714D02*
X134804819Y-145927142D01*
X134804819Y-145641428D02*
X133804819Y-145641428D01*
X133804819Y-145641428D02*
X133947676Y-145736666D01*
X133947676Y-145736666D02*
X134042914Y-145831904D01*
X134042914Y-145831904D02*
X134090533Y-145927142D01*
X134804819Y-144403333D02*
X134804819Y-144974761D01*
X134804819Y-144689047D02*
X133804819Y-144689047D01*
X133804819Y-144689047D02*
X133947676Y-144784285D01*
X133947676Y-144784285D02*
X134042914Y-144879523D01*
X134042914Y-144879523D02*
X134090533Y-144974761D01*
X130296779Y-69259819D02*
X130296779Y-68259819D01*
X130296779Y-68259819D02*
X130534874Y-68259819D01*
X130534874Y-68259819D02*
X130677731Y-68307438D01*
X130677731Y-68307438D02*
X130772969Y-68402676D01*
X130772969Y-68402676D02*
X130820588Y-68497914D01*
X130820588Y-68497914D02*
X130868207Y-68688390D01*
X130868207Y-68688390D02*
X130868207Y-68831247D01*
X130868207Y-68831247D02*
X130820588Y-69021723D01*
X130820588Y-69021723D02*
X130772969Y-69116961D01*
X130772969Y-69116961D02*
X130677731Y-69212200D01*
X130677731Y-69212200D02*
X130534874Y-69259819D01*
X130534874Y-69259819D02*
X130296779Y-69259819D01*
X131296779Y-69259819D02*
X131296779Y-68259819D01*
X131296779Y-68259819D02*
X131868207Y-69259819D01*
X131868207Y-69259819D02*
X131868207Y-68259819D01*
X135153333Y-37194819D02*
X134820000Y-36718628D01*
X134581905Y-37194819D02*
X134581905Y-36194819D01*
X134581905Y-36194819D02*
X134962857Y-36194819D01*
X134962857Y-36194819D02*
X135058095Y-36242438D01*
X135058095Y-36242438D02*
X135105714Y-36290057D01*
X135105714Y-36290057D02*
X135153333Y-36385295D01*
X135153333Y-36385295D02*
X135153333Y-36528152D01*
X135153333Y-36528152D02*
X135105714Y-36623390D01*
X135105714Y-36623390D02*
X135058095Y-36671009D01*
X135058095Y-36671009D02*
X134962857Y-36718628D01*
X134962857Y-36718628D02*
X134581905Y-36718628D01*
X136105714Y-37194819D02*
X135534286Y-37194819D01*
X135820000Y-37194819D02*
X135820000Y-36194819D01*
X135820000Y-36194819D02*
X135724762Y-36337676D01*
X135724762Y-36337676D02*
X135629524Y-36432914D01*
X135629524Y-36432914D02*
X135534286Y-36480533D01*
X137866666Y-40254819D02*
X137866666Y-40969104D01*
X137866666Y-40969104D02*
X137819047Y-41111961D01*
X137819047Y-41111961D02*
X137723809Y-41207200D01*
X137723809Y-41207200D02*
X137580952Y-41254819D01*
X137580952Y-41254819D02*
X137485714Y-41254819D01*
X138819047Y-40254819D02*
X138342857Y-40254819D01*
X138342857Y-40254819D02*
X138295238Y-40731009D01*
X138295238Y-40731009D02*
X138342857Y-40683390D01*
X138342857Y-40683390D02*
X138438095Y-40635771D01*
X138438095Y-40635771D02*
X138676190Y-40635771D01*
X138676190Y-40635771D02*
X138771428Y-40683390D01*
X138771428Y-40683390D02*
X138819047Y-40731009D01*
X138819047Y-40731009D02*
X138866666Y-40826247D01*
X138866666Y-40826247D02*
X138866666Y-41064342D01*
X138866666Y-41064342D02*
X138819047Y-41159580D01*
X138819047Y-41159580D02*
X138771428Y-41207200D01*
X138771428Y-41207200D02*
X138676190Y-41254819D01*
X138676190Y-41254819D02*
X138438095Y-41254819D01*
X138438095Y-41254819D02*
X138342857Y-41207200D01*
X138342857Y-41207200D02*
X138295238Y-41159580D01*
X134760952Y-135739104D02*
X135237142Y-135739104D01*
X134665714Y-136024819D02*
X134999047Y-135024819D01*
X134999047Y-135024819D02*
X135332380Y-136024819D01*
X135665714Y-136024819D02*
X135665714Y-135024819D01*
X135665714Y-135024819D02*
X136237142Y-136024819D01*
X136237142Y-136024819D02*
X136237142Y-135024819D01*
X136570476Y-135024819D02*
X137141904Y-135024819D01*
X136856190Y-136024819D02*
X136856190Y-135024819D01*
X137427619Y-135120057D02*
X137475238Y-135072438D01*
X137475238Y-135072438D02*
X137570476Y-135024819D01*
X137570476Y-135024819D02*
X137808571Y-135024819D01*
X137808571Y-135024819D02*
X137903809Y-135072438D01*
X137903809Y-135072438D02*
X137951428Y-135120057D01*
X137951428Y-135120057D02*
X137999047Y-135215295D01*
X137999047Y-135215295D02*
X137999047Y-135310533D01*
X137999047Y-135310533D02*
X137951428Y-135453390D01*
X137951428Y-135453390D02*
X137380000Y-136024819D01*
X137380000Y-136024819D02*
X137999047Y-136024819D01*
X120734819Y-41228094D02*
X119734819Y-41228094D01*
X119734819Y-41228094D02*
X119734819Y-40989999D01*
X119734819Y-40989999D02*
X119782438Y-40847142D01*
X119782438Y-40847142D02*
X119877676Y-40751904D01*
X119877676Y-40751904D02*
X119972914Y-40704285D01*
X119972914Y-40704285D02*
X120163390Y-40656666D01*
X120163390Y-40656666D02*
X120306247Y-40656666D01*
X120306247Y-40656666D02*
X120496723Y-40704285D01*
X120496723Y-40704285D02*
X120591961Y-40751904D01*
X120591961Y-40751904D02*
X120687200Y-40847142D01*
X120687200Y-40847142D02*
X120734819Y-40989999D01*
X120734819Y-40989999D02*
X120734819Y-41228094D01*
X119734819Y-39799523D02*
X119734819Y-39989999D01*
X119734819Y-39989999D02*
X119782438Y-40085237D01*
X119782438Y-40085237D02*
X119830057Y-40132856D01*
X119830057Y-40132856D02*
X119972914Y-40228094D01*
X119972914Y-40228094D02*
X120163390Y-40275713D01*
X120163390Y-40275713D02*
X120544342Y-40275713D01*
X120544342Y-40275713D02*
X120639580Y-40228094D01*
X120639580Y-40228094D02*
X120687200Y-40180475D01*
X120687200Y-40180475D02*
X120734819Y-40085237D01*
X120734819Y-40085237D02*
X120734819Y-39894761D01*
X120734819Y-39894761D02*
X120687200Y-39799523D01*
X120687200Y-39799523D02*
X120639580Y-39751904D01*
X120639580Y-39751904D02*
X120544342Y-39704285D01*
X120544342Y-39704285D02*
X120306247Y-39704285D01*
X120306247Y-39704285D02*
X120211009Y-39751904D01*
X120211009Y-39751904D02*
X120163390Y-39799523D01*
X120163390Y-39799523D02*
X120115771Y-39894761D01*
X120115771Y-39894761D02*
X120115771Y-40085237D01*
X120115771Y-40085237D02*
X120163390Y-40180475D01*
X120163390Y-40180475D02*
X120211009Y-40228094D01*
X120211009Y-40228094D02*
X120306247Y-40275713D01*
X122484819Y-41228094D02*
X121484819Y-41228094D01*
X121484819Y-41228094D02*
X121484819Y-40989999D01*
X121484819Y-40989999D02*
X121532438Y-40847142D01*
X121532438Y-40847142D02*
X121627676Y-40751904D01*
X121627676Y-40751904D02*
X121722914Y-40704285D01*
X121722914Y-40704285D02*
X121913390Y-40656666D01*
X121913390Y-40656666D02*
X122056247Y-40656666D01*
X122056247Y-40656666D02*
X122246723Y-40704285D01*
X122246723Y-40704285D02*
X122341961Y-40751904D01*
X122341961Y-40751904D02*
X122437200Y-40847142D01*
X122437200Y-40847142D02*
X122484819Y-40989999D01*
X122484819Y-40989999D02*
X122484819Y-41228094D01*
X121484819Y-40323332D02*
X121484819Y-39656666D01*
X121484819Y-39656666D02*
X122484819Y-40085237D01*
X125613333Y-37164819D02*
X125280000Y-36688628D01*
X125041905Y-37164819D02*
X125041905Y-36164819D01*
X125041905Y-36164819D02*
X125422857Y-36164819D01*
X125422857Y-36164819D02*
X125518095Y-36212438D01*
X125518095Y-36212438D02*
X125565714Y-36260057D01*
X125565714Y-36260057D02*
X125613333Y-36355295D01*
X125613333Y-36355295D02*
X125613333Y-36498152D01*
X125613333Y-36498152D02*
X125565714Y-36593390D01*
X125565714Y-36593390D02*
X125518095Y-36641009D01*
X125518095Y-36641009D02*
X125422857Y-36688628D01*
X125422857Y-36688628D02*
X125041905Y-36688628D01*
X125994286Y-36260057D02*
X126041905Y-36212438D01*
X126041905Y-36212438D02*
X126137143Y-36164819D01*
X126137143Y-36164819D02*
X126375238Y-36164819D01*
X126375238Y-36164819D02*
X126470476Y-36212438D01*
X126470476Y-36212438D02*
X126518095Y-36260057D01*
X126518095Y-36260057D02*
X126565714Y-36355295D01*
X126565714Y-36355295D02*
X126565714Y-36450533D01*
X126565714Y-36450533D02*
X126518095Y-36593390D01*
X126518095Y-36593390D02*
X125946667Y-37164819D01*
X125946667Y-37164819D02*
X126565714Y-37164819D01*
X124633333Y-130589580D02*
X124585714Y-130637200D01*
X124585714Y-130637200D02*
X124442857Y-130684819D01*
X124442857Y-130684819D02*
X124347619Y-130684819D01*
X124347619Y-130684819D02*
X124204762Y-130637200D01*
X124204762Y-130637200D02*
X124109524Y-130541961D01*
X124109524Y-130541961D02*
X124061905Y-130446723D01*
X124061905Y-130446723D02*
X124014286Y-130256247D01*
X124014286Y-130256247D02*
X124014286Y-130113390D01*
X124014286Y-130113390D02*
X124061905Y-129922914D01*
X124061905Y-129922914D02*
X124109524Y-129827676D01*
X124109524Y-129827676D02*
X124204762Y-129732438D01*
X124204762Y-129732438D02*
X124347619Y-129684819D01*
X124347619Y-129684819D02*
X124442857Y-129684819D01*
X124442857Y-129684819D02*
X124585714Y-129732438D01*
X124585714Y-129732438D02*
X124633333Y-129780057D01*
X125490476Y-130018152D02*
X125490476Y-130684819D01*
X125252381Y-129637200D02*
X125014286Y-130351485D01*
X125014286Y-130351485D02*
X125633333Y-130351485D01*
X128638095Y-72344819D02*
X129209523Y-72344819D01*
X128923809Y-73344819D02*
X128923809Y-72344819D01*
X129542857Y-73344819D02*
X129542857Y-72344819D01*
X129542857Y-72344819D02*
X129923809Y-72344819D01*
X129923809Y-72344819D02*
X130019047Y-72392438D01*
X130019047Y-72392438D02*
X130066666Y-72440057D01*
X130066666Y-72440057D02*
X130114285Y-72535295D01*
X130114285Y-72535295D02*
X130114285Y-72678152D01*
X130114285Y-72678152D02*
X130066666Y-72773390D01*
X130066666Y-72773390D02*
X130019047Y-72821009D01*
X130019047Y-72821009D02*
X129923809Y-72868628D01*
X129923809Y-72868628D02*
X129542857Y-72868628D01*
X130447619Y-72344819D02*
X131066666Y-72344819D01*
X131066666Y-72344819D02*
X130733333Y-72725771D01*
X130733333Y-72725771D02*
X130876190Y-72725771D01*
X130876190Y-72725771D02*
X130971428Y-72773390D01*
X130971428Y-72773390D02*
X131019047Y-72821009D01*
X131019047Y-72821009D02*
X131066666Y-72916247D01*
X131066666Y-72916247D02*
X131066666Y-73154342D01*
X131066666Y-73154342D02*
X131019047Y-73249580D01*
X131019047Y-73249580D02*
X130971428Y-73297200D01*
X130971428Y-73297200D02*
X130876190Y-73344819D01*
X130876190Y-73344819D02*
X130590476Y-73344819D01*
X130590476Y-73344819D02*
X130495238Y-73297200D01*
X130495238Y-73297200D02*
X130447619Y-73249580D01*
X124087142Y-146024819D02*
X123610952Y-146024819D01*
X123610952Y-146024819D02*
X123610952Y-145024819D01*
X124944285Y-146024819D02*
X124372857Y-146024819D01*
X124658571Y-146024819D02*
X124658571Y-145024819D01*
X124658571Y-145024819D02*
X124563333Y-145167676D01*
X124563333Y-145167676D02*
X124468095Y-145262914D01*
X124468095Y-145262914D02*
X124372857Y-145310533D01*
X125563333Y-145024819D02*
X125658571Y-145024819D01*
X125658571Y-145024819D02*
X125753809Y-145072438D01*
X125753809Y-145072438D02*
X125801428Y-145120057D01*
X125801428Y-145120057D02*
X125849047Y-145215295D01*
X125849047Y-145215295D02*
X125896666Y-145405771D01*
X125896666Y-145405771D02*
X125896666Y-145643866D01*
X125896666Y-145643866D02*
X125849047Y-145834342D01*
X125849047Y-145834342D02*
X125801428Y-145929580D01*
X125801428Y-145929580D02*
X125753809Y-145977200D01*
X125753809Y-145977200D02*
X125658571Y-146024819D01*
X125658571Y-146024819D02*
X125563333Y-146024819D01*
X125563333Y-146024819D02*
X125468095Y-145977200D01*
X125468095Y-145977200D02*
X125420476Y-145929580D01*
X125420476Y-145929580D02*
X125372857Y-145834342D01*
X125372857Y-145834342D02*
X125325238Y-145643866D01*
X125325238Y-145643866D02*
X125325238Y-145405771D01*
X125325238Y-145405771D02*
X125372857Y-145215295D01*
X125372857Y-145215295D02*
X125420476Y-145120057D01*
X125420476Y-145120057D02*
X125468095Y-145072438D01*
X125468095Y-145072438D02*
X125563333Y-145024819D01*
X122883333Y-148624819D02*
X122407143Y-148624819D01*
X122407143Y-148624819D02*
X122407143Y-147624819D01*
X123359524Y-148053390D02*
X123264286Y-148005771D01*
X123264286Y-148005771D02*
X123216667Y-147958152D01*
X123216667Y-147958152D02*
X123169048Y-147862914D01*
X123169048Y-147862914D02*
X123169048Y-147815295D01*
X123169048Y-147815295D02*
X123216667Y-147720057D01*
X123216667Y-147720057D02*
X123264286Y-147672438D01*
X123264286Y-147672438D02*
X123359524Y-147624819D01*
X123359524Y-147624819D02*
X123550000Y-147624819D01*
X123550000Y-147624819D02*
X123645238Y-147672438D01*
X123645238Y-147672438D02*
X123692857Y-147720057D01*
X123692857Y-147720057D02*
X123740476Y-147815295D01*
X123740476Y-147815295D02*
X123740476Y-147862914D01*
X123740476Y-147862914D02*
X123692857Y-147958152D01*
X123692857Y-147958152D02*
X123645238Y-148005771D01*
X123645238Y-148005771D02*
X123550000Y-148053390D01*
X123550000Y-148053390D02*
X123359524Y-148053390D01*
X123359524Y-148053390D02*
X123264286Y-148101009D01*
X123264286Y-148101009D02*
X123216667Y-148148628D01*
X123216667Y-148148628D02*
X123169048Y-148243866D01*
X123169048Y-148243866D02*
X123169048Y-148434342D01*
X123169048Y-148434342D02*
X123216667Y-148529580D01*
X123216667Y-148529580D02*
X123264286Y-148577200D01*
X123264286Y-148577200D02*
X123359524Y-148624819D01*
X123359524Y-148624819D02*
X123550000Y-148624819D01*
X123550000Y-148624819D02*
X123645238Y-148577200D01*
X123645238Y-148577200D02*
X123692857Y-148529580D01*
X123692857Y-148529580D02*
X123740476Y-148434342D01*
X123740476Y-148434342D02*
X123740476Y-148243866D01*
X123740476Y-148243866D02*
X123692857Y-148148628D01*
X123692857Y-148148628D02*
X123645238Y-148101009D01*
X123645238Y-148101009D02*
X123550000Y-148053390D01*
X134006666Y-45094819D02*
X134006666Y-45809104D01*
X134006666Y-45809104D02*
X133959047Y-45951961D01*
X133959047Y-45951961D02*
X133863809Y-46047200D01*
X133863809Y-46047200D02*
X133720952Y-46094819D01*
X133720952Y-46094819D02*
X133625714Y-46094819D01*
X134482857Y-46094819D02*
X134482857Y-45094819D01*
X134482857Y-45094819D02*
X134863809Y-45094819D01*
X134863809Y-45094819D02*
X134959047Y-45142438D01*
X134959047Y-45142438D02*
X135006666Y-45190057D01*
X135006666Y-45190057D02*
X135054285Y-45285295D01*
X135054285Y-45285295D02*
X135054285Y-45428152D01*
X135054285Y-45428152D02*
X135006666Y-45523390D01*
X135006666Y-45523390D02*
X134959047Y-45571009D01*
X134959047Y-45571009D02*
X134863809Y-45618628D01*
X134863809Y-45618628D02*
X134482857Y-45618628D01*
X136006666Y-46094819D02*
X135435238Y-46094819D01*
X135720952Y-46094819D02*
X135720952Y-45094819D01*
X135720952Y-45094819D02*
X135625714Y-45237676D01*
X135625714Y-45237676D02*
X135530476Y-45332914D01*
X135530476Y-45332914D02*
X135435238Y-45380533D01*
X136054819Y-32538094D02*
X135054819Y-32538094D01*
X135054819Y-32538094D02*
X135054819Y-32299999D01*
X135054819Y-32299999D02*
X135102438Y-32157142D01*
X135102438Y-32157142D02*
X135197676Y-32061904D01*
X135197676Y-32061904D02*
X135292914Y-32014285D01*
X135292914Y-32014285D02*
X135483390Y-31966666D01*
X135483390Y-31966666D02*
X135626247Y-31966666D01*
X135626247Y-31966666D02*
X135816723Y-32014285D01*
X135816723Y-32014285D02*
X135911961Y-32061904D01*
X135911961Y-32061904D02*
X136007200Y-32157142D01*
X136007200Y-32157142D02*
X136054819Y-32299999D01*
X136054819Y-32299999D02*
X136054819Y-32538094D01*
X136054819Y-31014285D02*
X136054819Y-31585713D01*
X136054819Y-31299999D02*
X135054819Y-31299999D01*
X135054819Y-31299999D02*
X135197676Y-31395237D01*
X135197676Y-31395237D02*
X135292914Y-31490475D01*
X135292914Y-31490475D02*
X135340533Y-31585713D01*
X129438095Y-39954819D02*
X129438095Y-40764342D01*
X129438095Y-40764342D02*
X129485714Y-40859580D01*
X129485714Y-40859580D02*
X129533333Y-40907200D01*
X129533333Y-40907200D02*
X129628571Y-40954819D01*
X129628571Y-40954819D02*
X129819047Y-40954819D01*
X129819047Y-40954819D02*
X129914285Y-40907200D01*
X129914285Y-40907200D02*
X129961904Y-40859580D01*
X129961904Y-40859580D02*
X130009523Y-40764342D01*
X130009523Y-40764342D02*
X130009523Y-39954819D01*
X130390476Y-39954819D02*
X131009523Y-39954819D01*
X131009523Y-39954819D02*
X130676190Y-40335771D01*
X130676190Y-40335771D02*
X130819047Y-40335771D01*
X130819047Y-40335771D02*
X130914285Y-40383390D01*
X130914285Y-40383390D02*
X130961904Y-40431009D01*
X130961904Y-40431009D02*
X131009523Y-40526247D01*
X131009523Y-40526247D02*
X131009523Y-40764342D01*
X131009523Y-40764342D02*
X130961904Y-40859580D01*
X130961904Y-40859580D02*
X130914285Y-40907200D01*
X130914285Y-40907200D02*
X130819047Y-40954819D01*
X130819047Y-40954819D02*
X130533333Y-40954819D01*
X130533333Y-40954819D02*
X130438095Y-40907200D01*
X130438095Y-40907200D02*
X130390476Y-40859580D01*
X125196666Y-55574819D02*
X125196666Y-56289104D01*
X125196666Y-56289104D02*
X125149047Y-56431961D01*
X125149047Y-56431961D02*
X125053809Y-56527200D01*
X125053809Y-56527200D02*
X124910952Y-56574819D01*
X124910952Y-56574819D02*
X124815714Y-56574819D01*
X125577619Y-55574819D02*
X126196666Y-55574819D01*
X126196666Y-55574819D02*
X125863333Y-55955771D01*
X125863333Y-55955771D02*
X126006190Y-55955771D01*
X126006190Y-55955771D02*
X126101428Y-56003390D01*
X126101428Y-56003390D02*
X126149047Y-56051009D01*
X126149047Y-56051009D02*
X126196666Y-56146247D01*
X126196666Y-56146247D02*
X126196666Y-56384342D01*
X126196666Y-56384342D02*
X126149047Y-56479580D01*
X126149047Y-56479580D02*
X126101428Y-56527200D01*
X126101428Y-56527200D02*
X126006190Y-56574819D01*
X126006190Y-56574819D02*
X125720476Y-56574819D01*
X125720476Y-56574819D02*
X125625238Y-56527200D01*
X125625238Y-56527200D02*
X125577619Y-56479580D01*
X122464819Y-49716666D02*
X121988628Y-50049999D01*
X122464819Y-50288094D02*
X121464819Y-50288094D01*
X121464819Y-50288094D02*
X121464819Y-49907142D01*
X121464819Y-49907142D02*
X121512438Y-49811904D01*
X121512438Y-49811904D02*
X121560057Y-49764285D01*
X121560057Y-49764285D02*
X121655295Y-49716666D01*
X121655295Y-49716666D02*
X121798152Y-49716666D01*
X121798152Y-49716666D02*
X121893390Y-49764285D01*
X121893390Y-49764285D02*
X121941009Y-49811904D01*
X121941009Y-49811904D02*
X121988628Y-49907142D01*
X121988628Y-49907142D02*
X121988628Y-50288094D01*
X121893390Y-49145237D02*
X121845771Y-49240475D01*
X121845771Y-49240475D02*
X121798152Y-49288094D01*
X121798152Y-49288094D02*
X121702914Y-49335713D01*
X121702914Y-49335713D02*
X121655295Y-49335713D01*
X121655295Y-49335713D02*
X121560057Y-49288094D01*
X121560057Y-49288094D02*
X121512438Y-49240475D01*
X121512438Y-49240475D02*
X121464819Y-49145237D01*
X121464819Y-49145237D02*
X121464819Y-48954761D01*
X121464819Y-48954761D02*
X121512438Y-48859523D01*
X121512438Y-48859523D02*
X121560057Y-48811904D01*
X121560057Y-48811904D02*
X121655295Y-48764285D01*
X121655295Y-48764285D02*
X121702914Y-48764285D01*
X121702914Y-48764285D02*
X121798152Y-48811904D01*
X121798152Y-48811904D02*
X121845771Y-48859523D01*
X121845771Y-48859523D02*
X121893390Y-48954761D01*
X121893390Y-48954761D02*
X121893390Y-49145237D01*
X121893390Y-49145237D02*
X121941009Y-49240475D01*
X121941009Y-49240475D02*
X121988628Y-49288094D01*
X121988628Y-49288094D02*
X122083866Y-49335713D01*
X122083866Y-49335713D02*
X122274342Y-49335713D01*
X122274342Y-49335713D02*
X122369580Y-49288094D01*
X122369580Y-49288094D02*
X122417200Y-49240475D01*
X122417200Y-49240475D02*
X122464819Y-49145237D01*
X122464819Y-49145237D02*
X122464819Y-48954761D01*
X122464819Y-48954761D02*
X122417200Y-48859523D01*
X122417200Y-48859523D02*
X122369580Y-48811904D01*
X122369580Y-48811904D02*
X122274342Y-48764285D01*
X122274342Y-48764285D02*
X122083866Y-48764285D01*
X122083866Y-48764285D02*
X121988628Y-48811904D01*
X121988628Y-48811904D02*
X121941009Y-48859523D01*
X121941009Y-48859523D02*
X121893390Y-48954761D01*
X131164819Y-60256666D02*
X130688628Y-60589999D01*
X131164819Y-60828094D02*
X130164819Y-60828094D01*
X130164819Y-60828094D02*
X130164819Y-60447142D01*
X130164819Y-60447142D02*
X130212438Y-60351904D01*
X130212438Y-60351904D02*
X130260057Y-60304285D01*
X130260057Y-60304285D02*
X130355295Y-60256666D01*
X130355295Y-60256666D02*
X130498152Y-60256666D01*
X130498152Y-60256666D02*
X130593390Y-60304285D01*
X130593390Y-60304285D02*
X130641009Y-60351904D01*
X130641009Y-60351904D02*
X130688628Y-60447142D01*
X130688628Y-60447142D02*
X130688628Y-60828094D01*
X131164819Y-59780475D02*
X131164819Y-59589999D01*
X131164819Y-59589999D02*
X131117200Y-59494761D01*
X131117200Y-59494761D02*
X131069580Y-59447142D01*
X131069580Y-59447142D02*
X130926723Y-59351904D01*
X130926723Y-59351904D02*
X130736247Y-59304285D01*
X130736247Y-59304285D02*
X130355295Y-59304285D01*
X130355295Y-59304285D02*
X130260057Y-59351904D01*
X130260057Y-59351904D02*
X130212438Y-59399523D01*
X130212438Y-59399523D02*
X130164819Y-59494761D01*
X130164819Y-59494761D02*
X130164819Y-59685237D01*
X130164819Y-59685237D02*
X130212438Y-59780475D01*
X130212438Y-59780475D02*
X130260057Y-59828094D01*
X130260057Y-59828094D02*
X130355295Y-59875713D01*
X130355295Y-59875713D02*
X130593390Y-59875713D01*
X130593390Y-59875713D02*
X130688628Y-59828094D01*
X130688628Y-59828094D02*
X130736247Y-59780475D01*
X130736247Y-59780475D02*
X130783866Y-59685237D01*
X130783866Y-59685237D02*
X130783866Y-59494761D01*
X130783866Y-59494761D02*
X130736247Y-59399523D01*
X130736247Y-59399523D02*
X130688628Y-59351904D01*
X130688628Y-59351904D02*
X130593390Y-59304285D01*
X127537142Y-138994819D02*
X127060952Y-138994819D01*
X127060952Y-138994819D02*
X127060952Y-137994819D01*
X128394285Y-138994819D02*
X127822857Y-138994819D01*
X128108571Y-138994819D02*
X128108571Y-137994819D01*
X128108571Y-137994819D02*
X128013333Y-138137676D01*
X128013333Y-138137676D02*
X127918095Y-138232914D01*
X127918095Y-138232914D02*
X127822857Y-138280533D01*
X128727619Y-137994819D02*
X129346666Y-137994819D01*
X129346666Y-137994819D02*
X129013333Y-138375771D01*
X129013333Y-138375771D02*
X129156190Y-138375771D01*
X129156190Y-138375771D02*
X129251428Y-138423390D01*
X129251428Y-138423390D02*
X129299047Y-138471009D01*
X129299047Y-138471009D02*
X129346666Y-138566247D01*
X129346666Y-138566247D02*
X129346666Y-138804342D01*
X129346666Y-138804342D02*
X129299047Y-138899580D01*
X129299047Y-138899580D02*
X129251428Y-138947200D01*
X129251428Y-138947200D02*
X129156190Y-138994819D01*
X129156190Y-138994819D02*
X128870476Y-138994819D01*
X128870476Y-138994819D02*
X128775238Y-138947200D01*
X128775238Y-138947200D02*
X128727619Y-138899580D01*
X133583333Y-41939580D02*
X133535714Y-41987200D01*
X133535714Y-41987200D02*
X133392857Y-42034819D01*
X133392857Y-42034819D02*
X133297619Y-42034819D01*
X133297619Y-42034819D02*
X133154762Y-41987200D01*
X133154762Y-41987200D02*
X133059524Y-41891961D01*
X133059524Y-41891961D02*
X133011905Y-41796723D01*
X133011905Y-41796723D02*
X132964286Y-41606247D01*
X132964286Y-41606247D02*
X132964286Y-41463390D01*
X132964286Y-41463390D02*
X133011905Y-41272914D01*
X133011905Y-41272914D02*
X133059524Y-41177676D01*
X133059524Y-41177676D02*
X133154762Y-41082438D01*
X133154762Y-41082438D02*
X133297619Y-41034819D01*
X133297619Y-41034819D02*
X133392857Y-41034819D01*
X133392857Y-41034819D02*
X133535714Y-41082438D01*
X133535714Y-41082438D02*
X133583333Y-41130057D01*
X133964286Y-41130057D02*
X134011905Y-41082438D01*
X134011905Y-41082438D02*
X134107143Y-41034819D01*
X134107143Y-41034819D02*
X134345238Y-41034819D01*
X134345238Y-41034819D02*
X134440476Y-41082438D01*
X134440476Y-41082438D02*
X134488095Y-41130057D01*
X134488095Y-41130057D02*
X134535714Y-41225295D01*
X134535714Y-41225295D02*
X134535714Y-41320533D01*
X134535714Y-41320533D02*
X134488095Y-41463390D01*
X134488095Y-41463390D02*
X133916667Y-42034819D01*
X133916667Y-42034819D02*
X134535714Y-42034819D01*
X120714819Y-49726666D02*
X120238628Y-50059999D01*
X120714819Y-50298094D02*
X119714819Y-50298094D01*
X119714819Y-50298094D02*
X119714819Y-49917142D01*
X119714819Y-49917142D02*
X119762438Y-49821904D01*
X119762438Y-49821904D02*
X119810057Y-49774285D01*
X119810057Y-49774285D02*
X119905295Y-49726666D01*
X119905295Y-49726666D02*
X120048152Y-49726666D01*
X120048152Y-49726666D02*
X120143390Y-49774285D01*
X120143390Y-49774285D02*
X120191009Y-49821904D01*
X120191009Y-49821904D02*
X120238628Y-49917142D01*
X120238628Y-49917142D02*
X120238628Y-50298094D01*
X119714819Y-49393332D02*
X119714819Y-48726666D01*
X119714819Y-48726666D02*
X120714819Y-49155237D01*
X136167142Y-118004819D02*
X135833809Y-117528628D01*
X135595714Y-118004819D02*
X135595714Y-117004819D01*
X135595714Y-117004819D02*
X135976666Y-117004819D01*
X135976666Y-117004819D02*
X136071904Y-117052438D01*
X136071904Y-117052438D02*
X136119523Y-117100057D01*
X136119523Y-117100057D02*
X136167142Y-117195295D01*
X136167142Y-117195295D02*
X136167142Y-117338152D01*
X136167142Y-117338152D02*
X136119523Y-117433390D01*
X136119523Y-117433390D02*
X136071904Y-117481009D01*
X136071904Y-117481009D02*
X135976666Y-117528628D01*
X135976666Y-117528628D02*
X135595714Y-117528628D01*
X137119523Y-118004819D02*
X136548095Y-118004819D01*
X136833809Y-118004819D02*
X136833809Y-117004819D01*
X136833809Y-117004819D02*
X136738571Y-117147676D01*
X136738571Y-117147676D02*
X136643333Y-117242914D01*
X136643333Y-117242914D02*
X136548095Y-117290533D01*
X138071904Y-118004819D02*
X137500476Y-118004819D01*
X137786190Y-118004819D02*
X137786190Y-117004819D01*
X137786190Y-117004819D02*
X137690952Y-117147676D01*
X137690952Y-117147676D02*
X137595714Y-117242914D01*
X137595714Y-117242914D02*
X137500476Y-117290533D01*
X124214819Y-41218094D02*
X123214819Y-41218094D01*
X123214819Y-41218094D02*
X123214819Y-40979999D01*
X123214819Y-40979999D02*
X123262438Y-40837142D01*
X123262438Y-40837142D02*
X123357676Y-40741904D01*
X123357676Y-40741904D02*
X123452914Y-40694285D01*
X123452914Y-40694285D02*
X123643390Y-40646666D01*
X123643390Y-40646666D02*
X123786247Y-40646666D01*
X123786247Y-40646666D02*
X123976723Y-40694285D01*
X123976723Y-40694285D02*
X124071961Y-40741904D01*
X124071961Y-40741904D02*
X124167200Y-40837142D01*
X124167200Y-40837142D02*
X124214819Y-40979999D01*
X124214819Y-40979999D02*
X124214819Y-41218094D01*
X123310057Y-40265713D02*
X123262438Y-40218094D01*
X123262438Y-40218094D02*
X123214819Y-40122856D01*
X123214819Y-40122856D02*
X123214819Y-39884761D01*
X123214819Y-39884761D02*
X123262438Y-39789523D01*
X123262438Y-39789523D02*
X123310057Y-39741904D01*
X123310057Y-39741904D02*
X123405295Y-39694285D01*
X123405295Y-39694285D02*
X123500533Y-39694285D01*
X123500533Y-39694285D02*
X123643390Y-39741904D01*
X123643390Y-39741904D02*
X124214819Y-40313332D01*
X124214819Y-40313332D02*
X124214819Y-39694285D01*
X127664819Y-51416666D02*
X127188628Y-51749999D01*
X127664819Y-51988094D02*
X126664819Y-51988094D01*
X126664819Y-51988094D02*
X126664819Y-51607142D01*
X126664819Y-51607142D02*
X126712438Y-51511904D01*
X126712438Y-51511904D02*
X126760057Y-51464285D01*
X126760057Y-51464285D02*
X126855295Y-51416666D01*
X126855295Y-51416666D02*
X126998152Y-51416666D01*
X126998152Y-51416666D02*
X127093390Y-51464285D01*
X127093390Y-51464285D02*
X127141009Y-51511904D01*
X127141009Y-51511904D02*
X127188628Y-51607142D01*
X127188628Y-51607142D02*
X127188628Y-51988094D01*
X126998152Y-50559523D02*
X127664819Y-50559523D01*
X126617200Y-50797618D02*
X127331485Y-51035713D01*
X127331485Y-51035713D02*
X127331485Y-50416666D01*
X130123333Y-38569580D02*
X130075714Y-38617200D01*
X130075714Y-38617200D02*
X129932857Y-38664819D01*
X129932857Y-38664819D02*
X129837619Y-38664819D01*
X129837619Y-38664819D02*
X129694762Y-38617200D01*
X129694762Y-38617200D02*
X129599524Y-38521961D01*
X129599524Y-38521961D02*
X129551905Y-38426723D01*
X129551905Y-38426723D02*
X129504286Y-38236247D01*
X129504286Y-38236247D02*
X129504286Y-38093390D01*
X129504286Y-38093390D02*
X129551905Y-37902914D01*
X129551905Y-37902914D02*
X129599524Y-37807676D01*
X129599524Y-37807676D02*
X129694762Y-37712438D01*
X129694762Y-37712438D02*
X129837619Y-37664819D01*
X129837619Y-37664819D02*
X129932857Y-37664819D01*
X129932857Y-37664819D02*
X130075714Y-37712438D01*
X130075714Y-37712438D02*
X130123333Y-37760057D01*
X130456667Y-37664819D02*
X131075714Y-37664819D01*
X131075714Y-37664819D02*
X130742381Y-38045771D01*
X130742381Y-38045771D02*
X130885238Y-38045771D01*
X130885238Y-38045771D02*
X130980476Y-38093390D01*
X130980476Y-38093390D02*
X131028095Y-38141009D01*
X131028095Y-38141009D02*
X131075714Y-38236247D01*
X131075714Y-38236247D02*
X131075714Y-38474342D01*
X131075714Y-38474342D02*
X131028095Y-38569580D01*
X131028095Y-38569580D02*
X130980476Y-38617200D01*
X130980476Y-38617200D02*
X130885238Y-38664819D01*
X130885238Y-38664819D02*
X130599524Y-38664819D01*
X130599524Y-38664819D02*
X130504286Y-38617200D01*
X130504286Y-38617200D02*
X130456667Y-38569580D01*
D11*
X123589999Y-33462371D02*
X123589999Y-33890942D01*
X123589999Y-33890942D02*
X123561428Y-33976657D01*
X123561428Y-33976657D02*
X123504285Y-34033800D01*
X123504285Y-34033800D02*
X123418571Y-34062371D01*
X123418571Y-34062371D02*
X123361428Y-34062371D01*
X123847142Y-33519514D02*
X123875714Y-33490942D01*
X123875714Y-33490942D02*
X123932857Y-33462371D01*
X123932857Y-33462371D02*
X124075714Y-33462371D01*
X124075714Y-33462371D02*
X124132857Y-33490942D01*
X124132857Y-33490942D02*
X124161428Y-33519514D01*
X124161428Y-33519514D02*
X124189999Y-33576657D01*
X124189999Y-33576657D02*
X124189999Y-33633800D01*
X124189999Y-33633800D02*
X124161428Y-33719514D01*
X124161428Y-33719514D02*
X123818571Y-34062371D01*
X123818571Y-34062371D02*
X124189999Y-34062371D01*
D10*
X133109580Y-149742857D02*
X133157200Y-149790476D01*
X133157200Y-149790476D02*
X133204819Y-149933333D01*
X133204819Y-149933333D02*
X133204819Y-150028571D01*
X133204819Y-150028571D02*
X133157200Y-150171428D01*
X133157200Y-150171428D02*
X133061961Y-150266666D01*
X133061961Y-150266666D02*
X132966723Y-150314285D01*
X132966723Y-150314285D02*
X132776247Y-150361904D01*
X132776247Y-150361904D02*
X132633390Y-150361904D01*
X132633390Y-150361904D02*
X132442914Y-150314285D01*
X132442914Y-150314285D02*
X132347676Y-150266666D01*
X132347676Y-150266666D02*
X132252438Y-150171428D01*
X132252438Y-150171428D02*
X132204819Y-150028571D01*
X132204819Y-150028571D02*
X132204819Y-149933333D01*
X132204819Y-149933333D02*
X132252438Y-149790476D01*
X132252438Y-149790476D02*
X132300057Y-149742857D01*
X132204819Y-149409523D02*
X132204819Y-148790476D01*
X132204819Y-148790476D02*
X132585771Y-149123809D01*
X132585771Y-149123809D02*
X132585771Y-148980952D01*
X132585771Y-148980952D02*
X132633390Y-148885714D01*
X132633390Y-148885714D02*
X132681009Y-148838095D01*
X132681009Y-148838095D02*
X132776247Y-148790476D01*
X132776247Y-148790476D02*
X133014342Y-148790476D01*
X133014342Y-148790476D02*
X133109580Y-148838095D01*
X133109580Y-148838095D02*
X133157200Y-148885714D01*
X133157200Y-148885714D02*
X133204819Y-148980952D01*
X133204819Y-148980952D02*
X133204819Y-149266666D01*
X133204819Y-149266666D02*
X133157200Y-149361904D01*
X133157200Y-149361904D02*
X133109580Y-149409523D01*
X132633390Y-148219047D02*
X132585771Y-148314285D01*
X132585771Y-148314285D02*
X132538152Y-148361904D01*
X132538152Y-148361904D02*
X132442914Y-148409523D01*
X132442914Y-148409523D02*
X132395295Y-148409523D01*
X132395295Y-148409523D02*
X132300057Y-148361904D01*
X132300057Y-148361904D02*
X132252438Y-148314285D01*
X132252438Y-148314285D02*
X132204819Y-148219047D01*
X132204819Y-148219047D02*
X132204819Y-148028571D01*
X132204819Y-148028571D02*
X132252438Y-147933333D01*
X132252438Y-147933333D02*
X132300057Y-147885714D01*
X132300057Y-147885714D02*
X132395295Y-147838095D01*
X132395295Y-147838095D02*
X132442914Y-147838095D01*
X132442914Y-147838095D02*
X132538152Y-147885714D01*
X132538152Y-147885714D02*
X132585771Y-147933333D01*
X132585771Y-147933333D02*
X132633390Y-148028571D01*
X132633390Y-148028571D02*
X132633390Y-148219047D01*
X132633390Y-148219047D02*
X132681009Y-148314285D01*
X132681009Y-148314285D02*
X132728628Y-148361904D01*
X132728628Y-148361904D02*
X132823866Y-148409523D01*
X132823866Y-148409523D02*
X133014342Y-148409523D01*
X133014342Y-148409523D02*
X133109580Y-148361904D01*
X133109580Y-148361904D02*
X133157200Y-148314285D01*
X133157200Y-148314285D02*
X133204819Y-148219047D01*
X133204819Y-148219047D02*
X133204819Y-148028571D01*
X133204819Y-148028571D02*
X133157200Y-147933333D01*
X133157200Y-147933333D02*
X133109580Y-147885714D01*
X133109580Y-147885714D02*
X133014342Y-147838095D01*
X133014342Y-147838095D02*
X132823866Y-147838095D01*
X132823866Y-147838095D02*
X132728628Y-147885714D01*
X132728628Y-147885714D02*
X132681009Y-147933333D01*
X132681009Y-147933333D02*
X132633390Y-148028571D01*
X121033333Y-38704819D02*
X120700000Y-38228628D01*
X120461905Y-38704819D02*
X120461905Y-37704819D01*
X120461905Y-37704819D02*
X120842857Y-37704819D01*
X120842857Y-37704819D02*
X120938095Y-37752438D01*
X120938095Y-37752438D02*
X120985714Y-37800057D01*
X120985714Y-37800057D02*
X121033333Y-37895295D01*
X121033333Y-37895295D02*
X121033333Y-38038152D01*
X121033333Y-38038152D02*
X120985714Y-38133390D01*
X120985714Y-38133390D02*
X120938095Y-38181009D01*
X120938095Y-38181009D02*
X120842857Y-38228628D01*
X120842857Y-38228628D02*
X120461905Y-38228628D01*
X121938095Y-37704819D02*
X121461905Y-37704819D01*
X121461905Y-37704819D02*
X121414286Y-38181009D01*
X121414286Y-38181009D02*
X121461905Y-38133390D01*
X121461905Y-38133390D02*
X121557143Y-38085771D01*
X121557143Y-38085771D02*
X121795238Y-38085771D01*
X121795238Y-38085771D02*
X121890476Y-38133390D01*
X121890476Y-38133390D02*
X121938095Y-38181009D01*
X121938095Y-38181009D02*
X121985714Y-38276247D01*
X121985714Y-38276247D02*
X121985714Y-38514342D01*
X121985714Y-38514342D02*
X121938095Y-38609580D01*
X121938095Y-38609580D02*
X121890476Y-38657200D01*
X121890476Y-38657200D02*
X121795238Y-38704819D01*
X121795238Y-38704819D02*
X121557143Y-38704819D01*
X121557143Y-38704819D02*
X121461905Y-38657200D01*
X121461905Y-38657200D02*
X121414286Y-38609580D01*
X129194819Y-51406666D02*
X128718628Y-51739999D01*
X129194819Y-51978094D02*
X128194819Y-51978094D01*
X128194819Y-51978094D02*
X128194819Y-51597142D01*
X128194819Y-51597142D02*
X128242438Y-51501904D01*
X128242438Y-51501904D02*
X128290057Y-51454285D01*
X128290057Y-51454285D02*
X128385295Y-51406666D01*
X128385295Y-51406666D02*
X128528152Y-51406666D01*
X128528152Y-51406666D02*
X128623390Y-51454285D01*
X128623390Y-51454285D02*
X128671009Y-51501904D01*
X128671009Y-51501904D02*
X128718628Y-51597142D01*
X128718628Y-51597142D02*
X128718628Y-51978094D01*
X128194819Y-51073332D02*
X128194819Y-50454285D01*
X128194819Y-50454285D02*
X128575771Y-50787618D01*
X128575771Y-50787618D02*
X128575771Y-50644761D01*
X128575771Y-50644761D02*
X128623390Y-50549523D01*
X128623390Y-50549523D02*
X128671009Y-50501904D01*
X128671009Y-50501904D02*
X128766247Y-50454285D01*
X128766247Y-50454285D02*
X129004342Y-50454285D01*
X129004342Y-50454285D02*
X129099580Y-50501904D01*
X129099580Y-50501904D02*
X129147200Y-50549523D01*
X129147200Y-50549523D02*
X129194819Y-50644761D01*
X129194819Y-50644761D02*
X129194819Y-50930475D01*
X129194819Y-50930475D02*
X129147200Y-51025713D01*
X129147200Y-51025713D02*
X129099580Y-51073332D01*
X129554819Y-60272857D02*
X129078628Y-60606190D01*
X129554819Y-60844285D02*
X128554819Y-60844285D01*
X128554819Y-60844285D02*
X128554819Y-60463333D01*
X128554819Y-60463333D02*
X128602438Y-60368095D01*
X128602438Y-60368095D02*
X128650057Y-60320476D01*
X128650057Y-60320476D02*
X128745295Y-60272857D01*
X128745295Y-60272857D02*
X128888152Y-60272857D01*
X128888152Y-60272857D02*
X128983390Y-60320476D01*
X128983390Y-60320476D02*
X129031009Y-60368095D01*
X129031009Y-60368095D02*
X129078628Y-60463333D01*
X129078628Y-60463333D02*
X129078628Y-60844285D01*
X129554819Y-59320476D02*
X129554819Y-59891904D01*
X129554819Y-59606190D02*
X128554819Y-59606190D01*
X128554819Y-59606190D02*
X128697676Y-59701428D01*
X128697676Y-59701428D02*
X128792914Y-59796666D01*
X128792914Y-59796666D02*
X128840533Y-59891904D01*
X128554819Y-58701428D02*
X128554819Y-58606190D01*
X128554819Y-58606190D02*
X128602438Y-58510952D01*
X128602438Y-58510952D02*
X128650057Y-58463333D01*
X128650057Y-58463333D02*
X128745295Y-58415714D01*
X128745295Y-58415714D02*
X128935771Y-58368095D01*
X128935771Y-58368095D02*
X129173866Y-58368095D01*
X129173866Y-58368095D02*
X129364342Y-58415714D01*
X129364342Y-58415714D02*
X129459580Y-58463333D01*
X129459580Y-58463333D02*
X129507200Y-58510952D01*
X129507200Y-58510952D02*
X129554819Y-58606190D01*
X129554819Y-58606190D02*
X129554819Y-58701428D01*
X129554819Y-58701428D02*
X129507200Y-58796666D01*
X129507200Y-58796666D02*
X129459580Y-58844285D01*
X129459580Y-58844285D02*
X129364342Y-58891904D01*
X129364342Y-58891904D02*
X129173866Y-58939523D01*
X129173866Y-58939523D02*
X128935771Y-58939523D01*
X128935771Y-58939523D02*
X128745295Y-58891904D01*
X128745295Y-58891904D02*
X128650057Y-58844285D01*
X128650057Y-58844285D02*
X128602438Y-58796666D01*
X128602438Y-58796666D02*
X128554819Y-58701428D01*
X136216666Y-128124819D02*
X136216666Y-128839104D01*
X136216666Y-128839104D02*
X136169047Y-128981961D01*
X136169047Y-128981961D02*
X136073809Y-129077200D01*
X136073809Y-129077200D02*
X135930952Y-129124819D01*
X135930952Y-129124819D02*
X135835714Y-129124819D01*
X137216666Y-129124819D02*
X136645238Y-129124819D01*
X136930952Y-129124819D02*
X136930952Y-128124819D01*
X136930952Y-128124819D02*
X136835714Y-128267676D01*
X136835714Y-128267676D02*
X136740476Y-128362914D01*
X136740476Y-128362914D02*
X136645238Y-128410533D01*
X133104819Y-142712857D02*
X133104819Y-143189047D01*
X133104819Y-143189047D02*
X132104819Y-143189047D01*
X133104819Y-141855714D02*
X133104819Y-142427142D01*
X133104819Y-142141428D02*
X132104819Y-142141428D01*
X132104819Y-142141428D02*
X132247676Y-142236666D01*
X132247676Y-142236666D02*
X132342914Y-142331904D01*
X132342914Y-142331904D02*
X132390533Y-142427142D01*
X132200057Y-141474761D02*
X132152438Y-141427142D01*
X132152438Y-141427142D02*
X132104819Y-141331904D01*
X132104819Y-141331904D02*
X132104819Y-141093809D01*
X132104819Y-141093809D02*
X132152438Y-140998571D01*
X132152438Y-140998571D02*
X132200057Y-140950952D01*
X132200057Y-140950952D02*
X132295295Y-140903333D01*
X132295295Y-140903333D02*
X132390533Y-140903333D01*
X132390533Y-140903333D02*
X132533390Y-140950952D01*
X132533390Y-140950952D02*
X133104819Y-141522380D01*
X133104819Y-141522380D02*
X133104819Y-140903333D01*
X134709580Y-149712857D02*
X134757200Y-149760476D01*
X134757200Y-149760476D02*
X134804819Y-149903333D01*
X134804819Y-149903333D02*
X134804819Y-149998571D01*
X134804819Y-149998571D02*
X134757200Y-150141428D01*
X134757200Y-150141428D02*
X134661961Y-150236666D01*
X134661961Y-150236666D02*
X134566723Y-150284285D01*
X134566723Y-150284285D02*
X134376247Y-150331904D01*
X134376247Y-150331904D02*
X134233390Y-150331904D01*
X134233390Y-150331904D02*
X134042914Y-150284285D01*
X134042914Y-150284285D02*
X133947676Y-150236666D01*
X133947676Y-150236666D02*
X133852438Y-150141428D01*
X133852438Y-150141428D02*
X133804819Y-149998571D01*
X133804819Y-149998571D02*
X133804819Y-149903333D01*
X133804819Y-149903333D02*
X133852438Y-149760476D01*
X133852438Y-149760476D02*
X133900057Y-149712857D01*
X133804819Y-149379523D02*
X133804819Y-148760476D01*
X133804819Y-148760476D02*
X134185771Y-149093809D01*
X134185771Y-149093809D02*
X134185771Y-148950952D01*
X134185771Y-148950952D02*
X134233390Y-148855714D01*
X134233390Y-148855714D02*
X134281009Y-148808095D01*
X134281009Y-148808095D02*
X134376247Y-148760476D01*
X134376247Y-148760476D02*
X134614342Y-148760476D01*
X134614342Y-148760476D02*
X134709580Y-148808095D01*
X134709580Y-148808095D02*
X134757200Y-148855714D01*
X134757200Y-148855714D02*
X134804819Y-148950952D01*
X134804819Y-148950952D02*
X134804819Y-149236666D01*
X134804819Y-149236666D02*
X134757200Y-149331904D01*
X134757200Y-149331904D02*
X134709580Y-149379523D01*
X133804819Y-148427142D02*
X133804819Y-147760476D01*
X133804819Y-147760476D02*
X134804819Y-148189047D01*
X124067142Y-142469580D02*
X124019523Y-142517200D01*
X124019523Y-142517200D02*
X123876666Y-142564819D01*
X123876666Y-142564819D02*
X123781428Y-142564819D01*
X123781428Y-142564819D02*
X123638571Y-142517200D01*
X123638571Y-142517200D02*
X123543333Y-142421961D01*
X123543333Y-142421961D02*
X123495714Y-142326723D01*
X123495714Y-142326723D02*
X123448095Y-142136247D01*
X123448095Y-142136247D02*
X123448095Y-141993390D01*
X123448095Y-141993390D02*
X123495714Y-141802914D01*
X123495714Y-141802914D02*
X123543333Y-141707676D01*
X123543333Y-141707676D02*
X123638571Y-141612438D01*
X123638571Y-141612438D02*
X123781428Y-141564819D01*
X123781428Y-141564819D02*
X123876666Y-141564819D01*
X123876666Y-141564819D02*
X124019523Y-141612438D01*
X124019523Y-141612438D02*
X124067142Y-141660057D01*
X124400476Y-141564819D02*
X125019523Y-141564819D01*
X125019523Y-141564819D02*
X124686190Y-141945771D01*
X124686190Y-141945771D02*
X124829047Y-141945771D01*
X124829047Y-141945771D02*
X124924285Y-141993390D01*
X124924285Y-141993390D02*
X124971904Y-142041009D01*
X124971904Y-142041009D02*
X125019523Y-142136247D01*
X125019523Y-142136247D02*
X125019523Y-142374342D01*
X125019523Y-142374342D02*
X124971904Y-142469580D01*
X124971904Y-142469580D02*
X124924285Y-142517200D01*
X124924285Y-142517200D02*
X124829047Y-142564819D01*
X124829047Y-142564819D02*
X124543333Y-142564819D01*
X124543333Y-142564819D02*
X124448095Y-142517200D01*
X124448095Y-142517200D02*
X124400476Y-142469580D01*
X125495714Y-142564819D02*
X125686190Y-142564819D01*
X125686190Y-142564819D02*
X125781428Y-142517200D01*
X125781428Y-142517200D02*
X125829047Y-142469580D01*
X125829047Y-142469580D02*
X125924285Y-142326723D01*
X125924285Y-142326723D02*
X125971904Y-142136247D01*
X125971904Y-142136247D02*
X125971904Y-141755295D01*
X125971904Y-141755295D02*
X125924285Y-141660057D01*
X125924285Y-141660057D02*
X125876666Y-141612438D01*
X125876666Y-141612438D02*
X125781428Y-141564819D01*
X125781428Y-141564819D02*
X125590952Y-141564819D01*
X125590952Y-141564819D02*
X125495714Y-141612438D01*
X125495714Y-141612438D02*
X125448095Y-141660057D01*
X125448095Y-141660057D02*
X125400476Y-141755295D01*
X125400476Y-141755295D02*
X125400476Y-141993390D01*
X125400476Y-141993390D02*
X125448095Y-142088628D01*
X125448095Y-142088628D02*
X125495714Y-142136247D01*
X125495714Y-142136247D02*
X125590952Y-142183866D01*
X125590952Y-142183866D02*
X125781428Y-142183866D01*
X125781428Y-142183866D02*
X125876666Y-142136247D01*
X125876666Y-142136247D02*
X125924285Y-142088628D01*
X125924285Y-142088628D02*
X125971904Y-141993390D01*
X134709580Y-142612857D02*
X134757200Y-142660476D01*
X134757200Y-142660476D02*
X134804819Y-142803333D01*
X134804819Y-142803333D02*
X134804819Y-142898571D01*
X134804819Y-142898571D02*
X134757200Y-143041428D01*
X134757200Y-143041428D02*
X134661961Y-143136666D01*
X134661961Y-143136666D02*
X134566723Y-143184285D01*
X134566723Y-143184285D02*
X134376247Y-143231904D01*
X134376247Y-143231904D02*
X134233390Y-143231904D01*
X134233390Y-143231904D02*
X134042914Y-143184285D01*
X134042914Y-143184285D02*
X133947676Y-143136666D01*
X133947676Y-143136666D02*
X133852438Y-143041428D01*
X133852438Y-143041428D02*
X133804819Y-142898571D01*
X133804819Y-142898571D02*
X133804819Y-142803333D01*
X133804819Y-142803333D02*
X133852438Y-142660476D01*
X133852438Y-142660476D02*
X133900057Y-142612857D01*
X134138152Y-141755714D02*
X134804819Y-141755714D01*
X133757200Y-141993809D02*
X134471485Y-142231904D01*
X134471485Y-142231904D02*
X134471485Y-141612857D01*
X133804819Y-141041428D02*
X133804819Y-140946190D01*
X133804819Y-140946190D02*
X133852438Y-140850952D01*
X133852438Y-140850952D02*
X133900057Y-140803333D01*
X133900057Y-140803333D02*
X133995295Y-140755714D01*
X133995295Y-140755714D02*
X134185771Y-140708095D01*
X134185771Y-140708095D02*
X134423866Y-140708095D01*
X134423866Y-140708095D02*
X134614342Y-140755714D01*
X134614342Y-140755714D02*
X134709580Y-140803333D01*
X134709580Y-140803333D02*
X134757200Y-140850952D01*
X134757200Y-140850952D02*
X134804819Y-140946190D01*
X134804819Y-140946190D02*
X134804819Y-141041428D01*
X134804819Y-141041428D02*
X134757200Y-141136666D01*
X134757200Y-141136666D02*
X134709580Y-141184285D01*
X134709580Y-141184285D02*
X134614342Y-141231904D01*
X134614342Y-141231904D02*
X134423866Y-141279523D01*
X134423866Y-141279523D02*
X134185771Y-141279523D01*
X134185771Y-141279523D02*
X133995295Y-141231904D01*
X133995295Y-141231904D02*
X133900057Y-141184285D01*
X133900057Y-141184285D02*
X133852438Y-141136666D01*
X133852438Y-141136666D02*
X133804819Y-141041428D01*
X124214819Y-49696666D02*
X123738628Y-50029999D01*
X124214819Y-50268094D02*
X123214819Y-50268094D01*
X123214819Y-50268094D02*
X123214819Y-49887142D01*
X123214819Y-49887142D02*
X123262438Y-49791904D01*
X123262438Y-49791904D02*
X123310057Y-49744285D01*
X123310057Y-49744285D02*
X123405295Y-49696666D01*
X123405295Y-49696666D02*
X123548152Y-49696666D01*
X123548152Y-49696666D02*
X123643390Y-49744285D01*
X123643390Y-49744285D02*
X123691009Y-49791904D01*
X123691009Y-49791904D02*
X123738628Y-49887142D01*
X123738628Y-49887142D02*
X123738628Y-50268094D01*
X123214819Y-48839523D02*
X123214819Y-49029999D01*
X123214819Y-49029999D02*
X123262438Y-49125237D01*
X123262438Y-49125237D02*
X123310057Y-49172856D01*
X123310057Y-49172856D02*
X123452914Y-49268094D01*
X123452914Y-49268094D02*
X123643390Y-49315713D01*
X123643390Y-49315713D02*
X124024342Y-49315713D01*
X124024342Y-49315713D02*
X124119580Y-49268094D01*
X124119580Y-49268094D02*
X124167200Y-49220475D01*
X124167200Y-49220475D02*
X124214819Y-49125237D01*
X124214819Y-49125237D02*
X124214819Y-48934761D01*
X124214819Y-48934761D02*
X124167200Y-48839523D01*
X124167200Y-48839523D02*
X124119580Y-48791904D01*
X124119580Y-48791904D02*
X124024342Y-48744285D01*
X124024342Y-48744285D02*
X123786247Y-48744285D01*
X123786247Y-48744285D02*
X123691009Y-48791904D01*
X123691009Y-48791904D02*
X123643390Y-48839523D01*
X123643390Y-48839523D02*
X123595771Y-48934761D01*
X123595771Y-48934761D02*
X123595771Y-49125237D01*
X123595771Y-49125237D02*
X123643390Y-49220475D01*
X123643390Y-49220475D02*
X123691009Y-49268094D01*
X123691009Y-49268094D02*
X123786247Y-49315713D01*
X137766666Y-51784819D02*
X137766666Y-52499104D01*
X137766666Y-52499104D02*
X137719047Y-52641961D01*
X137719047Y-52641961D02*
X137623809Y-52737200D01*
X137623809Y-52737200D02*
X137480952Y-52784819D01*
X137480952Y-52784819D02*
X137385714Y-52784819D01*
X138671428Y-52118152D02*
X138671428Y-52784819D01*
X138433333Y-51737200D02*
X138195238Y-52451485D01*
X138195238Y-52451485D02*
X138814285Y-52451485D01*
X133069580Y-146272857D02*
X133117200Y-146320476D01*
X133117200Y-146320476D02*
X133164819Y-146463333D01*
X133164819Y-146463333D02*
X133164819Y-146558571D01*
X133164819Y-146558571D02*
X133117200Y-146701428D01*
X133117200Y-146701428D02*
X133021961Y-146796666D01*
X133021961Y-146796666D02*
X132926723Y-146844285D01*
X132926723Y-146844285D02*
X132736247Y-146891904D01*
X132736247Y-146891904D02*
X132593390Y-146891904D01*
X132593390Y-146891904D02*
X132402914Y-146844285D01*
X132402914Y-146844285D02*
X132307676Y-146796666D01*
X132307676Y-146796666D02*
X132212438Y-146701428D01*
X132212438Y-146701428D02*
X132164819Y-146558571D01*
X132164819Y-146558571D02*
X132164819Y-146463333D01*
X132164819Y-146463333D02*
X132212438Y-146320476D01*
X132212438Y-146320476D02*
X132260057Y-146272857D01*
X132498152Y-145415714D02*
X133164819Y-145415714D01*
X132117200Y-145653809D02*
X132831485Y-145891904D01*
X132831485Y-145891904D02*
X132831485Y-145272857D01*
X133164819Y-144368095D02*
X133164819Y-144939523D01*
X133164819Y-144653809D02*
X132164819Y-144653809D01*
X132164819Y-144653809D02*
X132307676Y-144749047D01*
X132307676Y-144749047D02*
X132402914Y-144844285D01*
X132402914Y-144844285D02*
X132450533Y-144939523D01*
X123944380Y-122748276D02*
X123944380Y-123266371D01*
X123944380Y-123266371D02*
X123974857Y-123327323D01*
X123974857Y-123327323D02*
X124005333Y-123357800D01*
X124005333Y-123357800D02*
X124066285Y-123388276D01*
X124066285Y-123388276D02*
X124188190Y-123388276D01*
X124188190Y-123388276D02*
X124249142Y-123357800D01*
X124249142Y-123357800D02*
X124279619Y-123327323D01*
X124279619Y-123327323D02*
X124310095Y-123266371D01*
X124310095Y-123266371D02*
X124310095Y-122748276D01*
X124584380Y-122809228D02*
X124614856Y-122778752D01*
X124614856Y-122778752D02*
X124675809Y-122748276D01*
X124675809Y-122748276D02*
X124828190Y-122748276D01*
X124828190Y-122748276D02*
X124889142Y-122778752D01*
X124889142Y-122778752D02*
X124919618Y-122809228D01*
X124919618Y-122809228D02*
X124950095Y-122870180D01*
X124950095Y-122870180D02*
X124950095Y-122931133D01*
X124950095Y-122931133D02*
X124919618Y-123022561D01*
X124919618Y-123022561D02*
X124553904Y-123388276D01*
X124553904Y-123388276D02*
X124950095Y-123388276D01*
X122883333Y-150624819D02*
X122407143Y-150624819D01*
X122407143Y-150624819D02*
X122407143Y-149624819D01*
X123264286Y-150624819D02*
X123454762Y-150624819D01*
X123454762Y-150624819D02*
X123550000Y-150577200D01*
X123550000Y-150577200D02*
X123597619Y-150529580D01*
X123597619Y-150529580D02*
X123692857Y-150386723D01*
X123692857Y-150386723D02*
X123740476Y-150196247D01*
X123740476Y-150196247D02*
X123740476Y-149815295D01*
X123740476Y-149815295D02*
X123692857Y-149720057D01*
X123692857Y-149720057D02*
X123645238Y-149672438D01*
X123645238Y-149672438D02*
X123550000Y-149624819D01*
X123550000Y-149624819D02*
X123359524Y-149624819D01*
X123359524Y-149624819D02*
X123264286Y-149672438D01*
X123264286Y-149672438D02*
X123216667Y-149720057D01*
X123216667Y-149720057D02*
X123169048Y-149815295D01*
X123169048Y-149815295D02*
X123169048Y-150053390D01*
X123169048Y-150053390D02*
X123216667Y-150148628D01*
X123216667Y-150148628D02*
X123264286Y-150196247D01*
X123264286Y-150196247D02*
X123359524Y-150243866D01*
X123359524Y-150243866D02*
X123550000Y-150243866D01*
X123550000Y-150243866D02*
X123645238Y-150196247D01*
X123645238Y-150196247D02*
X123692857Y-150148628D01*
X123692857Y-150148628D02*
X123740476Y-150053390D01*
X128903333Y-122789580D02*
X128855714Y-122837200D01*
X128855714Y-122837200D02*
X128712857Y-122884819D01*
X128712857Y-122884819D02*
X128617619Y-122884819D01*
X128617619Y-122884819D02*
X128474762Y-122837200D01*
X128474762Y-122837200D02*
X128379524Y-122741961D01*
X128379524Y-122741961D02*
X128331905Y-122646723D01*
X128331905Y-122646723D02*
X128284286Y-122456247D01*
X128284286Y-122456247D02*
X128284286Y-122313390D01*
X128284286Y-122313390D02*
X128331905Y-122122914D01*
X128331905Y-122122914D02*
X128379524Y-122027676D01*
X128379524Y-122027676D02*
X128474762Y-121932438D01*
X128474762Y-121932438D02*
X128617619Y-121884819D01*
X128617619Y-121884819D02*
X128712857Y-121884819D01*
X128712857Y-121884819D02*
X128855714Y-121932438D01*
X128855714Y-121932438D02*
X128903333Y-121980057D01*
X129760476Y-121884819D02*
X129570000Y-121884819D01*
X129570000Y-121884819D02*
X129474762Y-121932438D01*
X129474762Y-121932438D02*
X129427143Y-121980057D01*
X129427143Y-121980057D02*
X129331905Y-122122914D01*
X129331905Y-122122914D02*
X129284286Y-122313390D01*
X129284286Y-122313390D02*
X129284286Y-122694342D01*
X129284286Y-122694342D02*
X129331905Y-122789580D01*
X129331905Y-122789580D02*
X129379524Y-122837200D01*
X129379524Y-122837200D02*
X129474762Y-122884819D01*
X129474762Y-122884819D02*
X129665238Y-122884819D01*
X129665238Y-122884819D02*
X129760476Y-122837200D01*
X129760476Y-122837200D02*
X129808095Y-122789580D01*
X129808095Y-122789580D02*
X129855714Y-122694342D01*
X129855714Y-122694342D02*
X129855714Y-122456247D01*
X129855714Y-122456247D02*
X129808095Y-122361009D01*
X129808095Y-122361009D02*
X129760476Y-122313390D01*
X129760476Y-122313390D02*
X129665238Y-122265771D01*
X129665238Y-122265771D02*
X129474762Y-122265771D01*
X129474762Y-122265771D02*
X129379524Y-122313390D01*
X129379524Y-122313390D02*
X129331905Y-122361009D01*
X129331905Y-122361009D02*
X129284286Y-122456247D01*
X129128095Y-90804819D02*
X129128095Y-91614342D01*
X129128095Y-91614342D02*
X129175714Y-91709580D01*
X129175714Y-91709580D02*
X129223333Y-91757200D01*
X129223333Y-91757200D02*
X129318571Y-91804819D01*
X129318571Y-91804819D02*
X129509047Y-91804819D01*
X129509047Y-91804819D02*
X129604285Y-91757200D01*
X129604285Y-91757200D02*
X129651904Y-91709580D01*
X129651904Y-91709580D02*
X129699523Y-91614342D01*
X129699523Y-91614342D02*
X129699523Y-90804819D01*
X130699523Y-91804819D02*
X130128095Y-91804819D01*
X130413809Y-91804819D02*
X130413809Y-90804819D01*
X130413809Y-90804819D02*
X130318571Y-90947676D01*
X130318571Y-90947676D02*
X130223333Y-91042914D01*
X130223333Y-91042914D02*
X130128095Y-91090533D01*
X130689580Y-51356666D02*
X130737200Y-51404285D01*
X130737200Y-51404285D02*
X130784819Y-51547142D01*
X130784819Y-51547142D02*
X130784819Y-51642380D01*
X130784819Y-51642380D02*
X130737200Y-51785237D01*
X130737200Y-51785237D02*
X130641961Y-51880475D01*
X130641961Y-51880475D02*
X130546723Y-51928094D01*
X130546723Y-51928094D02*
X130356247Y-51975713D01*
X130356247Y-51975713D02*
X130213390Y-51975713D01*
X130213390Y-51975713D02*
X130022914Y-51928094D01*
X130022914Y-51928094D02*
X129927676Y-51880475D01*
X129927676Y-51880475D02*
X129832438Y-51785237D01*
X129832438Y-51785237D02*
X129784819Y-51642380D01*
X129784819Y-51642380D02*
X129784819Y-51547142D01*
X129784819Y-51547142D02*
X129832438Y-51404285D01*
X129832438Y-51404285D02*
X129880057Y-51356666D01*
X130784819Y-50404285D02*
X130784819Y-50975713D01*
X130784819Y-50689999D02*
X129784819Y-50689999D01*
X129784819Y-50689999D02*
X129927676Y-50785237D01*
X129927676Y-50785237D02*
X130022914Y-50880475D01*
X130022914Y-50880475D02*
X130070533Y-50975713D01*
X129093333Y-125769580D02*
X129045714Y-125817200D01*
X129045714Y-125817200D02*
X128902857Y-125864819D01*
X128902857Y-125864819D02*
X128807619Y-125864819D01*
X128807619Y-125864819D02*
X128664762Y-125817200D01*
X128664762Y-125817200D02*
X128569524Y-125721961D01*
X128569524Y-125721961D02*
X128521905Y-125626723D01*
X128521905Y-125626723D02*
X128474286Y-125436247D01*
X128474286Y-125436247D02*
X128474286Y-125293390D01*
X128474286Y-125293390D02*
X128521905Y-125102914D01*
X128521905Y-125102914D02*
X128569524Y-125007676D01*
X128569524Y-125007676D02*
X128664762Y-124912438D01*
X128664762Y-124912438D02*
X128807619Y-124864819D01*
X128807619Y-124864819D02*
X128902857Y-124864819D01*
X128902857Y-124864819D02*
X129045714Y-124912438D01*
X129045714Y-124912438D02*
X129093333Y-124960057D01*
X129998095Y-124864819D02*
X129521905Y-124864819D01*
X129521905Y-124864819D02*
X129474286Y-125341009D01*
X129474286Y-125341009D02*
X129521905Y-125293390D01*
X129521905Y-125293390D02*
X129617143Y-125245771D01*
X129617143Y-125245771D02*
X129855238Y-125245771D01*
X129855238Y-125245771D02*
X129950476Y-125293390D01*
X129950476Y-125293390D02*
X129998095Y-125341009D01*
X129998095Y-125341009D02*
X130045714Y-125436247D01*
X130045714Y-125436247D02*
X130045714Y-125674342D01*
X130045714Y-125674342D02*
X129998095Y-125769580D01*
X129998095Y-125769580D02*
X129950476Y-125817200D01*
X129950476Y-125817200D02*
X129855238Y-125864819D01*
X129855238Y-125864819D02*
X129617143Y-125864819D01*
X129617143Y-125864819D02*
X129521905Y-125817200D01*
X129521905Y-125817200D02*
X129474286Y-125769580D01*
D12*
X129870000Y-145791267D02*
X129870000Y-145448733D01*
X130890000Y-145791267D02*
X130890000Y-145448733D01*
X132454724Y-37222500D02*
X131945276Y-37222500D01*
X132454724Y-36177500D02*
X131945276Y-36177500D01*
X136870000Y-39660000D02*
X136870000Y-39780000D01*
X136870000Y-39780000D02*
X139530000Y-39780000D01*
X138200000Y-37120000D02*
X139530000Y-37120000D01*
X139530000Y-37120000D02*
X139530000Y-38450000D01*
X139530000Y-39660000D02*
X139530000Y-39780000D01*
X132030000Y-136260000D02*
X132030000Y-138980000D01*
X132030000Y-138980000D02*
X140730000Y-138980000D01*
X140730000Y-136260000D02*
X132030000Y-136260000D01*
X119515000Y-44660000D02*
X120985000Y-44660000D01*
X120985000Y-44660000D02*
X120985000Y-42200000D01*
X119515000Y-42200000D02*
X119515000Y-44660000D01*
X121265000Y-44660000D02*
X122735000Y-44660000D01*
X122735000Y-44660000D02*
X122735000Y-42200000D01*
X121265000Y-42200000D02*
X121265000Y-44660000D01*
X128232776Y-36177500D02*
X128742224Y-36177500D01*
X128232776Y-37222500D02*
X128742224Y-37222500D01*
X124653733Y-128090000D02*
X124946267Y-128090000D01*
X124653733Y-129110000D02*
X124946267Y-129110000D01*
X128940000Y-69500000D02*
X130840000Y-69500000D01*
X128940000Y-71400000D02*
X128940000Y-69500000D01*
X130840000Y-69500000D02*
X130840000Y-71400000D01*
X130840000Y-71400000D02*
X128940000Y-71400000D01*
X126370000Y-145791267D02*
X126370000Y-145448733D01*
X127390000Y-145791267D02*
X127390000Y-145448733D01*
X125708733Y-147610000D02*
X126051267Y-147610000D01*
X125708733Y-148630000D02*
X126051267Y-148630000D01*
X136250000Y-43270000D02*
X136250000Y-43870000D01*
X135550000Y-44570000D02*
X134150000Y-44570000D01*
X134150000Y-42570000D02*
X135550000Y-42570000D01*
X133450000Y-43870000D02*
X133450000Y-43270000D01*
X135550000Y-44570000D02*
G75*
G03*
X136250000Y-43870000I1J699999D01*
G01*
X136250000Y-43270000D02*
G75*
G03*
X135550000Y-42570000I-699999J1D01*
G01*
X133450000Y-43870000D02*
G75*
G03*
X134150000Y-44570000I700000J0D01*
G01*
X134150000Y-42570000D02*
G75*
G03*
X133450000Y-43270000I0J-700000D01*
G01*
X136450000Y-35310000D02*
X139750000Y-35310000D01*
X136450000Y-35310000D02*
X136450000Y-29800000D01*
X139750000Y-35310000D02*
X139750000Y-29800000D01*
X126590000Y-41490000D02*
X127315000Y-41490000D01*
X130810000Y-42215000D02*
X130810000Y-41490000D01*
X126590000Y-42215000D02*
X126590000Y-41490000D01*
X130810000Y-44985000D02*
X130810000Y-45710000D01*
X126590000Y-44985000D02*
X126590000Y-45710000D01*
X130810000Y-45710000D02*
X130085000Y-45710000D01*
X126590000Y-45710000D02*
X127315000Y-45710000D01*
X119660000Y-57500000D02*
X121100000Y-57500000D01*
X121100000Y-56930000D02*
X121100000Y-57500000D01*
X121100000Y-56930000D02*
X126300000Y-56930000D01*
X121100000Y-59020000D02*
X121100000Y-60040000D01*
X121100000Y-61560000D02*
X121100000Y-62580000D01*
X121100000Y-64100000D02*
X121100000Y-64670000D01*
X121100000Y-64670000D02*
X126300000Y-64670000D01*
X126300000Y-56930000D02*
X126300000Y-57500000D01*
X126300000Y-59020000D02*
X126300000Y-60040000D01*
X126300000Y-61560000D02*
X126300000Y-62580000D01*
X126300000Y-64100000D02*
X126300000Y-64670000D01*
X122522500Y-46495276D02*
X122522500Y-47004724D01*
X121477500Y-46495276D02*
X121477500Y-47004724D01*
X130177500Y-63154724D02*
X130177500Y-62645276D01*
X131222500Y-63154724D02*
X131222500Y-62645276D01*
X129870000Y-138691267D02*
X129870000Y-138348733D01*
X130890000Y-138691267D02*
X130890000Y-138348733D01*
X131640000Y-41716267D02*
X131640000Y-41423733D01*
X132660000Y-41716267D02*
X132660000Y-41423733D01*
X120772500Y-46495276D02*
X120772500Y-47004724D01*
X119727500Y-46495276D02*
X119727500Y-47004724D01*
X136625276Y-118167500D02*
X137134724Y-118167500D01*
X136625276Y-119212500D02*
X137134724Y-119212500D01*
X123015000Y-44660000D02*
X124485000Y-44660000D01*
X124485000Y-44660000D02*
X124485000Y-42200000D01*
X123015000Y-42200000D02*
X123015000Y-44660000D01*
X126677500Y-48979724D02*
X126677500Y-48470276D01*
X127722500Y-48979724D02*
X127722500Y-48470276D01*
X127746267Y-38710000D02*
X127453733Y-38710000D01*
X127746267Y-37690000D02*
X127453733Y-37690000D01*
D13*
X134470000Y-30120000D02*
X134470000Y-32320000D01*
X134470000Y-26650000D02*
X125530000Y-26650000D01*
X125530000Y-30120000D02*
X125530000Y-32320000D01*
D12*
X129140000Y-148973733D02*
X129140000Y-149266267D01*
X128120000Y-148973733D02*
X128120000Y-149266267D01*
X123645276Y-37677500D02*
X124154724Y-37677500D01*
X123645276Y-38722500D02*
X124154724Y-38722500D01*
X128177500Y-48979724D02*
X128177500Y-48470276D01*
X129222500Y-48979724D02*
X129222500Y-48470276D01*
X128577500Y-63154724D02*
X128577500Y-62645276D01*
X129622500Y-63154724D02*
X129622500Y-62645276D01*
X132660000Y-120400000D02*
X134100000Y-120400000D01*
X134100000Y-119830000D02*
X134100000Y-120400000D01*
X134100000Y-119830000D02*
X139300000Y-119830000D01*
X134100000Y-121920000D02*
X134100000Y-122940000D01*
X134100000Y-124460000D02*
X134100000Y-125480000D01*
X134100000Y-127000000D02*
X134100000Y-127570000D01*
X134100000Y-127570000D02*
X139300000Y-127570000D01*
X139300000Y-119830000D02*
X139300000Y-120400000D01*
X139300000Y-121920000D02*
X139300000Y-122940000D01*
X139300000Y-124460000D02*
X139300000Y-125480000D01*
X139300000Y-127000000D02*
X139300000Y-127570000D01*
X128120000Y-142191267D02*
X128120000Y-141848733D01*
X129140000Y-142191267D02*
X129140000Y-141848733D01*
X129870000Y-149266267D02*
X129870000Y-148973733D01*
X130890000Y-149266267D02*
X130890000Y-148973733D01*
X127390000Y-141973733D02*
X127390000Y-142266267D01*
X126370000Y-141973733D02*
X126370000Y-142266267D01*
X129870000Y-142166267D02*
X129870000Y-141873733D01*
X130890000Y-142166267D02*
X130890000Y-141873733D01*
X124272500Y-46495276D02*
X124272500Y-47004724D01*
X123227500Y-46495276D02*
X123227500Y-47004724D01*
X132160000Y-53600000D02*
X133600000Y-53600000D01*
X133600000Y-53030000D02*
X133600000Y-53600000D01*
X133600000Y-53030000D02*
X138800000Y-53030000D01*
X133600000Y-55120000D02*
X133600000Y-56140000D01*
X133600000Y-57660000D02*
X133600000Y-58680000D01*
X133600000Y-60200000D02*
X133600000Y-60770000D01*
X133600000Y-60770000D02*
X138800000Y-60770000D01*
X138800000Y-53030000D02*
X138800000Y-53600000D01*
X138800000Y-55120000D02*
X138800000Y-56140000D01*
X138800000Y-57660000D02*
X138800000Y-58680000D01*
X138800000Y-60200000D02*
X138800000Y-60770000D01*
X129140000Y-145473733D02*
X129140000Y-145766267D01*
X128120000Y-145473733D02*
X128120000Y-145766267D01*
D13*
X122900000Y-124250000D02*
X123405000Y-124250000D01*
X122900000Y-126750000D02*
X123405000Y-126750000D01*
X125900000Y-124250000D02*
X125395000Y-124250000D01*
X125900000Y-126750000D02*
X125395000Y-126750000D01*
D14*
X122500000Y-124700000D02*
G75*
G03*
X122500000Y-124700000I-100000J0D01*
G01*
D12*
X125708733Y-149610000D02*
X126051267Y-149610000D01*
X125708733Y-150630000D02*
X126051267Y-150630000D01*
X131625000Y-122148748D02*
X131625000Y-122671252D01*
X130155000Y-122148748D02*
X130155000Y-122671252D01*
X119390000Y-65850000D02*
X119390000Y-66150000D01*
X119390000Y-65850000D02*
X140390000Y-65850000D01*
X119390000Y-68250000D02*
X119390000Y-68650000D01*
X119390000Y-68517000D02*
X122397000Y-68517000D01*
X119390000Y-70850000D02*
X119390000Y-71250000D01*
X119390000Y-73350000D02*
X119390000Y-73750000D01*
X119390000Y-75950000D02*
X119390000Y-76350000D01*
X119390000Y-78450000D02*
X119390000Y-78850000D01*
X119390000Y-80950000D02*
X119390000Y-81350000D01*
X119390000Y-83550000D02*
X119390000Y-83950000D01*
X119390000Y-86050000D02*
X119390000Y-86450000D01*
X119390000Y-88650000D02*
X119390000Y-89050000D01*
X119390000Y-91150000D02*
X119390000Y-91550000D01*
X119390000Y-93650000D02*
X119390000Y-94050000D01*
X119390000Y-96250000D02*
X119390000Y-96650000D01*
X119390000Y-98750000D02*
X119390000Y-99150000D01*
X119390000Y-101350000D02*
X119390000Y-101750000D01*
X119390000Y-103850000D02*
X119390000Y-104250000D01*
X119390000Y-106450000D02*
X119390000Y-106850000D01*
X119390000Y-108950000D02*
X119390000Y-109350000D01*
X119390000Y-111450000D02*
X119390000Y-111850000D01*
X119390000Y-114050000D02*
X119390000Y-114450000D01*
X122397000Y-68517000D02*
X122397000Y-65850000D01*
X126190000Y-116850000D02*
X119390000Y-116850000D01*
X128390000Y-116850000D02*
X128790000Y-116850000D01*
X130990000Y-116850000D02*
X131390000Y-116850000D01*
X140390000Y-65850000D02*
X140390000Y-66150000D01*
X140390000Y-68250000D02*
X140390000Y-68650000D01*
X140390000Y-70850000D02*
X140390000Y-71250000D01*
X140390000Y-73350000D02*
X140390000Y-73750000D01*
X140390000Y-75950000D02*
X140390000Y-76350000D01*
X140390000Y-78450000D02*
X140390000Y-78850000D01*
X140390000Y-80950000D02*
X140390000Y-81350000D01*
X140390000Y-83550000D02*
X140390000Y-83950000D01*
X140390000Y-86050000D02*
X140390000Y-86450000D01*
X140390000Y-88650000D02*
X140390000Y-89050000D01*
X140390000Y-91150000D02*
X140390000Y-91550000D01*
X140390000Y-93650000D02*
X140390000Y-94050000D01*
X140390000Y-96250000D02*
X140390000Y-96650000D01*
X140390000Y-98750000D02*
X140390000Y-99150000D01*
X140390000Y-101350000D02*
X140390000Y-101750000D01*
X140390000Y-103850000D02*
X140390000Y-104250000D01*
X140390000Y-106450000D02*
X140390000Y-106850000D01*
X140390000Y-108950000D02*
X140390000Y-109350000D01*
X140390000Y-111450000D02*
X140390000Y-111850000D01*
X140390000Y-114050000D02*
X140390000Y-114450000D01*
X140390000Y-116850000D02*
X133590000Y-116850000D01*
X130810000Y-48553733D02*
X130810000Y-48846267D01*
X129790000Y-48553733D02*
X129790000Y-48846267D01*
X127190000Y-125546267D02*
X127190000Y-125253733D01*
X128210000Y-125546267D02*
X128210000Y-125253733D01*
%LPC*%
D15*
X128955000Y-67150000D03*
D16*
X130380000Y-146495000D03*
X130380000Y-144745000D03*
D15*
X130815000Y-67150000D03*
D17*
X133112500Y-36700000D03*
X131287500Y-36700000D03*
D18*
X138200000Y-38450000D03*
D19*
X133180000Y-137620000D03*
X139580000Y-137620000D03*
D16*
X120250000Y-43875000D03*
X120250000Y-42125000D03*
X122000000Y-43875000D03*
X122000000Y-42125000D03*
D20*
X127575000Y-36700000D03*
X129400000Y-36700000D03*
D21*
X123937500Y-128600000D03*
X125662500Y-128600000D03*
D22*
X129890000Y-70450000D03*
D16*
X126880000Y-146495000D03*
X126880000Y-144745000D03*
D23*
X125005000Y-148120000D03*
X126755000Y-148120000D03*
D24*
X135500000Y-43570000D03*
D25*
X134200000Y-43570000D03*
D26*
X138100000Y-33800000D03*
X138100000Y-29800000D03*
D27*
X129700000Y-41662500D03*
X129200000Y-41662500D03*
X128700000Y-41662500D03*
X128200000Y-41662500D03*
X127700000Y-41662500D03*
D28*
X126762500Y-42600000D03*
X126762500Y-43100000D03*
X126762500Y-43600000D03*
X126762500Y-44100000D03*
X126762500Y-44600000D03*
D27*
X127700000Y-45537500D03*
X128200000Y-45537500D03*
X128700000Y-45537500D03*
X129200000Y-45537500D03*
X129700000Y-45537500D03*
D28*
X130637500Y-44600000D03*
X130637500Y-44100000D03*
X130637500Y-43600000D03*
X130637500Y-43100000D03*
X130637500Y-42600000D03*
D29*
X128700000Y-43600000D03*
D30*
X121175000Y-58260000D03*
X126225000Y-58260000D03*
X121175000Y-60800000D03*
X126225000Y-60800000D03*
X121175000Y-63340000D03*
X126225000Y-63340000D03*
D31*
X122000000Y-45837500D03*
X122000000Y-47662500D03*
D32*
X130700000Y-63812500D03*
X130700000Y-61987500D03*
D16*
X130380000Y-139395000D03*
X130380000Y-137645000D03*
D33*
X132150000Y-42432500D03*
X132150000Y-40707500D03*
D31*
X120250000Y-45837500D03*
X120250000Y-47662500D03*
D20*
X135967500Y-118690000D03*
X137792500Y-118690000D03*
D16*
X123750000Y-43875000D03*
X123750000Y-42125000D03*
D32*
X127200000Y-49637500D03*
X127200000Y-47812500D03*
D34*
X128462500Y-38200000D03*
X126737500Y-38200000D03*
D35*
X133000000Y-34190000D03*
X132500000Y-34190000D03*
X132000000Y-34190000D03*
X131500000Y-34190000D03*
X131000000Y-34190000D03*
X130500000Y-34190000D03*
X129500000Y-34190000D03*
X129000000Y-34190000D03*
X128500000Y-34190000D03*
X128000000Y-34190000D03*
X127500000Y-34190000D03*
X127000000Y-34190000D03*
D36*
X126900000Y-32890000D03*
D35*
X127750000Y-32890000D03*
X128250000Y-32890000D03*
X128750000Y-32890000D03*
X129250000Y-32890000D03*
X129750000Y-32890000D03*
X130250000Y-32890000D03*
X130750000Y-32890000D03*
X131250000Y-32890000D03*
X131750000Y-32890000D03*
X132250000Y-32890000D03*
D36*
X133100000Y-32890000D03*
D37*
X134320000Y-33780000D03*
X125680000Y-33780000D03*
D38*
X134320000Y-28420000D03*
X125680000Y-28420000D03*
D39*
X128630000Y-148257500D03*
X128630000Y-149982500D03*
D20*
X122987500Y-38200000D03*
X124812500Y-38200000D03*
D32*
X128700000Y-49637500D03*
X128700000Y-47812500D03*
X129100000Y-63812500D03*
X129100000Y-61987500D03*
D30*
X134175000Y-121160000D03*
X139225000Y-121160000D03*
X134175000Y-123700000D03*
X139225000Y-123700000D03*
X134175000Y-126240000D03*
X139225000Y-126240000D03*
D16*
X128630000Y-142895000D03*
X128630000Y-141145000D03*
D33*
X130380000Y-149982500D03*
X130380000Y-148257500D03*
D39*
X126880000Y-141257500D03*
X126880000Y-142982500D03*
D33*
X130380000Y-142882500D03*
X130380000Y-141157500D03*
D31*
X123750000Y-45837500D03*
X123750000Y-47662500D03*
D30*
X133675000Y-54360000D03*
X138725000Y-54360000D03*
X133675000Y-56900000D03*
X138725000Y-56900000D03*
X133675000Y-59440000D03*
X138725000Y-59440000D03*
D39*
X128630000Y-144757500D03*
X128630000Y-146482500D03*
D40*
X123235000Y-124750000D03*
X123235000Y-125250000D03*
X123235000Y-125750000D03*
X123235000Y-126250000D03*
D41*
X123900000Y-126415000D03*
X124400000Y-126415000D03*
X124900000Y-126415000D03*
D42*
X125565000Y-126250000D03*
X125565000Y-125750000D03*
X125565000Y-125250000D03*
X125565000Y-124750000D03*
D43*
X124900000Y-124585000D03*
X124400000Y-124585000D03*
X123900000Y-124585000D03*
D23*
X125005000Y-150120000D03*
X126755000Y-150120000D03*
D44*
X130890000Y-121372500D03*
X130890000Y-123447500D03*
D45*
X127165000Y-67350000D03*
D46*
X127465000Y-70380000D03*
X132315000Y-70380000D03*
D45*
X132615000Y-67350000D03*
D47*
X121000000Y-67220000D03*
D48*
X120120000Y-67220000D03*
D47*
X121000000Y-69760000D03*
D48*
X120120000Y-69760000D03*
D18*
X121000000Y-72300000D03*
D48*
X120120000Y-72300000D03*
D47*
X121000000Y-74840000D03*
D48*
X120120000Y-74840000D03*
D47*
X121000000Y-77380000D03*
D48*
X120120000Y-77380000D03*
D47*
X121000000Y-79920000D03*
D48*
X120120000Y-79920000D03*
D47*
X121000000Y-82460000D03*
D48*
X120120000Y-82460000D03*
D18*
X121000000Y-85000000D03*
D48*
X120120000Y-85000000D03*
D47*
X121000000Y-87540000D03*
D48*
X120120000Y-87540000D03*
D47*
X121000000Y-90080000D03*
D48*
X120120000Y-90080000D03*
D47*
X121000000Y-92620000D03*
D48*
X120120000Y-92620000D03*
D47*
X121000000Y-95160000D03*
D48*
X120120000Y-95160000D03*
D18*
X121000000Y-97700000D03*
D48*
X120120000Y-97700000D03*
D47*
X121000000Y-100240000D03*
D48*
X120120000Y-100240000D03*
D47*
X121000000Y-102780000D03*
D48*
X120120000Y-102780000D03*
D47*
X121000000Y-105320000D03*
D48*
X120120000Y-105320000D03*
D47*
X121000000Y-107860000D03*
D48*
X120120000Y-107860000D03*
D18*
X121000000Y-110400000D03*
D48*
X120120000Y-110400000D03*
D47*
X121000000Y-112940000D03*
D48*
X120120000Y-112940000D03*
D47*
X121000000Y-115480000D03*
D48*
X120120000Y-115480000D03*
D47*
X138780000Y-115480000D03*
D48*
X139660000Y-115480000D03*
D47*
X138780000Y-112940000D03*
D48*
X139660000Y-112940000D03*
D18*
X138780000Y-110400000D03*
D48*
X139660000Y-110400000D03*
D47*
X138780000Y-107860000D03*
D48*
X139660000Y-107860000D03*
D47*
X138780000Y-105320000D03*
D48*
X139660000Y-105320000D03*
D47*
X138780000Y-102780000D03*
D48*
X139660000Y-102780000D03*
D47*
X138780000Y-100240000D03*
D48*
X139660000Y-100240000D03*
D18*
X138780000Y-97700000D03*
D48*
X139660000Y-97700000D03*
D47*
X138780000Y-95160000D03*
D48*
X139660000Y-95160000D03*
D47*
X138780000Y-92620000D03*
D48*
X139660000Y-92620000D03*
D47*
X138780000Y-90080000D03*
D48*
X139660000Y-90080000D03*
D47*
X138780000Y-87540000D03*
D48*
X139660000Y-87540000D03*
D18*
X138780000Y-85000000D03*
D48*
X139660000Y-85000000D03*
D47*
X138780000Y-82460000D03*
D48*
X139660000Y-82460000D03*
D47*
X138780000Y-79920000D03*
D48*
X139660000Y-79920000D03*
D47*
X138780000Y-77380000D03*
D48*
X139660000Y-77380000D03*
D47*
X138780000Y-74840000D03*
D48*
X139660000Y-74840000D03*
D18*
X138780000Y-72300000D03*
D48*
X139660000Y-72300000D03*
D47*
X138780000Y-69760000D03*
D48*
X139660000Y-69760000D03*
D47*
X138780000Y-67220000D03*
D48*
X139660000Y-67220000D03*
D39*
X130300000Y-47837500D03*
X130300000Y-49562500D03*
D33*
X127700000Y-126262500D03*
X127700000Y-124537500D03*
D49*
X122010000Y-119020000D03*
X137750000Y-63820000D03*
D50*
X122010000Y-55620000D03*
D51*
X129880000Y-55620000D03*
X129880000Y-127840000D03*
%LPD*%
M02*
