%TF.GenerationSoftware,KiCad,Pcbnew,7.0.2*%
%TF.CreationDate,2023-05-03T22:50:50+02:00*%
%TF.ProjectId,Frackstock,46726163-6b73-4746-9f63-6b2e6b696361,rev?*%
%TF.SameCoordinates,PX54f9b60PY6e87f28*%
%TF.FileFunction,Copper,L4,Bot*%
%TF.FilePolarity,Positive*%
%FSLAX46Y46*%
G04 Gerber Fmt 4.6, Leading zero omitted, Abs format (unit mm)*
G04 Created by KiCad (PCBNEW 7.0.2) date 2023-05-03 22:50:50*
%MOMM*%
%LPD*%
G01*
G04 APERTURE LIST*
%TA.AperFunction,ComponentPad*%
%ADD10R,1.700000X1.700000*%
%TD*%
%TA.AperFunction,ComponentPad*%
%ADD11O,1.700000X1.700000*%
%TD*%
%TA.AperFunction,ComponentPad*%
%ADD12O,2.200000X1.100000*%
%TD*%
%TA.AperFunction,ComponentPad*%
%ADD13O,2.600000X1.300000*%
%TD*%
%TA.AperFunction,ComponentPad*%
%ADD14C,1.501000*%
%TD*%
%TA.AperFunction,ComponentPad*%
%ADD15C,1.980000*%
%TD*%
%TA.AperFunction,ComponentPad*%
%ADD16C,5.325000*%
%TD*%
%TA.AperFunction,ComponentPad*%
%ADD17C,3.585000*%
%TD*%
%TA.AperFunction,ViaPad*%
%ADD18C,0.800000*%
%TD*%
%TA.AperFunction,ViaPad*%
%ADD19C,0.250000*%
%TD*%
%TA.AperFunction,ViaPad*%
%ADD20C,0.300000*%
%TD*%
%TA.AperFunction,Conductor*%
%ADD21C,0.600000*%
%TD*%
%TA.AperFunction,Conductor*%
%ADD22C,0.200000*%
%TD*%
G04 APERTURE END LIST*
D10*
%TO.P,J8,1,Pin_1*%
%TO.N,GND*%
X20955000Y33304400D03*
D11*
%TO.P,J8,2,Pin_2*%
%TO.N,RESET*%
X20955000Y30764400D03*
%TD*%
D10*
%TO.P,J6,1,Pin_1*%
%TO.N,GND*%
X12011000Y43073400D03*
D11*
%TO.P,J6,2,Pin_2*%
%TO.N,N_USB_BOOT*%
X12011000Y45613400D03*
%TD*%
D12*
%TO.P,J2,S1,SHIELD*%
%TO.N,unconnected-(J2-SHIELD-PadS1)*%
X15867800Y48080200D03*
%TO.P,J2,S2,SHIELD__1*%
%TO.N,unconnected-(J2-SHIELD__1-PadS2)*%
X15867800Y56720200D03*
D13*
%TO.P,J2,S3,SHIELD__2*%
%TO.N,unconnected-(J2-SHIELD__2-PadS3)*%
X21227800Y48080200D03*
%TO.P,J2,S4,SHIELD__3*%
%TO.N,unconnected-(J2-SHIELD__3-PadS4)*%
X21227800Y56720200D03*
%TD*%
D14*
%TO.P,J1,1,1*%
%TO.N,+5V*%
X2232000Y49352400D03*
%TO.P,J1,2,2*%
%TO.N,Net-(Q2-D)*%
X2232000Y51892400D03*
%TO.P,J1,3,3*%
%TO.N,GND*%
X2232000Y54432400D03*
%TD*%
D10*
%TO.P,J5,1,Pin_1*%
%TO.N,Net-(J5-Pin_1)*%
X13839800Y65831800D03*
D11*
%TO.P,J5,2,Pin_2*%
%TO.N,BAT_O*%
X13839800Y68371800D03*
%TD*%
D15*
%TO.P,U14,1,+*%
%TO.N,BAT_P*%
X11528400Y75649000D03*
%TO.P,U14,2,-*%
%TO.N,BAT_N*%
X11528400Y3429000D03*
D16*
%TO.P,U14,MH1,MH1*%
%TO.N,unconnected-(U14-PadMH1)*%
X3658400Y12249000D03*
D17*
%TO.P,U14,MH2,MH2*%
%TO.N,unconnected-(U14-PadMH2)*%
X3658400Y75649000D03*
D16*
%TO.P,U14,MH3,MH3*%
%TO.N,unconnected-(U14-PadMH3)*%
X19398400Y67449000D03*
%TD*%
D18*
%TO.N,BAT_O*%
X10512400Y56692800D03*
D19*
%TO.N,GND*%
X22199600Y78206600D03*
X17322800Y20142200D03*
X15341600Y25323800D03*
X5562600Y15392400D03*
X3019400Y62534800D03*
X10668000Y66319400D03*
X7670800Y73914000D03*
X18364200Y32410400D03*
X10617200Y16967200D03*
X11604600Y33629600D03*
X11353800Y39522400D03*
X2032000Y69494400D03*
X17830800Y20142200D03*
X19354800Y20142200D03*
X609600Y330200D03*
X16459200Y43688000D03*
X14782800Y49352200D03*
X13030200Y23901400D03*
X13258800Y8458200D03*
X7086600Y330200D03*
X6019800Y23825200D03*
X13258800Y20142200D03*
X9423400Y21132800D03*
X7874000Y18592800D03*
X6477000Y18592800D03*
X2257400Y33934400D03*
X6118200Y32562800D03*
X6270600Y38100000D03*
X381000Y52222400D03*
X14782800Y20142200D03*
X2159000Y29108400D03*
X13258800Y838200D03*
X9852000Y50469800D03*
X4568800Y37719000D03*
X508000Y8001000D03*
X14782800Y55956200D03*
X9496400Y59994800D03*
X16306800Y20142200D03*
X15798800Y20142200D03*
X18872200Y32842200D03*
X13258800Y6934200D03*
X8204200Y23749000D03*
X10464800Y5613400D03*
X7391400Y48361600D03*
X381000Y58699400D03*
X18973800Y54686200D03*
X6527800Y24917400D03*
X14122400Y20701000D03*
X18846800Y50495200D03*
X3019400Y46609000D03*
X16230600Y69469000D03*
X16764000Y58343800D03*
X22631400Y31521400D03*
X13258800Y19634200D03*
X22910800Y20142200D03*
X12496800Y48437800D03*
X10963900Y20701000D03*
X13030200Y24561800D03*
X1244600Y25095200D03*
X7518400Y24409400D03*
X5737200Y34544000D03*
X21383600Y42494200D03*
X13258800Y3886200D03*
X9499600Y12776200D03*
X21409000Y44983400D03*
X9118600Y29667200D03*
X13258800Y19126200D03*
X18745200Y36195000D03*
X13258800Y14046200D03*
X12569800Y34518600D03*
X13258800Y4902200D03*
X4594200Y34569400D03*
X6426200Y21183600D03*
X8531200Y43688000D03*
X3860800Y66725800D03*
X6270600Y36982400D03*
X13258800Y7442200D03*
X13004800Y61544200D03*
X8686800Y7772400D03*
X482600Y22707600D03*
X13258800Y5918200D03*
X4902200Y29260800D03*
X911200Y36855400D03*
X12293600Y78181200D03*
X17678400Y40005000D03*
X13258800Y6426200D03*
X15036800Y73685400D03*
X1549400Y28092400D03*
X16560800Y37160200D03*
X22069400Y58851800D03*
X17576800Y49479200D03*
X17627600Y78206600D03*
X7696200Y21183600D03*
X14072588Y26631112D03*
X17297400Y62280800D03*
X939800Y61798200D03*
X13484200Y33629600D03*
X18465800Y30378400D03*
X12903200Y70739000D03*
X14782800Y55448200D03*
X5610200Y35788600D03*
X17322800Y56591200D03*
X13741400Y24561800D03*
X13258800Y8966200D03*
X10820400Y10566400D03*
X19862800Y20142200D03*
X22682200Y22860000D03*
X13258800Y15570200D03*
X18846800Y20142200D03*
X12468200Y56591200D03*
X18008600Y76123800D03*
X5483200Y57912000D03*
X8074000Y33274000D03*
X12115800Y59055000D03*
X11023600Y27711400D03*
X13258800Y10490200D03*
X6934200Y25349200D03*
X7010400Y14478000D03*
X14808200Y63677800D03*
X5508600Y56591200D03*
X11861800Y39979600D03*
X13258800Y5410200D03*
X20459350Y75692000D03*
X2997200Y29108400D03*
X9471000Y62560200D03*
X12877800Y50749200D03*
X17221200Y64490600D03*
X13258800Y17094200D03*
X21383600Y40233600D03*
X22631400Y27025600D03*
X20218400Y36347400D03*
X13030200Y23266400D03*
X20878800Y20142200D03*
X13258800Y12014200D03*
X4978400Y4775200D03*
X6270600Y36169600D03*
X3860800Y24663400D03*
X13258800Y16078200D03*
X6019800Y14935200D03*
X13741400Y23266400D03*
X14274800Y43738800D03*
X15290800Y29210000D03*
X18310200Y35763200D03*
X13258800Y9474200D03*
X9110219Y28396300D03*
X14274800Y20142200D03*
X9499600Y26127700D03*
X7035800Y15570200D03*
X18313400Y37414200D03*
X13741400Y23901400D03*
X9017000Y19812000D03*
X18972800Y52400200D03*
X4772000Y48971200D03*
X18869000Y47142400D03*
X13258800Y12522200D03*
X11503000Y61874400D03*
X13258800Y2870200D03*
X13258800Y330200D03*
X2768600Y26416000D03*
X14782800Y48844200D03*
X7112000Y52933600D03*
X9521800Y58826400D03*
X13258800Y10998200D03*
X18770600Y36982400D03*
X13258800Y18110200D03*
X21386800Y54686200D03*
X15290800Y20142200D03*
X4978400Y22910800D03*
X9804400Y27838400D03*
X13258800Y11506200D03*
X7134200Y41706800D03*
X11988800Y54406800D03*
X16814800Y20142200D03*
X13258800Y2362200D03*
X6629400Y26898600D03*
X9423400Y23291800D03*
X2613000Y41706800D03*
X17294200Y60502800D03*
X381000Y68580000D03*
X8988400Y56591200D03*
X10312400Y26127700D03*
X13258800Y9982200D03*
X13258800Y13030200D03*
X4775200Y50444400D03*
X1244600Y78181200D03*
X10718800Y69697600D03*
X13258800Y1854200D03*
X838200Y24638000D03*
X9775800Y42443400D03*
X584200Y15621000D03*
X12569800Y32639000D03*
X5613400Y62204600D03*
X13258800Y4394200D03*
X22656800Y37973000D03*
X13258800Y17602200D03*
X11226800Y49479200D03*
X21386800Y52400200D03*
X1219200Y73736200D03*
X13258800Y16586200D03*
X355600Y31851600D03*
X9499600Y24866600D03*
X13131800Y54178200D03*
X1701800Y25501600D03*
X7794600Y34544000D03*
X15036800Y62357000D03*
X1701800Y59385200D03*
X13258800Y18618200D03*
X7442200Y78181200D03*
X21894800Y20142200D03*
X15290800Y28168600D03*
X15998800Y41579800D03*
X13766800Y20142200D03*
X13258800Y7950200D03*
X14808200Y22402800D03*
X11604600Y32639000D03*
X21386800Y20142200D03*
X11604600Y34518600D03*
X18338800Y20142200D03*
X18919800Y58191400D03*
X1473200Y66040000D03*
X15468600Y39497000D03*
D18*
X18173350Y73660000D03*
D19*
X11528400Y46964600D03*
X18542000Y43688000D03*
X22301200Y70662800D03*
X21894800Y64160400D03*
X22402800Y20142200D03*
X14754200Y45872400D03*
X10261600Y21107400D03*
X12344400Y23901400D03*
X1473200Y66725800D03*
X15925800Y55829200D03*
X13484200Y34518600D03*
X17576800Y48590200D03*
X9191600Y40513000D03*
X21386800Y50495200D03*
X8178800Y68910200D03*
X15011400Y40005000D03*
X17449800Y56210200D03*
X431800Y43992800D03*
X7950200Y12801600D03*
X7010400Y16789400D03*
X13258800Y3378200D03*
X4010000Y48158400D03*
X13258800Y1346200D03*
X3860800Y66065400D03*
X20370800Y20142200D03*
X12569800Y33629600D03*
X12344400Y23266400D03*
X6604000Y23647400D03*
X16179800Y73660000D03*
X2006600Y27686000D03*
X1549400Y69951600D03*
X10083800Y18669000D03*
X6778600Y33197800D03*
X12344400Y24561800D03*
X9496400Y61290200D03*
X13258800Y13538200D03*
X13484200Y32639000D03*
X10845800Y6197600D03*
X4594200Y33502600D03*
X19812000Y24434800D03*
D18*
%TO.N,+3.3V*%
X8163597Y32572994D03*
X6299200Y48209200D03*
X16379800Y71907400D03*
X16913200Y36179000D03*
D20*
X15417800Y24401400D03*
D18*
X1899200Y33353000D03*
X2565400Y30403800D03*
X12907700Y27557880D03*
X3251200Y27406600D03*
D20*
X12874600Y37998400D03*
D18*
X16989400Y32867600D03*
X12522200Y19862800D03*
X8280400Y25552400D03*
X5838800Y43805700D03*
X8001000Y36601400D03*
X10566400Y22148800D03*
X15068200Y38023800D03*
%TO.N,BAT_N*%
X11455400Y63449200D03*
D20*
%TO.N,XIN*%
X11860132Y29122973D03*
X1752600Y24003000D03*
%TO.N,+1V1*%
X14268200Y37566600D03*
X12268200Y37947600D03*
X13058713Y29188914D03*
%TO.N,XOUT*%
X11485019Y26961581D03*
X12268200Y29286200D03*
%TO.N,XOSC_Q2*%
X20662000Y22264800D03*
X11379200Y25781000D03*
D18*
%TO.N,+5V*%
X11528400Y51104800D03*
X5323599Y37406210D03*
%TO.N,VBUS*%
X3019400Y56591400D03*
X7972400Y63398600D03*
X14195400Y50876200D03*
X14195400Y53924200D03*
D19*
%TO.N,DP*%
X13385800Y49733200D03*
X14782800Y51892200D03*
X17449800Y52654200D03*
%TO.N,DN*%
X14782800Y52908200D03*
X13766800Y50241200D03*
X16159172Y52146200D03*
D20*
%TO.N,SWCLK*%
X14059100Y41529200D03*
X13458800Y29007000D03*
%TO.N,SWD*%
X15186000Y43967600D03*
X13878700Y29337200D03*
D18*
%TO.N,N_USB_BOOT*%
X2917800Y45059800D03*
D20*
%TO.N,SEN_INT1*%
X6654800Y27965400D03*
X3962400Y31216600D03*
%TO.N,COM_MISO*%
X14677219Y29434619D03*
X15824200Y23393400D03*
%TO.N,COM_CS*%
X15798800Y29743400D03*
X15798800Y27093300D03*
%TO.N,QSPI_SD3*%
X9725000Y41580000D03*
X8734400Y42570600D03*
%TO.N,QSPI_CLK*%
X10197155Y40566696D03*
X8802100Y44834700D03*
%TO.N,SEN_SCK*%
X7645400Y31369000D03*
X7645400Y29260800D03*
%TO.N,SEN_MOSI*%
X8102600Y30988000D03*
X8102600Y29768800D03*
%TO.N,COM_CLK*%
X15900400Y30581600D03*
X16306800Y22885400D03*
%TO.N,COM_MOSI*%
X16713200Y22021800D03*
X16713200Y31369000D03*
%TO.N,COM_DO1*%
X17551400Y25781000D03*
X17551400Y31775400D03*
%TO.N,COM_DO2*%
X17145000Y32178455D03*
X17145000Y23901400D03*
%TD*%
D21*
%TO.N,BAT_N*%
X11791800Y63112800D02*
X11455400Y63449200D01*
X15042231Y63112800D02*
X11791800Y63112800D01*
X18046600Y63121000D02*
X15050431Y63121000D01*
X18046600Y49972893D02*
X18046600Y63121000D01*
X19487800Y24909631D02*
X19487800Y48531693D01*
X19487800Y48531693D02*
X18046600Y49972893D01*
X12737460Y21266000D02*
X17303600Y21266000D01*
X15050431Y63121000D02*
X15042231Y63112800D01*
X17303600Y21266000D02*
X19247000Y23209400D01*
X19247000Y24668831D02*
X19487800Y24909631D01*
X11528400Y20056940D02*
X12737460Y21266000D01*
X19247000Y23209400D02*
X19247000Y24668831D01*
X11528400Y3429000D02*
X11528400Y20056940D01*
%TO.N,BAT_O*%
X10512400Y65044400D02*
X13839800Y68371800D01*
X10512400Y56692800D02*
X10512400Y65044400D01*
%TO.N,VBUS*%
X3908600Y55702200D02*
X3019400Y56591400D01*
X12417400Y55702200D02*
X3908600Y55702200D01*
X7972400Y55702200D02*
X7972400Y63398600D01*
X14195400Y53924200D02*
X12417400Y55702200D01*
X14195400Y53924200D02*
X14195400Y50876200D01*
D22*
%TO.N,N_USB_BOOT*%
X2917800Y45059800D02*
X3532400Y44445200D01*
X3532400Y44445200D02*
X10842800Y44445200D01*
X10842800Y44445200D02*
X12011000Y45613400D01*
%TD*%
%TA.AperFunction,Conductor*%
%TO.N,GND*%
G36*
X22980839Y79022415D02*
G01*
X23026594Y78969611D01*
X23037800Y78918100D01*
X23037800Y20139200D01*
X23018115Y20072161D01*
X22965311Y20026406D01*
X22913800Y20015200D01*
X13563600Y20015200D01*
X13563600Y124700D01*
X13543915Y57661D01*
X13491111Y11906D01*
X13439600Y700D01*
X124000Y700D01*
X56961Y20385D01*
X11206Y73189D01*
X0Y124700D01*
X0Y12249000D01*
X850650Y12249000D01*
X850860Y12245395D01*
X869424Y11926654D01*
X869425Y11926646D01*
X869635Y11923040D01*
X870261Y11919486D01*
X870263Y11919475D01*
X925705Y11605046D01*
X925707Y11605036D01*
X926333Y11601488D01*
X1019978Y11288693D01*
X1021403Y11285390D01*
X1147874Y10992195D01*
X1147879Y10992185D01*
X1149303Y10988884D01*
X1151105Y10985762D01*
X1151107Y10985759D01*
X1310750Y10709248D01*
X1310756Y10709239D01*
X1312559Y10706116D01*
X1314715Y10703220D01*
X1314717Y10703217D01*
X1505386Y10447104D01*
X1505392Y10447097D01*
X1507539Y10444213D01*
X1731605Y10206717D01*
X1981728Y9996839D01*
X2254525Y9817417D01*
X2546307Y9670879D01*
X2853128Y9559205D01*
X3065611Y9508846D01*
X3167332Y9484737D01*
X3167334Y9484737D01*
X3170839Y9483906D01*
X3495144Y9446000D01*
X3498742Y9446000D01*
X3818058Y9446000D01*
X3821656Y9446000D01*
X4145961Y9483906D01*
X4463672Y9559205D01*
X4770493Y9670879D01*
X5062275Y9817417D01*
X5335072Y9996839D01*
X5585195Y10206717D01*
X5809261Y10444213D01*
X6004241Y10706116D01*
X6167497Y10988884D01*
X6296822Y11288693D01*
X6390467Y11601488D01*
X6447165Y11923040D01*
X6466150Y12249000D01*
X6447165Y12574960D01*
X6390467Y12896512D01*
X6296822Y13209307D01*
X6167497Y13509116D01*
X6004241Y13791884D01*
X5809261Y14053787D01*
X5585195Y14291283D01*
X5582437Y14293597D01*
X5582432Y14293602D01*
X5337831Y14498846D01*
X5337830Y14498847D01*
X5335072Y14501161D01*
X5062275Y14680583D01*
X5007087Y14708300D01*
X4773708Y14825507D01*
X4773699Y14825511D01*
X4770493Y14827121D01*
X4767120Y14828349D01*
X4767110Y14828353D01*
X4467064Y14937561D01*
X4467054Y14937564D01*
X4463672Y14938795D01*
X4460165Y14939627D01*
X4460159Y14939628D01*
X4149467Y15013264D01*
X4149451Y15013267D01*
X4145961Y15014094D01*
X4142396Y15014511D01*
X4142383Y15014513D01*
X3825226Y15051583D01*
X3825221Y15051584D01*
X3821656Y15052000D01*
X3495144Y15052000D01*
X3491579Y15051584D01*
X3491573Y15051583D01*
X3174416Y15014513D01*
X3174400Y15014511D01*
X3170839Y15014094D01*
X3167351Y15013268D01*
X3167332Y15013264D01*
X2856640Y14939628D01*
X2856629Y14939625D01*
X2853128Y14938795D01*
X2849749Y14937566D01*
X2849735Y14937561D01*
X2549689Y14828353D01*
X2549673Y14828347D01*
X2546307Y14827121D01*
X2543106Y14825514D01*
X2543091Y14825507D01*
X2257744Y14682200D01*
X2257739Y14682198D01*
X2254525Y14680583D01*
X2251511Y14678602D01*
X2251508Y14678599D01*
X1984745Y14503146D01*
X1984737Y14503141D01*
X1981728Y14501161D01*
X1978977Y14498854D01*
X1978968Y14498846D01*
X1734367Y14293602D01*
X1734353Y14293590D01*
X1731605Y14291283D01*
X1729130Y14288661D01*
X1729125Y14288655D01*
X1510013Y14056410D01*
X1510007Y14056404D01*
X1507539Y14053787D01*
X1505399Y14050913D01*
X1505386Y14050897D01*
X1314717Y13794784D01*
X1314709Y13794773D01*
X1312559Y13791884D01*
X1310760Y13788770D01*
X1310750Y13788753D01*
X1151107Y13512242D01*
X1151101Y13512232D01*
X1149303Y13509116D01*
X1147882Y13505823D01*
X1147874Y13505806D01*
X1021403Y13212611D01*
X1019978Y13209307D01*
X1018949Y13205872D01*
X1018946Y13205862D01*
X927367Y12899968D01*
X927364Y12899958D01*
X926333Y12896512D01*
X925708Y12892969D01*
X925705Y12892955D01*
X870263Y12578526D01*
X870261Y12578513D01*
X869635Y12574960D01*
X869425Y12571357D01*
X869424Y12571347D01*
X850860Y12252606D01*
X850650Y12249000D01*
X0Y12249000D01*
X0Y22148801D01*
X10021235Y22148801D01*
X10039812Y22007701D01*
X10094272Y21876221D01*
X10094273Y21876219D01*
X10094274Y21876218D01*
X10180911Y21763311D01*
X10293818Y21676674D01*
X10425301Y21622212D01*
X10547822Y21606082D01*
X10566399Y21603636D01*
X10566399Y21603637D01*
X10566400Y21603636D01*
X10707499Y21622212D01*
X10838982Y21676674D01*
X10951889Y21763311D01*
X11038526Y21876218D01*
X11092988Y22007701D01*
X11111564Y22148800D01*
X11092988Y22289899D01*
X11038526Y22421382D01*
X10951889Y22534289D01*
X10838982Y22620926D01*
X10838981Y22620927D01*
X10838979Y22620928D01*
X10707499Y22675388D01*
X10566400Y22693965D01*
X10425300Y22675388D01*
X10293820Y22620928D01*
X10180911Y22534289D01*
X10094272Y22421380D01*
X10039812Y22289900D01*
X10021235Y22148801D01*
X0Y22148801D01*
X0Y23393400D01*
X15529219Y23393400D01*
X15547009Y23292511D01*
X15594101Y23210944D01*
X15598232Y23203789D01*
X15676707Y23137940D01*
X15676708Y23137940D01*
X15676709Y23137939D01*
X15772977Y23102900D01*
X15897288Y23102900D01*
X15897288Y23099757D01*
X15930051Y23101842D01*
X15991109Y23067877D01*
X16024112Y23006293D01*
X16024859Y22959353D01*
X16011818Y22885401D01*
X16024275Y22814760D01*
X16029609Y22784511D01*
X16080831Y22695790D01*
X16080832Y22695789D01*
X16159307Y22629940D01*
X16159308Y22629940D01*
X16159309Y22629939D01*
X16255577Y22594900D01*
X16358023Y22594900D01*
X16454291Y22629939D01*
X16532769Y22695790D01*
X16583991Y22784511D01*
X16601781Y22885400D01*
X16583991Y22986289D01*
X16532769Y23075010D01*
X16503277Y23099757D01*
X16454292Y23140861D01*
X16358023Y23175900D01*
X16255577Y23175900D01*
X16233712Y23175900D01*
X16233712Y23179045D01*
X16200921Y23176965D01*
X16139870Y23210944D01*
X16106881Y23272535D01*
X16106140Y23319444D01*
X16119181Y23393400D01*
X16101391Y23494289D01*
X16050169Y23583010D01*
X16050167Y23583012D01*
X15971692Y23648861D01*
X15875423Y23683900D01*
X15772977Y23683900D01*
X15724843Y23666381D01*
X15676709Y23648861D01*
X15598231Y23583011D01*
X15572620Y23538650D01*
X15547009Y23494289D01*
X15529219Y23393400D01*
X0Y23393400D01*
X0Y24003000D01*
X1457619Y24003000D01*
X1475409Y23902111D01*
X1526631Y23813390D01*
X1526632Y23813389D01*
X1605107Y23747540D01*
X1605108Y23747540D01*
X1605109Y23747539D01*
X1701377Y23712500D01*
X1803823Y23712500D01*
X1900091Y23747539D01*
X1978569Y23813390D01*
X2029381Y23901400D01*
X16850019Y23901400D01*
X16867809Y23800511D01*
X16919031Y23711790D01*
X16919032Y23711789D01*
X16997507Y23645940D01*
X16997508Y23645940D01*
X16997509Y23645939D01*
X17093777Y23610900D01*
X17196223Y23610900D01*
X17292491Y23645939D01*
X17370969Y23711790D01*
X17422191Y23800511D01*
X17439981Y23901400D01*
X17422191Y24002289D01*
X17370969Y24091010D01*
X17355622Y24103888D01*
X17292492Y24156861D01*
X17196223Y24191900D01*
X17093777Y24191900D01*
X17045643Y24174381D01*
X16997509Y24156861D01*
X16919031Y24091011D01*
X16893419Y24046650D01*
X16867809Y24002289D01*
X16850019Y23901400D01*
X2029381Y23901400D01*
X2029791Y23902111D01*
X2047581Y24003000D01*
X2029791Y24103889D01*
X1978569Y24192610D01*
X1978567Y24192612D01*
X1900092Y24258461D01*
X1803823Y24293500D01*
X1701377Y24293500D01*
X1653243Y24275981D01*
X1605109Y24258461D01*
X1526631Y24192611D01*
X1526221Y24191900D01*
X1475409Y24103889D01*
X1457619Y24003000D01*
X0Y24003000D01*
X0Y24401400D01*
X15122819Y24401400D01*
X15140609Y24300511D01*
X15191831Y24211790D01*
X15191832Y24211789D01*
X15270307Y24145940D01*
X15270308Y24145940D01*
X15270309Y24145939D01*
X15366577Y24110900D01*
X15469023Y24110900D01*
X15565291Y24145939D01*
X15643769Y24211790D01*
X15694991Y24300511D01*
X15712781Y24401400D01*
X15694991Y24502289D01*
X15643769Y24591010D01*
X15643767Y24591012D01*
X15565292Y24656861D01*
X15469023Y24691900D01*
X15366577Y24691900D01*
X15325871Y24677084D01*
X15270309Y24656861D01*
X15191831Y24591011D01*
X15188360Y24584998D01*
X15140609Y24502289D01*
X15122819Y24401400D01*
X0Y24401400D01*
X0Y25552400D01*
X7735235Y25552400D01*
X7753812Y25411301D01*
X7808272Y25279821D01*
X7808273Y25279819D01*
X7808274Y25279818D01*
X7894911Y25166911D01*
X8007818Y25080274D01*
X8139301Y25025812D01*
X8261823Y25009682D01*
X8280399Y25007236D01*
X8280399Y25007237D01*
X8280400Y25007236D01*
X8421499Y25025812D01*
X8552982Y25080274D01*
X8665889Y25166911D01*
X8752526Y25279818D01*
X8806988Y25411301D01*
X8825564Y25552400D01*
X8806988Y25693499D01*
X8770744Y25781000D01*
X11084219Y25781000D01*
X11102009Y25680111D01*
X11153231Y25591390D01*
X11153232Y25591389D01*
X11231707Y25525540D01*
X11231708Y25525540D01*
X11231709Y25525539D01*
X11327977Y25490500D01*
X11430423Y25490500D01*
X11526691Y25525539D01*
X11605169Y25591390D01*
X11656391Y25680111D01*
X11674181Y25781000D01*
X17256419Y25781000D01*
X17274209Y25680111D01*
X17325431Y25591390D01*
X17325432Y25591389D01*
X17403907Y25525540D01*
X17403908Y25525540D01*
X17403909Y25525539D01*
X17500177Y25490500D01*
X17602623Y25490500D01*
X17698891Y25525539D01*
X17777369Y25591390D01*
X17828591Y25680111D01*
X17846381Y25781000D01*
X17828591Y25881889D01*
X17777369Y25970610D01*
X17713115Y26024526D01*
X17698892Y26036461D01*
X17602623Y26071500D01*
X17500177Y26071500D01*
X17452043Y26053981D01*
X17403909Y26036461D01*
X17325431Y25970611D01*
X17306540Y25937889D01*
X17274209Y25881889D01*
X17256419Y25781000D01*
X11674181Y25781000D01*
X11656391Y25881889D01*
X11605169Y25970610D01*
X11540915Y26024526D01*
X11526692Y26036461D01*
X11430423Y26071500D01*
X11327977Y26071500D01*
X11279843Y26053981D01*
X11231709Y26036461D01*
X11153231Y25970611D01*
X11134340Y25937889D01*
X11102009Y25881889D01*
X11084219Y25781000D01*
X8770744Y25781000D01*
X8752526Y25824982D01*
X8665889Y25937889D01*
X8552982Y26024526D01*
X8552981Y26024527D01*
X8552979Y26024528D01*
X8421499Y26078988D01*
X8280399Y26097565D01*
X8139300Y26078988D01*
X8007820Y26024528D01*
X7894911Y25937889D01*
X7808272Y25824980D01*
X7753812Y25693500D01*
X7735235Y25552400D01*
X0Y25552400D01*
X0Y27406600D01*
X2706035Y27406600D01*
X2724612Y27265501D01*
X2779072Y27134021D01*
X2779073Y27134019D01*
X2779074Y27134018D01*
X2865711Y27021111D01*
X2978618Y26934474D01*
X3110101Y26880012D01*
X3232622Y26863882D01*
X3251199Y26861436D01*
X3251199Y26861437D01*
X3251200Y26861436D01*
X3392299Y26880012D01*
X3523782Y26934474D01*
X3559108Y26961581D01*
X11190038Y26961581D01*
X11207828Y26860692D01*
X11259050Y26771971D01*
X11259051Y26771970D01*
X11337526Y26706121D01*
X11337527Y26706121D01*
X11337528Y26706120D01*
X11433796Y26671081D01*
X11536242Y26671081D01*
X11632510Y26706120D01*
X11710988Y26771971D01*
X11762210Y26860692D01*
X11780000Y26961581D01*
X11762210Y27062470D01*
X11710988Y27151191D01*
X11685722Y27172392D01*
X11632511Y27217042D01*
X11536242Y27252081D01*
X11433796Y27252081D01*
X11385662Y27234562D01*
X11337528Y27217042D01*
X11259050Y27151192D01*
X11249137Y27134021D01*
X11207828Y27062470D01*
X11190038Y26961581D01*
X3559108Y26961581D01*
X3636689Y27021111D01*
X3723326Y27134018D01*
X3777788Y27265501D01*
X3796364Y27406600D01*
X3777788Y27547699D01*
X3773571Y27557880D01*
X12362535Y27557880D01*
X12381112Y27416781D01*
X12435572Y27285301D01*
X12435573Y27285299D01*
X12435574Y27285298D01*
X12522211Y27172391D01*
X12635118Y27085754D01*
X12766601Y27031292D01*
X12889122Y27015162D01*
X12907699Y27012716D01*
X12907699Y27012717D01*
X12907700Y27012716D01*
X13048799Y27031292D01*
X13180282Y27085754D01*
X13190116Y27093300D01*
X15503819Y27093300D01*
X15521609Y26992411D01*
X15555059Y26934473D01*
X15572832Y26903689D01*
X15651307Y26837840D01*
X15651308Y26837840D01*
X15651309Y26837839D01*
X15747577Y26802800D01*
X15850023Y26802800D01*
X15946291Y26837839D01*
X16024769Y26903690D01*
X16075991Y26992411D01*
X16093781Y27093300D01*
X16075991Y27194189D01*
X16024769Y27282910D01*
X16024767Y27282912D01*
X15946292Y27348761D01*
X15850023Y27383800D01*
X15747577Y27383800D01*
X15699443Y27366281D01*
X15651309Y27348761D01*
X15572831Y27282911D01*
X15562780Y27265501D01*
X15521609Y27194189D01*
X15503819Y27093300D01*
X13190116Y27093300D01*
X13293189Y27172391D01*
X13379826Y27285298D01*
X13434288Y27416781D01*
X13452864Y27557880D01*
X13434288Y27698979D01*
X13379826Y27830462D01*
X13293189Y27943369D01*
X13180282Y28030006D01*
X13180281Y28030007D01*
X13180279Y28030008D01*
X13048799Y28084468D01*
X12907700Y28103045D01*
X12766600Y28084468D01*
X12635120Y28030008D01*
X12522211Y27943369D01*
X12435572Y27830460D01*
X12381112Y27698980D01*
X12362535Y27557880D01*
X3773571Y27557880D01*
X3723326Y27679182D01*
X3636689Y27792089D01*
X3523782Y27878726D01*
X3523781Y27878727D01*
X3523779Y27878728D01*
X3392299Y27933188D01*
X3251199Y27951765D01*
X3110100Y27933188D01*
X2978620Y27878728D01*
X2865711Y27792089D01*
X2779072Y27679180D01*
X2724612Y27547700D01*
X2706035Y27406600D01*
X0Y27406600D01*
X0Y27965400D01*
X6359819Y27965400D01*
X6377609Y27864511D01*
X6428831Y27775790D01*
X6428832Y27775789D01*
X6507307Y27709940D01*
X6507308Y27709940D01*
X6507309Y27709939D01*
X6603577Y27674900D01*
X6706023Y27674900D01*
X6802291Y27709939D01*
X6880769Y27775790D01*
X6931991Y27864511D01*
X6949781Y27965400D01*
X6931991Y28066289D01*
X6880769Y28155010D01*
X6880767Y28155012D01*
X6802292Y28220861D01*
X6706023Y28255900D01*
X6603577Y28255900D01*
X6555443Y28238381D01*
X6507309Y28220861D01*
X6428831Y28155011D01*
X6403220Y28110650D01*
X6377609Y28066289D01*
X6359819Y27965400D01*
X0Y27965400D01*
X0Y29260800D01*
X7350419Y29260800D01*
X7368209Y29159911D01*
X7413341Y29081739D01*
X7419432Y29071189D01*
X7497907Y29005340D01*
X7497908Y29005340D01*
X7497909Y29005339D01*
X7594177Y28970300D01*
X7696623Y28970300D01*
X7792891Y29005339D01*
X7871369Y29071190D01*
X7901265Y29122973D01*
X11565151Y29122973D01*
X11582941Y29022084D01*
X11634111Y28933453D01*
X11634164Y28933362D01*
X11712639Y28867513D01*
X11712640Y28867513D01*
X11712641Y28867512D01*
X11808909Y28832473D01*
X11911355Y28832473D01*
X12007623Y28867512D01*
X12086101Y28933363D01*
X12086542Y28934128D01*
X12137106Y28982344D01*
X12195112Y28993526D01*
X12195112Y28995700D01*
X12319423Y28995700D01*
X12415691Y29030739D01*
X12494169Y29096590D01*
X12542794Y29180814D01*
X12593358Y29229028D01*
X12627073Y29235527D01*
X12678764Y29235527D01*
X12726830Y29216285D01*
X12767359Y29159371D01*
X12772295Y29140348D01*
X12781522Y29088025D01*
X12829260Y29005339D01*
X12832745Y28999303D01*
X12911220Y28933454D01*
X12911221Y28933454D01*
X12911222Y28933453D01*
X13007490Y28898414D01*
X13114461Y28898414D01*
X13181500Y28878729D01*
X13221847Y28836415D01*
X13232831Y28817390D01*
X13232832Y28817389D01*
X13311307Y28751540D01*
X13311308Y28751540D01*
X13311309Y28751539D01*
X13407577Y28716500D01*
X13510023Y28716500D01*
X13606291Y28751539D01*
X13684769Y28817390D01*
X13735991Y28906111D01*
X13742713Y28944234D01*
X13773740Y29006836D01*
X13833688Y29042726D01*
X13864829Y29046700D01*
X13929923Y29046700D01*
X14026191Y29081739D01*
X14104669Y29147590D01*
X14155891Y29236311D01*
X14167008Y29299358D01*
X14198034Y29361958D01*
X14225171Y29378206D01*
X14202790Y29393615D01*
X14330745Y29393615D01*
X14385365Y29356012D01*
X14396511Y29339822D01*
X14400027Y29333731D01*
X14400028Y29333730D01*
X14442133Y29260800D01*
X14451251Y29245008D01*
X14529726Y29179159D01*
X14529727Y29179159D01*
X14529728Y29179158D01*
X14625996Y29144119D01*
X14728442Y29144119D01*
X14824710Y29179158D01*
X14903188Y29245009D01*
X14954410Y29333730D01*
X14972200Y29434619D01*
X14954410Y29535508D01*
X14903188Y29624229D01*
X14903186Y29624231D01*
X14824711Y29690080D01*
X14728442Y29725119D01*
X14625996Y29725119D01*
X14577862Y29707600D01*
X14529728Y29690080D01*
X14451250Y29624230D01*
X14425638Y29579869D01*
X14400028Y29535508D01*
X14398494Y29526810D01*
X14388911Y29472463D01*
X14357883Y29409861D01*
X14330745Y29393615D01*
X14202790Y29393615D01*
X14170552Y29415810D01*
X14159407Y29431998D01*
X14155891Y29438088D01*
X14155891Y29438089D01*
X14104669Y29526810D01*
X14104667Y29526812D01*
X14026192Y29592661D01*
X13929923Y29627700D01*
X13827477Y29627700D01*
X13817941Y29624229D01*
X13731209Y29592661D01*
X13652731Y29526811D01*
X13630290Y29487940D01*
X13601509Y29438089D01*
X13595182Y29402206D01*
X13594787Y29399967D01*
X13563760Y29337364D01*
X13503812Y29301474D01*
X13472671Y29297500D01*
X13403052Y29297500D01*
X13336013Y29317185D01*
X13295665Y29359500D01*
X13284682Y29378524D01*
X13284680Y29378526D01*
X13206205Y29444375D01*
X13109936Y29479414D01*
X13007490Y29479414D01*
X12988393Y29472463D01*
X12911222Y29444375D01*
X12832742Y29378523D01*
X12784119Y29294303D01*
X12733553Y29246087D01*
X12678764Y29235527D01*
X12627073Y29235527D01*
X12648146Y29239589D01*
X12600081Y29258831D01*
X12559552Y29315745D01*
X12554617Y29334764D01*
X12545391Y29387089D01*
X12494169Y29475810D01*
X12494167Y29475812D01*
X12415692Y29541661D01*
X12319423Y29576700D01*
X12216977Y29576700D01*
X12168843Y29559181D01*
X12120709Y29541661D01*
X12042230Y29475810D01*
X12041788Y29475043D01*
X11991221Y29426827D01*
X11933219Y29415649D01*
X11933219Y29413473D01*
X11911355Y29413473D01*
X11808909Y29413473D01*
X11760775Y29395954D01*
X11712641Y29378434D01*
X11634163Y29312584D01*
X11627749Y29301474D01*
X11582941Y29223862D01*
X11565151Y29122973D01*
X7901265Y29122973D01*
X7922591Y29159911D01*
X7940381Y29260800D01*
X7930692Y29315745D01*
X7927691Y29332767D01*
X7935435Y29402206D01*
X7979491Y29456436D01*
X8045872Y29478238D01*
X8049807Y29478300D01*
X8153823Y29478300D01*
X8250091Y29513339D01*
X8328569Y29579190D01*
X8379791Y29667911D01*
X8393102Y29743400D01*
X15503819Y29743400D01*
X15521609Y29642511D01*
X15561646Y29573164D01*
X15572832Y29553789D01*
X15651307Y29487940D01*
X15651308Y29487940D01*
X15651309Y29487939D01*
X15747577Y29452900D01*
X15850023Y29452900D01*
X15946291Y29487939D01*
X16024769Y29553790D01*
X16075991Y29642511D01*
X16093781Y29743400D01*
X16075991Y29844289D01*
X16024769Y29933010D01*
X15994499Y29958410D01*
X15946292Y29998861D01*
X15850023Y30033900D01*
X15747577Y30033900D01*
X15699443Y30016381D01*
X15651309Y29998861D01*
X15572831Y29933011D01*
X15572059Y29931673D01*
X15521609Y29844289D01*
X15503819Y29743400D01*
X8393102Y29743400D01*
X8397581Y29768800D01*
X8379791Y29869689D01*
X8328569Y29958410D01*
X8328567Y29958412D01*
X8250092Y30024261D01*
X8153823Y30059300D01*
X8051377Y30059300D01*
X8003243Y30041781D01*
X7955109Y30024261D01*
X7876631Y29958411D01*
X7851019Y29914050D01*
X7825409Y29869689D01*
X7825408Y29869688D01*
X7825409Y29869688D01*
X7807618Y29768800D01*
X7820309Y29696833D01*
X7812565Y29627394D01*
X7768509Y29573164D01*
X7702128Y29551362D01*
X7698193Y29551300D01*
X7696623Y29551300D01*
X7594177Y29551300D01*
X7567695Y29541661D01*
X7497909Y29516261D01*
X7419431Y29450411D01*
X7393820Y29406050D01*
X7368209Y29361689D01*
X7350419Y29260800D01*
X0Y29260800D01*
X0Y30403801D01*
X2020235Y30403801D01*
X2038812Y30262701D01*
X2093272Y30131221D01*
X2093273Y30131219D01*
X2093274Y30131218D01*
X2179911Y30018311D01*
X2292818Y29931674D01*
X2424301Y29877212D01*
X2546822Y29861082D01*
X2565399Y29858636D01*
X2565399Y29858637D01*
X2565400Y29858636D01*
X2706499Y29877212D01*
X2837982Y29931674D01*
X2950889Y30018311D01*
X3037526Y30131218D01*
X3091988Y30262701D01*
X3110564Y30403800D01*
X3091988Y30544899D01*
X3076786Y30581600D01*
X15605419Y30581600D01*
X15623209Y30480711D01*
X15667613Y30403800D01*
X15674432Y30391989D01*
X15752907Y30326140D01*
X15752908Y30326140D01*
X15752909Y30326139D01*
X15849177Y30291100D01*
X15951623Y30291100D01*
X16047891Y30326139D01*
X16126369Y30391990D01*
X16177591Y30480711D01*
X16195381Y30581600D01*
X16177591Y30682489D01*
X16126369Y30771210D01*
X16126367Y30771212D01*
X16047892Y30837061D01*
X15951623Y30872100D01*
X15849177Y30872100D01*
X15801043Y30854581D01*
X15752909Y30837061D01*
X15674431Y30771211D01*
X15670499Y30764400D01*
X15623209Y30682489D01*
X15605419Y30581600D01*
X3076786Y30581600D01*
X3037526Y30676382D01*
X2950889Y30789289D01*
X2837982Y30875926D01*
X2837981Y30875927D01*
X2837979Y30875928D01*
X2706499Y30930388D01*
X2565400Y30948965D01*
X2424300Y30930388D01*
X2292820Y30875928D01*
X2179911Y30789289D01*
X2093272Y30676380D01*
X2038812Y30544900D01*
X2020235Y30403801D01*
X0Y30403801D01*
X0Y31216600D01*
X3667419Y31216600D01*
X3685209Y31115711D01*
X3736431Y31026990D01*
X3736432Y31026989D01*
X3814907Y30961140D01*
X3814908Y30961140D01*
X3814909Y30961139D01*
X3911177Y30926100D01*
X4013623Y30926100D01*
X4109891Y30961139D01*
X4188369Y31026990D01*
X4239591Y31115711D01*
X4257381Y31216600D01*
X4239591Y31317489D01*
X4209852Y31369000D01*
X7350419Y31369000D01*
X7368209Y31268111D01*
X7419431Y31179390D01*
X7419432Y31179389D01*
X7497907Y31113540D01*
X7497908Y31113540D01*
X7497909Y31113539D01*
X7594177Y31078500D01*
X7687613Y31078500D01*
X7754652Y31058815D01*
X7800407Y31006011D01*
X7809728Y30976035D01*
X7825409Y30887111D01*
X7854305Y30837061D01*
X7876632Y30798389D01*
X7955107Y30732540D01*
X7955108Y30732540D01*
X7955109Y30732539D01*
X8051377Y30697500D01*
X8153823Y30697500D01*
X8250091Y30732539D01*
X8328569Y30798390D01*
X8379791Y30887111D01*
X8397581Y30988000D01*
X8379791Y31088889D01*
X8328569Y31177610D01*
X8282103Y31216600D01*
X8250092Y31243461D01*
X8153823Y31278500D01*
X8060387Y31278500D01*
X7993348Y31298185D01*
X7947593Y31350989D01*
X7941992Y31369000D01*
X16418219Y31369000D01*
X16436009Y31268111D01*
X16487231Y31179390D01*
X16487232Y31179389D01*
X16565707Y31113540D01*
X16565708Y31113540D01*
X16565709Y31113539D01*
X16661977Y31078500D01*
X16764423Y31078500D01*
X16860691Y31113539D01*
X16939169Y31179390D01*
X16990391Y31268111D01*
X17008181Y31369000D01*
X16990391Y31469889D01*
X16939169Y31558610D01*
X16939167Y31558612D01*
X16860692Y31624461D01*
X16764423Y31659500D01*
X16661977Y31659500D01*
X16613843Y31641981D01*
X16565709Y31624461D01*
X16487231Y31558611D01*
X16464905Y31519940D01*
X16436009Y31469889D01*
X16418219Y31369000D01*
X7941992Y31369000D01*
X7938271Y31380966D01*
X7922591Y31469889D01*
X7871369Y31558610D01*
X7871367Y31558612D01*
X7792892Y31624461D01*
X7696623Y31659500D01*
X7594177Y31659500D01*
X7546043Y31641981D01*
X7497909Y31624461D01*
X7419431Y31558611D01*
X7397105Y31519940D01*
X7368209Y31469889D01*
X7350419Y31369000D01*
X4209852Y31369000D01*
X4188369Y31406210D01*
X4188367Y31406212D01*
X4109892Y31472061D01*
X4013623Y31507100D01*
X3911177Y31507100D01*
X3863043Y31489581D01*
X3814909Y31472061D01*
X3736431Y31406211D01*
X3714949Y31369001D01*
X3685209Y31317489D01*
X3667419Y31216600D01*
X0Y31216600D01*
X0Y32572994D01*
X7618432Y32572994D01*
X7637009Y32431895D01*
X7691469Y32300415D01*
X7691470Y32300413D01*
X7691471Y32300412D01*
X7778108Y32187505D01*
X7891015Y32100868D01*
X8022498Y32046406D01*
X8140574Y32030861D01*
X8163596Y32027830D01*
X8163596Y32027831D01*
X8163597Y32027830D01*
X8304696Y32046406D01*
X8436179Y32100868D01*
X8549086Y32187505D01*
X8635723Y32300412D01*
X8690185Y32431895D01*
X8708761Y32572994D01*
X8690185Y32714093D01*
X8635723Y32845576D01*
X8618823Y32867601D01*
X16444235Y32867601D01*
X16462812Y32726501D01*
X16517272Y32595021D01*
X16517273Y32595019D01*
X16517274Y32595018D01*
X16603911Y32482111D01*
X16716818Y32395474D01*
X16716819Y32395474D01*
X16716820Y32395473D01*
X16784669Y32367369D01*
X16839073Y32323528D01*
X16861138Y32257234D01*
X16859333Y32231277D01*
X16850019Y32178455D01*
X16867809Y32077566D01*
X16919031Y31988845D01*
X16919032Y31988844D01*
X16997507Y31922995D01*
X16997508Y31922995D01*
X16997509Y31922994D01*
X17093777Y31887955D01*
X17132524Y31887955D01*
X17199563Y31868270D01*
X17245318Y31815466D01*
X17254640Y31785489D01*
X17256419Y31775401D01*
X17256419Y31775400D01*
X17274209Y31674511D01*
X17325431Y31585790D01*
X17325432Y31585789D01*
X17403907Y31519940D01*
X17403908Y31519940D01*
X17403909Y31519939D01*
X17500177Y31484900D01*
X17602623Y31484900D01*
X17698891Y31519939D01*
X17777369Y31585790D01*
X17828591Y31674511D01*
X17846381Y31775400D01*
X17828591Y31876289D01*
X17777369Y31965010D01*
X17748964Y31988845D01*
X17698892Y32030861D01*
X17602623Y32065900D01*
X17563876Y32065900D01*
X17496837Y32085585D01*
X17451082Y32138389D01*
X17441760Y32168366D01*
X17434011Y32212311D01*
X17422191Y32279344D01*
X17376503Y32358480D01*
X17360032Y32426376D01*
X17382885Y32492403D01*
X17385517Y32495962D01*
X17444626Y32572994D01*
X17461526Y32595018D01*
X17515988Y32726501D01*
X17534564Y32867600D01*
X17515988Y33008699D01*
X17461526Y33140182D01*
X17374889Y33253089D01*
X17261982Y33339726D01*
X17261981Y33339727D01*
X17261979Y33339728D01*
X17130499Y33394188D01*
X16989400Y33412765D01*
X16848300Y33394188D01*
X16716820Y33339728D01*
X16603911Y33253089D01*
X16517272Y33140180D01*
X16462812Y33008700D01*
X16444235Y32867601D01*
X8618823Y32867601D01*
X8549086Y32958483D01*
X8436179Y33045120D01*
X8436178Y33045121D01*
X8436176Y33045122D01*
X8304696Y33099582D01*
X8163596Y33118159D01*
X8022497Y33099582D01*
X7891017Y33045122D01*
X7778108Y32958483D01*
X7691469Y32845574D01*
X7637009Y32714094D01*
X7618432Y32572994D01*
X0Y32572994D01*
X0Y33353000D01*
X1354035Y33353000D01*
X1372612Y33211901D01*
X1427072Y33080421D01*
X1427073Y33080419D01*
X1427074Y33080418D01*
X1513711Y32967511D01*
X1626618Y32880874D01*
X1626619Y32880874D01*
X1626620Y32880873D01*
X1656405Y32868536D01*
X1758101Y32826412D01*
X1899200Y32807836D01*
X2040299Y32826412D01*
X2171782Y32880874D01*
X2284689Y32967511D01*
X2371326Y33080418D01*
X2425788Y33211901D01*
X2444364Y33353000D01*
X2425788Y33494099D01*
X2371326Y33625582D01*
X2284689Y33738489D01*
X2171782Y33825126D01*
X2171781Y33825127D01*
X2171779Y33825128D01*
X2040299Y33879588D01*
X1899200Y33898165D01*
X1758100Y33879588D01*
X1626620Y33825128D01*
X1513711Y33738489D01*
X1427072Y33625580D01*
X1372612Y33494100D01*
X1354035Y33353000D01*
X0Y33353000D01*
X0Y36601401D01*
X7455835Y36601401D01*
X7474412Y36460301D01*
X7528872Y36328821D01*
X7528873Y36328819D01*
X7528874Y36328818D01*
X7615511Y36215911D01*
X7728418Y36129274D01*
X7859901Y36074812D01*
X7982423Y36058682D01*
X8000999Y36056236D01*
X8000999Y36056237D01*
X8001000Y36056236D01*
X8142099Y36074812D01*
X8273582Y36129274D01*
X8338387Y36179001D01*
X16368035Y36179001D01*
X16386612Y36037901D01*
X16441072Y35906421D01*
X16441073Y35906419D01*
X16441074Y35906418D01*
X16527711Y35793511D01*
X16640618Y35706874D01*
X16772101Y35652412D01*
X16913200Y35633836D01*
X17054299Y35652412D01*
X17185782Y35706874D01*
X17298689Y35793511D01*
X17385326Y35906418D01*
X17439788Y36037901D01*
X17458364Y36179000D01*
X17439788Y36320099D01*
X17385326Y36451582D01*
X17298689Y36564489D01*
X17185782Y36651126D01*
X17185781Y36651127D01*
X17185779Y36651128D01*
X17054299Y36705588D01*
X16913200Y36724165D01*
X16772100Y36705588D01*
X16640620Y36651128D01*
X16527711Y36564489D01*
X16441072Y36451580D01*
X16386612Y36320100D01*
X16368035Y36179001D01*
X8338387Y36179001D01*
X8386489Y36215911D01*
X8473126Y36328818D01*
X8527588Y36460301D01*
X8546164Y36601400D01*
X8527588Y36742499D01*
X8473126Y36873982D01*
X8386489Y36986889D01*
X8273582Y37073526D01*
X8273581Y37073527D01*
X8273579Y37073528D01*
X8142099Y37127988D01*
X8001000Y37146565D01*
X7859900Y37127988D01*
X7728420Y37073528D01*
X7615511Y36986889D01*
X7528872Y36873980D01*
X7474412Y36742500D01*
X7455835Y36601401D01*
X0Y36601401D01*
X0Y37406211D01*
X4778434Y37406211D01*
X4797011Y37265111D01*
X4851471Y37133631D01*
X4851472Y37133629D01*
X4851473Y37133628D01*
X4938110Y37020721D01*
X5051017Y36934084D01*
X5182500Y36879622D01*
X5323599Y36861046D01*
X5464698Y36879622D01*
X5596181Y36934084D01*
X5709088Y37020721D01*
X5795725Y37133628D01*
X5850187Y37265111D01*
X5868763Y37406210D01*
X5850187Y37547309D01*
X5842196Y37566600D01*
X13973219Y37566600D01*
X13991009Y37465711D01*
X14042231Y37376990D01*
X14042232Y37376989D01*
X14120707Y37311140D01*
X14120708Y37311140D01*
X14120709Y37311139D01*
X14216977Y37276100D01*
X14319423Y37276100D01*
X14415691Y37311139D01*
X14494169Y37376990D01*
X14545391Y37465711D01*
X14553079Y37509315D01*
X14584106Y37571916D01*
X14644053Y37607806D01*
X14713888Y37605589D01*
X14750681Y37586156D01*
X14795618Y37551674D01*
X14927101Y37497212D01*
X15068200Y37478636D01*
X15209299Y37497212D01*
X15340782Y37551674D01*
X15453689Y37638311D01*
X15540326Y37751218D01*
X15594788Y37882701D01*
X15613364Y38023800D01*
X15594788Y38164899D01*
X15540326Y38296382D01*
X15453689Y38409289D01*
X15340782Y38495926D01*
X15340781Y38495927D01*
X15340779Y38495928D01*
X15209299Y38550388D01*
X15068200Y38568965D01*
X14927100Y38550388D01*
X14795620Y38495928D01*
X14682711Y38409289D01*
X14596072Y38296380D01*
X14541612Y38164900D01*
X14523035Y38023800D01*
X14529662Y37973469D01*
X14518896Y37904434D01*
X14472516Y37852178D01*
X14405247Y37833293D01*
X14364313Y37840762D01*
X14319424Y37857100D01*
X14319423Y37857100D01*
X14216977Y37857100D01*
X14188440Y37846713D01*
X14120709Y37822061D01*
X14042231Y37756211D01*
X14034569Y37742939D01*
X13991009Y37667489D01*
X13973219Y37566600D01*
X5842196Y37566600D01*
X5795725Y37678792D01*
X5709088Y37791699D01*
X5596181Y37878336D01*
X5596180Y37878337D01*
X5596178Y37878338D01*
X5464698Y37932798D01*
X5352271Y37947600D01*
X11973219Y37947600D01*
X11991009Y37846711D01*
X12042231Y37757990D01*
X12042232Y37757989D01*
X12120707Y37692140D01*
X12120708Y37692140D01*
X12120709Y37692139D01*
X12216977Y37657100D01*
X12319423Y37657100D01*
X12415691Y37692139D01*
X12476233Y37742940D01*
X12510918Y37772044D01*
X12511375Y37771500D01*
X12541003Y37799754D01*
X12609609Y37812984D01*
X12674476Y37787022D01*
X12677539Y37784533D01*
X12727107Y37742940D01*
X12727108Y37742940D01*
X12727109Y37742939D01*
X12823377Y37707900D01*
X12925823Y37707900D01*
X13022091Y37742939D01*
X13100569Y37808790D01*
X13151791Y37897511D01*
X13169581Y37998400D01*
X13151791Y38099289D01*
X13100569Y38188010D01*
X13082632Y38203061D01*
X13022092Y38253861D01*
X12925823Y38288900D01*
X12823377Y38288900D01*
X12775243Y38271381D01*
X12727109Y38253861D01*
X12631881Y38173955D01*
X12631423Y38174501D01*
X12601786Y38146241D01*
X12533179Y38133019D01*
X12468314Y38158987D01*
X12465260Y38161468D01*
X12415692Y38203061D01*
X12319423Y38238100D01*
X12216977Y38238100D01*
X12168843Y38220581D01*
X12120709Y38203061D01*
X12042231Y38137211D01*
X12039811Y38133019D01*
X11991009Y38048489D01*
X11973219Y37947600D01*
X5352271Y37947600D01*
X5323598Y37951375D01*
X5182499Y37932798D01*
X5051019Y37878338D01*
X4938110Y37791699D01*
X4851471Y37678790D01*
X4797011Y37547310D01*
X4778434Y37406211D01*
X0Y37406211D01*
X0Y40566696D01*
X9902174Y40566696D01*
X9919964Y40465807D01*
X9971186Y40377086D01*
X9971187Y40377085D01*
X10049662Y40311236D01*
X10049663Y40311236D01*
X10049664Y40311235D01*
X10145932Y40276196D01*
X10248378Y40276196D01*
X10344646Y40311235D01*
X10423124Y40377086D01*
X10474346Y40465807D01*
X10492136Y40566696D01*
X10474346Y40667585D01*
X10423124Y40756306D01*
X10423122Y40756308D01*
X10344647Y40822157D01*
X10248378Y40857196D01*
X10145932Y40857196D01*
X10097798Y40839677D01*
X10049664Y40822157D01*
X9971186Y40756307D01*
X9945574Y40711946D01*
X9919964Y40667585D01*
X9902174Y40566696D01*
X0Y40566696D01*
X0Y41580000D01*
X9430019Y41580000D01*
X9447809Y41479111D01*
X9499031Y41390390D01*
X9499032Y41390389D01*
X9577507Y41324540D01*
X9577508Y41324540D01*
X9577509Y41324539D01*
X9673777Y41289500D01*
X9776223Y41289500D01*
X9872491Y41324539D01*
X9950969Y41390390D01*
X10002191Y41479111D01*
X10011023Y41529200D01*
X13764119Y41529200D01*
X13781909Y41428311D01*
X13833131Y41339590D01*
X13833132Y41339589D01*
X13911607Y41273740D01*
X13911608Y41273740D01*
X13911609Y41273739D01*
X14007877Y41238700D01*
X14110323Y41238700D01*
X14206591Y41273739D01*
X14285069Y41339590D01*
X14336291Y41428311D01*
X14354081Y41529200D01*
X14336291Y41630089D01*
X14285069Y41718810D01*
X14279176Y41723755D01*
X14206592Y41784661D01*
X14110323Y41819700D01*
X14007877Y41819700D01*
X13959743Y41802181D01*
X13911609Y41784661D01*
X13833131Y41718811D01*
X13811238Y41680889D01*
X13781909Y41630089D01*
X13764119Y41529200D01*
X10011023Y41529200D01*
X10019981Y41580000D01*
X10002191Y41680889D01*
X9950969Y41769610D01*
X9933032Y41784661D01*
X9872492Y41835461D01*
X9776223Y41870500D01*
X9673777Y41870500D01*
X9625643Y41852981D01*
X9577509Y41835461D01*
X9499031Y41769611D01*
X9476048Y41729801D01*
X9447809Y41680889D01*
X9430019Y41580000D01*
X0Y41580000D01*
X0Y42570600D01*
X8439419Y42570600D01*
X8457209Y42469711D01*
X8508431Y42380990D01*
X8508432Y42380989D01*
X8586907Y42315140D01*
X8586908Y42315140D01*
X8586909Y42315139D01*
X8683177Y42280100D01*
X8785623Y42280100D01*
X8881891Y42315139D01*
X8960369Y42380990D01*
X9011591Y42469711D01*
X9029381Y42570600D01*
X9011591Y42671489D01*
X8960369Y42760210D01*
X8960367Y42760212D01*
X8881892Y42826061D01*
X8785623Y42861100D01*
X8683177Y42861100D01*
X8635043Y42843581D01*
X8586909Y42826061D01*
X8508431Y42760211D01*
X8498265Y42742602D01*
X8457209Y42671489D01*
X8439419Y42570600D01*
X0Y42570600D01*
X0Y45059801D01*
X2372635Y45059801D01*
X2391212Y44918701D01*
X2445672Y44787221D01*
X2445673Y44787219D01*
X2445674Y44787218D01*
X2532311Y44674311D01*
X2645218Y44587674D01*
X2776701Y44533212D01*
X2899223Y44517082D01*
X2917799Y44514636D01*
X2917799Y44514637D01*
X2917800Y44514636D01*
X3038365Y44530509D01*
X3107399Y44519744D01*
X3142230Y44495251D01*
X3355594Y44281887D01*
X3360063Y44277178D01*
X3387879Y44246285D01*
X3408372Y44237161D01*
X3425465Y44227881D01*
X3444288Y44215657D01*
X3447380Y44215168D01*
X3478420Y44205974D01*
X3481280Y44204700D01*
X3503715Y44204700D01*
X3523112Y44203173D01*
X3545268Y44199664D01*
X3548295Y44200476D01*
X3580387Y44204700D01*
X5233459Y44204700D01*
X5300498Y44185015D01*
X5346253Y44132211D01*
X5356197Y44063053D01*
X5348020Y44033248D01*
X5312212Y43946800D01*
X5293635Y43805700D01*
X5312212Y43664601D01*
X5366672Y43533121D01*
X5366673Y43533119D01*
X5366674Y43533118D01*
X5453311Y43420211D01*
X5566218Y43333574D01*
X5697701Y43279112D01*
X5820223Y43262982D01*
X5838799Y43260536D01*
X5838799Y43260537D01*
X5838800Y43260536D01*
X5979899Y43279112D01*
X6111382Y43333574D01*
X6224289Y43420211D01*
X6310926Y43533118D01*
X6365388Y43664601D01*
X6383964Y43805700D01*
X6365388Y43946799D01*
X6342249Y44002661D01*
X6329580Y44033248D01*
X6322111Y44102717D01*
X6353386Y44165196D01*
X6413476Y44200848D01*
X6444141Y44204700D01*
X10553678Y44204700D01*
X10620717Y44185015D01*
X10666472Y44132211D01*
X10676416Y44063053D01*
X10669860Y44037368D01*
X10667401Y44030776D01*
X10661354Y43974533D01*
X10661000Y43967919D01*
X10661000Y43323400D01*
X11577314Y43323400D01*
X11551507Y43283244D01*
X11511000Y43145289D01*
X11511000Y43001511D01*
X11551507Y42863556D01*
X11577314Y42823400D01*
X10661000Y42823400D01*
X10661000Y42178882D01*
X10661354Y42172268D01*
X10667400Y42116029D01*
X10717647Y41981311D01*
X10803811Y41866212D01*
X10918910Y41780048D01*
X11053628Y41729801D01*
X11109867Y41723755D01*
X11116482Y41723400D01*
X11761000Y41723400D01*
X11761000Y42637899D01*
X11868685Y42588720D01*
X11975237Y42573400D01*
X12046763Y42573400D01*
X12153315Y42588720D01*
X12261000Y42637899D01*
X12261000Y41723400D01*
X12905518Y41723400D01*
X12912132Y41723755D01*
X12968371Y41729801D01*
X13103089Y41780048D01*
X13218188Y41866212D01*
X13304352Y41981311D01*
X13354599Y42116029D01*
X13360645Y42172268D01*
X13361000Y42178882D01*
X13361000Y42823400D01*
X12444686Y42823400D01*
X12470493Y42863556D01*
X12511000Y43001511D01*
X12511000Y43145289D01*
X12470493Y43283244D01*
X12444686Y43323400D01*
X13361000Y43323400D01*
X13361000Y43967600D01*
X14891019Y43967600D01*
X14908809Y43866711D01*
X14960031Y43777990D01*
X14960032Y43777989D01*
X15038507Y43712140D01*
X15038508Y43712140D01*
X15038509Y43712139D01*
X15134777Y43677100D01*
X15237223Y43677100D01*
X15333491Y43712139D01*
X15411969Y43777990D01*
X15463191Y43866711D01*
X15480981Y43967600D01*
X15463191Y44068489D01*
X15411969Y44157210D01*
X15402452Y44165196D01*
X15333492Y44223061D01*
X15237223Y44258100D01*
X15134777Y44258100D01*
X15086643Y44240581D01*
X15038509Y44223061D01*
X14960031Y44157211D01*
X14945598Y44132211D01*
X14908809Y44068489D01*
X14891019Y43967600D01*
X13361000Y43967600D01*
X13361000Y43967919D01*
X13360645Y43974533D01*
X13354599Y44030772D01*
X13304352Y44165490D01*
X13218188Y44280589D01*
X13103089Y44366753D01*
X12968371Y44417000D01*
X12912132Y44423046D01*
X12905518Y44423400D01*
X12336205Y44423400D01*
X12269166Y44443085D01*
X12223411Y44495889D01*
X12213467Y44565047D01*
X12242492Y44628603D01*
X12300209Y44666060D01*
X12364952Y44685700D01*
X12391882Y44693869D01*
X12563955Y44785844D01*
X12714778Y44909622D01*
X12838556Y45060445D01*
X12930531Y45232518D01*
X12987169Y45419228D01*
X13006293Y45613400D01*
X12987169Y45807572D01*
X12930531Y45994282D01*
X12838556Y46166355D01*
X12714778Y46317178D01*
X12563955Y46440956D01*
X12541732Y46452834D01*
X12391881Y46532932D01*
X12205173Y46589569D01*
X12011000Y46608693D01*
X11816826Y46589569D01*
X11630118Y46532932D01*
X11458046Y46440957D01*
X11307222Y46317178D01*
X11183443Y46166354D01*
X11091468Y45994282D01*
X11034831Y45807574D01*
X11015707Y45613400D01*
X11034831Y45419227D01*
X11061176Y45332380D01*
X11091469Y45232518D01*
X11108369Y45200900D01*
X11117271Y45184246D01*
X11131512Y45115843D01*
X11106511Y45050600D01*
X11095594Y45038113D01*
X10779499Y44722018D01*
X10718178Y44688534D01*
X10691820Y44685700D01*
X9218586Y44685700D01*
X9151547Y44705385D01*
X9105792Y44758189D01*
X9095848Y44827347D01*
X9096470Y44831232D01*
X9097081Y44834700D01*
X9096963Y44835370D01*
X9079291Y44935589D01*
X9028069Y45024310D01*
X9028067Y45024312D01*
X8949592Y45090161D01*
X8853323Y45125200D01*
X8750877Y45125200D01*
X8702743Y45107681D01*
X8654609Y45090161D01*
X8576131Y45024311D01*
X8550520Y44979950D01*
X8524909Y44935589D01*
X8524908Y44935588D01*
X8524909Y44935588D01*
X8507119Y44834700D01*
X8507730Y44831232D01*
X8499986Y44761792D01*
X8455929Y44707564D01*
X8389547Y44685762D01*
X8385614Y44685700D01*
X3683381Y44685700D01*
X3616342Y44705385D01*
X3595700Y44722019D01*
X3482349Y44835370D01*
X3448864Y44896693D01*
X3447091Y44939234D01*
X3462964Y45059800D01*
X3444388Y45200899D01*
X3389926Y45332382D01*
X3303289Y45445289D01*
X3190382Y45531926D01*
X3190381Y45531927D01*
X3190379Y45531928D01*
X3058899Y45586388D01*
X2917800Y45604965D01*
X2776700Y45586388D01*
X2645220Y45531928D01*
X2532311Y45445289D01*
X2445672Y45332380D01*
X2391212Y45200900D01*
X2372635Y45059801D01*
X0Y45059801D01*
X0Y48209200D01*
X5754035Y48209200D01*
X5772612Y48068101D01*
X5827072Y47936621D01*
X5827073Y47936619D01*
X5827074Y47936618D01*
X5913711Y47823711D01*
X6026618Y47737074D01*
X6158101Y47682612D01*
X6280622Y47666482D01*
X6299199Y47664036D01*
X6299199Y47664037D01*
X6299200Y47664036D01*
X6440299Y47682612D01*
X6571782Y47737074D01*
X6684689Y47823711D01*
X6771326Y47936618D01*
X6796071Y47996358D01*
X14627300Y47996358D01*
X14667430Y47833547D01*
X14704457Y47762997D01*
X14745356Y47685070D01*
X14856549Y47559559D01*
X14994551Y47464302D01*
X15050344Y47443143D01*
X15151339Y47404841D01*
X15276037Y47389700D01*
X15279787Y47389700D01*
X16455813Y47389700D01*
X16459563Y47389700D01*
X16584261Y47404841D01*
X16741048Y47464302D01*
X16879049Y47559558D01*
X16900892Y47584213D01*
X16971609Y47664036D01*
X16990244Y47685071D01*
X17068170Y47833547D01*
X17108300Y47996358D01*
X17108300Y48164042D01*
X17068170Y48326853D01*
X16990244Y48475329D01*
X16990243Y48475331D01*
X16879050Y48600842D01*
X16741048Y48696099D01*
X16584261Y48755559D01*
X16463282Y48770249D01*
X16463272Y48770250D01*
X16459563Y48770700D01*
X15276037Y48770700D01*
X15272328Y48770250D01*
X15272317Y48770249D01*
X15151338Y48755559D01*
X14994551Y48696099D01*
X14856549Y48600842D01*
X14745356Y48475331D01*
X14679736Y48350300D01*
X14667430Y48326853D01*
X14627300Y48164042D01*
X14627300Y47996358D01*
X6796071Y47996358D01*
X6825788Y48068101D01*
X6844364Y48209200D01*
X6825788Y48350299D01*
X6783664Y48451995D01*
X6771327Y48481780D01*
X6771326Y48481781D01*
X6771326Y48481782D01*
X6684689Y48594689D01*
X6571782Y48681326D01*
X6571781Y48681327D01*
X6571779Y48681328D01*
X6440299Y48735788D01*
X6299199Y48754365D01*
X6158100Y48735788D01*
X6026620Y48681328D01*
X5913711Y48594689D01*
X5827072Y48481780D01*
X5772612Y48350300D01*
X5754035Y48209200D01*
X0Y48209200D01*
X0Y49352400D01*
X1336092Y49352400D01*
X1355670Y49166130D01*
X1355671Y49166127D01*
X1413546Y48988002D01*
X1413547Y48988001D01*
X1507195Y48825798D01*
X1540508Y48788801D01*
X1632519Y48686612D01*
X1784046Y48576521D01*
X1955151Y48500340D01*
X2138350Y48461400D01*
X2138352Y48461400D01*
X2325650Y48461400D01*
X2508848Y48500340D01*
X2508849Y48500341D01*
X2508851Y48500341D01*
X2679954Y48576521D01*
X2831479Y48686611D01*
X2956805Y48825798D01*
X3050453Y48988001D01*
X3108330Y49166130D01*
X3127908Y49352400D01*
X3108330Y49538670D01*
X3050453Y49716799D01*
X2956805Y49879002D01*
X2875940Y49968811D01*
X2831480Y50018189D01*
X2679953Y50128280D01*
X2508848Y50204461D01*
X2325650Y50243400D01*
X2325648Y50243400D01*
X2138352Y50243400D01*
X2138350Y50243400D01*
X1955151Y50204461D01*
X1784046Y50128280D01*
X1632519Y50018189D01*
X1507195Y49879002D01*
X1413546Y49716799D01*
X1356682Y49541786D01*
X1355670Y49538670D01*
X1336092Y49352400D01*
X0Y49352400D01*
X0Y51892400D01*
X1336092Y51892400D01*
X1355670Y51706130D01*
X1355671Y51706127D01*
X1413546Y51528002D01*
X1413547Y51528001D01*
X1507195Y51365798D01*
X1563616Y51303137D01*
X1632519Y51226612D01*
X1784046Y51116521D01*
X1955151Y51040340D01*
X2138350Y51001400D01*
X2138352Y51001400D01*
X2325650Y51001400D01*
X2508848Y51040340D01*
X2508849Y51040341D01*
X2508851Y51040341D01*
X2653628Y51104800D01*
X10983235Y51104800D01*
X11001812Y50963701D01*
X11056272Y50832221D01*
X11056273Y50832219D01*
X11056274Y50832218D01*
X11142911Y50719311D01*
X11255818Y50632674D01*
X11387301Y50578212D01*
X11509823Y50562082D01*
X11528399Y50559636D01*
X11528399Y50559637D01*
X11528400Y50559636D01*
X11669499Y50578212D01*
X11800982Y50632674D01*
X11913889Y50719311D01*
X12000526Y50832218D01*
X12054988Y50963701D01*
X12073564Y51104800D01*
X12054988Y51245899D01*
X12000526Y51377382D01*
X11913889Y51490289D01*
X11800982Y51576926D01*
X11800981Y51576927D01*
X11800979Y51576928D01*
X11669499Y51631388D01*
X11528400Y51649965D01*
X11387300Y51631388D01*
X11255820Y51576928D01*
X11142911Y51490289D01*
X11056272Y51377380D01*
X11001812Y51245900D01*
X10983235Y51104800D01*
X2653628Y51104800D01*
X2679954Y51116521D01*
X2831479Y51226611D01*
X2956805Y51365798D01*
X3050453Y51528001D01*
X3108330Y51706130D01*
X3127908Y51892400D01*
X3108330Y52078670D01*
X3050453Y52256799D01*
X2956805Y52419002D01*
X2894141Y52488596D01*
X2831480Y52558189D01*
X2679953Y52668280D01*
X2508848Y52744461D01*
X2325650Y52783400D01*
X2325648Y52783400D01*
X2138352Y52783400D01*
X2138350Y52783400D01*
X1955151Y52744461D01*
X1784046Y52668280D01*
X1632519Y52558189D01*
X1507195Y52419002D01*
X1413546Y52256799D01*
X1355671Y52078674D01*
X1355670Y52078670D01*
X1336092Y51892400D01*
X0Y51892400D01*
X0Y54432400D01*
X976722Y54432400D01*
X995792Y54214426D01*
X1052425Y54003069D01*
X1144898Y53804760D01*
X1188514Y53742470D01*
X1188516Y53742469D01*
X1762941Y54316895D01*
X1788497Y54229859D01*
X1863524Y54113114D01*
X1968404Y54022236D01*
X2094638Y53964587D01*
X2114835Y53961683D01*
X1542067Y53388917D01*
X1604360Y53345299D01*
X1802668Y53252826D01*
X2014025Y53196193D01*
X2232000Y53177123D01*
X2449974Y53196193D01*
X2661331Y53252826D01*
X2859636Y53345298D01*
X2921930Y53388917D01*
X2349164Y53961684D01*
X2369362Y53964587D01*
X2495596Y54022236D01*
X2600476Y54113114D01*
X2675503Y54229859D01*
X2701058Y54316895D01*
X3275483Y53742470D01*
X3319102Y53804764D01*
X3411574Y54003069D01*
X3468207Y54214426D01*
X3487277Y54432400D01*
X3468207Y54650375D01*
X3411574Y54861732D01*
X3319101Y55060037D01*
X3275483Y55122333D01*
X2701058Y54547907D01*
X2675503Y54634941D01*
X2600476Y54751686D01*
X2495596Y54842564D01*
X2369362Y54900213D01*
X2349164Y54903117D01*
X2921931Y55475884D01*
X2921930Y55475886D01*
X2859640Y55519502D01*
X2661331Y55611975D01*
X2449974Y55668608D01*
X2232000Y55687678D01*
X2014025Y55668608D01*
X1802668Y55611975D01*
X1604362Y55519503D01*
X1542068Y55475885D01*
X2114835Y54903118D01*
X2094638Y54900213D01*
X1968404Y54842564D01*
X1863524Y54751686D01*
X1788497Y54634941D01*
X1762941Y54547906D01*
X1188515Y55122332D01*
X1144897Y55060038D01*
X1052425Y54861732D01*
X995792Y54650375D01*
X976722Y54432400D01*
X0Y54432400D01*
X0Y56591400D01*
X2474235Y56591400D01*
X2492812Y56450301D01*
X2547272Y56318821D01*
X2547273Y56318819D01*
X2547274Y56318818D01*
X2633911Y56205911D01*
X2746818Y56119274D01*
X2746819Y56119274D01*
X2746820Y56119273D01*
X2784755Y56103560D01*
X2878301Y56064812D01*
X2888077Y56063525D01*
X2951970Y56035261D01*
X2959571Y56028268D01*
X3574695Y55413144D01*
X3583961Y55402776D01*
X3605599Y55375643D01*
X3650825Y55344809D01*
X3651734Y55344189D01*
X3655517Y55341505D01*
X3705417Y55304677D01*
X3709409Y55302662D01*
X3715313Y55300841D01*
X3715315Y55300840D01*
X3768683Y55284379D01*
X3773008Y55282957D01*
X3825781Y55264489D01*
X3825782Y55264489D01*
X3831609Y55262450D01*
X3836024Y55261700D01*
X3842205Y55261700D01*
X3898026Y55261700D01*
X3902662Y55261613D01*
X3964645Y55259294D01*
X3982920Y55261700D01*
X7908797Y55261700D01*
X7936388Y55258592D01*
X7939110Y55257970D01*
X7939110Y55257971D01*
X7939111Y55257970D01*
X7984254Y55261353D01*
X7993521Y55261700D01*
X12183577Y55261700D01*
X12250616Y55242015D01*
X12271258Y55225381D01*
X13632266Y53864373D01*
X13665751Y53803050D01*
X13667524Y53792882D01*
X13668812Y53783100D01*
X13723272Y53651620D01*
X13729273Y53643800D01*
X13754470Y53578631D01*
X13754900Y53568310D01*
X13754900Y51232091D01*
X13735215Y51165052D01*
X13729277Y51156606D01*
X13723273Y51148782D01*
X13668812Y51017300D01*
X13650235Y50876200D01*
X13668811Y50735104D01*
X13668811Y50735102D01*
X13668812Y50735101D01*
X13695153Y50671508D01*
X13707750Y50641096D01*
X13715218Y50571626D01*
X13683942Y50509147D01*
X13662079Y50490542D01*
X13575385Y50432616D01*
X13516704Y50344792D01*
X13496098Y50241200D01*
X13513584Y50153295D01*
X13507357Y50083703D01*
X13464494Y50028526D01*
X13409882Y50009261D01*
X13409991Y50008713D01*
X13406182Y50007956D01*
X13398604Y50005282D01*
X13394291Y50005591D01*
X13282208Y49983296D01*
X13194385Y49924615D01*
X13135704Y49836792D01*
X13115098Y49733200D01*
X13135704Y49629609D01*
X13135704Y49629608D01*
X13135705Y49629607D01*
X13194385Y49541785D01*
X13282207Y49483105D01*
X13334003Y49472803D01*
X13385799Y49462499D01*
X13385799Y49462500D01*
X13385800Y49462499D01*
X13489393Y49483105D01*
X13577215Y49541785D01*
X13635895Y49629607D01*
X13656501Y49733200D01*
X13639015Y49821107D01*
X13645242Y49890697D01*
X13688105Y49945874D01*
X13742717Y49965141D01*
X13742609Y49965687D01*
X13746407Y49966443D01*
X13753994Y49969119D01*
X13758310Y49968811D01*
X13766798Y49970500D01*
X13766800Y49970499D01*
X13870393Y49991105D01*
X13958215Y50049785D01*
X14016895Y50137607D01*
X14036286Y50235096D01*
X14068671Y50297005D01*
X14129386Y50331579D01*
X14174087Y50333842D01*
X14195400Y50331036D01*
X14336499Y50349612D01*
X14467982Y50404074D01*
X14580889Y50490711D01*
X14667526Y50603618D01*
X14721988Y50735101D01*
X14740564Y50876200D01*
X14721988Y51017299D01*
X14667526Y51148782D01*
X14661523Y51156606D01*
X14636330Y51221775D01*
X14635900Y51232091D01*
X14635900Y51499626D01*
X14655585Y51566665D01*
X14708389Y51612420D01*
X14777547Y51622364D01*
X14782705Y51621481D01*
X14782797Y51621500D01*
X14782800Y51621499D01*
X14886393Y51642105D01*
X14974215Y51700785D01*
X15032895Y51788607D01*
X15053501Y51892200D01*
X15032895Y51995793D01*
X14974215Y52083615D01*
X14886393Y52142295D01*
X14886392Y52142296D01*
X14886391Y52142296D01*
X14866764Y52146200D01*
X15888470Y52146200D01*
X15909076Y52042609D01*
X15909076Y52042608D01*
X15909077Y52042607D01*
X15967757Y51954785D01*
X16055579Y51896105D01*
X16159172Y51875499D01*
X16262765Y51896105D01*
X16350587Y51954785D01*
X16409267Y52042607D01*
X16429873Y52146200D01*
X16409267Y52249793D01*
X16350587Y52337615D01*
X16262765Y52396295D01*
X16262764Y52396296D01*
X16262763Y52396296D01*
X16159172Y52416902D01*
X16055580Y52396296D01*
X15967757Y52337615D01*
X15909076Y52249792D01*
X15888470Y52146200D01*
X14866764Y52146200D01*
X14779398Y52163578D01*
X14714494Y52169388D01*
X14659319Y52212254D01*
X14636077Y52278145D01*
X14635900Y52284776D01*
X14635900Y52515626D01*
X14655585Y52582665D01*
X14708389Y52628420D01*
X14777547Y52638364D01*
X14782705Y52637481D01*
X14782797Y52637500D01*
X14782800Y52637499D01*
X14886393Y52658105D01*
X14974215Y52716785D01*
X15032895Y52804607D01*
X15053501Y52908200D01*
X15032895Y53011793D01*
X14974215Y53099615D01*
X14886393Y53158295D01*
X14886392Y53158296D01*
X14886391Y53158296D01*
X14779398Y53179578D01*
X14714494Y53185388D01*
X14659319Y53228254D01*
X14636077Y53294145D01*
X14635900Y53300776D01*
X14635900Y53568310D01*
X14655585Y53635349D01*
X14661527Y53643800D01*
X14662304Y53644814D01*
X14667526Y53651618D01*
X14721988Y53783101D01*
X14740564Y53924200D01*
X14721988Y54065299D01*
X14667526Y54196782D01*
X14580889Y54309689D01*
X14467982Y54396326D01*
X14336499Y54450788D01*
X14331873Y54451397D01*
X14326718Y54452076D01*
X14262822Y54480346D01*
X14255227Y54487334D01*
X12751303Y55991258D01*
X12742037Y56001626D01*
X12740560Y56003478D01*
X12720401Y56028757D01*
X12677464Y56058031D01*
X12674251Y56060222D01*
X12670470Y56062905D01*
X12620591Y56099718D01*
X12616583Y56101741D01*
X12557327Y56120019D01*
X12552922Y56121469D01*
X12494407Y56141945D01*
X12489960Y56142700D01*
X12483795Y56142700D01*
X12427964Y56142700D01*
X12423328Y56142787D01*
X12414484Y56143118D01*
X12361354Y56145106D01*
X12343080Y56142700D01*
X11023026Y56142700D01*
X10955987Y56162385D01*
X10910232Y56215189D01*
X10900288Y56284347D01*
X10924650Y56342187D01*
X10949863Y56375045D01*
X10984526Y56420218D01*
X11038988Y56551701D01*
X11050133Y56636358D01*
X14627300Y56636358D01*
X14667430Y56473547D01*
X14695418Y56420221D01*
X14745356Y56325070D01*
X14856549Y56199559D01*
X14994551Y56104302D01*
X15054011Y56081752D01*
X15151339Y56044841D01*
X15276037Y56029700D01*
X15279787Y56029700D01*
X16455813Y56029700D01*
X16459563Y56029700D01*
X16584261Y56044841D01*
X16741048Y56104302D01*
X16879049Y56199558D01*
X16900892Y56224213D01*
X16990243Y56325070D01*
X16999227Y56342187D01*
X17068170Y56473547D01*
X17108300Y56636358D01*
X17108300Y56804042D01*
X17068170Y56966853D01*
X16990244Y57115329D01*
X16990243Y57115331D01*
X16879050Y57240842D01*
X16741048Y57336099D01*
X16584261Y57395559D01*
X16463282Y57410249D01*
X16463272Y57410250D01*
X16459563Y57410700D01*
X15276037Y57410700D01*
X15272328Y57410250D01*
X15272317Y57410249D01*
X15151338Y57395559D01*
X14994551Y57336099D01*
X14856549Y57240842D01*
X14745356Y57115331D01*
X14675197Y56981652D01*
X14667430Y56966853D01*
X14627300Y56804042D01*
X14627300Y56636358D01*
X11050133Y56636358D01*
X11057564Y56692800D01*
X11038988Y56833899D01*
X10984526Y56965382D01*
X10983396Y56966855D01*
X10978523Y56973206D01*
X10953330Y57038375D01*
X10952900Y57048691D01*
X10952900Y62902050D01*
X10972585Y62969089D01*
X11025389Y63014844D01*
X11094547Y63024788D01*
X11152384Y63000427D01*
X11182818Y62977074D01*
X11182819Y62977074D01*
X11182820Y62977073D01*
X11314296Y62922614D01*
X11314301Y62922612D01*
X11324077Y62921325D01*
X11387970Y62893061D01*
X11395571Y62886068D01*
X11457895Y62823744D01*
X11467161Y62813376D01*
X11488798Y62786244D01*
X11534942Y62754783D01*
X11538720Y62752103D01*
X11583642Y62718948D01*
X11583643Y62718948D01*
X11588613Y62715280D01*
X11592612Y62713261D01*
X11598514Y62711441D01*
X11598515Y62711440D01*
X11651886Y62694978D01*
X11656241Y62693546D01*
X11708981Y62675090D01*
X11708983Y62675090D01*
X11714810Y62673051D01*
X11719227Y62672300D01*
X11725405Y62672300D01*
X11781236Y62672300D01*
X11785871Y62672214D01*
X11841677Y62670125D01*
X11841679Y62670126D01*
X11847845Y62669895D01*
X11866120Y62672300D01*
X15010524Y62672300D01*
X15024408Y62671520D01*
X15027215Y62671204D01*
X15058888Y62667635D01*
X15113816Y62678030D01*
X15118313Y62678793D01*
X15120513Y62679124D01*
X15138934Y62680500D01*
X17482100Y62680500D01*
X17549139Y62660815D01*
X17594894Y62608011D01*
X17606100Y62556500D01*
X17606100Y53044906D01*
X17586415Y52977867D01*
X17533611Y52932112D01*
X17464453Y52922168D01*
X17457912Y52923288D01*
X17449800Y52924902D01*
X17346208Y52904296D01*
X17258385Y52845615D01*
X17199704Y52757792D01*
X17179098Y52654200D01*
X17199704Y52550609D01*
X17199704Y52550608D01*
X17199705Y52550607D01*
X17258385Y52462785D01*
X17346207Y52404105D01*
X17449800Y52383499D01*
X17457908Y52385112D01*
X17527500Y52378885D01*
X17582677Y52336022D01*
X17605922Y52270132D01*
X17606100Y52263495D01*
X17606100Y50004601D01*
X17605320Y49990717D01*
X17601434Y49956235D01*
X17611816Y49901366D01*
X17612593Y49896796D01*
X17621833Y49835491D01*
X17623243Y49831208D01*
X17652203Y49776413D01*
X17654292Y49772275D01*
X17681200Y49716400D01*
X17683812Y49712720D01*
X17727626Y49668906D01*
X17730842Y49665567D01*
X17773046Y49620083D01*
X17787673Y49608859D01*
X19010980Y48385552D01*
X19044465Y48324229D01*
X19047299Y48297871D01*
X19047299Y25143455D01*
X19027614Y25076416D01*
X19010980Y25055774D01*
X18957941Y25002735D01*
X18947575Y24993471D01*
X18920443Y24971834D01*
X18888984Y24925693D01*
X18886304Y24921916D01*
X18849488Y24872031D01*
X18847454Y24868001D01*
X18829182Y24808766D01*
X18827734Y24804365D01*
X18807257Y24745842D01*
X18806500Y24741385D01*
X18806500Y24679395D01*
X18806413Y24674758D01*
X18804094Y24612788D01*
X18806500Y24594512D01*
X18806500Y23443224D01*
X18786815Y23376185D01*
X18770181Y23355543D01*
X17184898Y21770260D01*
X17123575Y21736775D01*
X17053883Y21741759D01*
X16997950Y21783631D01*
X16973533Y21849095D01*
X16988385Y21917368D01*
X16989775Y21919845D01*
X16990391Y21920911D01*
X17008181Y22021800D01*
X16990391Y22122689D01*
X16939169Y22211410D01*
X16939167Y22211412D01*
X16860692Y22277261D01*
X16764423Y22312300D01*
X16661977Y22312300D01*
X16613843Y22294781D01*
X16565709Y22277261D01*
X16487231Y22211411D01*
X16461620Y22167050D01*
X16436009Y22122689D01*
X16418219Y22021800D01*
X16436009Y21920911D01*
X16452413Y21892497D01*
X16468884Y21824598D01*
X16446032Y21758572D01*
X16391110Y21715382D01*
X16345025Y21706500D01*
X12769167Y21706500D01*
X12755283Y21707280D01*
X12720802Y21711166D01*
X12665947Y21700786D01*
X12661376Y21700009D01*
X12600059Y21690767D01*
X12595785Y21689361D01*
X12571780Y21676674D01*
X12540962Y21660388D01*
X12536843Y21658308D01*
X12480962Y21631398D01*
X12477292Y21628793D01*
X12433464Y21584966D01*
X12430127Y21581752D01*
X12384648Y21539553D01*
X12373429Y21524932D01*
X11239341Y20390844D01*
X11228975Y20381580D01*
X11201843Y20359943D01*
X11170384Y20313802D01*
X11167704Y20310025D01*
X11130888Y20260140D01*
X11128854Y20256110D01*
X11110582Y20196875D01*
X11109134Y20192474D01*
X11088657Y20133951D01*
X11087900Y20129494D01*
X11087900Y20067504D01*
X11087813Y20062867D01*
X11085494Y20000897D01*
X11087900Y19982621D01*
X11087900Y4554982D01*
X11068215Y4487943D01*
X11029178Y4449555D01*
X10844200Y4335022D01*
X10689369Y4193875D01*
X10563112Y4026684D01*
X10469722Y3839132D01*
X10412388Y3637622D01*
X10393057Y3429001D01*
X10412388Y3220379D01*
X10469722Y3018869D01*
X10563112Y2831317D01*
X10689369Y2664126D01*
X10844200Y2522979D01*
X10844202Y2522978D01*
X10844203Y2522977D01*
X11022334Y2412683D01*
X11217699Y2336998D01*
X11423644Y2298500D01*
X11423646Y2298500D01*
X11633154Y2298500D01*
X11633156Y2298500D01*
X11839101Y2336998D01*
X12034466Y2412683D01*
X12212597Y2522977D01*
X12367429Y2664124D01*
X12430558Y2747722D01*
X12493687Y2831317D01*
X12587077Y3018869D01*
X12644411Y3220379D01*
X12644412Y3220381D01*
X12663743Y3429000D01*
X12644412Y3637619D01*
X12634670Y3671856D01*
X12587077Y3839132D01*
X12493687Y4026684D01*
X12367430Y4193875D01*
X12212599Y4335022D01*
X12027622Y4449555D01*
X11980987Y4501583D01*
X11968900Y4554982D01*
X11968900Y19354630D01*
X11988585Y19421669D01*
X12041389Y19467424D01*
X12110547Y19477368D01*
X12168387Y19453005D01*
X12249618Y19390674D01*
X12381101Y19336212D01*
X12522200Y19317636D01*
X12663299Y19336212D01*
X12794782Y19390674D01*
X12907689Y19477311D01*
X12994326Y19590218D01*
X13048788Y19721701D01*
X13067364Y19862800D01*
X13048788Y20003899D01*
X12994326Y20135382D01*
X12907689Y20248289D01*
X12794782Y20334926D01*
X12794781Y20334927D01*
X12794779Y20334928D01*
X12707832Y20370942D01*
X12653428Y20414783D01*
X12631363Y20481077D01*
X12648642Y20548776D01*
X12667594Y20573175D01*
X12883604Y20789184D01*
X12944925Y20822666D01*
X12971283Y20825500D01*
X17271893Y20825500D01*
X17285777Y20824720D01*
X17288205Y20824447D01*
X17320257Y20820835D01*
X17375168Y20831226D01*
X17379665Y20831990D01*
X17434906Y20840315D01*
X17434907Y20840316D01*
X17441020Y20841237D01*
X17445265Y20842634D01*
X17450728Y20845522D01*
X17450731Y20845522D01*
X17500093Y20871612D01*
X17504205Y20873689D01*
X17554546Y20897930D01*
X17554548Y20897933D01*
X17560113Y20900612D01*
X17563758Y20903199D01*
X17568127Y20907569D01*
X17568132Y20907571D01*
X17607643Y20947084D01*
X17610933Y20950251D01*
X17651887Y20988250D01*
X17651887Y20988252D01*
X17656413Y20992450D01*
X17667631Y21007072D01*
X18925359Y22264800D01*
X20367019Y22264800D01*
X20384809Y22163911D01*
X20408609Y22122688D01*
X20436032Y22075189D01*
X20514507Y22009340D01*
X20514508Y22009340D01*
X20514509Y22009339D01*
X20610777Y21974300D01*
X20713223Y21974300D01*
X20809491Y22009339D01*
X20887969Y22075190D01*
X20939191Y22163911D01*
X20956981Y22264800D01*
X20939191Y22365689D01*
X20887969Y22454410D01*
X20887967Y22454412D01*
X20809492Y22520261D01*
X20713223Y22555300D01*
X20610777Y22555300D01*
X20562643Y22537781D01*
X20514509Y22520261D01*
X20436031Y22454411D01*
X20410420Y22410050D01*
X20384809Y22365689D01*
X20367019Y22264800D01*
X18925359Y22264800D01*
X19536067Y22875508D01*
X19546417Y22884757D01*
X19573557Y22906399D01*
X19605018Y22952545D01*
X19607682Y22956301D01*
X19640852Y23001243D01*
X19640853Y23001247D01*
X19644529Y23006227D01*
X19646534Y23010199D01*
X19648357Y23016112D01*
X19648360Y23016115D01*
X19664814Y23069464D01*
X19666264Y23073867D01*
X19666665Y23075012D01*
X19684711Y23126581D01*
X19684711Y23126586D01*
X19686750Y23132412D01*
X19687500Y23136822D01*
X19687500Y23198827D01*
X19687587Y23203463D01*
X19687867Y23210944D01*
X19689675Y23259277D01*
X19689674Y23259279D01*
X19689905Y23265441D01*
X19687499Y23283713D01*
X19687499Y24435010D01*
X19707184Y24502048D01*
X19723813Y24522685D01*
X19776867Y24575739D01*
X19787217Y24584988D01*
X19814357Y24606630D01*
X19845818Y24652776D01*
X19848482Y24656532D01*
X19881652Y24701474D01*
X19881653Y24701478D01*
X19885329Y24706458D01*
X19887334Y24710430D01*
X19889157Y24716343D01*
X19889160Y24716346D01*
X19905614Y24769695D01*
X19907064Y24774098D01*
X19925511Y24826812D01*
X19925511Y24826817D01*
X19927550Y24832643D01*
X19928300Y24837053D01*
X19928300Y24899058D01*
X19928387Y24903694D01*
X19929210Y24925693D01*
X19930475Y24959508D01*
X19930474Y24959510D01*
X19930705Y24965672D01*
X19928300Y24983951D01*
X19928300Y27416781D01*
X19928300Y30107551D01*
X19947984Y30174586D01*
X20000788Y30220341D01*
X20069946Y30230285D01*
X20133502Y30201260D01*
X20148148Y30186217D01*
X20251222Y30060622D01*
X20402045Y29936844D01*
X20574118Y29844869D01*
X20760828Y29788231D01*
X20955000Y29769107D01*
X21149172Y29788231D01*
X21335882Y29844869D01*
X21507955Y29936844D01*
X21658778Y30060622D01*
X21782556Y30211445D01*
X21874531Y30383518D01*
X21931169Y30570228D01*
X21950293Y30764400D01*
X21931169Y30958572D01*
X21874531Y31145282D01*
X21782556Y31317355D01*
X21658778Y31468178D01*
X21507955Y31591956D01*
X21485732Y31603835D01*
X21335881Y31683932D01*
X21244209Y31711740D01*
X21185771Y31750037D01*
X21157314Y31813850D01*
X21167875Y31882916D01*
X21214100Y31935310D01*
X21280205Y31954400D01*
X21849518Y31954400D01*
X21856132Y31954755D01*
X21912371Y31960801D01*
X22047089Y32011048D01*
X22162188Y32097212D01*
X22248352Y32212311D01*
X22298599Y32347029D01*
X22304645Y32403268D01*
X22305000Y32409882D01*
X22305000Y33054400D01*
X21388686Y33054400D01*
X21414493Y33094556D01*
X21455000Y33232511D01*
X21455000Y33376289D01*
X21414493Y33514244D01*
X21388686Y33554400D01*
X22304999Y33554400D01*
X22305000Y34198919D01*
X22304645Y34205533D01*
X22298599Y34261772D01*
X22248352Y34396490D01*
X22162188Y34511589D01*
X22047089Y34597753D01*
X21912371Y34648000D01*
X21856132Y34654046D01*
X21849518Y34654400D01*
X21205000Y34654400D01*
X21204999Y33739902D01*
X21097315Y33789080D01*
X20990763Y33804400D01*
X20919237Y33804400D01*
X20812685Y33789080D01*
X20705000Y33739902D01*
X20705000Y34654400D01*
X20060482Y34654400D01*
X20058908Y34654316D01*
X20058553Y34654400D01*
X20057172Y34654400D01*
X20058413Y34654434D01*
X19990915Y34670400D01*
X19942411Y34720691D01*
X19928300Y34778140D01*
X19928300Y47330349D01*
X19947985Y47397388D01*
X20000789Y47443143D01*
X20069947Y47453087D01*
X20118269Y47435344D01*
X20232645Y47363477D01*
X20400784Y47304643D01*
X20533406Y47289700D01*
X20536890Y47289700D01*
X21918710Y47289700D01*
X21922194Y47289700D01*
X22054816Y47304643D01*
X22222955Y47363477D01*
X22373787Y47458251D01*
X22499749Y47584213D01*
X22594523Y47735045D01*
X22653357Y47903184D01*
X22673302Y48080200D01*
X22653357Y48257216D01*
X22594523Y48425355D01*
X22499749Y48576187D01*
X22499748Y48576188D01*
X22499747Y48576190D01*
X22373789Y48702148D01*
X22222955Y48796923D01*
X22054813Y48855758D01*
X21925660Y48870310D01*
X21925650Y48870311D01*
X21922194Y48870700D01*
X20533406Y48870700D01*
X20529950Y48870311D01*
X20529939Y48870310D01*
X20400786Y48855758D01*
X20232644Y48796923D01*
X20081811Y48702149D01*
X20079045Y48699382D01*
X20017720Y48665900D01*
X19948029Y48670887D01*
X19892097Y48712760D01*
X19879647Y48733265D01*
X19868911Y48755559D01*
X19855870Y48782639D01*
X19855869Y48782640D01*
X19853192Y48788199D01*
X19850593Y48791862D01*
X19806768Y48835686D01*
X19803550Y48839026D01*
X19761351Y48884506D01*
X19746728Y48895726D01*
X18523419Y50119035D01*
X18489934Y50180358D01*
X18487100Y50206716D01*
X18487100Y56720201D01*
X19782297Y56720201D01*
X19802242Y56543187D01*
X19861077Y56375045D01*
X19955852Y56224211D01*
X20081810Y56098253D01*
X20081812Y56098252D01*
X20081813Y56098251D01*
X20232645Y56003477D01*
X20400784Y55944643D01*
X20533406Y55929700D01*
X20536890Y55929700D01*
X21918710Y55929700D01*
X21922194Y55929700D01*
X22054816Y55944643D01*
X22222955Y56003477D01*
X22373787Y56098251D01*
X22499749Y56224213D01*
X22594523Y56375045D01*
X22653357Y56543184D01*
X22673302Y56720200D01*
X22653357Y56897216D01*
X22594523Y57065355D01*
X22499749Y57216187D01*
X22499748Y57216188D01*
X22499747Y57216190D01*
X22373789Y57342148D01*
X22222955Y57436923D01*
X22054813Y57495758D01*
X21925660Y57510310D01*
X21925650Y57510311D01*
X21922194Y57510700D01*
X20533406Y57510700D01*
X20529950Y57510311D01*
X20529939Y57510310D01*
X20400786Y57495758D01*
X20232644Y57436923D01*
X20081810Y57342148D01*
X19955852Y57216190D01*
X19861077Y57065356D01*
X19802242Y56897214D01*
X19782297Y56720201D01*
X18487100Y56720201D01*
X18487100Y63057397D01*
X18490208Y63084987D01*
X18490830Y63087710D01*
X18487446Y63132856D01*
X18487100Y63142122D01*
X18487100Y63154014D01*
X18485328Y63165765D01*
X18484289Y63174989D01*
X18480907Y63220129D01*
X18479887Y63222728D01*
X18472700Y63249550D01*
X18472285Y63252306D01*
X18472283Y63252311D01*
X18452637Y63293108D01*
X18448936Y63301590D01*
X18432394Y63343738D01*
X18432393Y63343739D01*
X18432393Y63343740D01*
X18430655Y63345919D01*
X18415880Y63369433D01*
X18414670Y63371946D01*
X18383867Y63405144D01*
X18377835Y63412152D01*
X18349601Y63447557D01*
X18347293Y63449131D01*
X18326247Y63467243D01*
X18324351Y63469286D01*
X18324350Y63469287D01*
X18301799Y63482307D01*
X18285142Y63491925D01*
X18277296Y63496855D01*
X18239885Y63522361D01*
X18237218Y63523183D01*
X18211769Y63534286D01*
X18209352Y63535682D01*
X18165206Y63545758D01*
X18156253Y63548158D01*
X18112997Y63561500D01*
X18112995Y63561500D01*
X18110203Y63561500D01*
X18082611Y63564609D01*
X18081856Y63564782D01*
X18079888Y63565231D01*
X18034746Y63561847D01*
X18025479Y63561500D01*
X15082139Y63561500D01*
X15068254Y63562280D01*
X15033773Y63566166D01*
X14978877Y63555780D01*
X14974373Y63555014D01*
X14972264Y63554695D01*
X14953719Y63553300D01*
X12080167Y63553300D01*
X12013128Y63572985D01*
X11967373Y63625789D01*
X11965606Y63629848D01*
X11927527Y63721780D01*
X11927526Y63721781D01*
X11927526Y63721782D01*
X11840889Y63834689D01*
X11727982Y63921326D01*
X11727981Y63921327D01*
X11727979Y63921328D01*
X11596499Y63975788D01*
X11455400Y63994365D01*
X11314300Y63975788D01*
X11182818Y63921327D01*
X11152386Y63897975D01*
X11087217Y63872781D01*
X11018772Y63886819D01*
X10968783Y63935633D01*
X10952900Y63996351D01*
X10952900Y64810578D01*
X10972585Y64877617D01*
X10989219Y64898259D01*
X11738064Y65647104D01*
X12637621Y66546662D01*
X12698942Y66580145D01*
X12768634Y66575161D01*
X12824567Y66533289D01*
X12848984Y66467825D01*
X12849300Y66458979D01*
X12849300Y64967958D01*
X12857450Y64926980D01*
X12888504Y64880505D01*
X12934977Y64849452D01*
X12934979Y64849451D01*
X12975959Y64841300D01*
X14703640Y64841301D01*
X14703642Y64841301D01*
X14730960Y64846735D01*
X14744621Y64849451D01*
X14791095Y64880505D01*
X14822149Y64926979D01*
X14830300Y64967959D01*
X14830299Y66695640D01*
X14830298Y66695641D01*
X14830299Y66695643D01*
X14822149Y66736621D01*
X14791095Y66783096D01*
X14744622Y66814149D01*
X14724130Y66818225D01*
X14703641Y66822300D01*
X14703640Y66822300D01*
X13212621Y66822300D01*
X13145582Y66841985D01*
X13099827Y66894789D01*
X13089883Y66963947D01*
X13118908Y67027503D01*
X13124926Y67033967D01*
X13471053Y67380094D01*
X13532374Y67413577D01*
X13594725Y67411073D01*
X13645628Y67395631D01*
X13839800Y67376507D01*
X14033972Y67395631D01*
X14209906Y67449000D01*
X16590650Y67449000D01*
X16590860Y67445395D01*
X16609424Y67126654D01*
X16609425Y67126646D01*
X16609635Y67123040D01*
X16610261Y67119486D01*
X16610263Y67119475D01*
X16665705Y66805046D01*
X16665707Y66805036D01*
X16666333Y66801488D01*
X16667365Y66798039D01*
X16667367Y66798033D01*
X16758946Y66492139D01*
X16759978Y66488693D01*
X16789858Y66419422D01*
X16887874Y66192195D01*
X16887879Y66192185D01*
X16889303Y66188884D01*
X16891105Y66185762D01*
X16891107Y66185759D01*
X17050750Y65909248D01*
X17050756Y65909239D01*
X17052559Y65906116D01*
X17054715Y65903220D01*
X17054717Y65903217D01*
X17245386Y65647104D01*
X17245392Y65647097D01*
X17247539Y65644213D01*
X17471605Y65406717D01*
X17474363Y65404403D01*
X17474367Y65404399D01*
X17542295Y65347401D01*
X17721728Y65196839D01*
X17994525Y65017417D01*
X18286307Y64870879D01*
X18593128Y64759205D01*
X18805611Y64708846D01*
X18907332Y64684737D01*
X18907334Y64684737D01*
X18910839Y64683906D01*
X19235144Y64646000D01*
X19238742Y64646000D01*
X19558058Y64646000D01*
X19561656Y64646000D01*
X19885961Y64683906D01*
X20203672Y64759205D01*
X20510493Y64870879D01*
X20802275Y65017417D01*
X21075072Y65196839D01*
X21325195Y65406717D01*
X21549261Y65644213D01*
X21744241Y65906116D01*
X21907497Y66188884D01*
X22036822Y66488693D01*
X22130467Y66801488D01*
X22187165Y67123040D01*
X22206150Y67449000D01*
X22187165Y67774960D01*
X22130467Y68096512D01*
X22036822Y68409307D01*
X21907497Y68709116D01*
X21843143Y68820581D01*
X21746049Y68988753D01*
X21746046Y68988757D01*
X21744241Y68991884D01*
X21681933Y69075578D01*
X21551413Y69250897D01*
X21551408Y69250902D01*
X21549261Y69253787D01*
X21325195Y69491283D01*
X21322437Y69493597D01*
X21322432Y69493602D01*
X21077831Y69698846D01*
X21077830Y69698847D01*
X21075072Y69701161D01*
X20802275Y69880583D01*
X20747087Y69908300D01*
X20513708Y70025507D01*
X20513699Y70025511D01*
X20510493Y70027121D01*
X20507120Y70028349D01*
X20507110Y70028353D01*
X20207064Y70137561D01*
X20207054Y70137564D01*
X20203672Y70138795D01*
X20200165Y70139627D01*
X20200159Y70139628D01*
X19889467Y70213264D01*
X19889451Y70213267D01*
X19885961Y70214094D01*
X19882396Y70214511D01*
X19882383Y70214513D01*
X19565226Y70251583D01*
X19565221Y70251584D01*
X19561656Y70252000D01*
X19235144Y70252000D01*
X19231579Y70251584D01*
X19231573Y70251583D01*
X18914416Y70214513D01*
X18914400Y70214511D01*
X18910839Y70214094D01*
X18907351Y70213268D01*
X18907332Y70213264D01*
X18596640Y70139628D01*
X18596629Y70139625D01*
X18593128Y70138795D01*
X18589749Y70137566D01*
X18589735Y70137561D01*
X18289689Y70028353D01*
X18289673Y70028347D01*
X18286307Y70027121D01*
X18283106Y70025514D01*
X18283091Y70025507D01*
X17997744Y69882200D01*
X17997739Y69882198D01*
X17994525Y69880583D01*
X17991511Y69878602D01*
X17991508Y69878599D01*
X17724745Y69703146D01*
X17724737Y69703141D01*
X17721728Y69701161D01*
X17718977Y69698854D01*
X17718968Y69698846D01*
X17474367Y69493602D01*
X17474353Y69493590D01*
X17471605Y69491283D01*
X17469130Y69488661D01*
X17469125Y69488655D01*
X17250013Y69256410D01*
X17250007Y69256404D01*
X17247539Y69253787D01*
X17245399Y69250913D01*
X17245386Y69250897D01*
X17054717Y68994784D01*
X17054709Y68994773D01*
X17052559Y68991884D01*
X17050760Y68988770D01*
X17050750Y68988753D01*
X16891107Y68712242D01*
X16891101Y68712232D01*
X16889303Y68709116D01*
X16887882Y68705823D01*
X16887874Y68705806D01*
X16761403Y68412611D01*
X16759978Y68409307D01*
X16758949Y68405872D01*
X16758946Y68405862D01*
X16667367Y68099968D01*
X16667364Y68099958D01*
X16666333Y68096512D01*
X16665708Y68092969D01*
X16665705Y68092955D01*
X16610263Y67778526D01*
X16610261Y67778513D01*
X16609635Y67774960D01*
X16609425Y67771357D01*
X16609424Y67771347D01*
X16596197Y67544244D01*
X16590650Y67449000D01*
X14209906Y67449000D01*
X14220682Y67452269D01*
X14392755Y67544244D01*
X14543578Y67668022D01*
X14667356Y67818845D01*
X14759331Y67990918D01*
X14815969Y68177628D01*
X14835093Y68371800D01*
X14815969Y68565972D01*
X14759331Y68752682D01*
X14667356Y68924755D01*
X14543578Y69075578D01*
X14392755Y69199356D01*
X14286015Y69256410D01*
X14220681Y69291332D01*
X14033973Y69347969D01*
X13839800Y69367093D01*
X13645626Y69347969D01*
X13458918Y69291332D01*
X13286846Y69199357D01*
X13136022Y69075578D01*
X13012243Y68924754D01*
X12920268Y68752682D01*
X12863631Y68565974D01*
X12844507Y68371800D01*
X12863631Y68177626D01*
X12879070Y68126727D01*
X12879693Y68056860D01*
X12848090Y68003053D01*
X10223341Y65378304D01*
X10212975Y65369040D01*
X10185843Y65347403D01*
X10154384Y65301262D01*
X10151704Y65297485D01*
X10114888Y65247600D01*
X10112854Y65243570D01*
X10094582Y65184335D01*
X10093134Y65179934D01*
X10072657Y65121411D01*
X10071900Y65116954D01*
X10071900Y65054964D01*
X10071813Y65050327D01*
X10069494Y64988357D01*
X10071900Y64970081D01*
X10071900Y57048691D01*
X10052215Y56981652D01*
X10046277Y56973206D01*
X10040273Y56965382D01*
X9985812Y56833900D01*
X9967235Y56692801D01*
X9985812Y56551701D01*
X10040272Y56420221D01*
X10100150Y56342187D01*
X10125344Y56277017D01*
X10111306Y56208573D01*
X10062492Y56158583D01*
X10001774Y56142700D01*
X8536900Y56142700D01*
X8469861Y56162385D01*
X8424106Y56215189D01*
X8412900Y56266700D01*
X8412900Y63042710D01*
X8432585Y63109749D01*
X8438527Y63118200D01*
X8439304Y63119214D01*
X8444526Y63126018D01*
X8451197Y63142122D01*
X8465485Y63176618D01*
X8498988Y63257501D01*
X8517564Y63398600D01*
X8498988Y63539699D01*
X8444526Y63671182D01*
X8357889Y63784089D01*
X8244982Y63870726D01*
X8244981Y63870727D01*
X8244979Y63870728D01*
X8113499Y63925188D01*
X7972399Y63943765D01*
X7831300Y63925188D01*
X7699820Y63870728D01*
X7586911Y63784089D01*
X7500272Y63671180D01*
X7445812Y63539700D01*
X7427235Y63398601D01*
X7445812Y63257501D01*
X7500272Y63126020D01*
X7506273Y63118200D01*
X7531470Y63053031D01*
X7531900Y63042710D01*
X7531900Y56266700D01*
X7512215Y56199661D01*
X7459411Y56153906D01*
X7407900Y56142700D01*
X4142423Y56142700D01*
X4075384Y56162385D01*
X4054742Y56179019D01*
X3582532Y56651229D01*
X3549047Y56712552D01*
X3547279Y56722692D01*
X3545988Y56732499D01*
X3503987Y56833899D01*
X3491527Y56863980D01*
X3491526Y56863981D01*
X3491526Y56863982D01*
X3404889Y56976889D01*
X3291982Y57063526D01*
X3291981Y57063527D01*
X3291979Y57063528D01*
X3160499Y57117988D01*
X3019399Y57136565D01*
X2878300Y57117988D01*
X2746820Y57063528D01*
X2633911Y56976889D01*
X2547272Y56863980D01*
X2492812Y56732500D01*
X2474235Y56591400D01*
X0Y56591400D01*
X0Y71907400D01*
X15834635Y71907400D01*
X15853212Y71766301D01*
X15907672Y71634821D01*
X15907673Y71634819D01*
X15907674Y71634818D01*
X15994311Y71521911D01*
X16107218Y71435274D01*
X16238701Y71380812D01*
X16379800Y71362236D01*
X16520899Y71380812D01*
X16652382Y71435274D01*
X16765289Y71521911D01*
X16851926Y71634818D01*
X16906388Y71766301D01*
X16924964Y71907400D01*
X16906388Y72048499D01*
X16851926Y72179982D01*
X16765289Y72292889D01*
X16652382Y72379526D01*
X16652381Y72379527D01*
X16652379Y72379528D01*
X16520899Y72433988D01*
X16379800Y72452565D01*
X16238700Y72433988D01*
X16107220Y72379528D01*
X15994311Y72292889D01*
X15907672Y72179980D01*
X15853212Y72048500D01*
X15834635Y71907400D01*
X0Y71907400D01*
X0Y75649001D01*
X1720461Y75649001D01*
X1740187Y75373203D01*
X1798960Y75103025D01*
X1818246Y75051317D01*
X1880605Y74884126D01*
X1895591Y74843949D01*
X2028103Y74601271D01*
X2193804Y74379920D01*
X2389319Y74184405D01*
X2610670Y74018704D01*
X2610672Y74018703D01*
X2853351Y73886190D01*
X3112420Y73789562D01*
X3112423Y73789562D01*
X3112424Y73789561D01*
X3150878Y73781196D01*
X3382603Y73730787D01*
X3658400Y73711062D01*
X3934197Y73730787D01*
X4204380Y73789562D01*
X4463449Y73886190D01*
X4706128Y74018703D01*
X4927480Y74184404D01*
X5122996Y74379920D01*
X5288697Y74601272D01*
X5421210Y74843951D01*
X5517838Y75103020D01*
X5576613Y75373203D01*
X5596338Y75649000D01*
X5596338Y75649001D01*
X10393057Y75649001D01*
X10412388Y75440379D01*
X10469722Y75238869D01*
X10563112Y75051317D01*
X10689369Y74884126D01*
X10844200Y74742979D01*
X10844202Y74742978D01*
X10844203Y74742977D01*
X11022334Y74632683D01*
X11217699Y74556998D01*
X11423644Y74518500D01*
X11423646Y74518500D01*
X11633154Y74518500D01*
X11633156Y74518500D01*
X11839101Y74556998D01*
X12034466Y74632683D01*
X12212597Y74742977D01*
X12367429Y74884124D01*
X12430558Y74967722D01*
X12493687Y75051317D01*
X12587077Y75238869D01*
X12644411Y75440379D01*
X12644412Y75440381D01*
X12663743Y75649000D01*
X12644412Y75857619D01*
X12625298Y75924798D01*
X12587077Y76059132D01*
X12493687Y76246684D01*
X12367430Y76413875D01*
X12212599Y76555022D01*
X12034466Y76665317D01*
X11953385Y76696728D01*
X11839101Y76741002D01*
X11633156Y76779500D01*
X11423644Y76779500D01*
X11217698Y76741003D01*
X11217699Y76741002D01*
X11022333Y76665317D01*
X10844200Y76555022D01*
X10689369Y76413875D01*
X10563112Y76246684D01*
X10469722Y76059132D01*
X10412388Y75857622D01*
X10393057Y75649001D01*
X5596338Y75649001D01*
X5576613Y75924797D01*
X5517838Y76194980D01*
X5421210Y76454049D01*
X5288697Y76696728D01*
X5122996Y76918080D01*
X4927480Y77113596D01*
X4706129Y77279297D01*
X4463451Y77411809D01*
X4463450Y77411810D01*
X4463449Y77411810D01*
X4204380Y77508438D01*
X4204375Y77508440D01*
X3934197Y77567213D01*
X3658400Y77586939D01*
X3382602Y77567213D01*
X3112424Y77508440D01*
X2853348Y77411809D01*
X2610670Y77279297D01*
X2389319Y77113596D01*
X2193804Y76918081D01*
X2028103Y76696730D01*
X1895591Y76454052D01*
X1798960Y76194976D01*
X1740187Y75924798D01*
X1720461Y75649001D01*
X0Y75649001D01*
X0Y78918100D01*
X19685Y78985139D01*
X72489Y79030894D01*
X124000Y79042100D01*
X22913800Y79042100D01*
X22980839Y79022415D01*
G37*
%TD.AperFunction*%
%TD*%
M02*
