%TF.GenerationSoftware,KiCad,Pcbnew,7.0.2*%
%TF.CreationDate,2023-05-03T22:50:50+02:00*%
%TF.ProjectId,Frackstock,46726163-6b73-4746-9f63-6b2e6b696361,rev?*%
%TF.SameCoordinates,PX54f9b60PY6e87f28*%
%TF.FileFunction,Copper,L2,Inr*%
%TF.FilePolarity,Positive*%
%FSLAX46Y46*%
G04 Gerber Fmt 4.6, Leading zero omitted, Abs format (unit mm)*
G04 Created by KiCad (PCBNEW 7.0.2) date 2023-05-03 22:50:50*
%MOMM*%
%LPD*%
G01*
G04 APERTURE LIST*
%TA.AperFunction,ComponentPad*%
%ADD10R,1.700000X1.700000*%
%TD*%
%TA.AperFunction,ComponentPad*%
%ADD11O,1.700000X1.700000*%
%TD*%
%TA.AperFunction,ComponentPad*%
%ADD12O,2.200000X1.100000*%
%TD*%
%TA.AperFunction,ComponentPad*%
%ADD13O,2.600000X1.300000*%
%TD*%
%TA.AperFunction,ComponentPad*%
%ADD14C,1.501000*%
%TD*%
%TA.AperFunction,ComponentPad*%
%ADD15C,1.980000*%
%TD*%
%TA.AperFunction,ComponentPad*%
%ADD16C,5.325000*%
%TD*%
%TA.AperFunction,ComponentPad*%
%ADD17C,3.585000*%
%TD*%
%TA.AperFunction,ViaPad*%
%ADD18C,0.800000*%
%TD*%
%TA.AperFunction,ViaPad*%
%ADD19C,0.250000*%
%TD*%
%TA.AperFunction,ViaPad*%
%ADD20C,0.300000*%
%TD*%
%TA.AperFunction,Conductor*%
%ADD21C,0.200000*%
%TD*%
G04 APERTURE END LIST*
D10*
%TO.N,GND*%
%TO.C,J8*%
X20955000Y33304400D03*
D11*
%TO.N,RESET*%
X20955000Y30764400D03*
%TD*%
D10*
%TO.N,GND*%
%TO.C,J6*%
X12011000Y43073400D03*
D11*
%TO.N,N_USB_BOOT*%
X12011000Y45613400D03*
%TD*%
D12*
%TO.N,unconnected-(J2-SHIELD-PadS1)*%
%TO.C,J2*%
X15867800Y48080200D03*
%TO.N,unconnected-(J2-SHIELD__1-PadS2)*%
X15867800Y56720200D03*
D13*
%TO.N,unconnected-(J2-SHIELD__2-PadS3)*%
X21227800Y48080200D03*
%TO.N,unconnected-(J2-SHIELD__3-PadS4)*%
X21227800Y56720200D03*
%TD*%
D14*
%TO.N,+5V*%
%TO.C,J1*%
X2232000Y49352400D03*
%TO.N,Net-(Q2-D)*%
X2232000Y51892400D03*
%TO.N,GND*%
X2232000Y54432400D03*
%TD*%
D10*
%TO.N,Net-(J5-Pin_1)*%
%TO.C,J5*%
X13839800Y65831800D03*
D11*
%TO.N,BAT_O*%
X13839800Y68371800D03*
%TD*%
D15*
%TO.N,BAT_P*%
%TO.C,U14*%
X11528400Y75649000D03*
%TO.N,BAT_N*%
X11528400Y3429000D03*
D16*
%TO.N,unconnected-(U14-PadMH1)*%
X3658400Y12249000D03*
D17*
%TO.N,unconnected-(U14-PadMH2)*%
X3658400Y75649000D03*
D16*
%TO.N,unconnected-(U14-PadMH3)*%
X19398400Y67449000D03*
%TD*%
D18*
%TO.N,BAT_O*%
X10512400Y56692800D03*
D19*
%TO.N,GND*%
X22199600Y78206600D03*
X17322800Y20142200D03*
X15341600Y25323800D03*
X5562600Y15392400D03*
X3019400Y62534800D03*
X10668000Y66319400D03*
X7670800Y73914000D03*
X18364200Y32410400D03*
X10617200Y16967200D03*
X11604600Y33629600D03*
X11353800Y39522400D03*
X2032000Y69494400D03*
X17830800Y20142200D03*
X19354800Y20142200D03*
X609600Y330200D03*
X16459200Y43688000D03*
X14782800Y49352200D03*
X13030200Y23901400D03*
X13258800Y8458200D03*
X7086600Y330200D03*
X6019800Y23825200D03*
X13258800Y20142200D03*
X9423400Y21132800D03*
X7874000Y18592800D03*
X6477000Y18592800D03*
X2257400Y33934400D03*
X6118200Y32562800D03*
X6270600Y38100000D03*
X381000Y52222400D03*
X14782800Y20142200D03*
X2159000Y29108400D03*
X13258800Y838200D03*
X9852000Y50469800D03*
X4568800Y37719000D03*
X508000Y8001000D03*
X14782800Y55956200D03*
X9496400Y59994800D03*
X16306800Y20142200D03*
X15798800Y20142200D03*
X18872200Y32842200D03*
X13258800Y6934200D03*
X8204200Y23749000D03*
X10464800Y5613400D03*
X7391400Y48361600D03*
X381000Y58699400D03*
X18973800Y54686200D03*
X6527800Y24917400D03*
X14122400Y20701000D03*
X18846800Y50495200D03*
X3019400Y46609000D03*
X16230600Y69469000D03*
X16764000Y58343800D03*
X22631400Y31521400D03*
X13258800Y19634200D03*
X22910800Y20142200D03*
X12496800Y48437800D03*
X10963900Y20701000D03*
X13030200Y24561800D03*
X1244600Y25095200D03*
X7518400Y24409400D03*
X5737200Y34544000D03*
X21383600Y42494200D03*
X13258800Y3886200D03*
X9499600Y12776200D03*
X21409000Y44983400D03*
X9118600Y29667200D03*
X13258800Y19126200D03*
X18745200Y36195000D03*
X13258800Y14046200D03*
X12569800Y34518600D03*
X13258800Y4902200D03*
X4594200Y34569400D03*
X6426200Y21183600D03*
X8531200Y43688000D03*
X3860800Y66725800D03*
X6270600Y36982400D03*
X13258800Y7442200D03*
X13004800Y61544200D03*
X8686800Y7772400D03*
X482600Y22707600D03*
X13258800Y5918200D03*
X4902200Y29260800D03*
X911200Y36855400D03*
X12293600Y78181200D03*
X17678400Y40005000D03*
X13258800Y6426200D03*
X15036800Y73685400D03*
X1549400Y28092400D03*
X16560800Y37160200D03*
X22069400Y58851800D03*
X17576800Y49479200D03*
X17627600Y78206600D03*
X7696200Y21183600D03*
X14072588Y26631112D03*
X17297400Y62280800D03*
X939800Y61798200D03*
X13484200Y33629600D03*
X18465800Y30378400D03*
X12903200Y70739000D03*
X14782800Y55448200D03*
X5610200Y35788600D03*
X17322800Y56591200D03*
X13741400Y24561800D03*
X13258800Y8966200D03*
X10820400Y10566400D03*
X19862800Y20142200D03*
X22682200Y22860000D03*
X13258800Y15570200D03*
X18846800Y20142200D03*
X12468200Y56591200D03*
X18008600Y76123800D03*
X5483200Y57912000D03*
X8074000Y33274000D03*
X12115800Y59055000D03*
X11023600Y27711400D03*
X13258800Y10490200D03*
X6934200Y25349200D03*
X7010400Y14478000D03*
X14808200Y63677800D03*
X5508600Y56591200D03*
X11861800Y39979600D03*
X13258800Y5410200D03*
X20459350Y75692000D03*
X2997200Y29108400D03*
X9471000Y62560200D03*
X12877800Y50749200D03*
X17221200Y64490600D03*
X13258800Y17094200D03*
X21383600Y40233600D03*
X22631400Y27025600D03*
X20218400Y36347400D03*
X13030200Y23266400D03*
X20878800Y20142200D03*
X13258800Y12014200D03*
X4978400Y4775200D03*
X6270600Y36169600D03*
X3860800Y24663400D03*
X13258800Y16078200D03*
X6019800Y14935200D03*
X13741400Y23266400D03*
X14274800Y43738800D03*
X15290800Y29210000D03*
X18310200Y35763200D03*
X13258800Y9474200D03*
X9110219Y28396300D03*
X14274800Y20142200D03*
X9499600Y26127700D03*
X7035800Y15570200D03*
X18313400Y37414200D03*
X13741400Y23901400D03*
X9017000Y19812000D03*
X18972800Y52400200D03*
X4772000Y48971200D03*
X18869000Y47142400D03*
X13258800Y12522200D03*
X11503000Y61874400D03*
X13258800Y2870200D03*
X13258800Y330200D03*
X2768600Y26416000D03*
X14782800Y48844200D03*
X7112000Y52933600D03*
X9521800Y58826400D03*
X13258800Y10998200D03*
X18770600Y36982400D03*
X13258800Y18110200D03*
X21386800Y54686200D03*
X15290800Y20142200D03*
X4978400Y22910800D03*
X9804400Y27838400D03*
X13258800Y11506200D03*
X7134200Y41706800D03*
X11988800Y54406800D03*
X16814800Y20142200D03*
X13258800Y2362200D03*
X6629400Y26898600D03*
X9423400Y23291800D03*
X2613000Y41706800D03*
X17294200Y60502800D03*
X381000Y68580000D03*
X8988400Y56591200D03*
X10312400Y26127700D03*
X13258800Y9982200D03*
X13258800Y13030200D03*
X4775200Y50444400D03*
X1244600Y78181200D03*
X10718800Y69697600D03*
X13258800Y1854200D03*
X838200Y24638000D03*
X9775800Y42443400D03*
X584200Y15621000D03*
X12569800Y32639000D03*
X5613400Y62204600D03*
X13258800Y4394200D03*
X22656800Y37973000D03*
X13258800Y17602200D03*
X11226800Y49479200D03*
X21386800Y52400200D03*
X1219200Y73736200D03*
X13258800Y16586200D03*
X355600Y31851600D03*
X9499600Y24866600D03*
X13131800Y54178200D03*
X1701800Y25501600D03*
X7794600Y34544000D03*
X15036800Y62357000D03*
X1701800Y59385200D03*
X13258800Y18618200D03*
X7442200Y78181200D03*
X21894800Y20142200D03*
X15290800Y28168600D03*
X15998800Y41579800D03*
X13766800Y20142200D03*
X13258800Y7950200D03*
X14808200Y22402800D03*
X11604600Y32639000D03*
X21386800Y20142200D03*
X11604600Y34518600D03*
X18338800Y20142200D03*
X18919800Y58191400D03*
X1473200Y66040000D03*
X15468600Y39497000D03*
D18*
X18173350Y73660000D03*
D19*
X11528400Y46964600D03*
X18542000Y43688000D03*
X22301200Y70662800D03*
X21894800Y64160400D03*
X22402800Y20142200D03*
X14754200Y45872400D03*
X10261600Y21107400D03*
X12344400Y23901400D03*
X1473200Y66725800D03*
X15925800Y55829200D03*
X13484200Y34518600D03*
X17576800Y48590200D03*
X9191600Y40513000D03*
X21386800Y50495200D03*
X8178800Y68910200D03*
X15011400Y40005000D03*
X17449800Y56210200D03*
X431800Y43992800D03*
X7950200Y12801600D03*
X7010400Y16789400D03*
X13258800Y3378200D03*
X4010000Y48158400D03*
X13258800Y1346200D03*
X3860800Y66065400D03*
X20370800Y20142200D03*
X12569800Y33629600D03*
X12344400Y23266400D03*
X6604000Y23647400D03*
X16179800Y73660000D03*
X2006600Y27686000D03*
X1549400Y69951600D03*
X10083800Y18669000D03*
X6778600Y33197800D03*
X12344400Y24561800D03*
X9496400Y61290200D03*
X13258800Y13538200D03*
X13484200Y32639000D03*
X10845800Y6197600D03*
X4594200Y33502600D03*
X19812000Y24434800D03*
D18*
%TO.N,+3.3V*%
X8163597Y32572994D03*
X6299200Y48209200D03*
X16379800Y71907400D03*
X16913200Y36179000D03*
D20*
X15417800Y24401400D03*
D18*
X1899200Y33353000D03*
X2565400Y30403800D03*
X12907700Y27557880D03*
X12907700Y27557880D03*
X3251200Y27406600D03*
D20*
X12874600Y37998400D03*
D18*
X16989400Y32867600D03*
X12522200Y19862800D03*
X8280400Y25552400D03*
X5838800Y43805700D03*
X8001000Y36601400D03*
X10566400Y22148800D03*
D20*
X15068200Y38023800D03*
D18*
X15068200Y38023800D03*
%TO.N,BAT_N*%
X11455400Y63449200D03*
D20*
%TO.N,XIN*%
X11860132Y29122973D03*
X1752600Y24003000D03*
%TO.N,+1V1*%
X14268200Y37566600D03*
X12268200Y37947600D03*
X13058713Y29188914D03*
%TO.N,XOUT*%
X11485019Y26961581D03*
X12268200Y29286200D03*
%TO.N,XOSC_Q2*%
X20662000Y22264800D03*
X11379200Y25781000D03*
D18*
%TO.N,+5V*%
X11528400Y51104800D03*
X5323599Y37406210D03*
%TO.N,VBUS*%
X3019400Y56591400D03*
X7972400Y63398600D03*
X14195400Y50876200D03*
X14195400Y53924200D03*
D19*
%TO.N,DP*%
X13385800Y49733200D03*
X14782800Y51892200D03*
X17449800Y52654200D03*
%TO.N,DN*%
X14782800Y52908200D03*
X13766800Y50241200D03*
X16159172Y52146200D03*
D20*
%TO.N,SWCLK*%
X14059100Y41529200D03*
X13458800Y29007000D03*
%TO.N,SWD*%
X15186000Y43967600D03*
X13878700Y29337200D03*
D18*
%TO.N,N_USB_BOOT*%
X2917800Y45059800D03*
D20*
%TO.N,SEN_INT1*%
X6654800Y27965400D03*
X3962400Y31216600D03*
%TO.N,COM_MISO*%
X14677219Y29434619D03*
X15824200Y23393400D03*
%TO.N,COM_CS*%
X15798800Y29743400D03*
X15798800Y27093300D03*
%TO.N,QSPI_SD3*%
X9725000Y41580000D03*
X8734400Y42570600D03*
%TO.N,QSPI_CLK*%
X10197155Y40566696D03*
X8802100Y44834700D03*
%TO.N,SEN_SCK*%
X7645400Y31369000D03*
X7645400Y29260800D03*
%TO.N,SEN_MOSI*%
X8102600Y30988000D03*
X8102600Y29768800D03*
%TO.N,COM_CLK*%
X15900400Y30581600D03*
X16306800Y22885400D03*
%TO.N,COM_MOSI*%
X16713200Y22021800D03*
X16713200Y31369000D03*
%TO.N,COM_DO1*%
X17551400Y25781000D03*
X17551400Y31775400D03*
%TO.N,COM_DO2*%
X17145000Y32178455D03*
X17145000Y23901400D03*
%TD*%
D21*
%TO.N,QSPI_CLK*%
X10197155Y43439645D02*
X10197155Y40566696D01*
X8802100Y44834700D02*
X10197155Y43439645D01*
%TO.N,+3.3V*%
X12907700Y26911500D02*
X12907700Y27557880D01*
X15417800Y24401400D02*
X12907700Y26911500D01*
X15042800Y37998400D02*
X15068200Y38023800D01*
X12874600Y37998400D02*
X15042800Y37998400D01*
%TO.N,XIN*%
X11861800Y27889200D02*
X10464800Y26492200D01*
X11860132Y29122973D02*
X11861800Y29121305D01*
X10464800Y26492200D02*
X4241800Y26492200D01*
X4241800Y26492200D02*
X1752600Y24003000D01*
X11861800Y29121305D02*
X11861800Y27889200D01*
%TO.N,+1V1*%
X13058713Y29188914D02*
X13058713Y37157087D01*
X13058713Y37157087D02*
X13858687Y37157087D01*
X13058713Y37157087D02*
X12268200Y37947600D01*
X13858687Y37157087D02*
X14268200Y37566600D01*
%TO.N,XOUT*%
X11485019Y26961581D02*
X12268200Y27744762D01*
X12268200Y27744762D02*
X12268200Y29286200D01*
%TO.N,XOSC_Q2*%
X11379200Y23596600D02*
X13360400Y21615400D01*
X11379200Y25781000D02*
X11379200Y23596600D01*
X13360400Y21615400D02*
X20012600Y21615400D01*
X20012600Y21615400D02*
X20662000Y22264800D01*
%TO.N,DN*%
X16159172Y51934875D02*
X16159172Y52146200D01*
X15397172Y52908200D02*
X16159172Y52146200D01*
X14460497Y50236200D02*
X16159172Y51934875D01*
X13771800Y50236200D02*
X14460497Y50236200D01*
X14782800Y52908200D02*
X15397172Y52908200D01*
X13766800Y50241200D02*
X13771800Y50236200D01*
%TO.N,SWCLK*%
X14059100Y40268300D02*
X14059100Y41529200D01*
X13458800Y29007000D02*
X13458800Y29591000D01*
X13458800Y29591000D02*
X15708200Y31840400D01*
X15708200Y31840400D02*
X15708200Y38619200D01*
X15708200Y38619200D02*
X14059100Y40268300D01*
%TO.N,SWD*%
X16329000Y40081200D02*
X15186000Y41224200D01*
X13878700Y29337200D02*
X16048200Y31506700D01*
X16048200Y38632000D02*
X16329000Y38912800D01*
X15186000Y41224200D02*
X15186000Y43967600D01*
X16048200Y31506700D02*
X16048200Y38632000D01*
X16329000Y38912800D02*
X16329000Y40081200D01*
%TO.N,SEN_INT1*%
X3962400Y29464000D02*
X5461000Y27965400D01*
X3962400Y31216600D02*
X3962400Y29464000D01*
X5461000Y27965400D02*
X6654800Y27965400D01*
%TO.N,COM_MISO*%
X14681200Y27279600D02*
X14681200Y29430638D01*
X14681200Y29430638D02*
X14677219Y29434619D01*
X15824200Y23393400D02*
X15824200Y26136600D01*
X15824200Y26136600D02*
X14681200Y27279600D01*
%TO.N,COM_CS*%
X15798800Y27093300D02*
X15798800Y29743400D01*
%TO.N,QSPI_SD3*%
X9725000Y41580000D02*
X8734400Y42570600D01*
%TO.N,SEN_SCK*%
X7645400Y31369000D02*
X7645400Y29260800D01*
%TO.N,SEN_MOSI*%
X8102600Y30988000D02*
X8102600Y29768800D01*
%TO.N,COM_CLK*%
X16306800Y22885400D02*
X16306800Y30175200D01*
X16306800Y30175200D02*
X15900400Y30581600D01*
%TO.N,COM_MOSI*%
X16713200Y22021800D02*
X16713200Y31369000D01*
%TO.N,COM_DO1*%
X17551400Y25781000D02*
X17551400Y31775400D01*
%TO.N,COM_DO2*%
X17145000Y32178455D02*
X17145000Y23901400D01*
%TD*%
%TA.AperFunction,Conductor*%
%TO.N,GND*%
G36*
X14713888Y37605589D02*
G01*
X14750681Y37586156D01*
X14795618Y37551674D01*
X14927101Y37497212D01*
X15068200Y37478636D01*
X15209299Y37497212D01*
X15296250Y37533229D01*
X15365716Y37540697D01*
X15428196Y37509422D01*
X15463848Y37449333D01*
X15467700Y37418667D01*
X15467700Y31991380D01*
X15448015Y31924341D01*
X15431381Y31903699D01*
X13510894Y29983212D01*
X13449571Y29949727D01*
X13379879Y29954711D01*
X13323946Y29996583D01*
X13299529Y30062047D01*
X13299213Y30070893D01*
X13299213Y36792587D01*
X13318898Y36859626D01*
X13371702Y36905381D01*
X13423213Y36916587D01*
X13849139Y36916587D01*
X13855630Y36916417D01*
X13897148Y36914241D01*
X13897148Y36914242D01*
X13897149Y36914241D01*
X13918090Y36922281D01*
X13936745Y36927807D01*
X13958693Y36932471D01*
X13960913Y36934084D01*
X13961226Y36934311D01*
X13989681Y36949761D01*
X13992599Y36950881D01*
X14008462Y36966746D01*
X14023246Y36979374D01*
X14041406Y36992566D01*
X14042971Y36995279D01*
X14062675Y37020959D01*
X14297465Y37255747D01*
X14342732Y37284585D01*
X14415691Y37311139D01*
X14494169Y37376990D01*
X14545391Y37465711D01*
X14553079Y37509315D01*
X14584106Y37571916D01*
X14644053Y37607806D01*
X14713888Y37605589D01*
G37*
%TD.AperFunction*%
%TA.AperFunction,Conductor*%
G36*
X15546685Y30562555D02*
G01*
X15602618Y30520683D01*
X15611836Y30499392D01*
X15612278Y30499646D01*
X15623208Y30480714D01*
X15623209Y30480711D01*
X15667613Y30403800D01*
X15674432Y30391989D01*
X15752908Y30326139D01*
X15825868Y30299584D01*
X15871139Y30270743D01*
X15896301Y30245581D01*
X15929786Y30184258D01*
X15924802Y30114566D01*
X15882930Y30058633D01*
X15817466Y30034216D01*
X15808620Y30033900D01*
X15747577Y30033900D01*
X15699443Y30016381D01*
X15651309Y29998861D01*
X15572831Y29933011D01*
X15572059Y29931673D01*
X15521609Y29844289D01*
X15521608Y29844288D01*
X15521609Y29844288D01*
X15503819Y29743400D01*
X15521609Y29642511D01*
X15541688Y29607731D01*
X15558299Y29545734D01*
X15558299Y27290967D01*
X15541689Y27228971D01*
X15521609Y27194189D01*
X15500782Y27076080D01*
X15469754Y27013478D01*
X15409807Y26977588D01*
X15339972Y26979806D01*
X15290985Y27009933D01*
X14958019Y27342899D01*
X14924534Y27404222D01*
X14921700Y27430580D01*
X14921700Y29243850D01*
X14938311Y29305848D01*
X14954410Y29333730D01*
X14972200Y29434619D01*
X14954410Y29535508D01*
X14903188Y29624229D01*
X14901404Y29625726D01*
X14824711Y29690080D01*
X14822114Y29691025D01*
X14765851Y29732451D01*
X14740915Y29797720D01*
X14755225Y29866109D01*
X14776841Y29895225D01*
X15415672Y30534056D01*
X15476993Y30567539D01*
X15546685Y30562555D01*
G37*
%TD.AperFunction*%
%TA.AperFunction,Conductor*%
G36*
X22987339Y79022415D02*
G01*
X23033094Y78969611D01*
X23044300Y78918100D01*
X23044300Y20139200D01*
X23024615Y20072161D01*
X22971811Y20026406D01*
X22920300Y20015200D01*
X13563600Y20015200D01*
X13563600Y124700D01*
X13543915Y57661D01*
X13491111Y11906D01*
X13439600Y700D01*
X124000Y700D01*
X56961Y20385D01*
X11206Y73189D01*
X0Y124700D01*
X0Y3429001D01*
X10393057Y3429001D01*
X10412388Y3220379D01*
X10469722Y3018869D01*
X10563112Y2831317D01*
X10689369Y2664126D01*
X10844200Y2522979D01*
X10844202Y2522978D01*
X10844203Y2522977D01*
X11022334Y2412683D01*
X11217699Y2336998D01*
X11423644Y2298500D01*
X11423646Y2298500D01*
X11633154Y2298500D01*
X11633156Y2298500D01*
X11839101Y2336998D01*
X12034466Y2412683D01*
X12212597Y2522977D01*
X12367429Y2664124D01*
X12430558Y2747722D01*
X12493687Y2831317D01*
X12587077Y3018869D01*
X12644411Y3220379D01*
X12644412Y3220381D01*
X12663743Y3429000D01*
X12644412Y3637619D01*
X12634670Y3671856D01*
X12587077Y3839132D01*
X12493687Y4026684D01*
X12367430Y4193875D01*
X12212599Y4335022D01*
X12034466Y4445317D01*
X12034465Y4445318D01*
X11839101Y4521002D01*
X11633156Y4559500D01*
X11423644Y4559500D01*
X11217698Y4521002D01*
X11217699Y4521002D01*
X11022333Y4445317D01*
X10844200Y4335022D01*
X10689369Y4193875D01*
X10563112Y4026684D01*
X10469722Y3839132D01*
X10412388Y3637622D01*
X10393057Y3429001D01*
X0Y3429001D01*
X0Y12249000D01*
X850650Y12249000D01*
X850860Y12245395D01*
X869424Y11926654D01*
X869425Y11926646D01*
X869635Y11923040D01*
X870261Y11919486D01*
X870263Y11919475D01*
X925705Y11605046D01*
X925707Y11605036D01*
X926333Y11601488D01*
X1019978Y11288693D01*
X1021403Y11285390D01*
X1147874Y10992195D01*
X1147879Y10992185D01*
X1149303Y10988884D01*
X1151105Y10985762D01*
X1151107Y10985759D01*
X1310750Y10709248D01*
X1310756Y10709239D01*
X1312559Y10706116D01*
X1314715Y10703220D01*
X1314717Y10703217D01*
X1505386Y10447104D01*
X1505392Y10447097D01*
X1507539Y10444213D01*
X1731605Y10206717D01*
X1981728Y9996839D01*
X2254525Y9817417D01*
X2546307Y9670879D01*
X2853128Y9559205D01*
X3065611Y9508846D01*
X3167332Y9484737D01*
X3167334Y9484737D01*
X3170839Y9483906D01*
X3495144Y9446000D01*
X3498742Y9446000D01*
X3818058Y9446000D01*
X3821656Y9446000D01*
X4145961Y9483906D01*
X4463672Y9559205D01*
X4770493Y9670879D01*
X5062275Y9817417D01*
X5335072Y9996839D01*
X5585195Y10206717D01*
X5809261Y10444213D01*
X6004241Y10706116D01*
X6167497Y10988884D01*
X6296822Y11288693D01*
X6390467Y11601488D01*
X6447165Y11923040D01*
X6466150Y12249000D01*
X6447165Y12574960D01*
X6390467Y12896512D01*
X6296822Y13209307D01*
X6167497Y13509116D01*
X6004241Y13791884D01*
X5809261Y14053787D01*
X5585195Y14291283D01*
X5582437Y14293597D01*
X5582432Y14293602D01*
X5337831Y14498846D01*
X5337830Y14498847D01*
X5335072Y14501161D01*
X5062275Y14680583D01*
X5007087Y14708300D01*
X4773708Y14825507D01*
X4773699Y14825511D01*
X4770493Y14827121D01*
X4767120Y14828349D01*
X4767110Y14828353D01*
X4467064Y14937561D01*
X4467054Y14937564D01*
X4463672Y14938795D01*
X4460165Y14939627D01*
X4460159Y14939628D01*
X4149467Y15013264D01*
X4149451Y15013267D01*
X4145961Y15014094D01*
X4142396Y15014511D01*
X4142383Y15014513D01*
X3825226Y15051583D01*
X3825221Y15051584D01*
X3821656Y15052000D01*
X3495144Y15052000D01*
X3491579Y15051584D01*
X3491573Y15051583D01*
X3174416Y15014513D01*
X3174400Y15014511D01*
X3170839Y15014094D01*
X3167351Y15013268D01*
X3167332Y15013264D01*
X2856640Y14939628D01*
X2856629Y14939625D01*
X2853128Y14938795D01*
X2849749Y14937566D01*
X2849735Y14937561D01*
X2549689Y14828353D01*
X2549673Y14828347D01*
X2546307Y14827121D01*
X2543106Y14825514D01*
X2543091Y14825507D01*
X2257744Y14682200D01*
X2257739Y14682198D01*
X2254525Y14680583D01*
X2251511Y14678602D01*
X2251508Y14678599D01*
X1984745Y14503146D01*
X1984737Y14503141D01*
X1981728Y14501161D01*
X1978977Y14498854D01*
X1978968Y14498846D01*
X1734367Y14293602D01*
X1734353Y14293590D01*
X1731605Y14291283D01*
X1729130Y14288661D01*
X1729125Y14288655D01*
X1510013Y14056410D01*
X1510007Y14056404D01*
X1507539Y14053787D01*
X1505399Y14050913D01*
X1505386Y14050897D01*
X1314717Y13794784D01*
X1314709Y13794773D01*
X1312559Y13791884D01*
X1310760Y13788770D01*
X1310750Y13788753D01*
X1151107Y13512242D01*
X1151101Y13512232D01*
X1149303Y13509116D01*
X1147882Y13505823D01*
X1147874Y13505806D01*
X1021403Y13212611D01*
X1019978Y13209307D01*
X1018949Y13205872D01*
X1018946Y13205862D01*
X927367Y12899968D01*
X927364Y12899958D01*
X926333Y12896512D01*
X925708Y12892969D01*
X925705Y12892955D01*
X870263Y12578526D01*
X870261Y12578513D01*
X869635Y12574960D01*
X869425Y12571357D01*
X869424Y12571347D01*
X850860Y12252606D01*
X850650Y12249000D01*
X0Y12249000D01*
X0Y19862801D01*
X11977035Y19862801D01*
X11995612Y19721701D01*
X12050072Y19590221D01*
X12050073Y19590219D01*
X12050074Y19590218D01*
X12136711Y19477311D01*
X12249618Y19390674D01*
X12381101Y19336212D01*
X12522200Y19317636D01*
X12663299Y19336212D01*
X12794782Y19390674D01*
X12907689Y19477311D01*
X12994326Y19590218D01*
X13048788Y19721701D01*
X13067364Y19862800D01*
X13048788Y20003899D01*
X12994326Y20135382D01*
X12907689Y20248289D01*
X12794782Y20334926D01*
X12794781Y20334927D01*
X12794779Y20334928D01*
X12663299Y20389388D01*
X12522200Y20407965D01*
X12381100Y20389388D01*
X12249620Y20334928D01*
X12136711Y20248289D01*
X12050072Y20135380D01*
X11995612Y20003900D01*
X11977035Y19862801D01*
X0Y19862801D01*
X0Y22148801D01*
X10021235Y22148801D01*
X10039812Y22007701D01*
X10094272Y21876221D01*
X10094273Y21876219D01*
X10094274Y21876218D01*
X10180911Y21763311D01*
X10293818Y21676674D01*
X10425301Y21622212D01*
X10547822Y21606082D01*
X10566399Y21603636D01*
X10566399Y21603637D01*
X10566400Y21603636D01*
X10707499Y21622212D01*
X10838982Y21676674D01*
X10951889Y21763311D01*
X11038526Y21876218D01*
X11092988Y22007701D01*
X11111564Y22148800D01*
X11092988Y22289899D01*
X11038526Y22421382D01*
X10951889Y22534289D01*
X10838982Y22620926D01*
X10838981Y22620927D01*
X10838979Y22620928D01*
X10707499Y22675388D01*
X10566400Y22693965D01*
X10425300Y22675388D01*
X10293820Y22620928D01*
X10180911Y22534289D01*
X10094272Y22421380D01*
X10039812Y22289900D01*
X10021235Y22148801D01*
X0Y22148801D01*
X0Y24003000D01*
X1457619Y24003000D01*
X1475409Y23902111D01*
X1526631Y23813390D01*
X1526632Y23813389D01*
X1605107Y23747540D01*
X1605108Y23747540D01*
X1605109Y23747539D01*
X1701377Y23712500D01*
X1803823Y23712500D01*
X1900091Y23747539D01*
X1978569Y23813390D01*
X2029791Y23902111D01*
X2031128Y23909696D01*
X2062151Y23972297D01*
X2065537Y23975821D01*
X4305098Y26215381D01*
X4366422Y26248866D01*
X4392780Y26251700D01*
X7938584Y26251700D01*
X8005623Y26232015D01*
X8051378Y26179211D01*
X8061322Y26110053D01*
X8032297Y26046497D01*
X8014071Y26029324D01*
X7894911Y25937889D01*
X7808272Y25824980D01*
X7753812Y25693500D01*
X7735235Y25552400D01*
X7753812Y25411301D01*
X7808272Y25279821D01*
X7808273Y25279819D01*
X7808274Y25279818D01*
X7894911Y25166911D01*
X8007818Y25080274D01*
X8139301Y25025812D01*
X8261823Y25009682D01*
X8280399Y25007236D01*
X8280399Y25007237D01*
X8280400Y25007236D01*
X8421499Y25025812D01*
X8552982Y25080274D01*
X8665889Y25166911D01*
X8752526Y25279818D01*
X8806988Y25411301D01*
X8825564Y25552400D01*
X8806988Y25693499D01*
X8752526Y25824982D01*
X8665889Y25937889D01*
X8552982Y26024526D01*
X8552981Y26024527D01*
X8546729Y26029324D01*
X8505527Y26085752D01*
X8501372Y26155498D01*
X8535585Y26216419D01*
X8597302Y26249171D01*
X8622216Y26251700D01*
X10455252Y26251700D01*
X10461743Y26251530D01*
X10503261Y26249354D01*
X10503261Y26249355D01*
X10503262Y26249354D01*
X10524203Y26257394D01*
X10542858Y26262920D01*
X10564806Y26267584D01*
X10566546Y26268849D01*
X10567339Y26269424D01*
X10595794Y26284874D01*
X10598712Y26285994D01*
X10614575Y26301859D01*
X10629359Y26314487D01*
X10647519Y26327679D01*
X10649086Y26330395D01*
X10668789Y26356073D01*
X11083898Y26771182D01*
X11145219Y26804665D01*
X11214911Y26799681D01*
X11251283Y26778488D01*
X11337526Y26706121D01*
X11337527Y26706121D01*
X11337528Y26706120D01*
X11433796Y26671081D01*
X11536242Y26671081D01*
X11632510Y26706120D01*
X11710988Y26771971D01*
X11762210Y26860692D01*
X11763547Y26868277D01*
X11794570Y26930878D01*
X11797957Y26934403D01*
X12220373Y27356819D01*
X12281694Y27390302D01*
X12351386Y27385318D01*
X12407319Y27343446D01*
X12422613Y27316588D01*
X12435572Y27285301D01*
X12435573Y27285299D01*
X12435574Y27285298D01*
X12499842Y27201543D01*
X12522212Y27172390D01*
X12557011Y27145688D01*
X12596958Y27115035D01*
X12618686Y27098363D01*
X12659889Y27041935D01*
X12667200Y26999987D01*
X12667200Y26921047D01*
X12667030Y26914558D01*
X12664854Y26873038D01*
X12672893Y26852094D01*
X12678418Y26833443D01*
X12683084Y26811494D01*
X12684927Y26808957D01*
X12700370Y26780515D01*
X12701493Y26777589D01*
X12717352Y26761730D01*
X12729988Y26746935D01*
X12743175Y26728784D01*
X12743178Y26728783D01*
X12743179Y26728781D01*
X12745893Y26727215D01*
X12771573Y26707509D01*
X15104836Y24374246D01*
X15138321Y24312923D01*
X15139269Y24308110D01*
X15140609Y24300511D01*
X15191831Y24211790D01*
X15191832Y24211789D01*
X15270307Y24145940D01*
X15270308Y24145940D01*
X15270309Y24145939D01*
X15366577Y24110900D01*
X15459699Y24110900D01*
X15526738Y24091215D01*
X15572493Y24038411D01*
X15583699Y23986900D01*
X15583699Y23591066D01*
X15567088Y23529069D01*
X15547009Y23494290D01*
X15541953Y23465615D01*
X15529219Y23393400D01*
X15547009Y23292511D01*
X15582100Y23231731D01*
X15598232Y23203789D01*
X15676707Y23137940D01*
X15676708Y23137940D01*
X15676709Y23137939D01*
X15772977Y23102900D01*
X15897288Y23102900D01*
X15897288Y23099757D01*
X15930051Y23101842D01*
X15991109Y23067877D01*
X16024112Y23006293D01*
X16024859Y22959353D01*
X16011818Y22885401D01*
X16024275Y22814760D01*
X16029609Y22784511D01*
X16080831Y22695790D01*
X16080832Y22695789D01*
X16159307Y22629940D01*
X16159308Y22629940D01*
X16159309Y22629939D01*
X16255577Y22594900D01*
X16348700Y22594900D01*
X16415739Y22575215D01*
X16461494Y22522411D01*
X16472700Y22470900D01*
X16472700Y22219467D01*
X16456089Y22157470D01*
X16436009Y22122689D01*
X16418219Y22021800D01*
X16421810Y22001432D01*
X16414066Y21931993D01*
X16370009Y21877764D01*
X16303628Y21855962D01*
X16299694Y21855900D01*
X13511381Y21855900D01*
X13444342Y21875585D01*
X13423700Y21892219D01*
X11656019Y23659901D01*
X11622534Y23721224D01*
X11619700Y23747582D01*
X11619700Y25583334D01*
X11636312Y25645332D01*
X11640285Y25652216D01*
X11656391Y25680111D01*
X11674181Y25781000D01*
X11656391Y25881889D01*
X11605169Y25970610D01*
X11605167Y25970612D01*
X11526692Y26036461D01*
X11430423Y26071500D01*
X11327977Y26071500D01*
X11279843Y26053981D01*
X11231709Y26036461D01*
X11153231Y25970611D01*
X11134340Y25937889D01*
X11102009Y25881889D01*
X11091974Y25824980D01*
X11084219Y25781000D01*
X11102009Y25680111D01*
X11122088Y25645332D01*
X11138700Y25583334D01*
X11138700Y23606147D01*
X11138530Y23599658D01*
X11136354Y23558138D01*
X11144393Y23537194D01*
X11149918Y23518543D01*
X11154584Y23496594D01*
X11156427Y23494057D01*
X11171870Y23465615D01*
X11172993Y23462689D01*
X11188852Y23446830D01*
X11201488Y23432035D01*
X11214675Y23413884D01*
X11214678Y23413883D01*
X11214679Y23413881D01*
X11217393Y23412315D01*
X11243073Y23392609D01*
X13183585Y21452097D01*
X13188054Y21447388D01*
X13215879Y21416485D01*
X13236373Y21407360D01*
X13253470Y21398078D01*
X13272287Y21385858D01*
X13275377Y21385369D01*
X13306418Y21376174D01*
X13309279Y21374900D01*
X13309280Y21374900D01*
X13331714Y21374900D01*
X13351113Y21373373D01*
X13373267Y21369864D01*
X13373267Y21369865D01*
X13373268Y21369864D01*
X13376294Y21370675D01*
X13408389Y21374900D01*
X20003052Y21374900D01*
X20009543Y21374730D01*
X20051061Y21372554D01*
X20051061Y21372555D01*
X20051062Y21372554D01*
X20072003Y21380594D01*
X20090658Y21386120D01*
X20112606Y21390784D01*
X20114346Y21392049D01*
X20115139Y21392624D01*
X20143594Y21408074D01*
X20146512Y21409194D01*
X20162375Y21425059D01*
X20177159Y21437687D01*
X20195319Y21450879D01*
X20196886Y21453595D01*
X20216589Y21479273D01*
X20691262Y21953945D01*
X20736529Y21982783D01*
X20809491Y22009339D01*
X20887969Y22075190D01*
X20939191Y22163911D01*
X20956981Y22264800D01*
X20939191Y22365689D01*
X20887969Y22454410D01*
X20887967Y22454412D01*
X20809492Y22520261D01*
X20713223Y22555300D01*
X20610777Y22555300D01*
X20562643Y22537781D01*
X20514509Y22520261D01*
X20436031Y22454411D01*
X20384809Y22365689D01*
X20383471Y22358101D01*
X20352442Y22295499D01*
X20349036Y22291956D01*
X19949301Y21892219D01*
X19887978Y21858734D01*
X19861620Y21855900D01*
X17126706Y21855900D01*
X17059667Y21875585D01*
X17013912Y21928389D01*
X17003968Y21997547D01*
X17004590Y22001432D01*
X17008181Y22021800D01*
X16990391Y22122689D01*
X16970311Y22157470D01*
X16953700Y22219467D01*
X16953700Y23486900D01*
X16973385Y23553939D01*
X17026189Y23599694D01*
X17077700Y23610900D01*
X17196223Y23610900D01*
X17292491Y23645939D01*
X17370969Y23711790D01*
X17422191Y23800511D01*
X17439981Y23901400D01*
X17422191Y24002289D01*
X17402111Y24037070D01*
X17385500Y24099067D01*
X17385500Y25366500D01*
X17405185Y25433539D01*
X17457989Y25479294D01*
X17509500Y25490500D01*
X17602623Y25490500D01*
X17698891Y25525539D01*
X17777369Y25591390D01*
X17828591Y25680111D01*
X17846381Y25781000D01*
X17828591Y25881889D01*
X17808511Y25916670D01*
X17791900Y25978667D01*
X17791900Y31577734D01*
X17808512Y31639732D01*
X17812485Y31646616D01*
X17828591Y31674511D01*
X17846381Y31775400D01*
X17828591Y31876289D01*
X17777369Y31965010D01*
X17777367Y31965012D01*
X17698892Y32030861D01*
X17602623Y32065900D01*
X17563876Y32065900D01*
X17496837Y32085585D01*
X17451082Y32138389D01*
X17441760Y32168366D01*
X17434011Y32212311D01*
X17422191Y32279344D01*
X17376503Y32358480D01*
X17364033Y32409882D01*
X19605000Y32409882D01*
X19605354Y32403268D01*
X19611400Y32347029D01*
X19661647Y32212311D01*
X19747811Y32097212D01*
X19862910Y32011048D01*
X19997628Y31960801D01*
X20053867Y31954755D01*
X20060482Y31954400D01*
X20629795Y31954400D01*
X20696834Y31934715D01*
X20742589Y31881911D01*
X20752533Y31812753D01*
X20723508Y31749197D01*
X20665791Y31711740D01*
X20574118Y31683932D01*
X20402046Y31591957D01*
X20251222Y31468178D01*
X20127443Y31317354D01*
X20035468Y31145282D01*
X19978831Y30958574D01*
X19959707Y30764401D01*
X19978831Y30570227D01*
X20035468Y30383519D01*
X20100047Y30262701D01*
X20127444Y30211445D01*
X20251222Y30060622D01*
X20402045Y29936844D01*
X20574118Y29844869D01*
X20760828Y29788231D01*
X20955000Y29769107D01*
X21149172Y29788231D01*
X21335882Y29844869D01*
X21507955Y29936844D01*
X21658778Y30060622D01*
X21782556Y30211445D01*
X21874531Y30383518D01*
X21931169Y30570228D01*
X21950293Y30764400D01*
X21931169Y30958572D01*
X21874531Y31145282D01*
X21782556Y31317355D01*
X21658778Y31468178D01*
X21507955Y31591956D01*
X21472403Y31610959D01*
X21335881Y31683932D01*
X21244209Y31711740D01*
X21185771Y31750037D01*
X21157314Y31813850D01*
X21167875Y31882916D01*
X21214100Y31935310D01*
X21280205Y31954400D01*
X21849518Y31954400D01*
X21856132Y31954755D01*
X21912371Y31960801D01*
X22047089Y32011048D01*
X22162188Y32097212D01*
X22248352Y32212311D01*
X22298599Y32347029D01*
X22304645Y32403268D01*
X22305000Y32409882D01*
X22305000Y33054400D01*
X21388686Y33054400D01*
X21414493Y33094556D01*
X21455000Y33232511D01*
X21455000Y33376289D01*
X21414493Y33514244D01*
X21388686Y33554400D01*
X22304999Y33554400D01*
X22305000Y34198919D01*
X22304645Y34205533D01*
X22298599Y34261772D01*
X22248352Y34396490D01*
X22162188Y34511589D01*
X22047089Y34597753D01*
X21912371Y34648000D01*
X21856132Y34654046D01*
X21849518Y34654400D01*
X21205000Y34654400D01*
X21204999Y33739902D01*
X21097315Y33789080D01*
X20990763Y33804400D01*
X20919237Y33804400D01*
X20812685Y33789080D01*
X20704999Y33739902D01*
X20705000Y34654400D01*
X20060482Y34654400D01*
X20053867Y34654046D01*
X19997628Y34648000D01*
X19862910Y34597753D01*
X19747811Y34511589D01*
X19661647Y34396490D01*
X19611400Y34261772D01*
X19605354Y34205533D01*
X19605000Y34198919D01*
X19605000Y33554400D01*
X20521314Y33554400D01*
X20495507Y33514244D01*
X20455000Y33376289D01*
X20455000Y33232511D01*
X20495507Y33094556D01*
X20521314Y33054400D01*
X19605000Y33054400D01*
X19605000Y32409882D01*
X17364033Y32409882D01*
X17360032Y32426376D01*
X17382885Y32492403D01*
X17385517Y32495962D01*
X17461526Y32595018D01*
X17515988Y32726501D01*
X17534564Y32867600D01*
X17515988Y33008699D01*
X17461526Y33140182D01*
X17374889Y33253089D01*
X17261982Y33339726D01*
X17261981Y33339727D01*
X17261979Y33339728D01*
X17130499Y33394188D01*
X16989400Y33412765D01*
X16848300Y33394188D01*
X16716820Y33339728D01*
X16603908Y33253087D01*
X16511074Y33132104D01*
X16454646Y33090902D01*
X16384900Y33086747D01*
X16323980Y33120960D01*
X16291228Y33182677D01*
X16288699Y33207591D01*
X16288699Y34654400D01*
X16288699Y35739708D01*
X16308384Y35806744D01*
X16361188Y35852499D01*
X16430346Y35862443D01*
X16493902Y35833418D01*
X16511075Y35815191D01*
X16527711Y35793511D01*
X16640618Y35706874D01*
X16772101Y35652412D01*
X16913200Y35633836D01*
X17054299Y35652412D01*
X17185782Y35706874D01*
X17298689Y35793511D01*
X17385326Y35906418D01*
X17439788Y36037901D01*
X17458364Y36179000D01*
X17439788Y36320099D01*
X17385326Y36451582D01*
X17298689Y36564489D01*
X17185782Y36651126D01*
X17185781Y36651127D01*
X17185779Y36651128D01*
X17054299Y36705588D01*
X16913200Y36724165D01*
X16772100Y36705588D01*
X16640620Y36651128D01*
X16527708Y36564487D01*
X16511073Y36542808D01*
X16454644Y36501607D01*
X16384898Y36497454D01*
X16323978Y36531668D01*
X16291227Y36593386D01*
X16288699Y36618290D01*
X16288699Y38481025D01*
X16308384Y38548060D01*
X16325010Y38568693D01*
X16492319Y38736003D01*
X16496991Y38740437D01*
X16527915Y38768279D01*
X16537039Y38788775D01*
X16546321Y38805871D01*
X16558542Y38824687D01*
X16559032Y38827783D01*
X16568226Y38858822D01*
X16569500Y38861680D01*
X16569500Y38884116D01*
X16571027Y38903515D01*
X16574536Y38925668D01*
X16573724Y38928698D01*
X16569499Y38960782D01*
X16569499Y40071658D01*
X16569669Y40078150D01*
X16570059Y40085584D01*
X16571846Y40119662D01*
X16563807Y40140604D01*
X16558279Y40159265D01*
X16556899Y40165757D01*
X16553616Y40181206D01*
X16553615Y40181207D01*
X16553615Y40181209D01*
X16551773Y40183744D01*
X16536326Y40212194D01*
X16535206Y40215112D01*
X16519338Y40230980D01*
X16506713Y40245762D01*
X16493521Y40263919D01*
X16493518Y40263921D01*
X16490806Y40265487D01*
X16465126Y40285192D01*
X15462819Y41287499D01*
X15429334Y41348822D01*
X15426500Y41375180D01*
X15426500Y43769934D01*
X15443112Y43831932D01*
X15447085Y43838816D01*
X15463191Y43866711D01*
X15480981Y43967600D01*
X15463191Y44068489D01*
X15411969Y44157210D01*
X15411967Y44157212D01*
X15333492Y44223061D01*
X15237223Y44258100D01*
X15134777Y44258100D01*
X15086643Y44240581D01*
X15038509Y44223061D01*
X14960031Y44157211D01*
X14934420Y44112850D01*
X14908809Y44068489D01*
X14908808Y44068488D01*
X14908809Y44068488D01*
X14891019Y43967600D01*
X14908809Y43866711D01*
X14928888Y43831932D01*
X14945500Y43769934D01*
X14945500Y41233747D01*
X14945330Y41227258D01*
X14943154Y41185738D01*
X14951193Y41164794D01*
X14956718Y41146143D01*
X14961384Y41124194D01*
X14963227Y41121657D01*
X14978670Y41093215D01*
X14979793Y41090289D01*
X14995652Y41074430D01*
X15008288Y41059635D01*
X15021475Y41041484D01*
X15021478Y41041483D01*
X15021479Y41041481D01*
X15024193Y41039915D01*
X15049873Y41020210D01*
X16052182Y40017900D01*
X16085666Y39956579D01*
X16088500Y39930221D01*
X16088500Y39063781D01*
X16068815Y38996742D01*
X16052181Y38976100D01*
X15959481Y38883400D01*
X15898158Y38849915D01*
X15828466Y38854899D01*
X15784119Y38883400D01*
X14335919Y40331600D01*
X14302434Y40392923D01*
X14299600Y40419281D01*
X14299600Y41331534D01*
X14316212Y41393532D01*
X14320185Y41400416D01*
X14336291Y41428311D01*
X14354081Y41529200D01*
X14336291Y41630089D01*
X14285069Y41718810D01*
X14279176Y41723755D01*
X14206592Y41784661D01*
X14110323Y41819700D01*
X14007877Y41819700D01*
X13959743Y41802181D01*
X13911609Y41784661D01*
X13833131Y41718811D01*
X13807520Y41674450D01*
X13781909Y41630089D01*
X13781908Y41630088D01*
X13781909Y41630088D01*
X13764119Y41529201D01*
X13781909Y41428311D01*
X13801988Y41393532D01*
X13818600Y41331534D01*
X13818600Y40277847D01*
X13818430Y40271358D01*
X13816254Y40229838D01*
X13824293Y40208894D01*
X13829818Y40190243D01*
X13834484Y40168294D01*
X13836327Y40165757D01*
X13851770Y40137315D01*
X13852893Y40134389D01*
X13868752Y40118530D01*
X13881388Y40103735D01*
X13894575Y40085584D01*
X13894578Y40085583D01*
X13894579Y40085581D01*
X13897293Y40084015D01*
X13922973Y40064309D01*
X15213100Y38774182D01*
X15246585Y38712859D01*
X15241601Y38643167D01*
X15199729Y38587234D01*
X15134265Y38562817D01*
X15109234Y38563562D01*
X15068200Y38568965D01*
X14927100Y38550388D01*
X14795620Y38495928D01*
X14682711Y38409289D01*
X14589192Y38287413D01*
X14532764Y38246211D01*
X14490816Y38238900D01*
X13085053Y38238900D01*
X13044270Y38250876D01*
X13042636Y38246383D01*
X13022091Y38253861D01*
X12925823Y38288900D01*
X12823377Y38288900D01*
X12819292Y38287413D01*
X12727109Y38253861D01*
X12631881Y38173955D01*
X12631423Y38174501D01*
X12601786Y38146241D01*
X12533179Y38133019D01*
X12468314Y38158987D01*
X12465260Y38161468D01*
X12415692Y38203061D01*
X12319423Y38238100D01*
X12216977Y38238100D01*
X12168843Y38220581D01*
X12120709Y38203061D01*
X12042231Y38137211D01*
X12039811Y38133019D01*
X11991009Y38048489D01*
X11973219Y37947600D01*
X11991009Y37846711D01*
X12022770Y37791699D01*
X12042232Y37757989D01*
X12120708Y37692139D01*
X12193668Y37665584D01*
X12238939Y37636743D01*
X12781894Y37093788D01*
X12815379Y37032465D01*
X12818213Y37006107D01*
X12818213Y29386581D01*
X12801601Y29324583D01*
X12784120Y29294304D01*
X12733554Y29246087D01*
X12678764Y29235527D01*
X12726828Y29216287D01*
X12767359Y29159374D01*
X12772295Y29140348D01*
X12781522Y29088025D01*
X12829260Y29005339D01*
X12832745Y28999303D01*
X12911220Y28933454D01*
X12911221Y28933454D01*
X12911222Y28933453D01*
X13007490Y28898414D01*
X13114461Y28898414D01*
X13181500Y28878729D01*
X13221847Y28836415D01*
X13232831Y28817390D01*
X13232832Y28817389D01*
X13311307Y28751540D01*
X13311308Y28751540D01*
X13311309Y28751539D01*
X13407577Y28716500D01*
X13510023Y28716500D01*
X13606291Y28751539D01*
X13684769Y28817390D01*
X13735991Y28906111D01*
X13742713Y28944234D01*
X13773740Y29006836D01*
X13833688Y29042726D01*
X13864829Y29046700D01*
X13929923Y29046700D01*
X14026191Y29081739D01*
X14104669Y29147590D01*
X14155891Y29236311D01*
X14157228Y29243896D01*
X14188251Y29306497D01*
X14191638Y29310022D01*
X14218163Y29336547D01*
X14279484Y29370030D01*
X14349176Y29365046D01*
X14405109Y29323174D01*
X14413228Y29310866D01*
X14424086Y29292060D01*
X14440700Y29230058D01*
X14440700Y27289147D01*
X14440530Y27282658D01*
X14438354Y27241138D01*
X14446393Y27220194D01*
X14451918Y27201543D01*
X14456584Y27179594D01*
X14458427Y27177057D01*
X14473870Y27148615D01*
X14474993Y27145689D01*
X14490852Y27129830D01*
X14503488Y27115035D01*
X14516675Y27096884D01*
X14516678Y27096883D01*
X14516679Y27096881D01*
X14519393Y27095315D01*
X14545073Y27075609D01*
X15547380Y26073302D01*
X15580865Y26011979D01*
X15583699Y25985621D01*
X15583699Y24874981D01*
X15564014Y24807942D01*
X15511210Y24762187D01*
X15442052Y24752243D01*
X15378496Y24781268D01*
X15372018Y24787300D01*
X13219880Y26939439D01*
X13186395Y27000762D01*
X13191379Y27070454D01*
X13232073Y27125496D01*
X13293189Y27172391D01*
X13379826Y27285298D01*
X13434288Y27416781D01*
X13452864Y27557880D01*
X13434288Y27698979D01*
X13379826Y27830462D01*
X13293189Y27943369D01*
X13180282Y28030006D01*
X13180281Y28030007D01*
X13180279Y28030008D01*
X13048799Y28084468D01*
X12907700Y28103045D01*
X12766600Y28084468D01*
X12680152Y28048660D01*
X12610683Y28041191D01*
X12548204Y28072466D01*
X12512552Y28132556D01*
X12508700Y28163221D01*
X12508700Y29088534D01*
X12525309Y29150529D01*
X12542794Y29180813D01*
X12593356Y29229026D01*
X12648146Y29239589D01*
X12600082Y29258830D01*
X12559552Y29315744D01*
X12554617Y29334764D01*
X12545391Y29387089D01*
X12494169Y29475810D01*
X12494167Y29475812D01*
X12415692Y29541661D01*
X12319423Y29576700D01*
X12216977Y29576700D01*
X12181038Y29563619D01*
X12120709Y29541661D01*
X12042230Y29475810D01*
X12041788Y29475043D01*
X11991221Y29426827D01*
X11933219Y29415649D01*
X11933219Y29413473D01*
X11911355Y29413473D01*
X11808909Y29413473D01*
X11784515Y29404594D01*
X11712641Y29378434D01*
X11634163Y29312584D01*
X11630649Y29306497D01*
X11582941Y29223862D01*
X11565151Y29122973D01*
X11582941Y29022084D01*
X11604688Y28984417D01*
X11621300Y28922418D01*
X11621300Y28040180D01*
X11601615Y27973141D01*
X11584981Y27952499D01*
X10401501Y26769019D01*
X10340178Y26735534D01*
X10313820Y26732700D01*
X4251339Y26732700D01*
X4244848Y26732870D01*
X4242760Y26732980D01*
X4203336Y26735047D01*
X4182392Y26727007D01*
X4163743Y26721483D01*
X4141794Y26716817D01*
X4139252Y26714970D01*
X4110819Y26699532D01*
X4107888Y26698408D01*
X4092024Y26682543D01*
X4077234Y26669911D01*
X4059080Y26656721D01*
X4057513Y26654006D01*
X4037809Y26628329D01*
X1723339Y24313858D01*
X1678070Y24285018D01*
X1605111Y24258463D01*
X1526631Y24192611D01*
X1508605Y24161387D01*
X1475409Y24103889D01*
X1457619Y24003000D01*
X0Y24003000D01*
X0Y27406600D01*
X2706035Y27406600D01*
X2724612Y27265501D01*
X2779072Y27134021D01*
X2779073Y27134019D01*
X2779074Y27134018D01*
X2865711Y27021111D01*
X2978618Y26934474D01*
X2978619Y26934474D01*
X2978620Y26934473D01*
X3008405Y26922136D01*
X3110101Y26880012D01*
X3232622Y26863882D01*
X3251199Y26861436D01*
X3251199Y26861437D01*
X3251200Y26861436D01*
X3392299Y26880012D01*
X3523782Y26934474D01*
X3636689Y27021111D01*
X3723326Y27134018D01*
X3777788Y27265501D01*
X3796364Y27406600D01*
X3777788Y27547699D01*
X3723326Y27679182D01*
X3636689Y27792089D01*
X3523782Y27878726D01*
X3523781Y27878727D01*
X3523779Y27878728D01*
X3392299Y27933188D01*
X3251199Y27951765D01*
X3110100Y27933188D01*
X2978620Y27878728D01*
X2865711Y27792089D01*
X2779072Y27679180D01*
X2724612Y27547700D01*
X2706035Y27406600D01*
X0Y27406600D01*
X0Y30403801D01*
X2020235Y30403801D01*
X2038812Y30262701D01*
X2093272Y30131221D01*
X2093273Y30131219D01*
X2093274Y30131218D01*
X2179911Y30018311D01*
X2292818Y29931674D01*
X2424301Y29877212D01*
X2546822Y29861082D01*
X2565399Y29858636D01*
X2565399Y29858637D01*
X2565400Y29858636D01*
X2706499Y29877212D01*
X2837982Y29931674D01*
X2950889Y30018311D01*
X3037526Y30131218D01*
X3091988Y30262701D01*
X3110564Y30403800D01*
X3091988Y30544899D01*
X3037526Y30676382D01*
X2950889Y30789289D01*
X2837982Y30875926D01*
X2837981Y30875927D01*
X2837979Y30875928D01*
X2706499Y30930388D01*
X2565400Y30948965D01*
X2424300Y30930388D01*
X2292820Y30875928D01*
X2179911Y30789289D01*
X2093272Y30676380D01*
X2038812Y30544900D01*
X2020235Y30403801D01*
X0Y30403801D01*
X0Y31216600D01*
X3667419Y31216600D01*
X3685209Y31115711D01*
X3705288Y31080932D01*
X3721900Y31018934D01*
X3721900Y29473547D01*
X3721730Y29467058D01*
X3719554Y29425538D01*
X3727593Y29404594D01*
X3733118Y29385943D01*
X3737784Y29363994D01*
X3739627Y29361457D01*
X3755070Y29333015D01*
X3756193Y29330089D01*
X3772052Y29314230D01*
X3784688Y29299435D01*
X3797875Y29281284D01*
X3797878Y29281283D01*
X3797879Y29281281D01*
X3800593Y29279715D01*
X3826273Y29260009D01*
X5284185Y27802097D01*
X5288654Y27797388D01*
X5316479Y27766485D01*
X5336973Y27757360D01*
X5354070Y27748078D01*
X5372887Y27735858D01*
X5375979Y27735369D01*
X5407017Y27726175D01*
X5409880Y27724900D01*
X5432321Y27724900D01*
X5451718Y27723373D01*
X5473868Y27719865D01*
X5476891Y27720676D01*
X5508983Y27724900D01*
X6444347Y27724900D01*
X6485129Y27712925D01*
X6486764Y27717417D01*
X6507308Y27709940D01*
X6507309Y27709939D01*
X6603577Y27674900D01*
X6603578Y27674900D01*
X6706023Y27674900D01*
X6802291Y27709939D01*
X6880769Y27775790D01*
X6931991Y27864511D01*
X6949781Y27965400D01*
X6931991Y28066289D01*
X6880769Y28155010D01*
X6870984Y28163221D01*
X6802292Y28220861D01*
X6706023Y28255900D01*
X6603577Y28255900D01*
X6520289Y28225585D01*
X6486765Y28213383D01*
X6485121Y28217900D01*
X6459628Y28206845D01*
X6444348Y28205900D01*
X5611980Y28205900D01*
X5544941Y28225585D01*
X5524299Y28242219D01*
X4505719Y29260800D01*
X7350419Y29260800D01*
X7368209Y29159911D01*
X7413341Y29081739D01*
X7419432Y29071189D01*
X7497907Y29005340D01*
X7497908Y29005340D01*
X7497909Y29005339D01*
X7594177Y28970300D01*
X7696623Y28970300D01*
X7792891Y29005339D01*
X7871369Y29071190D01*
X7922591Y29159911D01*
X7940381Y29260800D01*
X7937511Y29277074D01*
X7927691Y29332767D01*
X7935435Y29402206D01*
X7979491Y29456436D01*
X8045872Y29478238D01*
X8049807Y29478300D01*
X8153823Y29478300D01*
X8250091Y29513339D01*
X8328569Y29579190D01*
X8379791Y29667911D01*
X8397581Y29768800D01*
X8379791Y29869689D01*
X8359711Y29904470D01*
X8343100Y29966467D01*
X8343100Y30790334D01*
X8359712Y30852332D01*
X8363685Y30859216D01*
X8379791Y30887111D01*
X8397581Y30988000D01*
X8379791Y31088889D01*
X8328569Y31177610D01*
X8282103Y31216600D01*
X8250092Y31243461D01*
X8153823Y31278500D01*
X8060387Y31278500D01*
X7993348Y31298185D01*
X7947593Y31350989D01*
X7938271Y31380966D01*
X7936398Y31391590D01*
X7922591Y31469889D01*
X7871369Y31558610D01*
X7866196Y31562951D01*
X7792892Y31624461D01*
X7696623Y31659500D01*
X7594177Y31659500D01*
X7546043Y31641981D01*
X7497909Y31624461D01*
X7419431Y31558611D01*
X7405764Y31534938D01*
X7368209Y31469889D01*
X7368208Y31469888D01*
X7368209Y31469888D01*
X7350419Y31369000D01*
X7368209Y31268111D01*
X7388288Y31233332D01*
X7404900Y31171334D01*
X7404900Y29458467D01*
X7388289Y29396470D01*
X7368209Y29361689D01*
X7353289Y29277074D01*
X7350419Y29260800D01*
X4505719Y29260800D01*
X4239219Y29527300D01*
X4205734Y29588623D01*
X4202900Y29614981D01*
X4202900Y31018934D01*
X4219512Y31080932D01*
X4224106Y31088889D01*
X4239591Y31115711D01*
X4257381Y31216600D01*
X4239591Y31317489D01*
X4188369Y31406210D01*
X4150716Y31437805D01*
X4109892Y31472061D01*
X4013623Y31507100D01*
X3911177Y31507100D01*
X3863043Y31489581D01*
X3814909Y31472061D01*
X3736431Y31406211D01*
X3719344Y31376614D01*
X3685209Y31317489D01*
X3670369Y31233332D01*
X3667419Y31216600D01*
X0Y31216600D01*
X0Y32572994D01*
X7618432Y32572994D01*
X7637009Y32431895D01*
X7691469Y32300415D01*
X7691470Y32300413D01*
X7691471Y32300412D01*
X7778108Y32187505D01*
X7891015Y32100868D01*
X8022498Y32046406D01*
X8140574Y32030861D01*
X8163596Y32027830D01*
X8163596Y32027831D01*
X8163597Y32027830D01*
X8304696Y32046406D01*
X8436179Y32100868D01*
X8549086Y32187505D01*
X8635723Y32300412D01*
X8690185Y32431895D01*
X8708761Y32572994D01*
X8690185Y32714093D01*
X8635723Y32845576D01*
X8549086Y32958483D01*
X8436179Y33045120D01*
X8436178Y33045121D01*
X8436176Y33045122D01*
X8304696Y33099582D01*
X8163596Y33118159D01*
X8022497Y33099582D01*
X7891017Y33045122D01*
X7778108Y32958483D01*
X7691469Y32845574D01*
X7637009Y32714094D01*
X7618432Y32572994D01*
X0Y32572994D01*
X0Y33353000D01*
X1354035Y33353000D01*
X1372612Y33211901D01*
X1427072Y33080421D01*
X1427073Y33080419D01*
X1427074Y33080418D01*
X1513711Y32967511D01*
X1626618Y32880874D01*
X1626619Y32880874D01*
X1626620Y32880873D01*
X1656405Y32868536D01*
X1758101Y32826412D01*
X1899200Y32807836D01*
X2040299Y32826412D01*
X2171782Y32880874D01*
X2284689Y32967511D01*
X2371326Y33080418D01*
X2425788Y33211901D01*
X2444364Y33353000D01*
X2425788Y33494099D01*
X2371326Y33625582D01*
X2284689Y33738489D01*
X2171782Y33825126D01*
X2171781Y33825127D01*
X2171779Y33825128D01*
X2040299Y33879588D01*
X1899200Y33898165D01*
X1758100Y33879588D01*
X1626620Y33825128D01*
X1513711Y33738489D01*
X1427072Y33625580D01*
X1372612Y33494100D01*
X1354035Y33353000D01*
X0Y33353000D01*
X0Y36601401D01*
X7455835Y36601401D01*
X7474412Y36460301D01*
X7528872Y36328821D01*
X7528873Y36328819D01*
X7528874Y36328818D01*
X7615511Y36215911D01*
X7728418Y36129274D01*
X7859901Y36074812D01*
X7982423Y36058682D01*
X8000999Y36056236D01*
X8000999Y36056237D01*
X8001000Y36056236D01*
X8142099Y36074812D01*
X8273582Y36129274D01*
X8386489Y36215911D01*
X8473126Y36328818D01*
X8527588Y36460301D01*
X8546164Y36601400D01*
X8527588Y36742499D01*
X8485464Y36844195D01*
X8473127Y36873980D01*
X8473126Y36873981D01*
X8473126Y36873982D01*
X8386489Y36986889D01*
X8273582Y37073526D01*
X8273581Y37073527D01*
X8273579Y37073528D01*
X8142099Y37127988D01*
X8001000Y37146565D01*
X7859900Y37127988D01*
X7728420Y37073528D01*
X7615511Y36986889D01*
X7528872Y36873980D01*
X7474412Y36742500D01*
X7455835Y36601401D01*
X0Y36601401D01*
X0Y37406211D01*
X4778434Y37406211D01*
X4797011Y37265111D01*
X4851471Y37133631D01*
X4851472Y37133629D01*
X4851473Y37133628D01*
X4938110Y37020721D01*
X5051017Y36934084D01*
X5051018Y36934084D01*
X5051019Y36934083D01*
X5071069Y36925778D01*
X5182500Y36879622D01*
X5323599Y36861046D01*
X5464698Y36879622D01*
X5596181Y36934084D01*
X5709088Y37020721D01*
X5795725Y37133628D01*
X5850187Y37265111D01*
X5868763Y37406210D01*
X5850187Y37547309D01*
X5800407Y37667489D01*
X5795726Y37678790D01*
X5795725Y37678791D01*
X5795725Y37678792D01*
X5709088Y37791699D01*
X5596181Y37878336D01*
X5596180Y37878337D01*
X5596178Y37878338D01*
X5464698Y37932798D01*
X5323598Y37951375D01*
X5182499Y37932798D01*
X5051019Y37878338D01*
X4938110Y37791699D01*
X4851471Y37678790D01*
X4797011Y37547310D01*
X4778434Y37406211D01*
X0Y37406211D01*
X0Y42570600D01*
X8439419Y42570600D01*
X8457209Y42469711D01*
X8508431Y42380990D01*
X8508432Y42380989D01*
X8586908Y42315139D01*
X8659868Y42288584D01*
X8705139Y42259743D01*
X9412036Y41552846D01*
X9445521Y41491523D01*
X9446469Y41486710D01*
X9447809Y41479111D01*
X9493345Y41400239D01*
X9499032Y41390389D01*
X9577507Y41324540D01*
X9577508Y41324540D01*
X9577509Y41324539D01*
X9673777Y41289500D01*
X9776223Y41289500D01*
X9790243Y41294604D01*
X9859972Y41299036D01*
X9921028Y41265066D01*
X9954026Y41203480D01*
X9956655Y41178082D01*
X9956655Y40764363D01*
X9940043Y40702366D01*
X9919964Y40667585D01*
X9902174Y40566696D01*
X9919964Y40465807D01*
X9962043Y40392923D01*
X9971187Y40377085D01*
X10049662Y40311236D01*
X10049663Y40311236D01*
X10049664Y40311235D01*
X10145932Y40276196D01*
X10248378Y40276196D01*
X10344646Y40311235D01*
X10423124Y40377086D01*
X10474346Y40465807D01*
X10492136Y40566696D01*
X10474346Y40667585D01*
X10454266Y40702366D01*
X10437655Y40764363D01*
X10437655Y42044714D01*
X10457340Y42111753D01*
X10510144Y42157508D01*
X10579302Y42167452D01*
X10642858Y42138427D01*
X10677837Y42088047D01*
X10717647Y41981312D01*
X10803811Y41866212D01*
X10918910Y41780048D01*
X11053628Y41729801D01*
X11109867Y41723755D01*
X11116482Y41723400D01*
X11761000Y41723400D01*
X11761000Y42637899D01*
X11868685Y42588720D01*
X11975237Y42573400D01*
X12046763Y42573400D01*
X12153315Y42588720D01*
X12261000Y42637899D01*
X12261000Y41723400D01*
X12905518Y41723400D01*
X12912132Y41723755D01*
X12968371Y41729801D01*
X13103089Y41780048D01*
X13218188Y41866212D01*
X13304352Y41981311D01*
X13354599Y42116029D01*
X13360645Y42172268D01*
X13361000Y42178882D01*
X13361000Y42823400D01*
X12444686Y42823400D01*
X12470493Y42863556D01*
X12511000Y43001511D01*
X12511000Y43145289D01*
X12470493Y43283244D01*
X12444686Y43323400D01*
X13361000Y43323400D01*
X13361000Y43967919D01*
X13360645Y43974533D01*
X13354599Y44030772D01*
X13304352Y44165490D01*
X13218188Y44280589D01*
X13103089Y44366753D01*
X12968371Y44417000D01*
X12912132Y44423046D01*
X12905518Y44423400D01*
X12336205Y44423400D01*
X12269166Y44443085D01*
X12223411Y44495889D01*
X12213467Y44565047D01*
X12242492Y44628603D01*
X12300209Y44666060D01*
X12339779Y44678064D01*
X12391882Y44693869D01*
X12563955Y44785844D01*
X12714778Y44909622D01*
X12838556Y45060445D01*
X12930531Y45232518D01*
X12987169Y45419228D01*
X13006293Y45613400D01*
X12987169Y45807572D01*
X12930531Y45994282D01*
X12838556Y46166355D01*
X12714778Y46317178D01*
X12563955Y46440956D01*
X12541732Y46452834D01*
X12391881Y46532932D01*
X12205173Y46589569D01*
X12011000Y46608693D01*
X11816826Y46589569D01*
X11630118Y46532932D01*
X11458046Y46440957D01*
X11307222Y46317178D01*
X11183443Y46166354D01*
X11091468Y45994282D01*
X11034831Y45807574D01*
X11015707Y45613400D01*
X11034831Y45419227D01*
X11091468Y45232519D01*
X11148832Y45125200D01*
X11183444Y45060445D01*
X11307222Y44909622D01*
X11458045Y44785844D01*
X11555392Y44733811D01*
X11630118Y44693869D01*
X11721791Y44666060D01*
X11780229Y44627763D01*
X11808686Y44563950D01*
X11798125Y44494884D01*
X11751900Y44442490D01*
X11685795Y44423400D01*
X11116482Y44423400D01*
X11109867Y44423046D01*
X11053628Y44417000D01*
X10918910Y44366753D01*
X10803811Y44280589D01*
X10717647Y44165490D01*
X10667400Y44030772D01*
X10661354Y43974533D01*
X10660999Y43967918D01*
X10660999Y43592014D01*
X10641314Y43524974D01*
X10588510Y43479219D01*
X10519352Y43469276D01*
X10455796Y43498301D01*
X10436679Y43519131D01*
X10419928Y43542188D01*
X10404484Y43570633D01*
X10403422Y43573400D01*
X10403362Y43573557D01*
X10387498Y43589421D01*
X10374861Y43604216D01*
X10361676Y43622364D01*
X10361675Y43622365D01*
X10361674Y43622366D01*
X10358960Y43623933D01*
X10333282Y43643637D01*
X9753858Y44223061D01*
X9115062Y44861856D01*
X9081578Y44923178D01*
X9080633Y44927977D01*
X9079291Y44935589D01*
X9028069Y45024310D01*
X8985773Y45059801D01*
X8949592Y45090161D01*
X8853323Y45125200D01*
X8750877Y45125200D01*
X8702743Y45107681D01*
X8654609Y45090161D01*
X8576131Y45024311D01*
X8550520Y44979950D01*
X8524909Y44935589D01*
X8507119Y44834700D01*
X8524909Y44733811D01*
X8576131Y44645090D01*
X8576132Y44645089D01*
X8654608Y44579239D01*
X8727568Y44552684D01*
X8772839Y44523843D01*
X9920336Y43376346D01*
X9953821Y43315023D01*
X9956655Y43288665D01*
X9956655Y41987826D01*
X9936970Y41920787D01*
X9884166Y41875032D01*
X9815008Y41865088D01*
X9751452Y41894113D01*
X9744974Y41900145D01*
X9047363Y42597755D01*
X9013878Y42659078D01*
X9012933Y42663877D01*
X9011591Y42671489D01*
X8960369Y42760210D01*
X8960369Y42760211D01*
X8881892Y42826061D01*
X8785623Y42861100D01*
X8683177Y42861100D01*
X8635043Y42843581D01*
X8586909Y42826061D01*
X8508431Y42760211D01*
X8498265Y42742602D01*
X8457209Y42671489D01*
X8439419Y42570600D01*
X0Y42570600D01*
X0Y43805700D01*
X5293635Y43805700D01*
X5312212Y43664601D01*
X5366672Y43533121D01*
X5366673Y43533119D01*
X5366674Y43533118D01*
X5453311Y43420211D01*
X5566218Y43333574D01*
X5697701Y43279112D01*
X5820223Y43262982D01*
X5838799Y43260536D01*
X5838799Y43260537D01*
X5838800Y43260536D01*
X5979899Y43279112D01*
X6111382Y43333574D01*
X6224289Y43420211D01*
X6310926Y43533118D01*
X6365388Y43664601D01*
X6383964Y43805700D01*
X6365388Y43946799D01*
X6314983Y44068488D01*
X6310927Y44078280D01*
X6310926Y44078281D01*
X6310926Y44078282D01*
X6224289Y44191189D01*
X6111382Y44277826D01*
X6111381Y44277827D01*
X6111379Y44277828D01*
X5979899Y44332288D01*
X5838800Y44350865D01*
X5697700Y44332288D01*
X5566220Y44277828D01*
X5453311Y44191189D01*
X5366672Y44078280D01*
X5312212Y43946800D01*
X5293635Y43805700D01*
X0Y43805700D01*
X0Y45059801D01*
X2372635Y45059801D01*
X2391212Y44918701D01*
X2445672Y44787221D01*
X2445673Y44787219D01*
X2445674Y44787218D01*
X2532311Y44674311D01*
X2645218Y44587674D01*
X2776701Y44533212D01*
X2917800Y44514636D01*
X3058899Y44533212D01*
X3190382Y44587674D01*
X3303289Y44674311D01*
X3389926Y44787218D01*
X3444388Y44918701D01*
X3462964Y45059800D01*
X3444388Y45200899D01*
X3389926Y45332382D01*
X3303289Y45445289D01*
X3190382Y45531926D01*
X3190381Y45531927D01*
X3190379Y45531928D01*
X3058899Y45586388D01*
X2917800Y45604965D01*
X2776700Y45586388D01*
X2645220Y45531928D01*
X2532311Y45445289D01*
X2445672Y45332380D01*
X2391212Y45200900D01*
X2372635Y45059801D01*
X0Y45059801D01*
X0Y48209200D01*
X5754035Y48209200D01*
X5772612Y48068101D01*
X5827072Y47936621D01*
X5827073Y47936619D01*
X5827074Y47936618D01*
X5913711Y47823711D01*
X6026618Y47737074D01*
X6158101Y47682612D01*
X6280622Y47666482D01*
X6299199Y47664036D01*
X6299199Y47664037D01*
X6299200Y47664036D01*
X6440299Y47682612D01*
X6571782Y47737074D01*
X6684689Y47823711D01*
X6771326Y47936618D01*
X6796071Y47996358D01*
X14627300Y47996358D01*
X14667430Y47833547D01*
X14704457Y47762997D01*
X14745356Y47685070D01*
X14856549Y47559559D01*
X14994551Y47464302D01*
X15010507Y47458251D01*
X15151339Y47404841D01*
X15276037Y47389700D01*
X15279787Y47389700D01*
X16455813Y47389700D01*
X16459563Y47389700D01*
X16584261Y47404841D01*
X16741048Y47464302D01*
X16879049Y47559558D01*
X16900892Y47584213D01*
X16971609Y47664036D01*
X16990244Y47685071D01*
X17068170Y47833547D01*
X17108300Y47996358D01*
X17108300Y48080201D01*
X19782297Y48080201D01*
X19802242Y47903187D01*
X19861077Y47735045D01*
X19955852Y47584211D01*
X20081810Y47458253D01*
X20081812Y47458252D01*
X20081813Y47458251D01*
X20232645Y47363477D01*
X20400784Y47304643D01*
X20533406Y47289700D01*
X20536890Y47289700D01*
X21918710Y47289700D01*
X21922194Y47289700D01*
X22054816Y47304643D01*
X22222955Y47363477D01*
X22373787Y47458251D01*
X22499749Y47584213D01*
X22594523Y47735045D01*
X22653357Y47903184D01*
X22673302Y48080200D01*
X22653357Y48257216D01*
X22594523Y48425355D01*
X22499749Y48576187D01*
X22499748Y48576188D01*
X22499747Y48576190D01*
X22373789Y48702148D01*
X22222955Y48796923D01*
X22054813Y48855758D01*
X21925660Y48870310D01*
X21925650Y48870311D01*
X21922194Y48870700D01*
X20533406Y48870700D01*
X20529950Y48870311D01*
X20529939Y48870310D01*
X20400786Y48855758D01*
X20232644Y48796923D01*
X20081810Y48702148D01*
X19955852Y48576190D01*
X19861077Y48425356D01*
X19802242Y48257214D01*
X19782297Y48080201D01*
X17108300Y48080201D01*
X17108300Y48164042D01*
X17068170Y48326853D01*
X16990244Y48475329D01*
X16990243Y48475331D01*
X16879050Y48600842D01*
X16741048Y48696099D01*
X16584261Y48755559D01*
X16463282Y48770249D01*
X16463272Y48770250D01*
X16459563Y48770700D01*
X15276037Y48770700D01*
X15272328Y48770250D01*
X15272317Y48770249D01*
X15151338Y48755559D01*
X14994551Y48696099D01*
X14856549Y48600842D01*
X14745356Y48475331D01*
X14679736Y48350300D01*
X14667430Y48326853D01*
X14627300Y48164042D01*
X14627300Y47996358D01*
X6796071Y47996358D01*
X6825788Y48068101D01*
X6844364Y48209200D01*
X6825788Y48350299D01*
X6783664Y48451995D01*
X6771327Y48481780D01*
X6771326Y48481781D01*
X6771326Y48481782D01*
X6684689Y48594689D01*
X6571782Y48681326D01*
X6571781Y48681327D01*
X6571779Y48681328D01*
X6440299Y48735788D01*
X6299199Y48754365D01*
X6158100Y48735788D01*
X6026620Y48681328D01*
X5913711Y48594689D01*
X5827072Y48481780D01*
X5772612Y48350300D01*
X5754035Y48209200D01*
X0Y48209200D01*
X0Y49352400D01*
X1336092Y49352400D01*
X1355670Y49166130D01*
X1355671Y49166127D01*
X1413546Y48988002D01*
X1413547Y48988001D01*
X1507195Y48825798D01*
X1556806Y48770700D01*
X1632519Y48686612D01*
X1784046Y48576521D01*
X1955151Y48500340D01*
X2138350Y48461400D01*
X2138352Y48461400D01*
X2325650Y48461400D01*
X2508848Y48500340D01*
X2508849Y48500341D01*
X2508851Y48500341D01*
X2679954Y48576521D01*
X2831479Y48686611D01*
X2956805Y48825798D01*
X3050453Y48988001D01*
X3108330Y49166130D01*
X3127908Y49352400D01*
X3108330Y49538670D01*
X3050453Y49716799D01*
X3040984Y49733200D01*
X13115098Y49733200D01*
X13135704Y49629609D01*
X13135704Y49629608D01*
X13135705Y49629607D01*
X13194385Y49541785D01*
X13282207Y49483105D01*
X13334003Y49472803D01*
X13385799Y49462499D01*
X13385799Y49462500D01*
X13385800Y49462499D01*
X13489393Y49483105D01*
X13577215Y49541785D01*
X13635895Y49629607D01*
X13656501Y49733200D01*
X13639015Y49821107D01*
X13645242Y49890697D01*
X13688105Y49945874D01*
X13742717Y49965141D01*
X13742609Y49965687D01*
X13746407Y49966443D01*
X13753994Y49969119D01*
X13758311Y49968811D01*
X13766798Y49970500D01*
X13766800Y49970499D01*
X13805984Y49978294D01*
X13881518Y49993317D01*
X13905709Y49995700D01*
X14450949Y49995700D01*
X14457440Y49995530D01*
X14498958Y49993354D01*
X14498958Y49993355D01*
X14498959Y49993354D01*
X14519900Y50001394D01*
X14538555Y50006920D01*
X14560503Y50011584D01*
X14562243Y50012849D01*
X14563036Y50013424D01*
X14591491Y50028874D01*
X14594409Y50029994D01*
X14610272Y50045859D01*
X14625056Y50058487D01*
X14643216Y50071679D01*
X14644783Y50074395D01*
X14664486Y50100073D01*
X16322491Y51758078D01*
X16327163Y51762512D01*
X16358087Y51790354D01*
X16367211Y51810850D01*
X16376493Y51827946D01*
X16388714Y51846762D01*
X16389204Y51849858D01*
X16398398Y51880897D01*
X16399672Y51883755D01*
X16399672Y51906190D01*
X16401199Y51925590D01*
X16404708Y51947744D01*
X16403897Y51950771D01*
X16399672Y51982864D01*
X16399672Y51990634D01*
X16407643Y52017782D01*
X16404455Y52018416D01*
X16429873Y52146200D01*
X16409267Y52249792D01*
X16409267Y52249793D01*
X16350587Y52337615D01*
X16262765Y52396295D01*
X16262763Y52396296D01*
X16242259Y52409996D01*
X16243989Y52412587D01*
X16220791Y52424727D01*
X16219229Y52426262D01*
X15991291Y52654200D01*
X17179098Y52654200D01*
X17199704Y52550609D01*
X17199704Y52550608D01*
X17199705Y52550607D01*
X17258385Y52462785D01*
X17346207Y52404105D01*
X17449800Y52383499D01*
X17553393Y52404105D01*
X17641215Y52462785D01*
X17699895Y52550607D01*
X17720501Y52654200D01*
X17699895Y52757793D01*
X17641215Y52845615D01*
X17553393Y52904295D01*
X17553392Y52904296D01*
X17553391Y52904296D01*
X17449800Y52924902D01*
X17346208Y52904296D01*
X17258385Y52845615D01*
X17199704Y52757792D01*
X17179098Y52654200D01*
X15991291Y52654200D01*
X15573985Y53071505D01*
X15569515Y53076215D01*
X15541693Y53107116D01*
X15521193Y53116243D01*
X15504097Y53125526D01*
X15485284Y53137743D01*
X15482188Y53138233D01*
X15451153Y53147426D01*
X15448292Y53148700D01*
X15425858Y53148700D01*
X15406459Y53150227D01*
X15384304Y53153737D01*
X15381277Y53152925D01*
X15349183Y53148700D01*
X14938367Y53148700D01*
X14911218Y53156672D01*
X14910584Y53153483D01*
X14782800Y53178902D01*
X14679208Y53158296D01*
X14591385Y53099615D01*
X14532704Y53011792D01*
X14512098Y52908200D01*
X14532704Y52804609D01*
X14532704Y52804608D01*
X14532705Y52804607D01*
X14591385Y52716785D01*
X14679207Y52658105D01*
X14782800Y52637499D01*
X14886393Y52658105D01*
X14886393Y52658106D01*
X14910584Y52662917D01*
X14911191Y52659864D01*
X14936156Y52667680D01*
X14938367Y52667700D01*
X15246192Y52667700D01*
X15313231Y52648015D01*
X15333873Y52631381D01*
X15837034Y52128219D01*
X15870519Y52066896D01*
X15865535Y51997204D01*
X15837034Y51952857D01*
X14905783Y51021606D01*
X14844460Y50988121D01*
X14774768Y50993105D01*
X14718835Y51034977D01*
X14703541Y51061834D01*
X14680889Y51116521D01*
X14667526Y51148782D01*
X14580889Y51261689D01*
X14467982Y51348326D01*
X14467981Y51348327D01*
X14467979Y51348328D01*
X14336499Y51402788D01*
X14195399Y51421365D01*
X14054300Y51402788D01*
X13922820Y51348328D01*
X13809911Y51261689D01*
X13723272Y51148780D01*
X13668812Y51017300D01*
X13650235Y50876200D01*
X13668811Y50735104D01*
X13668811Y50735102D01*
X13668812Y50735101D01*
X13695153Y50671508D01*
X13707750Y50641096D01*
X13715218Y50571626D01*
X13683942Y50509147D01*
X13662079Y50490542D01*
X13575385Y50432616D01*
X13516704Y50344792D01*
X13496098Y50241200D01*
X13513584Y50153295D01*
X13507357Y50083703D01*
X13464494Y50028526D01*
X13409882Y50009261D01*
X13409991Y50008713D01*
X13406182Y50007956D01*
X13398604Y50005282D01*
X13394291Y50005591D01*
X13282208Y49983296D01*
X13194385Y49924615D01*
X13135704Y49836792D01*
X13115098Y49733200D01*
X3040984Y49733200D01*
X2956805Y49879002D01*
X2875940Y49968811D01*
X2831480Y50018189D01*
X2679953Y50128280D01*
X2508848Y50204461D01*
X2325650Y50243400D01*
X2325648Y50243400D01*
X2138352Y50243400D01*
X2138350Y50243400D01*
X1955151Y50204461D01*
X1784046Y50128280D01*
X1632519Y50018189D01*
X1507195Y49879002D01*
X1413546Y49716799D01*
X1356682Y49541786D01*
X1355670Y49538670D01*
X1336092Y49352400D01*
X0Y49352400D01*
X0Y51892400D01*
X1336092Y51892400D01*
X1355670Y51706130D01*
X1355671Y51706127D01*
X1413546Y51528002D01*
X1413547Y51528001D01*
X1507195Y51365798D01*
X1563616Y51303137D01*
X1632519Y51226612D01*
X1784046Y51116521D01*
X1955151Y51040340D01*
X2138350Y51001400D01*
X2138352Y51001400D01*
X2325650Y51001400D01*
X2508848Y51040340D01*
X2508849Y51040341D01*
X2508851Y51040341D01*
X2653628Y51104800D01*
X10983235Y51104800D01*
X11001812Y50963701D01*
X11056272Y50832221D01*
X11056273Y50832219D01*
X11056274Y50832218D01*
X11142911Y50719311D01*
X11255818Y50632674D01*
X11387301Y50578212D01*
X11509823Y50562082D01*
X11528399Y50559636D01*
X11528399Y50559637D01*
X11528400Y50559636D01*
X11669499Y50578212D01*
X11800982Y50632674D01*
X11913889Y50719311D01*
X12000526Y50832218D01*
X12054988Y50963701D01*
X12073564Y51104800D01*
X12054988Y51245899D01*
X12000526Y51377382D01*
X11913889Y51490289D01*
X11800982Y51576926D01*
X11800981Y51576927D01*
X11800979Y51576928D01*
X11669499Y51631388D01*
X11528400Y51649965D01*
X11387300Y51631388D01*
X11255820Y51576928D01*
X11142911Y51490289D01*
X11056272Y51377380D01*
X11001812Y51245900D01*
X10983235Y51104800D01*
X2653628Y51104800D01*
X2679954Y51116521D01*
X2831479Y51226611D01*
X2956805Y51365798D01*
X3050453Y51528001D01*
X3108330Y51706130D01*
X3127887Y51892200D01*
X14512098Y51892200D01*
X14532704Y51788609D01*
X14532704Y51788608D01*
X14532705Y51788607D01*
X14591385Y51700785D01*
X14679207Y51642105D01*
X14782800Y51621499D01*
X14886393Y51642105D01*
X14974215Y51700785D01*
X15032895Y51788607D01*
X15053501Y51892200D01*
X15032895Y51995793D01*
X14974215Y52083615D01*
X14886393Y52142295D01*
X14886392Y52142296D01*
X14886391Y52142296D01*
X14782800Y52162902D01*
X14679208Y52142296D01*
X14591385Y52083615D01*
X14532704Y51995792D01*
X14512098Y51892200D01*
X3127887Y51892200D01*
X3127908Y51892400D01*
X3108330Y52078670D01*
X3050453Y52256799D01*
X2956805Y52419002D01*
X2894141Y52488596D01*
X2831480Y52558189D01*
X2679953Y52668280D01*
X2508848Y52744461D01*
X2325650Y52783400D01*
X2325648Y52783400D01*
X2138352Y52783400D01*
X2138350Y52783400D01*
X1955151Y52744461D01*
X1784046Y52668280D01*
X1632519Y52558189D01*
X1507195Y52419002D01*
X1413546Y52256799D01*
X1355671Y52078674D01*
X1355670Y52078670D01*
X1336092Y51892400D01*
X0Y51892400D01*
X0Y54432400D01*
X976722Y54432400D01*
X995792Y54214426D01*
X1052425Y54003069D01*
X1144898Y53804760D01*
X1188514Y53742470D01*
X1188516Y53742469D01*
X1762941Y54316895D01*
X1788497Y54229859D01*
X1863524Y54113114D01*
X1968404Y54022236D01*
X2094638Y53964587D01*
X2114835Y53961683D01*
X1542067Y53388917D01*
X1604360Y53345299D01*
X1802668Y53252826D01*
X2014025Y53196193D01*
X2232000Y53177123D01*
X2449974Y53196193D01*
X2661331Y53252826D01*
X2859636Y53345298D01*
X2921930Y53388917D01*
X2349164Y53961684D01*
X2369362Y53964587D01*
X2495596Y54022236D01*
X2600476Y54113114D01*
X2675503Y54229859D01*
X2701058Y54316895D01*
X3275483Y53742470D01*
X3319102Y53804764D01*
X3374797Y53924201D01*
X13650235Y53924201D01*
X13668812Y53783101D01*
X13723272Y53651621D01*
X13723273Y53651619D01*
X13723274Y53651618D01*
X13809911Y53538711D01*
X13922818Y53452074D01*
X14054301Y53397612D01*
X14176823Y53381482D01*
X14195399Y53379036D01*
X14195399Y53379037D01*
X14195400Y53379036D01*
X14336499Y53397612D01*
X14467982Y53452074D01*
X14580889Y53538711D01*
X14667526Y53651618D01*
X14721988Y53783101D01*
X14740564Y53924200D01*
X14721988Y54065299D01*
X14667526Y54196782D01*
X14580889Y54309689D01*
X14467982Y54396326D01*
X14467981Y54396327D01*
X14467979Y54396328D01*
X14336499Y54450788D01*
X14195400Y54469365D01*
X14054300Y54450788D01*
X13922820Y54396328D01*
X13809911Y54309689D01*
X13723272Y54196780D01*
X13668812Y54065300D01*
X13650235Y53924201D01*
X3374797Y53924201D01*
X3411574Y54003069D01*
X3468207Y54214426D01*
X3487277Y54432400D01*
X3468207Y54650375D01*
X3411574Y54861732D01*
X3319101Y55060037D01*
X3275483Y55122333D01*
X2701058Y54547907D01*
X2675503Y54634941D01*
X2600476Y54751686D01*
X2495596Y54842564D01*
X2369362Y54900213D01*
X2349164Y54903117D01*
X2921931Y55475884D01*
X2921930Y55475886D01*
X2859640Y55519502D01*
X2661331Y55611975D01*
X2449974Y55668608D01*
X2232000Y55687678D01*
X2014025Y55668608D01*
X1802668Y55611975D01*
X1604362Y55519503D01*
X1542068Y55475885D01*
X2114835Y54903118D01*
X2094638Y54900213D01*
X1968404Y54842564D01*
X1863524Y54751686D01*
X1788497Y54634941D01*
X1762941Y54547906D01*
X1188515Y55122332D01*
X1144897Y55060038D01*
X1052425Y54861732D01*
X995792Y54650375D01*
X976722Y54432400D01*
X0Y54432400D01*
X0Y56591400D01*
X2474235Y56591400D01*
X2492812Y56450301D01*
X2547272Y56318821D01*
X2547273Y56318819D01*
X2547274Y56318818D01*
X2633911Y56205911D01*
X2746818Y56119274D01*
X2878301Y56064812D01*
X3000822Y56048682D01*
X3019399Y56046236D01*
X3019399Y56046237D01*
X3019400Y56046236D01*
X3160499Y56064812D01*
X3291982Y56119274D01*
X3404889Y56205911D01*
X3491526Y56318818D01*
X3545988Y56450301D01*
X3564564Y56591400D01*
X3551214Y56692801D01*
X9967235Y56692801D01*
X9985812Y56551701D01*
X10040272Y56420221D01*
X10040273Y56420219D01*
X10040274Y56420218D01*
X10126911Y56307311D01*
X10239818Y56220674D01*
X10371301Y56166212D01*
X10493823Y56150082D01*
X10512399Y56147636D01*
X10512399Y56147637D01*
X10512400Y56147636D01*
X10653499Y56166212D01*
X10784982Y56220674D01*
X10897889Y56307311D01*
X10984526Y56420218D01*
X11038988Y56551701D01*
X11050133Y56636358D01*
X14627300Y56636358D01*
X14667430Y56473547D01*
X14695418Y56420221D01*
X14745356Y56325070D01*
X14856549Y56199559D01*
X14994551Y56104302D01*
X15010507Y56098251D01*
X15151339Y56044841D01*
X15276037Y56029700D01*
X15279787Y56029700D01*
X16455813Y56029700D01*
X16459563Y56029700D01*
X16584261Y56044841D01*
X16741048Y56104302D01*
X16879049Y56199558D01*
X16900892Y56224213D01*
X16990243Y56325070D01*
X16990244Y56325071D01*
X17068170Y56473547D01*
X17108300Y56636358D01*
X17108300Y56720201D01*
X19782297Y56720201D01*
X19802242Y56543187D01*
X19861077Y56375045D01*
X19955852Y56224211D01*
X20081810Y56098253D01*
X20081812Y56098252D01*
X20081813Y56098251D01*
X20232645Y56003477D01*
X20400784Y55944643D01*
X20533406Y55929700D01*
X20536890Y55929700D01*
X21918710Y55929700D01*
X21922194Y55929700D01*
X22054816Y55944643D01*
X22222955Y56003477D01*
X22373787Y56098251D01*
X22499749Y56224213D01*
X22594523Y56375045D01*
X22653357Y56543184D01*
X22673302Y56720200D01*
X22653357Y56897216D01*
X22594523Y57065355D01*
X22499749Y57216187D01*
X22499748Y57216188D01*
X22499747Y57216190D01*
X22373789Y57342148D01*
X22222955Y57436923D01*
X22054813Y57495758D01*
X21925660Y57510310D01*
X21925650Y57510311D01*
X21922194Y57510700D01*
X20533406Y57510700D01*
X20529950Y57510311D01*
X20529939Y57510310D01*
X20400786Y57495758D01*
X20232644Y57436923D01*
X20081810Y57342148D01*
X19955852Y57216190D01*
X19861077Y57065356D01*
X19802242Y56897214D01*
X19782297Y56720201D01*
X17108300Y56720201D01*
X17108300Y56804042D01*
X17068170Y56966853D01*
X16990244Y57115329D01*
X16990243Y57115331D01*
X16879050Y57240842D01*
X16741048Y57336099D01*
X16584261Y57395559D01*
X16463282Y57410249D01*
X16463272Y57410250D01*
X16459563Y57410700D01*
X15276037Y57410700D01*
X15272328Y57410250D01*
X15272317Y57410249D01*
X15151338Y57395559D01*
X14994551Y57336099D01*
X14856549Y57240842D01*
X14745356Y57115331D01*
X14672697Y56976889D01*
X14667430Y56966853D01*
X14627300Y56804042D01*
X14627300Y56636358D01*
X11050133Y56636358D01*
X11057564Y56692800D01*
X11038988Y56833899D01*
X10984526Y56965382D01*
X10897889Y57078289D01*
X10784982Y57164926D01*
X10784981Y57164927D01*
X10784979Y57164928D01*
X10653499Y57219388D01*
X10512399Y57237965D01*
X10371300Y57219388D01*
X10239820Y57164928D01*
X10126911Y57078289D01*
X10040272Y56965380D01*
X9985812Y56833900D01*
X9967235Y56692801D01*
X3551214Y56692801D01*
X3545988Y56732499D01*
X3491526Y56863982D01*
X3404889Y56976889D01*
X3291982Y57063526D01*
X3291981Y57063527D01*
X3291979Y57063528D01*
X3160499Y57117988D01*
X3019399Y57136565D01*
X2878300Y57117988D01*
X2746820Y57063528D01*
X2633911Y56976889D01*
X2547272Y56863980D01*
X2492812Y56732500D01*
X2474235Y56591400D01*
X0Y56591400D01*
X0Y63398601D01*
X7427235Y63398601D01*
X7445812Y63257501D01*
X7500272Y63126021D01*
X7500273Y63126019D01*
X7500274Y63126018D01*
X7586911Y63013111D01*
X7699818Y62926474D01*
X7699819Y62926474D01*
X7699820Y62926473D01*
X7729605Y62914136D01*
X7831301Y62872012D01*
X7972400Y62853436D01*
X8113499Y62872012D01*
X8244982Y62926474D01*
X8357889Y63013111D01*
X8444526Y63126018D01*
X8498988Y63257501D01*
X8517564Y63398600D01*
X8510902Y63449200D01*
X10910235Y63449200D01*
X10928812Y63308101D01*
X10983272Y63176621D01*
X10983273Y63176619D01*
X10983274Y63176618D01*
X11069911Y63063711D01*
X11182818Y62977074D01*
X11314301Y62922612D01*
X11455400Y62904036D01*
X11596499Y62922612D01*
X11727982Y62977074D01*
X11840889Y63063711D01*
X11927526Y63176618D01*
X11981988Y63308101D01*
X12000564Y63449200D01*
X11981988Y63590299D01*
X11927526Y63721782D01*
X11840889Y63834689D01*
X11727982Y63921326D01*
X11727981Y63921327D01*
X11727979Y63921328D01*
X11596499Y63975788D01*
X11455400Y63994365D01*
X11314300Y63975788D01*
X11182820Y63921328D01*
X11069911Y63834689D01*
X10983272Y63721780D01*
X10928812Y63590300D01*
X10910235Y63449200D01*
X8510902Y63449200D01*
X8498988Y63539699D01*
X8444526Y63671182D01*
X8357889Y63784089D01*
X8244982Y63870726D01*
X8244981Y63870727D01*
X8244979Y63870728D01*
X8113499Y63925188D01*
X7972399Y63943765D01*
X7831300Y63925188D01*
X7699820Y63870728D01*
X7586911Y63784089D01*
X7500272Y63671180D01*
X7445812Y63539700D01*
X7427235Y63398601D01*
X0Y63398601D01*
X0Y64967958D01*
X12849300Y64967958D01*
X12857450Y64926980D01*
X12888504Y64880505D01*
X12934977Y64849452D01*
X12934979Y64849451D01*
X12975959Y64841300D01*
X14703640Y64841301D01*
X14703642Y64841301D01*
X14730960Y64846735D01*
X14744621Y64849451D01*
X14791095Y64880505D01*
X14822149Y64926979D01*
X14830300Y64967959D01*
X14830299Y66695640D01*
X14830298Y66695641D01*
X14830299Y66695643D01*
X14822149Y66736621D01*
X14791095Y66783096D01*
X14744622Y66814149D01*
X14724130Y66818225D01*
X14703641Y66822300D01*
X14703640Y66822300D01*
X12975957Y66822300D01*
X12934979Y66814150D01*
X12888504Y66783096D01*
X12857451Y66736623D01*
X12849300Y66695641D01*
X12849300Y64967958D01*
X0Y64967958D01*
X0Y68371800D01*
X12844507Y68371800D01*
X12863631Y68177627D01*
X12920268Y67990919D01*
X12920269Y67990918D01*
X13012244Y67818845D01*
X13136022Y67668022D01*
X13286845Y67544244D01*
X13458918Y67452269D01*
X13645628Y67395631D01*
X13839800Y67376507D01*
X14033972Y67395631D01*
X14209906Y67449000D01*
X16590650Y67449000D01*
X16590860Y67445395D01*
X16609424Y67126654D01*
X16609425Y67126646D01*
X16609635Y67123040D01*
X16610261Y67119486D01*
X16610263Y67119475D01*
X16665705Y66805046D01*
X16665707Y66805036D01*
X16666333Y66801488D01*
X16667365Y66798039D01*
X16667367Y66798033D01*
X16698022Y66695640D01*
X16759978Y66488693D01*
X16761403Y66485390D01*
X16887874Y66192195D01*
X16887879Y66192185D01*
X16889303Y66188884D01*
X16891105Y66185762D01*
X16891107Y66185759D01*
X17050750Y65909248D01*
X17050756Y65909239D01*
X17052559Y65906116D01*
X17054715Y65903220D01*
X17054717Y65903217D01*
X17245386Y65647104D01*
X17245392Y65647097D01*
X17247539Y65644213D01*
X17471605Y65406717D01*
X17721728Y65196839D01*
X17994525Y65017417D01*
X18286307Y64870879D01*
X18593128Y64759205D01*
X18805611Y64708846D01*
X18907332Y64684737D01*
X18907334Y64684737D01*
X18910839Y64683906D01*
X19235144Y64646000D01*
X19238742Y64646000D01*
X19558058Y64646000D01*
X19561656Y64646000D01*
X19885961Y64683906D01*
X20203672Y64759205D01*
X20510493Y64870879D01*
X20802275Y65017417D01*
X21075072Y65196839D01*
X21325195Y65406717D01*
X21549261Y65644213D01*
X21744241Y65906116D01*
X21907497Y66188884D01*
X22036822Y66488693D01*
X22130467Y66801488D01*
X22187165Y67123040D01*
X22206150Y67449000D01*
X22187165Y67774960D01*
X22130467Y68096512D01*
X22036822Y68409307D01*
X21907497Y68709116D01*
X21843143Y68820581D01*
X21746049Y68988753D01*
X21746046Y68988757D01*
X21744241Y68991884D01*
X21681933Y69075578D01*
X21551413Y69250897D01*
X21551408Y69250902D01*
X21549261Y69253787D01*
X21325195Y69491283D01*
X21322437Y69493597D01*
X21322432Y69493602D01*
X21077831Y69698846D01*
X21077830Y69698847D01*
X21075072Y69701161D01*
X20802275Y69880583D01*
X20747087Y69908300D01*
X20513708Y70025507D01*
X20513699Y70025511D01*
X20510493Y70027121D01*
X20507120Y70028349D01*
X20507110Y70028353D01*
X20207064Y70137561D01*
X20207054Y70137564D01*
X20203672Y70138795D01*
X20200165Y70139627D01*
X20200159Y70139628D01*
X19889467Y70213264D01*
X19889451Y70213267D01*
X19885961Y70214094D01*
X19882396Y70214511D01*
X19882383Y70214513D01*
X19565226Y70251583D01*
X19565221Y70251584D01*
X19561656Y70252000D01*
X19235144Y70252000D01*
X19231579Y70251584D01*
X19231573Y70251583D01*
X18914416Y70214513D01*
X18914400Y70214511D01*
X18910839Y70214094D01*
X18907351Y70213268D01*
X18907332Y70213264D01*
X18596640Y70139628D01*
X18596629Y70139625D01*
X18593128Y70138795D01*
X18589749Y70137566D01*
X18589735Y70137561D01*
X18289689Y70028353D01*
X18289673Y70028347D01*
X18286307Y70027121D01*
X18283106Y70025514D01*
X18283091Y70025507D01*
X17997744Y69882200D01*
X17997739Y69882198D01*
X17994525Y69880583D01*
X17991511Y69878602D01*
X17991508Y69878599D01*
X17724745Y69703146D01*
X17724737Y69703141D01*
X17721728Y69701161D01*
X17718977Y69698854D01*
X17718968Y69698846D01*
X17474367Y69493602D01*
X17474353Y69493590D01*
X17471605Y69491283D01*
X17469130Y69488661D01*
X17469125Y69488655D01*
X17250013Y69256410D01*
X17250007Y69256404D01*
X17247539Y69253787D01*
X17245399Y69250913D01*
X17245386Y69250897D01*
X17054717Y68994784D01*
X17054709Y68994773D01*
X17052559Y68991884D01*
X17050760Y68988770D01*
X17050750Y68988753D01*
X16891107Y68712242D01*
X16891101Y68712232D01*
X16889303Y68709116D01*
X16887882Y68705823D01*
X16887874Y68705806D01*
X16761403Y68412611D01*
X16759978Y68409307D01*
X16758949Y68405872D01*
X16758946Y68405862D01*
X16667367Y68099968D01*
X16667364Y68099958D01*
X16666333Y68096512D01*
X16665708Y68092969D01*
X16665705Y68092955D01*
X16610263Y67778526D01*
X16610261Y67778513D01*
X16609635Y67774960D01*
X16609425Y67771357D01*
X16609424Y67771347D01*
X16596197Y67544244D01*
X16590650Y67449000D01*
X14209906Y67449000D01*
X14220682Y67452269D01*
X14392755Y67544244D01*
X14543578Y67668022D01*
X14667356Y67818845D01*
X14759331Y67990918D01*
X14815969Y68177628D01*
X14835093Y68371800D01*
X14815969Y68565972D01*
X14759331Y68752682D01*
X14667356Y68924755D01*
X14543578Y69075578D01*
X14392755Y69199356D01*
X14286015Y69256410D01*
X14220681Y69291332D01*
X14033973Y69347969D01*
X13839800Y69367093D01*
X13645626Y69347969D01*
X13458918Y69291332D01*
X13286846Y69199357D01*
X13136022Y69075578D01*
X13012243Y68924754D01*
X12920268Y68752682D01*
X12863631Y68565974D01*
X12844507Y68371800D01*
X0Y68371800D01*
X0Y71907400D01*
X15834635Y71907400D01*
X15853212Y71766301D01*
X15907672Y71634821D01*
X15907673Y71634819D01*
X15907674Y71634818D01*
X15994311Y71521911D01*
X16107218Y71435274D01*
X16238701Y71380812D01*
X16379800Y71362236D01*
X16520899Y71380812D01*
X16652382Y71435274D01*
X16765289Y71521911D01*
X16851926Y71634818D01*
X16906388Y71766301D01*
X16924964Y71907400D01*
X16906388Y72048499D01*
X16851926Y72179982D01*
X16765289Y72292889D01*
X16652382Y72379526D01*
X16652381Y72379527D01*
X16652379Y72379528D01*
X16520899Y72433988D01*
X16379800Y72452565D01*
X16238700Y72433988D01*
X16107220Y72379528D01*
X15994311Y72292889D01*
X15907672Y72179980D01*
X15853212Y72048500D01*
X15834635Y71907400D01*
X0Y71907400D01*
X0Y75649001D01*
X1720461Y75649001D01*
X1740187Y75373203D01*
X1798960Y75103025D01*
X1818246Y75051317D01*
X1880605Y74884126D01*
X1895591Y74843949D01*
X2028103Y74601271D01*
X2193804Y74379920D01*
X2389319Y74184405D01*
X2610670Y74018704D01*
X2610672Y74018703D01*
X2853351Y73886190D01*
X3112420Y73789562D01*
X3112423Y73789562D01*
X3112424Y73789561D01*
X3150878Y73781196D01*
X3382603Y73730787D01*
X3658400Y73711062D01*
X3934197Y73730787D01*
X4204380Y73789562D01*
X4463449Y73886190D01*
X4706128Y74018703D01*
X4927480Y74184404D01*
X5122996Y74379920D01*
X5288697Y74601272D01*
X5421210Y74843951D01*
X5517838Y75103020D01*
X5576613Y75373203D01*
X5596338Y75649000D01*
X5596338Y75649001D01*
X10393057Y75649001D01*
X10412388Y75440379D01*
X10469722Y75238869D01*
X10563112Y75051317D01*
X10689369Y74884126D01*
X10844200Y74742979D01*
X10844202Y74742978D01*
X10844203Y74742977D01*
X11022334Y74632683D01*
X11217699Y74556998D01*
X11423644Y74518500D01*
X11423646Y74518500D01*
X11633154Y74518500D01*
X11633156Y74518500D01*
X11839101Y74556998D01*
X12034466Y74632683D01*
X12212597Y74742977D01*
X12367429Y74884124D01*
X12430558Y74967722D01*
X12493687Y75051317D01*
X12587077Y75238869D01*
X12644411Y75440379D01*
X12644412Y75440381D01*
X12663743Y75649000D01*
X12644412Y75857619D01*
X12625298Y75924798D01*
X12587077Y76059132D01*
X12493687Y76246684D01*
X12367430Y76413875D01*
X12212599Y76555022D01*
X12034466Y76665317D01*
X11953385Y76696728D01*
X11839101Y76741002D01*
X11633156Y76779500D01*
X11423644Y76779500D01*
X11217698Y76741003D01*
X11217699Y76741002D01*
X11022333Y76665317D01*
X10844200Y76555022D01*
X10689369Y76413875D01*
X10563112Y76246684D01*
X10469722Y76059132D01*
X10412388Y75857622D01*
X10393057Y75649001D01*
X5596338Y75649001D01*
X5576613Y75924797D01*
X5517838Y76194980D01*
X5421210Y76454049D01*
X5288697Y76696728D01*
X5122996Y76918080D01*
X4927480Y77113596D01*
X4706129Y77279297D01*
X4463451Y77411809D01*
X4463450Y77411810D01*
X4463449Y77411810D01*
X4204380Y77508438D01*
X4204375Y77508440D01*
X3934197Y77567213D01*
X3658400Y77586939D01*
X3382602Y77567213D01*
X3112424Y77508440D01*
X2853348Y77411809D01*
X2610670Y77279297D01*
X2389319Y77113596D01*
X2193804Y76918081D01*
X2028103Y76696730D01*
X1895591Y76454052D01*
X1798960Y76194976D01*
X1740187Y75924798D01*
X1720461Y75649001D01*
X0Y75649001D01*
X0Y78918100D01*
X19685Y78985139D01*
X72489Y79030894D01*
X124000Y79042100D01*
X22920300Y79042100D01*
X22987339Y79022415D01*
G37*
%TD.AperFunction*%
%TD*%
M02*
