M48
; DRILL file {KiCad 7.0.7} date 2024 March 28, Thursday 15:45:54
; FORMAT={-:-/ absolute / metric / decimal}
; #@! TF.CreationDate,2024-03-28T15:45:54+01:00
; #@! TF.GenerationSoftware,Kicad,Pcbnew,7.0.7
; #@! TF.FileFunction,Plated,1,4,PTH
FMAT,2
METRIC
; #@! TA.AperFunction,Plated,PTH,ViaDrill
T1C0.150
; #@! TA.AperFunction,Plated,PTH,ViaDrill
T2C0.250
; #@! TA.AperFunction,Plated,PTH,ComponentDrill
T3C0.600
; #@! TA.AperFunction,Plated,PTH,ComponentDrill
T4C1.000
; #@! TA.AperFunction,Plated,PTH,ComponentDrill
T5C1.020
; #@! TA.AperFunction,Plated,PTH,ComponentDrill
T6C1.320
%
G90
G05
T1
X118.95Y-97.17
X118.95Y-98.22
X119.02Y-44.01
X119.08Y-49.75
X119.1Y-27.3
X119.1Y-84.37
X119.1Y-85.52
X119.11Y-30.23
X119.11Y-61.96
X119.14Y-39.34
X119.15Y-109.97
X119.15Y-110.97
X119.16Y-55.39
X119.23Y-34.89
X119.23Y-122.18
X119.28Y-127.44
X119.4Y-151.4
X119.49Y-136.69
X119.51Y-138.59
X119.51Y-142.25
X119.6Y-142.8
X120.8Y-144.6
X120.8Y-146.1
X121.997Y-140.753
X122.0Y-147.7
X122.13Y-142.37
X122.13Y-142.87
X122.13Y-143.37
X122.4Y-151.4
X122.6Y-71.2
X122.6Y-72.2
X122.635Y-139.2
X122.7Y-97.9
X122.7Y-99.2
X122.8Y-109.4
X122.8Y-110.3
X122.8Y-111.3
X122.81Y-128.6
X122.9Y-83.9
X122.9Y-84.9
X122.9Y-85.9
X122.9Y-103.3
X123.0Y-37.3
X123.0Y-39.3
X123.1Y-121.8
X123.1Y-133.8
X123.3Y-58.4
X123.7Y-61.016
X123.8Y-27.4
X123.8Y-58.4
X123.88Y-138.37
X123.9Y-123.9
X123.9Y-125.7
X124.2Y-61.0
X124.22Y-141.11
X124.24Y-141.88
X124.36Y-113.03
X124.4Y-123.3
X124.4Y-123.9
X124.47Y-107.51
X124.75Y-144.48
X124.8Y-125.7
X124.9Y-123.9
X125.2Y-132.6
X125.4Y-104.2
X125.4Y-120.9
X125.48Y-141.05
X125.49Y-140.29
X125.5Y-111.7
X125.5Y-141.87
X125.6Y-127.7
X125.6Y-134.3
X125.65Y-149.28
X125.7Y-129.7
X125.93Y-146.49
X126.0Y-44.2
X126.0Y-145.6
X126.19Y-149.305
X126.2Y-49.7
X126.593Y-125.193
X126.69Y-32.1
X126.7Y-36.7
X126.7Y-37.4
X126.7Y-128.6
X126.7Y-136.97
X126.8Y-45.2
X126.8Y-151.4
X127.0Y-34.9
X127.1Y-139.1
X127.2Y-32.1
X127.2Y-45.5
X127.2Y-50.9
X127.5Y-130.7
X127.7Y-123.5
X127.7Y-127.24
X127.7Y-145.6
X128.12Y-42.9
X128.13Y-44.27
X128.16Y-43.61
X128.37Y-147.37
X128.55Y-138.27
X128.6Y-70.4
X128.7Y-124.5
X128.72Y-50.9
X129.2Y-130.7
X129.25Y-33.37
X129.27Y-43.58
X129.28Y-44.28
X129.32Y-42.87
X129.39Y-138.31
X129.4Y-35.7
X129.6Y-61.2
X129.8Y-34.2
X129.9Y-71.8
X129.99Y-27.74
X130.1Y-61.2
X130.2Y-34.2
X130.25Y-33.4
X130.4Y-151.4
X131.1Y-70.4
X131.4Y-49.6
X131.6Y-56.9
X131.63Y-132.12
X131.63Y-132.628
X131.63Y-133.136
X131.63Y-133.644
X131.63Y-134.152
X131.63Y-134.66
X131.63Y-135.168
X131.63Y-135.676
X131.63Y-136.184
X131.63Y-136.692
X131.63Y-138.724
X131.63Y-139.232
X131.63Y-139.74
X131.63Y-140.248
X131.63Y-140.756
X131.63Y-141.264
X131.63Y-141.772
X131.63Y-142.28
X131.63Y-142.788
X131.63Y-143.296
X131.63Y-143.804
X131.63Y-144.312
X131.63Y-144.82
X131.63Y-145.33
X131.63Y-145.836
X131.63Y-146.344
X131.63Y-146.852
X131.63Y-147.36
X131.63Y-147.868
X131.63Y-148.376
X131.63Y-148.884
X131.63Y-149.392
X131.63Y-149.9
X131.63Y-150.408
X131.63Y-150.916
X131.63Y-151.424
X131.63Y-151.932
X132.138Y-132.12
X132.3Y-127.1
X132.646Y-132.12
X132.77Y-32.1
X133.0Y-130.8
X133.02Y-34.88
X133.154Y-132.12
X133.32Y-32.1
X133.662Y-132.12
X134.1Y-36.1
X134.1Y-125.35
X134.17Y-132.12
X134.2Y-119.9
X134.5Y-57.8
X134.5Y-108.66
X134.6Y-56.0
X134.6Y-91.8
X134.6Y-99.1
X134.678Y-132.12
X134.7Y-107.5
X135.186Y-132.12
X135.694Y-132.12
X135.7Y-128.0
X135.9Y-54.36
X136.09Y-119.9
X136.1Y-108.5
X136.1Y-123.8
X136.165Y-117.0
X136.2Y-99.0
X136.202Y-132.12
X136.71Y-132.12
X137.2Y-83.5
X137.2Y-85.0
X137.2Y-86.4
X137.218Y-132.12
X137.3Y-72.4
X137.3Y-73.3
X137.3Y-96.4
X137.3Y-97.7
X137.3Y-99.3
X137.4Y-28.0
X137.4Y-31.6
X137.44Y-54.36
X137.726Y-132.12
X138.234Y-132.12
X138.7Y-31.6
X138.742Y-132.12
X138.8Y-28.0
X139.25Y-132.12
X139.32Y-53.32
X139.43Y-54.38
X139.758Y-132.12
X139.8Y-128.5
X140.266Y-132.12
X140.54Y-42.46
X140.56Y-37.33
X140.57Y-31.6
X140.59Y-27.43
X140.7Y-129.4
X140.75Y-97.17
X140.75Y-98.22
X140.774Y-132.12
X140.93Y-130.92
X140.97Y-119.44
X140.98Y-117.18
X141.282Y-132.12
T2
X122.0Y-40.5
X124.875Y-42.125
X128.7Y-39.81
X130.29Y-46.91
X130.75Y-41.5
X130.9Y-119.8
X131.875Y-43.625
X132.22Y-124.6
X133.01Y-42.432
X136.5Y-56.9
X138.3Y-44.67
X140.3Y-60.9
T4
X138.2Y-38.45
T5
X121.0Y-67.22
X121.0Y-69.76
X121.0Y-72.3
X121.0Y-74.84
X121.0Y-77.38
X121.0Y-79.92
X121.0Y-82.46
X121.0Y-85.0
X121.0Y-87.54
X121.0Y-90.08
X121.0Y-92.62
X121.0Y-95.16
X121.0Y-97.7
X121.0Y-100.24
X121.0Y-102.78
X121.0Y-105.32
X121.0Y-107.86
X121.0Y-110.4
X121.0Y-112.94
X121.0Y-115.48
X138.78Y-67.22
X138.78Y-69.76
X138.78Y-72.3
X138.78Y-74.84
X138.78Y-77.38
X138.78Y-79.92
X138.78Y-82.46
X138.78Y-85.0
X138.78Y-87.54
X138.78Y-90.08
X138.78Y-92.62
X138.78Y-95.16
X138.78Y-97.7
X138.78Y-100.24
X138.78Y-102.78
X138.78Y-105.32
X138.78Y-107.86
X138.78Y-110.4
X138.78Y-112.94
X138.78Y-115.48
T6
X129.88Y-55.62
X129.88Y-127.84
T3
X125.68Y-29.17G85X125.68Y-27.67
G05
X125.68Y-34.28G85X125.68Y-33.28
G05
X134.32Y-29.17G85X134.32Y-27.67
G05
X134.32Y-34.28G85X134.32Y-33.28
G05
T0
M30
