G04 #@! TF.GenerationSoftware,KiCad,Pcbnew,7.0.7*
G04 #@! TF.CreationDate,2024-03-28T15:42:58+01:00*
G04 #@! TF.ProjectId,Frackstock,46726163-6b73-4746-9f63-6b2e6b696361,2*
G04 #@! TF.SameCoordinates,Original*
G04 #@! TF.FileFunction,Copper,L2,Inr*
G04 #@! TF.FilePolarity,Positive*
%FSLAX46Y46*%
G04 Gerber Fmt 4.6, Leading zero omitted, Abs format (unit mm)*
G04 Created by KiCad (PCBNEW 7.0.7) date 2024-03-28 15:42:58*
%MOMM*%
%LPD*%
G01*
G04 APERTURE LIST*
G04 #@! TA.AperFunction,ComponentPad*
%ADD10R,1.700000X1.700000*%
G04 #@! TD*
G04 #@! TA.AperFunction,ComponentPad*
%ADD11O,1.100000X2.200000*%
G04 #@! TD*
G04 #@! TA.AperFunction,ComponentPad*
%ADD12O,1.300000X2.600000*%
G04 #@! TD*
G04 #@! TA.AperFunction,ComponentPad*
%ADD13O,1.700000X1.700000*%
G04 #@! TD*
G04 #@! TA.AperFunction,ComponentPad*
%ADD14C,1.980000*%
G04 #@! TD*
G04 #@! TA.AperFunction,ViaPad*
%ADD15C,0.500000*%
G04 #@! TD*
G04 #@! TA.AperFunction,ViaPad*
%ADD16C,0.250000*%
G04 #@! TD*
G04 #@! TA.AperFunction,Conductor*
%ADD17C,0.200000*%
G04 #@! TD*
G04 #@! TA.AperFunction,Conductor*
%ADD18C,0.300000*%
G04 #@! TD*
G04 APERTURE END LIST*
D10*
X138200000Y-38450000D03*
D11*
X134320000Y-33780000D03*
X125680000Y-33780000D03*
D12*
X134320000Y-28420000D03*
X125680000Y-28420000D03*
D13*
X121000000Y-67220000D03*
X121000000Y-69760000D03*
D10*
X121000000Y-72300000D03*
D13*
X121000000Y-74840000D03*
X121000000Y-77380000D03*
X121000000Y-79920000D03*
X121000000Y-82460000D03*
D10*
X121000000Y-85000000D03*
D13*
X121000000Y-87540000D03*
X121000000Y-90080000D03*
X121000000Y-92620000D03*
X121000000Y-95160000D03*
D10*
X121000000Y-97700000D03*
D13*
X121000000Y-100240000D03*
X121000000Y-102780000D03*
X121000000Y-105320000D03*
X121000000Y-107860000D03*
D10*
X121000000Y-110400000D03*
D13*
X121000000Y-112940000D03*
X121000000Y-115480000D03*
X138780000Y-115480000D03*
X138780000Y-112940000D03*
D10*
X138780000Y-110400000D03*
D13*
X138780000Y-107860000D03*
X138780000Y-105320000D03*
X138780000Y-102780000D03*
X138780000Y-100240000D03*
D10*
X138780000Y-97700000D03*
D13*
X138780000Y-95160000D03*
X138780000Y-92620000D03*
X138780000Y-90080000D03*
X138780000Y-87540000D03*
D10*
X138780000Y-85000000D03*
D13*
X138780000Y-82460000D03*
X138780000Y-79920000D03*
X138780000Y-77380000D03*
X138780000Y-74840000D03*
D10*
X138780000Y-72300000D03*
D13*
X138780000Y-69760000D03*
X138780000Y-67220000D03*
D14*
X129880000Y-55620000D03*
X129880000Y-127840000D03*
D15*
X122000000Y-40500000D03*
X130750000Y-41500000D03*
X133010000Y-42432500D03*
X140300000Y-60900000D03*
D16*
X119490000Y-136690000D03*
D15*
X136500000Y-56900000D03*
D16*
X126000000Y-145600000D03*
X127700000Y-127240000D03*
X126700000Y-136970000D03*
X124750000Y-144480000D03*
X128550000Y-138270000D03*
D15*
X132220000Y-124600000D03*
D16*
X122810000Y-128600000D03*
X127700000Y-145600000D03*
X119510000Y-138590000D03*
X125649759Y-149280241D03*
X126190000Y-149305000D03*
X130200000Y-34200000D03*
X129600000Y-61200000D03*
X130250000Y-33400000D03*
X130100000Y-61200000D03*
X129800000Y-34200000D03*
X135900000Y-54360000D03*
X123300000Y-58400000D03*
D15*
X124875000Y-42125000D03*
X128700000Y-39810500D03*
X131875000Y-43625000D03*
D16*
X123800000Y-58400000D03*
D15*
X138300000Y-44670000D03*
D16*
X129250000Y-33370000D03*
X129400000Y-35700000D03*
X124400000Y-123900000D03*
X123900000Y-123900000D03*
X126593105Y-125193105D03*
X124900000Y-123900000D03*
X122130000Y-143370000D03*
X122130000Y-142370000D03*
X121997259Y-140752741D03*
X122635500Y-139200000D03*
X123880000Y-138370000D03*
X139800000Y-128500000D03*
X122130000Y-142870000D03*
D15*
X130290000Y-46910000D03*
D16*
X134100000Y-125350000D03*
X132300000Y-127100000D03*
X134500000Y-108660000D03*
X135694000Y-132120000D03*
X125930000Y-146490000D03*
X126800000Y-151400000D03*
X133020000Y-34880000D03*
X125200000Y-132600000D03*
X136090000Y-119900000D03*
X119280000Y-127440000D03*
X119600000Y-142800000D03*
X140980000Y-117180000D03*
X119230000Y-122180000D03*
X136100000Y-123800000D03*
X119110000Y-61960000D03*
X136164500Y-117000000D03*
X136202000Y-132120000D03*
X137726000Y-132120000D03*
X140560000Y-37330000D03*
X122000000Y-147700000D03*
X119400000Y-151400000D03*
X131630000Y-143804000D03*
X131630000Y-132120000D03*
X131630000Y-145330000D03*
X120800000Y-146100000D03*
X140970000Y-119440000D03*
X126690000Y-32100000D03*
X133154000Y-132120000D03*
X131630000Y-151424000D03*
X132770000Y-32100000D03*
X134678000Y-132120000D03*
X122700000Y-97900000D03*
D15*
X130900000Y-119800000D03*
D16*
X134170000Y-132120000D03*
X130400000Y-151400000D03*
X129280000Y-44280000D03*
X131630000Y-132628000D03*
X129270000Y-43580000D03*
X141282000Y-132120000D03*
X125400000Y-120900000D03*
X125700000Y-129700000D03*
X136200000Y-99000000D03*
X119100000Y-84370000D03*
X138700000Y-31600000D03*
X131400000Y-49600000D03*
X122600000Y-72200000D03*
X131630000Y-148376000D03*
X131630000Y-133136000D03*
X131630000Y-147360000D03*
X119510000Y-142250000D03*
X126000000Y-44200000D03*
X129200000Y-130700000D03*
X119150000Y-110970000D03*
X119150000Y-109970000D03*
X131630000Y-144820000D03*
X137200000Y-86400000D03*
X137300000Y-97700000D03*
X124800000Y-125700000D03*
X140930000Y-130920000D03*
X137300000Y-72400000D03*
X131630000Y-146344000D03*
X140540000Y-42460000D03*
X131630000Y-145836000D03*
X127700000Y-123500000D03*
X137440000Y-54360000D03*
X133000000Y-130800000D03*
X137200000Y-83500000D03*
X119100000Y-85520000D03*
X131630000Y-143296000D03*
X122600000Y-71200000D03*
X138234000Y-132120000D03*
X131630000Y-136692000D03*
X137218000Y-132120000D03*
X127000000Y-34900000D03*
X119230000Y-34890000D03*
X137400000Y-31600000D03*
X134200000Y-119900000D03*
X137300000Y-73300000D03*
X134100000Y-36100000D03*
X119140000Y-39340000D03*
X131630000Y-141772000D03*
X133320000Y-32100000D03*
X134600000Y-56000000D03*
X122800000Y-111300000D03*
X131630000Y-146852000D03*
X126700000Y-37400000D03*
X131630000Y-135168000D03*
X135700000Y-128000000D03*
X125400000Y-104200000D03*
X123100000Y-133800000D03*
X118950000Y-97170000D03*
X139250000Y-132120000D03*
X127200000Y-45500000D03*
X131630000Y-140248000D03*
X131630000Y-136184000D03*
X128160000Y-43610000D03*
X123800000Y-27400000D03*
X131630000Y-142788000D03*
X125490000Y-140290000D03*
X134700000Y-107500000D03*
X129390000Y-138310000D03*
X138800000Y-28000000D03*
X132646000Y-132120000D03*
X128720000Y-50900000D03*
X136100000Y-108500000D03*
X131630000Y-139740000D03*
X131630000Y-149392000D03*
X131630000Y-151932000D03*
X119020000Y-44010000D03*
X123100000Y-121800000D03*
X128130000Y-44270000D03*
X139320000Y-53320000D03*
X126800000Y-45200000D03*
X131630000Y-141264000D03*
X131630000Y-134152000D03*
X133662000Y-132120000D03*
X131630000Y-140756000D03*
X140570000Y-31600000D03*
X135186000Y-132120000D03*
X131630000Y-149900000D03*
X125500000Y-141870000D03*
X119100000Y-27300000D03*
X119160000Y-55390000D03*
X120800000Y-144600000D03*
X122900000Y-85900000D03*
X129900000Y-71800000D03*
X131630000Y-142280000D03*
X131630000Y-139232000D03*
X127100000Y-139100000D03*
X129320000Y-42870000D03*
X137300000Y-99300000D03*
X131600000Y-56900000D03*
X123900000Y-125700000D03*
X131100000Y-70400000D03*
X137400000Y-28000000D03*
X131630000Y-150408000D03*
X123000000Y-37300000D03*
X126200000Y-49700000D03*
X125600000Y-134300000D03*
X124360000Y-113030000D03*
X126700000Y-128600000D03*
X137300000Y-96400000D03*
X140750000Y-98220000D03*
X129990000Y-27740000D03*
X131630000Y-147868000D03*
X131630000Y-134660000D03*
X131630000Y-135676000D03*
X122700000Y-99200000D03*
X128600000Y-70400000D03*
X122900000Y-84900000D03*
X131630000Y-133644000D03*
X134600000Y-91800000D03*
X134500000Y-57800000D03*
X128120000Y-42900000D03*
X140266000Y-132120000D03*
X137200000Y-85000000D03*
X122400000Y-151400000D03*
X132138000Y-132120000D03*
X131630000Y-144312000D03*
X128370000Y-147370000D03*
X124400000Y-123300000D03*
X140700000Y-129400000D03*
X139758000Y-132120000D03*
X136710000Y-132120000D03*
X125480000Y-141050000D03*
X134600000Y-99100000D03*
X124240000Y-141880000D03*
X122900000Y-83900000D03*
X125600000Y-127700000D03*
X140774000Y-132120000D03*
X122900000Y-103300000D03*
X125500000Y-111700000D03*
X139430000Y-54380000D03*
X127200000Y-50900000D03*
X140750000Y-97170000D03*
X140590000Y-27430000D03*
X128700000Y-124500000D03*
X119110000Y-30230000D03*
X127500000Y-130700000D03*
X118950000Y-98220000D03*
X131630000Y-148884000D03*
X119080000Y-49750000D03*
X131630000Y-150916000D03*
X138742000Y-132120000D03*
X124220000Y-141110000D03*
X124470000Y-107510000D03*
X131630000Y-138724000D03*
X126700000Y-36700000D03*
X122800000Y-110300000D03*
X123000000Y-39300000D03*
X122800000Y-109400000D03*
X127200000Y-32100000D03*
X123700000Y-61016188D03*
X124200000Y-61000000D03*
D17*
X129600000Y-60551800D02*
X129600000Y-61200000D01*
X130200000Y-34200000D02*
X130300000Y-34200000D01*
X130610498Y-34510993D02*
X133525000Y-37425495D01*
X133525000Y-37425495D02*
X133525000Y-56626800D01*
X133525000Y-56626800D02*
X129600000Y-60551800D01*
X130300000Y-34200000D02*
X130610498Y-34510498D01*
X130610498Y-34510498D02*
X130610498Y-34510993D01*
X133975000Y-56813200D02*
X130100000Y-60688200D01*
X130928698Y-34188698D02*
X130928698Y-34192793D01*
X130100000Y-60688200D02*
X130100000Y-61200000D01*
X129800000Y-33850000D02*
X129800000Y-34200000D01*
X133975000Y-37239095D02*
X133975000Y-56813200D01*
X130250000Y-33400000D02*
X130250000Y-33510000D01*
X130250000Y-33510000D02*
X130928698Y-34188698D01*
X130928698Y-34192793D02*
X133975000Y-37239095D01*
X130250000Y-33400000D02*
X129800000Y-33850000D01*
D18*
X140600000Y-90800000D02*
X138780000Y-92620000D01*
X139410000Y-57870000D02*
X139410000Y-61810000D01*
X135900000Y-54360000D02*
X139410000Y-57870000D01*
X139410000Y-61810000D02*
X140600000Y-63000000D01*
X140600000Y-63000000D02*
X140600000Y-90800000D01*
D17*
X122835000Y-58865000D02*
X122835000Y-65385000D01*
X123300000Y-58400000D02*
X122835000Y-58865000D01*
X122835000Y-65385000D02*
X121000000Y-67220000D01*
X123175000Y-59041188D02*
X123175000Y-67585000D01*
X123800000Y-58416188D02*
X123175000Y-59041188D01*
X123800000Y-58400000D02*
X123800000Y-58416188D01*
X123175000Y-67585000D02*
X121000000Y-69760000D01*
X124400000Y-123864644D02*
X124900000Y-123364644D01*
X124900000Y-123364644D02*
X124900000Y-104140000D01*
X124400000Y-123900000D02*
X124400000Y-123864644D01*
X124900000Y-104140000D02*
X121000000Y-100240000D01*
X124540000Y-117700000D02*
X123870000Y-117030000D01*
X123900000Y-123900000D02*
X123900000Y-120680832D01*
X123870000Y-117030000D02*
X123870000Y-105650000D01*
X124540000Y-120040832D02*
X124540000Y-117700000D01*
X123900000Y-120680832D02*
X124540000Y-120040832D01*
X123870000Y-105650000D02*
X121000000Y-102780000D01*
X119330000Y-120630000D02*
X123893105Y-125193105D01*
X121000000Y-115480000D02*
X119670000Y-115480000D01*
X119330000Y-115820000D02*
X119330000Y-120630000D01*
X123893105Y-125193105D02*
X126593105Y-125193105D01*
X119670000Y-115480000D02*
X119330000Y-115820000D01*
X123535000Y-124051188D02*
X123748812Y-124265000D01*
X124200000Y-117900000D02*
X124200000Y-119900000D01*
X124551188Y-124265000D02*
X124900000Y-123916188D01*
X123535000Y-120565000D02*
X123535000Y-124051188D01*
X124900000Y-123916188D02*
X124900000Y-123900000D01*
X122860000Y-107860000D02*
X123530000Y-108530000D01*
X123530000Y-117230000D02*
X124200000Y-117900000D01*
X123748812Y-124265000D02*
X124551188Y-124265000D01*
X123530000Y-108530000D02*
X123530000Y-117230000D01*
X121000000Y-107860000D02*
X122860000Y-107860000D01*
X124200000Y-119900000D02*
X123535000Y-120565000D01*
X137260000Y-106840000D02*
X138780000Y-105320000D01*
X121400000Y-142656188D02*
X121400000Y-142000000D01*
X122130000Y-143370000D02*
X122113812Y-143370000D01*
X122113812Y-143370000D02*
X121400000Y-142656188D01*
X123000000Y-140400000D02*
X123000000Y-138642496D01*
X123000000Y-138642496D02*
X137260000Y-124382496D01*
X121400000Y-142000000D02*
X123000000Y-140400000D01*
X137260000Y-124382496D02*
X137260000Y-106840000D01*
X137940000Y-124664160D02*
X137940000Y-116320000D01*
X123340000Y-139560000D02*
X124602080Y-138297920D01*
X122130000Y-142370000D02*
X122130000Y-141750832D01*
X124602080Y-138297920D02*
X124602080Y-138002080D01*
X123340000Y-140540832D02*
X123340000Y-139560000D01*
X137940000Y-116320000D02*
X138780000Y-115480000D01*
X124602080Y-138002080D02*
X137940000Y-124664160D01*
X122130000Y-141750832D02*
X123340000Y-140540832D01*
X122000000Y-140750000D02*
X122000000Y-138680832D01*
X121997259Y-140752741D02*
X122000000Y-140750000D01*
X122000000Y-138680832D02*
X136580000Y-124100832D01*
X136580000Y-102440000D02*
X138780000Y-100240000D01*
X136580000Y-124100832D02*
X136580000Y-102440000D01*
X136920000Y-104640000D02*
X138780000Y-102780000D01*
X136920000Y-124241664D02*
X136920000Y-104640000D01*
X122635500Y-139200000D02*
X122635500Y-138526164D01*
X122635500Y-138526164D02*
X136920000Y-124241664D01*
X137600000Y-114120000D02*
X138780000Y-112940000D01*
X137600000Y-124523328D02*
X137600000Y-114120000D01*
X123880000Y-138243328D02*
X137600000Y-124523328D01*
X123880000Y-138370000D02*
X123880000Y-138243328D01*
X122130000Y-142870000D02*
X122113812Y-142870000D01*
X140500000Y-109580000D02*
X138780000Y-107860000D01*
X139800000Y-128500000D02*
X140500000Y-127800000D01*
X140500000Y-127800000D02*
X140500000Y-109580000D01*
X135640000Y-93220000D02*
X138780000Y-90080000D01*
X135640000Y-123810000D02*
X135640000Y-93220000D01*
X134100000Y-125350000D02*
X135640000Y-123810000D01*
X135300000Y-123600000D02*
X135300000Y-91020000D01*
X132300000Y-126600000D02*
X135300000Y-123600000D01*
X132300000Y-127100000D02*
X132300000Y-126600000D01*
X135300000Y-91020000D02*
X138780000Y-87540000D01*
X134500000Y-108660000D02*
X121000000Y-95160000D01*
X123515000Y-61201188D02*
X123515000Y-72685000D01*
X123515000Y-72685000D02*
X121360000Y-74840000D01*
X123700000Y-61016188D02*
X123515000Y-61201188D01*
X121360000Y-74840000D02*
X121000000Y-74840000D01*
X124200000Y-61000000D02*
X124200000Y-61032376D01*
X123855000Y-61377376D02*
X123855000Y-74525000D01*
X123855000Y-74525000D02*
X121000000Y-77380000D01*
X124200000Y-61032376D02*
X123855000Y-61377376D01*
G04 #@! TA.AperFunction,Conductor*
G36*
X124578833Y-120444630D02*
G01*
X124634766Y-120486502D01*
X124659183Y-120551966D01*
X124659499Y-120560812D01*
X124659499Y-123213663D01*
X124639814Y-123280702D01*
X124623180Y-123301344D01*
X124352181Y-123572343D01*
X124290858Y-123605828D01*
X124221166Y-123600844D01*
X124165233Y-123558972D01*
X124140816Y-123493508D01*
X124140500Y-123484662D01*
X124140500Y-120831811D01*
X124160185Y-120764772D01*
X124176814Y-120744135D01*
X124447820Y-120473129D01*
X124509141Y-120439646D01*
X124578833Y-120444630D01*
G37*
G04 #@! TD.AperFunction*
G04 #@! TA.AperFunction,Conductor*
G36*
X125175141Y-26640185D02*
G01*
X125220896Y-26692989D01*
X125230840Y-26762147D01*
X125201815Y-26825703D01*
X125166555Y-26853858D01*
X125093833Y-26892728D01*
X125093826Y-26892732D01*
X124933944Y-27023944D01*
X124802732Y-27183826D01*
X124802728Y-27183833D01*
X124705233Y-27366233D01*
X124645191Y-27564165D01*
X124630000Y-27718415D01*
X124630000Y-28170000D01*
X125256000Y-28170000D01*
X125323039Y-28189685D01*
X125368794Y-28242489D01*
X125380000Y-28294000D01*
X125380000Y-28546000D01*
X125360315Y-28613039D01*
X125307511Y-28658794D01*
X125256000Y-28670000D01*
X124630000Y-28670000D01*
X124630000Y-29121584D01*
X124645191Y-29275834D01*
X124705233Y-29473766D01*
X124802728Y-29656166D01*
X124802732Y-29656173D01*
X124933944Y-29816055D01*
X125093826Y-29947267D01*
X125093833Y-29947271D01*
X125276233Y-30044766D01*
X125430000Y-30091410D01*
X125430000Y-29574978D01*
X125449685Y-29507939D01*
X125502489Y-29462184D01*
X125571647Y-29452240D01*
X125587926Y-29455709D01*
X125651840Y-29473895D01*
X125763521Y-29463546D01*
X125763522Y-29463545D01*
X125772061Y-29461116D01*
X125841928Y-29461700D01*
X125900388Y-29499965D01*
X125928880Y-29563761D01*
X125929999Y-29580381D01*
X125929999Y-30091410D01*
X125930000Y-30091410D01*
X126083766Y-30044766D01*
X126266166Y-29947271D01*
X126266173Y-29947267D01*
X126426055Y-29816055D01*
X126557267Y-29656173D01*
X126557271Y-29656166D01*
X126654766Y-29473766D01*
X126714808Y-29275834D01*
X126730000Y-29121584D01*
X126730000Y-28670000D01*
X126104000Y-28670000D01*
X126036961Y-28650315D01*
X125991206Y-28597511D01*
X125980000Y-28546000D01*
X125980000Y-28294000D01*
X125999685Y-28226961D01*
X126052489Y-28181206D01*
X126104000Y-28170000D01*
X126730000Y-28170000D01*
X126730000Y-27718415D01*
X126714808Y-27564165D01*
X126654766Y-27366233D01*
X126557271Y-27183833D01*
X126557267Y-27183826D01*
X126426055Y-27023944D01*
X126266173Y-26892732D01*
X126266166Y-26892728D01*
X126193445Y-26853858D01*
X126143601Y-26804896D01*
X126128140Y-26736759D01*
X126151971Y-26671079D01*
X126207529Y-26628710D01*
X126251898Y-26620500D01*
X133748102Y-26620500D01*
X133815141Y-26640185D01*
X133860896Y-26692989D01*
X133870840Y-26762147D01*
X133841815Y-26825703D01*
X133806555Y-26853858D01*
X133733833Y-26892728D01*
X133733826Y-26892732D01*
X133573944Y-27023944D01*
X133442732Y-27183826D01*
X133442728Y-27183833D01*
X133345233Y-27366233D01*
X133285191Y-27564165D01*
X133270000Y-27718415D01*
X133269999Y-28169999D01*
X133270000Y-28170000D01*
X133896000Y-28170000D01*
X133963039Y-28189685D01*
X134008794Y-28242489D01*
X134020000Y-28294000D01*
X134020000Y-28546000D01*
X134000315Y-28613039D01*
X133947511Y-28658794D01*
X133896000Y-28670000D01*
X133270000Y-28670000D01*
X133270000Y-29121584D01*
X133285191Y-29275834D01*
X133345233Y-29473766D01*
X133442728Y-29656166D01*
X133442732Y-29656173D01*
X133573944Y-29816055D01*
X133733826Y-29947267D01*
X133733833Y-29947271D01*
X133916233Y-30044766D01*
X134070000Y-30091410D01*
X134070000Y-29574978D01*
X134089685Y-29507939D01*
X134142489Y-29462184D01*
X134211647Y-29452240D01*
X134227926Y-29455709D01*
X134291840Y-29473895D01*
X134403521Y-29463546D01*
X134403526Y-29463543D01*
X134412063Y-29461115D01*
X134481930Y-29461701D01*
X134540390Y-29499966D01*
X134568881Y-29563763D01*
X134570000Y-29580381D01*
X134570000Y-30091410D01*
X134723766Y-30044766D01*
X134906166Y-29947271D01*
X134906173Y-29947267D01*
X135066055Y-29816055D01*
X135197267Y-29656173D01*
X135197271Y-29656166D01*
X135294766Y-29473766D01*
X135354808Y-29275834D01*
X135370000Y-29121584D01*
X135370000Y-28670000D01*
X134744000Y-28670000D01*
X134676961Y-28650315D01*
X134631206Y-28597511D01*
X134620000Y-28546000D01*
X134620000Y-28294000D01*
X134639685Y-28226961D01*
X134692489Y-28181206D01*
X134744000Y-28170000D01*
X135370000Y-28170000D01*
X135370000Y-27718415D01*
X135354808Y-27564165D01*
X135294766Y-27366233D01*
X135197271Y-27183833D01*
X135197267Y-27183826D01*
X135066055Y-27023944D01*
X134906173Y-26892732D01*
X134906166Y-26892728D01*
X134833445Y-26853858D01*
X134783601Y-26804896D01*
X134768140Y-26736759D01*
X134791971Y-26671079D01*
X134847529Y-26628710D01*
X134891898Y-26620500D01*
X141303500Y-26620500D01*
X141370539Y-26640185D01*
X141416294Y-26692989D01*
X141427500Y-26744500D01*
X141427500Y-131996000D01*
X141407815Y-132063039D01*
X141355011Y-132108794D01*
X141303500Y-132120000D01*
X131630000Y-132120000D01*
X131630000Y-151995500D01*
X131610315Y-152062539D01*
X131557511Y-152108294D01*
X131506000Y-152119500D01*
X118504500Y-152119500D01*
X118437461Y-152099815D01*
X118391706Y-152047011D01*
X118380500Y-151995500D01*
X118380500Y-149280243D01*
X125379058Y-149280243D01*
X125399663Y-149383833D01*
X125399663Y-149383834D01*
X125416207Y-149408593D01*
X125458344Y-149471656D01*
X125495399Y-149496415D01*
X125546165Y-149530336D01*
X125649757Y-149550942D01*
X125649759Y-149550942D01*
X125649761Y-149550942D01*
X125718821Y-149537204D01*
X125753352Y-149530336D01*
X125836079Y-149475059D01*
X125902757Y-149454182D01*
X125970137Y-149472666D01*
X125992651Y-149490481D01*
X125998584Y-149496414D01*
X126086406Y-149555095D01*
X126189998Y-149575701D01*
X126190000Y-149575701D01*
X126190002Y-149575701D01*
X126259061Y-149561963D01*
X126293593Y-149555095D01*
X126381415Y-149496415D01*
X126440095Y-149408593D01*
X126460701Y-149305000D01*
X126440095Y-149201407D01*
X126440095Y-149201406D01*
X126416590Y-149166230D01*
X126381415Y-149113585D01*
X126344360Y-149088826D01*
X126293593Y-149054904D01*
X126190002Y-149034299D01*
X126189998Y-149034299D01*
X126086407Y-149054904D01*
X126003678Y-149110181D01*
X125937000Y-149131058D01*
X125869620Y-149112573D01*
X125847107Y-149094759D01*
X125841174Y-149088826D01*
X125753352Y-149030145D01*
X125649761Y-149009540D01*
X125649757Y-149009540D01*
X125546166Y-149030145D01*
X125546165Y-149030145D01*
X125458344Y-149088826D01*
X125399663Y-149176647D01*
X125399663Y-149176648D01*
X125379058Y-149280238D01*
X125379058Y-149280243D01*
X118380500Y-149280243D01*
X118380500Y-145600002D01*
X125729299Y-145600002D01*
X125749904Y-145703592D01*
X125749904Y-145703593D01*
X125785080Y-145756238D01*
X125808585Y-145791415D01*
X125861230Y-145826590D01*
X125896406Y-145850095D01*
X125999998Y-145870701D01*
X126000000Y-145870701D01*
X126000002Y-145870701D01*
X126069061Y-145856963D01*
X126103593Y-145850095D01*
X126191415Y-145791415D01*
X126250095Y-145703593D01*
X126270701Y-145600002D01*
X127429299Y-145600002D01*
X127449904Y-145703592D01*
X127449904Y-145703593D01*
X127485080Y-145756238D01*
X127508585Y-145791415D01*
X127561230Y-145826590D01*
X127596406Y-145850095D01*
X127699998Y-145870701D01*
X127700000Y-145870701D01*
X127700002Y-145870701D01*
X127769062Y-145856963D01*
X127803593Y-145850095D01*
X127891415Y-145791415D01*
X127950095Y-145703593D01*
X127970701Y-145600000D01*
X127950095Y-145496407D01*
X127950095Y-145496406D01*
X127926590Y-145461230D01*
X127891415Y-145408585D01*
X127856238Y-145385080D01*
X127803593Y-145349904D01*
X127700002Y-145329299D01*
X127699998Y-145329299D01*
X127596407Y-145349904D01*
X127596406Y-145349904D01*
X127508585Y-145408585D01*
X127449904Y-145496406D01*
X127449904Y-145496407D01*
X127429299Y-145599997D01*
X127429299Y-145600002D01*
X126270701Y-145600002D01*
X126270701Y-145600000D01*
X126250095Y-145496407D01*
X126250095Y-145496406D01*
X126226590Y-145461230D01*
X126191415Y-145408585D01*
X126156238Y-145385080D01*
X126103593Y-145349904D01*
X126000002Y-145329299D01*
X125999998Y-145329299D01*
X125896407Y-145349904D01*
X125896406Y-145349904D01*
X125808585Y-145408585D01*
X125749904Y-145496406D01*
X125749904Y-145496407D01*
X125729299Y-145599997D01*
X125729299Y-145600002D01*
X118380500Y-145600002D01*
X118380500Y-144480002D01*
X124479299Y-144480002D01*
X124499904Y-144583592D01*
X124499904Y-144583593D01*
X124535080Y-144636238D01*
X124558585Y-144671415D01*
X124611230Y-144706590D01*
X124646406Y-144730095D01*
X124749998Y-144750701D01*
X124750000Y-144750701D01*
X124750002Y-144750701D01*
X124819061Y-144736963D01*
X124853593Y-144730095D01*
X124941415Y-144671415D01*
X125000095Y-144583593D01*
X125020701Y-144480000D01*
X125000095Y-144376407D01*
X125000095Y-144376406D01*
X124976590Y-144341230D01*
X124941415Y-144288585D01*
X124906238Y-144265080D01*
X124853593Y-144229904D01*
X124750002Y-144209299D01*
X124749998Y-144209299D01*
X124646407Y-144229904D01*
X124646406Y-144229904D01*
X124558585Y-144288585D01*
X124499904Y-144376406D01*
X124499904Y-144376407D01*
X124479299Y-144479997D01*
X124479299Y-144480002D01*
X118380500Y-144480002D01*
X118380500Y-142012868D01*
X121154463Y-142012868D01*
X121155275Y-142015895D01*
X121159500Y-142047988D01*
X121159500Y-142648263D01*
X121159415Y-142651509D01*
X121157154Y-142694649D01*
X121157154Y-142694650D01*
X121165193Y-142715592D01*
X121170719Y-142734247D01*
X121175384Y-142756195D01*
X121177227Y-142758731D01*
X121192670Y-142787173D01*
X121193792Y-142790097D01*
X121193794Y-142790100D01*
X121209652Y-142805958D01*
X121222288Y-142820752D01*
X121235478Y-142838907D01*
X121238188Y-142840471D01*
X121263874Y-142860180D01*
X121876540Y-143472847D01*
X121891961Y-143491637D01*
X121938585Y-143561415D01*
X121991230Y-143596590D01*
X122026406Y-143620095D01*
X122129998Y-143640701D01*
X122130000Y-143640701D01*
X122130002Y-143640701D01*
X122199062Y-143626963D01*
X122233593Y-143620095D01*
X122321415Y-143561415D01*
X122380095Y-143473593D01*
X122400701Y-143370000D01*
X122380095Y-143266407D01*
X122328298Y-143188886D01*
X122307422Y-143122214D01*
X122325906Y-143054834D01*
X122328254Y-143051179D01*
X122380095Y-142973593D01*
X122400701Y-142870000D01*
X122380095Y-142766407D01*
X122328298Y-142688886D01*
X122307422Y-142622214D01*
X122325906Y-142554834D01*
X122328254Y-142551179D01*
X122380095Y-142473593D01*
X122400701Y-142370000D01*
X122380095Y-142266407D01*
X122379937Y-142266025D01*
X122370500Y-142218577D01*
X122370500Y-141901811D01*
X122390185Y-141834772D01*
X122406819Y-141814130D01*
X122406819Y-141814129D01*
X123504486Y-140716462D01*
X123506789Y-140714277D01*
X123538915Y-140685353D01*
X123548041Y-140664852D01*
X123557318Y-140647766D01*
X123569542Y-140628945D01*
X123570031Y-140625853D01*
X123579225Y-140594813D01*
X123580500Y-140591952D01*
X123580500Y-140569510D01*
X123582027Y-140550113D01*
X123585535Y-140527964D01*
X123584725Y-140524940D01*
X123580500Y-140492848D01*
X123580500Y-139710980D01*
X123600185Y-139643941D01*
X123616819Y-139623299D01*
X123875664Y-139364454D01*
X124766576Y-138473541D01*
X124768879Y-138471356D01*
X124800995Y-138442441D01*
X124810119Y-138421944D01*
X124819406Y-138404844D01*
X124831622Y-138386034D01*
X124831622Y-138386033D01*
X124831623Y-138386032D01*
X124832111Y-138382943D01*
X124841307Y-138351898D01*
X124842580Y-138349040D01*
X124842580Y-138326605D01*
X124844107Y-138307206D01*
X124847616Y-138285052D01*
X124846805Y-138282024D01*
X124845222Y-138270002D01*
X128279299Y-138270002D01*
X128299904Y-138373592D01*
X128299904Y-138373593D01*
X128320786Y-138404844D01*
X128358585Y-138461415D01*
X128395989Y-138486407D01*
X128446406Y-138520095D01*
X128549998Y-138540701D01*
X128550000Y-138540701D01*
X128550002Y-138540701D01*
X128620096Y-138526758D01*
X128653593Y-138520095D01*
X128741415Y-138461415D01*
X128800095Y-138373593D01*
X128820701Y-138270000D01*
X128800095Y-138166407D01*
X128800095Y-138166406D01*
X128776590Y-138131230D01*
X128741415Y-138078585D01*
X128706238Y-138055080D01*
X128653593Y-138019904D01*
X128550002Y-137999299D01*
X128549998Y-137999299D01*
X128446407Y-138019904D01*
X128446406Y-138019904D01*
X128358585Y-138078585D01*
X128299904Y-138166406D01*
X128299904Y-138166407D01*
X128279299Y-138269997D01*
X128279299Y-138270002D01*
X124845222Y-138270002D01*
X124842580Y-138249933D01*
X124842580Y-138153059D01*
X124862265Y-138086020D01*
X124878894Y-138065383D01*
X125974274Y-136970002D01*
X126429299Y-136970002D01*
X126449904Y-137073592D01*
X126449904Y-137073593D01*
X126485080Y-137126238D01*
X126508585Y-137161415D01*
X126561230Y-137196590D01*
X126596406Y-137220095D01*
X126699998Y-137240701D01*
X126700000Y-137240701D01*
X126700002Y-137240701D01*
X126769061Y-137226963D01*
X126803593Y-137220095D01*
X126891415Y-137161415D01*
X126950095Y-137073593D01*
X126970701Y-136970000D01*
X126950095Y-136866407D01*
X126950095Y-136866406D01*
X126926590Y-136831230D01*
X126891415Y-136778585D01*
X126856238Y-136755080D01*
X126803593Y-136719904D01*
X126700002Y-136699299D01*
X126699998Y-136699299D01*
X126596407Y-136719904D01*
X126596403Y-136719905D01*
X126522032Y-136769599D01*
X126507135Y-136774263D01*
X126505329Y-136782569D01*
X126499599Y-136792032D01*
X126449905Y-136866403D01*
X126449904Y-136866407D01*
X126429299Y-136969997D01*
X126429299Y-136970002D01*
X125974274Y-136970002D01*
X126308817Y-136635459D01*
X126345645Y-136615350D01*
X126357995Y-136586980D01*
X126365451Y-136578826D01*
X138104486Y-124839790D01*
X138106789Y-124837605D01*
X138138915Y-124808681D01*
X138148041Y-124788180D01*
X138157318Y-124771094D01*
X138169542Y-124752273D01*
X138170030Y-124749186D01*
X138179230Y-124718131D01*
X138180500Y-124715280D01*
X138180500Y-124692844D01*
X138182027Y-124673446D01*
X138185536Y-124651292D01*
X138185535Y-124651289D01*
X138184725Y-124648263D01*
X138180500Y-124616172D01*
X138180500Y-116489558D01*
X138200185Y-116422519D01*
X138252989Y-116376764D01*
X138322147Y-116366820D01*
X138362952Y-116380200D01*
X138399118Y-116399531D01*
X138585828Y-116456169D01*
X138780000Y-116475293D01*
X138974172Y-116456169D01*
X139160882Y-116399531D01*
X139332955Y-116307556D01*
X139483778Y-116183778D01*
X139607556Y-116032955D01*
X139668136Y-115919618D01*
X139699528Y-115860888D01*
X139699529Y-115860886D01*
X139699531Y-115860882D01*
X139756169Y-115674172D01*
X139775293Y-115480000D01*
X139756169Y-115285828D01*
X139699531Y-115099118D01*
X139699528Y-115099114D01*
X139699528Y-115099111D01*
X139607559Y-114927050D01*
X139607555Y-114927043D01*
X139483778Y-114776221D01*
X139332956Y-114652444D01*
X139332949Y-114652440D01*
X139160888Y-114560471D01*
X139160882Y-114560469D01*
X138974172Y-114503831D01*
X138974169Y-114503830D01*
X138780000Y-114484707D01*
X138585830Y-114503830D01*
X138399111Y-114560471D01*
X138227050Y-114652440D01*
X138227043Y-114652444D01*
X138076220Y-114776222D01*
X138060352Y-114795558D01*
X138002606Y-114834892D01*
X137932761Y-114836761D01*
X137872993Y-114800573D01*
X137842278Y-114737817D01*
X137840500Y-114716892D01*
X137840500Y-114270979D01*
X137860185Y-114203940D01*
X137876815Y-114183302D01*
X138204713Y-113855403D01*
X138266034Y-113821920D01*
X138335725Y-113826904D01*
X138350839Y-113833725D01*
X138399118Y-113859531D01*
X138585828Y-113916169D01*
X138780000Y-113935293D01*
X138974172Y-113916169D01*
X139160882Y-113859531D01*
X139168602Y-113855405D01*
X139332949Y-113767559D01*
X139332955Y-113767556D01*
X139483778Y-113643778D01*
X139607556Y-113492955D01*
X139699531Y-113320882D01*
X139756169Y-113134172D01*
X139775293Y-112940000D01*
X139756169Y-112745828D01*
X139699531Y-112559118D01*
X139699528Y-112559114D01*
X139699528Y-112559111D01*
X139607559Y-112387050D01*
X139607555Y-112387043D01*
X139483778Y-112236221D01*
X139332956Y-112112444D01*
X139332949Y-112112440D01*
X139160888Y-112020471D01*
X139160882Y-112020469D01*
X138974172Y-111963831D01*
X138974169Y-111963830D01*
X138780000Y-111944707D01*
X138585830Y-111963830D01*
X138399111Y-112020471D01*
X138227050Y-112112440D01*
X138227043Y-112112444D01*
X138076221Y-112236221D01*
X137952444Y-112387043D01*
X137952440Y-112387050D01*
X137860471Y-112559111D01*
X137803830Y-112745830D01*
X137784707Y-112940000D01*
X137803830Y-113134169D01*
X137860470Y-113320885D01*
X137886270Y-113369152D01*
X137900512Y-113437555D01*
X137875512Y-113502799D01*
X137864594Y-113515287D01*
X137725552Y-113654330D01*
X137712182Y-113667700D01*
X137650858Y-113701185D01*
X137581167Y-113696201D01*
X137525233Y-113654330D01*
X137500816Y-113588865D01*
X137500500Y-113580019D01*
X137500500Y-111681904D01*
X137520185Y-111614865D01*
X137572989Y-111569110D01*
X137642147Y-111559166D01*
X137682144Y-111575400D01*
X137683260Y-111573210D01*
X137804855Y-111635166D01*
X137898514Y-111649999D01*
X138529999Y-111649999D01*
X138530000Y-111649998D01*
X138530000Y-111022403D01*
X138549685Y-110955364D01*
X138602489Y-110909609D01*
X138671646Y-110899665D01*
X138743527Y-110910000D01*
X138743530Y-110910000D01*
X138816470Y-110910000D01*
X138816473Y-110910000D01*
X138888353Y-110899665D01*
X138957512Y-110909609D01*
X139010316Y-110955364D01*
X139030000Y-111022403D01*
X139030000Y-111649999D01*
X139661479Y-111649999D01*
X139755149Y-111635164D01*
X139755155Y-111635162D01*
X139868041Y-111577643D01*
X139868050Y-111577636D01*
X139957636Y-111488050D01*
X139957639Y-111488046D01*
X140015166Y-111375142D01*
X140017570Y-111367747D01*
X140057008Y-111310072D01*
X140121367Y-111282875D01*
X140190213Y-111294791D01*
X140241688Y-111342036D01*
X140259500Y-111406067D01*
X140259500Y-127649019D01*
X140239815Y-127716058D01*
X140223181Y-127736700D01*
X139737012Y-128222868D01*
X139696794Y-128249744D01*
X139696411Y-128249902D01*
X139608584Y-128308585D01*
X139549904Y-128396406D01*
X139549904Y-128396407D01*
X139529299Y-128499997D01*
X139529299Y-128500002D01*
X139549904Y-128603592D01*
X139549904Y-128603593D01*
X139585080Y-128656238D01*
X139608585Y-128691415D01*
X139661230Y-128726590D01*
X139696406Y-128750095D01*
X139799998Y-128770701D01*
X139800000Y-128770701D01*
X139800002Y-128770701D01*
X139869061Y-128756963D01*
X139903593Y-128750095D01*
X139991415Y-128691415D01*
X140050095Y-128603593D01*
X140050096Y-128603586D01*
X140050249Y-128603220D01*
X140077129Y-128562987D01*
X140664486Y-127975630D01*
X140666789Y-127973445D01*
X140698915Y-127944521D01*
X140708041Y-127924020D01*
X140717318Y-127906934D01*
X140729542Y-127888113D01*
X140730031Y-127885021D01*
X140739225Y-127853981D01*
X140740500Y-127851120D01*
X140740500Y-127828678D01*
X140742027Y-127809281D01*
X140745535Y-127787132D01*
X140744725Y-127784108D01*
X140740500Y-127752016D01*
X140740500Y-109587915D01*
X140740585Y-109584669D01*
X140742846Y-109541537D01*
X140734804Y-109520587D01*
X140729279Y-109501936D01*
X140724616Y-109479994D01*
X140722773Y-109477457D01*
X140707326Y-109449006D01*
X140706206Y-109446088D01*
X140690344Y-109430226D01*
X140677706Y-109415429D01*
X140664521Y-109397281D01*
X140664519Y-109397280D01*
X140664519Y-109397279D01*
X140661804Y-109395712D01*
X140636126Y-109376008D01*
X139695406Y-108435288D01*
X139661921Y-108373965D01*
X139666905Y-108304273D01*
X139673729Y-108289153D01*
X139699528Y-108240888D01*
X139699531Y-108240882D01*
X139756169Y-108054172D01*
X139775293Y-107860000D01*
X139756169Y-107665828D01*
X139699531Y-107479118D01*
X139699528Y-107479114D01*
X139699528Y-107479111D01*
X139607559Y-107307050D01*
X139607555Y-107307043D01*
X139483778Y-107156221D01*
X139332956Y-107032444D01*
X139332949Y-107032440D01*
X139160888Y-106940471D01*
X139160882Y-106940469D01*
X138974172Y-106883831D01*
X138974169Y-106883830D01*
X138780000Y-106864707D01*
X138585830Y-106883830D01*
X138399111Y-106940471D01*
X138227050Y-107032440D01*
X138227043Y-107032444D01*
X138076221Y-107156221D01*
X137952444Y-107307043D01*
X137952440Y-107307050D01*
X137860471Y-107479111D01*
X137803830Y-107665830D01*
X137784707Y-107860000D01*
X137803830Y-108054169D01*
X137860471Y-108240888D01*
X137952440Y-108412949D01*
X137952444Y-108412956D01*
X138076221Y-108563778D01*
X138227043Y-108687555D01*
X138227050Y-108687559D01*
X138399111Y-108779528D01*
X138399114Y-108779528D01*
X138399118Y-108779531D01*
X138585828Y-108836169D01*
X138780000Y-108855293D01*
X138974172Y-108836169D01*
X139160882Y-108779531D01*
X139209154Y-108753728D01*
X139277555Y-108739487D01*
X139342799Y-108764486D01*
X139355288Y-108775406D01*
X139518201Y-108938319D01*
X139551686Y-108999642D01*
X139546702Y-109069334D01*
X139504830Y-109125267D01*
X139439366Y-109149684D01*
X139430520Y-109150000D01*
X139030000Y-109150000D01*
X139030000Y-109777596D01*
X139010315Y-109844635D01*
X138957511Y-109890390D01*
X138888355Y-109900334D01*
X138816476Y-109890000D01*
X138816473Y-109890000D01*
X138743527Y-109890000D01*
X138743523Y-109890000D01*
X138671645Y-109900334D01*
X138602487Y-109890390D01*
X138549684Y-109844634D01*
X138530000Y-109777596D01*
X138530000Y-109150000D01*
X137898520Y-109150000D01*
X137804850Y-109164835D01*
X137804844Y-109164837D01*
X137683260Y-109226789D01*
X137681823Y-109223970D01*
X137631549Y-109241895D01*
X137563499Y-109226052D01*
X137514816Y-109175935D01*
X137500500Y-109118095D01*
X137500500Y-106990979D01*
X137520185Y-106923940D01*
X137536814Y-106903303D01*
X138204713Y-106235404D01*
X138266034Y-106201921D01*
X138335726Y-106206905D01*
X138350845Y-106213729D01*
X138399112Y-106239528D01*
X138399118Y-106239531D01*
X138585828Y-106296169D01*
X138780000Y-106315293D01*
X138974172Y-106296169D01*
X139160882Y-106239531D01*
X139168600Y-106235406D01*
X139332949Y-106147559D01*
X139332955Y-106147556D01*
X139483778Y-106023778D01*
X139607556Y-105872955D01*
X139699531Y-105700882D01*
X139756169Y-105514172D01*
X139775293Y-105320000D01*
X139756169Y-105125828D01*
X139699531Y-104939118D01*
X139699528Y-104939114D01*
X139699528Y-104939111D01*
X139607559Y-104767050D01*
X139607555Y-104767043D01*
X139483778Y-104616221D01*
X139332956Y-104492444D01*
X139332949Y-104492440D01*
X139160888Y-104400471D01*
X139160882Y-104400469D01*
X138974172Y-104343831D01*
X138974169Y-104343830D01*
X138780000Y-104324707D01*
X138585830Y-104343830D01*
X138399111Y-104400471D01*
X138227050Y-104492440D01*
X138227043Y-104492444D01*
X138076221Y-104616221D01*
X137952444Y-104767043D01*
X137952440Y-104767050D01*
X137860471Y-104939111D01*
X137803830Y-105125830D01*
X137784707Y-105320000D01*
X137803830Y-105514169D01*
X137821352Y-105571930D01*
X137847437Y-105657923D01*
X137860470Y-105700885D01*
X137886270Y-105749152D01*
X137900512Y-105817555D01*
X137875512Y-105882799D01*
X137864593Y-105895287D01*
X137372181Y-106387699D01*
X137310858Y-106421184D01*
X137241166Y-106416200D01*
X137185233Y-106374328D01*
X137160816Y-106308864D01*
X137160500Y-106300018D01*
X137160500Y-104790979D01*
X137180185Y-104723940D01*
X137196814Y-104703302D01*
X138204713Y-103695403D01*
X138266034Y-103661920D01*
X138335726Y-103666904D01*
X138350839Y-103673725D01*
X138399118Y-103699531D01*
X138585828Y-103756169D01*
X138780000Y-103775293D01*
X138974172Y-103756169D01*
X139160882Y-103699531D01*
X139168600Y-103695406D01*
X139332949Y-103607559D01*
X139332955Y-103607556D01*
X139483778Y-103483778D01*
X139607556Y-103332955D01*
X139699531Y-103160882D01*
X139756169Y-102974172D01*
X139775293Y-102780000D01*
X139756169Y-102585828D01*
X139699531Y-102399118D01*
X139699528Y-102399114D01*
X139699528Y-102399111D01*
X139607559Y-102227050D01*
X139607555Y-102227043D01*
X139483778Y-102076221D01*
X139332956Y-101952444D01*
X139332949Y-101952440D01*
X139160888Y-101860471D01*
X139160882Y-101860469D01*
X138974172Y-101803831D01*
X138974169Y-101803830D01*
X138780000Y-101784707D01*
X138585830Y-101803830D01*
X138399111Y-101860471D01*
X138227050Y-101952440D01*
X138227043Y-101952444D01*
X138076221Y-102076221D01*
X137952444Y-102227043D01*
X137952440Y-102227050D01*
X137860471Y-102399111D01*
X137803830Y-102585830D01*
X137784707Y-102780000D01*
X137803830Y-102974169D01*
X137860470Y-103160885D01*
X137886270Y-103209152D01*
X137900512Y-103277555D01*
X137875512Y-103342799D01*
X137864593Y-103355287D01*
X137032181Y-104187699D01*
X136970858Y-104221184D01*
X136901166Y-104216200D01*
X136845233Y-104174328D01*
X136820816Y-104108864D01*
X136820500Y-104100018D01*
X136820500Y-102590980D01*
X136840185Y-102523941D01*
X136856819Y-102503299D01*
X137499649Y-101860469D01*
X138204713Y-101155404D01*
X138266034Y-101121921D01*
X138335726Y-101126905D01*
X138350845Y-101133729D01*
X138399112Y-101159528D01*
X138399118Y-101159531D01*
X138585828Y-101216169D01*
X138780000Y-101235293D01*
X138974172Y-101216169D01*
X139160882Y-101159531D01*
X139168600Y-101155406D01*
X139332949Y-101067559D01*
X139332955Y-101067556D01*
X139483778Y-100943778D01*
X139607556Y-100792955D01*
X139699531Y-100620882D01*
X139756169Y-100434172D01*
X139775293Y-100240000D01*
X139756169Y-100045828D01*
X139699531Y-99859118D01*
X139699528Y-99859114D01*
X139699528Y-99859111D01*
X139607559Y-99687050D01*
X139607555Y-99687043D01*
X139483778Y-99536221D01*
X139332956Y-99412444D01*
X139332949Y-99412440D01*
X139160888Y-99320471D01*
X139160882Y-99320469D01*
X138974172Y-99263831D01*
X138974169Y-99263830D01*
X138780000Y-99244707D01*
X138585830Y-99263830D01*
X138399111Y-99320471D01*
X138227050Y-99412440D01*
X138227043Y-99412444D01*
X138076221Y-99536221D01*
X137952444Y-99687043D01*
X137952440Y-99687050D01*
X137860471Y-99859111D01*
X137803830Y-100045830D01*
X137784707Y-100240000D01*
X137803830Y-100434169D01*
X137860470Y-100620885D01*
X137860472Y-100620888D01*
X137886270Y-100669152D01*
X137900512Y-100737553D01*
X137875513Y-100802797D01*
X137864593Y-100815286D01*
X136415546Y-102264335D01*
X136413192Y-102266569D01*
X136381084Y-102295479D01*
X136371959Y-102315975D01*
X136362676Y-102333072D01*
X136350458Y-102351886D01*
X136350457Y-102351889D01*
X136349966Y-102354989D01*
X136340778Y-102386007D01*
X136339501Y-102388875D01*
X136339500Y-102388881D01*
X136339500Y-102411314D01*
X136337973Y-102430712D01*
X136334463Y-102452867D01*
X136334463Y-102452868D01*
X136335275Y-102455895D01*
X136339500Y-102487988D01*
X136339500Y-123949851D01*
X136319815Y-124016890D01*
X136303181Y-124037532D01*
X121835547Y-138505166D01*
X121833193Y-138507400D01*
X121801084Y-138536311D01*
X121791959Y-138556807D01*
X121782676Y-138573904D01*
X121770458Y-138592718D01*
X121770457Y-138592721D01*
X121769966Y-138595821D01*
X121760778Y-138626839D01*
X121759501Y-138629707D01*
X121759500Y-138629713D01*
X121759500Y-138652146D01*
X121757973Y-138671544D01*
X121754463Y-138693699D01*
X121754463Y-138693700D01*
X121755275Y-138696727D01*
X121759500Y-138728820D01*
X121759500Y-140594701D01*
X121750061Y-140642154D01*
X121747162Y-140649150D01*
X121726558Y-140752738D01*
X121726558Y-140752743D01*
X121747163Y-140856333D01*
X121747163Y-140856334D01*
X121805844Y-140944156D01*
X121865973Y-140984333D01*
X121910779Y-141037945D01*
X121919486Y-141107270D01*
X121889332Y-141170297D01*
X121884764Y-141175116D01*
X121235546Y-141824335D01*
X121233192Y-141826569D01*
X121201084Y-141855479D01*
X121191959Y-141875975D01*
X121182676Y-141893072D01*
X121170458Y-141911886D01*
X121170457Y-141911889D01*
X121169966Y-141914989D01*
X121160778Y-141946007D01*
X121159501Y-141948875D01*
X121159500Y-141948881D01*
X121159500Y-141971314D01*
X121157973Y-141990712D01*
X121154463Y-142012867D01*
X121154463Y-142012868D01*
X118380500Y-142012868D01*
X118380500Y-138590002D01*
X119239299Y-138590002D01*
X119259904Y-138693592D01*
X119259904Y-138693593D01*
X119292325Y-138742114D01*
X119318585Y-138781415D01*
X119371230Y-138816590D01*
X119406406Y-138840095D01*
X119509998Y-138860701D01*
X119510000Y-138860701D01*
X119510002Y-138860701D01*
X119579061Y-138846963D01*
X119613593Y-138840095D01*
X119701415Y-138781415D01*
X119760095Y-138693593D01*
X119780701Y-138590000D01*
X119760095Y-138486407D01*
X119760095Y-138486406D01*
X119730718Y-138442441D01*
X119701415Y-138398585D01*
X119658634Y-138370000D01*
X119613593Y-138339904D01*
X119510002Y-138319299D01*
X119509998Y-138319299D01*
X119406407Y-138339904D01*
X119406406Y-138339904D01*
X119318585Y-138398585D01*
X119259904Y-138486406D01*
X119259904Y-138486407D01*
X119239299Y-138589997D01*
X119239299Y-138590002D01*
X118380500Y-138590002D01*
X118380500Y-136690002D01*
X119219299Y-136690002D01*
X119239904Y-136793592D01*
X119239904Y-136793593D01*
X119275080Y-136846238D01*
X119298585Y-136881415D01*
X119351230Y-136916590D01*
X119386406Y-136940095D01*
X119489998Y-136960701D01*
X119490000Y-136960701D01*
X119490002Y-136960701D01*
X119559061Y-136946963D01*
X119593593Y-136940095D01*
X119681415Y-136881415D01*
X119740095Y-136793593D01*
X119760701Y-136690000D01*
X119740095Y-136586407D01*
X119740095Y-136586406D01*
X119716590Y-136551230D01*
X119681415Y-136498585D01*
X119646238Y-136475080D01*
X119593593Y-136439904D01*
X119490002Y-136419299D01*
X119489998Y-136419299D01*
X119386407Y-136439904D01*
X119386406Y-136439904D01*
X119298585Y-136498585D01*
X119239904Y-136586406D01*
X119239904Y-136586407D01*
X119219299Y-136689997D01*
X119219299Y-136690002D01*
X118380500Y-136690002D01*
X118380500Y-128600002D01*
X122539299Y-128600002D01*
X122559904Y-128703592D01*
X122559904Y-128703593D01*
X122590976Y-128750095D01*
X122618585Y-128791415D01*
X122671230Y-128826590D01*
X122706406Y-128850095D01*
X122809998Y-128870701D01*
X122810000Y-128870701D01*
X122810002Y-128870701D01*
X122879062Y-128856963D01*
X122913593Y-128850095D01*
X123001415Y-128791415D01*
X123060095Y-128703593D01*
X123080701Y-128600000D01*
X123060095Y-128496407D01*
X123060095Y-128496406D01*
X123036590Y-128461230D01*
X123001415Y-128408585D01*
X122950132Y-128374319D01*
X122913593Y-128349904D01*
X122810002Y-128329299D01*
X122809998Y-128329299D01*
X122706407Y-128349904D01*
X122706406Y-128349904D01*
X122618585Y-128408585D01*
X122559904Y-128496406D01*
X122559904Y-128496407D01*
X122539299Y-128599997D01*
X122539299Y-128600002D01*
X118380500Y-128600002D01*
X118380500Y-127840005D01*
X128485236Y-127840005D01*
X128504258Y-128069567D01*
X128560808Y-128292879D01*
X128653341Y-128503833D01*
X128736036Y-128630408D01*
X129153227Y-128213218D01*
X129214550Y-128179733D01*
X129284241Y-128184717D01*
X129333723Y-128218672D01*
X129413380Y-128308585D01*
X129439125Y-128337645D01*
X129492260Y-128374321D01*
X129536249Y-128428602D01*
X129543909Y-128498050D01*
X129512806Y-128560616D01*
X129509500Y-128564051D01*
X129088326Y-128985225D01*
X129088326Y-128985226D01*
X129117134Y-129007648D01*
X129117139Y-129007652D01*
X129319723Y-129117284D01*
X129319737Y-129117290D01*
X129537603Y-129192084D01*
X129764821Y-129230000D01*
X129995179Y-129230000D01*
X130222396Y-129192084D01*
X130440262Y-129117290D01*
X130440271Y-129117287D01*
X130642863Y-129007649D01*
X130671672Y-128985225D01*
X130250499Y-128564052D01*
X130217014Y-128502729D01*
X130221998Y-128433038D01*
X130263869Y-128377104D01*
X130267716Y-128374337D01*
X130320875Y-128337645D01*
X130426277Y-128218669D01*
X130485463Y-128181546D01*
X130555329Y-128182313D01*
X130606771Y-128213218D01*
X131023961Y-128630409D01*
X131106659Y-128503830D01*
X131199191Y-128292879D01*
X131255741Y-128069567D01*
X131274764Y-127840005D01*
X131274764Y-127839994D01*
X131255741Y-127610432D01*
X131199191Y-127387120D01*
X131106658Y-127176166D01*
X131056898Y-127100002D01*
X132029299Y-127100002D01*
X132049904Y-127203592D01*
X132049904Y-127203593D01*
X132074229Y-127239997D01*
X132108585Y-127291415D01*
X132161230Y-127326590D01*
X132196406Y-127350095D01*
X132299998Y-127370701D01*
X132300000Y-127370701D01*
X132300002Y-127370701D01*
X132369061Y-127356963D01*
X132403593Y-127350095D01*
X132491415Y-127291415D01*
X132550095Y-127203593D01*
X132570701Y-127100000D01*
X132550095Y-126996407D01*
X132549937Y-126996025D01*
X132540500Y-126948578D01*
X132540500Y-126948577D01*
X132540500Y-126750976D01*
X132560183Y-126683940D01*
X132576809Y-126663308D01*
X133717680Y-125522436D01*
X133779001Y-125488953D01*
X133848693Y-125493937D01*
X133904626Y-125535809D01*
X133908453Y-125541217D01*
X133908584Y-125541414D01*
X133908585Y-125541415D01*
X133996406Y-125600095D01*
X134099998Y-125620701D01*
X134100000Y-125620701D01*
X134100002Y-125620701D01*
X134169062Y-125606963D01*
X134203593Y-125600095D01*
X134291415Y-125541415D01*
X134350095Y-125453593D01*
X134350096Y-125453586D01*
X134350249Y-125453220D01*
X134377129Y-125412987D01*
X135804496Y-123985621D01*
X135806799Y-123983436D01*
X135838915Y-123954521D01*
X135848041Y-123934022D01*
X135857321Y-123916929D01*
X135869542Y-123898112D01*
X135870030Y-123895025D01*
X135879230Y-123863971D01*
X135880500Y-123861120D01*
X135880500Y-123838684D01*
X135882027Y-123819286D01*
X135885536Y-123797132D01*
X135885535Y-123797129D01*
X135884725Y-123794103D01*
X135880500Y-123762012D01*
X135880500Y-97450000D01*
X137530000Y-97450000D01*
X138156231Y-97450000D01*
X138223270Y-97469685D01*
X138269025Y-97522489D01*
X138278969Y-97591647D01*
X138275208Y-97608936D01*
X138270000Y-97626672D01*
X138270000Y-97773327D01*
X138275208Y-97791064D01*
X138275208Y-97860934D01*
X138237434Y-97919712D01*
X138173879Y-97948738D01*
X138156231Y-97950000D01*
X137530001Y-97950000D01*
X137530001Y-98581479D01*
X137544835Y-98675149D01*
X137544837Y-98675155D01*
X137602356Y-98788041D01*
X137602363Y-98788050D01*
X137691949Y-98877636D01*
X137691953Y-98877639D01*
X137804855Y-98935166D01*
X137898514Y-98949999D01*
X138529999Y-98949999D01*
X138530000Y-98949998D01*
X138530000Y-98322403D01*
X138549685Y-98255364D01*
X138602489Y-98209609D01*
X138671646Y-98199665D01*
X138743527Y-98210000D01*
X138743530Y-98210000D01*
X138816470Y-98210000D01*
X138816473Y-98210000D01*
X138888353Y-98199665D01*
X138957512Y-98209609D01*
X139010316Y-98255364D01*
X139030000Y-98322403D01*
X139030000Y-98949999D01*
X139661479Y-98949999D01*
X139755149Y-98935164D01*
X139755155Y-98935162D01*
X139868041Y-98877643D01*
X139868050Y-98877636D01*
X139957636Y-98788050D01*
X139957639Y-98788046D01*
X140015166Y-98675144D01*
X140030000Y-98581486D01*
X140030000Y-97950000D01*
X139403769Y-97950000D01*
X139336730Y-97930315D01*
X139290975Y-97877511D01*
X139281031Y-97808353D01*
X139284792Y-97791064D01*
X139290000Y-97773327D01*
X139290000Y-97626672D01*
X139284792Y-97608936D01*
X139284792Y-97539066D01*
X139322566Y-97480288D01*
X139386121Y-97451262D01*
X139403769Y-97450000D01*
X140029999Y-97450000D01*
X140029999Y-96818520D01*
X140015164Y-96724850D01*
X140015162Y-96724844D01*
X139957643Y-96611958D01*
X139957636Y-96611949D01*
X139868050Y-96522363D01*
X139868046Y-96522360D01*
X139755144Y-96464833D01*
X139661486Y-96450000D01*
X139030000Y-96450000D01*
X139030000Y-97077596D01*
X139010315Y-97144635D01*
X138957511Y-97190390D01*
X138888355Y-97200334D01*
X138816476Y-97190000D01*
X138816473Y-97190000D01*
X138743527Y-97190000D01*
X138743523Y-97190000D01*
X138671645Y-97200334D01*
X138602487Y-97190390D01*
X138549684Y-97144634D01*
X138530000Y-97077596D01*
X138530000Y-96450000D01*
X137898520Y-96450000D01*
X137804850Y-96464835D01*
X137804844Y-96464837D01*
X137691958Y-96522356D01*
X137691949Y-96522363D01*
X137602363Y-96611949D01*
X137602360Y-96611953D01*
X137544833Y-96724855D01*
X137530000Y-96818513D01*
X137530000Y-97450000D01*
X135880500Y-97450000D01*
X135880500Y-95160000D01*
X137784707Y-95160000D01*
X137803830Y-95354169D01*
X137860471Y-95540888D01*
X137952440Y-95712949D01*
X137952444Y-95712956D01*
X138076221Y-95863778D01*
X138227043Y-95987555D01*
X138227050Y-95987559D01*
X138399111Y-96079528D01*
X138399114Y-96079528D01*
X138399118Y-96079531D01*
X138585828Y-96136169D01*
X138780000Y-96155293D01*
X138974172Y-96136169D01*
X139160882Y-96079531D01*
X139168600Y-96075406D01*
X139332949Y-95987559D01*
X139332955Y-95987556D01*
X139483778Y-95863778D01*
X139607556Y-95712955D01*
X139699531Y-95540882D01*
X139756169Y-95354172D01*
X139775293Y-95160000D01*
X139756169Y-94965828D01*
X139699531Y-94779118D01*
X139699528Y-94779114D01*
X139699528Y-94779111D01*
X139607559Y-94607050D01*
X139607555Y-94607043D01*
X139483778Y-94456221D01*
X139332956Y-94332444D01*
X139332949Y-94332440D01*
X139160888Y-94240471D01*
X139160882Y-94240469D01*
X138974172Y-94183831D01*
X138974169Y-94183830D01*
X138780000Y-94164707D01*
X138585830Y-94183830D01*
X138399111Y-94240471D01*
X138227050Y-94332440D01*
X138227043Y-94332444D01*
X138076221Y-94456221D01*
X137952444Y-94607043D01*
X137952440Y-94607050D01*
X137860471Y-94779111D01*
X137803830Y-94965830D01*
X137784707Y-95160000D01*
X135880500Y-95160000D01*
X135880500Y-93370979D01*
X135900185Y-93303940D01*
X135916814Y-93283303D01*
X138204713Y-90995404D01*
X138266034Y-90961921D01*
X138335726Y-90966905D01*
X138350845Y-90973729D01*
X138399112Y-90999528D01*
X138399118Y-90999531D01*
X138585828Y-91056169D01*
X138780000Y-91075293D01*
X138974172Y-91056169D01*
X139160882Y-90999531D01*
X139168600Y-90995406D01*
X139279059Y-90936364D01*
X139332955Y-90907556D01*
X139483778Y-90783778D01*
X139607556Y-90632955D01*
X139699531Y-90460882D01*
X139756169Y-90274172D01*
X139775293Y-90080000D01*
X139756169Y-89885828D01*
X139699531Y-89699118D01*
X139699528Y-89699114D01*
X139699528Y-89699111D01*
X139607559Y-89527050D01*
X139607555Y-89527043D01*
X139483778Y-89376221D01*
X139332956Y-89252444D01*
X139332949Y-89252440D01*
X139160888Y-89160471D01*
X139160882Y-89160469D01*
X138974172Y-89103831D01*
X138974169Y-89103830D01*
X138780000Y-89084707D01*
X138585830Y-89103830D01*
X138399111Y-89160471D01*
X138227050Y-89252440D01*
X138227043Y-89252444D01*
X138076221Y-89376221D01*
X137952444Y-89527043D01*
X137952440Y-89527050D01*
X137860471Y-89699111D01*
X137803830Y-89885830D01*
X137784707Y-90080000D01*
X137803830Y-90274169D01*
X137860470Y-90460885D01*
X137860472Y-90460888D01*
X137886270Y-90509152D01*
X137900512Y-90577553D01*
X137875513Y-90642797D01*
X137864593Y-90655286D01*
X135752181Y-92767699D01*
X135690858Y-92801184D01*
X135621166Y-92796200D01*
X135565233Y-92754328D01*
X135540816Y-92688864D01*
X135540500Y-92680018D01*
X135540500Y-91170979D01*
X135560185Y-91103940D01*
X135576814Y-91083303D01*
X138204713Y-88455403D01*
X138266034Y-88421920D01*
X138335726Y-88426904D01*
X138350839Y-88433725D01*
X138399118Y-88459531D01*
X138585828Y-88516169D01*
X138780000Y-88535293D01*
X138974172Y-88516169D01*
X139160882Y-88459531D01*
X139168602Y-88455405D01*
X139332949Y-88367559D01*
X139332955Y-88367556D01*
X139483778Y-88243778D01*
X139607556Y-88092955D01*
X139699531Y-87920882D01*
X139756169Y-87734172D01*
X139775293Y-87540000D01*
X139756169Y-87345828D01*
X139699531Y-87159118D01*
X139699528Y-87159114D01*
X139699528Y-87159111D01*
X139607559Y-86987050D01*
X139607555Y-86987043D01*
X139483778Y-86836221D01*
X139332956Y-86712444D01*
X139332949Y-86712440D01*
X139160888Y-86620471D01*
X139160882Y-86620469D01*
X138974172Y-86563831D01*
X138974169Y-86563830D01*
X138780000Y-86544707D01*
X138585830Y-86563830D01*
X138399111Y-86620471D01*
X138227050Y-86712440D01*
X138227043Y-86712444D01*
X138076221Y-86836221D01*
X137952444Y-86987043D01*
X137952440Y-86987050D01*
X137860471Y-87159111D01*
X137803830Y-87345830D01*
X137784707Y-87540000D01*
X137803830Y-87734169D01*
X137860470Y-87920885D01*
X137886270Y-87969152D01*
X137900512Y-88037555D01*
X137875512Y-88102799D01*
X137864593Y-88115287D01*
X135135547Y-90844334D01*
X135133193Y-90846568D01*
X135101084Y-90875479D01*
X135091959Y-90895975D01*
X135082676Y-90913072D01*
X135070458Y-90931886D01*
X135070457Y-90931889D01*
X135069966Y-90934989D01*
X135060778Y-90966007D01*
X135059501Y-90968875D01*
X135059500Y-90968881D01*
X135059500Y-90991314D01*
X135057973Y-91010712D01*
X135054463Y-91032867D01*
X135054463Y-91032868D01*
X135055275Y-91035895D01*
X135059500Y-91067988D01*
X135059500Y-123449019D01*
X135039815Y-123516058D01*
X135023181Y-123536700D01*
X132135547Y-126424334D01*
X132133193Y-126426568D01*
X132101084Y-126455479D01*
X132091959Y-126475975D01*
X132082676Y-126493072D01*
X132070458Y-126511886D01*
X132070457Y-126511889D01*
X132069966Y-126514989D01*
X132060778Y-126546007D01*
X132059501Y-126548875D01*
X132059500Y-126548881D01*
X132059500Y-126571314D01*
X132057973Y-126590712D01*
X132054463Y-126612867D01*
X132054463Y-126612868D01*
X132055275Y-126615895D01*
X132059500Y-126647988D01*
X132059500Y-126948577D01*
X132050063Y-126996025D01*
X132049904Y-126996407D01*
X132029299Y-127099997D01*
X132029299Y-127100002D01*
X131056898Y-127100002D01*
X131023961Y-127049589D01*
X130606771Y-127466780D01*
X130545448Y-127500265D01*
X130475756Y-127495281D01*
X130426275Y-127461326D01*
X130320876Y-127342356D01*
X130320875Y-127342355D01*
X130267738Y-127305677D01*
X130223749Y-127251395D01*
X130216089Y-127181947D01*
X130247192Y-127119382D01*
X130250498Y-127115947D01*
X130671672Y-126694773D01*
X130642860Y-126672347D01*
X130642858Y-126672346D01*
X130440276Y-126562715D01*
X130440262Y-126562709D01*
X130222396Y-126487915D01*
X129995179Y-126450000D01*
X129764821Y-126450000D01*
X129537603Y-126487915D01*
X129319737Y-126562709D01*
X129319728Y-126562712D01*
X129117135Y-126672350D01*
X129088325Y-126694773D01*
X129509500Y-127115947D01*
X129542985Y-127177270D01*
X129538001Y-127246961D01*
X129496130Y-127302895D01*
X129492261Y-127305677D01*
X129439122Y-127342356D01*
X129333724Y-127461327D01*
X129274535Y-127498454D01*
X129204669Y-127497686D01*
X129153228Y-127466781D01*
X128736037Y-127049590D01*
X128653341Y-127176166D01*
X128560808Y-127387120D01*
X128504258Y-127610432D01*
X128485236Y-127839994D01*
X128485236Y-127840005D01*
X118380500Y-127840005D01*
X118380500Y-127240002D01*
X127429299Y-127240002D01*
X127449904Y-127343592D01*
X127449904Y-127343593D01*
X127478988Y-127387120D01*
X127508585Y-127431415D01*
X127553351Y-127461326D01*
X127596406Y-127490095D01*
X127699998Y-127510701D01*
X127700000Y-127510701D01*
X127700002Y-127510701D01*
X127777521Y-127495281D01*
X127803593Y-127490095D01*
X127891415Y-127431415D01*
X127950095Y-127343593D01*
X127970701Y-127240000D01*
X127950095Y-127136407D01*
X127950095Y-127136406D01*
X127925767Y-127099997D01*
X127891415Y-127048585D01*
X127856238Y-127025080D01*
X127803593Y-126989904D01*
X127700002Y-126969299D01*
X127699998Y-126969299D01*
X127596407Y-126989904D01*
X127596406Y-126989904D01*
X127508585Y-127048585D01*
X127449904Y-127136406D01*
X127449904Y-127136407D01*
X127429299Y-127239997D01*
X127429299Y-127240002D01*
X118380500Y-127240002D01*
X118380500Y-115832868D01*
X119084463Y-115832868D01*
X119085275Y-115835895D01*
X119089500Y-115867988D01*
X119089499Y-120622075D01*
X119089414Y-120625319D01*
X119087153Y-120668460D01*
X119087154Y-120668462D01*
X119095193Y-120689404D01*
X119100719Y-120708059D01*
X119105384Y-120730007D01*
X119107227Y-120732543D01*
X119122670Y-120760985D01*
X119123792Y-120763909D01*
X119123794Y-120763912D01*
X119139652Y-120779770D01*
X119152288Y-120794564D01*
X119165478Y-120812719D01*
X119168188Y-120814283D01*
X119193874Y-120833992D01*
X123717456Y-125357574D01*
X123719672Y-125359910D01*
X123748584Y-125392020D01*
X123769085Y-125401147D01*
X123786173Y-125410425D01*
X123804992Y-125422647D01*
X123808083Y-125423136D01*
X123839124Y-125432331D01*
X123841985Y-125433605D01*
X123864420Y-125433605D01*
X123883818Y-125435132D01*
X123905972Y-125438641D01*
X123905973Y-125438641D01*
X123909000Y-125437830D01*
X123941093Y-125433605D01*
X126441683Y-125433605D01*
X126489138Y-125443045D01*
X126489514Y-125443201D01*
X126593103Y-125463806D01*
X126593105Y-125463806D01*
X126593107Y-125463806D01*
X126662167Y-125450068D01*
X126696698Y-125443200D01*
X126784520Y-125384520D01*
X126843200Y-125296698D01*
X126863806Y-125193105D01*
X126863806Y-125193102D01*
X126843200Y-125089512D01*
X126843200Y-125089511D01*
X126819695Y-125054335D01*
X126784520Y-125001690D01*
X126746097Y-124976017D01*
X126696698Y-124943009D01*
X126593107Y-124922404D01*
X126593103Y-124922404D01*
X126489514Y-124943008D01*
X126489138Y-124943165D01*
X126441683Y-124952605D01*
X124044085Y-124952605D01*
X123977046Y-124932920D01*
X123956404Y-124916286D01*
X123757299Y-124717181D01*
X123723814Y-124655858D01*
X123727809Y-124600002D01*
X131824632Y-124600002D01*
X131843981Y-124722172D01*
X131857747Y-124749189D01*
X131900141Y-124832391D01*
X131900143Y-124832393D01*
X131900145Y-124832396D01*
X131987603Y-124919854D01*
X131987605Y-124919855D01*
X131987609Y-124919859D01*
X132097825Y-124976017D01*
X132097827Y-124976018D01*
X132219998Y-124995368D01*
X132220000Y-124995368D01*
X132220002Y-124995368D01*
X132342172Y-124976018D01*
X132342173Y-124976017D01*
X132342175Y-124976017D01*
X132452391Y-124919859D01*
X132539859Y-124832391D01*
X132596017Y-124722175D01*
X132596017Y-124722173D01*
X132596018Y-124722172D01*
X132615368Y-124600002D01*
X132615368Y-124599997D01*
X132596018Y-124477827D01*
X132581046Y-124448443D01*
X132539859Y-124367609D01*
X132539855Y-124367605D01*
X132539854Y-124367603D01*
X132452396Y-124280145D01*
X132452393Y-124280143D01*
X132452391Y-124280141D01*
X132361652Y-124233907D01*
X132342172Y-124223981D01*
X132220002Y-124204632D01*
X132219998Y-124204632D01*
X132097827Y-124223981D01*
X132024347Y-124261421D01*
X131987609Y-124280141D01*
X131987607Y-124280142D01*
X131987608Y-124280142D01*
X131987603Y-124280145D01*
X131900145Y-124367603D01*
X131900142Y-124367608D01*
X131843981Y-124477827D01*
X131824632Y-124599997D01*
X131824632Y-124600002D01*
X123727809Y-124600002D01*
X123728798Y-124586166D01*
X123770670Y-124530233D01*
X123836134Y-124505816D01*
X123844980Y-124505500D01*
X124543264Y-124505500D01*
X124546507Y-124505584D01*
X124589650Y-124507846D01*
X124610599Y-124499803D01*
X124629246Y-124494280D01*
X124651194Y-124489616D01*
X124653722Y-124487778D01*
X124682178Y-124472327D01*
X124685100Y-124471206D01*
X124700964Y-124455340D01*
X124715754Y-124442709D01*
X124733907Y-124429521D01*
X124735471Y-124426811D01*
X124755177Y-124401127D01*
X125002853Y-124153452D01*
X125021633Y-124138040D01*
X125091415Y-124091415D01*
X125150095Y-124003593D01*
X125170701Y-123900000D01*
X125150095Y-123796407D01*
X125150095Y-123796406D01*
X125091414Y-123708584D01*
X125082779Y-123699949D01*
X125085883Y-123696844D01*
X125056284Y-123661346D01*
X125047655Y-123592011D01*
X125077881Y-123529018D01*
X125087061Y-123519837D01*
X125098915Y-123509165D01*
X125108039Y-123488668D01*
X125117326Y-123471568D01*
X125129542Y-123452758D01*
X125129542Y-123452757D01*
X125129543Y-123452756D01*
X125130031Y-123449667D01*
X125139227Y-123418622D01*
X125140500Y-123415764D01*
X125140500Y-123393329D01*
X125142027Y-123373930D01*
X125145536Y-123351776D01*
X125144725Y-123348748D01*
X125140500Y-123316657D01*
X125140500Y-119294000D01*
X125160185Y-119226961D01*
X125212989Y-119181206D01*
X125264500Y-119170000D01*
X134800000Y-119170000D01*
X134800000Y-112270000D01*
X125264500Y-112270000D01*
X125197461Y-112250315D01*
X125151706Y-112197511D01*
X125140500Y-112146000D01*
X125140500Y-104147923D01*
X125140585Y-104144677D01*
X125142846Y-104101538D01*
X125141968Y-104099251D01*
X125134805Y-104080588D01*
X125129280Y-104061937D01*
X125124616Y-104039994D01*
X125122774Y-104037458D01*
X125107329Y-104009012D01*
X125106207Y-104006088D01*
X125090345Y-103990226D01*
X125077706Y-103975428D01*
X125064523Y-103957283D01*
X125064516Y-103957277D01*
X125061805Y-103955712D01*
X125036127Y-103936008D01*
X123486126Y-102386007D01*
X121915405Y-100815287D01*
X121881921Y-100753965D01*
X121886905Y-100684273D01*
X121893729Y-100669153D01*
X121919528Y-100620888D01*
X121919531Y-100620882D01*
X121976169Y-100434172D01*
X121995293Y-100240000D01*
X121976169Y-100045828D01*
X121919531Y-99859118D01*
X121919528Y-99859114D01*
X121919528Y-99859111D01*
X121827559Y-99687050D01*
X121827555Y-99687043D01*
X121703778Y-99536221D01*
X121552956Y-99412444D01*
X121552949Y-99412440D01*
X121380888Y-99320471D01*
X121380882Y-99320469D01*
X121194172Y-99263831D01*
X121194169Y-99263830D01*
X121000000Y-99244707D01*
X120805830Y-99263830D01*
X120619111Y-99320471D01*
X120447050Y-99412440D01*
X120447043Y-99412444D01*
X120296221Y-99536221D01*
X120172444Y-99687043D01*
X120172440Y-99687050D01*
X120080471Y-99859111D01*
X120023830Y-100045830D01*
X120004707Y-100240000D01*
X120023830Y-100434169D01*
X120080471Y-100620888D01*
X120172440Y-100792949D01*
X120172444Y-100792956D01*
X120296221Y-100943778D01*
X120447043Y-101067555D01*
X120447050Y-101067559D01*
X120619111Y-101159528D01*
X120619114Y-101159528D01*
X120619118Y-101159531D01*
X120805828Y-101216169D01*
X121000000Y-101235293D01*
X121194172Y-101216169D01*
X121380882Y-101159531D01*
X121429154Y-101133728D01*
X121497555Y-101119487D01*
X121562799Y-101144486D01*
X121575288Y-101155406D01*
X124623181Y-104203299D01*
X124656666Y-104264622D01*
X124659500Y-104290980D01*
X124659499Y-117180019D01*
X124639814Y-117247058D01*
X124587010Y-117292813D01*
X124517852Y-117302757D01*
X124454296Y-117273732D01*
X124447826Y-117267708D01*
X124328367Y-117148249D01*
X124146819Y-116966700D01*
X124113334Y-116905377D01*
X124110500Y-116879019D01*
X124110500Y-105657923D01*
X124110585Y-105654677D01*
X124112846Y-105611538D01*
X124111968Y-105609251D01*
X124104805Y-105590588D01*
X124099280Y-105571937D01*
X124094616Y-105549994D01*
X124092774Y-105547458D01*
X124077329Y-105519012D01*
X124076207Y-105516088D01*
X124060345Y-105500226D01*
X124047706Y-105485428D01*
X124034523Y-105467283D01*
X124034516Y-105467277D01*
X124031805Y-105465712D01*
X124006127Y-105446008D01*
X123052559Y-104492440D01*
X121915405Y-103355287D01*
X121881921Y-103293965D01*
X121886905Y-103224273D01*
X121893729Y-103209153D01*
X121919528Y-103160888D01*
X121919531Y-103160882D01*
X121976169Y-102974172D01*
X121995293Y-102780000D01*
X121976169Y-102585828D01*
X121919531Y-102399118D01*
X121919528Y-102399114D01*
X121919528Y-102399111D01*
X121827559Y-102227050D01*
X121827555Y-102227043D01*
X121703778Y-102076221D01*
X121552956Y-101952444D01*
X121552949Y-101952440D01*
X121380888Y-101860471D01*
X121380882Y-101860469D01*
X121194172Y-101803831D01*
X121194169Y-101803830D01*
X121000000Y-101784707D01*
X120805830Y-101803830D01*
X120619111Y-101860471D01*
X120447050Y-101952440D01*
X120447043Y-101952444D01*
X120296221Y-102076221D01*
X120172444Y-102227043D01*
X120172440Y-102227050D01*
X120080471Y-102399111D01*
X120023830Y-102585830D01*
X120004707Y-102780000D01*
X120023830Y-102974169D01*
X120080471Y-103160888D01*
X120172440Y-103332949D01*
X120172444Y-103332956D01*
X120296221Y-103483778D01*
X120447043Y-103607555D01*
X120447050Y-103607559D01*
X120619111Y-103699528D01*
X120619114Y-103699528D01*
X120619118Y-103699531D01*
X120805828Y-103756169D01*
X121000000Y-103775293D01*
X121194172Y-103756169D01*
X121380882Y-103699531D01*
X121429154Y-103673728D01*
X121497555Y-103659487D01*
X121562799Y-103684486D01*
X121575288Y-103695406D01*
X123593181Y-105713299D01*
X123626666Y-105774622D01*
X123629500Y-105800980D01*
X123629500Y-107990019D01*
X123609815Y-108057058D01*
X123557011Y-108102813D01*
X123487853Y-108112757D01*
X123424297Y-108083732D01*
X123417819Y-108077700D01*
X123035665Y-107695547D01*
X123033430Y-107693192D01*
X123004521Y-107661084D01*
X123004519Y-107661083D01*
X122984023Y-107651958D01*
X122966924Y-107642674D01*
X122948113Y-107630458D01*
X122945016Y-107629967D01*
X122913980Y-107620773D01*
X122911122Y-107619500D01*
X122911120Y-107619500D01*
X122888685Y-107619500D01*
X122869287Y-107617973D01*
X122847132Y-107614463D01*
X122847131Y-107614463D01*
X122844105Y-107615275D01*
X122812012Y-107619500D01*
X122054080Y-107619500D01*
X121987041Y-107599815D01*
X121941286Y-107547011D01*
X121935422Y-107531503D01*
X121919531Y-107479118D01*
X121919529Y-107479115D01*
X121919529Y-107479113D01*
X121827559Y-107307050D01*
X121827555Y-107307043D01*
X121703778Y-107156221D01*
X121552956Y-107032444D01*
X121552949Y-107032440D01*
X121380888Y-106940471D01*
X121380882Y-106940469D01*
X121194172Y-106883831D01*
X121194169Y-106883830D01*
X121000000Y-106864707D01*
X120805830Y-106883830D01*
X120619111Y-106940471D01*
X120447050Y-107032440D01*
X120447043Y-107032444D01*
X120296221Y-107156221D01*
X120172444Y-107307043D01*
X120172440Y-107307050D01*
X120080471Y-107479111D01*
X120023830Y-107665830D01*
X120004707Y-107860000D01*
X120023830Y-108054169D01*
X120080471Y-108240888D01*
X120172440Y-108412949D01*
X120172444Y-108412956D01*
X120296221Y-108563778D01*
X120447043Y-108687555D01*
X120447050Y-108687559D01*
X120619111Y-108779528D01*
X120619114Y-108779528D01*
X120619118Y-108779531D01*
X120805828Y-108836169D01*
X121000000Y-108855293D01*
X121194172Y-108836169D01*
X121380882Y-108779531D01*
X121388600Y-108775406D01*
X121552949Y-108687559D01*
X121552955Y-108687556D01*
X121703778Y-108563778D01*
X121827556Y-108412955D01*
X121919531Y-108240882D01*
X121935420Y-108188503D01*
X121973717Y-108130066D01*
X122037529Y-108101610D01*
X122054080Y-108100500D01*
X122709020Y-108100500D01*
X122776059Y-108120185D01*
X122796701Y-108136819D01*
X123253181Y-108593299D01*
X123286666Y-108654622D01*
X123289500Y-108680980D01*
X123289500Y-117222075D01*
X123289415Y-117225321D01*
X123287154Y-117268461D01*
X123287154Y-117268462D01*
X123295193Y-117289404D01*
X123300729Y-117308107D01*
X123301092Y-117309818D01*
X123295749Y-117379483D01*
X123253591Y-117435201D01*
X123188002Y-117459281D01*
X123119806Y-117444078D01*
X123105482Y-117434820D01*
X123053665Y-117396030D01*
X123053657Y-117396025D01*
X122811930Y-117264032D01*
X122811931Y-117264032D01*
X122761679Y-117245289D01*
X122553862Y-117167777D01*
X122553855Y-117167775D01*
X122553854Y-117167775D01*
X122284734Y-117109232D01*
X122284727Y-117109231D01*
X122078762Y-117094500D01*
X121941238Y-117094500D01*
X121735272Y-117109231D01*
X121735265Y-117109232D01*
X121466145Y-117167775D01*
X121466141Y-117167776D01*
X121466138Y-117167777D01*
X121280402Y-117237052D01*
X121208069Y-117264032D01*
X120966342Y-117396025D01*
X120966334Y-117396030D01*
X120745852Y-117561080D01*
X120745834Y-117561096D01*
X120551096Y-117755834D01*
X120551080Y-117755852D01*
X120386030Y-117976334D01*
X120386025Y-117976342D01*
X120254032Y-118218069D01*
X120254030Y-118218075D01*
X120157777Y-118476138D01*
X120157776Y-118476141D01*
X120157775Y-118476145D01*
X120099232Y-118745265D01*
X120099231Y-118745272D01*
X120079582Y-119019998D01*
X120079582Y-119020001D01*
X120099231Y-119294727D01*
X120099232Y-119294734D01*
X120157775Y-119563854D01*
X120157777Y-119563862D01*
X120245995Y-119800382D01*
X120254032Y-119821930D01*
X120386025Y-120063657D01*
X120386030Y-120063665D01*
X120551080Y-120284147D01*
X120551096Y-120284165D01*
X120745834Y-120478903D01*
X120745852Y-120478919D01*
X120966334Y-120643969D01*
X120966342Y-120643974D01*
X121208069Y-120775967D01*
X121208068Y-120775967D01*
X121208072Y-120775968D01*
X121208075Y-120775970D01*
X121466138Y-120872223D01*
X121735273Y-120930769D01*
X121941238Y-120945500D01*
X122078762Y-120945500D01*
X122284727Y-120930769D01*
X122553862Y-120872223D01*
X122811925Y-120775970D01*
X123053663Y-120643971D01*
X123096189Y-120612136D01*
X123161654Y-120587719D01*
X123229927Y-120602571D01*
X123279332Y-120651976D01*
X123294500Y-120711403D01*
X123294500Y-123955020D01*
X123274815Y-124022059D01*
X123222011Y-124067814D01*
X123152853Y-124077758D01*
X123089297Y-124048733D01*
X123082819Y-124042701D01*
X119606818Y-120566700D01*
X119573333Y-120505377D01*
X119570500Y-120479028D01*
X119570500Y-115970979D01*
X119590185Y-115903941D01*
X119606814Y-115883304D01*
X119733301Y-115756817D01*
X119794623Y-115723334D01*
X119820981Y-115720500D01*
X119945920Y-115720500D01*
X120012959Y-115740185D01*
X120058714Y-115792989D01*
X120064577Y-115808496D01*
X120065250Y-115810712D01*
X120080470Y-115860886D01*
X120172440Y-116032949D01*
X120172444Y-116032956D01*
X120296221Y-116183778D01*
X120447043Y-116307555D01*
X120447050Y-116307559D01*
X120619111Y-116399528D01*
X120619114Y-116399528D01*
X120619118Y-116399531D01*
X120805828Y-116456169D01*
X121000000Y-116475293D01*
X121194172Y-116456169D01*
X121380882Y-116399531D01*
X121552955Y-116307556D01*
X121703778Y-116183778D01*
X121827556Y-116032955D01*
X121888136Y-115919618D01*
X121919528Y-115860888D01*
X121919529Y-115860886D01*
X121919531Y-115860882D01*
X121976169Y-115674172D01*
X121995293Y-115480000D01*
X121976169Y-115285828D01*
X121919531Y-115099118D01*
X121919528Y-115099114D01*
X121919528Y-115099111D01*
X121827559Y-114927050D01*
X121827555Y-114927043D01*
X121703778Y-114776221D01*
X121552956Y-114652444D01*
X121552949Y-114652440D01*
X121380888Y-114560471D01*
X121380882Y-114560469D01*
X121194172Y-114503831D01*
X121194169Y-114503830D01*
X121000000Y-114484707D01*
X120805830Y-114503830D01*
X120619111Y-114560471D01*
X120447050Y-114652440D01*
X120447043Y-114652444D01*
X120296221Y-114776221D01*
X120172444Y-114927043D01*
X120172440Y-114927050D01*
X120080470Y-115099113D01*
X120073168Y-115123182D01*
X120064579Y-115151496D01*
X120026283Y-115209934D01*
X119962471Y-115238390D01*
X119945920Y-115239500D01*
X119677924Y-115239500D01*
X119674680Y-115239415D01*
X119655122Y-115238390D01*
X119631541Y-115237154D01*
X119631536Y-115237154D01*
X119610588Y-115245195D01*
X119591944Y-115250717D01*
X119569996Y-115255383D01*
X119569989Y-115255386D01*
X119567447Y-115257233D01*
X119539027Y-115272663D01*
X119536093Y-115273789D01*
X119536088Y-115273792D01*
X119520219Y-115289661D01*
X119505432Y-115302290D01*
X119487280Y-115315479D01*
X119485710Y-115318199D01*
X119466009Y-115343870D01*
X119165546Y-115644335D01*
X119163192Y-115646569D01*
X119131084Y-115675479D01*
X119121959Y-115695975D01*
X119112676Y-115713072D01*
X119100458Y-115731886D01*
X119100457Y-115731889D01*
X119099966Y-115734989D01*
X119090778Y-115766007D01*
X119089501Y-115768875D01*
X119089500Y-115768881D01*
X119089500Y-115791314D01*
X119087973Y-115810712D01*
X119084463Y-115832867D01*
X119084463Y-115832868D01*
X118380500Y-115832868D01*
X118380500Y-112940000D01*
X120004707Y-112940000D01*
X120023830Y-113134169D01*
X120080471Y-113320888D01*
X120172440Y-113492949D01*
X120172444Y-113492956D01*
X120296221Y-113643778D01*
X120447043Y-113767555D01*
X120447050Y-113767559D01*
X120619111Y-113859528D01*
X120619114Y-113859528D01*
X120619118Y-113859531D01*
X120805828Y-113916169D01*
X121000000Y-113935293D01*
X121194172Y-113916169D01*
X121380882Y-113859531D01*
X121388602Y-113855405D01*
X121552949Y-113767559D01*
X121552955Y-113767556D01*
X121703778Y-113643778D01*
X121827556Y-113492955D01*
X121919531Y-113320882D01*
X121976169Y-113134172D01*
X121995293Y-112940000D01*
X121976169Y-112745828D01*
X121919531Y-112559118D01*
X121919528Y-112559114D01*
X121919528Y-112559111D01*
X121827559Y-112387050D01*
X121827555Y-112387043D01*
X121703778Y-112236221D01*
X121552956Y-112112444D01*
X121552949Y-112112440D01*
X121380888Y-112020471D01*
X121380882Y-112020469D01*
X121194172Y-111963831D01*
X121194169Y-111963830D01*
X121000000Y-111944707D01*
X120805830Y-111963830D01*
X120619111Y-112020471D01*
X120447050Y-112112440D01*
X120447043Y-112112444D01*
X120296221Y-112236221D01*
X120172444Y-112387043D01*
X120172440Y-112387050D01*
X120080471Y-112559111D01*
X120023830Y-112745830D01*
X120004707Y-112940000D01*
X118380500Y-112940000D01*
X118380500Y-110150000D01*
X119750000Y-110150000D01*
X120376231Y-110150000D01*
X120443270Y-110169685D01*
X120489025Y-110222489D01*
X120498969Y-110291647D01*
X120495208Y-110308936D01*
X120490000Y-110326672D01*
X120490000Y-110473327D01*
X120495208Y-110491064D01*
X120495208Y-110560934D01*
X120457434Y-110619712D01*
X120393879Y-110648738D01*
X120376231Y-110650000D01*
X119750001Y-110650000D01*
X119750001Y-111281479D01*
X119764835Y-111375149D01*
X119764837Y-111375155D01*
X119822356Y-111488041D01*
X119822363Y-111488050D01*
X119911949Y-111577636D01*
X119911953Y-111577639D01*
X120024855Y-111635166D01*
X120118514Y-111649999D01*
X120749999Y-111649999D01*
X120750000Y-111649998D01*
X120750000Y-111022403D01*
X120769685Y-110955364D01*
X120822489Y-110909609D01*
X120891646Y-110899665D01*
X120963527Y-110910000D01*
X120963530Y-110910000D01*
X121036470Y-110910000D01*
X121036473Y-110910000D01*
X121108353Y-110899665D01*
X121177512Y-110909609D01*
X121230316Y-110955364D01*
X121250000Y-111022403D01*
X121250000Y-111649999D01*
X121881479Y-111649999D01*
X121975149Y-111635164D01*
X121975155Y-111635162D01*
X122088041Y-111577643D01*
X122088050Y-111577636D01*
X122177636Y-111488050D01*
X122177639Y-111488046D01*
X122235166Y-111375144D01*
X122250000Y-111281486D01*
X122250000Y-110650000D01*
X121623769Y-110650000D01*
X121556730Y-110630315D01*
X121510975Y-110577511D01*
X121501031Y-110508353D01*
X121504792Y-110491064D01*
X121510000Y-110473327D01*
X121510000Y-110326672D01*
X121504792Y-110308936D01*
X121504792Y-110239066D01*
X121542566Y-110180288D01*
X121606121Y-110151262D01*
X121623769Y-110150000D01*
X122249999Y-110150000D01*
X122249999Y-109518520D01*
X122235164Y-109424850D01*
X122235162Y-109424844D01*
X122177643Y-109311958D01*
X122177636Y-109311949D01*
X122088050Y-109222363D01*
X122088046Y-109222360D01*
X121975144Y-109164833D01*
X121881486Y-109150000D01*
X121250000Y-109150000D01*
X121250000Y-109777596D01*
X121230315Y-109844635D01*
X121177511Y-109890390D01*
X121108355Y-109900334D01*
X121036476Y-109890000D01*
X121036473Y-109890000D01*
X120963527Y-109890000D01*
X120963523Y-109890000D01*
X120891645Y-109900334D01*
X120822487Y-109890390D01*
X120769684Y-109844634D01*
X120750000Y-109777596D01*
X120750000Y-109150000D01*
X120118520Y-109150000D01*
X120024850Y-109164835D01*
X120024844Y-109164837D01*
X119911958Y-109222356D01*
X119911949Y-109222363D01*
X119822363Y-109311949D01*
X119822360Y-109311953D01*
X119764833Y-109424855D01*
X119750000Y-109518513D01*
X119750000Y-110150000D01*
X118380500Y-110150000D01*
X118380500Y-105320000D01*
X120004707Y-105320000D01*
X120023830Y-105514169D01*
X120041352Y-105571930D01*
X120067437Y-105657923D01*
X120080471Y-105700888D01*
X120172440Y-105872949D01*
X120172444Y-105872956D01*
X120296221Y-106023778D01*
X120447043Y-106147555D01*
X120447050Y-106147559D01*
X120619111Y-106239528D01*
X120619114Y-106239528D01*
X120619118Y-106239531D01*
X120805828Y-106296169D01*
X121000000Y-106315293D01*
X121194172Y-106296169D01*
X121380882Y-106239531D01*
X121388600Y-106235406D01*
X121552949Y-106147559D01*
X121552955Y-106147556D01*
X121703778Y-106023778D01*
X121827556Y-105872955D01*
X121919531Y-105700882D01*
X121976169Y-105514172D01*
X121995293Y-105320000D01*
X121976169Y-105125828D01*
X121919531Y-104939118D01*
X121919528Y-104939114D01*
X121919528Y-104939111D01*
X121827559Y-104767050D01*
X121827555Y-104767043D01*
X121703778Y-104616221D01*
X121552956Y-104492444D01*
X121552949Y-104492440D01*
X121380888Y-104400471D01*
X121380882Y-104400469D01*
X121194172Y-104343831D01*
X121194169Y-104343830D01*
X121000000Y-104324707D01*
X120805830Y-104343830D01*
X120619111Y-104400471D01*
X120447050Y-104492440D01*
X120447043Y-104492444D01*
X120296221Y-104616221D01*
X120172444Y-104767043D01*
X120172440Y-104767050D01*
X120080471Y-104939111D01*
X120023830Y-105125830D01*
X120004707Y-105320000D01*
X118380500Y-105320000D01*
X118380500Y-97450000D01*
X119750000Y-97450000D01*
X120376231Y-97450000D01*
X120443270Y-97469685D01*
X120489025Y-97522489D01*
X120498969Y-97591647D01*
X120495208Y-97608936D01*
X120490000Y-97626672D01*
X120490000Y-97773327D01*
X120495208Y-97791064D01*
X120495208Y-97860934D01*
X120457434Y-97919712D01*
X120393879Y-97948738D01*
X120376231Y-97950000D01*
X119750001Y-97950000D01*
X119750001Y-98581479D01*
X119764835Y-98675149D01*
X119764837Y-98675155D01*
X119822356Y-98788041D01*
X119822363Y-98788050D01*
X119911949Y-98877636D01*
X119911953Y-98877639D01*
X120024855Y-98935166D01*
X120118514Y-98949999D01*
X120749999Y-98949999D01*
X120750000Y-98949998D01*
X120750000Y-98322403D01*
X120769685Y-98255364D01*
X120822489Y-98209609D01*
X120891646Y-98199665D01*
X120963527Y-98210000D01*
X120963530Y-98210000D01*
X121036470Y-98210000D01*
X121036473Y-98210000D01*
X121108353Y-98199665D01*
X121177512Y-98209609D01*
X121230316Y-98255364D01*
X121250000Y-98322403D01*
X121250000Y-98949999D01*
X121881479Y-98949999D01*
X121975149Y-98935164D01*
X121975155Y-98935162D01*
X122088041Y-98877643D01*
X122088050Y-98877636D01*
X122177636Y-98788050D01*
X122177639Y-98788046D01*
X122235166Y-98675144D01*
X122250000Y-98581486D01*
X122250000Y-97950000D01*
X121623769Y-97950000D01*
X121556730Y-97930315D01*
X121510975Y-97877511D01*
X121501031Y-97808353D01*
X121504792Y-97791064D01*
X121510000Y-97773327D01*
X121510000Y-97626672D01*
X121504792Y-97608936D01*
X121504792Y-97539066D01*
X121542566Y-97480288D01*
X121606121Y-97451262D01*
X121623769Y-97450000D01*
X122249999Y-97450000D01*
X122249999Y-97049479D01*
X122269684Y-96982440D01*
X122322488Y-96936685D01*
X122391646Y-96926741D01*
X122455202Y-96955766D01*
X122461680Y-96961798D01*
X134222868Y-108722986D01*
X134249747Y-108763211D01*
X134249904Y-108763591D01*
X134249904Y-108763592D01*
X134249905Y-108763593D01*
X134298398Y-108836169D01*
X134308585Y-108851415D01*
X134396406Y-108910095D01*
X134499998Y-108930701D01*
X134500000Y-108930701D01*
X134500002Y-108930701D01*
X134569062Y-108916963D01*
X134603593Y-108910095D01*
X134691415Y-108851415D01*
X134750095Y-108763593D01*
X134770701Y-108660000D01*
X134770701Y-108659997D01*
X134750095Y-108556407D01*
X134750095Y-108556406D01*
X134691415Y-108468585D01*
X134608159Y-108412956D01*
X134603593Y-108409905D01*
X134603592Y-108409904D01*
X134603591Y-108409904D01*
X134603211Y-108409747D01*
X134562986Y-108382868D01*
X121915406Y-95735288D01*
X121881921Y-95673965D01*
X121886905Y-95604273D01*
X121893729Y-95589153D01*
X121919528Y-95540888D01*
X121919531Y-95540882D01*
X121976169Y-95354172D01*
X121995293Y-95160000D01*
X121976169Y-94965828D01*
X121919531Y-94779118D01*
X121919528Y-94779114D01*
X121919528Y-94779111D01*
X121827559Y-94607050D01*
X121827555Y-94607043D01*
X121703778Y-94456221D01*
X121552956Y-94332444D01*
X121552949Y-94332440D01*
X121380888Y-94240471D01*
X121380882Y-94240469D01*
X121194172Y-94183831D01*
X121194169Y-94183830D01*
X121000000Y-94164707D01*
X120805830Y-94183830D01*
X120619111Y-94240471D01*
X120447050Y-94332440D01*
X120447043Y-94332444D01*
X120296221Y-94456221D01*
X120172444Y-94607043D01*
X120172440Y-94607050D01*
X120080471Y-94779111D01*
X120023830Y-94965830D01*
X120004707Y-95160000D01*
X120023830Y-95354169D01*
X120080471Y-95540888D01*
X120172440Y-95712949D01*
X120172444Y-95712956D01*
X120296221Y-95863778D01*
X120447043Y-95987555D01*
X120447050Y-95987559D01*
X120619111Y-96079528D01*
X120619114Y-96079528D01*
X120619118Y-96079531D01*
X120805828Y-96136169D01*
X121000000Y-96155293D01*
X121194172Y-96136169D01*
X121380882Y-96079531D01*
X121429154Y-96053728D01*
X121497555Y-96039487D01*
X121562799Y-96064486D01*
X121575288Y-96075406D01*
X121738201Y-96238319D01*
X121771686Y-96299642D01*
X121766702Y-96369334D01*
X121724830Y-96425267D01*
X121659366Y-96449684D01*
X121650520Y-96450000D01*
X121250000Y-96450000D01*
X121250000Y-97077596D01*
X121230315Y-97144635D01*
X121177511Y-97190390D01*
X121108355Y-97200334D01*
X121036476Y-97190000D01*
X121036473Y-97190000D01*
X120963527Y-97190000D01*
X120963523Y-97190000D01*
X120891645Y-97200334D01*
X120822487Y-97190390D01*
X120769684Y-97144634D01*
X120750000Y-97077596D01*
X120750000Y-96450000D01*
X120118520Y-96450000D01*
X120024850Y-96464835D01*
X120024844Y-96464837D01*
X119911958Y-96522356D01*
X119911949Y-96522363D01*
X119822363Y-96611949D01*
X119822360Y-96611953D01*
X119764833Y-96724855D01*
X119750000Y-96818513D01*
X119750000Y-97450000D01*
X118380500Y-97450000D01*
X118380500Y-92620000D01*
X120004707Y-92620000D01*
X120023830Y-92814169D01*
X120080471Y-93000888D01*
X120172440Y-93172949D01*
X120172444Y-93172956D01*
X120296221Y-93323778D01*
X120447043Y-93447555D01*
X120447050Y-93447559D01*
X120619111Y-93539528D01*
X120619114Y-93539528D01*
X120619118Y-93539531D01*
X120805828Y-93596169D01*
X121000000Y-93615293D01*
X121194172Y-93596169D01*
X121380882Y-93539531D01*
X121552955Y-93447556D01*
X121703778Y-93323778D01*
X121827556Y-93172955D01*
X121919531Y-93000882D01*
X121976169Y-92814172D01*
X121995293Y-92620000D01*
X121976169Y-92425828D01*
X121919531Y-92239118D01*
X121919528Y-92239114D01*
X121919528Y-92239111D01*
X121827559Y-92067050D01*
X121827555Y-92067043D01*
X121703778Y-91916221D01*
X121552956Y-91792444D01*
X121552949Y-91792440D01*
X121380888Y-91700471D01*
X121380882Y-91700469D01*
X121194172Y-91643831D01*
X121194169Y-91643830D01*
X121000000Y-91624707D01*
X120805830Y-91643830D01*
X120619111Y-91700471D01*
X120447050Y-91792440D01*
X120447043Y-91792444D01*
X120296221Y-91916221D01*
X120172444Y-92067043D01*
X120172440Y-92067050D01*
X120080471Y-92239111D01*
X120023830Y-92425830D01*
X120004707Y-92620000D01*
X118380500Y-92620000D01*
X118380500Y-90080000D01*
X120004707Y-90080000D01*
X120023830Y-90274169D01*
X120080471Y-90460888D01*
X120172440Y-90632949D01*
X120172444Y-90632956D01*
X120296221Y-90783778D01*
X120447043Y-90907555D01*
X120447050Y-90907559D01*
X120619111Y-90999528D01*
X120619114Y-90999528D01*
X120619118Y-90999531D01*
X120805828Y-91056169D01*
X121000000Y-91075293D01*
X121194172Y-91056169D01*
X121380882Y-90999531D01*
X121388600Y-90995406D01*
X121499059Y-90936364D01*
X121552955Y-90907556D01*
X121703778Y-90783778D01*
X121827556Y-90632955D01*
X121919531Y-90460882D01*
X121976169Y-90274172D01*
X121995293Y-90080000D01*
X121976169Y-89885828D01*
X121919531Y-89699118D01*
X121919528Y-89699114D01*
X121919528Y-89699111D01*
X121827559Y-89527050D01*
X121827555Y-89527043D01*
X121703778Y-89376221D01*
X121552956Y-89252444D01*
X121552949Y-89252440D01*
X121380888Y-89160471D01*
X121380882Y-89160469D01*
X121194172Y-89103831D01*
X121194169Y-89103830D01*
X121000000Y-89084707D01*
X120805830Y-89103830D01*
X120619111Y-89160471D01*
X120447050Y-89252440D01*
X120447043Y-89252444D01*
X120296221Y-89376221D01*
X120172444Y-89527043D01*
X120172440Y-89527050D01*
X120080471Y-89699111D01*
X120023830Y-89885830D01*
X120004707Y-90080000D01*
X118380500Y-90080000D01*
X118380500Y-87540000D01*
X120004707Y-87540000D01*
X120023830Y-87734169D01*
X120080471Y-87920888D01*
X120172440Y-88092949D01*
X120172444Y-88092956D01*
X120296221Y-88243778D01*
X120447043Y-88367555D01*
X120447050Y-88367559D01*
X120619111Y-88459528D01*
X120619114Y-88459528D01*
X120619118Y-88459531D01*
X120805828Y-88516169D01*
X121000000Y-88535293D01*
X121194172Y-88516169D01*
X121380882Y-88459531D01*
X121388602Y-88455405D01*
X121552949Y-88367559D01*
X121552955Y-88367556D01*
X121703778Y-88243778D01*
X121827556Y-88092955D01*
X121919531Y-87920882D01*
X121976169Y-87734172D01*
X121995293Y-87540000D01*
X121976169Y-87345828D01*
X121919531Y-87159118D01*
X121919528Y-87159114D01*
X121919528Y-87159111D01*
X121827559Y-86987050D01*
X121827555Y-86987043D01*
X121703778Y-86836221D01*
X121552956Y-86712444D01*
X121552949Y-86712440D01*
X121380888Y-86620471D01*
X121380882Y-86620469D01*
X121194172Y-86563831D01*
X121194169Y-86563830D01*
X121000000Y-86544707D01*
X120805830Y-86563830D01*
X120619111Y-86620471D01*
X120447050Y-86712440D01*
X120447043Y-86712444D01*
X120296221Y-86836221D01*
X120172444Y-86987043D01*
X120172440Y-86987050D01*
X120080471Y-87159111D01*
X120023830Y-87345830D01*
X120004707Y-87540000D01*
X118380500Y-87540000D01*
X118380500Y-84750000D01*
X119750000Y-84750000D01*
X120376231Y-84750000D01*
X120443270Y-84769685D01*
X120489025Y-84822489D01*
X120498969Y-84891647D01*
X120495208Y-84908936D01*
X120490000Y-84926672D01*
X120490000Y-85073327D01*
X120495208Y-85091064D01*
X120495208Y-85160934D01*
X120457434Y-85219712D01*
X120393879Y-85248738D01*
X120376231Y-85250000D01*
X119750001Y-85250000D01*
X119750001Y-85881479D01*
X119764835Y-85975149D01*
X119764837Y-85975155D01*
X119822356Y-86088041D01*
X119822363Y-86088050D01*
X119911949Y-86177636D01*
X119911953Y-86177639D01*
X120024855Y-86235166D01*
X120118514Y-86249999D01*
X120749999Y-86249999D01*
X120750000Y-86249998D01*
X120750000Y-85622403D01*
X120769685Y-85555364D01*
X120822489Y-85509609D01*
X120891646Y-85499665D01*
X120963527Y-85510000D01*
X120963530Y-85510000D01*
X121036470Y-85510000D01*
X121036473Y-85510000D01*
X121108353Y-85499665D01*
X121177512Y-85509609D01*
X121230316Y-85555364D01*
X121250000Y-85622403D01*
X121250000Y-86249999D01*
X121881479Y-86249999D01*
X121975149Y-86235164D01*
X121975155Y-86235162D01*
X122088041Y-86177643D01*
X122088050Y-86177636D01*
X122177636Y-86088050D01*
X122177639Y-86088046D01*
X122235166Y-85975144D01*
X122250000Y-85881486D01*
X122250000Y-85250000D01*
X121623769Y-85250000D01*
X121556730Y-85230315D01*
X121510975Y-85177511D01*
X121501031Y-85108353D01*
X121504792Y-85091064D01*
X121510000Y-85073327D01*
X121510000Y-84926672D01*
X121504792Y-84908936D01*
X121504792Y-84839066D01*
X121542566Y-84780288D01*
X121606121Y-84751262D01*
X121623769Y-84750000D01*
X122249999Y-84750000D01*
X137530000Y-84750000D01*
X138156231Y-84750000D01*
X138223270Y-84769685D01*
X138269025Y-84822489D01*
X138278969Y-84891647D01*
X138275208Y-84908936D01*
X138270000Y-84926672D01*
X138270000Y-85073327D01*
X138275208Y-85091064D01*
X138275208Y-85160934D01*
X138237434Y-85219712D01*
X138173879Y-85248738D01*
X138156231Y-85250000D01*
X137530001Y-85250000D01*
X137530001Y-85881479D01*
X137544835Y-85975149D01*
X137544837Y-85975155D01*
X137602356Y-86088041D01*
X137602363Y-86088050D01*
X137691949Y-86177636D01*
X137691953Y-86177639D01*
X137804855Y-86235166D01*
X137898514Y-86249999D01*
X138529999Y-86249999D01*
X138530000Y-86249998D01*
X138530000Y-85622403D01*
X138549685Y-85555364D01*
X138602489Y-85509609D01*
X138671646Y-85499665D01*
X138743527Y-85510000D01*
X138743530Y-85510000D01*
X138816470Y-85510000D01*
X138816473Y-85510000D01*
X138888353Y-85499665D01*
X138957512Y-85509609D01*
X139010316Y-85555364D01*
X139030000Y-85622403D01*
X139030000Y-86249999D01*
X139661479Y-86249999D01*
X139755149Y-86235164D01*
X139755155Y-86235162D01*
X139868041Y-86177643D01*
X139868050Y-86177636D01*
X139957636Y-86088050D01*
X139957639Y-86088046D01*
X140015166Y-85975144D01*
X140030000Y-85881486D01*
X140030000Y-85250000D01*
X139403769Y-85250000D01*
X139336730Y-85230315D01*
X139290975Y-85177511D01*
X139281031Y-85108353D01*
X139284792Y-85091064D01*
X139290000Y-85073327D01*
X139290000Y-84926672D01*
X139284792Y-84908936D01*
X139284792Y-84839066D01*
X139322566Y-84780288D01*
X139386121Y-84751262D01*
X139403769Y-84750000D01*
X140029999Y-84750000D01*
X140029999Y-84118520D01*
X140015164Y-84024850D01*
X140015162Y-84024844D01*
X139957643Y-83911958D01*
X139957636Y-83911949D01*
X139868050Y-83822363D01*
X139868046Y-83822360D01*
X139755144Y-83764833D01*
X139661486Y-83750000D01*
X139030000Y-83750000D01*
X139030000Y-84377596D01*
X139010315Y-84444635D01*
X138957511Y-84490390D01*
X138888355Y-84500334D01*
X138816476Y-84490000D01*
X138816473Y-84490000D01*
X138743527Y-84490000D01*
X138743523Y-84490000D01*
X138671645Y-84500334D01*
X138602487Y-84490390D01*
X138549684Y-84444634D01*
X138530000Y-84377596D01*
X138530000Y-83750000D01*
X137898520Y-83750000D01*
X137804850Y-83764835D01*
X137804844Y-83764837D01*
X137691958Y-83822356D01*
X137691949Y-83822363D01*
X137602363Y-83911949D01*
X137602360Y-83911953D01*
X137544833Y-84024855D01*
X137530000Y-84118513D01*
X137530000Y-84750000D01*
X122249999Y-84750000D01*
X122249999Y-84118520D01*
X122235164Y-84024850D01*
X122235162Y-84024844D01*
X122177643Y-83911958D01*
X122177636Y-83911949D01*
X122088050Y-83822363D01*
X122088046Y-83822360D01*
X121975144Y-83764833D01*
X121881486Y-83750000D01*
X121250000Y-83750000D01*
X121250000Y-84377596D01*
X121230315Y-84444635D01*
X121177511Y-84490390D01*
X121108355Y-84500334D01*
X121036476Y-84490000D01*
X121036473Y-84490000D01*
X120963527Y-84490000D01*
X120963523Y-84490000D01*
X120891645Y-84500334D01*
X120822487Y-84490390D01*
X120769684Y-84444634D01*
X120750000Y-84377596D01*
X120750000Y-83750000D01*
X120118520Y-83750000D01*
X120024850Y-83764835D01*
X120024844Y-83764837D01*
X119911958Y-83822356D01*
X119911949Y-83822363D01*
X119822363Y-83911949D01*
X119822360Y-83911953D01*
X119764833Y-84024855D01*
X119750000Y-84118513D01*
X119750000Y-84750000D01*
X118380500Y-84750000D01*
X118380500Y-82460000D01*
X120004707Y-82460000D01*
X120023830Y-82654169D01*
X120080471Y-82840888D01*
X120172440Y-83012949D01*
X120172444Y-83012956D01*
X120296221Y-83163778D01*
X120447043Y-83287555D01*
X120447050Y-83287559D01*
X120619111Y-83379528D01*
X120619114Y-83379528D01*
X120619118Y-83379531D01*
X120805828Y-83436169D01*
X121000000Y-83455293D01*
X121194172Y-83436169D01*
X121380882Y-83379531D01*
X121552955Y-83287556D01*
X121703778Y-83163778D01*
X121827556Y-83012955D01*
X121919531Y-82840882D01*
X121976169Y-82654172D01*
X121995293Y-82460000D01*
X137784707Y-82460000D01*
X137803830Y-82654169D01*
X137860471Y-82840888D01*
X137952440Y-83012949D01*
X137952444Y-83012956D01*
X138076221Y-83163778D01*
X138227043Y-83287555D01*
X138227050Y-83287559D01*
X138399111Y-83379528D01*
X138399114Y-83379528D01*
X138399118Y-83379531D01*
X138585828Y-83436169D01*
X138780000Y-83455293D01*
X138974172Y-83436169D01*
X139160882Y-83379531D01*
X139332955Y-83287556D01*
X139483778Y-83163778D01*
X139607556Y-83012955D01*
X139699531Y-82840882D01*
X139756169Y-82654172D01*
X139775293Y-82460000D01*
X139756169Y-82265828D01*
X139699531Y-82079118D01*
X139699528Y-82079114D01*
X139699528Y-82079111D01*
X139607559Y-81907050D01*
X139607555Y-81907043D01*
X139483778Y-81756221D01*
X139332956Y-81632444D01*
X139332949Y-81632440D01*
X139160888Y-81540471D01*
X139160882Y-81540469D01*
X138974172Y-81483831D01*
X138974169Y-81483830D01*
X138780000Y-81464707D01*
X138585830Y-81483830D01*
X138399111Y-81540471D01*
X138227050Y-81632440D01*
X138227043Y-81632444D01*
X138076221Y-81756221D01*
X137952444Y-81907043D01*
X137952440Y-81907050D01*
X137860471Y-82079111D01*
X137803830Y-82265830D01*
X137784707Y-82460000D01*
X121995293Y-82460000D01*
X121976169Y-82265828D01*
X121919531Y-82079118D01*
X121919528Y-82079114D01*
X121919528Y-82079111D01*
X121827559Y-81907050D01*
X121827555Y-81907043D01*
X121703778Y-81756221D01*
X121552956Y-81632444D01*
X121552949Y-81632440D01*
X121380888Y-81540471D01*
X121380882Y-81540469D01*
X121194172Y-81483831D01*
X121194169Y-81483830D01*
X121000000Y-81464707D01*
X120805830Y-81483830D01*
X120619111Y-81540471D01*
X120447050Y-81632440D01*
X120447043Y-81632444D01*
X120296221Y-81756221D01*
X120172444Y-81907043D01*
X120172440Y-81907050D01*
X120080471Y-82079111D01*
X120023830Y-82265830D01*
X120004707Y-82460000D01*
X118380500Y-82460000D01*
X118380500Y-79920000D01*
X120004707Y-79920000D01*
X120023830Y-80114169D01*
X120080471Y-80300888D01*
X120172440Y-80472949D01*
X120172444Y-80472956D01*
X120296221Y-80623778D01*
X120447043Y-80747555D01*
X120447050Y-80747559D01*
X120619111Y-80839528D01*
X120619114Y-80839528D01*
X120619118Y-80839531D01*
X120805828Y-80896169D01*
X121000000Y-80915293D01*
X121194172Y-80896169D01*
X121380882Y-80839531D01*
X121552955Y-80747556D01*
X121703778Y-80623778D01*
X121827556Y-80472955D01*
X121919531Y-80300882D01*
X121976169Y-80114172D01*
X121995293Y-79920000D01*
X137784707Y-79920000D01*
X137803830Y-80114169D01*
X137860471Y-80300888D01*
X137952440Y-80472949D01*
X137952444Y-80472956D01*
X138076221Y-80623778D01*
X138227043Y-80747555D01*
X138227050Y-80747559D01*
X138399111Y-80839528D01*
X138399114Y-80839528D01*
X138399118Y-80839531D01*
X138585828Y-80896169D01*
X138780000Y-80915293D01*
X138974172Y-80896169D01*
X139160882Y-80839531D01*
X139332955Y-80747556D01*
X139483778Y-80623778D01*
X139607556Y-80472955D01*
X139699531Y-80300882D01*
X139756169Y-80114172D01*
X139775293Y-79920000D01*
X139756169Y-79725828D01*
X139699531Y-79539118D01*
X139699528Y-79539114D01*
X139699528Y-79539111D01*
X139607559Y-79367050D01*
X139607555Y-79367043D01*
X139483778Y-79216221D01*
X139332956Y-79092444D01*
X139332949Y-79092440D01*
X139160888Y-79000471D01*
X139160882Y-79000469D01*
X138974172Y-78943831D01*
X138974169Y-78943830D01*
X138780000Y-78924707D01*
X138585830Y-78943830D01*
X138399111Y-79000471D01*
X138227050Y-79092440D01*
X138227043Y-79092444D01*
X138076221Y-79216221D01*
X137952444Y-79367043D01*
X137952440Y-79367050D01*
X137860471Y-79539111D01*
X137803830Y-79725830D01*
X137784707Y-79920000D01*
X121995293Y-79920000D01*
X121976169Y-79725828D01*
X121919531Y-79539118D01*
X121919528Y-79539114D01*
X121919528Y-79539111D01*
X121827559Y-79367050D01*
X121827555Y-79367043D01*
X121703778Y-79216221D01*
X121552956Y-79092444D01*
X121552949Y-79092440D01*
X121380888Y-79000471D01*
X121380882Y-79000469D01*
X121194172Y-78943831D01*
X121194169Y-78943830D01*
X121000000Y-78924707D01*
X120805830Y-78943830D01*
X120619111Y-79000471D01*
X120447050Y-79092440D01*
X120447043Y-79092444D01*
X120296221Y-79216221D01*
X120172444Y-79367043D01*
X120172440Y-79367050D01*
X120080471Y-79539111D01*
X120023830Y-79725830D01*
X120004707Y-79920000D01*
X118380500Y-79920000D01*
X118380500Y-72050000D01*
X119750000Y-72050000D01*
X120376231Y-72050000D01*
X120443270Y-72069685D01*
X120489025Y-72122489D01*
X120498969Y-72191647D01*
X120495208Y-72208936D01*
X120490000Y-72226672D01*
X120490000Y-72373327D01*
X120495208Y-72391064D01*
X120495208Y-72460934D01*
X120457434Y-72519712D01*
X120393879Y-72548738D01*
X120376231Y-72550000D01*
X119750001Y-72550000D01*
X119750001Y-73181479D01*
X119764835Y-73275149D01*
X119764837Y-73275155D01*
X119822356Y-73388041D01*
X119822363Y-73388050D01*
X119911949Y-73477636D01*
X119911953Y-73477639D01*
X120024855Y-73535166D01*
X120118514Y-73549999D01*
X120749999Y-73549999D01*
X120750000Y-73549998D01*
X120750000Y-72922403D01*
X120769685Y-72855364D01*
X120822489Y-72809609D01*
X120891646Y-72799665D01*
X120963527Y-72810000D01*
X120963530Y-72810000D01*
X121036470Y-72810000D01*
X121036473Y-72810000D01*
X121108353Y-72799665D01*
X121177512Y-72809609D01*
X121230316Y-72855364D01*
X121250000Y-72922403D01*
X121250000Y-73549999D01*
X121881479Y-73549999D01*
X121975149Y-73535164D01*
X121975150Y-73535163D01*
X121990285Y-73527452D01*
X122058953Y-73514554D01*
X122123695Y-73540828D01*
X122163954Y-73597933D01*
X122166948Y-73667739D01*
X122134264Y-73725616D01*
X121794167Y-74065713D01*
X121732844Y-74099198D01*
X121663152Y-74094214D01*
X121627821Y-74073885D01*
X121552956Y-74012444D01*
X121552949Y-74012440D01*
X121380888Y-73920471D01*
X121380882Y-73920469D01*
X121194172Y-73863831D01*
X121194169Y-73863830D01*
X121000000Y-73844707D01*
X120805830Y-73863830D01*
X120619111Y-73920471D01*
X120447050Y-74012440D01*
X120447043Y-74012444D01*
X120296221Y-74136221D01*
X120172444Y-74287043D01*
X120172440Y-74287050D01*
X120080471Y-74459111D01*
X120023830Y-74645830D01*
X120004707Y-74840000D01*
X120023830Y-75034169D01*
X120080471Y-75220888D01*
X120172440Y-75392949D01*
X120172444Y-75392956D01*
X120296221Y-75543778D01*
X120447043Y-75667555D01*
X120447050Y-75667559D01*
X120619111Y-75759528D01*
X120619114Y-75759528D01*
X120619118Y-75759531D01*
X120805828Y-75816169D01*
X121000000Y-75835293D01*
X121194172Y-75816169D01*
X121380882Y-75759531D01*
X121552955Y-75667556D01*
X121703778Y-75543778D01*
X121827556Y-75392955D01*
X121919531Y-75220882D01*
X121976169Y-75034172D01*
X121995293Y-74840000D01*
X121976169Y-74645828D01*
X121976167Y-74645824D01*
X121975514Y-74642536D01*
X121975671Y-74640776D01*
X121975572Y-74639766D01*
X121975763Y-74639747D01*
X121981743Y-74572944D01*
X122009449Y-74530667D01*
X123402820Y-73137296D01*
X123464142Y-73103813D01*
X123533834Y-73108797D01*
X123589767Y-73150669D01*
X123614184Y-73216133D01*
X123614500Y-73224979D01*
X123614500Y-74374019D01*
X123594815Y-74441058D01*
X123578181Y-74461700D01*
X121575287Y-76464593D01*
X121513964Y-76498078D01*
X121444272Y-76493094D01*
X121429155Y-76486271D01*
X121388598Y-76464593D01*
X121380885Y-76460470D01*
X121194169Y-76403830D01*
X121000000Y-76384707D01*
X120805830Y-76403830D01*
X120619111Y-76460471D01*
X120447050Y-76552440D01*
X120447043Y-76552444D01*
X120296221Y-76676221D01*
X120172444Y-76827043D01*
X120172440Y-76827050D01*
X120080471Y-76999111D01*
X120023830Y-77185830D01*
X120004707Y-77380000D01*
X120023830Y-77574169D01*
X120080471Y-77760888D01*
X120172440Y-77932949D01*
X120172444Y-77932956D01*
X120296221Y-78083778D01*
X120447043Y-78207555D01*
X120447050Y-78207559D01*
X120619111Y-78299528D01*
X120619114Y-78299528D01*
X120619118Y-78299531D01*
X120805828Y-78356169D01*
X121000000Y-78375293D01*
X121194172Y-78356169D01*
X121380882Y-78299531D01*
X121552955Y-78207556D01*
X121703778Y-78083778D01*
X121827556Y-77932955D01*
X121919531Y-77760882D01*
X121976169Y-77574172D01*
X121995293Y-77380000D01*
X137784707Y-77380000D01*
X137803830Y-77574169D01*
X137860471Y-77760888D01*
X137952440Y-77932949D01*
X137952444Y-77932956D01*
X138076221Y-78083778D01*
X138227043Y-78207555D01*
X138227050Y-78207559D01*
X138399111Y-78299528D01*
X138399114Y-78299528D01*
X138399118Y-78299531D01*
X138585828Y-78356169D01*
X138780000Y-78375293D01*
X138974172Y-78356169D01*
X139160882Y-78299531D01*
X139332955Y-78207556D01*
X139483778Y-78083778D01*
X139607556Y-77932955D01*
X139699531Y-77760882D01*
X139756169Y-77574172D01*
X139775293Y-77380000D01*
X139756169Y-77185828D01*
X139699531Y-76999118D01*
X139699528Y-76999112D01*
X139699528Y-76999111D01*
X139607559Y-76827050D01*
X139607555Y-76827043D01*
X139483778Y-76676221D01*
X139332956Y-76552444D01*
X139332949Y-76552440D01*
X139160888Y-76460471D01*
X139160882Y-76460469D01*
X138974172Y-76403831D01*
X138974169Y-76403830D01*
X138780000Y-76384707D01*
X138585830Y-76403830D01*
X138399111Y-76460471D01*
X138227050Y-76552440D01*
X138227043Y-76552444D01*
X138076221Y-76676221D01*
X137952444Y-76827043D01*
X137952440Y-76827050D01*
X137860471Y-76999111D01*
X137803830Y-77185830D01*
X137784707Y-77380000D01*
X121995293Y-77380000D01*
X121976169Y-77185828D01*
X121919531Y-76999118D01*
X121893728Y-76950845D01*
X121879486Y-76882444D01*
X121904485Y-76817200D01*
X121915397Y-76804719D01*
X123880117Y-74840000D01*
X137784707Y-74840000D01*
X137803830Y-75034169D01*
X137860471Y-75220888D01*
X137952440Y-75392949D01*
X137952444Y-75392956D01*
X138076221Y-75543778D01*
X138227043Y-75667555D01*
X138227050Y-75667559D01*
X138399111Y-75759528D01*
X138399114Y-75759528D01*
X138399118Y-75759531D01*
X138585828Y-75816169D01*
X138780000Y-75835293D01*
X138974172Y-75816169D01*
X139160882Y-75759531D01*
X139332955Y-75667556D01*
X139483778Y-75543778D01*
X139607556Y-75392955D01*
X139699531Y-75220882D01*
X139756169Y-75034172D01*
X139775293Y-74840000D01*
X139756169Y-74645828D01*
X139699531Y-74459118D01*
X139699528Y-74459114D01*
X139699528Y-74459111D01*
X139607559Y-74287050D01*
X139607555Y-74287043D01*
X139483778Y-74136221D01*
X139332956Y-74012444D01*
X139332949Y-74012440D01*
X139160888Y-73920471D01*
X139160882Y-73920469D01*
X138974172Y-73863831D01*
X138974169Y-73863830D01*
X138780000Y-73844707D01*
X138585830Y-73863830D01*
X138399111Y-73920471D01*
X138227050Y-74012440D01*
X138227043Y-74012444D01*
X138076221Y-74136221D01*
X137952444Y-74287043D01*
X137952440Y-74287050D01*
X137860471Y-74459111D01*
X137803830Y-74645830D01*
X137784707Y-74840000D01*
X123880117Y-74840000D01*
X124019496Y-74700621D01*
X124021799Y-74698436D01*
X124053915Y-74669521D01*
X124063039Y-74649024D01*
X124072326Y-74631924D01*
X124084542Y-74613114D01*
X124084542Y-74613113D01*
X124084543Y-74613112D01*
X124085031Y-74610023D01*
X124094227Y-74578978D01*
X124095500Y-74576120D01*
X124095500Y-74553675D01*
X124097024Y-74534304D01*
X124100536Y-74512132D01*
X124099725Y-74509104D01*
X124095500Y-74477013D01*
X124095500Y-72050000D01*
X137530000Y-72050000D01*
X138156231Y-72050000D01*
X138223270Y-72069685D01*
X138269025Y-72122489D01*
X138278969Y-72191647D01*
X138275208Y-72208936D01*
X138270000Y-72226672D01*
X138270000Y-72373327D01*
X138275208Y-72391064D01*
X138275208Y-72460934D01*
X138237434Y-72519712D01*
X138173879Y-72548738D01*
X138156231Y-72550000D01*
X137530001Y-72550000D01*
X137530001Y-73181479D01*
X137544835Y-73275149D01*
X137544837Y-73275155D01*
X137602356Y-73388041D01*
X137602363Y-73388050D01*
X137691949Y-73477636D01*
X137691953Y-73477639D01*
X137804855Y-73535166D01*
X137898514Y-73549999D01*
X138529999Y-73549999D01*
X138530000Y-73549998D01*
X138530000Y-72922403D01*
X138549685Y-72855364D01*
X138602489Y-72809609D01*
X138671646Y-72799665D01*
X138743527Y-72810000D01*
X138743530Y-72810000D01*
X138816470Y-72810000D01*
X138816473Y-72810000D01*
X138888353Y-72799665D01*
X138957512Y-72809609D01*
X139010316Y-72855364D01*
X139030000Y-72922403D01*
X139030000Y-73549999D01*
X139661479Y-73549999D01*
X139755149Y-73535164D01*
X139755155Y-73535162D01*
X139868041Y-73477643D01*
X139868050Y-73477636D01*
X139957636Y-73388050D01*
X139957639Y-73388046D01*
X140015166Y-73275144D01*
X140030000Y-73181486D01*
X140030000Y-72550000D01*
X139403769Y-72550000D01*
X139336730Y-72530315D01*
X139290975Y-72477511D01*
X139281031Y-72408353D01*
X139284792Y-72391064D01*
X139290000Y-72373327D01*
X139290000Y-72226672D01*
X139284792Y-72208936D01*
X139284792Y-72139066D01*
X139322566Y-72080288D01*
X139386121Y-72051262D01*
X139403769Y-72050000D01*
X140029999Y-72050000D01*
X140029999Y-71418520D01*
X140015164Y-71324850D01*
X140015162Y-71324844D01*
X139957643Y-71211958D01*
X139957636Y-71211949D01*
X139868050Y-71122363D01*
X139868046Y-71122360D01*
X139755144Y-71064833D01*
X139661486Y-71050000D01*
X139030000Y-71050000D01*
X139030000Y-71677596D01*
X139010315Y-71744635D01*
X138957511Y-71790390D01*
X138888355Y-71800334D01*
X138816476Y-71790000D01*
X138816473Y-71790000D01*
X138743527Y-71790000D01*
X138743523Y-71790000D01*
X138671645Y-71800334D01*
X138602487Y-71790390D01*
X138549684Y-71744634D01*
X138530000Y-71677596D01*
X138530000Y-71050000D01*
X137898520Y-71050000D01*
X137804850Y-71064835D01*
X137804844Y-71064837D01*
X137691958Y-71122356D01*
X137691949Y-71122363D01*
X137602363Y-71211949D01*
X137602360Y-71211953D01*
X137544833Y-71324855D01*
X137530000Y-71418513D01*
X137530000Y-72050000D01*
X124095500Y-72050000D01*
X124095500Y-70474645D01*
X126564500Y-70474645D01*
X126603855Y-70659802D01*
X126603857Y-70659807D01*
X126680848Y-70832729D01*
X126680851Y-70832734D01*
X126792111Y-70985870D01*
X126792112Y-70985871D01*
X126932784Y-71112533D01*
X127096716Y-71207179D01*
X127276744Y-71265674D01*
X127417808Y-71280500D01*
X127417812Y-71280500D01*
X127512188Y-71280500D01*
X127512192Y-71280500D01*
X127653256Y-71265674D01*
X127833284Y-71207179D01*
X127997216Y-71112533D01*
X128137888Y-70985871D01*
X128249151Y-70832730D01*
X128326144Y-70659803D01*
X128365500Y-70474646D01*
X128365500Y-70474645D01*
X131414500Y-70474645D01*
X131453855Y-70659802D01*
X131453857Y-70659807D01*
X131530848Y-70832729D01*
X131530851Y-70832734D01*
X131642111Y-70985870D01*
X131642112Y-70985871D01*
X131782784Y-71112533D01*
X131946716Y-71207179D01*
X132126744Y-71265674D01*
X132267808Y-71280500D01*
X132267812Y-71280500D01*
X132362188Y-71280500D01*
X132362192Y-71280500D01*
X132503256Y-71265674D01*
X132683284Y-71207179D01*
X132847216Y-71112533D01*
X132987888Y-70985871D01*
X133099151Y-70832730D01*
X133176144Y-70659803D01*
X133215500Y-70474646D01*
X133215500Y-70285354D01*
X133176144Y-70100197D01*
X133099151Y-69927270D01*
X133099148Y-69927265D01*
X132987888Y-69774129D01*
X132972196Y-69760000D01*
X137784707Y-69760000D01*
X137803830Y-69954169D01*
X137860471Y-70140888D01*
X137952440Y-70312949D01*
X137952444Y-70312956D01*
X138076221Y-70463778D01*
X138227043Y-70587555D01*
X138227050Y-70587559D01*
X138399111Y-70679528D01*
X138399114Y-70679528D01*
X138399118Y-70679531D01*
X138585828Y-70736169D01*
X138780000Y-70755293D01*
X138974172Y-70736169D01*
X139160882Y-70679531D01*
X139197791Y-70659803D01*
X139332949Y-70587559D01*
X139332955Y-70587556D01*
X139483778Y-70463778D01*
X139607556Y-70312955D01*
X139699531Y-70140882D01*
X139756169Y-69954172D01*
X139775293Y-69760000D01*
X139756169Y-69565828D01*
X139699531Y-69379118D01*
X139699528Y-69379112D01*
X139699528Y-69379111D01*
X139607559Y-69207050D01*
X139607555Y-69207043D01*
X139483778Y-69056221D01*
X139332956Y-68932444D01*
X139332949Y-68932440D01*
X139160888Y-68840471D01*
X139160882Y-68840469D01*
X138974172Y-68783831D01*
X138974169Y-68783830D01*
X138780000Y-68764707D01*
X138585830Y-68783830D01*
X138399111Y-68840471D01*
X138227050Y-68932440D01*
X138227043Y-68932444D01*
X138076221Y-69056221D01*
X137952444Y-69207043D01*
X137952440Y-69207050D01*
X137860471Y-69379111D01*
X137803830Y-69565830D01*
X137784707Y-69760000D01*
X132972196Y-69760000D01*
X132847216Y-69647467D01*
X132683284Y-69552821D01*
X132683277Y-69552818D01*
X132503259Y-69494327D01*
X132503256Y-69494326D01*
X132362192Y-69479500D01*
X132267808Y-69479500D01*
X132126744Y-69494326D01*
X132126741Y-69494326D01*
X132126740Y-69494327D01*
X131946722Y-69552818D01*
X131946715Y-69552821D01*
X131782785Y-69647466D01*
X131642111Y-69774129D01*
X131530851Y-69927265D01*
X131530848Y-69927270D01*
X131453857Y-70100192D01*
X131453855Y-70100197D01*
X131414500Y-70285354D01*
X131414500Y-70474645D01*
X128365500Y-70474645D01*
X128365500Y-70285354D01*
X128326144Y-70100197D01*
X128249151Y-69927270D01*
X128249148Y-69927265D01*
X128137888Y-69774129D01*
X128122196Y-69760000D01*
X127997216Y-69647467D01*
X127833284Y-69552821D01*
X127833277Y-69552818D01*
X127653259Y-69494327D01*
X127653256Y-69494326D01*
X127512192Y-69479500D01*
X127417808Y-69479500D01*
X127276744Y-69494326D01*
X127276741Y-69494326D01*
X127276740Y-69494327D01*
X127096722Y-69552818D01*
X127096715Y-69552821D01*
X126932785Y-69647466D01*
X126792111Y-69774129D01*
X126680851Y-69927265D01*
X126680848Y-69927270D01*
X126603857Y-70100192D01*
X126603855Y-70100197D01*
X126564500Y-70285354D01*
X126564500Y-70474645D01*
X124095500Y-70474645D01*
X124095500Y-67350000D01*
X126109417Y-67350000D01*
X126129699Y-67555932D01*
X126143336Y-67600888D01*
X126189768Y-67753954D01*
X126287315Y-67936450D01*
X126287317Y-67936452D01*
X126418589Y-68096410D01*
X126471133Y-68139531D01*
X126578550Y-68227685D01*
X126761046Y-68325232D01*
X126959066Y-68385300D01*
X126959065Y-68385300D01*
X126997647Y-68389100D01*
X127113392Y-68400500D01*
X127113395Y-68400500D01*
X127216605Y-68400500D01*
X127216608Y-68400500D01*
X127370934Y-68385300D01*
X127568954Y-68325232D01*
X127751450Y-68227685D01*
X127911410Y-68096410D01*
X128042685Y-67936450D01*
X128140232Y-67753954D01*
X128200300Y-67555934D01*
X128220583Y-67350000D01*
X131559417Y-67350000D01*
X131579699Y-67555932D01*
X131593336Y-67600888D01*
X131639768Y-67753954D01*
X131737315Y-67936450D01*
X131737317Y-67936452D01*
X131868589Y-68096410D01*
X131921133Y-68139531D01*
X132028550Y-68227685D01*
X132211046Y-68325232D01*
X132409066Y-68385300D01*
X132409065Y-68385300D01*
X132447647Y-68389100D01*
X132563392Y-68400500D01*
X132563395Y-68400500D01*
X132666605Y-68400500D01*
X132666608Y-68400500D01*
X132820934Y-68385300D01*
X133018954Y-68325232D01*
X133201450Y-68227685D01*
X133361410Y-68096410D01*
X133492685Y-67936450D01*
X133590232Y-67753954D01*
X133650300Y-67555934D01*
X133670583Y-67350000D01*
X133657779Y-67220000D01*
X137784707Y-67220000D01*
X137803830Y-67414169D01*
X137860471Y-67600888D01*
X137952440Y-67772949D01*
X137952444Y-67772956D01*
X138076221Y-67923778D01*
X138227043Y-68047555D01*
X138227050Y-68047559D01*
X138399111Y-68139528D01*
X138399114Y-68139528D01*
X138399118Y-68139531D01*
X138585828Y-68196169D01*
X138780000Y-68215293D01*
X138974172Y-68196169D01*
X139160882Y-68139531D01*
X139332955Y-68047556D01*
X139483778Y-67923778D01*
X139607556Y-67772955D01*
X139699531Y-67600882D01*
X139756169Y-67414172D01*
X139775293Y-67220000D01*
X139756169Y-67025828D01*
X139699531Y-66839118D01*
X139699528Y-66839112D01*
X139699528Y-66839111D01*
X139607559Y-66667050D01*
X139607555Y-66667043D01*
X139483778Y-66516221D01*
X139332956Y-66392444D01*
X139332949Y-66392440D01*
X139160888Y-66300471D01*
X139160882Y-66300469D01*
X138974172Y-66243831D01*
X138974169Y-66243830D01*
X138780000Y-66224707D01*
X138585830Y-66243830D01*
X138399111Y-66300471D01*
X138227050Y-66392440D01*
X138227043Y-66392444D01*
X138076221Y-66516221D01*
X137952444Y-66667043D01*
X137952440Y-66667050D01*
X137860471Y-66839111D01*
X137803830Y-67025830D01*
X137784707Y-67220000D01*
X133657779Y-67220000D01*
X133650300Y-67144066D01*
X133590232Y-66946046D01*
X133492685Y-66763550D01*
X133413486Y-66667045D01*
X133361410Y-66603589D01*
X133201452Y-66472317D01*
X133201453Y-66472317D01*
X133201450Y-66472315D01*
X133018954Y-66374768D01*
X132820934Y-66314700D01*
X132820932Y-66314699D01*
X132820934Y-66314699D01*
X132701805Y-66302966D01*
X132666608Y-66299500D01*
X132563392Y-66299500D01*
X132525298Y-66303251D01*
X132409067Y-66314699D01*
X132211043Y-66374769D01*
X132100898Y-66433643D01*
X132028550Y-66472315D01*
X132028548Y-66472316D01*
X132028547Y-66472317D01*
X131868589Y-66603589D01*
X131737317Y-66763547D01*
X131737315Y-66763550D01*
X131698643Y-66835898D01*
X131639769Y-66946043D01*
X131579699Y-67144067D01*
X131559417Y-67350000D01*
X128220583Y-67350000D01*
X128200300Y-67144066D01*
X128140232Y-66946046D01*
X128042685Y-66763550D01*
X127963486Y-66667045D01*
X127911410Y-66603589D01*
X127751452Y-66472317D01*
X127751453Y-66472317D01*
X127751450Y-66472315D01*
X127568954Y-66374768D01*
X127370934Y-66314700D01*
X127370932Y-66314699D01*
X127370934Y-66314699D01*
X127251805Y-66302966D01*
X127216608Y-66299500D01*
X127113392Y-66299500D01*
X127075298Y-66303251D01*
X126959067Y-66314699D01*
X126761043Y-66374769D01*
X126650898Y-66433643D01*
X126578550Y-66472315D01*
X126578548Y-66472316D01*
X126578547Y-66472317D01*
X126418589Y-66603589D01*
X126287317Y-66763547D01*
X126287315Y-66763550D01*
X126248643Y-66835898D01*
X126189769Y-66946043D01*
X126129699Y-67144067D01*
X126109417Y-67350000D01*
X124095500Y-67350000D01*
X124095500Y-63820001D01*
X135819582Y-63820001D01*
X135839231Y-64094727D01*
X135839232Y-64094734D01*
X135897775Y-64363854D01*
X135897777Y-64363862D01*
X135994030Y-64621925D01*
X135994032Y-64621930D01*
X136126025Y-64863657D01*
X136126030Y-64863665D01*
X136291080Y-65084147D01*
X136291096Y-65084165D01*
X136485834Y-65278903D01*
X136485852Y-65278919D01*
X136706334Y-65443969D01*
X136706342Y-65443974D01*
X136948069Y-65575967D01*
X136948068Y-65575967D01*
X136948072Y-65575968D01*
X136948075Y-65575970D01*
X137206138Y-65672223D01*
X137475273Y-65730769D01*
X137681238Y-65745500D01*
X137818762Y-65745500D01*
X138024727Y-65730769D01*
X138293862Y-65672223D01*
X138551925Y-65575970D01*
X138793663Y-65443971D01*
X139014155Y-65278913D01*
X139208913Y-65084155D01*
X139373971Y-64863663D01*
X139505970Y-64621925D01*
X139602223Y-64363862D01*
X139660769Y-64094727D01*
X139680418Y-63820000D01*
X139660769Y-63545273D01*
X139602223Y-63276138D01*
X139505970Y-63018075D01*
X139481401Y-62973081D01*
X139373974Y-62776342D01*
X139373969Y-62776334D01*
X139208919Y-62555852D01*
X139208903Y-62555834D01*
X139014165Y-62361096D01*
X139014147Y-62361080D01*
X138793665Y-62196030D01*
X138793657Y-62196025D01*
X138551930Y-62064032D01*
X138551931Y-62064032D01*
X138501679Y-62045289D01*
X138293862Y-61967777D01*
X138293855Y-61967775D01*
X138293854Y-61967775D01*
X138024734Y-61909232D01*
X138024727Y-61909231D01*
X137818762Y-61894500D01*
X137681238Y-61894500D01*
X137475272Y-61909231D01*
X137475265Y-61909232D01*
X137206145Y-61967775D01*
X137206141Y-61967776D01*
X137206138Y-61967777D01*
X137047147Y-62027078D01*
X136948069Y-62064032D01*
X136706342Y-62196025D01*
X136706334Y-62196030D01*
X136485852Y-62361080D01*
X136485834Y-62361096D01*
X136291096Y-62555834D01*
X136291080Y-62555852D01*
X136126030Y-62776334D01*
X136126025Y-62776342D01*
X135994032Y-63018069D01*
X135969438Y-63084009D01*
X135897777Y-63276138D01*
X135897776Y-63276141D01*
X135897775Y-63276145D01*
X135839232Y-63545265D01*
X135839231Y-63545272D01*
X135819582Y-63819998D01*
X135819582Y-63820001D01*
X124095500Y-63820001D01*
X124095500Y-61528356D01*
X124115185Y-61461317D01*
X124131819Y-61440675D01*
X124195072Y-61377422D01*
X124351636Y-61220857D01*
X124370416Y-61205445D01*
X124378563Y-61200002D01*
X129329299Y-61200002D01*
X129349904Y-61303592D01*
X129349904Y-61303593D01*
X129385080Y-61356238D01*
X129408585Y-61391415D01*
X129461230Y-61426590D01*
X129496406Y-61450095D01*
X129599998Y-61470701D01*
X129600000Y-61470701D01*
X129600002Y-61470701D01*
X129651796Y-61460398D01*
X129703593Y-61450095D01*
X129781113Y-61398298D01*
X129847786Y-61377422D01*
X129915166Y-61395906D01*
X129918820Y-61398254D01*
X129996407Y-61450095D01*
X130030937Y-61456963D01*
X130099998Y-61470701D01*
X130100000Y-61470701D01*
X130100002Y-61470701D01*
X130169061Y-61456963D01*
X130203593Y-61450095D01*
X130291415Y-61391415D01*
X130350095Y-61303593D01*
X130370701Y-61200000D01*
X130350095Y-61096407D01*
X130350091Y-61096401D01*
X130349939Y-61096033D01*
X130340500Y-61048579D01*
X130340500Y-60839177D01*
X130360185Y-60772139D01*
X130376814Y-60751503D01*
X134139496Y-56988821D01*
X134141799Y-56986636D01*
X134173915Y-56957721D01*
X134183039Y-56937224D01*
X134192326Y-56920124D01*
X134204542Y-56901314D01*
X134204542Y-56901313D01*
X134204543Y-56901312D01*
X134204750Y-56900002D01*
X136104632Y-56900002D01*
X136123981Y-57022172D01*
X136123983Y-57022175D01*
X136180141Y-57132391D01*
X136180143Y-57132393D01*
X136180145Y-57132396D01*
X136267603Y-57219854D01*
X136267605Y-57219855D01*
X136267609Y-57219859D01*
X136377825Y-57276017D01*
X136377827Y-57276018D01*
X136499998Y-57295368D01*
X136500000Y-57295368D01*
X136500002Y-57295368D01*
X136622172Y-57276018D01*
X136622173Y-57276017D01*
X136622175Y-57276017D01*
X136732391Y-57219859D01*
X136819859Y-57132391D01*
X136876017Y-57022175D01*
X136876017Y-57022173D01*
X136876018Y-57022172D01*
X136895368Y-56900002D01*
X136895368Y-56899997D01*
X136876018Y-56777827D01*
X136842478Y-56712002D01*
X136819859Y-56667609D01*
X136819855Y-56667605D01*
X136819854Y-56667603D01*
X136732396Y-56580145D01*
X136732393Y-56580143D01*
X136732391Y-56580141D01*
X136657484Y-56541974D01*
X136622172Y-56523981D01*
X136500002Y-56504632D01*
X136499998Y-56504632D01*
X136377827Y-56523981D01*
X136304347Y-56561421D01*
X136267609Y-56580141D01*
X136267608Y-56580142D01*
X136267603Y-56580145D01*
X136180145Y-56667603D01*
X136180142Y-56667608D01*
X136123981Y-56777827D01*
X136104632Y-56899997D01*
X136104632Y-56900002D01*
X134204750Y-56900002D01*
X134205031Y-56898223D01*
X134214227Y-56867178D01*
X134215500Y-56864320D01*
X134215500Y-56841884D01*
X134217027Y-56822486D01*
X134220536Y-56800332D01*
X134219725Y-56797304D01*
X134215500Y-56765213D01*
X134215500Y-54319170D01*
X135607302Y-54319170D01*
X135612318Y-54427663D01*
X135612318Y-54427664D01*
X135622318Y-54450311D01*
X135656187Y-54527016D01*
X139083182Y-57954011D01*
X139116666Y-58015332D01*
X139119500Y-58041690D01*
X139119500Y-61749100D01*
X139118905Y-61757673D01*
X139117302Y-61769167D01*
X139119434Y-61815286D01*
X139119500Y-61818149D01*
X139119500Y-61836921D01*
X139119950Y-61839327D01*
X139120939Y-61847858D01*
X139122318Y-61877664D01*
X139124830Y-61883354D01*
X139133280Y-61910641D01*
X139134422Y-61916753D01*
X139134425Y-61916758D01*
X139150128Y-61942121D01*
X139154136Y-61949724D01*
X139162107Y-61967777D01*
X139166188Y-61977018D01*
X139170580Y-61981410D01*
X139188325Y-62003812D01*
X139191596Y-62009095D01*
X139191597Y-62009096D01*
X139191599Y-62009099D01*
X139215408Y-62027078D01*
X139221885Y-62032714D01*
X139965506Y-62776334D01*
X140273181Y-63084009D01*
X140306666Y-63145332D01*
X140309500Y-63171690D01*
X140309500Y-90628308D01*
X140289815Y-90695347D01*
X140273181Y-90715989D01*
X139309207Y-91679962D01*
X139247884Y-91713447D01*
X139178192Y-91708463D01*
X139163079Y-91701642D01*
X139160890Y-91700472D01*
X139160884Y-91700470D01*
X139160882Y-91700469D01*
X138974172Y-91643831D01*
X138974169Y-91643830D01*
X138780000Y-91624707D01*
X138585830Y-91643830D01*
X138399111Y-91700471D01*
X138227050Y-91792440D01*
X138227043Y-91792444D01*
X138076221Y-91916221D01*
X137952444Y-92067043D01*
X137952440Y-92067050D01*
X137860471Y-92239111D01*
X137803830Y-92425830D01*
X137784707Y-92620000D01*
X137803830Y-92814169D01*
X137860471Y-93000888D01*
X137952440Y-93172949D01*
X137952444Y-93172956D01*
X138076221Y-93323778D01*
X138227043Y-93447555D01*
X138227050Y-93447559D01*
X138399111Y-93539528D01*
X138399114Y-93539528D01*
X138399118Y-93539531D01*
X138585828Y-93596169D01*
X138780000Y-93615293D01*
X138974172Y-93596169D01*
X139160882Y-93539531D01*
X139332955Y-93447556D01*
X139483778Y-93323778D01*
X139607556Y-93172955D01*
X139699531Y-93000882D01*
X139756169Y-92814172D01*
X139775293Y-92620000D01*
X139756169Y-92425828D01*
X139699531Y-92239118D01*
X139698360Y-92236928D01*
X139698093Y-92235645D01*
X139697199Y-92233486D01*
X139697608Y-92233316D01*
X139684116Y-92168528D01*
X139709114Y-92103283D01*
X139720029Y-92090798D01*
X140762358Y-91048469D01*
X140768840Y-91042829D01*
X140778093Y-91035842D01*
X140778098Y-91035840D01*
X140809219Y-91001700D01*
X140811170Y-90999657D01*
X140824449Y-90986380D01*
X140825829Y-90984364D01*
X140831160Y-90977631D01*
X140851266Y-90955578D01*
X140853510Y-90949784D01*
X140866841Y-90924492D01*
X140870350Y-90919371D01*
X140874594Y-90901325D01*
X140877180Y-90890332D01*
X140879720Y-90882126D01*
X140890500Y-90854304D01*
X140890500Y-90848089D01*
X140893794Y-90819697D01*
X140895217Y-90813648D01*
X140891094Y-90784097D01*
X140890500Y-90775524D01*
X140890500Y-63060896D01*
X140891095Y-63052320D01*
X140892696Y-63040834D01*
X140892698Y-63040830D01*
X140890566Y-62994712D01*
X140890500Y-62991849D01*
X140890500Y-62973085D01*
X140890500Y-62973082D01*
X140890050Y-62970677D01*
X140889059Y-62962135D01*
X140889010Y-62961080D01*
X140887682Y-62932338D01*
X140885172Y-62926655D01*
X140876715Y-62899343D01*
X140875575Y-62893242D01*
X140859870Y-62867878D01*
X140855863Y-62860275D01*
X140843814Y-62832986D01*
X140843813Y-62832985D01*
X140843813Y-62832984D01*
X140839420Y-62828591D01*
X140821672Y-62806184D01*
X140818401Y-62800901D01*
X140794589Y-62782919D01*
X140788111Y-62777282D01*
X139736819Y-61725989D01*
X139703334Y-61664666D01*
X139700500Y-61638308D01*
X139700500Y-61100061D01*
X139720185Y-61033022D01*
X139772989Y-60987267D01*
X139842147Y-60977323D01*
X139905703Y-61006348D01*
X139934982Y-61043763D01*
X139980141Y-61132391D01*
X139980142Y-61132392D01*
X139980145Y-61132396D01*
X140067603Y-61219854D01*
X140067605Y-61219855D01*
X140067609Y-61219859D01*
X140177825Y-61276017D01*
X140177827Y-61276018D01*
X140299998Y-61295368D01*
X140300000Y-61295368D01*
X140300002Y-61295368D01*
X140422172Y-61276018D01*
X140422173Y-61276017D01*
X140422175Y-61276017D01*
X140532391Y-61219859D01*
X140619859Y-61132391D01*
X140676017Y-61022175D01*
X140676017Y-61022173D01*
X140676018Y-61022172D01*
X140695368Y-60900002D01*
X140695368Y-60899997D01*
X140676018Y-60777827D01*
X140665015Y-60756233D01*
X140619859Y-60667609D01*
X140619855Y-60667605D01*
X140619854Y-60667603D01*
X140532396Y-60580145D01*
X140532393Y-60580143D01*
X140532391Y-60580141D01*
X140439621Y-60532872D01*
X140422172Y-60523981D01*
X140300002Y-60504632D01*
X140299998Y-60504632D01*
X140177827Y-60523981D01*
X140104347Y-60561421D01*
X140067609Y-60580141D01*
X140067608Y-60580142D01*
X140067603Y-60580145D01*
X139980145Y-60667603D01*
X139980142Y-60667608D01*
X139980141Y-60667609D01*
X139934985Y-60756233D01*
X139887010Y-60807029D01*
X139819189Y-60823824D01*
X139753054Y-60801286D01*
X139709603Y-60746571D01*
X139700500Y-60699938D01*
X139700500Y-57930903D01*
X139701095Y-57922328D01*
X139702698Y-57910832D01*
X139702699Y-57910830D01*
X139700566Y-57864700D01*
X139700500Y-57861836D01*
X139700500Y-57843086D01*
X139700500Y-57843082D01*
X139700049Y-57840673D01*
X139699060Y-57832144D01*
X139697682Y-57802339D01*
X139695169Y-57796649D01*
X139686717Y-57769349D01*
X139685576Y-57763244D01*
X139685575Y-57763242D01*
X139669873Y-57737882D01*
X139665866Y-57730282D01*
X139653814Y-57702984D01*
X139649417Y-57698587D01*
X139631667Y-57676177D01*
X139628400Y-57670900D01*
X139623768Y-57667402D01*
X139604589Y-57652919D01*
X139598119Y-57647289D01*
X136086381Y-54135552D01*
X136019372Y-54089650D01*
X136019371Y-54089649D01*
X136019370Y-54089649D01*
X135913651Y-54064783D01*
X135913650Y-54064783D01*
X135913649Y-54064783D01*
X135859866Y-54072285D01*
X135806082Y-54079788D01*
X135711200Y-54132637D01*
X135641817Y-54216192D01*
X135607302Y-54319170D01*
X134215500Y-54319170D01*
X134215500Y-44670002D01*
X137904632Y-44670002D01*
X137923981Y-44792172D01*
X137923983Y-44792175D01*
X137980141Y-44902391D01*
X137980143Y-44902393D01*
X137980145Y-44902396D01*
X138067603Y-44989854D01*
X138067605Y-44989855D01*
X138067609Y-44989859D01*
X138177825Y-45046017D01*
X138177827Y-45046018D01*
X138299998Y-45065368D01*
X138300000Y-45065368D01*
X138300002Y-45065368D01*
X138422172Y-45046018D01*
X138422173Y-45046017D01*
X138422175Y-45046017D01*
X138532391Y-44989859D01*
X138619859Y-44902391D01*
X138676017Y-44792175D01*
X138676017Y-44792173D01*
X138676018Y-44792172D01*
X138695368Y-44670002D01*
X138695368Y-44669997D01*
X138676018Y-44547827D01*
X138676017Y-44547825D01*
X138619859Y-44437609D01*
X138619855Y-44437605D01*
X138619854Y-44437603D01*
X138532396Y-44350145D01*
X138532393Y-44350143D01*
X138532391Y-44350141D01*
X138457484Y-44311974D01*
X138422172Y-44293981D01*
X138300002Y-44274632D01*
X138299998Y-44274632D01*
X138177827Y-44293981D01*
X138104347Y-44331421D01*
X138067609Y-44350141D01*
X138067608Y-44350142D01*
X138067603Y-44350145D01*
X137980145Y-44437603D01*
X137980142Y-44437608D01*
X137923981Y-44547827D01*
X137904632Y-44669997D01*
X137904632Y-44670002D01*
X134215500Y-44670002D01*
X134215500Y-39313836D01*
X137209500Y-39313836D01*
X137209501Y-39313839D01*
X137209501Y-39313840D01*
X137217651Y-39354821D01*
X137248705Y-39401295D01*
X137295179Y-39432349D01*
X137336159Y-39440500D01*
X139063840Y-39440499D01*
X139104821Y-39432349D01*
X139151295Y-39401295D01*
X139182349Y-39354821D01*
X139190500Y-39313841D01*
X139190499Y-37586160D01*
X139182349Y-37545179D01*
X139151295Y-37498705D01*
X139104821Y-37467651D01*
X139063841Y-37459500D01*
X139063839Y-37459500D01*
X137336163Y-37459500D01*
X137295178Y-37467650D01*
X137295179Y-37467651D01*
X137248705Y-37498705D01*
X137238401Y-37514124D01*
X137217651Y-37545178D01*
X137209500Y-37586160D01*
X137209500Y-39313836D01*
X134215500Y-39313836D01*
X134215500Y-37247018D01*
X134215585Y-37243772D01*
X134217846Y-37200633D01*
X134216968Y-37198346D01*
X134209805Y-37179683D01*
X134204280Y-37161032D01*
X134199616Y-37139089D01*
X134197774Y-37136553D01*
X134182329Y-37108107D01*
X134181207Y-37105183D01*
X134165344Y-37089320D01*
X134152706Y-37074523D01*
X134139523Y-37056378D01*
X134139516Y-37056372D01*
X134136805Y-37054807D01*
X134111127Y-37035103D01*
X131151708Y-34075685D01*
X131135392Y-34055537D01*
X131134906Y-34054788D01*
X131134905Y-34054786D01*
X131119042Y-34038923D01*
X131106405Y-34024127D01*
X131093222Y-34005982D01*
X131093214Y-34005975D01*
X131090503Y-34004410D01*
X131064825Y-33984706D01*
X130557020Y-33476901D01*
X130523535Y-33415578D01*
X130523146Y-33411966D01*
X130523084Y-33411979D01*
X130500095Y-33296407D01*
X130500095Y-33296406D01*
X130451661Y-33223920D01*
X130441415Y-33208585D01*
X130401362Y-33181823D01*
X130353593Y-33149904D01*
X130270584Y-33133393D01*
X133369999Y-33133393D01*
X133370000Y-33529999D01*
X133370000Y-33530000D01*
X133896000Y-33530000D01*
X133963039Y-33549685D01*
X134008794Y-33602489D01*
X134020000Y-33654000D01*
X134020000Y-33906000D01*
X134000315Y-33973039D01*
X133947511Y-34018794D01*
X133896000Y-34030000D01*
X133370000Y-34030000D01*
X133370000Y-34378176D01*
X133384647Y-34522221D01*
X133442484Y-34706561D01*
X133442489Y-34706571D01*
X133536251Y-34875498D01*
X133536256Y-34875505D01*
X133662107Y-35022105D01*
X133814890Y-35140368D01*
X133814894Y-35140370D01*
X133988363Y-35225460D01*
X134069999Y-35246595D01*
X134069999Y-34684978D01*
X134089683Y-34617939D01*
X134142487Y-34572184D01*
X134211646Y-34562240D01*
X134227932Y-34565711D01*
X134291840Y-34583895D01*
X134403521Y-34573546D01*
X134403526Y-34573543D01*
X134412063Y-34571115D01*
X134481930Y-34571701D01*
X134540390Y-34609966D01*
X134568881Y-34673763D01*
X134570000Y-34690381D01*
X134570000Y-35250470D01*
X134740524Y-35187315D01*
X134740531Y-35187312D01*
X134904503Y-35085107D01*
X135044534Y-34951997D01*
X135044535Y-34951996D01*
X135154913Y-34793413D01*
X135231106Y-34615862D01*
X135270000Y-34426606D01*
X135270000Y-34030000D01*
X134744000Y-34030000D01*
X134676961Y-34010315D01*
X134631206Y-33957511D01*
X134620000Y-33906000D01*
X134620000Y-33654000D01*
X134639685Y-33586961D01*
X134692489Y-33541206D01*
X134744000Y-33530000D01*
X135270000Y-33530000D01*
X135270000Y-33181823D01*
X135255352Y-33037778D01*
X135197515Y-32853438D01*
X135197510Y-32853428D01*
X135103748Y-32684501D01*
X135103743Y-32684494D01*
X134977892Y-32537894D01*
X134825109Y-32419631D01*
X134825105Y-32419629D01*
X134651642Y-32334542D01*
X134651643Y-32334542D01*
X134570000Y-32313403D01*
X134570000Y-32875021D01*
X134550315Y-32942060D01*
X134497511Y-32987815D01*
X134428353Y-32997759D01*
X134412066Y-32994287D01*
X134348162Y-32976105D01*
X134348162Y-32976104D01*
X134236475Y-32986454D01*
X134227931Y-32988885D01*
X134158064Y-32988297D01*
X134099606Y-32950028D01*
X134071118Y-32886230D01*
X134070000Y-32869618D01*
X134070000Y-32309528D01*
X133899472Y-32372685D01*
X133899468Y-32372687D01*
X133735496Y-32474892D01*
X133595465Y-32608002D01*
X133595464Y-32608003D01*
X133485086Y-32766586D01*
X133408893Y-32944137D01*
X133369999Y-33133393D01*
X130270584Y-33133393D01*
X130250002Y-33129299D01*
X130249998Y-33129299D01*
X130146407Y-33149904D01*
X130146406Y-33149904D01*
X130058585Y-33208584D01*
X129999902Y-33296411D01*
X129999744Y-33296794D01*
X129972868Y-33337012D01*
X129703173Y-33606707D01*
X129641850Y-33640192D01*
X129574918Y-33635405D01*
X129578939Y-33639881D01*
X129590115Y-33708851D01*
X129571078Y-33760932D01*
X129570458Y-33761886D01*
X129570457Y-33761889D01*
X129569966Y-33764989D01*
X129560778Y-33796007D01*
X129559501Y-33798875D01*
X129559500Y-33798881D01*
X129559500Y-33821314D01*
X129557973Y-33840712D01*
X129554463Y-33862867D01*
X129554464Y-33862871D01*
X129555276Y-33865902D01*
X129559499Y-33897988D01*
X129559499Y-34048579D01*
X129550064Y-34096022D01*
X129549905Y-34096405D01*
X129529299Y-34199998D01*
X129529299Y-34200002D01*
X129549904Y-34303592D01*
X129549904Y-34303593D01*
X129585080Y-34356238D01*
X129608585Y-34391415D01*
X129661230Y-34426590D01*
X129696406Y-34450095D01*
X129799998Y-34470701D01*
X129800000Y-34470701D01*
X129800002Y-34470701D01*
X129869061Y-34456963D01*
X129903593Y-34450095D01*
X129931109Y-34431710D01*
X129997787Y-34410832D01*
X130065167Y-34429317D01*
X130068891Y-34431710D01*
X130096404Y-34450094D01*
X130096406Y-34450094D01*
X130096407Y-34450095D01*
X130200000Y-34470701D01*
X130200003Y-34470700D01*
X130201283Y-34470955D01*
X130263195Y-34503340D01*
X130264774Y-34504892D01*
X130394165Y-34634283D01*
X130396278Y-34636892D01*
X130420149Y-34660762D01*
X130432787Y-34675559D01*
X130445976Y-34693711D01*
X130445975Y-34693711D01*
X130448686Y-34695276D01*
X130474372Y-34714985D01*
X133248182Y-37488795D01*
X133281666Y-37550116D01*
X133284500Y-37576474D01*
X133284500Y-41935423D01*
X133264815Y-42002462D01*
X133212011Y-42048217D01*
X133142853Y-42058161D01*
X133141102Y-42057896D01*
X133010002Y-42037132D01*
X133009998Y-42037132D01*
X132887827Y-42056481D01*
X132814347Y-42093921D01*
X132777609Y-42112641D01*
X132777608Y-42112642D01*
X132777603Y-42112645D01*
X132690145Y-42200103D01*
X132690142Y-42200108D01*
X132633981Y-42310327D01*
X132614632Y-42432497D01*
X132614632Y-42432502D01*
X132633981Y-42554672D01*
X132633983Y-42554675D01*
X132690141Y-42664891D01*
X132690143Y-42664893D01*
X132690145Y-42664896D01*
X132777603Y-42752354D01*
X132777605Y-42752355D01*
X132777609Y-42752359D01*
X132885050Y-42807103D01*
X132887827Y-42808518D01*
X133009998Y-42827868D01*
X133010000Y-42827868D01*
X133010001Y-42827868D01*
X133084570Y-42816057D01*
X133132175Y-42808517D01*
X133132175Y-42808516D01*
X133141101Y-42807103D01*
X133210395Y-42816057D01*
X133263847Y-42861053D01*
X133284487Y-42927805D01*
X133284500Y-42929576D01*
X133284500Y-56475819D01*
X133264815Y-56542858D01*
X133248181Y-56563500D01*
X129435547Y-60376134D01*
X129433193Y-60378368D01*
X129401084Y-60407279D01*
X129391959Y-60427775D01*
X129382676Y-60444872D01*
X129370458Y-60463686D01*
X129370457Y-60463689D01*
X129369966Y-60466789D01*
X129360778Y-60497807D01*
X129359501Y-60500675D01*
X129359500Y-60500681D01*
X129359500Y-60523114D01*
X129357973Y-60542512D01*
X129354463Y-60564667D01*
X129354464Y-60564671D01*
X129355276Y-60567702D01*
X129359499Y-60599788D01*
X129359499Y-61048579D01*
X129350064Y-61096022D01*
X129349905Y-61096405D01*
X129329299Y-61199998D01*
X129329299Y-61200002D01*
X124378563Y-61200002D01*
X124391415Y-61191415D01*
X124430850Y-61132396D01*
X124450094Y-61103596D01*
X124450095Y-61103592D01*
X124470701Y-61000000D01*
X124450095Y-60896407D01*
X124450095Y-60896406D01*
X124401597Y-60823824D01*
X124391415Y-60808585D01*
X124345379Y-60777825D01*
X124303593Y-60749904D01*
X124200002Y-60729299D01*
X124199998Y-60729299D01*
X124096407Y-60749904D01*
X124096406Y-60749904D01*
X124006777Y-60809793D01*
X123940099Y-60830671D01*
X123872719Y-60812186D01*
X123869009Y-60809802D01*
X123851512Y-60798111D01*
X123803593Y-60766092D01*
X123700002Y-60745487D01*
X123699998Y-60745487D01*
X123596406Y-60766092D01*
X123586948Y-60770010D01*
X123517479Y-60777476D01*
X123455001Y-60746199D01*
X123419351Y-60686108D01*
X123415500Y-60655447D01*
X123415500Y-59192167D01*
X123435185Y-59125128D01*
X123451815Y-59104490D01*
X123902850Y-58653454D01*
X123921630Y-58638042D01*
X123991415Y-58591415D01*
X124050095Y-58503593D01*
X124070701Y-58400000D01*
X124050095Y-58296407D01*
X124050095Y-58296406D01*
X124026590Y-58261230D01*
X123991415Y-58208585D01*
X123956238Y-58185080D01*
X123903593Y-58149904D01*
X123800002Y-58129299D01*
X123799998Y-58129299D01*
X123696407Y-58149904D01*
X123696406Y-58149904D01*
X123618891Y-58201699D01*
X123552213Y-58222577D01*
X123484833Y-58204092D01*
X123481109Y-58201699D01*
X123403593Y-58149904D01*
X123300002Y-58129299D01*
X123299998Y-58129299D01*
X123196407Y-58149904D01*
X123196406Y-58149904D01*
X123108585Y-58208584D01*
X123049902Y-58296411D01*
X123049744Y-58296794D01*
X123022868Y-58337012D01*
X122670547Y-58689334D01*
X122668193Y-58691568D01*
X122636084Y-58720479D01*
X122626959Y-58740975D01*
X122617676Y-58758072D01*
X122605458Y-58776886D01*
X122605457Y-58776889D01*
X122604966Y-58779989D01*
X122595778Y-58811007D01*
X122594501Y-58813875D01*
X122594500Y-58813881D01*
X122594500Y-58836314D01*
X122592973Y-58855712D01*
X122589463Y-58877867D01*
X122589463Y-58877868D01*
X122590275Y-58880895D01*
X122594500Y-58912988D01*
X122594500Y-65234018D01*
X122574815Y-65301057D01*
X122558181Y-65321699D01*
X121575287Y-66304593D01*
X121513964Y-66338078D01*
X121444272Y-66333094D01*
X121429155Y-66326271D01*
X121388598Y-66304593D01*
X121380885Y-66300470D01*
X121377687Y-66299500D01*
X121194172Y-66243831D01*
X121194169Y-66243830D01*
X121000000Y-66224707D01*
X120805830Y-66243830D01*
X120619111Y-66300471D01*
X120447050Y-66392440D01*
X120447043Y-66392444D01*
X120296221Y-66516221D01*
X120172444Y-66667043D01*
X120172440Y-66667050D01*
X120080471Y-66839111D01*
X120023830Y-67025830D01*
X120004707Y-67220000D01*
X120023830Y-67414169D01*
X120080471Y-67600888D01*
X120172440Y-67772949D01*
X120172444Y-67772956D01*
X120296221Y-67923778D01*
X120447043Y-68047555D01*
X120447050Y-68047559D01*
X120619111Y-68139528D01*
X120619114Y-68139528D01*
X120619118Y-68139531D01*
X120805828Y-68196169D01*
X121000000Y-68215293D01*
X121194172Y-68196169D01*
X121380882Y-68139531D01*
X121552955Y-68047556D01*
X121703778Y-67923778D01*
X121827556Y-67772955D01*
X121919531Y-67600882D01*
X121976169Y-67414172D01*
X121995293Y-67220000D01*
X121976169Y-67025828D01*
X121919531Y-66839118D01*
X121893728Y-66790845D01*
X121879486Y-66722444D01*
X121904485Y-66657200D01*
X121915397Y-66644719D01*
X122722821Y-65837295D01*
X122784141Y-65803813D01*
X122853833Y-65808797D01*
X122909766Y-65850669D01*
X122934183Y-65916133D01*
X122934499Y-65924979D01*
X122934499Y-67434019D01*
X122914814Y-67501058D01*
X122898180Y-67521700D01*
X121575287Y-68844593D01*
X121513964Y-68878078D01*
X121444272Y-68873094D01*
X121429155Y-68866271D01*
X121388598Y-68844593D01*
X121380885Y-68840470D01*
X121194169Y-68783830D01*
X121000000Y-68764707D01*
X120805830Y-68783830D01*
X120619111Y-68840471D01*
X120447050Y-68932440D01*
X120447043Y-68932444D01*
X120296221Y-69056221D01*
X120172444Y-69207043D01*
X120172440Y-69207050D01*
X120080471Y-69379111D01*
X120023830Y-69565830D01*
X120004707Y-69760000D01*
X120023830Y-69954169D01*
X120080471Y-70140888D01*
X120172440Y-70312949D01*
X120172444Y-70312956D01*
X120296221Y-70463778D01*
X120447043Y-70587555D01*
X120447050Y-70587559D01*
X120619111Y-70679528D01*
X120619114Y-70679528D01*
X120619118Y-70679531D01*
X120805828Y-70736169D01*
X121000000Y-70755293D01*
X121194172Y-70736169D01*
X121380882Y-70679531D01*
X121417791Y-70659803D01*
X121552949Y-70587559D01*
X121552955Y-70587556D01*
X121703778Y-70463778D01*
X121827556Y-70312955D01*
X121919531Y-70140882D01*
X121976169Y-69954172D01*
X121995293Y-69760000D01*
X121976169Y-69565828D01*
X121919531Y-69379118D01*
X121893728Y-69330845D01*
X121879486Y-69262444D01*
X121904485Y-69197200D01*
X121915397Y-69184719D01*
X123062820Y-68037296D01*
X123124142Y-68003813D01*
X123193834Y-68008797D01*
X123249767Y-68050669D01*
X123274184Y-68116133D01*
X123274500Y-68124979D01*
X123274500Y-72534019D01*
X123254815Y-72601058D01*
X123238181Y-72621700D01*
X122425614Y-73434266D01*
X122364291Y-73467751D01*
X122294599Y-73462767D01*
X122238666Y-73420895D01*
X122214249Y-73355431D01*
X122227450Y-73290287D01*
X122235165Y-73275144D01*
X122235166Y-73275144D01*
X122250000Y-73181486D01*
X122250000Y-72550000D01*
X121623769Y-72550000D01*
X121556730Y-72530315D01*
X121510975Y-72477511D01*
X121501031Y-72408353D01*
X121504792Y-72391064D01*
X121510000Y-72373327D01*
X121510000Y-72226672D01*
X121504792Y-72208936D01*
X121504792Y-72139066D01*
X121542566Y-72080288D01*
X121606121Y-72051262D01*
X121623769Y-72050000D01*
X122249999Y-72050000D01*
X122249999Y-71418520D01*
X122235164Y-71324850D01*
X122235162Y-71324844D01*
X122177643Y-71211958D01*
X122177636Y-71211949D01*
X122088050Y-71122363D01*
X122088046Y-71122360D01*
X121975144Y-71064833D01*
X121881486Y-71050000D01*
X121250000Y-71050000D01*
X121250000Y-71677596D01*
X121230315Y-71744635D01*
X121177511Y-71790390D01*
X121108355Y-71800334D01*
X121036476Y-71790000D01*
X121036473Y-71790000D01*
X120963527Y-71790000D01*
X120963523Y-71790000D01*
X120891645Y-71800334D01*
X120822487Y-71790390D01*
X120769684Y-71744634D01*
X120750000Y-71677596D01*
X120750000Y-71050000D01*
X120118520Y-71050000D01*
X120024850Y-71064835D01*
X120024844Y-71064837D01*
X119911958Y-71122356D01*
X119911949Y-71122363D01*
X119822363Y-71211949D01*
X119822360Y-71211953D01*
X119764833Y-71324855D01*
X119750000Y-71418513D01*
X119750000Y-72050000D01*
X118380500Y-72050000D01*
X118380500Y-55620001D01*
X120659360Y-55620001D01*
X120679878Y-55854530D01*
X120679879Y-55854537D01*
X120740812Y-56081941D01*
X120740816Y-56081952D01*
X120840309Y-56295316D01*
X120840311Y-56295320D01*
X120975350Y-56488175D01*
X121141825Y-56654650D01*
X121334680Y-56789689D01*
X121405014Y-56822486D01*
X121548047Y-56889183D01*
X121548049Y-56889183D01*
X121548054Y-56889186D01*
X121775464Y-56950121D01*
X121951249Y-56965500D01*
X122068751Y-56965500D01*
X122244536Y-56950121D01*
X122471946Y-56889186D01*
X122685320Y-56789689D01*
X122878175Y-56654650D01*
X123044650Y-56488175D01*
X123179689Y-56295320D01*
X123279186Y-56081946D01*
X123340121Y-55854536D01*
X123360640Y-55620000D01*
X128744656Y-55620000D01*
X128763987Y-55828618D01*
X128821323Y-56030130D01*
X128821328Y-56030143D01*
X128914712Y-56217680D01*
X128914712Y-56217681D01*
X128973340Y-56295318D01*
X129040973Y-56384878D01*
X129040976Y-56384881D01*
X129195800Y-56526021D01*
X129195805Y-56526025D01*
X129373930Y-56636315D01*
X129373931Y-56636315D01*
X129373934Y-56636317D01*
X129569299Y-56712002D01*
X129775244Y-56750500D01*
X129775246Y-56750500D01*
X129984754Y-56750500D01*
X129984756Y-56750500D01*
X130190701Y-56712002D01*
X130386066Y-56636317D01*
X130564197Y-56526023D01*
X130719029Y-56384876D01*
X130845288Y-56217681D01*
X130938676Y-56030133D01*
X130996012Y-55828619D01*
X131015343Y-55620000D01*
X130996012Y-55411381D01*
X130938676Y-55209867D01*
X130845288Y-55022319D01*
X130719029Y-54855124D01*
X130719026Y-54855121D01*
X130719023Y-54855118D01*
X130564199Y-54713978D01*
X130564194Y-54713974D01*
X130386069Y-54603684D01*
X130386063Y-54603682D01*
X130190701Y-54527998D01*
X129984756Y-54489500D01*
X129775244Y-54489500D01*
X129569299Y-54527998D01*
X129445752Y-54575860D01*
X129373936Y-54603682D01*
X129373930Y-54603684D01*
X129195805Y-54713974D01*
X129195800Y-54713978D01*
X129040976Y-54855118D01*
X129040973Y-54855121D01*
X128914712Y-55022318D01*
X128821328Y-55209856D01*
X128821323Y-55209869D01*
X128763987Y-55411381D01*
X128744656Y-55619999D01*
X128744656Y-55620000D01*
X123360640Y-55620000D01*
X123340121Y-55385464D01*
X123279186Y-55158054D01*
X123179689Y-54944680D01*
X123044650Y-54751825D01*
X122878175Y-54585350D01*
X122685320Y-54450311D01*
X122685316Y-54450309D01*
X122471952Y-54350816D01*
X122471941Y-54350812D01*
X122244537Y-54289879D01*
X122244530Y-54289878D01*
X122068751Y-54274500D01*
X121951249Y-54274500D01*
X121775469Y-54289878D01*
X121775462Y-54289879D01*
X121548058Y-54350812D01*
X121548047Y-54350816D01*
X121334683Y-54450309D01*
X121334681Y-54450310D01*
X121262294Y-54500995D01*
X121141825Y-54585350D01*
X121141823Y-54585351D01*
X121141820Y-54585354D01*
X120975354Y-54751820D01*
X120840310Y-54944681D01*
X120840309Y-54944683D01*
X120740816Y-55158047D01*
X120740812Y-55158058D01*
X120679879Y-55385462D01*
X120679878Y-55385469D01*
X120659360Y-55619998D01*
X120659360Y-55620001D01*
X118380500Y-55620001D01*
X118380500Y-46910002D01*
X129894632Y-46910002D01*
X129913981Y-47032172D01*
X129913983Y-47032175D01*
X129970141Y-47142391D01*
X129970143Y-47142393D01*
X129970145Y-47142396D01*
X130057603Y-47229854D01*
X130057605Y-47229855D01*
X130057609Y-47229859D01*
X130167825Y-47286017D01*
X130167827Y-47286018D01*
X130289998Y-47305368D01*
X130290000Y-47305368D01*
X130290002Y-47305368D01*
X130412172Y-47286018D01*
X130412173Y-47286017D01*
X130412175Y-47286017D01*
X130522391Y-47229859D01*
X130609859Y-47142391D01*
X130666017Y-47032175D01*
X130666017Y-47032173D01*
X130666018Y-47032172D01*
X130685368Y-46910002D01*
X130685368Y-46909997D01*
X130666018Y-46787827D01*
X130666017Y-46787825D01*
X130609859Y-46677609D01*
X130609855Y-46677605D01*
X130609854Y-46677603D01*
X130522396Y-46590145D01*
X130522393Y-46590143D01*
X130522391Y-46590141D01*
X130447484Y-46551974D01*
X130412172Y-46533981D01*
X130290002Y-46514632D01*
X130289998Y-46514632D01*
X130167827Y-46533981D01*
X130094347Y-46571421D01*
X130057609Y-46590141D01*
X130057607Y-46590142D01*
X130057608Y-46590142D01*
X130057603Y-46590145D01*
X129970145Y-46677603D01*
X129970142Y-46677608D01*
X129913981Y-46787827D01*
X129894632Y-46909997D01*
X129894632Y-46910002D01*
X118380500Y-46910002D01*
X118380500Y-43625002D01*
X131479632Y-43625002D01*
X131498981Y-43747172D01*
X131498983Y-43747175D01*
X131555141Y-43857391D01*
X131555143Y-43857393D01*
X131555145Y-43857396D01*
X131642603Y-43944854D01*
X131642605Y-43944855D01*
X131642609Y-43944859D01*
X131752825Y-44001017D01*
X131752827Y-44001018D01*
X131874998Y-44020368D01*
X131875000Y-44020368D01*
X131875002Y-44020368D01*
X131997172Y-44001018D01*
X131997173Y-44001017D01*
X131997175Y-44001017D01*
X132107391Y-43944859D01*
X132194859Y-43857391D01*
X132251017Y-43747175D01*
X132251017Y-43747173D01*
X132251018Y-43747172D01*
X132270368Y-43625002D01*
X132270368Y-43624997D01*
X132251018Y-43502827D01*
X132251017Y-43502825D01*
X132194859Y-43392609D01*
X132194855Y-43392605D01*
X132194854Y-43392603D01*
X132107396Y-43305145D01*
X132107393Y-43305143D01*
X132107391Y-43305141D01*
X132032484Y-43266974D01*
X131997172Y-43248981D01*
X131875002Y-43229632D01*
X131874998Y-43229632D01*
X131752827Y-43248981D01*
X131679347Y-43286421D01*
X131642609Y-43305141D01*
X131642608Y-43305142D01*
X131642603Y-43305145D01*
X131555145Y-43392603D01*
X131555142Y-43392608D01*
X131498981Y-43502827D01*
X131479632Y-43624997D01*
X131479632Y-43625002D01*
X118380500Y-43625002D01*
X118380500Y-42125002D01*
X124479632Y-42125002D01*
X124498981Y-42247172D01*
X124498983Y-42247175D01*
X124555141Y-42357391D01*
X124555143Y-42357393D01*
X124555145Y-42357396D01*
X124642603Y-42444854D01*
X124642605Y-42444855D01*
X124642609Y-42444859D01*
X124752825Y-42501017D01*
X124752827Y-42501018D01*
X124874998Y-42520368D01*
X124875000Y-42520368D01*
X124875002Y-42520368D01*
X124997172Y-42501018D01*
X124997173Y-42501017D01*
X124997175Y-42501017D01*
X125107391Y-42444859D01*
X125194859Y-42357391D01*
X125251017Y-42247175D01*
X125251017Y-42247173D01*
X125251018Y-42247172D01*
X125270368Y-42125002D01*
X125270368Y-42124997D01*
X125251018Y-42002827D01*
X125250832Y-42002462D01*
X125194859Y-41892609D01*
X125194855Y-41892605D01*
X125194854Y-41892603D01*
X125107396Y-41805145D01*
X125107393Y-41805143D01*
X125107391Y-41805141D01*
X125032484Y-41766974D01*
X124997172Y-41748981D01*
X124875002Y-41729632D01*
X124874998Y-41729632D01*
X124752827Y-41748981D01*
X124679347Y-41786421D01*
X124642609Y-41805141D01*
X124642607Y-41805142D01*
X124642608Y-41805142D01*
X124642603Y-41805145D01*
X124555145Y-41892603D01*
X124555142Y-41892608D01*
X124555141Y-41892609D01*
X124536421Y-41929347D01*
X124498981Y-42002827D01*
X124479632Y-42124997D01*
X124479632Y-42125002D01*
X118380500Y-42125002D01*
X118380500Y-41500002D01*
X130354632Y-41500002D01*
X130373981Y-41622172D01*
X130373983Y-41622175D01*
X130430141Y-41732391D01*
X130430143Y-41732393D01*
X130430145Y-41732396D01*
X130517603Y-41819854D01*
X130517605Y-41819855D01*
X130517609Y-41819859D01*
X130627825Y-41876017D01*
X130627827Y-41876018D01*
X130749998Y-41895368D01*
X130750000Y-41895368D01*
X130750002Y-41895368D01*
X130872172Y-41876018D01*
X130872173Y-41876017D01*
X130872175Y-41876017D01*
X130982391Y-41819859D01*
X131069859Y-41732391D01*
X131126017Y-41622175D01*
X131126017Y-41622173D01*
X131126018Y-41622172D01*
X131145368Y-41500002D01*
X131145368Y-41499997D01*
X131126018Y-41377827D01*
X131126017Y-41377825D01*
X131069859Y-41267609D01*
X131069855Y-41267605D01*
X131069854Y-41267603D01*
X130982396Y-41180145D01*
X130982393Y-41180143D01*
X130982391Y-41180141D01*
X130907484Y-41141974D01*
X130872172Y-41123981D01*
X130750002Y-41104632D01*
X130749998Y-41104632D01*
X130627827Y-41123981D01*
X130554347Y-41161421D01*
X130517609Y-41180141D01*
X130517608Y-41180142D01*
X130517603Y-41180145D01*
X130430145Y-41267603D01*
X130430142Y-41267608D01*
X130373981Y-41377827D01*
X130354632Y-41499997D01*
X130354632Y-41500002D01*
X118380500Y-41500002D01*
X118380500Y-40500002D01*
X121604632Y-40500002D01*
X121623981Y-40622172D01*
X121623983Y-40622175D01*
X121680141Y-40732391D01*
X121680143Y-40732393D01*
X121680145Y-40732396D01*
X121767603Y-40819854D01*
X121767605Y-40819855D01*
X121767609Y-40819859D01*
X121877825Y-40876017D01*
X121877827Y-40876018D01*
X121999998Y-40895368D01*
X122000000Y-40895368D01*
X122000002Y-40895368D01*
X122122172Y-40876018D01*
X122122173Y-40876017D01*
X122122175Y-40876017D01*
X122232391Y-40819859D01*
X122319859Y-40732391D01*
X122376017Y-40622175D01*
X122376017Y-40622173D01*
X122376018Y-40622172D01*
X122395368Y-40500002D01*
X122395368Y-40499997D01*
X122376018Y-40377827D01*
X122376017Y-40377825D01*
X122319859Y-40267609D01*
X122319855Y-40267605D01*
X122319854Y-40267603D01*
X122232396Y-40180145D01*
X122232393Y-40180143D01*
X122232391Y-40180141D01*
X122134679Y-40130354D01*
X122122172Y-40123981D01*
X122000002Y-40104632D01*
X121999998Y-40104632D01*
X121877827Y-40123981D01*
X121804347Y-40161421D01*
X121767609Y-40180141D01*
X121767608Y-40180142D01*
X121767603Y-40180145D01*
X121680145Y-40267603D01*
X121680142Y-40267608D01*
X121623981Y-40377827D01*
X121604632Y-40499997D01*
X121604632Y-40500002D01*
X118380500Y-40500002D01*
X118380500Y-39810502D01*
X128304632Y-39810502D01*
X128323981Y-39932672D01*
X128323983Y-39932675D01*
X128380141Y-40042891D01*
X128380143Y-40042893D01*
X128380145Y-40042896D01*
X128467603Y-40130354D01*
X128467605Y-40130355D01*
X128467609Y-40130359D01*
X128577825Y-40186517D01*
X128577827Y-40186518D01*
X128699998Y-40205868D01*
X128700000Y-40205868D01*
X128700002Y-40205868D01*
X128822172Y-40186518D01*
X128822173Y-40186517D01*
X128822175Y-40186517D01*
X128932391Y-40130359D01*
X129019859Y-40042891D01*
X129076017Y-39932675D01*
X129076017Y-39932673D01*
X129076018Y-39932672D01*
X129095368Y-39810502D01*
X129095368Y-39810497D01*
X129076018Y-39688327D01*
X129076017Y-39688325D01*
X129019859Y-39578109D01*
X129019855Y-39578105D01*
X129019854Y-39578103D01*
X128932396Y-39490645D01*
X128932393Y-39490643D01*
X128932391Y-39490641D01*
X128857484Y-39452474D01*
X128822172Y-39434481D01*
X128700002Y-39415132D01*
X128699998Y-39415132D01*
X128577827Y-39434481D01*
X128504347Y-39471921D01*
X128467609Y-39490641D01*
X128467607Y-39490642D01*
X128467608Y-39490642D01*
X128467603Y-39490645D01*
X128380145Y-39578103D01*
X128380142Y-39578108D01*
X128323981Y-39688327D01*
X128304632Y-39810497D01*
X128304632Y-39810502D01*
X118380500Y-39810502D01*
X118380500Y-35700002D01*
X129129299Y-35700002D01*
X129149904Y-35803592D01*
X129149904Y-35803593D01*
X129185080Y-35856238D01*
X129208585Y-35891415D01*
X129261230Y-35926590D01*
X129296406Y-35950095D01*
X129399998Y-35970701D01*
X129400000Y-35970701D01*
X129400002Y-35970701D01*
X129469062Y-35956963D01*
X129503593Y-35950095D01*
X129591415Y-35891415D01*
X129650095Y-35803593D01*
X129670701Y-35700000D01*
X129650095Y-35596407D01*
X129650095Y-35596406D01*
X129626590Y-35561230D01*
X129591415Y-35508585D01*
X129556238Y-35485080D01*
X129503593Y-35449904D01*
X129400002Y-35429299D01*
X129399998Y-35429299D01*
X129296407Y-35449904D01*
X129296406Y-35449904D01*
X129208585Y-35508585D01*
X129149904Y-35596406D01*
X129149904Y-35596407D01*
X129129299Y-35699997D01*
X129129299Y-35700002D01*
X118380500Y-35700002D01*
X118380500Y-33133393D01*
X124729999Y-33133393D01*
X124730000Y-33529999D01*
X124730000Y-33530000D01*
X125256000Y-33530000D01*
X125323039Y-33549685D01*
X125368794Y-33602489D01*
X125380000Y-33654000D01*
X125380000Y-33906000D01*
X125360315Y-33973039D01*
X125307511Y-34018794D01*
X125256000Y-34030000D01*
X124730000Y-34030000D01*
X124730000Y-34378176D01*
X124744647Y-34522221D01*
X124802484Y-34706561D01*
X124802489Y-34706571D01*
X124896251Y-34875498D01*
X124896256Y-34875505D01*
X125022107Y-35022105D01*
X125174890Y-35140368D01*
X125174894Y-35140370D01*
X125348363Y-35225460D01*
X125430000Y-35246596D01*
X125430000Y-34684978D01*
X125449685Y-34617939D01*
X125502489Y-34572184D01*
X125571647Y-34562240D01*
X125587926Y-34565709D01*
X125651840Y-34583895D01*
X125763521Y-34573546D01*
X125763522Y-34573545D01*
X125772061Y-34571116D01*
X125841928Y-34571700D01*
X125900388Y-34609965D01*
X125928880Y-34673761D01*
X125929999Y-34690381D01*
X125929999Y-35250470D01*
X125930000Y-35250470D01*
X126100524Y-35187315D01*
X126100531Y-35187312D01*
X126264503Y-35085107D01*
X126404534Y-34951997D01*
X126404535Y-34951996D01*
X126514913Y-34793413D01*
X126591106Y-34615862D01*
X126630000Y-34426606D01*
X126630000Y-34030000D01*
X126104000Y-34030000D01*
X126036961Y-34010315D01*
X125991206Y-33957511D01*
X125980000Y-33906000D01*
X125980000Y-33654000D01*
X125999685Y-33586961D01*
X126052489Y-33541206D01*
X126104000Y-33530000D01*
X126630000Y-33530000D01*
X126630000Y-33370002D01*
X128979299Y-33370002D01*
X128999904Y-33473592D01*
X128999904Y-33473593D01*
X129035080Y-33526238D01*
X129058585Y-33561415D01*
X129096818Y-33586961D01*
X129146406Y-33620095D01*
X129249998Y-33640701D01*
X129250000Y-33640701D01*
X129250002Y-33640701D01*
X129319062Y-33626963D01*
X129353593Y-33620095D01*
X129398190Y-33590296D01*
X129464868Y-33569418D01*
X129512140Y-33582385D01*
X129491808Y-33527872D01*
X129498634Y-33485754D01*
X129497713Y-33485571D01*
X129512353Y-33411966D01*
X129520701Y-33370000D01*
X129500095Y-33266407D01*
X129500095Y-33266406D01*
X129461459Y-33208584D01*
X129441415Y-33178585D01*
X129398490Y-33149904D01*
X129353593Y-33119904D01*
X129250002Y-33099299D01*
X129249998Y-33099299D01*
X129146407Y-33119904D01*
X129146406Y-33119904D01*
X129058585Y-33178585D01*
X128999904Y-33266406D01*
X128999904Y-33266407D01*
X128979299Y-33369997D01*
X128979299Y-33370002D01*
X126630000Y-33370002D01*
X126630000Y-33181823D01*
X126615352Y-33037778D01*
X126557515Y-32853438D01*
X126557510Y-32853428D01*
X126463748Y-32684501D01*
X126463743Y-32684494D01*
X126337892Y-32537894D01*
X126185109Y-32419631D01*
X126185105Y-32419629D01*
X126011642Y-32334542D01*
X126011643Y-32334542D01*
X125929999Y-32313403D01*
X125930000Y-32875021D01*
X125910315Y-32942060D01*
X125857511Y-32987815D01*
X125788353Y-32997759D01*
X125772066Y-32994287D01*
X125708162Y-32976105D01*
X125708162Y-32976104D01*
X125596475Y-32986454D01*
X125587931Y-32988885D01*
X125518064Y-32988297D01*
X125459606Y-32950028D01*
X125431118Y-32886230D01*
X125430000Y-32869618D01*
X125430000Y-32309528D01*
X125259472Y-32372685D01*
X125259468Y-32372687D01*
X125095496Y-32474892D01*
X124955465Y-32608002D01*
X124955464Y-32608003D01*
X124845086Y-32766586D01*
X124768893Y-32944137D01*
X124729999Y-33133393D01*
X118380500Y-33133393D01*
X118380500Y-26744500D01*
X118400185Y-26677461D01*
X118452989Y-26631706D01*
X118504500Y-26620500D01*
X125108102Y-26620500D01*
X125175141Y-26640185D01*
G37*
G04 #@! TD.AperFunction*
M02*
