%TF.GenerationSoftware,KiCad,Pcbnew,7.0.2*%
%TF.CreationDate,2023-05-03T22:50:51+02:00*%
%TF.ProjectId,Frackstock,46726163-6b73-4746-9f63-6b2e6b696361,rev?*%
%TF.SameCoordinates,PX54f9b60PY6e87f28*%
%TF.FileFunction,Legend,Bot*%
%TF.FilePolarity,Positive*%
%FSLAX46Y46*%
G04 Gerber Fmt 4.6, Leading zero omitted, Abs format (unit mm)*
G04 Created by KiCad (PCBNEW 7.0.2) date 2023-05-03 22:50:51*
%MOMM*%
%LPD*%
G01*
G04 APERTURE LIST*
%ADD10C,0.150000*%
%ADD11C,0.100000*%
%ADD12C,0.200000*%
%ADD13R,1.700000X1.700000*%
%ADD14O,1.700000X1.700000*%
%ADD15O,2.200000X1.100000*%
%ADD16O,2.600000X1.300000*%
%ADD17C,1.501000*%
%ADD18C,1.980000*%
%ADD19C,5.325000*%
%ADD20C,3.585000*%
G04 APERTURE END LIST*
D10*
%TO.C,U14*%
X11205971Y40271857D02*
X11691685Y40271857D01*
X11691685Y40271857D02*
X11748828Y40243286D01*
X11748828Y40243286D02*
X11777400Y40214714D01*
X11777400Y40214714D02*
X11805971Y40157572D01*
X11805971Y40157572D02*
X11805971Y40043286D01*
X11805971Y40043286D02*
X11777400Y39986143D01*
X11777400Y39986143D02*
X11748828Y39957572D01*
X11748828Y39957572D02*
X11691685Y39929000D01*
X11691685Y39929000D02*
X11205971Y39929000D01*
X11805971Y39329001D02*
X11805971Y39671858D01*
X11805971Y39500429D02*
X11205971Y39500429D01*
X11205971Y39500429D02*
X11291685Y39557572D01*
X11291685Y39557572D02*
X11348828Y39614715D01*
X11348828Y39614715D02*
X11377400Y39671858D01*
X11405971Y38814714D02*
X11805971Y38814714D01*
X11177400Y38957572D02*
X11605971Y39100429D01*
X11605971Y39100429D02*
X11605971Y38729000D01*
D11*
X1203400Y1004000D02*
X1203400Y1004000D01*
X1203400Y1004000D02*
X21853400Y1004000D01*
X21853400Y1004000D02*
X1203400Y1004000D01*
X21853400Y1004000D02*
X21853400Y1004000D01*
X1203400Y78054000D02*
X1203400Y78054000D01*
X1203400Y78054000D02*
X21853400Y78054000D01*
X21853400Y78054000D02*
X1203400Y78054000D01*
X21853400Y78054000D02*
X21853400Y78054000D01*
D12*
X11428400Y78549000D02*
X11428400Y78549000D01*
X11628400Y78549000D02*
X11628400Y78549000D01*
X11628400Y78549000D02*
G75*
G03*
X11428400Y78549000I-100000J0D01*
G01*
X11428400Y78549000D02*
G75*
G03*
X11628400Y78549000I100000J0D01*
G01*
%TD*%
%LPC*%
D13*
%TO.C,J8*%
X20955000Y33304400D03*
D14*
X20955000Y30764400D03*
%TD*%
D13*
%TO.C,J6*%
X12011000Y43073400D03*
D14*
X12011000Y45613400D03*
%TD*%
D15*
%TO.C,J2*%
X15867800Y48080200D03*
X15867800Y56720200D03*
D16*
X21227800Y48080200D03*
X21227800Y56720200D03*
%TD*%
D17*
%TO.C,J1*%
X2232000Y49352400D03*
X2232000Y51892400D03*
X2232000Y54432400D03*
%TD*%
D13*
%TO.C,J5*%
X13839800Y65831800D03*
D14*
X13839800Y68371800D03*
%TD*%
D18*
%TO.C,U14*%
X11528400Y75649000D03*
X11528400Y3429000D03*
D19*
X3658400Y12249000D03*
D20*
X3658400Y75649000D03*
D19*
X19398400Y67449000D03*
%TD*%
%LPD*%
M02*
