G04 #@! TF.GenerationSoftware,KiCad,Pcbnew,7.0.7*
G04 #@! TF.CreationDate,2024-03-28T15:42:58+01:00*
G04 #@! TF.ProjectId,Frackstock,46726163-6b73-4746-9f63-6b2e6b696361,2*
G04 #@! TF.SameCoordinates,Original*
G04 #@! TF.FileFunction,Soldermask,Bot*
G04 #@! TF.FilePolarity,Negative*
%FSLAX46Y46*%
G04 Gerber Fmt 4.6, Leading zero omitted, Abs format (unit mm)*
G04 Created by KiCad (PCBNEW 7.0.7) date 2024-03-28 15:42:58*
%MOMM*%
%LPD*%
G01*
G04 APERTURE LIST*
G04 Aperture macros list*
%AMRoundRect*
0 Rectangle with rounded corners*
0 $1 Rounding radius*
0 $2 $3 $4 $5 $6 $7 $8 $9 X,Y pos of 4 corners*
0 Add a 4 corners polygon primitive as box body*
4,1,4,$2,$3,$4,$5,$6,$7,$8,$9,$2,$3,0*
0 Add four circle primitives for the rounded corners*
1,1,$1+$1,$2,$3*
1,1,$1+$1,$4,$5*
1,1,$1+$1,$6,$7*
1,1,$1+$1,$8,$9*
0 Add four rect primitives between the rounded corners*
20,1,$1+$1,$2,$3,$4,$5,0*
20,1,$1+$1,$4,$5,$6,$7,0*
20,1,$1+$1,$6,$7,$8,$9,0*
20,1,$1+$1,$8,$9,$2,$3,0*%
G04 Aperture macros list end*
%ADD10R,1.700000X1.700000*%
%ADD11O,1.100000X2.200000*%
%ADD12O,1.300000X2.600000*%
%ADD13O,1.800000X1.800000*%
%ADD14O,1.500000X1.500000*%
%ADD15O,1.700000X1.700000*%
%ADD16RoundRect,0.007800X-0.512200X-0.122200X0.512200X-0.122200X0.512200X0.122200X-0.512200X0.122200X0*%
%ADD17RoundRect,0.007800X-0.122200X0.512200X-0.122200X-0.512200X0.122200X-0.512200X0.122200X0.512200X0*%
%ADD18R,2.400000X2.400000*%
%ADD19C,3.550000*%
%ADD20C,2.390000*%
%ADD21C,1.980000*%
%ADD22RoundRect,0.237500X0.300000X0.237500X-0.300000X0.237500X-0.300000X-0.237500X0.300000X-0.237500X0*%
%ADD23RoundRect,0.237500X0.237500X-0.300000X0.237500X0.300000X-0.237500X0.300000X-0.237500X-0.300000X0*%
%ADD24RoundRect,0.237500X-0.237500X0.300000X-0.237500X-0.300000X0.237500X-0.300000X0.237500X0.300000X0*%
%ADD25RoundRect,0.237500X-0.300000X-0.237500X0.300000X-0.237500X0.300000X0.237500X-0.300000X0.237500X0*%
%ADD26RoundRect,0.237500X-0.250000X-0.237500X0.250000X-0.237500X0.250000X0.237500X-0.250000X0.237500X0*%
%ADD27RoundRect,0.237500X0.250000X0.237500X-0.250000X0.237500X-0.250000X-0.237500X0.250000X-0.237500X0*%
%ADD28R,1.800000X1.200000*%
G04 APERTURE END LIST*
D10*
X138200000Y-38450000D03*
D11*
X134320000Y-33780000D03*
X125680000Y-33780000D03*
D12*
X134320000Y-28420000D03*
X125680000Y-28420000D03*
D13*
X127165000Y-67350000D03*
D14*
X127465000Y-70380000D03*
X132315000Y-70380000D03*
D13*
X132615000Y-67350000D03*
D15*
X121000000Y-67220000D03*
X121000000Y-69760000D03*
D10*
X121000000Y-72300000D03*
D15*
X121000000Y-74840000D03*
X121000000Y-77380000D03*
X121000000Y-79920000D03*
X121000000Y-82460000D03*
D10*
X121000000Y-85000000D03*
D15*
X121000000Y-87540000D03*
X121000000Y-90080000D03*
X121000000Y-92620000D03*
X121000000Y-95160000D03*
D10*
X121000000Y-97700000D03*
D15*
X121000000Y-100240000D03*
X121000000Y-102780000D03*
X121000000Y-105320000D03*
X121000000Y-107860000D03*
D10*
X121000000Y-110400000D03*
D15*
X121000000Y-112940000D03*
X121000000Y-115480000D03*
X138780000Y-115480000D03*
X138780000Y-112940000D03*
D10*
X138780000Y-110400000D03*
D15*
X138780000Y-107860000D03*
X138780000Y-105320000D03*
X138780000Y-102780000D03*
X138780000Y-100240000D03*
D10*
X138780000Y-97700000D03*
D15*
X138780000Y-95160000D03*
X138780000Y-92620000D03*
X138780000Y-90080000D03*
X138780000Y-87540000D03*
D10*
X138780000Y-85000000D03*
D15*
X138780000Y-82460000D03*
X138780000Y-79920000D03*
X138780000Y-77380000D03*
X138780000Y-74840000D03*
D10*
X138780000Y-72300000D03*
D15*
X138780000Y-69760000D03*
X138780000Y-67220000D03*
D16*
X123010000Y-142120000D03*
X123010000Y-141620000D03*
X123010000Y-141120000D03*
X123010000Y-140620000D03*
X123010000Y-140120000D03*
D17*
X123880000Y-139250000D03*
X124380000Y-139250000D03*
X124880000Y-139250000D03*
X125380000Y-139250000D03*
X125880000Y-139250000D03*
D16*
X126750000Y-140120000D03*
X126750000Y-140620000D03*
X126750000Y-141120000D03*
X126750000Y-141620000D03*
X126750000Y-142120000D03*
D17*
X125880000Y-142990000D03*
X125380000Y-142990000D03*
X124880000Y-142990000D03*
X124380000Y-142990000D03*
X123880000Y-142990000D03*
D18*
X124880000Y-141120000D03*
D19*
X122010000Y-119020000D03*
X137750000Y-63820000D03*
D20*
X122010000Y-55620000D03*
D21*
X129880000Y-55620000D03*
X129880000Y-127840000D03*
D22*
X125662500Y-137000000D03*
X123937500Y-137000000D03*
D23*
X129700000Y-134962500D03*
X129700000Y-133237500D03*
D24*
X128380000Y-144757500D03*
X128380000Y-146482500D03*
D25*
X128597500Y-139250000D03*
X130322500Y-139250000D03*
D26*
X119487500Y-137600000D03*
X121312500Y-137600000D03*
D23*
X120400000Y-134262500D03*
X120400000Y-132537500D03*
D27*
X123792500Y-146120000D03*
X121967500Y-146120000D03*
D28*
X123150000Y-132600000D03*
X127150000Y-132600000D03*
X127150000Y-135000000D03*
X123150000Y-135000000D03*
D24*
X126880000Y-144757500D03*
X126880000Y-146482500D03*
D22*
X123742500Y-144620000D03*
X122017500Y-144620000D03*
D24*
X119490000Y-139497500D03*
X119490000Y-141222500D03*
X121130000Y-139507500D03*
X121130000Y-141232500D03*
M02*
